<svg width="174" height="32" viewBox="0 0 174 32" fill="none" xmlns="http://www.w3.org/2000/svg">
<g clip-path="url(#clip0_2755_6565)">
<path d="M15.9439 31.5C24.6426 31.5 31.6939 24.4487 31.6939 15.75V4.725C31.6939 3.47185 31.1961 2.27003 30.3099 1.38392C29.4238 0.497811 28.222 0 26.9689 0L16.7314 0V6.90953C16.7314 8.4861 16.8274 10.1194 17.6543 11.4613C18.2463 12.423 19.0382 13.2461 19.9763 13.8748C20.9143 14.5035 21.9767 14.9231 23.0912 15.105L23.3928 15.1539C23.5172 15.1964 23.6251 15.2767 23.7015 15.3836C23.778 15.4905 23.8191 15.6186 23.8191 15.75C23.8191 15.8814 23.778 16.0095 23.7015 16.1164C23.6251 16.2233 23.5172 16.3036 23.3928 16.3461L23.0912 16.395C21.4628 16.661 19.9591 17.4318 18.7923 18.5985C17.6256 19.7652 16.8548 21.2689 16.5888 22.8974L16.54 23.199C16.4975 23.3233 16.4172 23.4312 16.3103 23.5077C16.2034 23.5841 16.0753 23.6252 15.9439 23.6252C15.8125 23.6252 15.6843 23.5841 15.5774 23.5077C15.4706 23.4312 15.3902 23.3233 15.3477 23.199L15.2989 22.8974C15.1169 21.7828 14.6973 20.7205 14.0686 19.7824C13.4399 18.8443 12.6168 18.0524 11.6551 17.4605C10.3132 16.6336 8.67997 16.5375 7.10339 16.5375H0.212769C0.624631 24.87 7.50974 31.5 15.9439 31.5Z" fill="#E4F7EF"/>
<path d="M0.193726 14.9625H7.10325C8.67983 14.9625 10.3131 14.8664 11.655 14.0395C12.704 13.3932 13.587 12.5102 14.2333 11.4613C15.0602 10.1194 15.1562 8.4861 15.1562 6.90952V0H4.91873C3.66558 0 2.46376 0.497811 1.57765 1.38392C0.691537 2.27003 0.193726 3.47185 0.193726 4.725L0.193726 14.9625ZM36.777 1.575C36.777 1.99272 36.6111 2.39332 36.3157 2.68869C36.0204 2.98406 35.6198 3.15 35.202 3.15C34.7843 3.15 34.3837 2.98406 34.0883 2.68869C33.793 2.39332 33.627 1.99272 33.627 1.575C33.627 1.15728 33.793 0.756677 34.0883 0.461307C34.3837 0.165937 34.7843 0 35.202 0C35.6198 0 36.0204 0.165937 36.3157 0.461307C36.6111 0.756677 36.777 1.15728 36.777 1.575ZM166.916 9.5319C171.319 9.5319 173.444 12.6071 173.444 16.1689V22.8588H168.836V16.9627C168.836 15.3484 168.247 14.0159 166.558 14.0159C164.869 14.0159 164.306 15.3484 164.306 16.9627V22.858H159.698V16.9627C159.698 15.3484 159.135 14.0159 157.445 14.0159C155.756 14.0159 155.167 15.3484 155.167 16.9627V22.858H150.56V16.1682C150.56 12.6063 152.684 9.53111 157.087 9.53111C159.493 9.53111 161.234 10.4793 162.027 12.0424C162.872 10.4793 164.715 9.53032 166.916 9.53032V9.5319ZM142.28 18.7582C143.764 18.7582 144.405 17.3998 144.405 15.7846V10.0438H149.012V16.3485C149.012 20.1159 146.81 23.2431 142.28 23.2431C137.749 23.2431 135.548 20.1167 135.548 16.3485V10.0438H140.155V15.7846C140.155 17.399 140.795 18.7582 142.28 18.7582ZM128.773 23.2683C125.88 23.2683 124.012 22.2689 122.911 20.3214L126.239 18.4503C126.699 19.2701 127.39 19.6804 128.542 19.6804C129.489 19.6804 129.924 19.3473 129.924 18.937C129.924 17.3738 123.167 18.963 123.167 13.9915C123.167 11.5818 125.214 9.63427 128.696 9.63427C131.742 9.63427 133.406 11.1203 134.148 12.5559L130.82 14.4522C130.539 13.6836 129.668 13.2221 128.798 13.2221C128.133 13.2221 127.774 13.504 127.774 13.8883C127.774 15.4775 134.532 14.0167 134.532 18.8346C134.532 21.5255 131.895 23.2683 128.773 23.2683ZM112.675 28.7532H108.067V16.4257C108.067 12.5039 111.011 9.65947 115.107 9.65947C119.1 9.65947 122.146 12.7095 122.146 16.4257C122.146 20.5262 119.432 23.2431 115.362 23.2431C114.415 23.2431 113.469 22.9611 112.675 22.5249V28.7532ZM115.107 18.9118C116.566 18.9118 117.538 17.7841 117.538 16.4509C117.538 15.0932 116.566 13.9907 115.107 13.9907C113.647 13.9907 112.675 15.0932 112.675 16.4517C112.675 17.7841 113.647 18.9118 115.107 18.9118ZM103.452 8.68612C101.941 8.68612 100.687 7.43006 100.687 5.91806C100.687 4.40606 101.941 3.15 103.452 3.15C104.962 3.15 106.216 4.40606 106.216 5.91806C106.216 7.43006 104.962 8.68612 103.452 8.68612ZM101.148 10.0438H105.756V22.8588H101.148V10.0438ZM92.3076 23.2431C88.3142 23.2431 85.2681 20.1679 85.2681 16.4257C85.2681 12.7095 88.3142 9.63427 92.3076 9.63427C96.301 9.63427 99.3471 12.7095 99.3471 16.4257C99.3471 20.1679 96.301 23.2431 92.3076 23.2431ZM92.3076 18.9118C93.7668 18.9118 94.7394 17.7841 94.7394 16.4509C94.7394 15.0932 93.7668 13.9655 92.3076 13.9655C90.8484 13.9655 89.8758 15.0932 89.8758 16.4509C89.8758 17.7841 90.8484 18.9118 92.3076 18.9118ZM76.5678 29.1375C73.3942 29.1375 71.09 27.7279 69.9127 25.2157L73.7265 23.1659C74.136 24.0376 74.9039 24.9346 76.4907 24.9346C78.1554 24.9346 79.2556 23.8833 79.3839 22.0382C78.7697 22.5768 77.7963 22.9863 76.3379 22.9863C72.7792 22.9863 69.9119 20.2443 69.9119 16.3997C69.9119 12.6843 72.9587 9.65947 76.9521 9.65947C81.0479 9.65947 83.9916 12.5047 83.9916 16.4257V21.5003C83.9916 26.1135 80.7912 29.1375 76.5678 29.1375ZM76.875 18.6559C78.257 18.6559 79.3068 17.7069 79.3068 16.2973C79.3068 14.9137 78.2578 13.9907 76.875 13.9907C75.5181 13.9907 74.4432 14.9137 74.4432 16.2981C74.4432 17.7077 75.5181 18.6551 76.875 18.6551V18.6559ZM62.0967 23.2431C58.1033 23.2431 55.0565 20.1679 55.0565 16.4257C55.0565 12.7095 58.1033 9.63427 62.0967 9.63427C66.0894 9.63427 69.1362 12.7095 69.1362 16.4257C69.1362 20.1679 66.0902 23.2431 62.0967 23.2431ZM62.0967 18.9118C63.556 18.9118 64.5285 17.7841 64.5285 16.4509C64.5285 15.0932 63.556 13.9655 62.0967 13.9655C60.6375 13.9655 59.6649 15.0932 59.6649 16.4509C59.6649 17.7841 60.6375 18.9118 62.0967 18.9118ZM46.6665 5.55975V18.5015H54.295V22.8588H46.0262C43.1085 22.8588 41.9312 21.3208 41.9312 18.8858V5.55975H46.6665Z" fill="#E4F7EF"/>
</g>
<defs>
<clipPath id="clip0_2755_6565">
<rect width="173.25" height="31.5" fill="white" transform="translate(0.193726)"/>
</clipPath>
</defs>
</svg>
