<svg width="156" height="36" viewBox="0 0 156 36" fill="none" xmlns="http://www.w3.org/2000/svg">
<g clip-path="url(#clip0_2755_6579)">
<path d="M44.9167 26.1H55.1342V23.1906H48.0324V9.60547H44.9167V26.1Z" fill="#E4F7EF"/>
<path d="M61.2742 26.4437C62.5114 26.4437 63.5995 26.1687 64.5388 25.6189C65.4857 25.0615 66.2226 24.294 66.7495 23.3166C67.284 22.3315 67.5513 21.1975 67.5513 19.9146C67.5513 18.6393 67.2878 17.513 66.761 16.5355C66.234 15.5504 65.4971 14.7791 64.5502 14.2217C63.611 13.6642 62.519 13.3855 61.2742 13.3855C60.0524 13.3855 58.9718 13.6604 58.0326 14.2103C57.0934 14.7601 56.3564 15.5275 55.8218 16.5126C55.2873 17.49 55.02 18.624 55.02 19.9146C55.02 21.1898 55.2797 22.3201 55.799 23.3051C56.3258 24.2826 57.059 25.05 57.9982 25.6075C58.9375 26.165 60.0295 26.4437 61.2742 26.4437ZM61.2742 23.5343C60.3044 23.5343 59.5675 23.2097 59.0635 22.5606C58.5671 21.9039 58.319 21.0219 58.319 19.9146C58.319 18.8379 58.5557 17.9673 59.0292 17.3029C59.5102 16.631 60.2586 16.2949 61.2742 16.2949C62.2594 16.2949 63 16.6233 63.4964 17.2801C64.0004 17.9368 64.2524 18.8149 64.2524 19.9146C64.2524 20.9761 64.0043 21.8466 63.5078 22.5263C63.0191 23.1982 62.2746 23.5343 61.2742 23.5343Z" fill="#E4F7EF"/>
<path d="M73.7127 26.4437C74.2931 26.4437 74.8276 26.3749 75.3164 26.2375C75.8128 26.1001 76.2633 25.9053 76.668 25.6533V26.9019C76.6833 27.3601 76.5649 27.7418 76.3129 28.0473C76.0685 28.3604 75.7402 28.5933 75.3279 28.7461C74.9155 28.9064 74.4764 28.9866 74.0106 28.9866C73.5753 28.9866 73.1706 28.8911 72.7964 28.7003C72.4299 28.5094 72.1473 28.2306 71.9487 27.8641L69.0622 29.2615C69.5356 30.0633 70.2114 30.7086 71.0897 31.1973C71.9679 31.6937 72.9339 31.9419 73.9877 31.9419C74.8964 31.9419 75.7402 31.8197 76.5191 31.5753C77.298 31.3386 77.9548 30.9759 78.4893 30.4871C79.0314 29.9984 79.4019 29.3761 79.6004 28.6201C79.6691 28.3528 79.7149 28.0817 79.7379 27.8067C79.7684 27.5395 79.7837 27.2531 79.7837 26.9477V13.7291H77.0575V14.4164C76.6374 14.088 76.1602 13.836 75.6257 13.6604C75.0987 13.4771 74.5146 13.3855 73.8731 13.3855C72.6895 13.3855 71.6586 13.6681 70.7804 14.2331C69.9022 14.7982 69.2187 15.5733 68.73 16.5584C68.2489 17.5358 68.0084 18.6546 68.0084 19.9146C68.0084 21.1517 68.2451 22.2627 68.7186 23.2479C69.1997 24.2329 69.8678 25.0119 70.7231 25.5846C71.5784 26.1573 72.5749 26.4437 73.7127 26.4437ZM74.2167 23.6717C73.5448 23.6717 72.995 23.5037 72.5673 23.1677C72.1397 22.8317 71.8227 22.3812 71.6166 21.8161C71.4104 21.2433 71.3073 20.6095 71.3073 19.9146C71.3073 19.2273 71.4142 18.6012 71.628 18.0361C71.8419 17.4633 72.1702 17.009 72.6131 16.6729C73.0636 16.3293 73.6364 16.1575 74.3313 16.1575C75.3088 16.1575 76.0074 16.505 76.4275 17.1999C76.8475 17.8871 77.0575 18.7921 77.0575 19.9146C77.0575 21.0371 76.8436 21.9458 76.416 22.6407C75.996 23.3281 75.263 23.6717 74.2167 23.6717Z" fill="#E4F7EF"/>
<path d="M87.1838 26.4437C88.4209 26.4437 89.5091 26.1687 90.4483 25.6189C91.395 25.0615 92.1321 24.294 92.6586 23.3166C93.1932 22.3315 93.4605 21.1975 93.4605 19.9146C93.4605 18.6393 93.1977 17.513 92.6703 16.5355C92.1438 15.5504 91.4067 14.7791 90.4598 14.2217C89.5205 13.6642 88.4285 13.3855 87.1838 13.3855C85.9619 13.3855 84.8814 13.6604 83.9421 14.2103C83.0029 14.7601 82.266 15.5275 81.7314 16.5126C81.1969 17.49 80.9296 18.624 80.9296 19.9146C80.9296 21.1898 81.1892 22.3201 81.7085 23.3051C82.2354 24.2826 82.9685 25.05 83.9078 25.6075C84.8471 26.165 85.9391 26.4437 87.1838 26.4437ZM87.1838 23.5343C86.2139 23.5343 85.477 23.2097 84.973 22.5606C84.4767 21.9039 84.2285 21.0219 84.2285 19.9146C84.2285 18.8379 84.4652 17.9673 84.9387 17.3029C85.4198 16.631 86.1681 16.2949 87.1838 16.2949C88.1689 16.2949 88.9096 16.6233 89.406 17.2801C89.91 17.9368 90.1619 18.8149 90.1619 19.9146C90.1619 20.9761 89.9137 21.8466 89.4174 22.5263C88.9287 23.1982 88.1841 23.5343 87.1838 23.5343Z" fill="#E4F7EF"/>
<path d="M94.834 12.0109H97.9498V9.26184H94.834V12.0109ZM94.834 26.1H97.9498V13.7291H94.834V26.1Z" fill="#E4F7EF"/>
<path d="M99.9865 31.5983H103.125V25.6533C103.53 25.9053 103.976 26.1001 104.465 26.2375C104.962 26.3749 105.5 26.4437 106.08 26.4437C107.218 26.4437 108.215 26.1573 109.07 25.5846C109.925 25.0119 110.589 24.2329 111.063 23.2479C111.544 22.2627 111.785 21.1517 111.785 19.9146C111.785 18.6546 111.541 17.5358 111.052 16.5584C110.57 15.5733 109.891 14.7982 109.013 14.2331C108.134 13.6681 107.104 13.3855 105.92 13.3855C105.278 13.3855 104.691 13.4771 104.156 13.6604C103.629 13.836 103.155 14.088 102.736 14.4164V13.7291H99.9865V31.5983ZM105.576 23.6717C104.538 23.6717 103.805 23.3281 103.377 22.6407C102.949 21.9458 102.736 21.0371 102.736 19.9146C102.736 18.7921 102.946 17.8871 103.366 17.1999C103.793 16.505 104.492 16.1575 105.462 16.1575C106.157 16.1575 106.726 16.3293 107.168 16.6729C107.619 17.009 107.951 17.4633 108.165 18.0361C108.379 18.6012 108.486 19.2273 108.486 19.9146C108.486 20.6095 108.383 21.2433 108.176 21.8161C107.97 22.3812 107.654 22.8317 107.226 23.1677C106.799 23.5037 106.249 23.6717 105.576 23.6717Z" fill="#E4F7EF"/>
<path d="M117.429 26.4437C119.048 26.4437 120.316 26.081 121.232 25.3555C122.148 24.63 122.606 23.6335 122.606 22.3659C122.606 21.4037 122.308 20.6439 121.713 20.0864C121.125 19.529 120.125 19.0669 118.712 18.7004C117.75 18.456 117.032 18.2575 116.558 18.1047C116.093 17.9521 115.783 17.8031 115.63 17.6581C115.485 17.513 115.413 17.3335 115.413 17.1197C115.413 16.7608 115.584 16.4859 115.928 16.2949C116.28 16.104 116.742 16.0277 117.314 16.0659C118.528 16.1575 119.193 16.6768 119.308 17.6237L122.492 17.0509C122.332 15.9284 121.782 15.0388 120.842 14.3821C119.903 13.7177 118.705 13.3855 117.246 13.3855C115.749 13.3855 114.554 13.7368 113.66 14.4393C112.767 15.1418 112.32 16.0887 112.32 17.2801C112.32 18.227 112.63 18.9753 113.248 19.5251C113.866 20.0674 114.932 20.5331 116.444 20.9226C117.338 21.1593 117.994 21.3502 118.414 21.4953C118.841 21.6404 119.117 21.7893 119.238 21.9421C119.361 22.0871 119.422 22.2819 119.422 22.5263C119.422 22.9157 119.269 23.2211 118.964 23.4426C118.659 23.6564 118.223 23.7633 117.658 23.7633C116.97 23.7633 116.402 23.5991 115.952 23.2707C115.509 22.9424 115.222 22.4881 115.092 21.9077L111.908 22.3887C112.114 23.6793 112.694 24.6797 113.649 25.3899C114.611 26.0924 115.871 26.4437 117.429 26.4437Z" fill="#E4F7EF"/>
<path d="M128.354 26.4666C129.247 26.4666 130.026 26.3177 130.691 26.0199C131.355 25.7221 131.912 25.325 132.363 24.8286V26.1001H135.112V13.7291H131.973V20.0063C131.973 20.7699 131.885 21.3884 131.71 21.8619C131.542 22.3277 131.324 22.6828 131.057 22.9271C130.79 23.1639 130.504 23.3242 130.198 23.4083C129.893 23.4922 129.606 23.5343 129.339 23.5343C128.675 23.5343 128.159 23.3853 127.793 23.0875C127.434 22.7897 127.174 22.4193 127.013 21.9765C126.853 21.5335 126.758 21.0945 126.727 20.6591C126.697 20.2162 126.681 19.8535 126.681 19.5709V13.7291H123.52V20.6706C123.52 20.8767 123.535 21.2052 123.566 21.6557C123.596 22.1062 123.684 22.6065 123.829 23.1563C123.974 23.6984 124.214 24.2215 124.551 24.7255C124.895 25.2295 125.372 25.6457 125.983 25.9741C126.593 26.3024 127.384 26.4666 128.354 26.4666Z" fill="#E4F7EF"/>
<path d="M136.916 26.1H140.054V18.6087C140.054 17.8986 140.249 17.3221 140.639 16.8791C141.035 16.4285 141.558 16.2033 142.208 16.2033C142.888 16.2033 143.419 16.4324 143.8 16.8906C144.189 17.3411 144.384 17.9749 144.384 18.792V26.1H147.5V18.6087C147.5 17.8986 147.695 17.3221 148.084 16.8791C148.481 16.4285 149.004 16.2033 149.653 16.2033C150.333 16.2033 150.863 16.4324 151.245 16.8906C151.635 17.3411 151.83 17.9749 151.83 18.792V26.1H154.945V17.9673C154.945 16.6157 154.582 15.5237 153.857 14.6913C153.14 13.8513 152.074 13.4313 150.661 13.4313C149.867 13.4313 149.138 13.6031 148.473 13.9467C147.809 14.2904 147.279 14.76 146.881 15.3557C146.561 14.7753 146.102 14.3095 145.507 13.9582C144.911 13.607 144.17 13.4313 143.285 13.4313C142.536 13.4313 141.849 13.5802 141.223 13.878C140.596 14.1682 140.077 14.5691 139.665 15.0807V13.7291H136.916V26.1Z" fill="#E4F7EF"/>
<path d="M18.7839 0C8.84281 0 0.783936 8.05887 0.783936 18C10.7251 18 18.7839 9.94113 18.7839 0Z" fill="#E4F7EF"/>
<path d="M18.7841 36C28.7252 36 36.7841 27.9411 36.7841 18C26.8429 18 18.7841 26.0589 18.7841 36Z" fill="#E4F7EF"/>
<path d="M18.7841 0C28.7252 0 36.7841 8.05887 36.7841 18C26.8429 18 18.7841 9.94113 18.7841 0Z" fill="#E4F7EF"/>
<path d="M18.7839 36C8.84281 36 0.783935 27.9411 0.783936 18C10.7251 18 18.7839 26.0589 18.7839 36Z" fill="#E4F7EF"/>
</g>
<defs>
<clipPath id="clip0_2755_6579">
<rect width="154.8" height="36" fill="white" transform="translate(0.783936)"/>
</clipPath>
</defs>
</svg>
