<svg width="175" height="32" viewBox="0 0 175 32" fill="none" xmlns="http://www.w3.org/2000/svg">
<g clip-path="url(#clip0_2755_6593)">
<path d="M16.6184 31.5C25.3171 31.5 32.3684 24.4487 32.3684 15.75V4.725C32.3684 3.47185 31.8706 2.27003 30.9844 1.38392C30.0983 0.497811 28.8965 0 27.6434 0L17.4059 0V6.90953C17.4059 8.4861 17.5019 10.1194 18.3288 11.4613C18.9208 12.423 19.7127 13.2461 20.6508 13.8748C21.5888 14.5035 22.6512 14.9231 23.7657 15.105L24.0673 15.1539C24.1917 15.1964 24.2996 15.2767 24.376 15.3836C24.4525 15.4905 24.4936 15.6186 24.4936 15.75C24.4936 15.8814 24.4525 16.0095 24.376 16.1164C24.2996 16.2233 24.1917 16.3036 24.0673 16.3461L23.7657 16.395C22.1373 16.661 20.6336 17.4318 19.4668 18.5985C18.3001 19.7652 17.5293 21.2689 17.2633 22.8974L17.2145 23.199C17.172 23.3233 17.0917 23.4312 16.9848 23.5077C16.8779 23.5841 16.7498 23.6252 16.6184 23.6252C16.487 23.6252 16.3588 23.5841 16.2519 23.5077C16.1451 23.4312 16.0647 23.3233 16.0222 23.199L15.9734 22.8974C15.7914 21.7828 15.3718 20.7205 14.7431 19.7824C14.1144 18.8443 13.2913 18.0524 12.3296 17.4605C10.9877 16.6336 9.35447 16.5375 7.77789 16.5375H0.887268C1.29913 24.87 8.18424 31.5 16.6184 31.5Z" fill="#E4F7EF"/>
<path d="M0.868347 14.9625H7.77787C9.35445 14.9625 10.9877 14.8664 12.3296 14.0395C13.3786 13.3932 14.2616 12.5102 14.9079 11.4613C15.7348 10.1194 15.8308 8.4861 15.8308 6.90952V0H5.59335C4.3402 0 3.13838 0.497811 2.25227 1.38392C1.36616 2.27003 0.868347 3.47185 0.868347 4.725L0.868347 14.9625ZM37.4517 1.575C37.4517 1.99272 37.2857 2.39332 36.9904 2.68869C36.695 2.98406 36.2944 3.15 35.8767 3.15C35.4589 3.15 35.0583 2.98406 34.763 2.68869C34.4676 2.39332 34.3017 1.99272 34.3017 1.575C34.3017 1.15728 34.4676 0.756677 34.763 0.461307C35.0583 0.165937 35.4589 0 35.8767 0C36.2944 0 36.695 0.165937 36.9904 0.461307C37.2857 0.756677 37.4517 1.15728 37.4517 1.575ZM167.591 9.5319C171.994 9.5319 174.118 12.6071 174.118 16.1689V22.8588H169.511V16.9627C169.511 15.3484 168.922 14.0159 167.232 14.0159C165.543 14.0159 164.98 15.3484 164.98 16.9627V22.858H160.373V16.9627C160.373 15.3484 159.809 14.0159 158.12 14.0159C156.43 14.0159 155.841 15.3484 155.841 16.9627V22.858H151.234V16.1682C151.234 12.6063 153.358 9.53111 157.761 9.53111C160.168 9.53111 161.908 10.4793 162.702 12.0424C163.546 10.4793 165.39 9.53032 167.591 9.53032V9.5319ZM142.955 18.7582C144.439 18.7582 145.079 17.3998 145.079 15.7846V10.0438H149.686V16.3485C149.686 20.1159 147.485 23.2431 142.955 23.2431C138.423 23.2431 136.222 20.1167 136.222 16.3485V10.0438H140.83V15.7846C140.83 17.399 141.469 18.7582 142.955 18.7582ZM129.447 23.2683C126.555 23.2683 124.686 22.2689 123.585 20.3214L126.913 18.4503C127.374 19.2701 128.065 19.6804 129.217 19.6804C130.164 19.6804 130.599 19.3473 130.599 18.937C130.599 17.3738 123.841 18.963 123.841 13.9915C123.841 11.5818 125.889 9.63427 129.37 9.63427C132.416 9.63427 134.08 11.1203 134.823 12.5559L131.495 14.4522C131.214 13.6836 130.343 13.2221 129.473 13.2221C128.807 13.2221 128.449 13.504 128.449 13.8883C128.449 15.4775 135.206 14.0167 135.206 18.8346C135.206 21.5255 132.57 23.2683 129.447 23.2683ZM113.349 28.7532H108.742V16.4257C108.742 12.5039 111.685 9.65947 115.781 9.65947C119.775 9.65947 122.821 12.7095 122.821 16.4257C122.821 20.5262 120.107 23.2431 116.037 23.2431C115.09 23.2431 114.143 22.9611 113.349 22.5249V28.7532ZM115.781 18.9118C117.24 18.9118 118.213 17.7841 118.213 16.4509C118.213 15.0932 117.24 13.9907 115.781 13.9907C114.322 13.9907 113.349 15.0932 113.349 16.4517C113.349 17.7841 114.322 18.9118 115.781 18.9118ZM104.126 8.68612C102.616 8.68612 101.362 7.43006 101.362 5.91806C101.362 4.40606 102.616 3.15 104.126 3.15C105.637 3.15 106.891 4.40606 106.891 5.91806C106.891 7.43006 105.637 8.68612 104.126 8.68612ZM101.823 10.0438H106.43V22.8588H101.823V10.0438ZM92.9822 23.2431C88.9888 23.2431 85.9428 20.1679 85.9428 16.4257C85.9428 12.7095 88.9888 9.63427 92.9822 9.63427C96.9756 9.63427 100.022 12.7095 100.022 16.4257C100.022 20.1679 96.9756 23.2431 92.9822 23.2431ZM92.9822 18.9118C94.4415 18.9118 95.414 17.7841 95.414 16.4509C95.414 15.0932 94.4415 13.9655 92.9822 13.9655C91.523 13.9655 90.5504 15.0932 90.5504 16.4509C90.5504 17.7841 91.523 18.9118 92.9822 18.9118ZM77.2425 29.1375C74.0688 29.1375 71.7646 27.7279 70.5873 25.2157L74.4012 23.1659C74.8107 24.0376 75.5785 24.9346 77.1653 24.9346C78.8301 24.9346 79.9302 23.8833 80.0586 22.0382C79.4443 22.5768 78.471 22.9863 77.0125 22.9863C73.4538 22.9863 70.5865 20.2443 70.5865 16.3997C70.5865 12.6843 73.6333 9.65947 77.6268 9.65947C81.7226 9.65947 84.6662 12.5047 84.6662 16.4257V21.5003C84.6662 26.1135 81.4658 29.1375 77.2425 29.1375ZM77.5496 18.6559C78.9317 18.6559 79.9814 17.7069 79.9814 16.2973C79.9814 14.9137 78.9324 13.9907 77.5496 13.9907C76.1927 13.9907 75.1178 14.9137 75.1178 16.2981C75.1178 17.7077 76.1927 18.6551 77.5496 18.6551V18.6559ZM62.7714 23.2431C58.778 23.2431 55.7311 20.1679 55.7311 16.4257C55.7311 12.7095 58.778 9.63427 62.7714 9.63427C66.764 9.63427 69.8108 12.7095 69.8108 16.4257C69.8108 20.1679 66.7648 23.2431 62.7714 23.2431ZM62.7714 18.9118C64.2306 18.9118 65.2032 17.7841 65.2032 16.4509C65.2032 15.0932 64.2306 13.9655 62.7714 13.9655C61.3121 13.9655 60.3396 15.0932 60.3396 16.4509C60.3396 17.7841 61.3121 18.9118 62.7714 18.9118ZM47.3411 5.55975V18.5015H54.9696V22.8588H46.7008C43.7832 22.8588 42.6058 21.3208 42.6058 18.8858V5.55975H47.3411Z" fill="#E4F7EF"/>
</g>
<defs>
<clipPath id="clip0_2755_6593">
<rect width="173.25" height="31.5" fill="white" transform="translate(0.868347)"/>
</clipPath>
</defs>
</svg>
