<svg width="137" height="36" viewBox="0 0 137 36" fill="none" xmlns="http://www.w3.org/2000/svg">
<path d="M31.7948 12.6C32.1651 12.6 32.2886 12.7337 32.2886 13.0937V21.24H36.4748C36.8348 21.24 36.9686 21.3737 36.9686 21.7337V22.4537C36.9686 22.8137 36.8348 22.9474 36.4748 22.9474H30.9617C30.6017 22.9474 30.4577 22.8137 30.4577 22.4537V13.0937C30.4577 12.7337 30.6017 12.6 30.9617 12.6H31.7948Z" fill="#E4F7EF"/>
<path d="M40.6201 16.1897C40.6201 13.8137 42.1218 12.384 44.7343 12.384C47.3469 12.384 48.8486 13.8137 48.8486 16.1897V19.3577C48.8486 21.7337 47.3366 23.1635 44.7343 23.1635C42.1321 23.1635 40.6201 21.7337 40.6201 19.3577V16.1897ZM47.1206 16.1897C47.1206 14.8526 46.2875 14.1326 44.7858 14.1326C43.2841 14.1326 42.4612 14.8629 42.4612 16.1897V19.3783C42.4612 20.7257 43.2841 21.4355 44.7858 21.4355C46.2875 21.4355 47.1206 20.6949 47.1206 19.3783V16.1897Z" fill="#E4F7EF"/>
<path d="M61.0989 17.2799C61.5001 17.2799 61.5927 17.4136 61.5927 17.7736V19.7279C61.6036 20.1882 61.5113 20.6452 61.3227 21.0652C61.1339 21.4852 60.8537 21.8577 60.5024 22.1553C59.6298 22.8501 58.5297 23.1948 57.4167 23.1222C54.7527 23.1222 53.3024 21.6925 53.3024 19.3165V16.1279C53.3024 13.7828 54.8041 12.3428 57.4167 12.3428C59.4738 12.3428 60.8109 13.1553 61.3767 14.7805C61.4083 14.8416 61.4253 14.9092 61.4262 14.9779C61.4272 15.0467 61.412 15.1148 61.3821 15.1766C61.3522 15.2385 61.3082 15.2926 61.2536 15.3346C61.1991 15.3764 61.1356 15.4051 61.0681 15.4182L60.2658 15.6959C59.9161 15.8193 59.7721 15.7473 59.6487 15.3873C59.4782 14.948 59.1663 14.578 58.762 14.3358C58.3578 14.0937 57.8844 13.9931 57.4167 14.0502C55.9047 14.0502 55.0818 14.7805 55.0818 16.1073V19.3782C55.0818 20.7256 55.9149 21.4353 57.4167 21.4353C58.9184 21.4353 59.8441 20.7462 59.8441 19.7382V18.9771H57.6121C57.2418 18.9771 57.1081 18.8331 57.1081 18.4731V17.7736C57.1081 17.4136 57.2418 17.2799 57.6121 17.2799H61.0989Z" fill="#E4F7EF"/>
<path d="M65.8406 16.1897C65.8406 13.8137 67.3424 12.384 69.9549 12.384C72.5675 12.384 74.0692 13.8137 74.0692 16.1897V19.3577C74.0692 21.7337 72.5572 23.1635 69.9549 23.1635C67.3526 23.1635 65.8406 21.7337 65.8406 19.3577V16.1897ZM72.3309 16.1897C72.3309 14.8526 71.4978 14.1326 70.0064 14.1326C68.5149 14.1326 67.6715 14.8629 67.6715 16.1897V19.3783C67.6715 20.7257 68.5046 21.4355 70.0064 21.4355C71.5081 21.4355 72.3309 20.6949 72.3309 19.3783V16.1897Z" fill="#E4F7EF"/>
<path d="M78.9138 12.8983C78.9138 12.672 78.9858 12.6 79.2121 12.6H79.6852C79.9115 12.6 79.963 12.672 79.963 12.8983V22.6491C79.963 22.8754 79.963 22.9474 79.6852 22.9474H79.2121C78.9858 22.9474 78.9138 22.8754 78.9138 22.6491V12.8983Z" fill="#E4F7EF"/>
<path d="M89.3332 12.6C90.1898 12.6 91.0112 12.9402 91.6169 13.546C92.2226 14.1516 92.5629 14.9731 92.5629 15.8297C92.5629 16.6863 92.2226 17.5078 91.6169 18.1134C91.0112 18.7192 90.1898 19.0594 89.3332 19.0594H86.2474V22.6491C86.2474 22.8754 86.196 22.9474 85.98 22.9474H85.4966C85.2806 22.9474 85.1983 22.8754 85.1983 22.6491V12.8983C85.1983 12.672 85.2806 12.6 85.4966 12.6H89.3332ZM89.2406 18.0411C89.5351 18.0411 89.8267 17.9831 90.0987 17.8705C90.3707 17.7577 90.6179 17.5926 90.8261 17.3844C91.0343 17.1762 91.1995 16.9289 91.3122 16.657C91.4249 16.3849 91.4829 16.0933 91.4829 15.7988C91.4829 15.5044 91.4249 15.2128 91.3122 14.9407C91.1995 14.6687 91.0343 14.4215 90.8261 14.2133C90.6179 14.0051 90.3707 13.8399 90.0987 13.7272C89.8267 13.6146 89.5351 13.5565 89.2406 13.5565H86.1549V18.0411H89.2406Z" fill="#E4F7EF"/>
<path d="M100.596 12.3942C101.39 12.3066 102.191 12.4774 102.881 12.8814C103.57 13.2854 104.111 13.9009 104.422 14.6365C104.505 14.8011 104.422 14.9348 104.258 15.0171L103.805 15.2228C103.62 15.2948 103.548 15.2845 103.435 15.0891C103.202 14.5431 102.801 14.0854 102.291 13.7822C101.781 13.479 101.187 13.3459 100.596 13.4022C98.8577 13.4022 97.9115 14.0914 97.9115 15.3257C97.9014 15.7028 98.028 16.0711 98.2682 16.3622C98.5082 16.6532 98.8455 16.8477 99.2177 16.9097C99.7709 17.0901 100.345 17.2006 100.925 17.2388C101.628 17.2762 102.321 17.4184 102.982 17.6605C103.489 17.8209 103.926 18.1506 104.218 18.5946C104.51 19.0385 104.64 19.5694 104.587 20.0982C104.587 22.0217 103.188 23.1839 100.617 23.1839C99.7732 23.2804 98.9221 23.085 98.2053 22.6302C97.4885 22.1754 96.9491 21.4887 96.6772 20.6845C96.659 20.6479 96.6492 20.6077 96.6484 20.5667C96.6475 20.5258 96.6559 20.4853 96.6725 20.4479C96.6892 20.4106 96.714 20.3774 96.7451 20.3507C96.776 20.324 96.8125 20.3046 96.852 20.2937L97.3046 20.1291C97.3402 20.1145 97.3786 20.1075 97.417 20.1085C97.4555 20.1095 97.4933 20.1186 97.5282 20.1351C97.563 20.1515 97.594 20.175 97.6192 20.2041C97.6445 20.2332 97.6635 20.2671 97.6749 20.3039C97.905 20.885 98.3141 21.3777 98.843 21.7106C99.3719 22.0435 99.9932 22.1993 100.617 22.1554C102.561 22.1554 103.517 21.4765 103.517 20.0982C103.536 19.736 103.425 19.379 103.204 19.0907C102.984 18.8026 102.668 18.602 102.314 18.5245C101.782 18.3658 101.233 18.2691 100.678 18.2365L99.5675 18.0925C99.2198 18.0188 98.8765 17.926 98.5389 17.8148C98.2054 17.7141 97.8946 17.5499 97.6235 17.3314C97.3506 17.0843 97.1355 16.7803 96.9933 16.4407C96.8511 16.1012 96.7853 15.7346 96.8006 15.3668C96.8726 13.5668 98.22 12.3942 100.596 12.3942Z" fill="#E4F7EF"/>
<path d="M110.131 19.4297C110.174 20.1571 110.494 20.8404 111.025 21.34C111.555 21.8395 112.257 22.1177 112.985 22.1177C113.713 22.1177 114.415 21.8395 114.946 21.34C115.476 20.8404 115.795 20.1571 115.839 19.4297V12.8983C115.839 12.672 115.911 12.6 116.138 12.6H116.611C116.837 12.6 116.909 12.672 116.909 12.8983V19.4194C116.909 21.7543 115.531 23.1634 112.99 23.1634C110.45 23.1634 109.071 21.7543 109.071 19.4194V12.8983C109.071 12.672 109.143 12.6 109.359 12.6H109.843C110.059 12.6 110.131 12.672 110.131 12.8983V19.4297Z" fill="#E4F7EF"/>
<path d="M131.104 12.5999C131.33 12.5999 131.402 12.6719 131.402 12.8982V22.649C131.402 22.8753 131.33 22.9473 131.104 22.9473H130.672C130.456 22.9473 130.384 22.8753 130.384 22.649V16.7142C130.384 15.8507 130.442 14.9881 130.558 14.1325H130.497C130.176 14.9149 129.8 15.6744 129.376 16.4056L127.164 20.3039C127.137 20.3716 127.09 20.4294 127.029 20.4698C126.969 20.5101 126.898 20.5312 126.825 20.5302H126.537C126.463 20.5306 126.391 20.5093 126.328 20.4692C126.266 20.429 126.217 20.3716 126.187 20.3039L123.945 16.3645C123.547 15.6438 123.203 14.8942 122.916 14.1222H122.854C122.959 14.9857 123.015 15.8546 123.019 16.7245V22.649C123.019 22.8753 122.947 22.9473 122.721 22.9473H122.32C122.093 22.9473 122.021 22.8753 122.021 22.649V12.8982C122.021 12.6719 122.093 12.5999 122.32 12.5999H122.69C122.774 12.5921 122.86 12.6105 122.933 12.6529C123.007 12.6952 123.065 12.7594 123.101 12.8365L126.701 19.2342L130.281 12.8982C130.394 12.6822 130.456 12.6513 130.682 12.6513L131.104 12.5999Z" fill="#E4F7EF"/>
<path d="M13.4966 21.384V28.8205C13.4966 29.1057 13.3834 29.3791 13.1818 29.5806C12.9803 29.7822 12.7069 29.8954 12.4218 29.8954C12.1368 29.8954 11.8634 29.7822 11.6618 29.5806C11.4602 29.3791 11.3469 29.1057 11.3469 28.8205V21.3943C11.6462 21.6128 12.005 21.7348 12.3755 21.744C12.7793 21.7555 13.175 21.6285 13.4966 21.384ZM22.6509 19.2343C22.3781 19.2343 22.1165 19.3427 21.9236 19.5355C21.7308 19.7284 21.6224 19.9901 21.6224 20.2628V21.5588C21.6224 21.844 21.7356 22.1173 21.9372 22.3188C22.1387 22.5204 22.4121 22.6337 22.6972 22.6337C22.9823 22.6337 23.2557 22.5204 23.4572 22.3188C23.6588 22.1173 23.7721 21.844 23.7721 21.5588V20.3143C23.7801 20.1668 23.7562 20.0193 23.7021 19.8819C23.648 19.7444 23.565 19.6202 23.4586 19.5177C23.3522 19.4153 23.225 19.3369 23.0857 19.288C22.9463 19.2391 22.798 19.2208 22.6509 19.2343ZM9.01207 24.2023C8.64196 24.1912 8.28367 24.0694 7.9835 23.8525V31.3097C7.9835 31.5961 8.09728 31.8709 8.29982 32.0734C8.50236 32.2759 8.77706 32.3897 9.0635 32.3897C9.34993 32.3897 9.62463 32.2759 9.82717 32.0734C10.0297 31.8709 10.1435 31.5961 10.1435 31.3097V23.904C9.80762 24.1211 9.41132 24.2256 9.01207 24.2023ZM19.2978 17.0023C19.1584 16.9953 19.0191 17.0168 18.8883 17.0653C18.7576 17.1139 18.6381 17.1885 18.5369 17.2847C18.4359 17.381 18.3556 17.4967 18.3007 17.625C18.2459 17.7532 18.2176 17.8914 18.2178 18.0308V23.76C18.2178 24.0464 18.3315 24.3212 18.5341 24.5237C18.7367 24.7262 19.0113 24.84 19.2978 24.84C19.5842 24.84 19.859 24.7262 20.0615 24.5237C20.264 24.3212 20.3778 24.0464 20.3778 23.76V18.1028C20.386 17.9544 20.3619 17.806 20.3072 17.6677C20.2525 17.5295 20.1686 17.4047 20.061 17.3021C19.9534 17.1994 19.8249 17.1213 19.6843 17.0731C19.5437 17.0249 19.3943 17.0077 19.2464 17.0228L19.2978 17.0023ZM15.8829 19.2034C15.4955 19.2007 15.1184 19.0786 14.8029 18.8537V26.3314C14.8029 26.6179 14.9167 26.8926 15.1192 27.0951C15.3218 27.2976 15.5965 27.4114 15.8829 27.4114C16.1694 27.4114 16.444 27.2976 16.6466 27.0951C16.8492 26.8926 16.9629 26.6179 16.9629 26.3314V18.864C16.6367 19.107 16.2383 19.2338 15.8315 19.224L15.8829 19.2034ZM6.67721 24.9325V4.04226C6.67451 3.78762 6.57144 3.54434 6.39042 3.36524C6.20939 3.18613 5.96501 3.08568 5.71035 3.08569H5.48407C5.22942 3.08568 4.98504 3.18613 4.80401 3.36524C4.62298 3.54434 4.51992 3.78762 4.51721 4.04226V24.9325C4.51721 25.189 4.61908 25.4349 4.8004 25.6162C4.98171 25.7976 5.22765 25.8994 5.48407 25.8994H5.71035C5.96679 25.8994 6.21271 25.7976 6.39403 25.6162C6.57535 25.4349 6.67721 25.189 6.67721 24.9325ZM9.12521 23.4103H8.89893C8.6425 23.4103 8.39657 23.3084 8.21526 23.1271C8.03394 22.9458 7.93207 22.6998 7.93207 22.4434V6.53141C7.93478 6.27677 8.03784 6.03348 8.21887 5.85438C8.39989 5.67528 8.64427 5.57483 8.89893 5.57484H9.12521C9.37986 5.57483 9.62424 5.67528 9.80527 5.85438C9.9863 6.03348 10.0894 6.27677 10.0921 6.53141V22.464C10.0921 22.7204 9.9902 22.9663 9.80888 23.1477C9.62757 23.329 9.38163 23.4308 9.12521 23.4308V23.4103ZM12.5298 20.9623H12.2932C12.0396 20.9623 11.7962 20.8615 11.6168 20.6821C11.4374 20.5027 11.3366 20.2594 11.3366 20.0057V8.99998C11.3353 8.8735 11.3591 8.748 11.4065 8.63075C11.4539 8.51351 11.5241 8.40684 11.6131 8.31693C11.7021 8.22701 11.808 8.15562 11.9248 8.10691C12.0415 8.0582 12.1667 8.03311 12.2932 8.03312H12.5298C12.7845 8.03584 13.0277 8.13889 13.2068 8.31992C13.386 8.50095 13.4864 8.74533 13.4864 8.99998V20.0057C13.4864 20.2594 13.3856 20.5027 13.2062 20.6821C13.0268 20.8615 12.7835 20.9623 12.5298 20.9623ZM15.9344 18.4423H15.7184C15.4637 18.4423 15.2193 18.3419 15.0383 18.1627C14.8572 17.9836 14.7542 17.7404 14.7515 17.4857V11.5611C14.7431 11.4291 14.7618 11.2967 14.8066 11.1721C14.8514 11.0477 14.9213 10.9336 15.0119 10.8372C15.1025 10.7407 15.212 10.664 15.3336 10.6115C15.455 10.5592 15.586 10.5322 15.7184 10.5325H15.9446C16.2011 10.5325 16.447 10.6344 16.6283 10.8157C16.8097 10.9971 16.9115 11.243 16.9115 11.4994V17.4651C16.9128 17.593 16.8889 17.7198 16.8408 17.8383C16.7929 17.9568 16.7219 18.0646 16.6319 18.1555C16.542 18.2463 16.4351 18.3184 16.317 18.3677C16.199 18.417 16.0725 18.4423 15.9446 18.4423H15.9344ZM19.3492 16.2308H19.1229C18.8665 16.2308 18.6206 16.129 18.4392 15.9477C18.2579 15.7663 18.1561 15.5204 18.1561 15.264V13.7314C18.1587 13.4767 18.2618 13.2335 18.4428 13.0544C18.6239 12.8752 18.8683 12.7748 19.1229 12.7748H19.3492C19.6039 12.7748 19.8483 12.8752 20.0293 13.0544C20.2103 13.2335 20.3134 13.4767 20.3161 13.7314V15.264C20.3161 15.5187 20.2157 15.763 20.0365 15.9441C19.8574 16.1251 19.6142 16.2282 19.3595 16.2308H19.3492Z" fill="#E4F7EF"/>
</svg>
