<svg width="155" height="36" viewBox="0 0 155 36" fill="none" xmlns="http://www.w3.org/2000/svg">
<g clip-path="url(#clip0_2755_6551)">
<path d="M44.2419 26.1H54.4594V23.1906H47.3576V9.60547H44.2419V26.1Z" fill="#E4F7EF"/>
<path d="M60.5994 26.4437C61.8365 26.4437 62.9247 26.1687 63.864 25.6189C64.8109 25.0615 65.5478 24.294 66.0747 23.3166C66.6092 22.3315 66.8765 21.1975 66.8765 19.9146C66.8765 18.6393 66.613 17.513 66.0862 16.5355C65.5592 15.5504 64.8223 14.7791 63.8754 14.2217C62.9362 13.6642 61.8442 13.3855 60.5994 13.3855C59.3776 13.3855 58.297 13.6604 57.3578 14.2103C56.4185 14.7601 55.6816 15.5275 55.147 16.5126C54.6125 17.49 54.3452 18.624 54.3452 19.9146C54.3452 21.1898 54.6049 22.3201 55.1242 23.3051C55.651 24.2826 56.3842 25.05 57.3234 25.6075C58.2627 26.165 59.3547 26.4437 60.5994 26.4437ZM60.5994 23.5343C59.6296 23.5343 58.8927 23.2097 58.3887 22.5606C57.8923 21.9039 57.6442 21.0219 57.6442 19.9146C57.6442 18.8379 57.8809 17.9673 58.3544 17.3029C58.8354 16.631 59.5838 16.2949 60.5994 16.2949C61.5845 16.2949 62.3252 16.6233 62.8216 17.2801C63.3256 17.9368 63.5776 18.8149 63.5776 19.9146C63.5776 20.9761 63.3295 21.8466 62.833 22.5263C62.3443 23.1982 61.5998 23.5343 60.5994 23.5343Z" fill="#E4F7EF"/>
<path d="M73.038 26.4437C73.6184 26.4437 74.1529 26.3749 74.6417 26.2375C75.1381 26.1001 75.5886 25.9053 75.9934 25.6533V26.9019C76.0087 27.3601 75.8902 27.7418 75.6382 28.0473C75.3939 28.3604 75.0655 28.5933 74.6532 28.7461C74.2408 28.9064 73.8017 28.9866 73.3359 28.9866C72.9006 28.9866 72.4959 28.8911 72.1217 28.7003C71.7552 28.5094 71.4726 28.2306 71.274 27.8641L68.3875 29.2615C68.8609 30.0633 69.5368 30.7086 70.415 31.1973C71.2932 31.6937 72.2592 31.9419 73.313 31.9419C74.2217 31.9419 75.0655 31.8197 75.8444 31.5753C76.6234 31.3386 77.2801 30.9759 77.8146 30.4871C78.3568 29.9984 78.7272 29.3761 78.9257 28.6201C78.9944 28.3528 79.0402 28.0817 79.0632 27.8067C79.0937 27.5395 79.109 27.2531 79.109 26.9477V13.7291H76.3828V14.4164C75.9628 14.088 75.4855 13.836 74.951 13.6604C74.424 13.4771 73.8399 13.3855 73.1984 13.3855C72.0148 13.3855 70.9839 13.6681 70.1057 14.2331C69.2275 14.7982 68.5441 15.5733 68.0554 16.5584C67.5742 17.5358 67.3337 18.6546 67.3337 19.9146C67.3337 21.1517 67.5704 22.2627 68.0439 23.2479C68.525 24.2329 69.1931 25.0119 70.0484 25.5846C70.9037 26.1573 71.9002 26.4437 73.038 26.4437ZM73.542 23.6717C72.8701 23.6717 72.3203 23.5037 71.8926 23.1677C71.465 22.8317 71.148 22.3812 70.9419 21.8161C70.7357 21.2433 70.6326 20.6095 70.6326 19.9146C70.6326 19.2273 70.7395 18.6012 70.9534 18.0361C71.1672 17.4633 71.4955 17.009 71.9384 16.6729C72.3889 16.3293 72.9617 16.1575 73.6566 16.1575C74.6341 16.1575 75.3328 16.505 75.7528 17.1999C76.1728 17.8871 76.3828 18.7921 76.3828 19.9146C76.3828 21.0371 76.1689 21.9458 75.7414 22.6407C75.3213 23.3281 74.5883 23.6717 73.542 23.6717Z" fill="#E4F7EF"/>
<path d="M86.509 26.4437C87.7461 26.4437 88.8343 26.1687 89.7735 25.6189C90.7202 25.0615 91.4573 24.294 91.9838 23.3166C92.5184 22.3315 92.7857 21.1975 92.7857 19.9146C92.7857 18.6393 92.5229 17.513 91.9955 16.5355C91.469 15.5504 90.7319 14.7791 89.785 14.2217C88.8457 13.6642 87.7537 13.3855 86.509 13.3855C85.2871 13.3855 84.2066 13.6604 83.2673 14.2103C82.3281 14.7601 81.5912 15.5275 81.0566 16.5126C80.5221 17.49 80.2548 18.624 80.2548 19.9146C80.2548 21.1898 80.5144 22.3201 81.0337 23.3051C81.5606 24.2826 82.2937 25.05 83.233 25.6075C84.1723 26.165 85.2643 26.4437 86.509 26.4437ZM86.509 23.5343C85.5391 23.5343 84.8022 23.2097 84.2982 22.5606C83.8018 21.9039 83.5537 21.0219 83.5537 19.9146C83.5537 18.8379 83.7904 17.9673 84.2639 17.3029C84.745 16.631 85.4933 16.2949 86.509 16.2949C87.4941 16.2949 88.2348 16.6233 88.7311 17.2801C89.2351 17.9368 89.4871 18.8149 89.4871 19.9146C89.4871 20.9761 89.2389 21.8466 88.7426 22.5263C88.2539 23.1982 87.5093 23.5343 86.509 23.5343Z" fill="#E4F7EF"/>
<path d="M94.1592 12.0109H97.275V9.26184H94.1592V12.0109ZM94.1592 26.1H97.275V13.7291H94.1592V26.1Z" fill="#E4F7EF"/>
<path d="M99.3118 31.5983H102.45V25.6533C102.855 25.9053 103.301 26.1001 103.79 26.2375C104.287 26.3749 104.825 26.4437 105.406 26.4437C106.543 26.4437 107.54 26.1573 108.395 25.5846C109.25 25.0119 109.915 24.2329 110.388 23.2479C110.87 22.2627 111.11 21.1517 111.11 19.9146C111.11 18.6546 110.866 17.5358 110.377 16.5584C109.896 15.5733 109.216 14.7982 108.338 14.2331C107.459 13.6681 106.429 13.3855 105.245 13.3855C104.604 13.3855 104.016 13.4771 103.481 13.6604C102.954 13.836 102.481 14.088 102.061 14.4164V13.7291H99.3118V31.5983ZM104.902 23.6717C103.863 23.6717 103.13 23.3281 102.702 22.6407C102.275 21.9458 102.061 21.0371 102.061 19.9146C102.061 18.7921 102.271 17.8871 102.691 17.1999C103.119 16.505 103.817 16.1575 104.787 16.1575C105.482 16.1575 106.051 16.3293 106.494 16.6729C106.945 17.009 107.277 17.4633 107.49 18.0361C107.704 18.6012 107.811 19.2273 107.811 19.9146C107.811 20.6095 107.708 21.2433 107.502 21.8161C107.296 22.3812 106.979 22.8317 106.551 23.1677C106.124 23.5037 105.574 23.6717 104.902 23.6717Z" fill="#E4F7EF"/>
<path d="M116.755 26.4437C118.373 26.4437 119.641 26.081 120.557 25.3555C121.473 24.63 121.931 23.6335 121.931 22.3659C121.931 21.4037 121.634 20.6439 121.039 20.0864C120.45 19.529 119.45 19.0669 118.037 18.7004C117.075 18.456 116.357 18.2575 115.883 18.1047C115.418 17.9521 115.109 17.8031 114.956 17.6581C114.811 17.513 114.739 17.3335 114.739 17.1197C114.739 16.7608 114.91 16.4859 115.253 16.2949C115.605 16.104 116.067 16.0277 116.639 16.0659C117.854 16.1575 118.519 16.6768 118.633 17.6237L121.817 17.0509C121.657 15.9284 121.107 15.0388 120.167 14.3821C119.229 13.7177 118.03 13.3855 116.571 13.3855C115.074 13.3855 113.879 13.7368 112.985 14.4393C112.093 15.1418 111.645 16.0887 111.645 17.2801C111.645 18.227 111.955 18.9753 112.573 19.5251C113.192 20.0674 114.257 20.5331 115.769 20.9226C116.663 21.1593 117.319 21.3502 117.739 21.4953C118.167 21.6404 118.442 21.7893 118.564 21.9421C118.686 22.0871 118.747 22.2819 118.747 22.5263C118.747 22.9157 118.594 23.2211 118.289 23.4426C117.984 23.6564 117.548 23.7633 116.983 23.7633C116.296 23.7633 115.727 23.5991 115.277 23.2707C114.834 22.9424 114.547 22.4881 114.417 21.9077L111.233 22.3887C111.439 23.6793 112.02 24.6797 112.975 25.3899C113.937 26.0924 115.197 26.4437 116.755 26.4437Z" fill="#E4F7EF"/>
<path d="M127.679 26.4666C128.572 26.4666 129.351 26.3177 130.016 26.0199C130.68 25.7221 131.237 25.325 131.688 24.8286V26.1001H134.437V13.7291H131.299V20.0063C131.299 20.7699 131.21 21.3884 131.035 21.8619C130.867 22.3277 130.65 22.6828 130.382 22.9271C130.115 23.1639 129.829 23.3242 129.523 23.4083C129.218 23.4922 128.932 23.5343 128.664 23.5343C128 23.5343 127.484 23.3853 127.118 23.0875C126.759 22.7897 126.499 22.4193 126.339 21.9765C126.178 21.5335 126.083 21.0945 126.052 20.6591C126.022 20.2162 126.007 19.8535 126.007 19.5709V13.7291H122.845V20.6706C122.845 20.8767 122.86 21.2052 122.891 21.6557C122.921 22.1062 123.01 22.6065 123.154 23.1563C123.299 23.6984 123.54 24.2215 123.876 24.7255C124.22 25.2295 124.697 25.6457 125.308 25.9741C125.918 26.3024 126.709 26.4666 127.679 26.4666Z" fill="#E4F7EF"/>
<path d="M136.241 26.1H139.38V18.6087C139.38 17.8986 139.574 17.3221 139.964 16.8791C140.361 16.4285 140.884 16.2033 141.533 16.2033C142.213 16.2033 142.744 16.4324 143.126 16.8906C143.514 17.3411 143.71 17.9749 143.71 18.792V26.1H146.825V18.6087C146.825 17.8986 147.02 17.3221 147.41 16.8791C147.806 16.4285 148.329 16.2033 148.978 16.2033C149.659 16.2033 150.189 16.4324 150.57 16.8906C150.96 17.3411 151.155 17.9749 151.155 18.792V26.1H154.27V17.9673C154.27 16.6157 153.908 15.5237 153.182 14.6913C152.465 13.8513 151.399 13.4313 149.986 13.4313C149.192 13.4313 148.463 13.6031 147.798 13.9467C147.134 14.2904 146.604 14.76 146.206 15.3557C145.886 14.7753 145.428 14.3095 144.832 13.9582C144.236 13.607 143.495 13.4313 142.61 13.4313C141.861 13.4313 141.174 13.5802 140.548 13.878C139.922 14.1682 139.402 14.5691 138.99 15.0807V13.7291H136.241V26.1Z" fill="#E4F7EF"/>
<path d="M18.1093 0C8.16812 0 0.109253 8.05887 0.109253 18C10.0504 18 18.1093 9.94113 18.1093 0Z" fill="#E4F7EF"/>
<path d="M18.1093 36C28.0504 36 36.1093 27.9411 36.1093 18C26.1681 18 18.1093 26.0589 18.1093 36Z" fill="#E4F7EF"/>
<path d="M18.1093 0C28.0504 0 36.1093 8.05887 36.1093 18C26.1681 18 18.1093 9.94113 18.1093 0Z" fill="#E4F7EF"/>
<path d="M18.1093 36C8.16812 36 0.109252 27.9411 0.109253 18C10.0504 18 18.1093 26.0589 18.1093 36Z" fill="#E4F7EF"/>
</g>
<defs>
<clipPath id="clip0_2755_6551">
<rect width="154.8" height="36" fill="white" transform="translate(0.109253)"/>
</clipPath>
</defs>
</svg>
