<svg width="137" height="36" viewBox="0 0 137 36" fill="none" xmlns="http://www.w3.org/2000/svg">
<path d="M32.1201 12.6C32.4904 12.6 32.6138 12.7337 32.6138 13.0937V21.24H36.8001C37.1601 21.24 37.2938 21.3737 37.2938 21.7337V22.4537C37.2938 22.8137 37.1601 22.9474 36.8001 22.9474H31.287C30.927 22.9474 30.783 22.8137 30.783 22.4537V13.0937C30.783 12.7337 30.927 12.6 31.287 12.6H32.1201Z" fill="#E4F7EF"/>
<path d="M40.9451 16.1897C40.9451 13.8137 42.4468 12.384 45.0594 12.384C47.6719 12.384 49.1736 13.8137 49.1736 16.1897V19.3577C49.1736 21.7337 47.6616 23.1635 45.0594 23.1635C42.4571 23.1635 40.9451 21.7337 40.9451 19.3577V16.1897ZM47.4456 16.1897C47.4456 14.8526 46.6125 14.1326 45.1108 14.1326C43.6091 14.1326 42.7862 14.8629 42.7862 16.1897V19.3783C42.7862 20.7257 43.6091 21.4355 45.1108 21.4355C46.6125 21.4355 47.4456 20.6949 47.4456 19.3783V16.1897Z" fill="#E4F7EF"/>
<path d="M61.424 17.2799C61.8252 17.2799 61.9177 17.4136 61.9177 17.7736V19.7279C61.9286 20.1882 61.8364 20.6452 61.6477 21.0652C61.459 21.4852 61.1788 21.8577 60.8274 22.1553C59.9549 22.8501 58.8547 23.1948 57.7417 23.1222C55.0777 23.1222 53.6274 21.6925 53.6274 19.3165V16.1279C53.6274 13.7828 55.1292 12.3428 57.7417 12.3428C59.7989 12.3428 61.136 13.1553 61.7017 14.7805C61.7334 14.8416 61.7504 14.9092 61.7513 14.9779C61.7522 15.0467 61.7371 15.1148 61.7072 15.1766C61.6772 15.2385 61.6332 15.2926 61.5787 15.3346C61.5242 15.3764 61.4606 15.4051 61.3932 15.4182L60.5909 15.6959C60.2412 15.8193 60.0972 15.7473 59.9737 15.3873C59.8033 14.948 59.4913 14.578 59.0871 14.3358C58.6829 14.0937 58.2095 13.9931 57.7417 14.0502C56.2297 14.0502 55.4069 14.7805 55.4069 16.1073V19.3782C55.4069 20.7256 56.24 21.4353 57.7417 21.4353C59.2434 21.4353 60.1692 20.7462 60.1692 19.7382V18.9771H57.9372C57.5669 18.9771 57.4332 18.8331 57.4332 18.4731V17.7736C57.4332 17.4136 57.5669 17.2799 57.9372 17.2799H61.424Z" fill="#E4F7EF"/>
<path d="M66.1658 16.1897C66.1658 13.8137 67.6675 12.384 70.2801 12.384C72.8926 12.384 74.3943 13.8137 74.3943 16.1897V19.3577C74.3943 21.7337 72.8823 23.1635 70.2801 23.1635C67.6778 23.1635 66.1658 21.7337 66.1658 19.3577V16.1897ZM72.6561 16.1897C72.6561 14.8526 71.8229 14.1326 70.3315 14.1326C68.8401 14.1326 67.9966 14.8629 67.9966 16.1897V19.3783C67.9966 20.7257 68.8298 21.4355 70.3315 21.4355C71.8332 21.4355 72.6561 20.6949 72.6561 19.3783V16.1897Z" fill="#E4F7EF"/>
<path d="M79.2389 12.8983C79.2389 12.672 79.3109 12.6 79.5372 12.6H80.0103C80.2366 12.6 80.288 12.672 80.288 12.8983V22.6491C80.288 22.8754 80.288 22.9474 80.0103 22.9474H79.5372C79.3109 22.9474 79.2389 22.8754 79.2389 22.6491V12.8983Z" fill="#E4F7EF"/>
<path d="M89.6584 12.6C90.515 12.6 91.3364 12.9402 91.9421 13.546C92.5479 14.1516 92.8881 14.9731 92.8881 15.8297C92.8881 16.6863 92.5479 17.5078 91.9421 18.1134C91.3364 18.7192 90.515 19.0594 89.6584 19.0594H86.5727V22.6491C86.5727 22.8754 86.5213 22.9474 86.3053 22.9474H85.8218C85.6058 22.9474 85.5236 22.8754 85.5236 22.6491V12.8983C85.5236 12.672 85.6058 12.6 85.8218 12.6H89.6584ZM89.5658 18.0411C89.8603 18.0411 90.1519 17.9831 90.424 17.8705C90.6959 17.7577 90.9432 17.5926 91.1514 17.3844C91.3596 17.1762 91.5248 16.9289 91.6375 16.657C91.7501 16.3849 91.8081 16.0933 91.8081 15.7988C91.8081 15.5044 91.7501 15.2128 91.6375 14.9407C91.5248 14.6687 91.3596 14.4215 91.1514 14.2133C90.9432 14.0051 90.6959 13.8399 90.424 13.7272C90.1519 13.6146 89.8603 13.5565 89.5658 13.5565H86.4801V18.0411H89.5658Z" fill="#E4F7EF"/>
<path d="M100.921 12.3942C101.715 12.3066 102.517 12.4774 103.206 12.8814C103.895 13.2854 104.436 13.9009 104.748 14.6365C104.83 14.8011 104.748 14.9348 104.583 15.0171L104.13 15.2228C103.945 15.2948 103.873 15.2845 103.76 15.0891C103.527 14.5431 103.126 14.0854 102.616 13.7822C102.106 13.479 101.512 13.3459 100.921 13.4022C99.1829 13.4022 98.2367 14.0914 98.2367 15.3257C98.2266 15.7028 98.3532 16.0711 98.5934 16.3622C98.8334 16.6532 99.1707 16.8477 99.5429 16.9097C100.096 17.0901 100.67 17.2006 101.25 17.2388C101.953 17.2762 102.647 17.4184 103.308 17.6605C103.815 17.8209 104.251 18.1506 104.543 18.5946C104.835 19.0385 104.966 19.5694 104.912 20.0982C104.912 22.0217 103.513 23.1839 100.942 23.1839C100.098 23.2804 99.2473 23.085 98.5305 22.6302C97.8137 22.1754 97.2743 21.4887 97.0024 20.6845C96.9842 20.6479 96.9744 20.6077 96.9736 20.5667C96.9727 20.5258 96.9811 20.4853 96.9977 20.4479C97.0144 20.4106 97.0392 20.3774 97.0703 20.3507C97.1012 20.324 97.1377 20.3046 97.1772 20.2937L97.6298 20.1291C97.6654 20.1145 97.7037 20.1075 97.7422 20.1085C97.7807 20.1095 97.8185 20.1186 97.8534 20.1351C97.8882 20.1515 97.9192 20.175 97.9444 20.2041C97.9697 20.2332 97.9887 20.2671 98.0001 20.3039C98.2302 20.885 98.6393 21.3777 99.1682 21.7106C99.6971 22.0435 100.318 22.1993 100.942 22.1554C102.886 22.1554 103.842 21.4765 103.842 20.0982C103.861 19.736 103.75 19.379 103.529 19.0907C103.309 18.8026 102.993 18.602 102.639 18.5245C102.107 18.3658 101.558 18.2691 101.004 18.2365L99.8927 18.0925C99.545 18.0188 99.2017 17.926 98.8641 17.8148C98.5306 17.7141 98.2198 17.5499 97.9486 17.3314C97.6758 17.0843 97.4607 16.7803 97.3185 16.4407C97.1763 16.1012 97.1105 15.7346 97.1258 15.3668C97.1978 13.5668 98.5452 12.3942 100.921 12.3942Z" fill="#E4F7EF"/>
<path d="M110.456 19.4297C110.499 20.1571 110.819 20.8404 111.35 21.34C111.881 21.8395 112.582 22.1177 113.31 22.1177C114.039 22.1177 114.74 21.8395 115.271 21.34C115.802 20.8404 116.12 20.1571 116.165 19.4297V12.8983C116.165 12.672 116.237 12.6 116.463 12.6H116.936C117.162 12.6 117.234 12.672 117.234 12.8983V19.4194C117.234 21.7543 115.856 23.1634 113.315 23.1634C110.775 23.1634 109.397 21.7543 109.397 19.4194V12.8983C109.397 12.672 109.469 12.6 109.685 12.6H110.168C110.384 12.6 110.456 12.672 110.456 12.8983V19.4297Z" fill="#E4F7EF"/>
<path d="M131.429 12.5999C131.655 12.5999 131.727 12.6719 131.727 12.8982V22.649C131.727 22.8753 131.655 22.9473 131.429 22.9473H130.997C130.781 22.9473 130.709 22.8753 130.709 22.649V16.7142C130.709 15.8507 130.767 14.9881 130.884 14.1325H130.822C130.501 14.9149 130.126 15.6744 129.701 16.4056L127.489 20.3039C127.463 20.3716 127.415 20.4294 127.355 20.4698C127.294 20.5101 127.223 20.5312 127.15 20.5302H126.862C126.788 20.5306 126.716 20.5093 126.653 20.4692C126.591 20.429 126.542 20.3716 126.512 20.3039L124.27 16.3645C123.872 15.6438 123.528 14.8942 123.241 14.1222H123.18C123.284 14.9857 123.34 15.8546 123.344 16.7245V22.649C123.344 22.8753 123.272 22.9473 123.046 22.9473H122.645C122.418 22.9473 122.346 22.8753 122.346 22.649V12.8982C122.346 12.6719 122.418 12.5999 122.645 12.5999H123.015C123.099 12.5921 123.185 12.6105 123.258 12.6529C123.332 12.6952 123.39 12.7594 123.426 12.8365L127.026 19.2342L130.606 12.8982C130.719 12.6822 130.781 12.6513 131.007 12.6513L131.429 12.5999Z" fill="#E4F7EF"/>
<path d="M13.8217 21.384V28.8205C13.8217 29.1057 13.7085 29.3791 13.5069 29.5806C13.3054 29.7822 13.032 29.8954 12.7469 29.8954C12.4618 29.8954 12.1884 29.7822 11.9868 29.5806C11.7852 29.3791 11.672 29.1057 11.672 28.8205V21.3943C11.9713 21.6128 12.3301 21.7348 12.7006 21.744C13.1044 21.7555 13.5001 21.6285 13.8217 21.384ZM22.976 19.2343C22.7032 19.2343 22.4416 19.3427 22.2487 19.5355C22.0558 19.7284 21.9474 19.9901 21.9474 20.2628V21.5588C21.9474 21.844 22.0607 22.1173 22.2623 22.3188C22.4638 22.5204 22.7372 22.6337 23.0223 22.6337C23.3074 22.6337 23.5808 22.5204 23.7823 22.3188C23.9839 22.1173 24.0971 21.844 24.0971 21.5588V20.3143C24.1052 20.1668 24.0813 20.0193 24.0272 19.8819C23.9731 19.7444 23.8901 19.6202 23.7836 19.5177C23.6773 19.4153 23.55 19.3369 23.4108 19.288C23.2714 19.2391 23.1231 19.2208 22.976 19.2343ZM9.33714 24.2023C8.96703 24.1912 8.60874 24.0694 8.30857 23.8525V31.3097C8.30857 31.5961 8.42235 31.8709 8.6249 32.0734C8.82743 32.2759 9.10213 32.3897 9.38857 32.3897C9.67501 32.3897 9.94971 32.2759 10.1522 32.0734C10.3548 31.8709 10.4686 31.5961 10.4686 31.3097V23.904C10.1327 24.1211 9.73639 24.2256 9.33714 24.2023ZM19.6229 17.0023C19.4835 16.9953 19.3442 17.0168 19.2134 17.0653C19.0827 17.1139 18.9631 17.1885 18.862 17.2847C18.761 17.381 18.6807 17.4967 18.6258 17.625C18.5709 17.7532 18.5426 17.8914 18.5429 18.0308V23.76C18.5429 24.0464 18.6566 24.3212 18.8591 24.5237C19.0618 24.7262 19.3364 24.84 19.6229 24.84C19.9093 24.84 20.184 24.7262 20.3866 24.5237C20.5891 24.3212 20.7029 24.0464 20.7029 23.76V18.1028C20.7111 17.9544 20.687 17.806 20.6323 17.6677C20.5776 17.5295 20.4936 17.4047 20.3861 17.3021C20.2785 17.1994 20.15 17.1213 20.0094 17.0731C19.8688 17.0249 19.7193 17.0077 19.5714 17.0228L19.6229 17.0023ZM16.208 19.2034C15.8205 19.2007 15.4435 19.0786 15.128 18.8537V26.3314C15.128 26.6179 15.2418 26.8926 15.4443 27.0951C15.6469 27.2976 15.9215 27.4114 16.208 27.4114C16.4945 27.4114 16.7691 27.2976 16.9717 27.0951C17.1742 26.8926 17.288 26.6179 17.288 26.3314V18.864C16.9617 19.107 16.5634 19.2338 16.1566 19.224L16.208 19.2034ZM7.00228 24.9325V4.04226C6.99958 3.78762 6.89652 3.54434 6.71549 3.36524C6.53446 3.18613 6.29008 3.08568 6.03543 3.08569H5.80914C5.55449 3.08568 5.31011 3.18613 5.12908 3.36524C4.94805 3.54434 4.84499 3.78762 4.84229 4.04226V24.9325C4.84229 25.189 4.94415 25.4349 5.12547 25.6162C5.30679 25.7976 5.55272 25.8994 5.80914 25.8994H6.03543C6.29186 25.8994 6.53778 25.7976 6.7191 25.6162C6.90043 25.4349 7.00228 25.189 7.00228 24.9325ZM9.45028 23.4103H9.224C8.96758 23.4103 8.72165 23.3084 8.54033 23.1271C8.35901 22.9458 8.25714 22.6998 8.25714 22.4434V6.53141C8.25986 6.27677 8.36291 6.03348 8.54394 5.85438C8.72497 5.67528 8.96935 5.57483 9.224 5.57484H9.45028C9.70494 5.57483 9.94932 5.67528 10.1303 5.85438C10.3114 6.03348 10.4144 6.27677 10.4171 6.53141V22.464C10.4171 22.7204 10.3153 22.9663 10.134 23.1477C9.95264 23.329 9.70671 23.4308 9.45028 23.4308V23.4103ZM12.8549 20.9623H12.6183C12.3646 20.9623 12.1213 20.8615 11.9419 20.6821C11.7625 20.5027 11.6617 20.2594 11.6617 20.0057V8.99998C11.6604 8.8735 11.6841 8.748 11.7316 8.63075C11.779 8.51351 11.8492 8.40684 11.9382 8.31693C12.0272 8.22701 12.1331 8.15562 12.2499 8.10691C12.3666 8.0582 12.4918 8.03311 12.6183 8.03312H12.8549C13.1095 8.03584 13.3528 8.13889 13.5319 8.31992C13.711 8.50095 13.8114 8.74533 13.8114 8.99998V20.0057C13.8114 20.2594 13.7106 20.5027 13.5312 20.6821C13.3519 20.8615 13.1086 20.9623 12.8549 20.9623ZM16.2594 18.4423H16.0434C15.7888 18.4423 15.5444 18.3419 15.3633 18.1627C15.1823 17.9836 15.0792 17.7404 15.0766 17.4857V11.5611C15.0681 11.4291 15.0869 11.2967 15.1317 11.1721C15.1764 11.0477 15.2464 10.9336 15.337 10.8372C15.4276 10.7407 15.5371 10.664 15.6586 10.6115C15.7801 10.5592 15.9111 10.5322 16.0434 10.5325H16.2697C16.5261 10.5325 16.7721 10.6344 16.9534 10.8157C17.1347 10.9971 17.2366 11.243 17.2366 11.4994V17.4651C17.2379 17.593 17.2139 17.7198 17.1659 17.8383C17.118 17.9568 17.047 18.0646 16.957 18.1555C16.8671 18.2463 16.7601 18.3184 16.6421 18.3677C16.5241 18.417 16.3976 18.4423 16.2697 18.4423H16.2594ZM19.6743 16.2308H19.448C19.1916 16.2308 18.9456 16.129 18.7643 15.9477C18.583 15.7663 18.4811 15.5204 18.4811 15.264V13.7314C18.4838 13.4767 18.5869 13.2335 18.7679 13.0544C18.9489 12.8752 19.1933 12.7748 19.448 12.7748H19.6743C19.929 12.7748 20.1733 12.8752 20.3544 13.0544C20.5354 13.2335 20.6385 13.4767 20.6411 13.7314V15.264C20.6411 15.5187 20.5408 15.763 20.3616 15.9441C20.1825 16.1251 19.9392 16.2282 19.6846 16.2308H19.6743Z" fill="#E4F7EF"/>
</svg>
