<svg width="40" height="42" viewBox="0 0 40 42" fill="none" xmlns="http://www.w3.org/2000/svg">
<path d="M31.6924 7.85028C33.2661 7.85045 34.5419 9.12613 34.542 10.6999V12.3669C34.5418 13.9409 33.266 15.2163 31.6924 15.2165H29.1924C26.166 15.2221 23.7144 17.6745 23.709 20.7009L23.708 21.0505H21.3418V20.6999C21.3475 16.3673 24.8589 12.8564 29.1914 12.8503H31.6924C31.9589 12.8501 32.1746 12.6337 32.1748 12.3669V10.6999C32.1747 10.433 31.9589 10.2167 31.6924 10.2165H26.6904C22.5561 10.1957 19.0968 13.3506 18.7383 17.4694V17.4724C18.6686 18.2159 18.3725 18.9173 17.8945 19.4841L17.6787 19.7184L15.3877 22.0104L15.1396 22.2575L14.8926 22.0104L13.7158 20.8327L13.4678 20.5856L13.7158 20.3386L16.0176 18.0358C16.2275 17.8246 16.357 17.5472 16.3848 17.2507C16.8514 11.9129 21.3339 7.82606 26.6924 7.85126V7.85028H31.6924Z" fill="#075F55" stroke="#075F55" stroke-width="0.7"/>
<path d="M17.9482 7.78363L17.7832 8.02386L17.3867 8.59711C15.546 11.269 15.9062 14.8801 18.2383 17.1362L18.4873 17.3774L18.249 17.6284L17.1025 18.8364L16.8604 19.0922L16.6064 18.8481C13.6909 16.0397 13.0131 11.6432 14.916 8.09515L12.6143 5.7934L12.8623 5.54633L14.0391 4.36957L14.2861 4.12152L17.9482 7.78363Z" fill="#075F55" stroke="#075F55" stroke-width="0.7"/>
<path d="M23.71 0.350403V6.14825L23.3359 6.12189L22.4502 6.05939V6.05841C21.827 6.01914 21.2017 6.08654 20.6006 6.25568L20.1348 6.39044L19.9355 6.44806L19.79 6.30157L16.1963 2.70782L15.9482 2.46075L17.6211 0.787903L17.8682 1.03595L20.6533 3.82111C20.8819 3.77757 21.1121 3.74334 21.3438 3.72052V0.350403H23.71Z" fill="#075F55" stroke="#075F55" stroke-width="0.7"/>
<path d="M27.876 0.350403V6.15118C28.555 6.84681 29.1147 7.64998 29.5303 8.52911L29.6797 8.8465L29.3623 8.99591L27.8516 9.70392L27.5342 9.85333L27.3857 9.53497C27.03 8.7727 26.5269 8.0881 25.9053 7.5213H25.9043L25.6328 7.28986L25.5098 7.18439V0.350403H27.876Z" fill="#075F55" stroke="#075F55" stroke-width="0.7"/>
<path d="M15.5576 8.83496L16.0576 10.4287L16.1621 10.7617L15.8291 10.8672C11.0421 12.3817 7.87598 16.3476 7.87598 20.7002C7.87602 25.9058 9.89551 30.4146 12.4443 33.6221C13.7186 35.2256 15.12 36.4971 16.457 37.3652C17.8013 38.238 19.0512 38.6836 20.0264 38.6836C21.0016 38.6835 22.2506 38.2379 23.5947 37.3652C24.9318 36.4972 26.3332 35.2256 27.6074 33.6221C30.1562 30.4146 32.1757 25.9058 32.1758 20.7002C32.1758 18.575 31.4448 16.5261 30.0439 14.7725L29.8262 14.499L30.0986 14.2803L31.4014 13.2393L31.6748 13.0205L31.8936 13.2939C33.6282 15.4678 34.543 18.0238 34.543 20.7002C34.5429 26.3105 32.3658 31.3847 29.4824 35.0566C28.0403 36.8932 26.4153 38.3864 24.7871 39.4229C23.163 40.4567 21.5134 41.0497 20.0264 41.0498C18.5392 41.0498 16.8889 40.4569 15.2646 39.4229C13.6365 38.3864 12.0114 36.8931 10.5693 35.0566C7.6861 31.3848 5.50981 26.3104 5.50977 20.7002C5.50977 15.2648 9.39109 10.4153 15.1182 8.60547L15.4531 8.5L15.5576 8.83496Z" fill="#075F55" stroke="#075F55" stroke-width="0.7"/>
</svg>
