<svg xmlns="http://www.w3.org/2000/svg" width="1440" height="509" fill="none" viewBox="0 0 1440 509">
  <path fill="#075F55" d="M0 1h1440v508H0z"/>
  <g clip-path="url(#a)">
    <g clip-path="url(#b)">
      <path fill="url(#c)" d="m493.591 955.17 21.722-37.632.207-.364h43.866l21.929 37.986-21.722 37.632-.207.364H515.52l-21.929-37.986Zm86.062 0-21.103-36.551h-42.204l-21.103 36.551 21.103 36.55h42.204l21.103-36.55Zm-86.062-298.147 21.722-37.632.207-.364h43.866l21.929 37.986-21.722 37.632-.207.364H515.52l-21.929-37.986Zm86.062 0-21.103-36.55h-42.204l-21.103 36.55 21.103 36.551h42.204l21.103-36.551Zm-86.062-298.147 21.722-37.632.207-.364h43.866l21.929 37.987-21.722 37.632-.207.364H515.52l-21.929-37.987Zm86.062 0-21.103-36.55h-42.204l-21.103 36.55 21.103 36.551h42.204l21.103-36.551ZM429.036 992.448l21.721-37.632.207-.364h43.866l21.929 37.986-21.722 37.632-.207.36h-43.866l-21.928-37.982Zm86.061 0-21.102-36.551H451.79l-21.102 36.551L451.79 1029h42.205l21.102-36.552Zm-86.061-74.537 21.721-37.632.207-.364h43.866l21.929 37.986-21.722 37.633-.207.363h-43.866l-21.928-37.986Zm86.061 0-21.102-36.55H451.79l-21.102 36.55 21.102 36.551h42.205l21.102-36.551Zm-86.061-149.073 21.721-37.632.207-.364h43.866l21.929 37.986-21.722 37.632-.207.364h-43.866l-21.928-37.986Zm86.061 0-21.102-36.55H451.79l-21.102 36.55 21.102 36.55h42.205l21.102-36.55Zm-86.061-149.073 21.721-37.633.207-.363h43.866l21.929 37.986-21.722 37.632-.207.364h-43.866l-21.928-37.986Zm86.061 0-21.102-36.551H451.79l-21.102 36.551 21.102 36.55h42.205l21.102-36.55Zm-86.061-149.074 21.721-37.632.207-.364h43.866l21.929 37.986-21.722 37.633-.207.363h-43.866l-21.928-37.986Zm86.061 0-21.102-36.55H451.79l-21.102 36.55 21.102 36.551h42.205l21.102-36.551Zm-86.061-149.073 21.721-37.632.207-.364h43.866l21.929 37.986-21.722 37.632-.207.364h-43.866l-21.928-37.986Zm86.061 0-21.102-36.551H451.79l-21.102 36.551 21.102 36.55h42.205l21.102-36.55ZM363.585 880.633l21.722-37.632.206-.364h43.867l21.928 37.986-21.722 37.633-.206.363h-43.867l-21.928-37.986Zm86.071 0-21.102-36.55h-42.205l-21.102 36.55 21.102 36.551h42.205l21.102-36.551ZM363.585 731.56l21.722-37.632.206-.364h43.867l21.928 37.986-21.722 37.632-.206.364h-43.867l-21.928-37.986Zm86.071 0-21.102-36.551h-42.205l-21.102 36.551 21.102 36.55h42.205l21.102-36.55Zm-86.071-74.537 21.722-37.632.206-.364h43.867l21.928 37.986-21.722 37.632-.206.364h-43.867l-21.928-37.986Zm86.071 0-21.102-36.55h-42.205l-21.102 36.55 21.102 36.551h42.205l21.102-36.551Zm-86.071-74.537 21.722-37.632.206-.364h43.867l21.928 37.987-21.722 37.632-.206.364h-43.867l-21.928-37.987Zm86.071 0-21.102-36.55h-42.205l-21.102 36.55 21.102 36.551h42.205l21.102-36.551Zm-86.071-149.073 21.722-37.632.206-.364h43.867l21.928 37.986-21.722 37.632-.206.364h-43.867l-21.928-37.986Zm86.071 0-21.102-36.55h-42.205l-21.102 36.55 21.102 36.551h42.205l21.102-36.551ZM363.585 284.34l21.722-37.632.206-.364h43.867l21.928 37.986-21.722 37.632-.206.364h-43.867l-21.928-37.986Zm86.071 0-21.102-36.551h-42.205l-21.102 36.551 21.102 36.55h42.205l21.102-36.55ZM299.029 917.911l21.722-37.632.206-.364h43.867l21.928 37.986-21.722 37.633-.206.363h-43.867l-21.928-37.986Zm86.071 0-21.102-36.55h-42.205l-21.102 36.55 21.102 36.551h42.205l21.102-36.551Zm-86.071-149.073 21.722-37.632.206-.364h43.867l21.928 37.986-21.722 37.632-.206.364h-43.867l-21.928-37.986Zm86.071 0-21.102-36.55h-42.205l-21.102 36.55 21.102 36.55h42.205l21.102-36.55Zm-86.071-149.073 21.722-37.633.206-.363h43.867l21.928 37.986-21.722 37.632-.206.364h-43.867l-21.928-37.986Zm86.071 0-21.102-36.551h-42.205l-21.102 36.551 21.102 36.55h42.205l21.102-36.55Zm-86.071-223.61 21.722-37.633.206-.363h43.867l21.928 37.986-21.722 37.632-.206.364h-43.867l-21.928-37.986Zm86.071 0-21.102-36.551h-42.205l-21.102 36.551 21.102 36.55h42.205l21.102-36.55Zm-86.071-74.537 21.722-37.632.206-.364h43.867l21.928 37.986-21.722 37.632-.206.364h-43.867l-21.928-37.986Zm86.071 0-21.102-36.551h-42.205l-21.102 36.551 21.102 36.55h42.205l21.102-36.55Zm-86.071-74.527 21.722-37.632.206-.364h43.867l21.928 37.986-21.722 37.632-.206.364h-43.867l-21.928-37.986Zm86.071 0-21.102-36.55h-42.205l-21.102 36.55 21.102 36.551h42.205l21.102-36.551ZM233.578 955.17l21.722-37.632.207-.364h43.866l21.929 37.986-21.722 37.632-.207.364h-43.866l-21.929-37.986Zm86.072 0-21.103-36.551h-42.204L235.24 955.17l21.103 36.55h42.204l21.103-36.55Zm-86.072-223.61 21.722-37.632.207-.364h43.866l21.929 37.986-21.722 37.632-.207.364h-43.866l-21.929-37.986Zm86.072 0-21.103-36.551h-42.204L235.24 731.56l21.103 36.55h42.204l21.103-36.55Zm-86.072-74.537 21.722-37.632.207-.364h43.866l21.929 37.986-21.722 37.632-.207.364h-43.866l-21.929-37.986Zm86.072 0-21.103-36.55h-42.204l-21.103 36.55 21.103 36.551h42.204l21.103-36.551Zm-86.072-74.537 21.722-37.632.207-.364h43.866l21.929 37.987-21.722 37.632-.207.364h-43.866l-21.929-37.987Zm86.072 0-21.103-36.55h-42.204l-21.103 36.55 21.103 36.551h42.204l21.103-36.551Zm-86.072-149.073 21.722-37.632.207-.364h43.866l21.929 37.986-21.722 37.632-.207.364h-43.866l-21.929-37.986Zm86.072 0-21.103-36.55h-42.204l-21.103 36.55 21.103 36.551h42.204l21.103-36.551Zm-86.072-74.537 21.722-37.632.207-.364h43.866l21.929 37.987-21.722 37.632-.207.364h-43.866l-21.929-37.987Zm86.072 0-21.103-36.55h-42.204l-21.103 36.55 21.103 36.551h42.204l21.103-36.551Zm-86.072-74.536 21.722-37.632.207-.364h43.866l21.929 37.986-21.722 37.632-.207.364h-43.866l-21.929-37.986Zm86.072 0-21.103-36.551h-42.204L235.24 284.34l21.103 36.55h42.204l21.103-36.55ZM169.023 843.375l21.721-37.633.207-.363h43.866l21.929 37.986-21.722 37.632-.207.364h-43.866l-21.928-37.986Zm86.071 0-21.103-36.551h-42.204l-21.103 36.551 21.103 36.55h42.204l21.103-36.55Zm-86.071-74.537 21.721-37.632.207-.364h43.866l21.929 37.986-21.722 37.632-.207.364h-43.866l-21.928-37.986Zm86.071 0-21.103-36.55h-42.204l-21.103 36.55 21.103 36.55h42.204l21.103-36.55Zm-86.071-74.537 21.721-37.632.207-.364h43.866l21.929 37.986-21.722 37.633-.207.364h-43.866l-21.928-37.987Zm86.071 0-21.103-36.55h-42.204l-21.103 36.55 21.103 36.551h42.204l21.103-36.551Zm-86.071-74.536 21.721-37.633.207-.363h43.866l21.929 37.986-21.722 37.632-.207.364h-43.866l-21.928-37.986Zm86.071 0-21.103-36.551h-42.204l-21.103 36.551 21.103 36.55h42.204l21.103-36.55Zm-86.071-149.074 21.721-37.632.207-.364h43.866l21.929 37.986-21.722 37.633-.207.363h-43.866l-21.928-37.986Zm86.071 0-21.103-36.55h-42.204l-21.103 36.55 21.103 36.551h42.204l21.103-36.551Zm-86.071-74.536 21.721-37.633.207-.363h43.866l21.929 37.986-21.722 37.632-.207.364h-43.866l-21.928-37.986Zm86.071 0-21.103-36.551h-42.204l-21.103 36.551 21.103 36.55h42.204l21.103-36.55ZM103.572 955.17l21.722-37.632.206-.364h43.867l21.928 37.986-21.722 37.632-.206.364H125.5l-21.928-37.986Zm86.071 0-21.102-36.551h-42.205l-21.102 36.551 21.102 36.55h42.205l21.102-36.55Zm-86.071-74.537 21.722-37.632.206-.364h43.867l21.928 37.986-21.722 37.633-.206.363H125.5l-21.928-37.986Zm86.071 0-21.102-36.55h-42.205l-21.102 36.55 21.102 36.551h42.205l21.102-36.551Zm-86.071-74.536 21.722-37.633.206-.364h43.867l21.928 37.987-21.722 37.632-.206.364H125.5l-21.928-37.986Zm86.071 0-21.102-36.551h-42.205l-21.102 36.551 21.102 36.55h42.205l21.102-36.55Zm-86.071-74.537 21.722-37.632.206-.364h43.867l21.928 37.986-21.722 37.632-.206.364H125.5l-21.928-37.986Zm86.071 0-21.102-36.551h-42.205l-21.102 36.551 21.102 36.55h42.205l21.102-36.55Zm-86.071-223.61 21.722-37.632.206-.364h43.867l21.928 37.986-21.722 37.632-.206.364H125.5l-21.928-37.986Zm86.071 0-21.102-36.551h-42.205l-21.102 36.551 21.102 36.55h42.205l21.102-36.55Zm-86.071-74.537 21.722-37.632.206-.364h43.867l21.928 37.986-21.722 37.632-.206.364H125.5l-21.928-37.986Zm86.071 0-21.102-36.55h-42.205l-21.102 36.55 21.102 36.551h42.205l21.102-36.551Zm-86.071-74.537 21.722-37.632.206-.364h43.867l21.928 37.987-21.722 37.632-.206.364H125.5l-21.928-37.987Zm86.071 0-21.102-36.55h-42.205l-21.102 36.55 21.102 36.551h42.205l21.102-36.551Zm-86.071-74.536 21.722-37.632.206-.364h43.867l21.928 37.986-21.722 37.632-.206.364H125.5l-21.928-37.986Zm86.071 0-21.102-36.551h-42.205l-21.102 36.551 21.102 36.55h42.205l21.102-36.55Zm-86.071-74.537 21.722-37.632.206-.364h43.867l21.928 37.986-21.722 37.632-.206.364H125.5l-21.928-37.986Zm86.071 0-21.102-36.55h-42.205l-21.102 36.55 21.102 36.551h42.205l21.102-36.551ZM39.016 992.448l21.722-37.632.206-.364h43.867l21.928 37.986-21.722 37.632-.206.36H60.944l-21.928-37.982Zm86.071 0-21.102-36.551H61.78l-21.102 36.551L61.78 1029h42.205l21.102-36.552Zm-86.07-74.537 21.721-37.632.206-.364h43.867l21.928 37.986-21.722 37.633-.206.363H60.944l-21.928-37.986Zm86.07 0-21.102-36.55H61.78l-21.102 36.55 21.102 36.551h42.205l21.102-36.551Zm-86.07-149.073 21.721-37.632.206-.364h43.867l21.928 37.986-21.722 37.632-.206.364H60.944l-21.928-37.986Zm86.07 0-21.102-36.55H61.78l-21.102 36.55 21.102 36.55h42.205l21.102-36.55Zm-86.07-149.073 21.721-37.633.206-.363h43.867l21.928 37.986-21.722 37.632-.206.364H60.944l-21.928-37.986Zm86.07 0-21.102-36.551H61.78l-21.102 36.551 21.102 36.55h42.205l21.102-36.55Zm-86.07-74.537 21.721-37.632.206-.364h43.867l21.928 37.986-21.722 37.632-.206.364H60.944l-21.928-37.986Zm86.07 0-21.102-36.551H61.78l-21.102 36.551 21.102 36.55h42.205l21.102-36.55Zm-86.07-74.537 21.721-37.632.206-.364h43.867l21.928 37.986-21.722 37.633-.206.363H60.944l-21.928-37.986Zm86.07 0-21.102-36.55H61.78l-21.102 36.55 21.102 36.551h42.205l21.102-36.551Zm-86.07-149.073 21.721-37.632.206-.364h43.867l21.928 37.986-21.722 37.632-.206.364H60.944l-21.928-37.986Zm86.07 0-21.102-36.551H61.78l-21.102 36.551 21.102 36.55h42.205l21.102-36.55ZM-26.425 880.633l21.722-37.632.207-.364H39.37l21.928 37.986-21.721 37.633-.207.363H-4.496l-21.929-37.986Zm86.062 0-21.103-36.55H-3.67l-21.103 36.55 21.103 36.551h42.204l21.103-36.551ZM-26.425 731.56l21.722-37.632.207-.364H39.37l21.928 37.986-21.721 37.632-.207.364H-4.496l-21.929-37.986Zm86.062 0-21.103-36.551H-3.67l-21.103 36.551 21.103 36.55h42.204l21.103-36.55Zm-86.062-149.074 21.722-37.632.207-.364H39.37l21.928 37.987-21.721 37.632-.207.364H-4.496l-21.929-37.987Zm86.062 0-21.103-36.55H-3.67l-21.103 36.55 21.103 36.551h42.204l21.103-36.551Zm-86.062-74.536 21.722-37.632.207-.364H39.37l21.928 37.986-21.721 37.632-.207.364H-4.496l-21.929-37.986Zm86.062 0-21.103-36.551H-3.67l-21.103 36.551L-3.67 544.5h42.204l21.103-36.55Zm-86.062-149.074 21.722-37.632.207-.364H39.37l21.928 37.987-21.721 37.632-.207.364H-4.496l-21.929-37.987Zm86.062 0-21.103-36.55H-3.67l-21.103 36.55 21.103 36.551h42.204l21.103-36.551Zm-86.062-74.536 21.722-37.632.207-.364H39.37l21.928 37.986-21.721 37.632-.207.364H-4.496l-21.929-37.986Zm86.062 0-21.103-36.551H-3.67l-21.103 36.551 21.103 36.55h42.204l21.103-36.55Zm-86.062-74.537 21.722-37.632.207-.364H39.37l21.928 37.986-21.721 37.632-.207.364H-4.496l-21.929-37.986Zm86.062 0-21.103-36.55H-3.67l-21.103 36.55 21.103 36.551h42.204l21.103-36.551ZM-90.99 843.375l21.721-37.633.207-.363h43.867l21.928 37.986-21.722 37.632-.206.364h-43.867l-21.928-37.986Zm86.07 0-21.102-36.551h-42.204l-21.103 36.551 21.103 36.55h42.204l21.103-36.55Zm-86.07-74.537 21.721-37.632.207-.364h43.867l21.928 37.986-21.722 37.632-.206.364h-43.867l-21.928-37.986Zm86.07 0-21.102-36.55h-42.204l-21.103 36.55 21.103 36.55h42.204l21.103-36.55Zm-86.07-74.537 21.721-37.632.207-.364h43.867l21.928 37.986-21.722 37.633-.206.364h-43.867l-21.928-37.987Zm86.07 0-21.102-36.55h-42.204l-21.103 36.55 21.103 36.551h42.204l21.103-36.551Zm-86.07-74.536 21.721-37.633.207-.363h43.867l21.928 37.986-21.722 37.632-.206.364h-43.867l-21.928-37.986Zm86.07 0-21.102-36.551h-42.204l-21.103 36.551 21.103 36.55h42.204l21.103-36.55Zm-86.07-74.537 21.721-37.632.207-.364h43.867l21.928 37.986-21.722 37.632-.206.364h-43.867l-21.928-37.986Zm86.07 0-21.102-36.551h-42.204l-21.103 36.551 21.103 36.55h42.204l21.103-36.55Zm-86.07-74.537 21.721-37.632.207-.364h43.867l21.928 37.986-21.722 37.633-.206.363h-43.867l-21.928-37.986Zm86.07 0-21.102-36.55h-42.204l-21.103 36.55 21.103 36.551h42.204l21.103-36.551ZM-156.43 955.17l21.722-37.632.206-.364h43.867l21.928 37.986-21.722 37.632-.206.364h-43.867l-21.928-37.986Zm86.061 0-21.102-36.551h-42.205l-21.102 36.551 21.102 36.55h42.205l21.102-36.55Zm-86.061-74.537 21.722-37.632.206-.364h43.867l21.928 37.986-21.722 37.633-.206.363h-43.867l-21.928-37.986Zm86.061 0-21.102-36.55h-42.205l-21.102 36.55 21.102 36.551h42.205l21.102-36.551Zm-86.061-74.536 21.722-37.633.206-.364h43.867l21.928 37.987-21.722 37.632-.206.364h-43.867l-21.928-37.986Zm86.061 0-21.102-36.551h-42.205l-21.102 36.551 21.102 36.55h42.205l21.102-36.55Zm-86.061-149.074 21.722-37.632.206-.364h43.867l21.928 37.986-21.722 37.632-.206.364h-43.867l-21.928-37.986Zm86.061 0-21.102-36.55h-42.205l-21.102 36.55 21.102 36.551h42.205l21.102-36.551ZM-156.43 507.95l21.722-37.632.206-.364h43.867l21.928 37.986-21.722 37.632-.206.364h-43.867l-21.928-37.986Zm86.061 0-21.102-36.551h-42.205l-21.102 36.551 21.102 36.55h42.205l21.102-36.55Zm-86.061-74.537 21.722-37.632.206-.364h43.867l21.928 37.986-21.722 37.632-.206.364h-43.867l-21.928-37.986Zm86.061 0-21.102-36.55h-42.205l-21.102 36.55 21.102 36.551h42.205l21.102-36.551Zm-86.061-74.537 21.722-37.632.206-.364h43.867l21.928 37.987-21.722 37.632-.206.364h-43.867l-21.928-37.987Zm86.061 0-21.102-36.55h-42.205l-21.102 36.55 21.102 36.551h42.205l21.102-36.551Zm-150.617 633.572 21.722-37.632.206-.364h43.867l21.928 37.986-21.722 37.632-.206.36h-43.867l-21.928-37.982Zm86.061 0-21.102-36.551h-42.205l-21.102 36.551 21.102 36.552h42.205l21.102-36.552Zm-86.061-74.537 21.722-37.632.206-.364h43.867l21.928 37.986-21.722 37.633-.206.363h-43.867l-21.928-37.986Zm86.061 0-21.102-36.55h-42.205l-21.102 36.55 21.102 36.551h42.205l21.102-36.551Zm-86.061-74.536 21.722-37.633.206-.363h43.867l21.928 37.986-21.722 37.632-.206.364h-43.867l-21.928-37.986Zm86.061 0-21.102-36.551h-42.205l-21.102 36.551 21.102 36.55h42.205l21.102-36.55Zm-86.061-74.537 21.722-37.632.206-.364h43.867l21.928 37.986-21.722 37.632-.206.364h-43.867l-21.928-37.986Zm86.061 0-21.102-36.55h-42.205l-21.102 36.55 21.102 36.55h42.205l21.102-36.55Zm-86.061-74.537 21.722-37.632.206-.364h43.867l21.928 37.986-21.722 37.633-.206.364h-43.867l-21.928-37.987Zm86.061 0-21.102-36.55h-42.205l-21.102 36.55 21.102 36.551h42.205l21.102-36.551Zm-86.061-149.073 21.722-37.632.206-.364h43.867l21.928 37.986-21.722 37.632-.206.364h-43.867l-21.928-37.986Zm86.061 0-21.102-36.551h-42.205l-21.102 36.551 21.102 36.55h42.205l21.102-36.55Zm-86.061-74.537 21.722-37.632.206-.364h43.867l21.928 37.986-21.722 37.633-.206.363h-43.867l-21.928-37.986Zm86.061 0-21.102-36.55h-42.205l-21.102 36.55 21.102 36.551h42.205l21.102-36.551Zm-86.061-74.536 21.722-37.633.206-.363h43.867l21.928 37.986-21.722 37.632-.206.364h-43.867l-21.928-37.986Zm86.061 0-21.102-36.551h-42.205l-21.102 36.551 21.102 36.55h42.205l21.102-36.55Zm-86.061-74.537 21.722-37.632.206-.364h43.867l21.928 37.986-21.722 37.632-.206.364h-43.867l-21.928-37.986Zm86.061 0-21.102-36.551h-42.205l-21.102 36.551 21.102 36.55h42.205l21.102-36.55Zm-86.061-74.527 21.722-37.632.206-.364h43.867l21.928 37.986-21.722 37.632-.206.364h-43.867l-21.928-37.986Zm86.061 0-21.102-36.55h-42.205l-21.102 36.55 21.102 36.551h42.205l21.102-36.551ZM-286.438 955.17l21.722-37.632.207-.364h43.866l21.928 37.986-21.721 37.632-.207.364h-43.866l-21.929-37.986Zm86.062 0-21.103-36.551h-42.204l-21.103 36.551 21.103 36.55h42.204l21.103-36.55Zm-86.062-74.537 21.722-37.632.207-.364h43.866l21.928 37.986-21.721 37.633-.207.363h-43.866l-21.929-37.986Zm86.062 0-21.103-36.55h-42.204l-21.103 36.55 21.103 36.551h42.204l21.103-36.551Zm-86.062-149.073 21.722-37.632.207-.364h43.866l21.928 37.986-21.721 37.632-.207.364h-43.866l-21.929-37.986Zm86.062 0-21.103-36.551h-42.204l-21.103 36.551 21.103 36.55h42.204l21.103-36.55Zm-86.062-74.537 21.722-37.632.207-.364h43.866l21.928 37.986-21.721 37.632-.207.364h-43.866l-21.929-37.986Zm86.062 0-21.103-36.55h-42.204l-21.103 36.55 21.103 36.551h42.204l21.103-36.551Zm-86.062-74.537 21.722-37.632.207-.364h43.866l21.928 37.987-21.721 37.632-.207.364h-43.866l-21.929-37.987Zm86.062 0-21.103-36.55h-42.204l-21.103 36.55 21.103 36.551h42.204l21.103-36.551Zm-86.062-149.073 21.722-37.632.207-.364h43.866l21.928 37.986-21.721 37.632-.207.364h-43.866l-21.929-37.986Zm86.062 0-21.103-36.55h-42.204l-21.103 36.55 21.103 36.551h42.204l21.103-36.551Zm-86.062-74.537 21.722-37.632.207-.364h43.866l21.928 37.987-21.721 37.632-.207.364h-43.866l-21.929-37.987Zm86.062 0-21.103-36.55h-42.204l-21.103 36.55 21.103 36.551h42.204l21.103-36.551Zm-86.062-74.536 21.722-37.632.207-.364h43.866l21.928 37.986-21.721 37.632-.207.364h-43.866l-21.929-37.986Zm86.062 0-21.103-36.551h-42.204l-21.103 36.551 21.103 36.55h42.204l21.103-36.55Zm-86.062-74.537 21.722-37.632.207-.364h43.866l21.928 37.986-21.721 37.632-.207.364h-43.866l-21.929-37.986Zm86.062 0-21.103-36.55h-42.204l-21.103 36.55 21.103 36.551h42.204l21.103-36.551Zm-150.618 782.645 21.722-37.632.207-.364h43.866l21.929 37.986-21.722 37.632-.207.36h-43.866l-21.929-37.982Zm86.062 0-21.103-36.551h-42.204l-21.103 36.551 21.103 36.552h42.204l21.103-36.552Zm-86.062-74.537 21.722-37.632.207-.364h43.866l21.929 37.986-21.722 37.633-.207.363h-43.866l-21.929-37.986Zm86.062 0-21.103-36.55h-42.204l-21.103 36.55 21.103 36.551h42.204l21.103-36.551Zm-86.062-74.536 21.722-37.633.207-.363h43.866l21.929 37.986-21.722 37.632-.207.364h-43.866l-21.929-37.986Zm86.062 0-21.103-36.551h-42.204l-21.103 36.551 21.103 36.55h42.204l21.103-36.55Zm-86.062-149.074 21.722-37.632.207-.364h43.866l21.929 37.986-21.722 37.633-.207.364h-43.866l-21.929-37.987Zm86.062 0-21.103-36.55h-42.204l-21.103 36.55 21.103 36.551h42.204l21.103-36.551Zm-86.062-74.536 21.722-37.633.207-.363h43.866l21.929 37.986-21.722 37.632-.207.364h-43.866l-21.929-37.986Zm86.062 0-21.103-36.551h-42.204l-21.103 36.551 21.103 36.55h42.204l21.103-36.55Zm-86.062-74.537 21.722-37.632.207-.364h43.866l21.929 37.986-21.722 37.632-.207.364h-43.866l-21.929-37.986Zm86.062 0-21.103-36.551h-42.204l-21.103 36.551 21.103 36.55h42.204l21.103-36.55Zm-86.062-74.537 21.722-37.632.207-.364h43.866l21.929 37.986-21.722 37.633-.207.363h-43.866l-21.929-37.986Zm86.062 0-21.103-36.55h-42.204l-21.103 36.55 21.103 36.551h42.204l21.103-36.551Zm-86.062-149.073 21.722-37.632.207-.364h43.866l21.929 37.986-21.722 37.632-.207.364h-43.866l-21.929-37.986Zm86.062 0-21.103-36.551h-42.204l-21.103 36.551 21.103 36.55h42.204l21.103-36.55Zm-86.062-74.527 21.722-37.632.207-.364h43.866l21.929 37.986-21.722 37.632-.207.364h-43.866l-21.929-37.986Zm86.062 0-21.103-36.55h-42.204l-21.103 36.55 21.103 36.551h42.204l21.103-36.551ZM-416.444 955.17l21.722-37.632.206-.364h43.867l21.928 37.986-21.722 37.632-.206.364h-43.867l-21.928-37.986Zm86.071 0-21.102-36.551h-42.205l-21.102 36.551 21.102 36.55h42.205l21.102-36.55Zm-86.071-74.537 21.722-37.632.206-.364h43.867l21.928 37.986-21.722 37.633-.206.363h-43.867l-21.928-37.986Zm86.071 0-21.102-36.55h-42.205l-21.102 36.55 21.102 36.551h42.205l21.102-36.551Zm-86.071-74.536 21.722-37.633.206-.364h43.867l21.928 37.987-21.722 37.632-.206.364h-43.867l-21.928-37.986Zm86.071 0-21.102-36.551h-42.205l-21.102 36.551 21.102 36.55h42.205l21.102-36.55Zm-86.071-149.074 21.722-37.632.206-.364h43.867l21.928 37.986-21.722 37.632-.206.364h-43.867l-21.928-37.986Zm86.071 0-21.102-36.55h-42.205l-21.102 36.55 21.102 36.551h42.205l21.102-36.551Zm-86.071-74.537 21.722-37.632.206-.364h43.867l21.928 37.987-21.722 37.632-.206.364h-43.867l-21.928-37.987Zm86.071 0-21.102-36.55h-42.205l-21.102 36.55 21.102 36.551h42.205l21.102-36.551Zm-86.071-74.536 21.722-37.632.206-.364h43.867l21.928 37.986-21.722 37.632-.206.364h-43.867l-21.928-37.986Zm86.071 0-21.102-36.551h-42.205l-21.102 36.551 21.102 36.55h42.205l21.102-36.55Zm-86.071-149.074 21.722-37.632.206-.364h43.867l21.928 37.987-21.722 37.632-.206.364h-43.867l-21.928-37.987Zm86.071 0-21.102-36.55h-42.205l-21.102 36.55 21.102 36.551h42.205l21.102-36.551Zm-86.071-74.536 21.722-37.632.206-.364h43.867l21.928 37.986-21.722 37.632-.206.364h-43.867l-21.928-37.986Zm86.071 0-21.102-36.551h-42.205l-21.102 36.551 21.102 36.55h42.205l21.102-36.55Zm-86.071-74.537 21.722-37.632.206-.364h43.867l21.928 37.986-21.722 37.632-.206.364h-43.867l-21.928-37.986Zm86.071 0-21.102-36.55h-42.205l-21.102 36.55 21.102 36.551h42.205l21.102-36.551ZM-481 992.448l21.722-37.632.206-.364h43.867l21.928 37.986-21.722 37.632-.206.36h-43.867L-481 992.448Zm86.071 0-21.102-36.551h-42.205l-21.102 36.551 21.102 36.552h42.205l21.102-36.552ZM-481 843.375l21.722-37.633.206-.363h43.867l21.928 37.986-21.722 37.632-.206.364h-43.867L-481 843.375Zm86.071 0-21.102-36.551h-42.205l-21.102 36.551 21.102 36.55h42.205l21.102-36.55ZM-481 768.838l21.722-37.632.206-.364h43.867l21.928 37.986-21.722 37.632-.206.364h-43.867L-481 768.838Zm86.071 0-21.102-36.55h-42.205l-21.102 36.55 21.102 36.55h42.205l21.102-36.55ZM-481 619.765l21.722-37.633.206-.363h43.867l21.928 37.986-21.722 37.632-.206.364h-43.867L-481 619.765Zm86.071 0-21.102-36.551h-42.205l-21.102 36.551 21.102 36.55h42.205l21.102-36.55ZM-481 470.691l21.722-37.632.206-.364h43.867l21.928 37.986-21.722 37.633-.206.363h-43.867L-481 470.691Zm86.071 0-21.102-36.55h-42.205l-21.102 36.55 21.102 36.551h42.205l21.102-36.551ZM-481 396.155l21.722-37.633.206-.363h43.867l21.928 37.986-21.722 37.632-.206.364h-43.867L-481 396.155Zm86.071 0-21.102-36.551h-42.205l-21.102 36.551 21.102 36.55h42.205l21.102-36.55ZM-481 321.618l21.722-37.632.206-.364h43.867l21.928 37.986-21.722 37.632-.206.364h-43.867L-481 321.618Zm86.071 0-21.102-36.551h-42.205l-21.102 36.551 21.102 36.55h42.205l21.102-36.55ZM-481 247.091l21.722-37.632.206-.364h43.867l21.928 37.986-21.722 37.632-.206.364h-43.867L-481 247.091Zm86.071 0-21.102-36.55h-42.205l-21.102 36.55 21.102 36.551h42.205l21.102-36.551Zm888.52 708.079 21.722-37.632.207-.364h43.866l21.929 37.986-21.722 37.632-.207.364H515.52l-21.929-37.986Zm86.062 0-21.103-36.551h-42.204l-21.103 36.551 21.103 36.55h42.204l21.103-36.55Zm-86.062-298.147 21.722-37.632.207-.364h43.866l21.929 37.986-21.722 37.632-.207.364H515.52l-21.929-37.986Zm86.062 0-21.103-36.55h-42.204l-21.103 36.55 21.103 36.551h42.204l21.103-36.551Zm-86.062-298.147 21.722-37.632.207-.364h43.866l21.929 37.987-21.722 37.632-.207.364H515.52l-21.929-37.987Zm86.062 0-21.103-36.55h-42.204l-21.103 36.55 21.103 36.551h42.204l21.103-36.551ZM429.036 992.448l21.721-37.632.207-.364h43.866l21.929 37.986-21.722 37.632-.207.36h-43.866l-21.928-37.982Zm86.061 0-21.102-36.551H451.79l-21.102 36.551L451.79 1029h42.205l21.102-36.552Zm-86.061-74.537 21.721-37.632.207-.364h43.866l21.929 37.986-21.722 37.633-.207.363h-43.866l-21.928-37.986Zm86.061 0-21.102-36.55H451.79l-21.102 36.55 21.102 36.551h42.205l21.102-36.551Zm-86.061-149.073 21.721-37.632.207-.364h43.866l21.929 37.986-21.722 37.632-.207.364h-43.866l-21.928-37.986Zm86.061 0-21.102-36.55H451.79l-21.102 36.55 21.102 36.55h42.205l21.102-36.55Zm-86.061-149.073 21.721-37.633.207-.363h43.866l21.929 37.986-21.722 37.632-.207.364h-43.866l-21.928-37.986Zm86.061 0-21.102-36.551H451.79l-21.102 36.551 21.102 36.55h42.205l21.102-36.55Zm-86.061-149.074 21.721-37.632.207-.364h43.866l21.929 37.986-21.722 37.633-.207.363h-43.866l-21.928-37.986Zm86.061 0-21.102-36.55H451.79l-21.102 36.55 21.102 36.551h42.205l21.102-36.551Zm-86.061-149.073 21.721-37.632.207-.364h43.866l21.929 37.986-21.722 37.632-.207.364h-43.866l-21.928-37.986Zm86.061 0-21.102-36.551H451.79l-21.102 36.551 21.102 36.55h42.205l21.102-36.55ZM363.585 880.633l21.722-37.632.206-.364h43.867l21.928 37.986-21.722 37.633-.206.363h-43.867l-21.928-37.986Zm86.071 0-21.102-36.55h-42.205l-21.102 36.55 21.102 36.551h42.205l21.102-36.551ZM363.585 731.56l21.722-37.632.206-.364h43.867l21.928 37.986-21.722 37.632-.206.364h-43.867l-21.928-37.986Zm86.071 0-21.102-36.551h-42.205l-21.102 36.551 21.102 36.55h42.205l21.102-36.55Zm-86.071-74.537 21.722-37.632.206-.364h43.867l21.928 37.986-21.722 37.632-.206.364h-43.867l-21.928-37.986Zm86.071 0-21.102-36.55h-42.205l-21.102 36.55 21.102 36.551h42.205l21.102-36.551Zm-86.071-74.537 21.722-37.632.206-.364h43.867l21.928 37.987-21.722 37.632-.206.364h-43.867l-21.928-37.987Zm86.071 0-21.102-36.55h-42.205l-21.102 36.55 21.102 36.551h42.205l21.102-36.551Zm-86.071-149.073 21.722-37.632.206-.364h43.867l21.928 37.986-21.722 37.632-.206.364h-43.867l-21.928-37.986Zm86.071 0-21.102-36.55h-42.205l-21.102 36.55 21.102 36.551h42.205l21.102-36.551ZM363.585 284.34l21.722-37.632.206-.364h43.867l21.928 37.986-21.722 37.632-.206.364h-43.867l-21.928-37.986Zm86.071 0-21.102-36.551h-42.205l-21.102 36.551 21.102 36.55h42.205l21.102-36.55ZM299.029 917.911l21.722-37.632.206-.364h43.867l21.928 37.986-21.722 37.633-.206.363h-43.867l-21.928-37.986Zm86.071 0-21.102-36.55h-42.205l-21.102 36.55 21.102 36.551h42.205l21.102-36.551Zm-86.071-149.073 21.722-37.632.206-.364h43.867l21.928 37.986-21.722 37.632-.206.364h-43.867l-21.928-37.986Zm86.071 0-21.102-36.55h-42.205l-21.102 36.55 21.102 36.55h42.205l21.102-36.55Zm-86.071-149.073 21.722-37.633.206-.363h43.867l21.928 37.986-21.722 37.632-.206.364h-43.867l-21.928-37.986Zm86.071 0-21.102-36.551h-42.205l-21.102 36.551 21.102 36.55h42.205l21.102-36.55Zm-86.071-223.61 21.722-37.633.206-.363h43.867l21.928 37.986-21.722 37.632-.206.364h-43.867l-21.928-37.986Zm86.071 0-21.102-36.551h-42.205l-21.102 36.551 21.102 36.55h42.205l21.102-36.55Zm-86.071-74.537 21.722-37.632.206-.364h43.867l21.928 37.986-21.722 37.632-.206.364h-43.867l-21.928-37.986Zm86.071 0-21.102-36.551h-42.205l-21.102 36.551 21.102 36.55h42.205l21.102-36.55Zm-86.071-74.527 21.722-37.632.206-.364h43.867l21.928 37.986-21.722 37.632-.206.364h-43.867l-21.928-37.986Zm86.071 0-21.102-36.55h-42.205l-21.102 36.55 21.102 36.551h42.205l21.102-36.551ZM233.578 955.17l21.722-37.632.207-.364h43.866l21.929 37.986-21.722 37.632-.207.364h-43.866l-21.929-37.986Zm86.072 0-21.103-36.551h-42.204L235.24 955.17l21.103 36.55h42.204l21.103-36.55Zm-86.072-223.61 21.722-37.632.207-.364h43.866l21.929 37.986-21.722 37.632-.207.364h-43.866l-21.929-37.986Zm86.072 0-21.103-36.551h-42.204L235.24 731.56l21.103 36.55h42.204l21.103-36.55Zm-86.072-74.537 21.722-37.632.207-.364h43.866l21.929 37.986-21.722 37.632-.207.364h-43.866l-21.929-37.986Zm86.072 0-21.103-36.55h-42.204l-21.103 36.55 21.103 36.551h42.204l21.103-36.551Zm-86.072-74.537 21.722-37.632.207-.364h43.866l21.929 37.987-21.722 37.632-.207.364h-43.866l-21.929-37.987Zm86.072 0-21.103-36.55h-42.204l-21.103 36.55 21.103 36.551h42.204l21.103-36.551Zm-86.072-149.073 21.722-37.632.207-.364h43.866l21.929 37.986-21.722 37.632-.207.364h-43.866l-21.929-37.986Zm86.072 0-21.103-36.55h-42.204l-21.103 36.55 21.103 36.551h42.204l21.103-36.551Zm-86.072-74.537 21.722-37.632.207-.364h43.866l21.929 37.987-21.722 37.632-.207.364h-43.866l-21.929-37.987Zm86.072 0-21.103-36.55h-42.204l-21.103 36.55 21.103 36.551h42.204l21.103-36.551Zm-86.072-74.536 21.722-37.632.207-.364h43.866l21.929 37.986-21.722 37.632-.207.364h-43.866l-21.929-37.986Zm86.072 0-21.103-36.551h-42.204L235.24 284.34l21.103 36.55h42.204l21.103-36.55ZM169.023 843.375l21.721-37.633.207-.363h43.866l21.929 37.986-21.722 37.632-.207.364h-43.866l-21.928-37.986Zm86.071 0-21.103-36.551h-42.204l-21.103 36.551 21.103 36.55h42.204l21.103-36.55Zm-86.071-74.537 21.721-37.632.207-.364h43.866l21.929 37.986-21.722 37.632-.207.364h-43.866l-21.928-37.986Zm86.071 0-21.103-36.55h-42.204l-21.103 36.55 21.103 36.55h42.204l21.103-36.55Zm-86.071-74.537 21.721-37.632.207-.364h43.866l21.929 37.986-21.722 37.633-.207.364h-43.866l-21.928-37.987Zm86.071 0-21.103-36.55h-42.204l-21.103 36.55 21.103 36.551h42.204l21.103-36.551Zm-86.071-74.536 21.721-37.633.207-.363h43.866l21.929 37.986-21.722 37.632-.207.364h-43.866l-21.928-37.986Zm86.071 0-21.103-36.551h-42.204l-21.103 36.551 21.103 36.55h42.204l21.103-36.55Zm-86.071-149.074 21.721-37.632.207-.364h43.866l21.929 37.986-21.722 37.633-.207.363h-43.866l-21.928-37.986Zm86.071 0-21.103-36.55h-42.204l-21.103 36.55 21.103 36.551h42.204l21.103-36.551Zm-86.071-74.536 21.721-37.633.207-.363h43.866l21.929 37.986-21.722 37.632-.207.364h-43.866l-21.928-37.986Zm86.071 0-21.103-36.551h-42.204l-21.103 36.551 21.103 36.55h42.204l21.103-36.55ZM103.572 955.17l21.722-37.632.206-.364h43.867l21.928 37.986-21.722 37.632-.206.364H125.5l-21.928-37.986Zm86.071 0-21.102-36.551h-42.205l-21.102 36.551 21.102 36.55h42.205l21.102-36.55Zm-86.071-74.537 21.722-37.632.206-.364h43.867l21.928 37.986-21.722 37.633-.206.363H125.5l-21.928-37.986Zm86.071 0-21.102-36.55h-42.205l-21.102 36.55 21.102 36.551h42.205l21.102-36.551Zm-86.071-74.536 21.722-37.633.206-.364h43.867l21.928 37.987-21.722 37.632-.206.364H125.5l-21.928-37.986Zm86.071 0-21.102-36.551h-42.205l-21.102 36.551 21.102 36.55h42.205l21.102-36.55Zm-86.071-74.537 21.722-37.632.206-.364h43.867l21.928 37.986-21.722 37.632-.206.364H125.5l-21.928-37.986Zm86.071 0-21.102-36.551h-42.205l-21.102 36.551 21.102 36.55h42.205l21.102-36.55Zm-86.071-223.61 21.722-37.632.206-.364h43.867l21.928 37.986-21.722 37.632-.206.364H125.5l-21.928-37.986Zm86.071 0-21.102-36.551h-42.205l-21.102 36.551 21.102 36.55h42.205l21.102-36.55Zm-86.071-74.537 21.722-37.632.206-.364h43.867l21.928 37.986-21.722 37.632-.206.364H125.5l-21.928-37.986Zm86.071 0-21.102-36.55h-42.205l-21.102 36.55 21.102 36.551h42.205l21.102-36.551Zm-86.071-74.537 21.722-37.632.206-.364h43.867l21.928 37.987-21.722 37.632-.206.364H125.5l-21.928-37.987Zm86.071 0-21.102-36.55h-42.205l-21.102 36.55 21.102 36.551h42.205l21.102-36.551Zm-86.071-74.536 21.722-37.632.206-.364h43.867l21.928 37.986-21.722 37.632-.206.364H125.5l-21.928-37.986Zm86.071 0-21.102-36.551h-42.205l-21.102 36.551 21.102 36.55h42.205l21.102-36.55Zm-86.071-74.537 21.722-37.632.206-.364h43.867l21.928 37.986-21.722 37.632-.206.364H125.5l-21.928-37.986Zm86.071 0-21.102-36.55h-42.205l-21.102 36.55 21.102 36.551h42.205l21.102-36.551ZM39.016 992.448l21.722-37.632.206-.364h43.867l21.928 37.986-21.722 37.632-.206.36H60.944l-21.928-37.982Zm86.071 0-21.102-36.551H61.78l-21.102 36.551L61.78 1029h42.205l21.102-36.552Zm-86.07-74.537 21.721-37.632.206-.364h43.867l21.928 37.986-21.722 37.633-.206.363H60.944l-21.928-37.986Zm86.07 0-21.102-36.55H61.78l-21.102 36.55 21.102 36.551h42.205l21.102-36.551Zm-86.07-149.073 21.721-37.632.206-.364h43.867l21.928 37.986-21.722 37.632-.206.364H60.944l-21.928-37.986Zm86.07 0-21.102-36.55H61.78l-21.102 36.55 21.102 36.55h42.205l21.102-36.55Zm-86.07-149.073 21.721-37.633.206-.363h43.867l21.928 37.986-21.722 37.632-.206.364H60.944l-21.928-37.986Zm86.07 0-21.102-36.551H61.78l-21.102 36.551 21.102 36.55h42.205l21.102-36.55Zm-86.07-74.537 21.721-37.632.206-.364h43.867l21.928 37.986-21.722 37.632-.206.364H60.944l-21.928-37.986Zm86.07 0-21.102-36.551H61.78l-21.102 36.551 21.102 36.55h42.205l21.102-36.55Zm-86.07-74.537 21.721-37.632.206-.364h43.867l21.928 37.986-21.722 37.633-.206.363H60.944l-21.928-37.986Zm86.07 0-21.102-36.55H61.78l-21.102 36.55 21.102 36.551h42.205l21.102-36.551Zm-86.07-149.073 21.721-37.632.206-.364h43.867l21.928 37.986-21.722 37.632-.206.364H60.944l-21.928-37.986Zm86.07 0-21.102-36.551H61.78l-21.102 36.551 21.102 36.55h42.205l21.102-36.55ZM-26.425 880.633l21.722-37.632.207-.364H39.37l21.928 37.986-21.721 37.633-.207.363H-4.496l-21.929-37.986Zm86.062 0-21.103-36.55H-3.67l-21.103 36.55 21.103 36.551h42.204l21.103-36.551ZM-26.425 731.56l21.722-37.632.207-.364H39.37l21.928 37.986-21.721 37.632-.207.364H-4.496l-21.929-37.986Zm86.062 0-21.103-36.551H-3.67l-21.103 36.551 21.103 36.55h42.204l21.103-36.55Zm-86.062-149.074 21.722-37.632.207-.364H39.37l21.928 37.987-21.721 37.632-.207.364H-4.496l-21.929-37.987Zm86.062 0-21.103-36.55H-3.67l-21.103 36.55 21.103 36.551h42.204l21.103-36.551Zm-86.062-74.536 21.722-37.632.207-.364H39.37l21.928 37.986-21.721 37.632-.207.364H-4.496l-21.929-37.986Zm86.062 0-21.103-36.551H-3.67l-21.103 36.551L-3.67 544.5h42.204l21.103-36.55Zm-86.062-149.074 21.722-37.632.207-.364H39.37l21.928 37.987-21.721 37.632-.207.364H-4.496l-21.929-37.987Zm86.062 0-21.103-36.55H-3.67l-21.103 36.55 21.103 36.551h42.204l21.103-36.551Zm-86.062-74.536 21.722-37.632.207-.364H39.37l21.928 37.986-21.721 37.632-.207.364H-4.496l-21.929-37.986Zm86.062 0-21.103-36.551H-3.67l-21.103 36.551 21.103 36.55h42.204l21.103-36.55Zm-86.062-74.537 21.722-37.632.207-.364H39.37l21.928 37.986-21.721 37.632-.207.364H-4.496l-21.929-37.986Zm86.062 0-21.103-36.55H-3.67l-21.103 36.55 21.103 36.551h42.204l21.103-36.551ZM-90.99 843.375l21.721-37.633.207-.363h43.867l21.928 37.986-21.722 37.632-.206.364h-43.867l-21.928-37.986Zm86.07 0-21.102-36.551h-42.204l-21.103 36.551 21.103 36.55h42.204l21.103-36.55Zm-86.07-74.537 21.721-37.632.207-.364h43.867l21.928 37.986-21.722 37.632-.206.364h-43.867l-21.928-37.986Zm86.07 0-21.102-36.55h-42.204l-21.103 36.55 21.103 36.55h42.204l21.103-36.55Zm-86.07-74.537 21.721-37.632.207-.364h43.867l21.928 37.986-21.722 37.633-.206.364h-43.867l-21.928-37.987Zm86.07 0-21.102-36.55h-42.204l-21.103 36.55 21.103 36.551h42.204l21.103-36.551Zm-86.07-74.536 21.721-37.633.207-.363h43.867l21.928 37.986-21.722 37.632-.206.364h-43.867l-21.928-37.986Zm86.07 0-21.102-36.551h-42.204l-21.103 36.551 21.103 36.55h42.204l21.103-36.55Zm-86.07-74.537 21.721-37.632.207-.364h43.867l21.928 37.986-21.722 37.632-.206.364h-43.867l-21.928-37.986Zm86.07 0-21.102-36.551h-42.204l-21.103 36.551 21.103 36.55h42.204l21.103-36.55Zm-86.07-74.537 21.721-37.632.207-.364h43.867l21.928 37.986-21.722 37.633-.206.363h-43.867l-21.928-37.986Zm86.07 0-21.102-36.55h-42.204l-21.103 36.55 21.103 36.551h42.204l21.103-36.551ZM-156.43 955.17l21.722-37.632.206-.364h43.867l21.928 37.986-21.722 37.632-.206.364h-43.867l-21.928-37.986Zm86.061 0-21.102-36.551h-42.205l-21.102 36.551 21.102 36.55h42.205l21.102-36.55Zm-86.061-74.537 21.722-37.632.206-.364h43.867l21.928 37.986-21.722 37.633-.206.363h-43.867l-21.928-37.986Zm86.061 0-21.102-36.55h-42.205l-21.102 36.55 21.102 36.551h42.205l21.102-36.551Zm-86.061-74.536 21.722-37.633.206-.364h43.867l21.928 37.987-21.722 37.632-.206.364h-43.867l-21.928-37.986Zm86.061 0-21.102-36.551h-42.205l-21.102 36.551 21.102 36.55h42.205l21.102-36.55Zm-86.061-149.074 21.722-37.632.206-.364h43.867l21.928 37.986-21.722 37.632-.206.364h-43.867l-21.928-37.986Zm86.061 0-21.102-36.55h-42.205l-21.102 36.55 21.102 36.551h42.205l21.102-36.551ZM-156.43 507.95l21.722-37.632.206-.364h43.867l21.928 37.986-21.722 37.632-.206.364h-43.867l-21.928-37.986Zm86.061 0-21.102-36.551h-42.205l-21.102 36.551 21.102 36.55h42.205l21.102-36.55Zm-86.061-74.537 21.722-37.632.206-.364h43.867l21.928 37.986-21.722 37.632-.206.364h-43.867l-21.928-37.986Zm86.061 0-21.102-36.55h-42.205l-21.102 36.55 21.102 36.551h42.205l21.102-36.551Zm-86.061-74.537 21.722-37.632.206-.364h43.867l21.928 37.987-21.722 37.632-.206.364h-43.867l-21.928-37.987Zm86.061 0-21.102-36.55h-42.205l-21.102 36.55 21.102 36.551h42.205l21.102-36.551Zm-150.617 633.572 21.722-37.632.206-.364h43.867l21.928 37.986-21.722 37.632-.206.36h-43.867l-21.928-37.982Zm86.061 0-21.102-36.551h-42.205l-21.102 36.551 21.102 36.552h42.205l21.102-36.552Zm-86.061-74.537 21.722-37.632.206-.364h43.867l21.928 37.986-21.722 37.633-.206.363h-43.867l-21.928-37.986Zm86.061 0-21.102-36.55h-42.205l-21.102 36.55 21.102 36.551h42.205l21.102-36.551Zm-86.061-74.536 21.722-37.633.206-.363h43.867l21.928 37.986-21.722 37.632-.206.364h-43.867l-21.928-37.986Zm86.061 0-21.102-36.551h-42.205l-21.102 36.551 21.102 36.55h42.205l21.102-36.55Zm-86.061-74.537 21.722-37.632.206-.364h43.867l21.928 37.986-21.722 37.632-.206.364h-43.867l-21.928-37.986Zm86.061 0-21.102-36.55h-42.205l-21.102 36.55 21.102 36.55h42.205l21.102-36.55Zm-86.061-74.537 21.722-37.632.206-.364h43.867l21.928 37.986-21.722 37.633-.206.364h-43.867l-21.928-37.987Zm86.061 0-21.102-36.55h-42.205l-21.102 36.55 21.102 36.551h42.205l21.102-36.551Zm-86.061-149.073 21.722-37.632.206-.364h43.867l21.928 37.986-21.722 37.632-.206.364h-43.867l-21.928-37.986Zm86.061 0-21.102-36.551h-42.205l-21.102 36.551 21.102 36.55h42.205l21.102-36.55Zm-86.061-74.537 21.722-37.632.206-.364h43.867l21.928 37.986-21.722 37.633-.206.363h-43.867l-21.928-37.986Zm86.061 0-21.102-36.55h-42.205l-21.102 36.55 21.102 36.551h42.205l21.102-36.551Zm-86.061-74.536 21.722-37.633.206-.363h43.867l21.928 37.986-21.722 37.632-.206.364h-43.867l-21.928-37.986Zm86.061 0-21.102-36.551h-42.205l-21.102 36.551 21.102 36.55h42.205l21.102-36.55Zm-86.061-74.537 21.722-37.632.206-.364h43.867l21.928 37.986-21.722 37.632-.206.364h-43.867l-21.928-37.986Zm86.061 0-21.102-36.551h-42.205l-21.102 36.551 21.102 36.55h42.205l21.102-36.55Zm-86.061-74.527 21.722-37.632.206-.364h43.867l21.928 37.986-21.722 37.632-.206.364h-43.867l-21.928-37.986Zm86.061 0-21.102-36.55h-42.205l-21.102 36.55 21.102 36.551h42.205l21.102-36.551ZM-286.438 955.17l21.722-37.632.207-.364h43.866l21.928 37.986-21.721 37.632-.207.364h-43.866l-21.929-37.986Zm86.062 0-21.103-36.551h-42.204l-21.103 36.551 21.103 36.55h42.204l21.103-36.55Zm-86.062-74.537 21.722-37.632.207-.364h43.866l21.928 37.986-21.721 37.633-.207.363h-43.866l-21.929-37.986Zm86.062 0-21.103-36.55h-42.204l-21.103 36.55 21.103 36.551h42.204l21.103-36.551Zm-86.062-149.073 21.722-37.632.207-.364h43.866l21.928 37.986-21.721 37.632-.207.364h-43.866l-21.929-37.986Zm86.062 0-21.103-36.551h-42.204l-21.103 36.551 21.103 36.55h42.204l21.103-36.55Zm-86.062-74.537 21.722-37.632.207-.364h43.866l21.928 37.986-21.721 37.632-.207.364h-43.866l-21.929-37.986Zm86.062 0-21.103-36.55h-42.204l-21.103 36.55 21.103 36.551h42.204l21.103-36.551Zm-86.062-74.537 21.722-37.632.207-.364h43.866l21.928 37.987-21.721 37.632-.207.364h-43.866l-21.929-37.987Zm86.062 0-21.103-36.55h-42.204l-21.103 36.55 21.103 36.551h42.204l21.103-36.551Zm-86.062-149.073 21.722-37.632.207-.364h43.866l21.928 37.986-21.721 37.632-.207.364h-43.866l-21.929-37.986Zm86.062 0-21.103-36.55h-42.204l-21.103 36.55 21.103 36.551h42.204l21.103-36.551Zm-86.062-74.537 21.722-37.632.207-.364h43.866l21.928 37.987-21.721 37.632-.207.364h-43.866l-21.929-37.987Zm86.062 0-21.103-36.55h-42.204l-21.103 36.55 21.103 36.551h42.204l21.103-36.551Zm-86.062-74.536 21.722-37.632.207-.364h43.866l21.928 37.986-21.721 37.632-.207.364h-43.866l-21.929-37.986Zm86.062 0-21.103-36.551h-42.204l-21.103 36.551 21.103 36.55h42.204l21.103-36.55Zm-86.062-74.537 21.722-37.632.207-.364h43.866l21.928 37.986-21.721 37.632-.207.364h-43.866l-21.929-37.986Zm86.062 0-21.103-36.55h-42.204l-21.103 36.55 21.103 36.551h42.204l21.103-36.551Zm-150.618 782.645 21.722-37.632.207-.364h43.866l21.929 37.986-21.722 37.632-.207.36h-43.866l-21.929-37.982Zm86.062 0-21.103-36.551h-42.204l-21.103 36.551 21.103 36.552h42.204l21.103-36.552Zm-86.062-74.537 21.722-37.632.207-.364h43.866l21.929 37.986-21.722 37.633-.207.363h-43.866l-21.929-37.986Zm86.062 0-21.103-36.55h-42.204l-21.103 36.55 21.103 36.551h42.204l21.103-36.551Zm-86.062-74.536 21.722-37.633.207-.363h43.866l21.929 37.986-21.722 37.632-.207.364h-43.866l-21.929-37.986Zm86.062 0-21.103-36.551h-42.204l-21.103 36.551 21.103 36.55h42.204l21.103-36.55Zm-86.062-149.074 21.722-37.632.207-.364h43.866l21.929 37.986-21.722 37.633-.207.364h-43.866l-21.929-37.987Zm86.062 0-21.103-36.55h-42.204l-21.103 36.55 21.103 36.551h42.204l21.103-36.551Zm-86.062-74.536 21.722-37.633.207-.363h43.866l21.929 37.986-21.722 37.632-.207.364h-43.866l-21.929-37.986Zm86.062 0-21.103-36.551h-42.204l-21.103 36.551 21.103 36.55h42.204l21.103-36.55Zm-86.062-74.537 21.722-37.632.207-.364h43.866l21.929 37.986-21.722 37.632-.207.364h-43.866l-21.929-37.986Zm86.062 0-21.103-36.551h-42.204l-21.103 36.551 21.103 36.55h42.204l21.103-36.55Zm-86.062-74.537 21.722-37.632.207-.364h43.866l21.929 37.986-21.722 37.633-.207.363h-43.866l-21.929-37.986Zm86.062 0-21.103-36.55h-42.204l-21.103 36.55 21.103 36.551h42.204l21.103-36.551Zm-86.062-149.073 21.722-37.632.207-.364h43.866l21.929 37.986-21.722 37.632-.207.364h-43.866l-21.929-37.986Zm86.062 0-21.103-36.551h-42.204l-21.103 36.551 21.103 36.55h42.204l21.103-36.55Zm-86.062-74.527 21.722-37.632.207-.364h43.866l21.929 37.986-21.722 37.632-.207.364h-43.866l-21.929-37.986Zm86.062 0-21.103-36.55h-42.204l-21.103 36.55 21.103 36.551h42.204l21.103-36.551ZM-416.444 955.17l21.722-37.632.206-.364h43.867l21.928 37.986-21.722 37.632-.206.364h-43.867l-21.928-37.986Zm86.071 0-21.102-36.551h-42.205l-21.102 36.551 21.102 36.55h42.205l21.102-36.55Zm-86.071-74.537 21.722-37.632.206-.364h43.867l21.928 37.986-21.722 37.633-.206.363h-43.867l-21.928-37.986Zm86.071 0-21.102-36.55h-42.205l-21.102 36.55 21.102 36.551h42.205l21.102-36.551Zm-86.071-74.536 21.722-37.633.206-.364h43.867l21.928 37.987-21.722 37.632-.206.364h-43.867l-21.928-37.986Zm86.071 0-21.102-36.551h-42.205l-21.102 36.551 21.102 36.55h42.205l21.102-36.55Zm-86.071-149.074 21.722-37.632.206-.364h43.867l21.928 37.986-21.722 37.632-.206.364h-43.867l-21.928-37.986Zm86.071 0-21.102-36.55h-42.205l-21.102 36.55 21.102 36.551h42.205l21.102-36.551Zm-86.071-74.537 21.722-37.632.206-.364h43.867l21.928 37.987-21.722 37.632-.206.364h-43.867l-21.928-37.987Zm86.071 0-21.102-36.55h-42.205l-21.102 36.55 21.102 36.551h42.205l21.102-36.551Zm-86.071-74.536 21.722-37.632.206-.364h43.867l21.928 37.986-21.722 37.632-.206.364h-43.867l-21.928-37.986Zm86.071 0-21.102-36.551h-42.205l-21.102 36.551 21.102 36.55h42.205l21.102-36.55Zm-86.071-149.074 21.722-37.632.206-.364h43.867l21.928 37.987-21.722 37.632-.206.364h-43.867l-21.928-37.987Zm86.071 0-21.102-36.55h-42.205l-21.102 36.55 21.102 36.551h42.205l21.102-36.551Zm-86.071-74.536 21.722-37.632.206-.364h43.867l21.928 37.986-21.722 37.632-.206.364h-43.867l-21.928-37.986Zm86.071 0-21.102-36.551h-42.205l-21.102 36.551 21.102 36.55h42.205l21.102-36.55Zm-86.071-74.537 21.722-37.632.206-.364h43.867l21.928 37.986-21.722 37.632-.206.364h-43.867l-21.928-37.986Zm86.071 0-21.102-36.55h-42.205l-21.102 36.55 21.102 36.551h42.205l21.102-36.551ZM-481 992.448l21.722-37.632.206-.364h43.867l21.928 37.986-21.722 37.632-.206.36h-43.867L-481 992.448Zm86.071 0-21.102-36.551h-42.205l-21.102 36.551 21.102 36.552h42.205l21.102-36.552ZM-481 843.375l21.722-37.633.206-.363h43.867l21.928 37.986-21.722 37.632-.206.364h-43.867L-481 843.375Zm86.071 0-21.102-36.551h-42.205l-21.102 36.551 21.102 36.55h42.205l21.102-36.55ZM-481 768.838l21.722-37.632.206-.364h43.867l21.928 37.986-21.722 37.632-.206.364h-43.867L-481 768.838Zm86.071 0-21.102-36.55h-42.205l-21.102 36.55 21.102 36.55h42.205l21.102-36.55ZM-481 619.765l21.722-37.633.206-.363h43.867l21.928 37.986-21.722 37.632-.206.364h-43.867L-481 619.765Zm86.071 0-21.102-36.551h-42.205l-21.102 36.551 21.102 36.55h42.205l21.102-36.55ZM-481 470.691l21.722-37.632.206-.364h43.867l21.928 37.986-21.722 37.633-.206.363h-43.867L-481 470.691Zm86.071 0-21.102-36.55h-42.205l-21.102 36.55 21.102 36.551h42.205l21.102-36.551ZM-481 396.155l21.722-37.633.206-.363h43.867l21.928 37.986-21.722 37.632-.206.364h-43.867L-481 396.155Zm86.071 0-21.102-36.551h-42.205l-21.102 36.551 21.102 36.55h42.205l21.102-36.55ZM-481 321.618l21.722-37.632.206-.364h43.867l21.928 37.986-21.722 37.632-.206.364h-43.867L-481 321.618Zm86.071 0-21.102-36.551h-42.205l-21.102 36.551 21.102 36.55h42.205l21.102-36.55ZM-481 247.091l21.722-37.632.206-.364h43.867l21.928 37.986-21.722 37.632-.206.364h-43.867L-481 247.091Zm86.071 0-21.102-36.55h-42.205l-21.102 36.55 21.102 36.551h42.205l21.102-36.551Z"/>
    </g>
    <path fill="url(#d)" d="M0 .807h781v565H0z"/>
  </g>
  <defs>
    <clipPath id="a">
      <path fill="#fff" d="M0 .807h1440v508H0z"/>
    </clipPath>
    <clipPath id="b">
      <path fill="#fff" d="M-21 61.807h802v859H-21z"/>
    </clipPath>
    <radialGradient id="d" cx="0" cy="0" r="1" gradientTransform="matrix(0 203.309 -281.035 0 390.5 283.307)" gradientUnits="userSpaceOnUse">
      <stop stop-color="#075F55" stop-opacity="0"/>
      <stop offset="1" stop-color="#075F55"/>
    </radialGradient>
    <linearGradient id="c" x1="-481" x2="581.324" y1="601.13" y2="601.13" gradientUnits="userSpaceOnUse">
      <stop stop-color="#6B862B" stop-opacity=".6"/>
      <stop offset=".5" stop-color="#9AC12A" stop-opacity=".4"/>
      <stop offset="1" stop-color="#00A164"/>
    </linearGradient>
  </defs>
</svg>
