<svg xmlns="http://www.w3.org/2000/svg" width="1440" height="680" fill="none" viewBox="0 0 1440 680">
  <g clip-path="url(#a)">
    <path fill="url(#b)" d="m502.28 642.741-18.958-32.67-.185-.314 18.998-33.136 38.129-.15 18.957 32.671.185.313-18.998 33.137-38.128.149Zm37.272-65.01-36.689.146-18.278 31.881 18.41 31.735 36.689-.145 18.278-31.882-18.41-31.735Zm-261.997-63.83-18.957-32.67-.185-.314 18.998-33.136 38.128-.15 18.958 32.671.184.313-18.998 33.137-38.128.149Zm37.272-65.01-36.689.146-18.278 31.881 18.41 31.735 36.689-.145 18.278-31.882-18.41-31.735ZM52.83 385.061l-18.957-32.67-.185-.314 18.998-33.136 38.128-.15 18.958 32.671.185.313-18.998 33.137-38.129.149Zm37.272-65.01-36.688.146-18.279 31.881 18.41 31.735 36.69-.145 18.278-31.882-18.41-31.735ZM502.42 707.616l-18.957-32.671-.185-.313 18.998-33.137 38.129-.149 18.957 32.671.185.313-18.998 33.136-38.129.15Zm37.272-65.011-36.688.146-18.279 31.882 18.411 31.735 36.688-.146 18.279-31.881-18.411-31.736Zm-93.453 32.801-18.957-32.671-.185-.313 18.998-33.137 38.128-.149 18.958 32.671.185.313-18.998 33.136-38.129.15Zm37.272-65.011-36.689.146-18.278 31.882 18.411 31.735 36.688-.146 18.279-31.881-18.411-31.736Zm-149.634.591-18.958-32.671-.184-.313 18.998-33.137 38.128-.149 18.958 32.671.184.313-18.998 33.136-38.128.15Zm37.272-65.011-36.689.146-18.278 31.882 18.41 31.735 36.689-.146 18.278-31.881-18.41-31.736Zm-149.635.591-18.957-32.671-.185-.313 18.998-33.137 38.129-.149 18.957 32.671.185.313-18.998 33.136-38.129.15Zm37.272-65.011-36.688.146-18.278 31.882 18.41 31.735 36.689-.146 18.278-31.881-18.411-31.736Zm-149.634.591-18.957-32.671-.185-.313 18.998-33.137 38.128-.149 18.958 32.671.185.313-18.998 33.137-38.129.149Zm37.272-65.011-36.689.146-18.278 31.882 18.411 31.735 36.688-.146 18.279-31.881-18.411-31.736Zm-149.634.591-18.958-32.671-.184-.313 18.998-33.137 38.128-.149 18.957 32.671.185.313-18.998 33.137-38.128.149Zm37.272-65.011-36.689.146-18.278 31.882 18.41 31.735 36.689-.146 18.278-31.881-18.41-31.736Zm355.733 356.023-18.957-32.671-.185-.313 18.998-33.137 38.129-.149 18.957 32.671.185.313-18.998 33.136-38.129.15Zm37.277-65.018-36.689.146-18.278 31.881 18.41 31.736 36.689-.146 18.278-31.882-18.41-31.735Zm-149.639.598-18.957-32.671-.185-.313 18.998-33.137 38.128-.149 18.958 32.671.184.313-18.998 33.136-38.128.15Zm37.276-65.018-36.688.146-18.279 31.881 18.411 31.736 36.688-.146 18.279-31.882-18.411-31.735Zm-93.457 32.808-18.958-32.671-.184-.313 18.998-33.137 38.128-.149 18.958 32.671.184.313-18.998 33.137-38.128.149Zm37.276-65.018-36.689.146-18.278 31.881 18.411 31.736 36.688-.146 18.278-31.882-18.41-31.735Zm-93.457 32.808-18.958-32.671-.185-.313 18.998-33.137 38.129-.149 18.957 32.671.185.313-18.998 33.137-38.128.149Zm37.276-65.018-36.689.146-18.278 31.881 18.41 31.736 36.689-.146 18.278-31.882-18.41-31.735Zm-149.639.598L33.75 482.807l-.185-.313 18.998-33.137 38.129-.149 18.957 32.671.185.313-18.998 33.137-38.129.149Zm37.277-65.018-36.69.146-18.277 31.881 18.41 31.736 36.689-.146 18.278-31.882-18.41-31.735Zm-149.64.598-18.956-32.671-.185-.313 18.998-33.137 38.128-.149 18.958 32.671.184.313-18.997 33.137-38.13.149Zm37.277-65.018-36.688.146-18.279 31.881 18.41 31.736 36.69-.146 18.278-31.882-18.41-31.735Zm412.313 387.572-18.957-32.67-.185-.314 18.998-33.136 38.128-.15 18.958 32.671.185.313-18.998 33.137-38.129.149Zm37.276-65.018-36.688.146-18.279 31.882 18.411 31.735 36.688-.146 18.279-31.881-18.411-31.736Zm-149.638.598-18.958-32.67-.184-.314 18.998-33.136 38.128-.15 18.957 32.671.185.313-18.998 33.137-38.128.149Zm37.276-65.017-36.689.145-18.278 31.882 18.41 31.735 36.689-.146 18.278-31.881-18.41-31.735Zm-149.639.597-18.957-32.67-.185-.314 18.998-33.136 38.129-.15 18.957 32.671.185.313-18.998 33.137-38.129.149Zm37.277-65.017-36.689.145-18.278 31.882 18.41 31.735 36.689-.146 18.278-31.881-18.41-31.735Zm-205.82-31.613-18.958-32.67-.184-.314 18.998-33.136 38.128-.15 18.958 32.671.184.313-18.998 33.137-38.128.149Zm37.276-65.017-36.689.145-18.278 31.882 18.41 31.735 36.69-.146 18.277-31.881-18.41-31.735Zm-93.457 32.807-18.958-32.67-.184-.314 18.997-33.136 38.129-.15 18.957 32.671.185.313-18.998 33.137-38.128.149Zm37.276-65.017-36.689.145-18.278 31.882 18.41 31.735 36.69-.146L-3.83 482.65l-18.41-31.735Zm-93.45 32.812-18.957-32.671-.185-.313 18.998-33.137 38.128-.149 18.958 32.67.184.314-18.998 33.136-38.128.15Zm37.276-65.018-36.688.146-18.279 31.881 18.411 31.735 36.688-.146 18.279-31.881-18.41-31.735Zm468.084 420.445-18.957-32.67-.185-.314 18.998-33.136 38.129-.15 18.957 32.671.185.313-18.998 33.137-38.129.149Zm37.277-65.018-36.689.146-18.278 31.882 18.41 31.735 36.689-.146 18.278-31.881-18.41-31.736Zm-205.82-31.612-18.957-32.67-.185-.314 18.998-33.136 38.128-.15 18.958 32.671.184.313-18.998 33.137-38.128.149Zm37.276-65.018-36.688.146-18.279 31.882 18.411 31.735 36.688-.146 18.279-31.881-18.411-31.736Zm-93.457 32.808-18.958-32.67-.184-.314 18.998-33.136 38.128-.15 18.957 32.671.185.313-18.998 33.137-38.128.149Zm37.276-65.018-36.689.146-18.278 31.882 18.41 31.735 36.689-.146 18.278-31.881-18.41-31.736Zm-93.457 32.808-18.958-32.67-.185-.314 18.998-33.136 38.129-.15 18.957 32.671.185.313-18.998 33.137-38.128.149Zm37.276-65.018-36.689.146-18.278 31.882 18.41 31.735 36.689-.146 18.278-31.881-18.41-31.736Zm-149.639.598-18.957-32.67-.185-.314 18.998-33.136 38.129-.15 18.957 32.671.185.313-18.998 33.137-38.129.149Zm37.276-65.018-36.688.146-18.279 31.882 18.41 31.735 36.69-.146 18.278-31.881-18.41-31.736Zm-93.457 32.808-18.957-32.67-.185-.314 18.998-33.136 38.128-.15 18.958 32.671.185.313-18.998 33.137-38.129.149Zm37.276-65.017-36.688.145-18.279 31.882 18.41 31.735 36.69-.146 18.278-31.881-18.41-31.735Zm-93.457 32.807-18.958-32.67-.184-.314 18.998-33.136 38.128-.15 18.958 32.671.184.313-18.998 33.137-38.128.149Zm37.276-65.017-36.689.145-18.278 31.882 18.411 31.735 36.688-.146 18.279-31.881-18.41-31.735ZM277.45 839.609l-18.958-32.671-.184-.313 18.998-33.137 38.128-.149 18.957 32.671.185.313-18.998 33.136-38.128.15Zm37.276-65.018-36.689.146-18.278 31.881 18.41 31.736 36.689-.146 18.278-31.882-18.41-31.735Zm-93.457 32.808-18.958-32.671-.185-.313 18.998-33.137 38.129-.149L278.21 773.8l.185.313-18.998 33.136-38.128.15Zm37.276-65.018-36.689.146-18.278 31.881 18.41 31.736 36.689-.146 18.278-31.882-18.41-31.735Zm-93.458 32.808-18.957-32.671-.185-.313 18.998-33.137 38.129-.149 18.957 32.671.185.313-18.998 33.137-38.129.149Zm37.277-65.018-36.689.146-18.278 31.881 18.41 31.736 36.689-.146 18.278-31.882-18.41-31.735Zm-93.458 32.808-18.957-32.671-.185-.313 18.998-33.137 38.129-.149 18.957 32.671.185.313-18.998 33.136-38.129.15Zm37.277-65.018-36.689.146-18.278 31.881 18.41 31.736 36.689-.146 18.278-31.882-18.41-31.735Zm-149.64.598-18.956-32.671-.185-.313L-3.6 612.438l38.128-.149 18.958 32.671.184.313-18.998 33.137-38.128.149Zm37.277-65.018-36.689.146-18.278 31.881 18.41 31.736 36.69-.146 18.278-31.882-18.41-31.735Zm-93.457 32.808-18.958-32.671-.184-.313 18.998-33.137 38.128-.149 18.957 32.671.185.313-18.998 33.136-38.128.15Zm37.276-65.018-36.689.146-18.278 31.881 18.41 31.736 36.69-.146 18.277-31.882-18.41-31.735Zm355.729 356.03L314.41 904.69l-.185-.313 18.998-33.137 38.129-.149 18.957 32.671.185.313-18.998 33.136-38.129.15Zm37.277-65.018-36.689.146-18.278 31.881 18.41 31.735 36.689-.145 18.278-31.882-18.41-31.735Zm-93.458 32.808L258.23 872.48l-.185-.313 18.998-33.137 38.128-.149 18.958 32.671.185.313-18.998 33.136-38.129.15Zm37.276-65.018-36.688.146-18.279 31.881 18.411 31.735 36.689-.145 18.278-31.882-18.411-31.735Zm-93.457 32.808-18.957-32.671-.185-.313 18.998-33.137 38.128-.149 18.958 32.671.184.313-18.998 33.136-38.128.15Zm37.276-65.018-36.688.146-18.279 31.881 18.411 31.735 36.688-.145 18.279-31.882-18.411-31.735Zm-93.457 32.808-18.958-32.671-.184-.313 18.998-33.137 38.128-.149 18.957 32.671.185.313-18.998 33.136-38.128.15Zm37.276-65.018-36.689.146-18.278 31.881 18.41 31.735 36.689-.145 18.278-31.882-18.41-31.735ZM-3.72 744.101l-18.957-32.671-.185-.313 18.998-33.137 38.129-.149 18.957 32.671.185.313-18.998 33.136-38.129.15Zm37.277-65.018-36.69.146-18.277 31.881L-3 742.846l36.689-.146 18.278-31.882-18.41-31.735Zm-93.458 32.808-18.957-32.671-.185-.313 18.998-33.137 38.128-.149 18.958 32.671.185.313-18.998 33.136-38.129.15Zm37.276-65.018-36.688.146-18.279 31.881 18.41 31.735 36.69-.145 18.278-31.882-18.41-31.735Zm-93.457 32.808-18.957-32.671-.185-.313 18.998-33.137 38.128-.149 18.958 32.671.184.313-18.998 33.136-38.128.15Zm37.276-65.018-36.688.146-18.279 31.881 18.411 31.736 36.688-.146 18.279-31.882-18.41-31.735Zm-93.457 32.808-18.958-32.671-.184-.313 18.998-33.137 38.128-.149 18.957 32.671.185.313-18.998 33.136-38.128.15Zm37.276-65.018-36.689.146-18.278 31.881 18.41 31.736 36.689-.146 18.278-31.882-18.41-31.735Zm-93.457 32.808-18.958-32.671-.185-.313 18.998-33.137 38.129-.149 18.957 32.671.185.313-18.998 33.136-38.128.15Zm37.276-65.018-36.689.146-18.278 31.881 18.41 31.736 36.689-.146 18.278-31.882-18.41-31.735Zm524.675 451.997-18.957-32.675-.185-.314 18.998-33.136 38.128-.15 18.958 32.671.185.313-18.998 33.141-38.129.15Zm37.276-65.023-36.688.146-18.279 31.882 18.411 31.735 36.688-.15 18.279-31.877-18.411-31.736Zm-93.457 32.808-18.958-32.67-.184-.314 18.998-33.136 38.128-.15 18.958 32.671.184.313-18.998 33.137-38.128.149Zm37.276-65.018-36.689.146-18.278 31.882 18.411 31.735 36.688-.146 18.278-31.881-18.41-31.736Zm-149.639.598-18.957-32.67-.185-.314 18.998-33.136 38.129-.15 18.957 32.671.185.313-18.998 33.137-38.129.149Zm37.277-65.018-36.689.146-18.278 31.882 18.41 31.735 36.689-.146 18.278-31.881-18.41-31.736Zm-149.639.598-18.957-32.67-.185-.314 18.998-33.136 38.128-.15 18.958 32.671.185.313-18.998 33.137-38.129.149Zm37.276-65.018-36.688.146-18.279 31.882 18.41 31.735 36.69-.146 18.278-31.881-18.41-31.736ZM-3.58 808.975l-18.957-32.67-.185-.314 18.998-33.136 38.128-.15 18.958 32.671.184.313-18.998 33.137-38.128.149Zm37.276-65.018-36.688.146-18.279 31.882 18.41 31.735 36.69-.146 18.278-31.881-18.41-31.736Zm-93.457 32.808-18.958-32.67-.184-.314 18.998-33.136 38.128-.15 18.958 32.671.184.313-18.998 33.137-38.128.149Zm37.276-65.018-36.689.146-18.278 31.882 18.41 31.735 36.69-.146 18.277-31.881-18.41-31.736Zm-149.639.598-18.957-32.67-.185-.314 18.998-33.136 38.129-.15 18.957 32.671.185.313-18.998 33.137-38.129.149Zm37.277-65.018-36.689.146-18.278 31.882 18.41 31.735 36.689-.146 18.278-31.881-18.41-31.736Zm355.733 356.023-18.957-32.671-.185-.313 18.998-33.137 38.129-.149 18.957 32.671.185.313-18.998 33.136-38.129.15Zm37.272-65.011-36.688.146-18.279 31.882 18.411 31.733 36.688-.14 18.279-31.885-18.411-31.736Zm-149.634.591-18.957-32.671-.185-.313 18.998-33.137 38.128-.149 18.958 32.671.184.313-18.998 33.136-38.128.15Zm37.272-65.011-36.689.146-18.278 31.882 18.41 31.735 36.689-.146 18.278-31.881-18.41-31.736Zm-149.634.591-18.958-32.671-.185-.313 18.998-33.137 38.129-.149 18.957 32.671.185.313L34.29 874.36l-38.128.15Zm37.272-65.011-36.69.146-18.277 31.882 18.41 31.735 36.689-.146 18.278-31.881-18.41-31.736ZM-60.02 842.3l-18.957-32.671-.185-.313 18.998-33.137 38.129-.149 18.957 32.671.185.313-18.998 33.136-38.129.15Zm37.273-65.011-36.69.146-18.278 31.882 18.41 31.735 36.69-.146 18.278-31.881-18.41-31.736Zm-149.635.591-18.957-32.671-.185-.313 18.998-33.137 38.128-.149 18.958 32.671.185.313-18.998 33.136-38.129.15Zm37.272-65.011-36.689.146-18.278 31.882 18.411 31.735 36.688-.146 18.278-31.881-18.41-31.736Zm-93.453 32.801-18.957-32.671-.185-.313 18.998-33.137 38.128-.149 18.958 32.671.184.313-18.998 33.136-38.128.15Zm37.272-65.011-36.689.146-18.278 31.882 18.41 31.735 36.689-.146 18.278-31.881-18.41-31.736Zm-93.453 32.801-18.958-32.671-.184-.313 18.998-33.137 38.128-.149 18.957 32.671.185.313-18.998 33.137-38.128.149Zm37.272-65.011-36.689.146-18.278 31.882 18.41 31.735 36.689-.146 18.278-31.881-18.41-31.736Zm412.313 387.571-18.958-32.67-.185-.31 18.998-33.139 38.129-.149 18.957 32.668.185.32-18.998 33.13-38.128.15Zm37.276-65.016-36.689.146-18.278 31.88 18.41 31.74 36.689-.15 18.278-31.88-18.41-31.736Zm-93.458 32.806-18.957-32.669-.185-.313 18.998-33.137 38.129-.149 18.957 32.671.185.313-18.998 33.134-38.129.15Zm37.277-65.016-36.689.146-18.278 31.881 18.41 31.739 36.689-.15 18.278-31.881-18.41-31.735Zm-93.458 32.808-18.957-32.671-.185-.313 18.998-33.137 38.129-.149 18.957 32.671.185.313-18.998 33.136-38.129.15Zm37.276-65.018-36.688.146-18.278 31.881 18.41 31.735 36.689-.145 18.278-31.882-18.41-31.735Zm-93.457 32.808-18.957-32.671-.185-.313 18.998-33.137 38.128-.149 18.958 32.671.185.313-18.998 33.136-38.129.15Zm37.276-65.018-36.688.146-18.279 31.881 18.41 31.735 36.69-.145 18.278-31.882-18.41-31.735Zm-93.457 32.808-18.957-32.671-.185-.313 18.998-33.137 38.128-.149 18.958 32.671.184.313-18.998 33.136-38.128.15Zm37.276-65.018-36.689.146-18.278 31.881 18.41 31.735 36.69-.145 18.278-31.882-18.41-31.735Zm-93.457 32.808-18.958-32.671-.184-.313 18.998-33.137 38.128-.149 18.958 32.671.184.313-18.998 33.136-38.128.15Zm37.276-65.018-36.689.146-18.278 31.881 18.41 31.735 36.69-.145 18.277-31.882-18.41-31.735Zm299.552 323.816-18.957-32.67-.185-.32 18.998-33.13 38.129-.15 18.957 32.67.185.31-18.998 33.14-38.129.15Zm37.272-65.01-36.688.14-18.279 31.88 18.411 31.74 36.688-.15 18.279-31.88-18.411-31.73Zm-93.453 32.8-18.957-32.67-.185-.32 18.998-33.13 38.129-.15 18.957 32.67.185.31-18.998 33.14-38.129.15Zm37.272-65.01-36.688.14-18.279 31.88 18.411 31.74 36.688-.15 18.279-31.88-18.411-31.73Zm-93.453 32.8-18.957-32.67-.185-.32 18.998-33.13 38.128-.15 18.958 32.67.185.31-18.998 33.14-38.129.15Zm37.272-65.01-36.689.14-18.278 31.88 18.41 31.74 36.689-.15 18.278-31.88-18.41-31.73Zm-149.634.59-18.958-32.674-.184-.314 18.997-33.136 38.129-.15 18.957 32.671.185.313-18.998 33.14-38.128.15Zm37.272-65.014-36.689.146-18.278 31.881 18.41 31.737 36.689-.15 18.278-31.879-18.41-31.735Zm-149.635.59-18.957-32.67-.185-.314 18.998-33.136 38.129-.15 18.957 32.671.185.313-18.998 33.137-38.129.149Zm37.272-65.01-36.688.146-18.279 31.881 18.411 31.735 36.689-.145 18.278-31.882-18.41-31.735Zm-93.453 32.8-18.957-32.67-.185-.314 18.998-33.136 38.128-.15 18.958 32.671.185.313-18.998 33.137-38.129.149Zm37.272-65.01-36.688.146-18.279 31.881 18.411 31.735 36.688-.145 18.279-31.882-18.411-31.735Zm-93.453 32.8-18.957-32.67-.185-.314 18.998-33.136 38.128-.15 18.958 32.671.185.313-18.998 33.137-38.129.149Zm37.272-65.01-36.689.146-18.278 31.881 18.41 31.735 36.689-.145 18.278-31.882-18.41-31.735Zm412.317 387.564-18.957-32.67-.185-.31 18.998-33.14 38.128-.15 18.958 32.67.185.31-18.998 33.14-38.129.15Zm37.272-65.01-36.689.15-18.278 31.88 18.411 31.73 36.688-.14 18.278-31.88-18.41-31.74Zm-93.453 32.8-18.957-32.67-.185-.31 18.998-33.14 38.128-.15 18.958 32.67.184.31-18.998 33.14-38.128.15Zm37.272-65.01-36.689.15-18.278 31.88 18.41 31.73 36.689-.14 18.278-31.88-18.41-31.74Zm-93.453 32.8-18.958-32.67-.184-.31 18.998-33.14 38.128-.15 18.957 32.67.185.31-18.998 33.14-38.128.15Zm37.272-65.01-36.689.15-18.278 31.88 18.41 31.73 36.689-.14 18.278-31.88-18.41-31.74Zm-93.453 32.8-18.958-32.67-.185-.31 18.998-33.14 38.129-.15 18.957 32.67.185.31-18.998 33.14-38.128.15ZM89.632 1037l-36.69.15-18.277 31.88 18.41 31.73 36.689-.14 18.278-31.88-18.41-31.74Zm-93.454 32.8-18.957-32.67-.185-.31 18.998-33.14 38.129-.15 18.957 32.67.185.31-18.998 33.14-38.129.15Zm37.272-65.01-36.688.15-18.279 31.88 18.41 31.73 36.69-.14 18.278-31.88-18.41-31.74Zm-149.634.59-18.957-32.67-.185-.313 18.998-33.137 38.128-.149 18.958 32.671.185.313-18.998 33.135-38.129.15Zm37.272-65.01-36.689.146-18.278 31.882 18.41 31.732 36.69-.14 18.277-31.884-18.41-31.736Zm-93.453 32.801-18.958-32.671-.184-.313 18.998-33.137 38.128-.149 18.958 32.671.184.313-18.998 33.137-38.128.149Zm37.272-65.011-36.689.146-18.278 31.882 18.41 31.735 36.689-.146 18.278-31.881-18.41-31.736Zm-93.453 32.801-18.958-32.671-.184-.313 18.998-33.137 38.128-.149 18.957 32.671.185.313-18.998 33.136-38.128.15Zm37.272-65.011-36.689.146-18.278 31.882 18.41 31.735 36.689-.146 18.278-31.881-18.41-31.736Zm-93.453 32.801-18.958-32.671-.185-.313 18.998-33.137 38.129-.149 18.957 32.671.185.313-18.998 33.137-38.128.149Zm37.272-65.011-36.689.146-18.278 31.882 18.41 31.735 36.689-.146 18.278-31.881-18.41-31.736Zm-93.446 32.805-18.958-32.671-.184-.313 18.998-33.137 38.128-.149 18.957 32.671.185.313-18.998 33.137-38.128.149Zm37.272-65.01-36.689.146-18.278 31.881 18.41 31.735 36.689-.146 18.278-31.881-18.41-31.735Zm468.088 420.435-18.957-32.67-.185-.31 18.998-33.14 38.129-.15 18.957 32.67.185.32-18.998 33.13-38.129.15Zm37.272-65.01-36.688.15-18.279 31.88 18.411 31.73 36.688-.14 18.279-31.88-18.411-31.74Zm-93.453 32.8-18.957-32.67-.185-.31 18.998-33.14 38.128-.15 18.958 32.67.185.32-18.998 33.13-38.129.15Zm37.272-65.01-36.689.15-18.278 31.88 18.411 31.73 36.688-.14 18.278-31.88-18.41-31.74Zm-149.634.59-18.958-32.67-.184-.31 18.998-33.14 38.128-.15 18.957 32.67.185.32-18.998 33.13-38.128.15Zm37.272-65.01-36.689.15-18.278 31.88 18.41 31.73 36.689-.14 18.278-31.88-18.41-31.74Zm-93.453 32.8-18.958-32.67-.185-.31 18.998-33.14 38.129-.15 18.957 32.67.185.32-18.998 33.13-38.128.15Zm37.272-65.01-36.69.15-18.277 31.88 18.41 31.73 36.689-.14 18.278-31.88-18.41-31.74Zm-93.454 32.8-18.957-32.67-.185-.31 18.998-33.14 38.129-.15 18.957 32.67.185.32-18.998 33.13-38.129.15Zm37.272-65.01-36.688.15-18.279 31.88 18.411 31.73 36.688-.14 18.279-31.88-18.41-31.74Zm-149.634.59-18.957-32.668-.185-.313 18.998-33.137 38.128-.149 18.958 32.671.185.313-18.998 33.133-38.129.15Zm37.272-65.008-36.689.146-18.278 31.882 18.41 31.73 36.689-.14 18.278-31.882-18.41-31.736Zm-93.453 32.801-18.958-32.671-.184-.313 18.998-33.137 38.128-.149 18.958 32.671.184.313-18.998 33.136-38.128.15Zm37.272-65.011-36.689.146-18.278 31.882 18.41 31.735 36.689-.146 18.278-31.881-18.41-31.736Zm-93.453 32.801-18.958-32.671-.184-.313 18.998-33.137 38.128-.149 18.957 32.671.185.313-18.998 33.136-38.128.15Zm37.272-65.011-36.689.146-18.278 31.882 18.41 31.735 36.689-.146 18.278-31.881-18.41-31.736Zm-93.453 32.801-18.958-32.671-.185-.313 18.998-33.137 38.129-.149 18.957 32.671.185.313-18.998 33.136-38.128.15Zm37.272-65.011-36.689.146-18.278 31.882 18.41 31.735 36.689-.146 18.278-31.881-18.41-31.736Zm524.679 451.988-18.957-32.67-.185-.32 18.998-33.13 38.128-.15 18.958 32.67.184.31-18.998 33.14-38.128.15Zm37.272-65.01-36.689.14-18.278 31.88 18.41 31.74 36.689-.15 18.278-31.88-18.41-31.73Zm-93.453 32.8-18.958-32.67-.184-.32 18.998-33.13 38.128-.15 18.958 32.67.184.31-18.998 33.14-38.128.15Zm37.272-65.01-36.689.14-18.278 31.88 18.41 31.74 36.689-.15 18.278-31.88-18.41-31.73Zm-93.453 32.8-18.958-32.67-.185-.32 18.998-33.13 38.129-.15 18.957 32.67.185.31-18.998 33.14-38.128.15Zm37.272-65.01-36.689.14-18.278 31.88 18.41 31.74 36.689-.15 18.278-31.88-18.41-31.73Zm-149.635.59-18.957-32.67-.185-.32 18.998-33.13 38.129-.15 18.957 32.67.185.31-18.998 33.14-38.129.15Zm37.272-65.01-36.688.14-18.279 31.88 18.41 31.74 36.69-.15 18.278-31.88-18.41-31.73Zm-93.453 32.8-18.957-32.67-.185-.32 18.998-33.13 38.128-.15 18.958 32.67.185.31-18.998 33.14-38.129.15Zm37.272-65.01-36.689.14-18.278 31.88 18.411 31.74 36.688-.15 18.279-31.88-18.41-31.73Zm-93.453 32.8-18.957-32.67-.185-.32 18.998-33.13 38.128-.15 18.958 32.67.184.31-18.998 33.14-38.128.15Zm37.272-65.01-36.689.14-18.278 31.88 18.41 31.74 36.689-.15 18.278-31.88-18.41-31.73Zm-93.453 32.8-18.958-32.67-.184-.32 18.998-33.13 38.128-.15 18.957 32.67.185.31-18.998 33.14-38.128.15Zm37.272-65.01-36.689.14-18.278 31.88 18.41 31.74 36.689-.15 18.278-31.88-18.41-31.73Zm-149.635.59-18.957-32.673-.185-.314 18.998-33.136 38.129-.15 18.957 32.671.185.313-18.998 33.139-38.129.15Zm37.272-65.013-36.688.146-18.279 31.881 18.411 31.736 36.689-.15 18.278-31.878-18.411-31.735Zm-93.445 32.805-18.958-32.671-.185-.313 18.998-33.137 38.129-.149 18.957 32.67.185.314-18.998 33.136-38.128.15Zm37.272-65.011-36.689.146-18.278 31.881 18.41 31.736 36.689-.146 18.278-31.881-18.41-31.736Zm468.088 420.439-18.957-32.67-.185-.31 18.998-33.14 38.128-.15 18.958 32.67.185.31-18.998 33.14-38.129.15Zm37.276-65.02-36.688.15-18.278 31.88 18.41 31.73 36.689-.14 18.278-31.88-18.411-31.74Zm-93.457 32.81-18.957-32.67-.185-.31 18.998-33.14 38.128-.15 18.958 32.67.185.31-18.998 33.14-38.129.15Zm37.276-65.02-36.688.15-18.279 31.88 18.41 31.73 36.69-.14 18.278-31.88-18.41-31.74Zm-93.457 32.81-18.958-32.67-.184-.31 18.998-33.14 38.128-.15 18.957 32.67.185.31-18.998 33.14-38.128.15Zm37.276-65.02-36.689.15-18.278 31.88 18.41 31.73 36.69-.14 18.278-31.88-18.41-31.74Zm-149.639.6-18.957-32.67-.185-.31 18.998-33.14 38.129-.15 18.957 32.67.185.31-18.998 33.14-38.129.15Zm37.277-65.02-36.689.15-18.278 31.88 18.41 31.73 36.689-.14 18.278-31.88-18.41-31.74Zm-93.458 32.81-18.957-32.67-.185-.31 18.998-33.14 38.129-.15 18.957 32.67.185.31-18.998 33.14-38.129.15Zm37.277-65.02-36.689.15-18.278 31.88 18.41 31.73 36.689-.14 18.278-31.88-18.41-31.74Zm-93.458 32.81-18.957-32.67-.185-.31 18.998-33.14 38.128-.15 18.958 32.67.185.31-18.998 33.14-38.129.15Zm37.276-65.02-36.688.15-18.279 31.88 18.411 31.73 36.689-.14 18.278-31.88-18.411-31.74Zm-149.638.6-18.958-32.67-.184-.31 18.998-33.14 38.128-.15 18.957 32.67.185.31-18.998 33.14-38.128.15Zm37.276-65.02-36.689.15-18.278 31.88 18.41 31.73 36.689-.14 18.278-31.88-18.41-31.74Zm-93.457 32.81-18.958-32.67-.185-.31 18.998-33.141 38.129-.15 18.957 32.671.185.31-18.998 33.14-38.128.15Zm37.276-65.019-36.689.146-18.278 31.883 18.41 31.73 36.689-.14 18.278-31.88-18.41-31.739Zm-93.458 32.809-18.957-32.671-.185-.314 18.998-33.136 38.129-.15 18.957 32.671.185.313-18.998 33.137-38.129.15Zm37.277-65.019-36.689.146-18.278 31.882 18.41 31.731 36.689-.14 18.278-31.883-18.41-31.736Zm524.675 451.989-18.957-32.67-.185-.31 18.998-33.14 38.128-.15 18.958 32.67.184.32-18.998 33.13-38.128.15Zm37.276-65.01-36.689.14-18.278 31.88 18.411 31.74 36.688-.15 18.279-31.88-18.411-31.73Zm-149.638.59-18.958-32.67-.185-.31 18.998-33.14 38.129-.15 18.957 32.67.185.32-18.998 33.13-38.128.15Zm37.276-65.01-36.689.14-18.278 31.88 18.41 31.74 36.689-.15 18.278-31.88-18.41-31.73Zm-93.458 32.8-18.957-32.67-.185-.31 18.998-33.14 38.129-.15 18.957 32.67.185.32-18.998 33.13-38.129.15Zm37.277-65.01-36.689.14-18.278 31.88 18.41 31.74 36.689-.15 18.278-31.88-18.41-31.73Zm-149.639.59-18.957-32.67-.185-.31 18.998-33.14 38.128-.15 18.958 32.67.185.32-18.998 33.13-38.129.15Zm37.276-65.01-36.688.14-18.279 31.88 18.411 31.74 36.688-.15 18.279-31.88-18.411-31.73Zm-149.638.59-18.958-32.67-.185-.31 18.998-33.14 38.129-.15 18.957 32.67.185.32-18.998 33.13-38.128.15Zm37.276-65.01-36.689.14-18.278 31.88 18.41 31.74 36.689-.15 18.278-31.88-18.41-31.73Zm-93.458 32.8-18.957-32.67-.185-.31 18.998-33.14 38.129-.15 18.957 32.67.185.32-18.998 33.13-38.129.15Zm37.277-65.01-36.689.14-18.278 31.88 18.41 31.74 36.689-.15 18.278-31.88-18.41-31.73Zm-93.458 32.8-18.957-32.67-.185-.31 18.998-33.14 38.129-.15 18.957 32.67.185.32-18.998 33.13-38.129.15Zm37.277-65.01-36.689.14-18.278 31.88 18.41 31.74 36.689-.15 18.278-31.88-18.41-31.73Zm-93.45 32.81-18.958-32.67-.185-.32 18.998-33.13 38.129-.15 18.957 32.67.185.31-18.998 33.14-38.128.15Zm37.276-65.02-36.689.15-18.278 31.88 18.41 31.73 36.689-.14 18.278-31.88-18.41-31.74ZM502.28 642.741l-18.958-32.67-.185-.314 18.998-33.136 38.129-.15 18.957 32.671.185.313-18.998 33.137-38.128.149Zm37.272-65.01-36.689.146-18.278 31.881 18.41 31.735 36.689-.145 18.278-31.882-18.41-31.735Zm-261.997-63.83-18.957-32.67-.185-.314 18.998-33.136 38.128-.15 18.958 32.671.184.313-18.998 33.137-38.128.149Zm37.272-65.01-36.689.146-18.278 31.881 18.41 31.735 36.689-.145 18.278-31.882-18.41-31.735ZM52.83 385.061l-18.957-32.67-.185-.314 18.998-33.136 38.128-.15 18.958 32.671.185.313-18.998 33.137-38.129.149Zm37.272-65.01-36.688.146-18.279 31.881 18.41 31.735 36.69-.145 18.278-31.882-18.41-31.735ZM502.42 707.616l-18.957-32.671-.185-.313 18.998-33.137 38.129-.149 18.957 32.671.185.313-18.998 33.136-38.129.15Zm37.272-65.011-36.688.146-18.279 31.882 18.411 31.735 36.688-.146 18.279-31.881-18.411-31.736Zm-93.453 32.801-18.957-32.671-.185-.313 18.998-33.137 38.128-.149 18.958 32.671.185.313-18.998 33.136-38.129.15Zm37.272-65.011-36.689.146-18.278 31.882 18.411 31.735 36.688-.146 18.279-31.881-18.411-31.736Zm-149.634.591-18.958-32.671-.184-.313 18.998-33.137 38.128-.149 18.958 32.671.184.313-18.998 33.136-38.128.15Zm37.272-65.011-36.689.146-18.278 31.882 18.41 31.735 36.689-.146 18.278-31.881-18.41-31.736Zm-149.635.591-18.957-32.671-.185-.313 18.998-33.137 38.129-.149 18.957 32.671.185.313-18.998 33.136-38.129.15Zm37.272-65.011-36.688.146-18.278 31.882 18.41 31.735 36.689-.146 18.278-31.881-18.411-31.736Zm-149.634.591-18.957-32.671-.185-.313 18.998-33.137 38.128-.149 18.958 32.671.185.313-18.998 33.137-38.129.149Zm37.272-65.011-36.689.146-18.278 31.882 18.411 31.735 36.688-.146 18.279-31.881-18.411-31.736Zm-149.634.591-18.958-32.671-.184-.313 18.998-33.137 38.128-.149 18.957 32.671.185.313-18.998 33.137-38.128.149Zm37.272-65.011-36.689.146-18.278 31.882 18.41 31.735 36.689-.146 18.278-31.881-18.41-31.736Zm355.733 356.023-18.957-32.671-.185-.313 18.998-33.137 38.129-.149 18.957 32.671.185.313-18.998 33.136-38.129.15Zm37.277-65.018-36.689.146-18.278 31.881 18.41 31.736 36.689-.146 18.278-31.882-18.41-31.735Zm-149.639.598-18.957-32.671-.185-.313 18.998-33.137 38.128-.149 18.958 32.671.184.313-18.998 33.136-38.128.15Zm37.276-65.018-36.688.146-18.279 31.881 18.411 31.736 36.688-.146 18.279-31.882-18.411-31.735Zm-93.457 32.808-18.958-32.671-.184-.313 18.998-33.137 38.128-.149 18.958 32.671.184.313-18.998 33.137-38.128.149Zm37.276-65.018-36.689.146-18.278 31.881 18.411 31.736 36.688-.146 18.278-31.882-18.41-31.735Zm-93.457 32.808-18.958-32.671-.185-.313 18.998-33.137 38.129-.149 18.957 32.671.185.313-18.998 33.137-38.128.149Zm37.276-65.018-36.689.146-18.278 31.881 18.41 31.736 36.689-.146 18.278-31.882-18.41-31.735Zm-149.639.598L33.75 482.807l-.185-.313 18.998-33.137 38.129-.149 18.957 32.671.185.313-18.998 33.137-38.129.149Zm37.277-65.018-36.69.146-18.277 31.881 18.41 31.736 36.689-.146 18.278-31.882-18.41-31.735Zm-149.64.598-18.956-32.671-.185-.313 18.998-33.137 38.128-.149 18.958 32.671.184.313-18.997 33.137-38.13.149Zm37.277-65.018-36.688.146-18.279 31.881 18.41 31.736 36.69-.146 18.278-31.882-18.41-31.735Zm412.313 387.572-18.957-32.67-.185-.314 18.998-33.136 38.128-.15 18.958 32.671.185.313-18.998 33.137-38.129.149Zm37.276-65.018-36.688.146-18.279 31.882 18.411 31.735 36.688-.146 18.279-31.881-18.411-31.736Zm-149.638.598-18.958-32.67-.184-.314 18.998-33.136 38.128-.15 18.957 32.671.185.313-18.998 33.137-38.128.149Zm37.276-65.017-36.689.145-18.278 31.882 18.41 31.735 36.689-.146 18.278-31.881-18.41-31.735Zm-149.639.597-18.957-32.67-.185-.314 18.998-33.136 38.129-.15 18.957 32.671.185.313-18.998 33.137-38.129.149Zm37.277-65.017-36.689.145-18.278 31.882 18.41 31.735 36.689-.146 18.278-31.881-18.41-31.735Zm-205.82-31.613-18.958-32.67-.184-.314 18.998-33.136 38.128-.15 18.958 32.671.184.313-18.998 33.137-38.128.149Zm37.276-65.017-36.689.145-18.278 31.882 18.41 31.735 36.69-.146 18.277-31.881-18.41-31.735Zm-93.457 32.807-18.958-32.67-.184-.314 18.997-33.136 38.129-.15 18.957 32.671.185.313-18.998 33.137-38.128.149Zm37.276-65.017-36.689.145-18.278 31.882 18.41 31.735 36.69-.146L-3.83 482.65l-18.41-31.735Zm-93.45 32.812-18.957-32.671-.185-.313 18.998-33.137 38.128-.149 18.958 32.67.184.314-18.998 33.136-38.128.15Zm37.276-65.018-36.688.146-18.279 31.881 18.411 31.735 36.688-.146 18.279-31.881-18.41-31.735Zm468.084 420.445-18.957-32.67-.185-.314 18.998-33.136 38.129-.15 18.957 32.671.185.313-18.998 33.137-38.129.149Zm37.277-65.018-36.689.146-18.278 31.882 18.41 31.735 36.689-.146 18.278-31.881-18.41-31.736Zm-205.82-31.612-18.957-32.67-.185-.314 18.998-33.136 38.128-.15 18.958 32.671.184.313-18.998 33.137-38.128.149Zm37.276-65.018-36.688.146-18.279 31.882 18.411 31.735 36.688-.146 18.279-31.881-18.411-31.736Zm-93.457 32.808-18.958-32.67-.184-.314 18.998-33.136 38.128-.15 18.957 32.671.185.313-18.998 33.137-38.128.149Zm37.276-65.018-36.689.146-18.278 31.882 18.41 31.735 36.689-.146 18.278-31.881-18.41-31.736Zm-93.457 32.808-18.958-32.67-.185-.314 18.998-33.136 38.129-.15 18.957 32.671.185.313-18.998 33.137-38.128.149Zm37.276-65.018-36.689.146-18.278 31.882 18.41 31.735 36.689-.146 18.278-31.881-18.41-31.736Zm-149.639.598-18.957-32.67-.185-.314 18.998-33.136 38.129-.15 18.957 32.671.185.313-18.998 33.137-38.129.149Zm37.276-65.018-36.688.146-18.279 31.882 18.41 31.735 36.69-.146 18.278-31.881-18.41-31.736Zm-93.457 32.808-18.957-32.67-.185-.314 18.998-33.136 38.128-.15 18.958 32.671.185.313-18.998 33.137-38.129.149Zm37.276-65.017-36.688.145-18.279 31.882 18.41 31.735 36.69-.146 18.278-31.881-18.41-31.735Zm-93.457 32.807-18.958-32.67-.184-.314 18.998-33.136 38.128-.15 18.958 32.671.184.313-18.998 33.137-38.128.149Zm37.276-65.017-36.689.145-18.278 31.882 18.411 31.735 36.688-.146 18.279-31.881-18.41-31.735ZM277.45 839.609l-18.958-32.671-.184-.313 18.998-33.137 38.128-.149 18.957 32.671.185.313-18.998 33.136-38.128.15Zm37.276-65.018-36.689.146-18.278 31.881 18.41 31.736 36.689-.146 18.278-31.882-18.41-31.735Zm-93.457 32.808-18.958-32.671-.185-.313 18.998-33.137 38.129-.149L278.21 773.8l.185.313-18.998 33.136-38.128.15Zm37.276-65.018-36.689.146-18.278 31.881 18.41 31.736 36.689-.146 18.278-31.882-18.41-31.735Zm-93.458 32.808-18.957-32.671-.185-.313 18.998-33.137 38.129-.149 18.957 32.671.185.313-18.998 33.137-38.129.149Zm37.277-65.018-36.689.146-18.278 31.881 18.41 31.736 36.689-.146 18.278-31.882-18.41-31.735Zm-93.458 32.808-18.957-32.671-.185-.313 18.998-33.137 38.129-.149 18.957 32.671.185.313-18.998 33.136-38.129.15Zm37.277-65.018-36.689.146-18.278 31.881 18.41 31.736 36.689-.146 18.278-31.882-18.41-31.735Zm-149.64.598-18.956-32.671-.185-.313L-3.6 612.438l38.128-.149 18.958 32.671.184.313-18.998 33.137-38.128.149Zm37.277-65.018-36.689.146-18.278 31.881 18.41 31.736 36.69-.146 18.278-31.882-18.41-31.735Zm-93.457 32.808-18.958-32.671-.184-.313 18.998-33.137 38.128-.149 18.957 32.671.185.313-18.998 33.136-38.128.15Zm37.276-65.018-36.689.146-18.278 31.881 18.41 31.736 36.69-.146 18.277-31.882-18.41-31.735Zm355.729 356.03L314.41 904.69l-.185-.313 18.998-33.137 38.129-.149 18.957 32.671.185.313-18.998 33.136-38.129.15Zm37.277-65.018-36.689.146-18.278 31.881 18.41 31.735 36.689-.145 18.278-31.882-18.41-31.735Zm-93.458 32.808L258.23 872.48l-.185-.313 18.998-33.137 38.128-.149 18.958 32.671.185.313-18.998 33.136-38.129.15Zm37.276-65.018-36.688.146-18.279 31.881 18.411 31.735 36.689-.145 18.278-31.882-18.411-31.735Zm-93.457 32.808-18.957-32.671-.185-.313 18.998-33.137 38.128-.149 18.958 32.671.184.313-18.998 33.136-38.128.15Zm37.276-65.018-36.688.146-18.279 31.881 18.411 31.735 36.688-.145 18.279-31.882-18.411-31.735Zm-93.457 32.808-18.958-32.671-.184-.313 18.998-33.137 38.128-.149 18.957 32.671.185.313-18.998 33.136-38.128.15Zm37.276-65.018-36.689.146-18.278 31.881 18.41 31.735 36.689-.145 18.278-31.882-18.41-31.735ZM-3.72 744.101l-18.957-32.671-.185-.313 18.998-33.137 38.129-.149 18.957 32.671.185.313-18.998 33.136-38.129.15Zm37.277-65.018-36.69.146-18.277 31.881L-3 742.846l36.689-.146 18.278-31.882-18.41-31.735Zm-93.458 32.808-18.957-32.671-.185-.313 18.998-33.137 38.128-.149 18.958 32.671.185.313-18.998 33.136-38.129.15Zm37.276-65.018-36.688.146-18.279 31.881 18.41 31.735 36.69-.145 18.278-31.882-18.41-31.735Zm-93.457 32.808-18.957-32.671-.185-.313 18.998-33.137 38.128-.149 18.958 32.671.184.313-18.998 33.136-38.128.15Zm37.276-65.018-36.688.146-18.279 31.881 18.411 31.736 36.688-.146 18.279-31.882-18.41-31.735Zm-93.457 32.808-18.958-32.671-.184-.313 18.998-33.137 38.128-.149 18.957 32.671.185.313-18.998 33.136-38.128.15Zm37.276-65.018-36.689.146-18.278 31.881 18.41 31.736 36.689-.146 18.278-31.882-18.41-31.735Zm-93.457 32.808-18.958-32.671-.185-.313 18.998-33.137 38.129-.149 18.957 32.671.185.313-18.998 33.136-38.128.15Zm37.276-65.018-36.689.146-18.278 31.881 18.41 31.736 36.689-.146 18.278-31.882-18.41-31.735Zm524.675 451.997-18.957-32.675-.185-.314 18.998-33.136 38.128-.15 18.958 32.671.185.313-18.998 33.141-38.129.15Zm37.276-65.023-36.688.146-18.279 31.882 18.411 31.735 36.688-.15 18.279-31.877-18.411-31.736Zm-93.457 32.808-18.958-32.67-.184-.314 18.998-33.136 38.128-.15 18.958 32.671.184.313-18.998 33.137-38.128.149Zm37.276-65.018-36.689.146-18.278 31.882 18.411 31.735 36.688-.146 18.278-31.881-18.41-31.736Zm-149.639.598-18.957-32.67-.185-.314 18.998-33.136 38.129-.15 18.957 32.671.185.313-18.998 33.137-38.129.149Zm37.277-65.018-36.689.146-18.278 31.882 18.41 31.735 36.689-.146 18.278-31.881-18.41-31.736Zm-149.639.598-18.957-32.67-.185-.314 18.998-33.136 38.128-.15 18.958 32.671.185.313-18.998 33.137-38.129.149Zm37.276-65.018-36.688.146-18.279 31.882 18.41 31.735 36.69-.146 18.278-31.881-18.41-31.736ZM-3.58 808.975l-18.957-32.67-.185-.314 18.998-33.136 38.128-.15 18.958 32.671.184.313-18.998 33.137-38.128.149Zm37.276-65.018-36.688.146-18.279 31.882 18.41 31.735 36.69-.146 18.278-31.881-18.41-31.736Zm-93.457 32.808-18.958-32.67-.184-.314 18.998-33.136 38.128-.15 18.958 32.671.184.313-18.998 33.137-38.128.149Zm37.276-65.018-36.689.146-18.278 31.882 18.41 31.735 36.69-.146 18.277-31.881-18.41-31.736Zm-149.639.598-18.957-32.67-.185-.314 18.998-33.136 38.129-.15 18.957 32.671.185.313-18.998 33.137-38.129.149Zm37.277-65.018-36.689.146-18.278 31.882 18.41 31.735 36.689-.146 18.278-31.881-18.41-31.736Zm355.733 356.023-18.957-32.671-.185-.313 18.998-33.137 38.129-.149 18.957 32.671.185.313-18.998 33.136-38.129.15Zm37.272-65.011-36.688.146-18.279 31.882 18.411 31.733 36.688-.14 18.279-31.885-18.411-31.736Zm-149.634.591-18.957-32.671-.185-.313 18.998-33.137 38.128-.149 18.958 32.671.184.313-18.998 33.136-38.128.15Zm37.272-65.011-36.689.146-18.278 31.882 18.41 31.735 36.689-.146 18.278-31.881-18.41-31.736Zm-149.634.591-18.958-32.671-.185-.313 18.998-33.137 38.129-.149 18.957 32.671.185.313L34.29 874.36l-38.128.15Zm37.272-65.011-36.69.146-18.277 31.882 18.41 31.735 36.689-.146 18.278-31.881-18.41-31.736ZM-60.02 842.3l-18.957-32.671-.185-.313 18.998-33.137 38.129-.149 18.957 32.671.185.313-18.998 33.136-38.129.15Zm37.273-65.011-36.69.146-18.278 31.882 18.41 31.735 36.69-.146 18.278-31.881-18.41-31.736Zm-149.635.591-18.957-32.671-.185-.313 18.998-33.137 38.128-.149 18.958 32.671.185.313-18.998 33.136-38.129.15Zm37.272-65.011-36.689.146-18.278 31.882 18.411 31.735 36.688-.146 18.278-31.881-18.41-31.736Zm-93.453 32.801-18.957-32.671-.185-.313 18.998-33.137 38.128-.149 18.958 32.671.184.313-18.998 33.136-38.128.15Zm37.272-65.011-36.689.146-18.278 31.882 18.41 31.735 36.689-.146 18.278-31.881-18.41-31.736Zm-93.453 32.801-18.958-32.671-.184-.313 18.998-33.137 38.128-.149 18.957 32.671.185.313-18.998 33.137-38.128.149Zm37.272-65.011-36.689.146-18.278 31.882 18.41 31.735 36.689-.146 18.278-31.881-18.41-31.736Zm412.313 387.571-18.958-32.67-.185-.31 18.998-33.139 38.129-.149 18.957 32.668.185.32-18.998 33.13-38.128.15Zm37.276-65.016-36.689.146-18.278 31.88 18.41 31.74 36.689-.15 18.278-31.88-18.41-31.736Zm-93.458 32.806-18.957-32.669-.185-.313 18.998-33.137 38.129-.149 18.957 32.671.185.313-18.998 33.134-38.129.15Zm37.277-65.016-36.689.146-18.278 31.881 18.41 31.739 36.689-.15 18.278-31.881-18.41-31.735Zm-93.458 32.808-18.957-32.671-.185-.313 18.998-33.137 38.129-.149 18.957 32.671.185.313-18.998 33.136-38.129.15Zm37.276-65.018-36.688.146-18.278 31.881 18.41 31.735 36.689-.145 18.278-31.882-18.41-31.735Zm-93.457 32.808-18.957-32.671-.185-.313 18.998-33.137 38.128-.149 18.958 32.671.185.313-18.998 33.136-38.129.15Zm37.276-65.018-36.688.146-18.279 31.881 18.41 31.735 36.69-.145 18.278-31.882-18.41-31.735Zm-93.457 32.808-18.957-32.671-.185-.313 18.998-33.137 38.128-.149 18.958 32.671.184.313-18.998 33.136-38.128.15Zm37.276-65.018-36.689.146-18.278 31.881 18.41 31.735 36.69-.145 18.278-31.882-18.41-31.735Zm-93.457 32.808-18.958-32.671-.184-.313 18.998-33.137 38.128-.149 18.958 32.671.184.313-18.998 33.136-38.128.15Zm37.276-65.018-36.689.146-18.278 31.881 18.41 31.735 36.69-.145 18.277-31.882-18.41-31.735Zm299.552 323.816-18.957-32.67-.185-.32 18.998-33.13 38.129-.15 18.957 32.67.185.31-18.998 33.14-38.129.15Zm37.272-65.01-36.688.14-18.279 31.88 18.411 31.74 36.688-.15 18.279-31.88-18.411-31.73Zm-93.453 32.8-18.957-32.67-.185-.32 18.998-33.13 38.129-.15 18.957 32.67.185.31-18.998 33.14-38.129.15Zm37.272-65.01-36.688.14-18.279 31.88 18.411 31.74 36.688-.15 18.279-31.88-18.411-31.73Zm-93.453 32.8-18.957-32.67-.185-.32 18.998-33.13 38.128-.15 18.958 32.67.185.31-18.998 33.14-38.129.15Zm37.272-65.01-36.689.14-18.278 31.88 18.41 31.74 36.689-.15 18.278-31.88-18.41-31.73Zm-149.634.59-18.958-32.674-.184-.314 18.997-33.136 38.129-.15 18.957 32.671.185.313-18.998 33.14-38.128.15Zm37.272-65.014-36.689.146-18.278 31.881 18.41 31.737 36.689-.15 18.278-31.879-18.41-31.735Zm-149.635.59-18.957-32.67-.185-.314 18.998-33.136 38.129-.15 18.957 32.671.185.313-18.998 33.137-38.129.149Zm37.272-65.01-36.688.146-18.279 31.881 18.411 31.735 36.689-.145 18.278-31.882-18.41-31.735Zm-93.453 32.8-18.957-32.67-.185-.314 18.998-33.136 38.128-.15 18.958 32.671.185.313-18.998 33.137-38.129.149Zm37.272-65.01-36.688.146-18.279 31.881 18.411 31.735 36.688-.145 18.279-31.882-18.411-31.735Zm-93.453 32.8-18.957-32.67-.185-.314 18.998-33.136 38.128-.15 18.958 32.671.185.313-18.998 33.137-38.129.149Zm37.272-65.01-36.689.146-18.278 31.881 18.41 31.735 36.689-.145 18.278-31.882-18.41-31.735Zm412.317 387.564-18.957-32.67-.185-.31 18.998-33.14 38.128-.15 18.958 32.67.185.31-18.998 33.14-38.129.15Zm37.272-65.01-36.689.15-18.278 31.88 18.411 31.73 36.688-.14 18.278-31.88-18.41-31.74Zm-93.453 32.8-18.957-32.67-.185-.31 18.998-33.14 38.128-.15 18.958 32.67.184.31-18.998 33.14-38.128.15Zm37.272-65.01-36.689.15-18.278 31.88 18.41 31.73 36.689-.14 18.278-31.88-18.41-31.74Zm-93.453 32.8-18.958-32.67-.184-.31 18.998-33.14 38.128-.15 18.957 32.67.185.31-18.998 33.14-38.128.15Zm37.272-65.01-36.689.15-18.278 31.88 18.41 31.73 36.689-.14 18.278-31.88-18.41-31.74Zm-93.453 32.8-18.958-32.67-.185-.31 18.998-33.14 38.129-.15 18.957 32.67.185.31-18.998 33.14-38.128.15ZM89.632 1037l-36.69.15-18.277 31.88 18.41 31.73 36.689-.14 18.278-31.88-18.41-31.74Zm-93.454 32.8-18.957-32.67-.185-.31 18.998-33.14 38.129-.15 18.957 32.67.185.31-18.998 33.14-38.129.15Zm37.272-65.01-36.688.15-18.279 31.88 18.41 31.73 36.69-.14 18.278-31.88-18.41-31.74Zm-149.634.59-18.957-32.67-.185-.313 18.998-33.137 38.128-.149 18.958 32.671.185.313-18.998 33.135-38.129.15Zm37.272-65.01-36.689.146-18.278 31.882 18.41 31.732 36.69-.14 18.277-31.884-18.41-31.736Zm-93.453 32.801-18.958-32.671-.184-.313 18.998-33.137 38.128-.149 18.958 32.671.184.313-18.998 33.137-38.128.149Zm37.272-65.011-36.689.146-18.278 31.882 18.41 31.735 36.689-.146 18.278-31.881-18.41-31.736Zm-93.453 32.801-18.958-32.671-.184-.313 18.998-33.137 38.128-.149 18.957 32.671.185.313-18.998 33.136-38.128.15Zm37.272-65.011-36.689.146-18.278 31.882 18.41 31.735 36.689-.146 18.278-31.881-18.41-31.736Zm-93.453 32.801-18.958-32.671-.185-.313 18.998-33.137 38.129-.149 18.957 32.671.185.313-18.998 33.137-38.128.149Zm37.272-65.011-36.689.146-18.278 31.882 18.41 31.735 36.689-.146 18.278-31.881-18.41-31.736Zm-93.446 32.805-18.958-32.671-.184-.313 18.998-33.137 38.128-.149 18.957 32.671.185.313-18.998 33.137-38.128.149Zm37.272-65.01-36.689.146-18.278 31.881 18.41 31.735 36.689-.146 18.278-31.881-18.41-31.735Zm468.088 420.435-18.957-32.67-.185-.31 18.998-33.14 38.129-.15 18.957 32.67.185.32-18.998 33.13-38.129.15Zm37.272-65.01-36.688.15-18.279 31.88 18.411 31.73 36.688-.14 18.279-31.88-18.411-31.74Zm-93.453 32.8-18.957-32.67-.185-.31 18.998-33.14 38.128-.15 18.958 32.67.185.32-18.998 33.13-38.129.15Zm37.272-65.01-36.689.15-18.278 31.88 18.411 31.73 36.688-.14 18.278-31.88-18.41-31.74Zm-149.634.59-18.958-32.67-.184-.31 18.998-33.14 38.128-.15 18.957 32.67.185.32-18.998 33.13-38.128.15Zm37.272-65.01-36.689.15-18.278 31.88 18.41 31.73 36.689-.14 18.278-31.88-18.41-31.74Zm-93.453 32.8-18.958-32.67-.185-.31 18.998-33.14 38.129-.15 18.957 32.67.185.32-18.998 33.13-38.128.15Zm37.272-65.01-36.69.15-18.277 31.88 18.41 31.73 36.689-.14 18.278-31.88-18.41-31.74Zm-93.454 32.8-18.957-32.67-.185-.31 18.998-33.14 38.129-.15 18.957 32.67.185.32-18.998 33.13-38.129.15Zm37.272-65.01-36.688.15-18.279 31.88 18.411 31.73 36.688-.14 18.279-31.88-18.41-31.74Zm-149.634.59-18.957-32.668-.185-.313 18.998-33.137 38.128-.149 18.958 32.671.185.313-18.998 33.133-38.129.15Zm37.272-65.008-36.689.146-18.278 31.882 18.41 31.73 36.689-.14 18.278-31.882-18.41-31.736Zm-93.453 32.801-18.958-32.671-.184-.313 18.998-33.137 38.128-.149 18.958 32.671.184.313-18.998 33.136-38.128.15Zm37.272-65.011-36.689.146-18.278 31.882 18.41 31.735 36.689-.146 18.278-31.881-18.41-31.736Zm-93.453 32.801-18.958-32.671-.184-.313 18.998-33.137 38.128-.149 18.957 32.671.185.313-18.998 33.136-38.128.15Zm37.272-65.011-36.689.146-18.278 31.882 18.41 31.735 36.689-.146 18.278-31.881-18.41-31.736Zm-93.453 32.801-18.958-32.671-.185-.313 18.998-33.137 38.129-.149 18.957 32.671.185.313-18.998 33.136-38.128.15Zm37.272-65.011-36.689.146-18.278 31.882 18.41 31.735 36.689-.146 18.278-31.881-18.41-31.736Zm524.679 451.988-18.957-32.67-.185-.32 18.998-33.13 38.128-.15 18.958 32.67.184.31-18.998 33.14-38.128.15Zm37.272-65.01-36.689.14-18.278 31.88 18.41 31.74 36.689-.15 18.278-31.88-18.41-31.73Zm-93.453 32.8-18.958-32.67-.184-.32 18.998-33.13 38.128-.15 18.958 32.67.184.31-18.998 33.14-38.128.15Zm37.272-65.01-36.689.14-18.278 31.88 18.41 31.74 36.689-.15 18.278-31.88-18.41-31.73Zm-93.453 32.8-18.958-32.67-.185-.32 18.998-33.13 38.129-.15 18.957 32.67.185.31-18.998 33.14-38.128.15Zm37.272-65.01-36.689.14-18.278 31.88 18.41 31.74 36.689-.15 18.278-31.88-18.41-31.73Zm-149.635.59-18.957-32.67-.185-.32 18.998-33.13 38.129-.15 18.957 32.67.185.31-18.998 33.14-38.129.15Zm37.272-65.01-36.688.14-18.279 31.88 18.41 31.74 36.69-.15 18.278-31.88-18.41-31.73Zm-93.453 32.8-18.957-32.67-.185-.32 18.998-33.13 38.128-.15 18.958 32.67.185.31-18.998 33.14-38.129.15Zm37.272-65.01-36.689.14-18.278 31.88 18.411 31.74 36.688-.15 18.279-31.88-18.41-31.73Zm-93.453 32.8-18.957-32.67-.185-.32 18.998-33.13 38.128-.15 18.958 32.67.184.31-18.998 33.14-38.128.15Zm37.272-65.01-36.689.14-18.278 31.88 18.41 31.74 36.689-.15 18.278-31.88-18.41-31.73Zm-93.453 32.8-18.958-32.67-.184-.32 18.998-33.13 38.128-.15 18.957 32.67.185.31-18.998 33.14-38.128.15Zm37.272-65.01-36.689.14-18.278 31.88 18.41 31.74 36.689-.15 18.278-31.88-18.41-31.73Zm-149.635.59-18.957-32.673-.185-.314 18.998-33.136 38.129-.15 18.957 32.671.185.313-18.998 33.139-38.129.15Zm37.272-65.013-36.688.146-18.279 31.881 18.411 31.736 36.689-.15 18.278-31.878-18.411-31.735Zm-93.445 32.805-18.958-32.671-.185-.313 18.998-33.137 38.129-.149 18.957 32.67.185.314-18.998 33.136-38.128.15Zm37.272-65.011-36.689.146-18.278 31.881 18.41 31.736 36.689-.146 18.278-31.881-18.41-31.736Zm468.088 420.439-18.957-32.67-.185-.31 18.998-33.14 38.128-.15 18.958 32.67.185.31-18.998 33.14-38.129.15Zm37.276-65.02-36.688.15-18.278 31.88 18.41 31.73 36.689-.14 18.278-31.88-18.411-31.74Zm-93.457 32.81-18.957-32.67-.185-.31 18.998-33.14 38.128-.15 18.958 32.67.185.31-18.998 33.14-38.129.15Zm37.276-65.02-36.688.15-18.279 31.88 18.41 31.73 36.69-.14 18.278-31.88-18.41-31.74Zm-93.457 32.81-18.958-32.67-.184-.31 18.998-33.14 38.128-.15 18.957 32.67.185.31-18.998 33.14-38.128.15Zm37.276-65.02-36.689.15-18.278 31.88 18.41 31.73 36.69-.14 18.278-31.88-18.41-31.74Zm-149.639.6-18.957-32.67-.185-.31 18.998-33.14 38.129-.15 18.957 32.67.185.31-18.998 33.14-38.129.15Zm37.277-65.02-36.689.15-18.278 31.88 18.41 31.73 36.689-.14 18.278-31.88-18.41-31.74Zm-93.458 32.81-18.957-32.67-.185-.31 18.998-33.14 38.129-.15 18.957 32.67.185.31-18.998 33.14-38.129.15Zm37.277-65.02-36.689.15-18.278 31.88 18.41 31.73 36.689-.14 18.278-31.88-18.41-31.74Zm-93.458 32.81-18.957-32.67-.185-.31 18.998-33.14 38.128-.15 18.958 32.67.185.31-18.998 33.14-38.129.15Zm37.276-65.02-36.688.15-18.279 31.88 18.411 31.73 36.689-.14 18.278-31.88-18.411-31.74Zm-149.638.6-18.958-32.67-.184-.31 18.998-33.14 38.128-.15 18.957 32.67.185.31-18.998 33.14-38.128.15Zm37.276-65.02-36.689.15-18.278 31.88 18.41 31.73 36.689-.14 18.278-31.88-18.41-31.74Zm-93.457 32.81-18.958-32.67-.185-.31 18.998-33.141 38.129-.15 18.957 32.671.185.31-18.998 33.14-38.128.15Zm37.276-65.019-36.689.146-18.278 31.883 18.41 31.73 36.689-.14 18.278-31.88-18.41-31.739Zm-93.458 32.809-18.957-32.671-.185-.314 18.998-33.136 38.129-.15 18.957 32.671.185.313-18.998 33.137-38.129.15Zm37.277-65.019-36.689.146-18.278 31.882 18.41 31.731 36.689-.14 18.278-31.883-18.41-31.736Zm524.675 451.989-18.957-32.67-.185-.31 18.998-33.14 38.128-.15 18.958 32.67.184.32-18.998 33.13-38.128.15Zm37.276-65.01-36.689.14-18.278 31.88 18.411 31.74 36.688-.15 18.279-31.88-18.411-31.73Zm-149.638.59-18.958-32.67-.185-.31 18.998-33.14 38.129-.15 18.957 32.67.185.32-18.998 33.13-38.128.15Zm37.276-65.01-36.689.14-18.278 31.88 18.41 31.74 36.689-.15 18.278-31.88-18.41-31.73Zm-93.458 32.8-18.957-32.67-.185-.31 18.998-33.14 38.129-.15 18.957 32.67.185.32-18.998 33.13-38.129.15Zm37.277-65.01-36.689.14-18.278 31.88 18.41 31.74 36.689-.15 18.278-31.88-18.41-31.73Zm-149.639.59-18.957-32.67-.185-.31 18.998-33.14 38.128-.15 18.958 32.67.185.32-18.998 33.13-38.129.15Zm37.276-65.01-36.688.14-18.279 31.88 18.411 31.74 36.688-.15 18.279-31.88-18.411-31.73Zm-149.638.59-18.958-32.67-.185-.31 18.998-33.14 38.129-.15 18.957 32.67.185.32-18.998 33.13-38.128.15Zm37.276-65.01-36.689.14-18.278 31.88 18.41 31.74 36.689-.15 18.278-31.88-18.41-31.73Zm-93.458 32.8-18.957-32.67-.185-.31 18.998-33.14 38.129-.15 18.957 32.67.185.32-18.998 33.13-38.129.15Zm37.277-65.01-36.689.14-18.278 31.88 18.41 31.74 36.689-.15 18.278-31.88-18.41-31.73Zm-93.458 32.8-18.957-32.67-.185-.31 18.998-33.14 38.129-.15 18.957 32.67.185.32-18.998 33.13-38.129.15Zm37.277-65.01-36.689.14-18.278 31.88 18.41 31.74 36.689-.15 18.278-31.88-18.41-31.73Zm-93.45 32.81-18.958-32.67-.185-.32 18.998-33.13 38.129-.15 18.957 32.67.185.31-18.998 33.14-38.128.15Zm37.276-65.02-36.689.15-18.278 31.88 18.41 31.73 36.689-.14 18.278-31.88-18.41-31.74Z"/>
    <path fill="url(#c)" d="M0 407h1440v277H0z"/>
    <g filter="url(#d)">
      <circle cx="-21.5" cy="319.5" r="87.5" fill="url(#e)" transform="rotate(-90 -21.5 319.5)"/>
    </g>
  </g>
  <defs>
    <linearGradient id="b" x1="-280.217" x2="366.964" y1="639.191" y2="1010.23" gradientUnits="userSpaceOnUse">
      <stop stop-color="#1BA068"/>
      <stop offset="1" stop-color="#A6D05D"/>
    </linearGradient>
    <linearGradient id="c" x1="371.5" x2="371.5" y1="542.665" y2="684" gradientUnits="userSpaceOnUse">
      <stop stop-color="#075F55" stop-opacity="0"/>
      <stop offset="1" stop-color="#075F55"/>
    </linearGradient>
    <linearGradient id="e" x1="-21.5" x2="-21.5" y1="232" y2="407" gradientUnits="userSpaceOnUse">
      <stop stop-color="#1BA068"/>
      <stop offset="1" stop-color="#A6D05D"/>
    </linearGradient>
    <clipPath id="a">
      <path fill="#fff" d="M0 0h1440v680H0z"/>
    </clipPath>
    <filter id="d" width="335" height="335" x="-189" y="152" color-interpolation-filters="sRGB" filterUnits="userSpaceOnUse">
      <feFlood flood-opacity="0" result="BackgroundImageFix"/>
      <feBlend in="SourceGraphic" in2="BackgroundImageFix" result="shape"/>
      <feGaussianBlur result="effect1_foregroundBlur_3728_4845" stdDeviation="40"/>
    </filter>
  </defs>
</svg>
