<svg width="1063" height="859" viewBox="0 0 1063 859" fill="none" xmlns="http://www.w3.org/2000/svg">
<path d="M974.591 783.363L996.313 745.731L996.52 745.367H1040.39L1062.31 783.353L1040.59 820.985L1040.39 821.349H996.52L974.591 783.363ZM1060.65 783.363L1039.55 746.812H997.346L976.243 783.363L997.346 819.913H1039.55L1060.65 783.363ZM974.591 485.216L996.313 447.584L996.52 447.22H1040.39L1062.31 485.206L1040.59 522.838L1040.39 523.202H996.52L974.591 485.216ZM1060.65 485.216L1039.55 448.666H997.346L976.243 485.216L997.346 521.766H1039.55L1060.65 485.216ZM974.591 187.069L996.313 149.437L996.52 149.073H1040.39L1062.31 187.059L1040.59 224.692L1040.39 225.056H996.52L974.591 187.069ZM1060.65 187.069L1039.55 150.519H997.346L976.243 187.069L997.346 223.62H1039.55L1060.65 187.069ZM910.036 820.641L931.757 783.009L931.964 782.645H975.83L997.759 820.631L976.037 858.263L975.83 858.627H931.964L910.036 820.641ZM996.097 820.641L974.995 784.09H932.79L911.688 820.641L932.79 857.191H974.995L996.097 820.641ZM910.036 746.104L931.757 708.472L931.964 708.108H975.83L997.759 746.094L976.037 783.727L975.83 784.09H931.964L910.036 746.104ZM996.097 746.104L974.995 709.554H932.79L911.688 746.104L932.79 782.655H974.995L996.097 746.104ZM910.036 597.031L931.757 559.399L931.964 559.035H975.83L997.759 597.021L976.037 634.653L975.83 635.017H931.964L910.036 597.031ZM996.097 597.031L974.995 560.48H932.79L911.688 597.031L932.79 633.581H974.995L996.097 597.031ZM910.036 447.957L931.757 410.325L931.964 409.962H975.83L997.759 447.948L976.037 485.58L975.83 485.944H931.964L910.036 447.957ZM996.097 447.957L974.995 411.407H932.79L911.688 447.957L932.79 484.508H974.995L996.097 447.957ZM910.036 298.884L931.757 261.252L931.964 260.888H975.83L997.759 298.874L976.037 336.507L975.83 336.87H931.964L910.036 298.884ZM996.097 298.884L974.995 262.334H932.79L911.688 298.884L932.79 335.435H974.995L996.097 298.884ZM910.036 149.811L931.757 112.179L931.964 111.815H975.83L997.759 149.801L976.037 187.433L975.83 187.797H931.964L910.036 149.811ZM996.097 149.811L974.995 113.26H932.79L911.688 149.811L932.79 186.361H974.995L996.097 149.811ZM844.585 708.826L866.307 671.194L866.513 670.83H910.38L932.308 708.816L910.586 746.448L910.38 746.812H866.513L844.585 708.826ZM930.656 708.826L909.554 672.276H867.349L846.247 708.826L867.349 745.377H909.554L930.656 708.826ZM844.585 559.753L866.307 522.121L866.513 521.757H910.38L932.308 559.743L910.586 597.375L910.38 597.739H866.513L844.585 559.753ZM930.656 559.753L909.554 523.202H867.349L846.247 559.753L867.349 596.303H909.554L930.656 559.753ZM844.585 485.216L866.307 447.584L866.513 447.22H910.38L932.308 485.206L910.586 522.838L910.38 523.202H866.513L844.585 485.216ZM930.656 485.216L909.554 448.666H867.349L846.247 485.216L867.349 521.766H909.554L930.656 485.216ZM844.585 410.679L866.307 373.047L866.513 372.683H910.38L932.308 410.67L910.586 448.302L910.38 448.666H866.513L844.585 410.679ZM930.656 410.679L909.554 374.129H867.349L846.247 410.679L867.349 447.23H909.554L930.656 410.679ZM844.585 261.606L866.307 223.974L866.513 223.61H910.38L932.308 261.596L910.586 299.228L910.38 299.592H866.513L844.585 261.606ZM930.656 261.606L909.554 225.056H867.349L846.247 261.606L867.349 298.157H909.554L930.656 261.606ZM844.585 112.533L866.307 74.9005L866.513 74.5367H910.38L932.308 112.523L910.586 150.155L910.38 150.519H866.513L844.585 112.533ZM930.656 112.533L909.554 75.9822H867.349L846.247 112.533L867.349 149.083H909.554L930.656 112.533ZM780.029 746.104L801.751 708.472L801.957 708.108H845.824L867.752 746.094L846.03 783.727L845.824 784.09H801.957L780.029 746.104ZM866.1 746.104L844.998 709.554H802.793L781.691 746.104L802.793 782.655H844.998L866.1 746.104ZM780.029 597.031L801.751 559.399L801.957 559.035H845.824L867.752 597.021L846.03 634.653L845.824 635.017H801.957L780.029 597.031ZM866.1 597.031L844.998 560.48H802.793L781.691 597.031L802.793 633.581H844.998L866.1 597.031ZM780.029 447.957L801.751 410.325L801.957 409.962H845.824L867.752 447.948L846.03 485.58L845.824 485.944H801.957L780.029 447.957ZM866.1 447.957L844.998 411.407H802.793L781.691 447.957L802.793 484.508H844.998L866.1 447.957ZM780.029 224.348L801.751 186.715L801.957 186.352H845.824L867.752 224.338L846.03 261.97L845.824 262.334H801.957L780.029 224.348ZM866.1 224.348L844.998 187.797H802.793L781.691 224.348L802.793 260.898H844.998L866.1 224.348ZM780.029 149.811L801.751 112.179L801.957 111.815H845.824L867.752 149.801L846.03 187.433L845.824 187.797H801.957L780.029 149.811ZM866.1 149.811L844.998 113.26H802.793L781.691 149.811L802.793 186.361H844.998L866.1 149.811ZM780.029 75.284L801.751 37.6518L801.957 37.288H845.824L867.752 75.2742L846.03 112.906L845.824 113.27H801.957L780.029 75.284ZM866.1 75.284L844.998 38.7335H802.793L781.691 75.284L802.793 111.834H844.998L866.1 75.284ZM714.578 783.363L736.3 745.731L736.507 745.367H780.373L802.302 783.353L780.58 820.985L780.373 821.349H736.507L714.578 783.363ZM800.65 783.363L779.547 746.812H737.343L716.24 783.363L737.343 819.913H779.547L800.65 783.363ZM714.578 559.753L736.3 522.121L736.507 521.757H780.373L802.302 559.743L780.58 597.375L780.373 597.739H736.507L714.578 559.753ZM800.65 559.753L779.547 523.202H737.343L716.24 559.753L737.343 596.303H779.547L800.65 559.753ZM714.578 485.216L736.3 447.584L736.507 447.22H780.373L802.302 485.206L780.58 522.838L780.373 523.202H736.507L714.578 485.216ZM800.65 485.216L779.547 448.666H737.343L716.24 485.216L737.343 521.766H779.547L800.65 485.216ZM714.578 410.679L736.3 373.047L736.507 372.683H780.373L802.302 410.67L780.58 448.302L780.373 448.666H736.507L714.578 410.679ZM800.65 410.679L779.547 374.129H737.343L716.24 410.679L737.343 447.23H779.547L800.65 410.679ZM714.578 261.606L736.3 223.974L736.507 223.61H780.373L802.302 261.596L780.58 299.228L780.373 299.592H736.507L714.578 261.606ZM800.65 261.606L779.547 225.056H737.343L716.24 261.606L737.343 298.157H779.547L800.65 261.606ZM714.578 187.069L736.3 149.437L736.507 149.073H780.373L802.302 187.059L780.58 224.692L780.373 225.056H736.507L714.578 187.069ZM800.65 187.069L779.547 150.519H737.343L716.24 187.069L737.343 223.62H779.547L800.65 187.069ZM714.578 112.533L736.3 74.9005L736.507 74.5367H780.373L802.302 112.523L780.58 150.155L780.373 150.519H736.507L714.578 112.533ZM800.65 112.533L779.547 75.9822H737.343L716.24 112.533L737.343 149.083H779.547L800.65 112.533ZM650.023 671.568L671.744 633.935L671.951 633.572H715.817L737.746 671.558L716.024 709.19L715.817 709.554H671.951L650.023 671.568ZM736.094 671.568L714.991 635.017H672.787L651.684 671.568L672.787 708.118H714.991L736.094 671.568ZM650.023 597.031L671.744 559.399L671.951 559.035H715.817L737.746 597.021L716.024 634.653L715.817 635.017H671.951L650.023 597.031ZM736.094 597.031L714.991 560.48H672.787L651.684 597.031L672.787 633.581H714.991L736.094 597.031ZM650.023 522.494L671.744 484.862L671.951 484.498H715.817L737.746 522.484L716.024 560.117L715.817 560.48H671.951L650.023 522.494ZM736.094 522.494L714.991 485.944H672.787L651.684 522.494L672.787 559.045H714.991L736.094 522.494ZM650.023 447.957L671.744 410.325L671.951 409.962H715.817L737.746 447.948L716.024 485.58L715.817 485.944H671.951L650.023 447.957ZM736.094 447.957L714.991 411.407H672.787L651.684 447.957L672.787 484.508H714.991L736.094 447.957ZM650.023 298.884L671.744 261.252L671.951 260.888H715.817L737.746 298.874L716.024 336.507L715.817 336.87H671.951L650.023 298.884ZM736.094 298.884L714.991 262.334H672.787L651.684 298.884L672.787 335.435H714.991L736.094 298.884ZM650.023 224.348L671.744 186.715L671.951 186.352H715.817L737.746 224.338L716.024 261.97L715.817 262.334H671.951L650.023 224.348ZM736.094 224.348L714.991 187.797H672.787L651.684 224.348L672.787 260.898H714.991L736.094 224.348ZM584.572 783.363L606.294 745.731L606.5 745.367H650.367L672.295 783.353L650.573 820.985L650.367 821.349H606.5L584.572 783.363ZM670.643 783.363L649.541 746.812H607.336L586.234 783.363L607.336 819.913H649.541L670.643 783.363ZM584.572 708.826L606.294 671.194L606.5 670.83H650.367L672.295 708.816L650.573 746.448L650.367 746.812H606.5L584.572 708.826ZM670.643 708.826L649.541 672.276H607.336L586.234 708.826L607.336 745.377H649.541L670.643 708.826ZM584.572 634.289L606.294 596.657L606.5 596.293H650.367L672.295 634.28L650.573 671.912L650.367 672.276H606.5L584.572 634.289ZM670.643 634.289L649.541 597.739H607.336L586.234 634.289L607.336 670.84H649.541L670.643 634.289ZM584.572 559.753L606.294 522.121L606.5 521.757H650.367L672.295 559.743L650.573 597.375L650.367 597.739H606.5L584.572 559.753ZM670.643 559.753L649.541 523.202H607.336L586.234 559.753L607.336 596.303H649.541L670.643 559.753ZM584.572 336.143L606.294 298.51L606.5 298.147H650.367L672.295 336.133L650.573 373.765L650.367 374.129H606.5L584.572 336.143ZM670.643 336.143L649.541 299.592H607.336L586.234 336.143L607.336 372.693H649.541L670.643 336.143ZM584.572 261.606L606.294 223.974L606.5 223.61H650.367L672.295 261.596L650.573 299.228L650.367 299.592H606.5L584.572 261.606ZM670.643 261.606L649.541 225.056H607.336L586.234 261.606L607.336 298.157H649.541L670.643 261.606ZM584.572 187.069L606.294 149.437L606.5 149.073H650.367L672.295 187.059L650.573 224.692L650.367 225.056H606.5L584.572 187.069ZM670.643 187.069L649.541 150.519H607.336L586.234 187.069L607.336 223.62H649.541L670.643 187.069ZM584.572 112.533L606.294 74.9005L606.5 74.5367H650.367L672.295 112.523L650.573 150.155L650.367 150.519H606.5L584.572 112.533ZM670.643 112.533L649.541 75.9822H607.336L586.234 112.533L607.336 149.083H649.541L670.643 112.533ZM584.572 37.996L606.294 0.363829L606.5 0H650.367L672.295 37.9862L650.573 75.6183L650.367 75.9822H606.5L584.572 37.996ZM670.643 37.996L649.541 1.44549H607.336L586.234 37.996L607.336 74.5465H649.541L670.643 37.996ZM520.016 820.641L541.738 783.009L541.944 782.645H585.811L607.739 820.631L586.017 858.263L585.811 858.627H541.944L520.016 820.641ZM606.087 820.641L584.985 784.09H542.78L521.678 820.641L542.78 857.191H584.985L606.087 820.641ZM520.016 746.104L541.738 708.472L541.944 708.108H585.811L607.739 746.094L586.017 783.727L585.811 784.09H541.944L520.016 746.104ZM606.087 746.104L584.985 709.554H542.78L521.678 746.104L542.78 782.655H584.985L606.087 746.104ZM520.016 597.031L541.738 559.399L541.944 559.035H585.811L607.739 597.021L586.017 634.653L585.811 635.017H541.944L520.016 597.031ZM606.087 597.031L584.985 560.48H542.78L521.678 597.031L542.78 633.581H584.985L606.087 597.031ZM520.016 447.957L541.738 410.325L541.944 409.962H585.811L607.739 447.948L586.017 485.58L585.811 485.944H541.944L520.016 447.957ZM606.087 447.957L584.985 411.407H542.78L521.678 447.957L542.78 484.508H584.985L606.087 447.957ZM520.016 373.421L541.738 335.789L541.944 335.425H585.811L607.739 373.411L586.017 411.043L585.811 411.407H541.944L520.016 373.421ZM606.087 373.421L584.985 336.87H542.78L521.678 373.421L542.78 409.971H584.985L606.087 373.421ZM520.016 298.884L541.738 261.252L541.944 260.888H585.811L607.739 298.874L586.017 336.507L585.811 336.87H541.944L520.016 298.884ZM606.087 298.884L584.985 262.334H542.78L521.678 298.884L542.78 335.435H584.985L606.087 298.884ZM520.016 149.811L541.738 112.179L541.944 111.815H585.811L607.739 149.801L586.017 187.433L585.811 187.797H541.944L520.016 149.811ZM606.087 149.811L584.985 113.26H542.78L521.678 149.811L542.78 186.361H584.985L606.087 149.811ZM454.575 708.826L476.297 671.194L476.504 670.83H520.37L542.298 708.816L520.577 746.448L520.37 746.812H476.504L454.575 708.826ZM540.637 708.826L519.534 672.276H477.33L456.227 708.826L477.33 745.377H519.534L540.637 708.826ZM454.575 559.753L476.297 522.121L476.504 521.757H520.37L542.298 559.743L520.577 597.375L520.37 597.739H476.504L454.575 559.753ZM540.637 559.753L519.534 523.202H477.33L456.227 559.753L477.33 596.303H519.534L540.637 559.753ZM454.575 410.679L476.297 373.047L476.504 372.683H520.37L542.298 410.67L520.577 448.302L520.37 448.666H476.504L454.575 410.679ZM540.637 410.679L519.534 374.129H477.33L456.227 410.679L477.33 447.23H519.534L540.637 410.679ZM454.575 336.143L476.297 298.51L476.504 298.147H520.37L542.298 336.133L520.577 373.765L520.37 374.129H476.504L454.575 336.143ZM540.637 336.143L519.534 299.592H477.33L456.227 336.143L477.33 372.693H519.534L540.637 336.143ZM454.575 187.069L476.297 149.437L476.504 149.073H520.37L542.298 187.059L520.577 224.692L520.37 225.056H476.504L454.575 187.069ZM540.637 187.069L519.534 150.519H477.33L456.227 187.069L477.33 223.62H519.534L540.637 187.069ZM454.575 112.533L476.297 74.9005L476.504 74.5367H520.37L542.298 112.523L520.577 150.155L520.37 150.519H476.504L454.575 112.533ZM540.637 112.533L519.534 75.9822H477.33L456.227 112.533L477.33 149.083H519.534L540.637 112.533ZM454.575 37.996L476.297 0.363829L476.504 0H520.37L542.298 37.9862L520.577 75.6183L520.37 75.9822H476.504L454.575 37.996ZM540.637 37.996L519.534 1.44549H477.33L456.227 37.996L477.33 74.5465H519.534L540.637 37.996ZM390.01 671.568L411.732 633.935L411.938 633.572H455.804L477.733 671.558L456.011 709.19L455.804 709.554H411.938L390.01 671.568ZM476.081 671.568L454.978 635.017H412.774L391.671 671.568L412.774 708.118H454.978L476.081 671.568ZM390.01 597.031L411.732 559.399L411.938 559.035H455.804L477.733 597.021L456.011 634.653L455.804 635.017H411.938L390.01 597.031ZM476.081 597.031L454.978 560.48H412.774L391.671 597.031L412.774 633.581H454.978L476.081 597.031ZM390.01 522.494L411.732 484.862L411.938 484.498H455.804L477.733 522.484L456.011 560.117L455.804 560.48H411.938L390.01 522.494ZM476.081 522.494L454.978 485.944H412.774L391.671 522.494L412.774 559.045H454.978L476.081 522.494ZM390.01 447.957L411.732 410.325L411.938 409.962H455.804L477.733 447.948L456.011 485.58L455.804 485.944H411.938L390.01 447.957ZM476.081 447.957L454.978 411.407H412.774L391.671 447.957L412.774 484.508H454.978L476.081 447.957ZM390.01 373.421L411.732 335.789L411.938 335.425H455.804L477.733 373.411L456.011 411.043L455.804 411.407H411.938L390.01 373.421ZM476.081 373.421L454.978 336.87H412.774L391.671 373.421L412.774 409.971H454.978L476.081 373.421ZM390.01 298.884L411.732 261.252L411.938 260.888H455.804L477.733 298.874L456.011 336.507L455.804 336.87H411.938L390.01 298.884ZM476.081 298.884L454.978 262.334H412.774L391.671 298.884L412.774 335.435H454.978L476.081 298.884ZM324.569 783.363L346.291 745.731L346.497 745.367H390.364L412.292 783.353L390.57 820.985L390.364 821.349H346.497L324.569 783.363ZM410.63 783.363L389.528 746.812H347.323L326.221 783.363L347.323 819.913H389.528L410.63 783.363ZM324.569 708.826L346.291 671.194L346.497 670.83H390.364L412.292 708.816L390.57 746.448L390.364 746.812H346.497L324.569 708.826ZM410.63 708.826L389.528 672.276H347.323L326.221 708.826L347.323 745.377H389.528L410.63 708.826ZM324.569 634.289L346.291 596.657L346.497 596.293H390.364L412.292 634.28L390.57 671.912L390.364 672.276H346.497L324.569 634.289ZM410.63 634.289L389.528 597.739H347.323L326.221 634.289L347.323 670.84H389.528L410.63 634.289ZM324.569 485.216L346.291 447.584L346.497 447.22H390.364L412.292 485.206L390.57 522.838L390.364 523.202H346.497L324.569 485.216ZM410.63 485.216L389.528 448.666H347.323L326.221 485.216L347.323 521.766H389.528L410.63 485.216ZM324.569 336.143L346.291 298.51L346.497 298.147H390.364L412.292 336.133L390.57 373.765L390.364 374.129H346.497L324.569 336.143ZM410.63 336.143L389.528 299.592H347.323L326.221 336.143L347.323 372.693H389.528L410.63 336.143ZM324.569 261.606L346.291 223.974L346.497 223.61H390.364L412.292 261.596L390.57 299.228L390.364 299.592H346.497L324.569 261.606ZM410.63 261.606L389.528 225.056H347.323L326.221 261.606L347.323 298.157H389.528L410.63 261.606ZM324.569 187.069L346.291 149.437L346.497 149.073H390.364L412.292 187.059L390.57 224.692L390.364 225.056H346.497L324.569 187.069ZM410.63 187.069L389.528 150.519H347.323L326.221 187.069L347.323 223.62H389.528L410.63 187.069ZM260.013 820.641L281.735 783.009L281.941 782.645H325.808L347.736 820.631L326.014 858.263L325.808 858.627H281.941L260.013 820.641ZM346.074 820.641L324.972 784.09H282.767L261.665 820.641L282.767 857.191H324.972L346.074 820.641ZM260.013 746.104L281.735 708.472L281.941 708.108H325.808L347.736 746.094L326.014 783.727L325.808 784.09H281.941L260.013 746.104ZM346.074 746.104L324.972 709.554H282.767L261.665 746.104L282.767 782.655H324.972L346.074 746.104ZM260.013 671.568L281.735 633.935L281.941 633.572H325.808L347.736 671.558L326.014 709.19L325.808 709.554H281.941L260.013 671.568ZM346.074 671.568L324.972 635.017H282.767L261.665 671.568L282.767 708.118H324.972L346.074 671.568ZM260.013 597.031L281.735 559.399L281.941 559.035H325.808L347.736 597.021L326.014 634.653L325.808 635.017H281.941L260.013 597.031ZM346.074 597.031L324.972 560.48H282.767L261.665 597.031L282.767 633.581H324.972L346.074 597.031ZM260.013 522.494L281.735 484.862L281.941 484.498H325.808L347.736 522.484L326.014 560.117L325.808 560.48H281.941L260.013 522.494ZM346.074 522.494L324.972 485.944H282.767L261.665 522.494L282.767 559.045H324.972L346.074 522.494ZM260.013 373.421L281.735 335.789L281.941 335.425H325.808L347.736 373.411L326.014 411.043L325.808 411.407H281.941L260.013 373.421ZM346.074 373.421L324.972 336.87H282.767L261.665 373.421L282.767 409.971H324.972L346.074 373.421ZM260.013 298.884L281.735 261.252L281.941 260.888H325.808L347.736 298.874L326.014 336.507L325.808 336.87H281.941L260.013 298.884ZM346.074 298.884L324.972 262.334H282.767L261.665 298.884L282.767 335.435H324.972L346.074 298.884ZM260.013 224.348L281.735 186.715L281.941 186.352H325.808L347.736 224.338L326.014 261.97L325.808 262.334H281.941L260.013 224.348ZM346.074 224.348L324.972 187.797H282.767L261.665 224.348L282.767 260.898H324.972L346.074 224.348ZM260.013 149.811L281.735 112.179L281.941 111.815H325.808L347.736 149.801L326.014 187.433L325.808 187.797H281.941L260.013 149.811ZM346.074 149.811L324.972 113.26H282.767L261.665 149.811L282.767 186.361H324.972L346.074 149.811ZM260.013 75.284L281.735 37.6518L281.941 37.288H325.808L347.736 75.2742L326.014 112.906L325.808 113.27H281.941L260.013 75.284ZM346.074 75.284L324.972 38.7335H282.767L261.665 75.284L282.767 111.834H324.972L346.074 75.284ZM194.562 783.363L216.284 745.731L216.491 745.367H260.357L282.285 783.353L260.564 820.985L260.357 821.349H216.491L194.562 783.363ZM280.624 783.363L259.521 746.812H217.317L196.214 783.363L217.317 819.913H259.521L280.624 783.363ZM194.562 708.826L216.284 671.194L216.491 670.83H260.357L282.285 708.816L260.564 746.448L260.357 746.812H216.491L194.562 708.826ZM280.624 708.826L259.521 672.276H217.317L196.214 708.826L217.317 745.377H259.521L280.624 708.826ZM194.562 559.753L216.284 522.121L216.491 521.757H260.357L282.285 559.743L260.564 597.375L260.357 597.739H216.491L194.562 559.753ZM280.624 559.753L259.521 523.202H217.317L196.214 559.753L217.317 596.303H259.521L280.624 559.753ZM194.562 485.216L216.284 447.584L216.491 447.22H260.357L282.285 485.206L260.564 522.838L260.357 523.202H216.491L194.562 485.216ZM280.624 485.216L259.521 448.666H217.317L196.214 485.216L217.317 521.766H259.521L280.624 485.216ZM194.562 410.679L216.284 373.047L216.491 372.683H260.357L282.285 410.67L260.564 448.302L260.357 448.666H216.491L194.562 410.679ZM280.624 410.679L259.521 374.129H217.317L196.214 410.679L217.317 447.23H259.521L280.624 410.679ZM194.562 261.606L216.284 223.974L216.491 223.61H260.357L282.285 261.596L260.564 299.228L260.357 299.592H216.491L194.562 261.606ZM280.624 261.606L259.521 225.056H217.317L196.214 261.606L217.317 298.157H259.521L280.624 261.606ZM194.562 187.069L216.284 149.437L216.491 149.073H260.357L282.285 187.059L260.564 224.692L260.357 225.056H216.491L194.562 187.069ZM280.624 187.069L259.521 150.519H217.317L196.214 187.069L217.317 223.62H259.521L280.624 187.069ZM194.562 112.533L216.284 74.9005L216.491 74.5367H260.357L282.285 112.523L260.564 150.155L260.357 150.519H216.491L194.562 112.533ZM280.624 112.533L259.521 75.9822H217.317L196.214 112.533L217.317 149.083H259.521L280.624 112.533ZM194.562 37.996L216.284 0.363829L216.491 0H260.357L282.285 37.9862L260.564 75.6183L260.357 75.9822H216.491L194.562 37.996ZM280.624 37.996L259.521 1.44549H217.317L196.214 37.996L217.317 74.5465H259.521L280.624 37.996ZM130.006 820.641L151.728 783.009L151.935 782.645H195.801L217.73 820.631L196.008 858.263L195.801 858.627H151.935L130.006 820.641ZM216.068 820.641L194.965 784.09H152.761L131.658 820.641L152.761 857.191H194.965L216.068 820.641ZM130.006 746.104L151.728 708.472L151.935 708.108H195.801L217.73 746.094L196.008 783.727L195.801 784.09H151.935L130.006 746.104ZM216.068 746.104L194.965 709.554H152.761L131.658 746.104L152.761 782.655H194.965L216.068 746.104ZM130.006 671.568L151.728 633.935L151.935 633.572H195.801L217.73 671.558L196.008 709.19L195.801 709.554H151.935L130.006 671.568ZM216.068 671.568L194.965 635.017H152.761L131.658 671.568L152.761 708.118H194.965L216.068 671.568ZM130.006 522.494L151.728 484.862L151.935 484.498H195.801L217.73 522.484L196.008 560.117L195.801 560.48H151.935L130.006 522.494ZM216.068 522.494L194.965 485.944H152.761L131.658 522.494L152.761 559.045H194.965L216.068 522.494ZM130.006 447.957L151.728 410.325L151.935 409.962H195.801L217.73 447.948L196.008 485.58L195.801 485.944H151.935L130.006 447.957ZM216.068 447.957L194.965 411.407H152.761L131.658 447.957L152.761 484.508H194.965L216.068 447.957ZM130.006 373.421L151.728 335.789L151.935 335.425H195.801L217.73 373.411L196.008 411.043L195.801 411.407H151.935L130.006 373.421ZM216.068 373.421L194.965 336.87H152.761L131.658 373.421L152.761 409.971H194.965L216.068 373.421ZM130.006 298.884L151.728 261.252L151.935 260.888H195.801L217.73 298.874L196.008 336.507L195.801 336.87H151.935L130.006 298.884ZM216.068 298.884L194.965 262.334H152.761L131.658 298.884L152.761 335.435H194.965L216.068 298.884ZM130.006 149.811L151.728 112.179L151.935 111.815H195.801L217.73 149.801L196.008 187.433L195.801 187.797H151.935L130.006 149.811ZM216.068 149.811L194.965 113.26H152.761L131.658 149.811L152.761 186.361H194.965L216.068 149.811ZM130.006 75.284L151.728 37.6518L151.935 37.288H195.801L217.73 75.2742L196.008 112.906L195.801 113.27H151.935L130.006 75.284ZM216.068 75.284L194.965 38.7335H152.761L131.658 75.284L152.761 111.834H194.965L216.068 75.284ZM64.5558 783.363L86.2777 745.731L86.4842 745.367H130.351L152.279 783.353L130.557 820.985L130.351 821.349H86.4842L64.5558 783.363ZM150.627 783.363L129.525 746.812H87.32L66.2177 783.363L87.32 819.913H129.525L150.627 783.363ZM64.5558 708.826L86.2777 671.194L86.4842 670.83H130.351L152.279 708.816L130.557 746.448L130.351 746.812H86.4842L64.5558 708.826ZM150.627 708.826L129.525 672.276H87.32L66.2177 708.826L87.32 745.377H129.525L150.627 708.826ZM64.5558 634.289L86.2777 596.657L86.4842 596.293H130.351L152.279 634.28L130.557 671.912L130.351 672.276H86.4842L64.5558 634.289ZM150.627 634.289L129.525 597.739H87.32L66.2177 634.289L87.32 670.84H129.525L150.627 634.289ZM64.5558 485.216L86.2777 447.584L86.4842 447.22H130.351L152.279 485.206L130.557 522.838L130.351 523.202H86.4842L64.5558 485.216ZM150.627 485.216L129.525 448.666H87.32L66.2177 485.216L87.32 521.766H129.525L150.627 485.216ZM64.5558 410.679L86.2777 373.047L86.4842 372.683H130.351L152.279 410.67L130.557 448.302L130.351 448.666H86.4842L64.5558 410.679ZM150.627 410.679L129.525 374.129H87.32L66.2177 410.679L87.32 447.23H129.525L150.627 410.679ZM64.5558 336.143L86.2777 298.51L86.4842 298.147H130.351L152.279 336.133L130.557 373.765L130.351 374.129H86.4842L64.5558 336.143ZM150.627 336.143L129.525 299.592H87.32L66.2177 336.143L87.32 372.693H129.525L150.627 336.143ZM64.5558 187.069L86.2777 149.437L86.4842 149.073H130.351L152.279 187.059L130.557 224.692L130.351 225.056H86.4842L64.5558 187.069ZM150.627 187.069L129.525 150.519H87.32L66.2177 187.069L87.32 223.62H129.525L150.627 187.069ZM64.5558 112.533L86.2777 74.9005L86.4842 74.5367H130.351L152.279 112.523L130.557 150.155L130.351 150.519H86.4842L64.5558 112.533ZM150.627 112.533L129.525 75.9822H87.32L66.2177 112.533L87.32 149.083H129.525L150.627 112.533ZM64.5558 37.996L86.2777 0.363829L86.4842 0H130.351L152.279 37.9862L130.557 75.6183L130.351 75.9822H86.4842L64.5558 37.996ZM150.627 37.996L129.525 1.44549H87.32L66.2177 37.996L87.32 74.5465H129.525L150.627 37.996ZM0 820.641L21.7218 783.009L21.9283 782.645H65.7948L87.7232 820.631L66.0013 858.263L65.7948 858.627H21.9283L0 820.641ZM86.0712 820.641L64.9688 784.09H22.7642L1.66183 820.641L22.7642 857.191H64.9688L86.0712 820.641ZM0 671.568L21.7218 633.935L21.9283 633.572H65.7948L87.7232 671.558L66.0013 709.19L65.7948 709.554H21.9283L0 671.568ZM86.0712 671.568L64.9688 635.017H22.7642L1.66183 671.568L22.7642 708.118H64.9688L86.0712 671.568ZM0 597.031L21.7218 559.399L21.9283 559.035H65.7948L87.7232 597.021L66.0013 634.653L65.7948 635.017H21.9283L0 597.031ZM86.0712 597.031L64.9688 560.48H22.7642L1.66183 597.031L22.7642 633.581H64.9688L86.0712 597.031ZM0 447.957L21.7218 410.325L21.9283 409.962H65.7948L87.7232 447.948L66.0013 485.58L65.7948 485.944H21.9283L0 447.957ZM86.0712 447.957L64.9688 411.407H22.7642L1.66183 447.957L22.7642 484.508H64.9688L86.0712 447.957ZM0 298.884L21.7218 261.252L21.9283 260.888H65.7948L87.7232 298.874L66.0013 336.507L65.7948 336.87H21.9283L0 298.884ZM86.0712 298.884L64.9688 262.334H22.7642L1.66183 298.884L22.7642 335.435H64.9688L86.0712 298.884ZM0 224.348L21.7218 186.715L21.9283 186.352H65.7948L87.7232 224.338L66.0013 261.97L65.7948 262.334H21.9283L0 224.348ZM86.0712 224.348L64.9688 187.797H22.7642L1.66183 224.348L22.7642 260.898H64.9688L86.0712 224.348ZM0 149.811L21.7218 112.179L21.9283 111.815H65.7948L87.7232 149.801L66.0013 187.433L65.7948 187.797H21.9283L0 149.811ZM86.0712 149.811L64.9688 113.26H22.7642L1.66183 149.811L22.7642 186.361H64.9688L86.0712 149.811ZM0 75.284L21.7218 37.6518L21.9283 37.288H65.7948L87.7232 75.2742L66.0013 112.906L65.7948 113.27H21.9283L0 75.284ZM86.0712 75.284L64.9688 38.7335H22.7642L1.66183 75.284L22.7642 111.834H64.9688L86.0712 75.284ZM974.591 783.363L996.313 745.731L996.52 745.367H1040.39L1062.31 783.353L1040.59 820.985L1040.39 821.349H996.52L974.591 783.363ZM1060.65 783.363L1039.55 746.812H997.346L976.243 783.363L997.346 819.913H1039.55L1060.65 783.363ZM974.591 485.216L996.313 447.584L996.52 447.22H1040.39L1062.31 485.206L1040.59 522.838L1040.39 523.202H996.52L974.591 485.216ZM1060.65 485.216L1039.55 448.666H997.346L976.243 485.216L997.346 521.766H1039.55L1060.65 485.216ZM974.591 187.069L996.313 149.437L996.52 149.073H1040.39L1062.31 187.059L1040.59 224.692L1040.39 225.056H996.52L974.591 187.069ZM1060.65 187.069L1039.55 150.519H997.346L976.243 187.069L997.346 223.62H1039.55L1060.65 187.069ZM910.036 820.641L931.757 783.009L931.964 782.645H975.83L997.759 820.631L976.037 858.263L975.83 858.627H931.964L910.036 820.641ZM996.097 820.641L974.995 784.09H932.79L911.688 820.641L932.79 857.191H974.995L996.097 820.641ZM910.036 746.104L931.757 708.472L931.964 708.108H975.83L997.759 746.094L976.037 783.727L975.83 784.09H931.964L910.036 746.104ZM996.097 746.104L974.995 709.554H932.79L911.688 746.104L932.79 782.655H974.995L996.097 746.104ZM910.036 597.031L931.757 559.399L931.964 559.035H975.83L997.759 597.021L976.037 634.653L975.83 635.017H931.964L910.036 597.031ZM996.097 597.031L974.995 560.48H932.79L911.688 597.031L932.79 633.581H974.995L996.097 597.031ZM910.036 447.957L931.757 410.325L931.964 409.962H975.83L997.759 447.948L976.037 485.58L975.83 485.944H931.964L910.036 447.957ZM996.097 447.957L974.995 411.407H932.79L911.688 447.957L932.79 484.508H974.995L996.097 447.957ZM910.036 298.884L931.757 261.252L931.964 260.888H975.83L997.759 298.874L976.037 336.507L975.83 336.87H931.964L910.036 298.884ZM996.097 298.884L974.995 262.334H932.79L911.688 298.884L932.79 335.435H974.995L996.097 298.884ZM910.036 149.811L931.757 112.179L931.964 111.815H975.83L997.759 149.801L976.037 187.433L975.83 187.797H931.964L910.036 149.811ZM996.097 149.811L974.995 113.26H932.79L911.688 149.811L932.79 186.361H974.995L996.097 149.811ZM844.585 708.826L866.307 671.194L866.513 670.83H910.38L932.308 708.816L910.586 746.448L910.38 746.812H866.513L844.585 708.826ZM930.656 708.826L909.554 672.276H867.349L846.247 708.826L867.349 745.377H909.554L930.656 708.826ZM844.585 559.753L866.307 522.121L866.513 521.757H910.38L932.308 559.743L910.586 597.375L910.38 597.739H866.513L844.585 559.753ZM930.656 559.753L909.554 523.202H867.349L846.247 559.753L867.349 596.303H909.554L930.656 559.753ZM844.585 485.216L866.307 447.584L866.513 447.22H910.38L932.308 485.206L910.586 522.838L910.38 523.202H866.513L844.585 485.216ZM930.656 485.216L909.554 448.666H867.349L846.247 485.216L867.349 521.766H909.554L930.656 485.216ZM844.585 410.679L866.307 373.047L866.513 372.683H910.38L932.308 410.67L910.586 448.302L910.38 448.666H866.513L844.585 410.679ZM930.656 410.679L909.554 374.129H867.349L846.247 410.679L867.349 447.23H909.554L930.656 410.679ZM844.585 261.606L866.307 223.974L866.513 223.61H910.38L932.308 261.596L910.586 299.228L910.38 299.592H866.513L844.585 261.606ZM930.656 261.606L909.554 225.056H867.349L846.247 261.606L867.349 298.157H909.554L930.656 261.606ZM844.585 112.533L866.307 74.9005L866.513 74.5367H910.38L932.308 112.523L910.586 150.155L910.38 150.519H866.513L844.585 112.533ZM930.656 112.533L909.554 75.9822H867.349L846.247 112.533L867.349 149.083H909.554L930.656 112.533ZM780.029 746.104L801.751 708.472L801.957 708.108H845.824L867.752 746.094L846.03 783.727L845.824 784.09H801.957L780.029 746.104ZM866.1 746.104L844.998 709.554H802.793L781.691 746.104L802.793 782.655H844.998L866.1 746.104ZM780.029 597.031L801.751 559.399L801.957 559.035H845.824L867.752 597.021L846.03 634.653L845.824 635.017H801.957L780.029 597.031ZM866.1 597.031L844.998 560.48H802.793L781.691 597.031L802.793 633.581H844.998L866.1 597.031ZM780.029 447.957L801.751 410.325L801.957 409.962H845.824L867.752 447.948L846.03 485.58L845.824 485.944H801.957L780.029 447.957ZM866.1 447.957L844.998 411.407H802.793L781.691 447.957L802.793 484.508H844.998L866.1 447.957ZM780.029 224.348L801.751 186.715L801.957 186.352H845.824L867.752 224.338L846.03 261.97L845.824 262.334H801.957L780.029 224.348ZM866.1 224.348L844.998 187.797H802.793L781.691 224.348L802.793 260.898H844.998L866.1 224.348ZM780.029 149.811L801.751 112.179L801.957 111.815H845.824L867.752 149.801L846.03 187.433L845.824 187.797H801.957L780.029 149.811ZM866.1 149.811L844.998 113.26H802.793L781.691 149.811L802.793 186.361H844.998L866.1 149.811ZM780.029 75.284L801.751 37.6518L801.957 37.288H845.824L867.752 75.2742L846.03 112.906L845.824 113.27H801.957L780.029 75.284ZM866.1 75.284L844.998 38.7335H802.793L781.691 75.284L802.793 111.834H844.998L866.1 75.284ZM714.578 783.363L736.3 745.731L736.507 745.367H780.373L802.302 783.353L780.58 820.985L780.373 821.349H736.507L714.578 783.363ZM800.65 783.363L779.547 746.812H737.343L716.24 783.363L737.343 819.913H779.547L800.65 783.363ZM714.578 559.753L736.3 522.121L736.507 521.757H780.373L802.302 559.743L780.58 597.375L780.373 597.739H736.507L714.578 559.753ZM800.65 559.753L779.547 523.202H737.343L716.24 559.753L737.343 596.303H779.547L800.65 559.753ZM714.578 485.216L736.3 447.584L736.507 447.22H780.373L802.302 485.206L780.58 522.838L780.373 523.202H736.507L714.578 485.216ZM800.65 485.216L779.547 448.666H737.343L716.24 485.216L737.343 521.766H779.547L800.65 485.216ZM714.578 410.679L736.3 373.047L736.507 372.683H780.373L802.302 410.67L780.58 448.302L780.373 448.666H736.507L714.578 410.679ZM800.65 410.679L779.547 374.129H737.343L716.24 410.679L737.343 447.23H779.547L800.65 410.679ZM714.578 261.606L736.3 223.974L736.507 223.61H780.373L802.302 261.596L780.58 299.228L780.373 299.592H736.507L714.578 261.606ZM800.65 261.606L779.547 225.056H737.343L716.24 261.606L737.343 298.157H779.547L800.65 261.606ZM714.578 187.069L736.3 149.437L736.507 149.073H780.373L802.302 187.059L780.58 224.692L780.373 225.056H736.507L714.578 187.069ZM800.65 187.069L779.547 150.519H737.343L716.24 187.069L737.343 223.62H779.547L800.65 187.069ZM714.578 112.533L736.3 74.9005L736.507 74.5367H780.373L802.302 112.523L780.58 150.155L780.373 150.519H736.507L714.578 112.533ZM800.65 112.533L779.547 75.9822H737.343L716.24 112.533L737.343 149.083H779.547L800.65 112.533ZM650.023 671.568L671.744 633.935L671.951 633.572H715.817L737.746 671.558L716.024 709.19L715.817 709.554H671.951L650.023 671.568ZM736.094 671.568L714.991 635.017H672.787L651.684 671.568L672.787 708.118H714.991L736.094 671.568ZM650.023 597.031L671.744 559.399L671.951 559.035H715.817L737.746 597.021L716.024 634.653L715.817 635.017H671.951L650.023 597.031ZM736.094 597.031L714.991 560.48H672.787L651.684 597.031L672.787 633.581H714.991L736.094 597.031ZM650.023 522.494L671.744 484.862L671.951 484.498H715.817L737.746 522.484L716.024 560.117L715.817 560.48H671.951L650.023 522.494ZM736.094 522.494L714.991 485.944H672.787L651.684 522.494L672.787 559.045H714.991L736.094 522.494ZM650.023 447.957L671.744 410.325L671.951 409.962H715.817L737.746 447.948L716.024 485.58L715.817 485.944H671.951L650.023 447.957ZM736.094 447.957L714.991 411.407H672.787L651.684 447.957L672.787 484.508H714.991L736.094 447.957ZM650.023 298.884L671.744 261.252L671.951 260.888H715.817L737.746 298.874L716.024 336.507L715.817 336.87H671.951L650.023 298.884ZM736.094 298.884L714.991 262.334H672.787L651.684 298.884L672.787 335.435H714.991L736.094 298.884ZM650.023 224.348L671.744 186.715L671.951 186.352H715.817L737.746 224.338L716.024 261.97L715.817 262.334H671.951L650.023 224.348ZM736.094 224.348L714.991 187.797H672.787L651.684 224.348L672.787 260.898H714.991L736.094 224.348ZM584.572 783.363L606.294 745.731L606.5 745.367H650.367L672.295 783.353L650.573 820.985L650.367 821.349H606.5L584.572 783.363ZM670.643 783.363L649.541 746.812H607.336L586.234 783.363L607.336 819.913H649.541L670.643 783.363ZM584.572 708.826L606.294 671.194L606.5 670.83H650.367L672.295 708.816L650.573 746.448L650.367 746.812H606.5L584.572 708.826ZM670.643 708.826L649.541 672.276H607.336L586.234 708.826L607.336 745.377H649.541L670.643 708.826ZM584.572 634.289L606.294 596.657L606.5 596.293H650.367L672.295 634.28L650.573 671.912L650.367 672.276H606.5L584.572 634.289ZM670.643 634.289L649.541 597.739H607.336L586.234 634.289L607.336 670.84H649.541L670.643 634.289ZM584.572 559.753L606.294 522.121L606.5 521.757H650.367L672.295 559.743L650.573 597.375L650.367 597.739H606.5L584.572 559.753ZM670.643 559.753L649.541 523.202H607.336L586.234 559.753L607.336 596.303H649.541L670.643 559.753ZM584.572 336.143L606.294 298.51L606.5 298.147H650.367L672.295 336.133L650.573 373.765L650.367 374.129H606.5L584.572 336.143ZM670.643 336.143L649.541 299.592H607.336L586.234 336.143L607.336 372.693H649.541L670.643 336.143ZM584.572 261.606L606.294 223.974L606.5 223.61H650.367L672.295 261.596L650.573 299.228L650.367 299.592H606.5L584.572 261.606ZM670.643 261.606L649.541 225.056H607.336L586.234 261.606L607.336 298.157H649.541L670.643 261.606ZM584.572 187.069L606.294 149.437L606.5 149.073H650.367L672.295 187.059L650.573 224.692L650.367 225.056H606.5L584.572 187.069ZM670.643 187.069L649.541 150.519H607.336L586.234 187.069L607.336 223.62H649.541L670.643 187.069ZM584.572 112.533L606.294 74.9005L606.5 74.5367H650.367L672.295 112.523L650.573 150.155L650.367 150.519H606.5L584.572 112.533ZM670.643 112.533L649.541 75.9822H607.336L586.234 112.533L607.336 149.083H649.541L670.643 112.533ZM584.572 37.996L606.294 0.363829L606.5 0H650.367L672.295 37.9862L650.573 75.6183L650.367 75.9822H606.5L584.572 37.996ZM670.643 37.996L649.541 1.44549H607.336L586.234 37.996L607.336 74.5465H649.541L670.643 37.996ZM520.016 820.641L541.738 783.009L541.944 782.645H585.811L607.739 820.631L586.017 858.263L585.811 858.627H541.944L520.016 820.641ZM606.087 820.641L584.985 784.09H542.78L521.678 820.641L542.78 857.191H584.985L606.087 820.641ZM520.016 746.104L541.738 708.472L541.944 708.108H585.811L607.739 746.094L586.017 783.727L585.811 784.09H541.944L520.016 746.104ZM606.087 746.104L584.985 709.554H542.78L521.678 746.104L542.78 782.655H584.985L606.087 746.104ZM520.016 597.031L541.738 559.399L541.944 559.035H585.811L607.739 597.021L586.017 634.653L585.811 635.017H541.944L520.016 597.031ZM606.087 597.031L584.985 560.48H542.78L521.678 597.031L542.78 633.581H584.985L606.087 597.031ZM520.016 447.957L541.738 410.325L541.944 409.962H585.811L607.739 447.948L586.017 485.58L585.811 485.944H541.944L520.016 447.957ZM606.087 447.957L584.985 411.407H542.78L521.678 447.957L542.78 484.508H584.985L606.087 447.957ZM520.016 373.421L541.738 335.789L541.944 335.425H585.811L607.739 373.411L586.017 411.043L585.811 411.407H541.944L520.016 373.421ZM606.087 373.421L584.985 336.87H542.78L521.678 373.421L542.78 409.971H584.985L606.087 373.421ZM520.016 298.884L541.738 261.252L541.944 260.888H585.811L607.739 298.874L586.017 336.507L585.811 336.87H541.944L520.016 298.884ZM606.087 298.884L584.985 262.334H542.78L521.678 298.884L542.78 335.435H584.985L606.087 298.884ZM520.016 149.811L541.738 112.179L541.944 111.815H585.811L607.739 149.801L586.017 187.433L585.811 187.797H541.944L520.016 149.811ZM606.087 149.811L584.985 113.26H542.78L521.678 149.811L542.78 186.361H584.985L606.087 149.811ZM454.575 708.826L476.297 671.194L476.504 670.83H520.37L542.298 708.816L520.577 746.448L520.37 746.812H476.504L454.575 708.826ZM540.637 708.826L519.534 672.276H477.33L456.227 708.826L477.33 745.377H519.534L540.637 708.826ZM454.575 559.753L476.297 522.121L476.504 521.757H520.37L542.298 559.743L520.577 597.375L520.37 597.739H476.504L454.575 559.753ZM540.637 559.753L519.534 523.202H477.33L456.227 559.753L477.33 596.303H519.534L540.637 559.753ZM454.575 410.679L476.297 373.047L476.504 372.683H520.37L542.298 410.67L520.577 448.302L520.37 448.666H476.504L454.575 410.679ZM540.637 410.679L519.534 374.129H477.33L456.227 410.679L477.33 447.23H519.534L540.637 410.679ZM454.575 336.143L476.297 298.51L476.504 298.147H520.37L542.298 336.133L520.577 373.765L520.37 374.129H476.504L454.575 336.143ZM540.637 336.143L519.534 299.592H477.33L456.227 336.143L477.33 372.693H519.534L540.637 336.143ZM454.575 187.069L476.297 149.437L476.504 149.073H520.37L542.298 187.059L520.577 224.692L520.37 225.056H476.504L454.575 187.069ZM540.637 187.069L519.534 150.519H477.33L456.227 187.069L477.33 223.62H519.534L540.637 187.069ZM454.575 112.533L476.297 74.9005L476.504 74.5367H520.37L542.298 112.523L520.577 150.155L520.37 150.519H476.504L454.575 112.533ZM540.637 112.533L519.534 75.9822H477.33L456.227 112.533L477.33 149.083H519.534L540.637 112.533ZM454.575 37.996L476.297 0.363829L476.504 0H520.37L542.298 37.9862L520.577 75.6183L520.37 75.9822H476.504L454.575 37.996ZM540.637 37.996L519.534 1.44549H477.33L456.227 37.996L477.33 74.5465H519.534L540.637 37.996ZM390.01 671.568L411.732 633.935L411.938 633.572H455.804L477.733 671.558L456.011 709.19L455.804 709.554H411.938L390.01 671.568ZM476.081 671.568L454.978 635.017H412.774L391.671 671.568L412.774 708.118H454.978L476.081 671.568ZM390.01 597.031L411.732 559.399L411.938 559.035H455.804L477.733 597.021L456.011 634.653L455.804 635.017H411.938L390.01 597.031ZM476.081 597.031L454.978 560.48H412.774L391.671 597.031L412.774 633.581H454.978L476.081 597.031ZM390.01 522.494L411.732 484.862L411.938 484.498H455.804L477.733 522.484L456.011 560.117L455.804 560.48H411.938L390.01 522.494ZM476.081 522.494L454.978 485.944H412.774L391.671 522.494L412.774 559.045H454.978L476.081 522.494ZM390.01 447.957L411.732 410.325L411.938 409.962H455.804L477.733 447.948L456.011 485.58L455.804 485.944H411.938L390.01 447.957ZM476.081 447.957L454.978 411.407H412.774L391.671 447.957L412.774 484.508H454.978L476.081 447.957ZM390.01 373.421L411.732 335.789L411.938 335.425H455.804L477.733 373.411L456.011 411.043L455.804 411.407H411.938L390.01 373.421ZM476.081 373.421L454.978 336.87H412.774L391.671 373.421L412.774 409.971H454.978L476.081 373.421ZM390.01 298.884L411.732 261.252L411.938 260.888H455.804L477.733 298.874L456.011 336.507L455.804 336.87H411.938L390.01 298.884ZM476.081 298.884L454.978 262.334H412.774L391.671 298.884L412.774 335.435H454.978L476.081 298.884ZM324.569 783.363L346.291 745.731L346.497 745.367H390.364L412.292 783.353L390.57 820.985L390.364 821.349H346.497L324.569 783.363ZM410.63 783.363L389.528 746.812H347.323L326.221 783.363L347.323 819.913H389.528L410.63 783.363ZM324.569 708.826L346.291 671.194L346.497 670.83H390.364L412.292 708.816L390.57 746.448L390.364 746.812H346.497L324.569 708.826ZM410.63 708.826L389.528 672.276H347.323L326.221 708.826L347.323 745.377H389.528L410.63 708.826ZM324.569 634.289L346.291 596.657L346.497 596.293H390.364L412.292 634.28L390.57 671.912L390.364 672.276H346.497L324.569 634.289ZM410.63 634.289L389.528 597.739H347.323L326.221 634.289L347.323 670.84H389.528L410.63 634.289ZM324.569 485.216L346.291 447.584L346.497 447.22H390.364L412.292 485.206L390.57 522.838L390.364 523.202H346.497L324.569 485.216ZM410.63 485.216L389.528 448.666H347.323L326.221 485.216L347.323 521.766H389.528L410.63 485.216ZM324.569 336.143L346.291 298.51L346.497 298.147H390.364L412.292 336.133L390.57 373.765L390.364 374.129H346.497L324.569 336.143ZM410.63 336.143L389.528 299.592H347.323L326.221 336.143L347.323 372.693H389.528L410.63 336.143ZM324.569 261.606L346.291 223.974L346.497 223.61H390.364L412.292 261.596L390.57 299.228L390.364 299.592H346.497L324.569 261.606ZM410.63 261.606L389.528 225.056H347.323L326.221 261.606L347.323 298.157H389.528L410.63 261.606ZM324.569 187.069L346.291 149.437L346.497 149.073H390.364L412.292 187.059L390.57 224.692L390.364 225.056H346.497L324.569 187.069ZM410.63 187.069L389.528 150.519H347.323L326.221 187.069L347.323 223.62H389.528L410.63 187.069ZM260.013 820.641L281.735 783.009L281.941 782.645H325.808L347.736 820.631L326.014 858.263L325.808 858.627H281.941L260.013 820.641ZM346.074 820.641L324.972 784.09H282.767L261.665 820.641L282.767 857.191H324.972L346.074 820.641ZM260.013 746.104L281.735 708.472L281.941 708.108H325.808L347.736 746.094L326.014 783.727L325.808 784.09H281.941L260.013 746.104ZM346.074 746.104L324.972 709.554H282.767L261.665 746.104L282.767 782.655H324.972L346.074 746.104ZM260.013 671.568L281.735 633.935L281.941 633.572H325.808L347.736 671.558L326.014 709.19L325.808 709.554H281.941L260.013 671.568ZM346.074 671.568L324.972 635.017H282.767L261.665 671.568L282.767 708.118H324.972L346.074 671.568ZM260.013 597.031L281.735 559.399L281.941 559.035H325.808L347.736 597.021L326.014 634.653L325.808 635.017H281.941L260.013 597.031ZM346.074 597.031L324.972 560.48H282.767L261.665 597.031L282.767 633.581H324.972L346.074 597.031ZM260.013 522.494L281.735 484.862L281.941 484.498H325.808L347.736 522.484L326.014 560.117L325.808 560.48H281.941L260.013 522.494ZM346.074 522.494L324.972 485.944H282.767L261.665 522.494L282.767 559.045H324.972L346.074 522.494ZM260.013 373.421L281.735 335.789L281.941 335.425H325.808L347.736 373.411L326.014 411.043L325.808 411.407H281.941L260.013 373.421ZM346.074 373.421L324.972 336.87H282.767L261.665 373.421L282.767 409.971H324.972L346.074 373.421ZM260.013 298.884L281.735 261.252L281.941 260.888H325.808L347.736 298.874L326.014 336.507L325.808 336.87H281.941L260.013 298.884ZM346.074 298.884L324.972 262.334H282.767L261.665 298.884L282.767 335.435H324.972L346.074 298.884ZM260.013 224.348L281.735 186.715L281.941 186.352H325.808L347.736 224.338L326.014 261.97L325.808 262.334H281.941L260.013 224.348ZM346.074 224.348L324.972 187.797H282.767L261.665 224.348L282.767 260.898H324.972L346.074 224.348ZM260.013 149.811L281.735 112.179L281.941 111.815H325.808L347.736 149.801L326.014 187.433L325.808 187.797H281.941L260.013 149.811ZM346.074 149.811L324.972 113.26H282.767L261.665 149.811L282.767 186.361H324.972L346.074 149.811ZM260.013 75.284L281.735 37.6518L281.941 37.288H325.808L347.736 75.2742L326.014 112.906L325.808 113.27H281.941L260.013 75.284ZM346.074 75.284L324.972 38.7335H282.767L261.665 75.284L282.767 111.834H324.972L346.074 75.284ZM194.562 783.363L216.284 745.731L216.491 745.367H260.357L282.285 783.353L260.564 820.985L260.357 821.349H216.491L194.562 783.363ZM280.624 783.363L259.521 746.812H217.317L196.214 783.363L217.317 819.913H259.521L280.624 783.363ZM194.562 708.826L216.284 671.194L216.491 670.83H260.357L282.285 708.816L260.564 746.448L260.357 746.812H216.491L194.562 708.826ZM280.624 708.826L259.521 672.276H217.317L196.214 708.826L217.317 745.377H259.521L280.624 708.826ZM194.562 559.753L216.284 522.121L216.491 521.757H260.357L282.285 559.743L260.564 597.375L260.357 597.739H216.491L194.562 559.753ZM280.624 559.753L259.521 523.202H217.317L196.214 559.753L217.317 596.303H259.521L280.624 559.753ZM194.562 485.216L216.284 447.584L216.491 447.22H260.357L282.285 485.206L260.564 522.838L260.357 523.202H216.491L194.562 485.216ZM280.624 485.216L259.521 448.666H217.317L196.214 485.216L217.317 521.766H259.521L280.624 485.216ZM194.562 410.679L216.284 373.047L216.491 372.683H260.357L282.285 410.67L260.564 448.302L260.357 448.666H216.491L194.562 410.679ZM280.624 410.679L259.521 374.129H217.317L196.214 410.679L217.317 447.23H259.521L280.624 410.679ZM194.562 261.606L216.284 223.974L216.491 223.61H260.357L282.285 261.596L260.564 299.228L260.357 299.592H216.491L194.562 261.606ZM280.624 261.606L259.521 225.056H217.317L196.214 261.606L217.317 298.157H259.521L280.624 261.606ZM194.562 187.069L216.284 149.437L216.491 149.073H260.357L282.285 187.059L260.564 224.692L260.357 225.056H216.491L194.562 187.069ZM280.624 187.069L259.521 150.519H217.317L196.214 187.069L217.317 223.62H259.521L280.624 187.069ZM194.562 112.533L216.284 74.9005L216.491 74.5367H260.357L282.285 112.523L260.564 150.155L260.357 150.519H216.491L194.562 112.533ZM280.624 112.533L259.521 75.9822H217.317L196.214 112.533L217.317 149.083H259.521L280.624 112.533ZM194.562 37.996L216.284 0.363829L216.491 0H260.357L282.285 37.9862L260.564 75.6183L260.357 75.9822H216.491L194.562 37.996ZM280.624 37.996L259.521 1.44549H217.317L196.214 37.996L217.317 74.5465H259.521L280.624 37.996ZM130.006 820.641L151.728 783.009L151.935 782.645H195.801L217.73 820.631L196.008 858.263L195.801 858.627H151.935L130.006 820.641ZM216.068 820.641L194.965 784.09H152.761L131.658 820.641L152.761 857.191H194.965L216.068 820.641ZM130.006 746.104L151.728 708.472L151.935 708.108H195.801L217.73 746.094L196.008 783.727L195.801 784.09H151.935L130.006 746.104ZM216.068 746.104L194.965 709.554H152.761L131.658 746.104L152.761 782.655H194.965L216.068 746.104ZM130.006 671.568L151.728 633.935L151.935 633.572H195.801L217.73 671.558L196.008 709.19L195.801 709.554H151.935L130.006 671.568ZM216.068 671.568L194.965 635.017H152.761L131.658 671.568L152.761 708.118H194.965L216.068 671.568ZM130.006 522.494L151.728 484.862L151.935 484.498H195.801L217.73 522.484L196.008 560.117L195.801 560.48H151.935L130.006 522.494ZM216.068 522.494L194.965 485.944H152.761L131.658 522.494L152.761 559.045H194.965L216.068 522.494ZM130.006 447.957L151.728 410.325L151.935 409.962H195.801L217.73 447.948L196.008 485.58L195.801 485.944H151.935L130.006 447.957ZM216.068 447.957L194.965 411.407H152.761L131.658 447.957L152.761 484.508H194.965L216.068 447.957ZM130.006 373.421L151.728 335.789L151.935 335.425H195.801L217.73 373.411L196.008 411.043L195.801 411.407H151.935L130.006 373.421ZM216.068 373.421L194.965 336.87H152.761L131.658 373.421L152.761 409.971H194.965L216.068 373.421ZM130.006 298.884L151.728 261.252L151.935 260.888H195.801L217.73 298.874L196.008 336.507L195.801 336.87H151.935L130.006 298.884ZM216.068 298.884L194.965 262.334H152.761L131.658 298.884L152.761 335.435H194.965L216.068 298.884ZM130.006 149.811L151.728 112.179L151.935 111.815H195.801L217.73 149.801L196.008 187.433L195.801 187.797H151.935L130.006 149.811ZM216.068 149.811L194.965 113.26H152.761L131.658 149.811L152.761 186.361H194.965L216.068 149.811ZM130.006 75.284L151.728 37.6518L151.935 37.288H195.801L217.73 75.2742L196.008 112.906L195.801 113.27H151.935L130.006 75.284ZM216.068 75.284L194.965 38.7335H152.761L131.658 75.284L152.761 111.834H194.965L216.068 75.284ZM64.5558 783.363L86.2777 745.731L86.4842 745.367H130.351L152.279 783.353L130.557 820.985L130.351 821.349H86.4842L64.5558 783.363ZM150.627 783.363L129.525 746.812H87.32L66.2177 783.363L87.32 819.913H129.525L150.627 783.363ZM64.5558 708.826L86.2777 671.194L86.4842 670.83H130.351L152.279 708.816L130.557 746.448L130.351 746.812H86.4842L64.5558 708.826ZM150.627 708.826L129.525 672.276H87.32L66.2177 708.826L87.32 745.377H129.525L150.627 708.826ZM64.5558 634.289L86.2777 596.657L86.4842 596.293H130.351L152.279 634.28L130.557 671.912L130.351 672.276H86.4842L64.5558 634.289ZM150.627 634.289L129.525 597.739H87.32L66.2177 634.289L87.32 670.84H129.525L150.627 634.289ZM64.5558 485.216L86.2777 447.584L86.4842 447.22H130.351L152.279 485.206L130.557 522.838L130.351 523.202H86.4842L64.5558 485.216ZM150.627 485.216L129.525 448.666H87.32L66.2177 485.216L87.32 521.766H129.525L150.627 485.216ZM64.5558 410.679L86.2777 373.047L86.4842 372.683H130.351L152.279 410.67L130.557 448.302L130.351 448.666H86.4842L64.5558 410.679ZM150.627 410.679L129.525 374.129H87.32L66.2177 410.679L87.32 447.23H129.525L150.627 410.679ZM64.5558 336.143L86.2777 298.51L86.4842 298.147H130.351L152.279 336.133L130.557 373.765L130.351 374.129H86.4842L64.5558 336.143ZM150.627 336.143L129.525 299.592H87.32L66.2177 336.143L87.32 372.693H129.525L150.627 336.143ZM64.5558 187.069L86.2777 149.437L86.4842 149.073H130.351L152.279 187.059L130.557 224.692L130.351 225.056H86.4842L64.5558 187.069ZM150.627 187.069L129.525 150.519H87.32L66.2177 187.069L87.32 223.62H129.525L150.627 187.069ZM64.5558 112.533L86.2777 74.9005L86.4842 74.5367H130.351L152.279 112.523L130.557 150.155L130.351 150.519H86.4842L64.5558 112.533ZM150.627 112.533L129.525 75.9822H87.32L66.2177 112.533L87.32 149.083H129.525L150.627 112.533ZM64.5558 37.996L86.2777 0.363829L86.4842 0H130.351L152.279 37.9862L130.557 75.6183L130.351 75.9822H86.4842L64.5558 37.996ZM150.627 37.996L129.525 1.44549H87.32L66.2177 37.996L87.32 74.5465H129.525L150.627 37.996ZM0 820.641L21.7218 783.009L21.9283 782.645H65.7948L87.7232 820.631L66.0013 858.263L65.7948 858.627H21.9283L0 820.641ZM86.0712 820.641L64.9688 784.09H22.7642L1.66183 820.641L22.7642 857.191H64.9688L86.0712 820.641ZM0 671.568L21.7218 633.935L21.9283 633.572H65.7948L87.7232 671.558L66.0013 709.19L65.7948 709.554H21.9283L0 671.568ZM86.0712 671.568L64.9688 635.017H22.7642L1.66183 671.568L22.7642 708.118H64.9688L86.0712 671.568ZM0 597.031L21.7218 559.399L21.9283 559.035H65.7948L87.7232 597.021L66.0013 634.653L65.7948 635.017H21.9283L0 597.031ZM86.0712 597.031L64.9688 560.48H22.7642L1.66183 597.031L22.7642 633.581H64.9688L86.0712 597.031ZM0 447.957L21.7218 410.325L21.9283 409.962H65.7948L87.7232 447.948L66.0013 485.58L65.7948 485.944H21.9283L0 447.957ZM86.0712 447.957L64.9688 411.407H22.7642L1.66183 447.957L22.7642 484.508H64.9688L86.0712 447.957ZM0 298.884L21.7218 261.252L21.9283 260.888H65.7948L87.7232 298.874L66.0013 336.507L65.7948 336.87H21.9283L0 298.884ZM86.0712 298.884L64.9688 262.334H22.7642L1.66183 298.884L22.7642 335.435H64.9688L86.0712 298.884ZM0 224.348L21.7218 186.715L21.9283 186.352H65.7948L87.7232 224.338L66.0013 261.97L65.7948 262.334H21.9283L0 224.348ZM86.0712 224.348L64.9688 187.797H22.7642L1.66183 224.348L22.7642 260.898H64.9688L86.0712 224.348ZM0 149.811L21.7218 112.179L21.9283 111.815H65.7948L87.7232 149.801L66.0013 187.433L65.7948 187.797H21.9283L0 149.811ZM86.0712 149.811L64.9688 113.26H22.7642L1.66183 149.811L22.7642 186.361H64.9688L86.0712 149.811ZM0 75.284L21.7218 37.6518L21.9283 37.288H65.7948L87.7232 75.2742L66.0013 112.906L65.7948 113.27H21.9283L0 75.284ZM86.0712 75.284L64.9688 38.7335H22.7642L1.66183 75.284L22.7642 111.834H64.9688L86.0712 75.284Z" fill="url(#paint0_linear_2181_4411)"/>
<defs>
<linearGradient id="paint0_linear_2181_4411" x1="0" y1="429.323" x2="1062.32" y2="429.323" gradientUnits="userSpaceOnUse">
<stop stop-color="#6B862B" stop-opacity="0.6"/>
<stop offset="0.5" stop-color="#9AC12A" stop-opacity="0.4"/>
<stop offset="1" stop-color="#00A164"/>
</linearGradient>
</defs>
</svg>
