<svg width="64" height="477" viewBox="0 0 64 477" fill="none" xmlns="http://www.w3.org/2000/svg">
<path d="M66.3922 561.938L49.9523 534.194L49.796 533.926H16.5961L0 561.931L16.4399 589.674L16.5961 589.942H49.796L66.3922 561.938ZM1.25769 561.938L17.2288 534.992H49.1708L65.1419 561.938L49.1708 588.884H17.2288L1.25769 561.938ZM66.3922 342.137L49.9523 314.394L49.796 314.126H16.5961L0 342.13L16.4399 369.873L16.5961 370.141H49.796L66.3922 342.137ZM1.25769 342.137L17.2288 315.191H49.1708L65.1419 342.137L49.1708 369.083H17.2288L1.25769 342.137ZM66.3922 122.336L49.9523 94.593L49.796 94.3248H16.5961L0 122.329L16.4399 150.072L16.5961 150.341H49.796L66.3922 122.336ZM1.25769 122.336L17.2288 95.3904H49.1708L65.1419 122.336L49.1708 149.282H17.2288L1.25769 122.336ZM115.251 589.42L98.8106 561.677L98.6543 561.409H65.4545L48.8583 589.413L65.2982 617.156L65.4545 617.424H98.6543L115.251 589.42ZM50.116 589.42L66.0871 562.474H98.0292L114 589.42L98.0292 616.366H66.0871L50.116 589.42ZM115.251 534.47L98.8106 506.727L98.6543 506.458H65.4545L48.8583 534.463L65.2982 562.206L65.4545 562.474H98.6543L115.251 534.47ZM50.116 534.47L66.0871 507.524H98.0292L114 534.47L98.0292 561.416H66.0871L50.116 534.47ZM115.251 424.57L98.8106 396.826L98.6543 396.558H65.4545L48.8583 424.562L65.2982 452.306L65.4545 452.574H98.6543L115.251 424.57ZM50.116 424.57L66.0871 397.624H98.0292L114 424.57L98.0292 451.515H66.0871L50.116 424.57ZM115.251 314.669L98.8106 286.926L98.6543 286.658H65.4545L48.8583 314.662L65.2982 342.405L65.4545 342.674H98.6543L115.251 314.669ZM50.116 314.669L66.0871 287.723H98.0292L114 314.669L98.0292 341.615H66.0871L50.116 314.669ZM115.251 204.769L98.8106 177.026L98.6543 176.757H65.4545L48.8583 204.762L65.2982 232.505L65.4545 232.773H98.6543L115.251 204.769ZM50.116 204.769L66.0871 177.823H98.0292L114 204.769L98.0292 231.715H66.0871L50.116 204.769ZM115.251 94.8685L98.8106 67.1252L98.6543 66.857H65.4545L48.8583 94.8613L65.2982 122.605L65.4545 122.873H98.6543L115.251 94.8685ZM50.116 94.8685L66.0871 67.9226H98.0292L114 94.8685L98.0292 121.814H66.0871L50.116 94.8685ZM164.786 506.988L148.346 479.244L148.19 478.976H114.99L98.3939 506.98L114.834 534.724L114.99 534.992H148.19L164.786 506.988ZM99.6441 506.988L115.615 480.042H147.557L163.528 506.988L147.557 533.934H115.615L99.6441 506.988ZM164.786 397.087L148.346 369.344L148.19 369.076H114.99L98.3939 397.08L114.834 424.823L114.99 425.092H148.19L164.786 397.087ZM99.6441 397.087L115.615 370.141H147.557L163.528 397.087L147.557 424.033H115.615L99.6441 397.087ZM164.786 342.137L148.346 314.394L148.19 314.126H114.99L98.3939 342.13L114.834 369.873L114.99 370.141H148.19L164.786 342.137ZM99.6441 342.137L115.615 315.191H147.557L163.528 342.137L147.557 369.083H115.615L99.6441 342.137ZM164.786 287.187L148.346 259.444L148.19 259.175H114.99L98.3939 287.18L114.834 314.923L114.99 315.191H148.19L164.786 287.187ZM99.6441 287.187L115.615 260.241H147.557L163.528 287.187L147.557 314.133H115.615L99.6441 287.187ZM164.786 177.287L148.346 149.543L148.19 149.275H114.99L98.3939 177.279L114.834 205.023L114.99 205.291H148.19L164.786 177.287ZM99.6441 177.287L115.615 150.341H147.557L163.528 177.287L147.557 204.232H115.615L99.6441 177.287ZM164.786 67.3862L148.346 39.6428L148.19 39.3746H114.99L98.3939 67.3789L114.834 95.1222L114.99 95.3904H148.19L164.786 67.3862ZM99.6441 67.3862L115.615 40.4403H147.557L163.528 67.3862L147.557 94.3321H115.615L99.6441 67.3862ZM213.644 534.47L197.204 506.727L197.048 506.458H163.848L147.252 534.463L163.692 562.206L163.848 562.474H197.048L213.644 534.47ZM148.502 534.47L164.473 507.524H196.416L212.387 534.47L196.416 561.416H164.473L148.502 534.47ZM213.644 424.57L197.204 396.826L197.048 396.558H163.848L147.252 424.562L163.692 452.306L163.848 452.574H197.048L213.644 424.57ZM148.502 424.57L164.473 397.624H196.416L212.387 424.57L196.416 451.515H164.473L148.502 424.57ZM213.644 314.669L197.204 286.926L197.048 286.658H163.848L147.252 314.662L163.692 342.405L163.848 342.674H197.048L213.644 314.669ZM148.502 314.669L164.473 287.723H196.416L212.387 314.669L196.416 341.615H164.473L148.502 314.669ZM213.644 149.819L197.204 122.075L197.048 121.807H163.848L147.252 149.811L163.692 177.555L163.848 177.823H197.048L213.644 149.819ZM148.502 149.819L164.473 122.873H196.416L212.387 149.819L196.416 176.765H164.473L148.502 149.819ZM213.644 94.8685L197.204 67.1252L197.048 66.857H163.848L147.252 94.8613L163.692 122.605L163.848 122.873H197.048L213.644 94.8685ZM148.502 94.8685L164.473 67.9226H196.416L212.387 94.8685L196.416 121.814H164.473L148.502 94.8685ZM213.644 39.9256L197.204 12.1822L197.048 11.914H163.848L147.252 39.9183L163.692 67.6616L163.848 67.9299H197.048L213.644 39.9256ZM148.502 39.9256L164.473 12.9797H196.416L212.387 39.9256L196.416 66.8715H164.473L148.502 39.9256ZM263.18 561.938L246.74 534.194L246.584 533.926H213.384L196.788 561.931L213.228 589.674L213.384 589.942H246.584L263.18 561.938ZM198.038 561.938L214.009 534.992H245.951L261.922 561.938L245.951 588.884H214.009L198.038 561.938ZM263.18 397.087L246.74 369.344L246.584 369.076H213.384L196.788 397.08L213.228 424.823L213.384 425.092H246.584L263.18 397.087ZM198.038 397.087L214.009 370.141H245.951L261.922 397.087L245.951 424.033H214.009L198.038 397.087ZM263.18 342.137L246.74 314.394L246.584 314.126H213.384L196.788 342.13L213.228 369.873L213.384 370.141H246.584L263.18 342.137ZM198.038 342.137L214.009 315.191H245.951L261.922 342.137L245.951 369.083H214.009L198.038 342.137ZM263.18 287.187L246.74 259.444L246.584 259.175H213.384L196.788 287.18L213.228 314.923L213.384 315.191H246.584L263.18 287.187ZM198.038 287.187L214.009 260.241H245.951L261.922 287.187L245.951 314.133H214.009L198.038 287.187ZM263.18 177.287L246.74 149.543L246.584 149.275H213.384L196.788 177.279L213.228 205.023L213.384 205.291H246.584L263.18 177.287ZM198.038 177.287L214.009 150.341H245.951L261.922 177.287L245.951 204.232H214.009L198.038 177.287ZM263.18 122.336L246.74 94.593L246.584 94.3248H213.384L196.788 122.329L213.228 150.072L213.384 150.341H246.584L263.18 122.336ZM198.038 122.336L214.009 95.3904H245.951L261.922 122.336L245.951 149.282H214.009L198.038 122.336ZM263.18 67.3862L246.74 39.6428L246.584 39.3746H213.384L196.788 67.3789L213.228 95.1222L213.384 95.3904H246.584L263.18 67.3862ZM198.038 67.3862L214.009 40.4403H245.951L261.922 67.3862L245.951 94.3321H214.009L198.038 67.3862ZM312.038 479.52L295.598 451.776L295.442 451.508H262.242L245.646 479.513L262.086 507.256L262.242 507.524H295.442L312.038 479.52ZM246.896 479.52L262.867 452.574H294.809L310.78 479.52L294.809 506.466H262.867L246.896 479.52ZM312.038 424.57L295.598 396.826L295.442 396.558H262.242L245.646 424.562L262.086 452.306L262.242 452.574H295.442L312.038 424.57ZM246.896 424.57L262.867 397.624H294.809L310.78 424.57L294.809 451.515H262.867L246.896 424.57ZM312.038 369.619L295.598 341.876L295.442 341.608H262.242L245.646 369.612L262.086 397.355L262.242 397.624H295.442L312.038 369.619ZM246.896 369.619L262.867 342.674H294.809L310.78 369.619L294.809 396.565H262.867L246.896 369.619ZM312.038 314.669L295.598 286.926L295.442 286.658H262.242L245.646 314.662L262.086 342.405L262.242 342.674H295.442L312.038 314.669ZM246.896 314.669L262.867 287.723H294.809L310.78 314.669L294.809 341.615H262.867L246.896 314.669ZM312.038 204.769L295.598 177.026L295.442 176.757H262.242L245.646 204.762L262.086 232.505L262.242 232.773H295.442L312.038 204.769ZM246.896 204.769L262.867 177.823H294.809L310.78 204.769L294.809 231.715H262.867L246.896 204.769ZM312.038 149.819L295.598 122.075L295.442 121.807H262.242L245.646 149.811L262.086 177.555L262.242 177.823H295.442L312.038 149.819ZM246.896 149.819L262.867 122.873H294.809L310.78 149.819L294.809 176.765H262.867L246.896 149.819ZM361.574 561.938L345.134 534.194L344.978 533.926H311.778L295.182 561.931L311.621 589.674L311.778 589.942H344.978L361.574 561.938ZM296.432 561.938L312.403 534.992H344.345L360.316 561.938L344.345 588.884H312.403L296.432 561.938ZM361.574 506.988L345.134 479.244L344.978 478.976H311.778L295.182 506.98L311.621 534.724L311.778 534.992H344.978L361.574 506.988ZM296.432 506.988L312.403 480.042H344.345L360.316 506.988L344.345 533.934H312.403L296.432 506.988ZM361.574 452.037L345.134 424.294L344.978 424.026H311.778L295.182 452.03L311.621 479.773L311.778 480.042H344.978L361.574 452.037ZM296.432 452.037L312.403 425.092H344.345L360.316 452.037L344.345 478.983H312.403L296.432 452.037ZM361.574 397.087L345.134 369.344L344.978 369.076H311.778L295.182 397.08L311.621 424.823L311.778 425.092H344.978L361.574 397.087ZM296.432 397.087L312.403 370.141H344.345L360.316 397.087L344.345 424.033H312.403L296.432 397.087ZM361.574 232.237L345.134 204.493L344.978 204.225H311.778L295.182 232.229L311.621 259.973L311.778 260.241H344.978L361.574 232.237ZM296.432 232.237L312.403 205.291H344.345L360.316 232.237L344.345 259.183H312.403L296.432 232.237ZM361.574 177.287L345.134 149.543L344.978 149.275H311.778L295.182 177.279L311.621 205.023L311.778 205.291H344.978L361.574 177.287ZM296.432 177.287L312.403 150.341H344.345L360.316 177.287L344.345 204.232H312.403L296.432 177.287ZM361.574 122.336L345.134 94.593L344.978 94.3248H311.778L295.182 122.329L311.621 150.072L311.778 150.341H344.978L361.574 122.336ZM296.432 122.336L312.403 95.3904H344.345L360.316 122.336L344.345 149.282H312.403L296.432 122.336ZM361.574 67.3862L345.134 39.6428L344.978 39.3746H311.778L295.182 67.3789L311.621 95.1222L311.778 95.3904H344.978L361.574 67.3862ZM296.432 67.3862L312.403 40.4403H344.345L360.316 67.3862L344.345 94.3321H312.403L296.432 67.3862ZM361.574 12.436L345.134 -15.3073L344.978 -15.5756H311.778L295.182 12.4287L311.621 40.172L311.778 40.4403H344.978L361.574 12.436ZM296.432 12.436L312.403 -14.5099H344.345L360.316 12.436L344.345 39.3819H312.403L296.432 12.436ZM410.432 589.42L393.992 561.677L393.836 561.409H360.636L344.04 589.413L360.48 617.156L360.636 617.424H393.836L410.432 589.42ZM345.29 589.42L361.261 562.474H393.203L409.174 589.42L393.203 616.366H361.261L345.29 589.42ZM410.432 534.47L393.992 506.727L393.836 506.458H360.636L344.04 534.463L360.48 562.206L360.636 562.474H393.836L410.432 534.47ZM345.29 534.47L361.261 507.524H393.203L409.174 534.47L393.203 561.416H361.261L345.29 534.47ZM410.432 424.57L393.992 396.826L393.836 396.558H360.636L344.04 424.562L360.48 452.306L360.636 452.574H393.836L410.432 424.57ZM345.29 424.57L361.261 397.624H393.203L409.174 424.57L393.203 451.515H361.261L345.29 424.57ZM410.432 314.669L393.992 286.926L393.836 286.658H360.636L344.04 314.662L360.48 342.405L360.636 342.674H393.836L410.432 314.669ZM345.29 314.669L361.261 287.723H393.203L409.174 314.669L393.203 341.615H361.261L345.29 314.669ZM410.432 259.719L393.992 231.976L393.836 231.707H360.636L344.04 259.712L360.48 287.455L360.636 287.723H393.836L410.432 259.719ZM345.29 259.719L361.261 232.773H393.203L409.174 259.719L393.203 286.665H361.261L345.29 259.719ZM410.432 204.769L393.992 177.026L393.836 176.757H360.636L344.04 204.762L360.48 232.505L360.636 232.773H393.836L410.432 204.769ZM345.29 204.769L361.261 177.823H393.203L409.174 204.769L393.203 231.715H361.261L345.29 204.769ZM410.432 94.8685L393.992 67.1252L393.836 66.857H360.636L344.04 94.8613L360.48 122.605L360.636 122.873H393.836L410.432 94.8685ZM345.29 94.8685L361.261 67.9226H393.203L409.174 94.8685L393.203 121.814H361.261L345.29 94.8685ZM459.96 506.988L443.52 479.244L443.364 478.976H410.164L393.568 506.98L410.008 534.724L410.164 534.992H443.364L459.96 506.988ZM394.826 506.988L410.797 480.042H442.739L458.71 506.988L442.739 533.934H410.797L394.826 506.988ZM459.96 397.087L443.52 369.344L443.364 369.076H410.164L393.568 397.08L410.008 424.823L410.164 425.092H443.364L459.96 397.087ZM394.826 397.087L410.797 370.141H442.739L458.71 397.087L442.739 424.033H410.797L394.826 397.087ZM459.96 287.187L443.52 259.444L443.364 259.175H410.164L393.568 287.18L410.008 314.923L410.164 315.191H443.364L459.96 287.187ZM394.826 287.187L410.797 260.241H442.739L458.71 287.187L442.739 314.133H410.797L394.826 287.187ZM459.96 232.237L443.52 204.493L443.364 204.225H410.164L393.568 232.229L410.008 259.973L410.164 260.241H443.364L459.96 232.237ZM394.826 232.237L410.797 205.291H442.739L458.71 232.237L442.739 259.183H410.797L394.826 232.237ZM459.96 122.336L443.52 94.593L443.364 94.3248H410.164L393.568 122.329L410.008 150.072L410.164 150.341H443.364L459.96 122.336ZM394.826 122.336L410.797 95.3904H442.739L458.71 122.336L442.739 149.282H410.797L394.826 122.336ZM459.96 67.3862L443.52 39.6428L443.364 39.3746H410.164L393.568 67.3789L410.008 95.1222L410.164 95.3904H443.364L459.96 67.3862ZM394.826 67.3862L410.797 40.4403H442.739L458.71 67.3862L442.739 94.3321H410.797L394.826 67.3862ZM459.96 12.436L443.52 -15.3073L443.364 -15.5756H410.164L393.568 12.4287L410.008 40.172L410.164 40.4403H443.364L459.96 12.436ZM394.826 12.436L410.797 -14.5099H442.739L458.71 12.436L442.739 39.3819H410.797L394.826 12.436ZM508.826 479.52L492.386 451.776L492.23 451.508H459.03L442.434 479.513L458.874 507.256L459.03 507.524H492.23L508.826 479.52ZM443.684 479.52L459.655 452.574H491.597L507.568 479.52L491.597 506.466H459.655L443.684 479.52ZM508.826 424.57L492.386 396.826L492.23 396.558H459.03L442.434 424.562L458.874 452.306L459.03 452.574H492.23L508.826 424.57ZM443.684 424.57L459.655 397.624H491.597L507.568 424.57L491.597 451.515H459.655L443.684 424.57ZM508.826 369.619L492.386 341.876L492.23 341.608H459.03L442.434 369.612L458.874 397.355L459.03 397.624H492.23L508.826 369.619ZM443.684 369.619L459.655 342.674H491.597L507.568 369.619L491.597 396.565H459.655L443.684 369.619ZM508.826 314.669L492.386 286.926L492.23 286.658H459.03L442.434 314.662L458.874 342.405L459.03 342.674H492.23L508.826 314.669ZM443.684 314.669L459.655 287.723H491.597L507.568 314.669L491.597 341.615H459.655L443.684 314.669ZM508.826 259.719L492.386 231.976L492.23 231.707H459.03L442.434 259.712L458.874 287.455L459.03 287.723H492.23L508.826 259.719ZM443.684 259.719L459.655 232.773H491.597L507.568 259.719L491.597 286.665H459.655L443.684 259.719ZM508.826 204.769L492.386 177.026L492.23 176.757H459.03L442.434 204.762L458.874 232.505L459.03 232.773H492.23L508.826 204.769ZM443.684 204.769L459.655 177.823H491.597L507.568 204.769L491.597 231.715H459.655L443.684 204.769ZM558.354 561.938L541.914 534.194L541.758 533.926H508.558L491.962 561.931L508.402 589.674L508.558 589.942H541.758L558.354 561.938ZM493.22 561.938L509.191 534.992H541.133L557.104 561.938L541.133 588.884H509.191L493.22 561.938ZM558.354 506.988L541.914 479.244L541.758 478.976H508.558L491.962 506.98L508.402 534.724L508.558 534.992H541.758L558.354 506.988ZM493.22 506.988L509.191 480.042H541.133L557.104 506.988L541.133 533.934H509.191L493.22 506.988ZM558.354 452.037L541.914 424.294L541.758 424.026H508.558L491.962 452.03L508.402 479.773L508.558 480.042H541.758L558.354 452.037ZM493.22 452.037L509.191 425.092H541.133L557.104 452.037L541.133 478.983H509.191L493.22 452.037ZM558.354 342.137L541.914 314.394L541.758 314.126H508.558L491.962 342.13L508.402 369.873L508.558 370.141H541.758L558.354 342.137ZM493.22 342.137L509.191 315.191H541.133L557.104 342.137L541.133 369.083H509.191L493.22 342.137ZM558.354 232.237L541.914 204.493L541.758 204.225H508.558L491.962 232.229L508.402 259.973L508.558 260.241H541.758L558.354 232.237ZM493.22 232.237L509.191 205.291H541.133L557.104 232.237L541.133 259.183H509.191L493.22 232.237ZM558.354 177.287L541.914 149.543L541.758 149.275H508.558L491.962 177.279L508.402 205.023L508.558 205.291H541.758L558.354 177.287ZM493.22 177.287L509.191 150.341H541.133L557.104 177.287L541.133 204.232H509.191L493.22 177.287ZM558.354 122.336L541.914 94.593L541.758 94.3248H508.558L491.962 122.329L508.402 150.072L508.558 150.341H541.758L558.354 122.336ZM493.22 122.336L509.191 95.3904H541.133L557.104 122.336L541.133 149.282H509.191L493.22 122.336ZM607.212 589.42L590.772 561.677L590.616 561.409H557.416L540.82 589.413L557.26 617.156L557.416 617.424H590.616L607.212 589.42ZM542.078 589.42L558.049 562.474H589.991L605.962 589.42L589.991 616.366H558.049L542.078 589.42ZM607.212 534.47L590.772 506.727L590.616 506.458H557.416L540.82 534.463L557.26 562.206L557.416 562.474H590.616L607.212 534.47ZM542.078 534.47L558.049 507.524H589.991L605.962 534.47L589.991 561.416H558.049L542.078 534.47ZM607.212 479.52L590.772 451.776L590.616 451.508H557.416L540.82 479.513L557.26 507.256L557.416 507.524H590.616L607.212 479.52ZM542.078 479.52L558.049 452.574H589.991L605.962 479.52L589.991 506.466H558.049L542.078 479.52ZM607.212 424.57L590.772 396.826L590.616 396.558H557.416L540.82 424.562L557.26 452.306L557.416 452.574H590.616L607.212 424.57ZM542.078 424.57L558.049 397.624H589.991L605.962 424.57L589.991 451.515H558.049L542.078 424.57ZM607.212 369.619L590.772 341.876L590.616 341.608H557.416L540.82 369.612L557.26 397.355L557.416 397.624H590.616L607.212 369.619ZM542.078 369.619L558.049 342.674H589.991L605.962 369.619L589.991 396.565H558.049L542.078 369.619ZM607.212 259.719L590.772 231.976L590.616 231.707H557.416L540.82 259.712L557.26 287.455L557.416 287.723H590.616L607.212 259.719ZM542.078 259.719L558.049 232.773H589.991L605.962 259.719L589.991 286.665H558.049L542.078 259.719ZM607.212 204.769L590.772 177.026L590.616 176.757H557.416L540.82 204.762L557.26 232.505L557.416 232.773H590.616L607.212 204.769ZM542.078 204.769L558.049 177.823H589.991L605.962 204.769L589.991 231.715H558.049L542.078 204.769ZM607.212 149.819L590.772 122.075L590.616 121.807H557.416L540.82 149.811L557.26 177.555L557.416 177.823H590.616L607.212 149.819ZM542.078 149.819L558.049 122.873H589.991L605.962 149.819L589.991 176.765H558.049L542.078 149.819ZM607.212 94.8685L590.772 67.1252L590.616 66.857H557.416L540.82 94.8613L557.26 122.605L557.416 122.873H590.616L607.212 94.8685ZM542.078 94.8685L558.049 67.9226H589.991L605.962 94.8685L589.991 121.814H558.049L542.078 94.8685ZM607.212 39.9256L590.772 12.1822L590.616 11.914H557.416L540.82 39.9183L557.26 67.6616L557.416 67.9299H590.616L607.212 39.9256ZM542.078 39.9256L558.049 12.9797H589.991L605.962 39.9256L589.991 66.8715H558.049L542.078 39.9256ZM656.748 561.938L640.308 534.194L640.152 533.926H606.952L590.356 561.931L606.796 589.674L606.952 589.942H640.152L656.748 561.938ZM591.613 561.938L607.584 534.992H639.527L655.498 561.938L639.527 588.884H607.584L591.613 561.938ZM656.748 506.988L640.308 479.244L640.152 478.976H606.952L590.356 506.98L606.796 534.724L606.952 534.992H640.152L656.748 506.988ZM591.613 506.988L607.584 480.042H639.527L655.498 506.988L639.527 533.934H607.584L591.613 506.988ZM656.748 397.087L640.308 369.344L640.152 369.076H606.952L590.356 397.08L606.796 424.823L606.952 425.092H640.152L656.748 397.087ZM591.613 397.087L607.584 370.141H639.527L655.498 397.087L639.527 424.033H607.584L591.613 397.087ZM656.748 342.137L640.308 314.394L640.152 314.126H606.952L590.356 342.13L606.796 369.873L606.952 370.141H640.152L656.748 342.137ZM591.613 342.137L607.584 315.191H639.527L655.498 342.137L639.527 369.083H607.584L591.613 342.137ZM656.748 287.187L640.308 259.444L640.152 259.175H606.952L590.356 287.18L606.796 314.923L606.952 315.191H640.152L656.748 287.187ZM591.613 287.187L607.584 260.241H639.527L655.498 287.187L639.527 314.133H607.584L591.613 287.187ZM656.748 177.287L640.308 149.543L640.152 149.275H606.952L590.356 177.279L606.796 205.023L606.952 205.291H640.152L656.748 177.287ZM591.613 177.287L607.584 150.341H639.527L655.498 177.287L639.527 204.232H607.584L591.613 177.287ZM656.748 122.336L640.308 94.593L640.152 94.3248H606.952L590.356 122.329L606.796 150.072L606.952 150.341H640.152L656.748 122.336ZM591.613 122.336L607.584 95.3904H639.527L655.498 122.336L639.527 149.282H607.584L591.613 122.336ZM656.748 67.3862L640.308 39.6428L640.152 39.3746H606.952L590.356 67.3789L606.796 95.1222L606.952 95.3904H640.152L656.748 67.3862ZM591.613 67.3862L607.584 40.4403H639.527L655.498 67.3862L639.527 94.3321H607.584L591.613 67.3862ZM656.748 12.436L640.308 -15.3073L640.152 -15.5756H606.952L590.356 12.4287L606.796 40.172L606.952 40.4403H640.152L656.748 12.436ZM591.613 12.436L607.584 -14.5099H639.527L655.498 12.436L639.527 39.3819H607.584L591.613 12.436ZM705.606 589.42L689.166 561.677L689.01 561.409H655.81L639.214 589.413L655.654 617.156L655.81 617.424H689.01L705.606 589.42ZM640.472 589.42L656.443 562.474H688.385L704.356 589.42L688.385 616.366H656.443L640.472 589.42ZM705.606 534.47L689.166 506.727L689.01 506.458H655.81L639.214 534.463L655.654 562.206L655.81 562.474H689.01L705.606 534.47ZM640.472 534.47L656.443 507.524H688.385L704.356 534.47L688.385 561.416H656.443L640.472 534.47ZM705.606 479.52L689.166 451.776L689.01 451.508H655.81L639.214 479.513L655.654 507.256L655.81 507.524H689.01L705.606 479.52ZM640.472 479.52L656.443 452.574H688.385L704.356 479.52L688.385 506.466H656.443L640.472 479.52ZM705.606 369.619L689.166 341.876L689.01 341.608H655.81L639.214 369.612L655.654 397.355L655.81 397.624H689.01L705.606 369.619ZM640.472 369.619L656.443 342.674H688.385L704.356 369.619L688.385 396.565H656.443L640.472 369.619ZM705.606 314.669L689.166 286.926L689.01 286.658H655.81L639.214 314.662L655.654 342.405L655.81 342.674H689.01L705.606 314.669ZM640.472 314.669L656.443 287.723H688.385L704.356 314.669L688.385 341.615H656.443L640.472 314.669ZM705.606 259.719L689.166 231.976L689.01 231.707H655.81L639.214 259.712L655.654 287.455L655.81 287.723H689.01L705.606 259.719ZM640.472 259.719L656.443 232.773H688.385L704.356 259.719L688.385 286.665H656.443L640.472 259.719ZM705.606 204.769L689.166 177.026L689.01 176.757H655.81L639.214 204.762L655.654 232.505L655.81 232.773H689.01L705.606 204.769ZM640.472 204.769L656.443 177.823H688.385L704.356 204.769L688.385 231.715H656.443L640.472 204.769ZM705.606 94.8685L689.166 67.1252L689.01 66.857H655.81L639.214 94.8613L655.654 122.605L655.81 122.873H689.01L705.606 94.8685ZM640.472 94.8685L656.443 67.9226H688.385L704.356 94.8685L688.385 121.814H656.443L640.472 94.8685ZM705.606 39.9256L689.166 12.1822L689.01 11.914H655.81L639.214 39.9183L655.654 67.6616L655.81 67.9299H689.01L705.606 39.9256ZM640.472 39.9256L656.443 12.9797H688.385L704.356 39.9256L688.385 66.8715H656.443L640.472 39.9256ZM755.142 561.938L738.702 534.194L738.546 533.926H705.346L688.749 561.931L705.189 589.674L705.346 589.942H738.546L755.142 561.938ZM690 561.938L705.971 534.992H737.913L753.884 561.938L737.913 588.884H705.971L690 561.938ZM755.142 506.988L738.702 479.244L738.546 478.976H705.346L688.749 506.98L705.189 534.724L705.346 534.992H738.546L755.142 506.988ZM690 506.988L705.971 480.042H737.913L753.884 506.988L737.913 533.934H705.971L690 506.988ZM755.142 452.037L738.702 424.294L738.546 424.026H705.346L688.749 452.03L705.189 479.773L705.346 480.042H738.546L755.142 452.037ZM690 452.037L705.971 425.092H737.913L753.884 452.037L737.913 478.983H705.971L690 452.037ZM755.142 342.137L738.702 314.394L738.546 314.126H705.346L688.749 342.13L705.189 369.873L705.346 370.141H738.546L755.142 342.137ZM690 342.137L705.971 315.191H737.913L753.884 342.137L737.913 369.083H705.971L690 342.137ZM755.142 287.187L738.702 259.444L738.546 259.175H705.346L688.749 287.18L705.189 314.923L705.346 315.191H738.546L755.142 287.187ZM690 287.187L705.971 260.241H737.913L753.884 287.187L737.913 314.133H705.971L690 287.187ZM755.142 232.237L738.702 204.493L738.546 204.225H705.346L688.749 232.229L705.189 259.973L705.346 260.241H738.546L755.142 232.237ZM690 232.237L705.971 205.291H737.913L753.884 232.237L737.913 259.183H705.971L690 232.237ZM755.142 122.336L738.702 94.593L738.546 94.3248H705.346L688.749 122.329L705.189 150.072L705.346 150.341H738.546L755.142 122.336ZM690 122.336L705.971 95.3904H737.913L753.884 122.336L737.913 149.282H705.971L690 122.336ZM755.142 67.3862L738.702 39.6428L738.546 39.3746H705.346L688.749 67.3789L705.189 95.1222L705.346 95.3904H738.546L755.142 67.3862ZM690 67.3862L705.971 40.4403H737.913L753.884 67.3862L737.913 94.3321H705.971L690 67.3862ZM755.142 12.436L738.702 -15.3073L738.546 -15.5756H705.346L688.749 12.4287L705.189 40.172L705.346 40.4403H738.546L755.142 12.436ZM690 12.436L705.971 -14.5099H737.913L753.884 12.436L737.913 39.3819H705.971L690 12.436ZM804 589.42L787.56 561.677L787.404 561.409H754.204L737.608 589.413L754.048 617.156L754.204 617.424H787.404L804 589.42ZM738.858 589.42L754.829 562.474H786.771L802.742 589.42L786.771 616.366H754.829L738.858 589.42ZM804 479.52L787.56 451.776L787.404 451.508H754.204L737.608 479.513L754.048 507.256L754.204 507.524H787.404L804 479.52ZM738.858 479.52L754.829 452.574H786.771L802.742 479.52L786.771 506.466H754.829L738.858 479.52ZM804 424.57L787.56 396.826L787.404 396.558H754.204L737.608 424.562L754.048 452.306L754.204 452.574H787.404L804 424.57ZM738.858 424.57L754.829 397.624H786.771L802.742 424.57L786.771 451.515H754.829L738.858 424.57ZM804 314.669L787.56 286.926L787.404 286.658H754.204L737.608 314.662L754.048 342.405L754.204 342.674H787.404L804 314.669ZM738.858 314.669L754.829 287.723H786.771L802.742 314.669L786.771 341.615H754.829L738.858 314.669ZM804 204.769L787.56 177.026L787.404 176.757H754.204L737.608 204.762L754.048 232.505L754.204 232.773H787.404L804 204.769ZM738.858 204.769L754.829 177.823H786.771L802.742 204.769L786.771 231.715H754.829L738.858 204.769ZM804 149.819L787.56 122.075L787.404 121.807H754.204L737.608 149.811L754.048 177.555L754.204 177.823H787.404L804 149.819ZM738.858 149.819L754.829 122.873H786.771L802.742 149.819L786.771 176.765H754.829L738.858 149.819ZM804 94.8685L787.56 67.1252L787.404 66.857H754.204L737.608 94.8613L754.048 122.605L754.204 122.873H787.404L804 94.8685ZM738.858 94.8685L754.829 67.9226H786.771L802.742 94.8685L786.771 121.814H754.829L738.858 94.8685ZM804 39.9256L787.56 12.1822L787.404 11.914H754.204L737.608 39.9183L754.048 67.6616L754.204 67.9299H787.404L804 39.9256ZM738.858 39.9256L754.829 12.9797H786.771L802.742 39.9256L786.771 66.8715H754.829L738.858 39.9256ZM66.3922 561.938L49.9523 534.194L49.796 533.926H16.5961L0 561.931L16.4399 589.674L16.5961 589.942H49.796L66.3922 561.938ZM1.25769 561.938L17.2288 534.992H49.1708L65.1419 561.938L49.1708 588.884H17.2288L1.25769 561.938ZM66.3922 342.137L49.9523 314.394L49.796 314.126H16.5961L0 342.13L16.4399 369.873L16.5961 370.141H49.796L66.3922 342.137ZM1.25769 342.137L17.2288 315.191H49.1708L65.1419 342.137L49.1708 369.083H17.2288L1.25769 342.137ZM66.3922 122.336L49.9523 94.593L49.796 94.3248H16.5961L0 122.329L16.4399 150.072L16.5961 150.341H49.796L66.3922 122.336ZM1.25769 122.336L17.2288 95.3904H49.1708L65.1419 122.336L49.1708 149.282H17.2288L1.25769 122.336ZM115.251 589.42L98.8106 561.677L98.6543 561.409H65.4545L48.8583 589.413L65.2982 617.156L65.4545 617.424H98.6543L115.251 589.42ZM50.116 589.42L66.0871 562.474H98.0292L114 589.42L98.0292 616.366H66.0871L50.116 589.42ZM115.251 534.47L98.8106 506.727L98.6543 506.458H65.4545L48.8583 534.463L65.2982 562.206L65.4545 562.474H98.6543L115.251 534.47ZM50.116 534.47L66.0871 507.524H98.0292L114 534.47L98.0292 561.416H66.0871L50.116 534.47ZM115.251 424.57L98.8106 396.826L98.6543 396.558H65.4545L48.8583 424.562L65.2982 452.306L65.4545 452.574H98.6543L115.251 424.57ZM50.116 424.57L66.0871 397.624H98.0292L114 424.57L98.0292 451.515H66.0871L50.116 424.57ZM115.251 314.669L98.8106 286.926L98.6543 286.658H65.4545L48.8583 314.662L65.2982 342.405L65.4545 342.674H98.6543L115.251 314.669ZM50.116 314.669L66.0871 287.723H98.0292L114 314.669L98.0292 341.615H66.0871L50.116 314.669ZM115.251 204.769L98.8106 177.026L98.6543 176.757H65.4545L48.8583 204.762L65.2982 232.505L65.4545 232.773H98.6543L115.251 204.769ZM50.116 204.769L66.0871 177.823H98.0292L114 204.769L98.0292 231.715H66.0871L50.116 204.769ZM115.251 94.8685L98.8106 67.1252L98.6543 66.857H65.4545L48.8583 94.8613L65.2982 122.605L65.4545 122.873H98.6543L115.251 94.8685ZM50.116 94.8685L66.0871 67.9226H98.0292L114 94.8685L98.0292 121.814H66.0871L50.116 94.8685ZM164.786 506.988L148.346 479.244L148.19 478.976H114.99L98.3939 506.98L114.834 534.724L114.99 534.992H148.19L164.786 506.988ZM99.6441 506.988L115.615 480.042H147.557L163.528 506.988L147.557 533.934H115.615L99.6441 506.988ZM164.786 397.087L148.346 369.344L148.19 369.076H114.99L98.3939 397.08L114.834 424.823L114.99 425.092H148.19L164.786 397.087ZM99.6441 397.087L115.615 370.141H147.557L163.528 397.087L147.557 424.033H115.615L99.6441 397.087ZM164.786 342.137L148.346 314.394L148.19 314.126H114.99L98.3939 342.13L114.834 369.873L114.99 370.141H148.19L164.786 342.137ZM99.6441 342.137L115.615 315.191H147.557L163.528 342.137L147.557 369.083H115.615L99.6441 342.137ZM164.786 287.187L148.346 259.444L148.19 259.175H114.99L98.3939 287.18L114.834 314.923L114.99 315.191H148.19L164.786 287.187ZM99.6441 287.187L115.615 260.241H147.557L163.528 287.187L147.557 314.133H115.615L99.6441 287.187ZM164.786 177.287L148.346 149.543L148.19 149.275H114.99L98.3939 177.279L114.834 205.023L114.99 205.291H148.19L164.786 177.287ZM99.6441 177.287L115.615 150.341H147.557L163.528 177.287L147.557 204.232H115.615L99.6441 177.287ZM164.786 67.3862L148.346 39.6428L148.19 39.3746H114.99L98.3939 67.3789L114.834 95.1222L114.99 95.3904H148.19L164.786 67.3862ZM99.6441 67.3862L115.615 40.4403H147.557L163.528 67.3862L147.557 94.3321H115.615L99.6441 67.3862ZM213.644 534.47L197.204 506.727L197.048 506.458H163.848L147.252 534.463L163.692 562.206L163.848 562.474H197.048L213.644 534.47ZM148.502 534.47L164.473 507.524H196.416L212.387 534.47L196.416 561.416H164.473L148.502 534.47ZM213.644 424.57L197.204 396.826L197.048 396.558H163.848L147.252 424.562L163.692 452.306L163.848 452.574H197.048L213.644 424.57ZM148.502 424.57L164.473 397.624H196.416L212.387 424.57L196.416 451.515H164.473L148.502 424.57ZM213.644 314.669L197.204 286.926L197.048 286.658H163.848L147.252 314.662L163.692 342.405L163.848 342.674H197.048L213.644 314.669ZM148.502 314.669L164.473 287.723H196.416L212.387 314.669L196.416 341.615H164.473L148.502 314.669ZM213.644 149.819L197.204 122.075L197.048 121.807H163.848L147.252 149.811L163.692 177.555L163.848 177.823H197.048L213.644 149.819ZM148.502 149.819L164.473 122.873H196.416L212.387 149.819L196.416 176.765H164.473L148.502 149.819ZM213.644 94.8685L197.204 67.1252L197.048 66.857H163.848L147.252 94.8613L163.692 122.605L163.848 122.873H197.048L213.644 94.8685ZM148.502 94.8685L164.473 67.9226H196.416L212.387 94.8685L196.416 121.814H164.473L148.502 94.8685ZM213.644 39.9256L197.204 12.1822L197.048 11.914H163.848L147.252 39.9183L163.692 67.6616L163.848 67.9299H197.048L213.644 39.9256ZM148.502 39.9256L164.473 12.9797H196.416L212.387 39.9256L196.416 66.8715H164.473L148.502 39.9256ZM263.18 561.938L246.74 534.194L246.584 533.926H213.384L196.788 561.931L213.228 589.674L213.384 589.942H246.584L263.18 561.938ZM198.038 561.938L214.009 534.992H245.951L261.922 561.938L245.951 588.884H214.009L198.038 561.938ZM263.18 397.087L246.74 369.344L246.584 369.076H213.384L196.788 397.08L213.228 424.823L213.384 425.092H246.584L263.18 397.087ZM198.038 397.087L214.009 370.141H245.951L261.922 397.087L245.951 424.033H214.009L198.038 397.087ZM263.18 342.137L246.74 314.394L246.584 314.126H213.384L196.788 342.13L213.228 369.873L213.384 370.141H246.584L263.18 342.137ZM198.038 342.137L214.009 315.191H245.951L261.922 342.137L245.951 369.083H214.009L198.038 342.137ZM263.18 287.187L246.74 259.444L246.584 259.175H213.384L196.788 287.18L213.228 314.923L213.384 315.191H246.584L263.18 287.187ZM198.038 287.187L214.009 260.241H245.951L261.922 287.187L245.951 314.133H214.009L198.038 287.187ZM263.18 177.287L246.74 149.543L246.584 149.275H213.384L196.788 177.279L213.228 205.023L213.384 205.291H246.584L263.18 177.287ZM198.038 177.287L214.009 150.341H245.951L261.922 177.287L245.951 204.232H214.009L198.038 177.287ZM263.18 122.336L246.74 94.593L246.584 94.3248H213.384L196.788 122.329L213.228 150.072L213.384 150.341H246.584L263.18 122.336ZM198.038 122.336L214.009 95.3904H245.951L261.922 122.336L245.951 149.282H214.009L198.038 122.336ZM263.18 67.3862L246.74 39.6428L246.584 39.3746H213.384L196.788 67.3789L213.228 95.1222L213.384 95.3904H246.584L263.18 67.3862ZM198.038 67.3862L214.009 40.4403H245.951L261.922 67.3862L245.951 94.3321H214.009L198.038 67.3862ZM312.038 479.52L295.598 451.776L295.442 451.508H262.242L245.646 479.513L262.086 507.256L262.242 507.524H295.442L312.038 479.52ZM246.896 479.52L262.867 452.574H294.809L310.78 479.52L294.809 506.466H262.867L246.896 479.52ZM312.038 424.57L295.598 396.826L295.442 396.558H262.242L245.646 424.562L262.086 452.306L262.242 452.574H295.442L312.038 424.57ZM246.896 424.57L262.867 397.624H294.809L310.78 424.57L294.809 451.515H262.867L246.896 424.57ZM312.038 369.619L295.598 341.876L295.442 341.608H262.242L245.646 369.612L262.086 397.355L262.242 397.624H295.442L312.038 369.619ZM246.896 369.619L262.867 342.674H294.809L310.78 369.619L294.809 396.565H262.867L246.896 369.619ZM312.038 314.669L295.598 286.926L295.442 286.658H262.242L245.646 314.662L262.086 342.405L262.242 342.674H295.442L312.038 314.669ZM246.896 314.669L262.867 287.723H294.809L310.78 314.669L294.809 341.615H262.867L246.896 314.669ZM312.038 204.769L295.598 177.026L295.442 176.757H262.242L245.646 204.762L262.086 232.505L262.242 232.773H295.442L312.038 204.769ZM246.896 204.769L262.867 177.823H294.809L310.78 204.769L294.809 231.715H262.867L246.896 204.769ZM312.038 149.819L295.598 122.075L295.442 121.807H262.242L245.646 149.811L262.086 177.555L262.242 177.823H295.442L312.038 149.819ZM246.896 149.819L262.867 122.873H294.809L310.78 149.819L294.809 176.765H262.867L246.896 149.819ZM361.574 561.938L345.134 534.194L344.978 533.926H311.778L295.182 561.931L311.621 589.674L311.778 589.942H344.978L361.574 561.938ZM296.432 561.938L312.403 534.992H344.345L360.316 561.938L344.345 588.884H312.403L296.432 561.938ZM361.574 506.988L345.134 479.244L344.978 478.976H311.778L295.182 506.98L311.621 534.724L311.778 534.992H344.978L361.574 506.988ZM296.432 506.988L312.403 480.042H344.345L360.316 506.988L344.345 533.934H312.403L296.432 506.988ZM361.574 452.037L345.134 424.294L344.978 424.026H311.778L295.182 452.03L311.621 479.773L311.778 480.042H344.978L361.574 452.037ZM296.432 452.037L312.403 425.092H344.345L360.316 452.037L344.345 478.983H312.403L296.432 452.037ZM361.574 397.087L345.134 369.344L344.978 369.076H311.778L295.182 397.08L311.621 424.823L311.778 425.092H344.978L361.574 397.087ZM296.432 397.087L312.403 370.141H344.345L360.316 397.087L344.345 424.033H312.403L296.432 397.087ZM361.574 232.237L345.134 204.493L344.978 204.225H311.778L295.182 232.229L311.621 259.973L311.778 260.241H344.978L361.574 232.237ZM296.432 232.237L312.403 205.291H344.345L360.316 232.237L344.345 259.183H312.403L296.432 232.237ZM361.574 177.287L345.134 149.543L344.978 149.275H311.778L295.182 177.279L311.621 205.023L311.778 205.291H344.978L361.574 177.287ZM296.432 177.287L312.403 150.341H344.345L360.316 177.287L344.345 204.232H312.403L296.432 177.287ZM361.574 122.336L345.134 94.593L344.978 94.3248H311.778L295.182 122.329L311.621 150.072L311.778 150.341H344.978L361.574 122.336ZM296.432 122.336L312.403 95.3904H344.345L360.316 122.336L344.345 149.282H312.403L296.432 122.336ZM361.574 67.3862L345.134 39.6428L344.978 39.3746H311.778L295.182 67.3789L311.621 95.1222L311.778 95.3904H344.978L361.574 67.3862ZM296.432 67.3862L312.403 40.4403H344.345L360.316 67.3862L344.345 94.3321H312.403L296.432 67.3862ZM361.574 12.436L345.134 -15.3073L344.978 -15.5756H311.778L295.182 12.4287L311.621 40.172L311.778 40.4403H344.978L361.574 12.436ZM296.432 12.436L312.403 -14.5099H344.345L360.316 12.436L344.345 39.3819H312.403L296.432 12.436ZM410.432 589.42L393.992 561.677L393.836 561.409H360.636L344.04 589.413L360.48 617.156L360.636 617.424H393.836L410.432 589.42ZM345.29 589.42L361.261 562.474H393.203L409.174 589.42L393.203 616.366H361.261L345.29 589.42ZM410.432 534.47L393.992 506.727L393.836 506.458H360.636L344.04 534.463L360.48 562.206L360.636 562.474H393.836L410.432 534.47ZM345.29 534.47L361.261 507.524H393.203L409.174 534.47L393.203 561.416H361.261L345.29 534.47ZM410.432 424.57L393.992 396.826L393.836 396.558H360.636L344.04 424.562L360.48 452.306L360.636 452.574H393.836L410.432 424.57ZM345.29 424.57L361.261 397.624H393.203L409.174 424.57L393.203 451.515H361.261L345.29 424.57ZM410.432 314.669L393.992 286.926L393.836 286.658H360.636L344.04 314.662L360.48 342.405L360.636 342.674H393.836L410.432 314.669ZM345.29 314.669L361.261 287.723H393.203L409.174 314.669L393.203 341.615H361.261L345.29 314.669ZM410.432 259.719L393.992 231.976L393.836 231.707H360.636L344.04 259.712L360.48 287.455L360.636 287.723H393.836L410.432 259.719ZM345.29 259.719L361.261 232.773H393.203L409.174 259.719L393.203 286.665H361.261L345.29 259.719ZM410.432 204.769L393.992 177.026L393.836 176.757H360.636L344.04 204.762L360.48 232.505L360.636 232.773H393.836L410.432 204.769ZM345.29 204.769L361.261 177.823H393.203L409.174 204.769L393.203 231.715H361.261L345.29 204.769ZM410.432 94.8685L393.992 67.1252L393.836 66.857H360.636L344.04 94.8613L360.48 122.605L360.636 122.873H393.836L410.432 94.8685ZM345.29 94.8685L361.261 67.9226H393.203L409.174 94.8685L393.203 121.814H361.261L345.29 94.8685ZM459.96 506.988L443.52 479.244L443.364 478.976H410.164L393.568 506.98L410.008 534.724L410.164 534.992H443.364L459.96 506.988ZM394.826 506.988L410.797 480.042H442.739L458.71 506.988L442.739 533.934H410.797L394.826 506.988ZM459.96 397.087L443.52 369.344L443.364 369.076H410.164L393.568 397.08L410.008 424.823L410.164 425.092H443.364L459.96 397.087ZM394.826 397.087L410.797 370.141H442.739L458.71 397.087L442.739 424.033H410.797L394.826 397.087ZM459.96 287.187L443.52 259.444L443.364 259.175H410.164L393.568 287.18L410.008 314.923L410.164 315.191H443.364L459.96 287.187ZM394.826 287.187L410.797 260.241H442.739L458.71 287.187L442.739 314.133H410.797L394.826 287.187ZM459.96 232.237L443.52 204.493L443.364 204.225H410.164L393.568 232.229L410.008 259.973L410.164 260.241H443.364L459.96 232.237ZM394.826 232.237L410.797 205.291H442.739L458.71 232.237L442.739 259.183H410.797L394.826 232.237ZM459.96 122.336L443.52 94.593L443.364 94.3248H410.164L393.568 122.329L410.008 150.072L410.164 150.341H443.364L459.96 122.336ZM394.826 122.336L410.797 95.3904H442.739L458.71 122.336L442.739 149.282H410.797L394.826 122.336ZM459.96 67.3862L443.52 39.6428L443.364 39.3746H410.164L393.568 67.3789L410.008 95.1222L410.164 95.3904H443.364L459.96 67.3862ZM394.826 67.3862L410.797 40.4403H442.739L458.71 67.3862L442.739 94.3321H410.797L394.826 67.3862ZM459.96 12.436L443.52 -15.3073L443.364 -15.5756H410.164L393.568 12.4287L410.008 40.172L410.164 40.4403H443.364L459.96 12.436ZM394.826 12.436L410.797 -14.5099H442.739L458.71 12.436L442.739 39.3819H410.797L394.826 12.436ZM508.826 479.52L492.386 451.776L492.23 451.508H459.03L442.434 479.513L458.874 507.256L459.03 507.524H492.23L508.826 479.52ZM443.684 479.52L459.655 452.574H491.597L507.568 479.52L491.597 506.466H459.655L443.684 479.52ZM508.826 424.57L492.386 396.826L492.23 396.558H459.03L442.434 424.562L458.874 452.306L459.03 452.574H492.23L508.826 424.57ZM443.684 424.57L459.655 397.624H491.597L507.568 424.57L491.597 451.515H459.655L443.684 424.57ZM508.826 369.619L492.386 341.876L492.23 341.608H459.03L442.434 369.612L458.874 397.355L459.03 397.624H492.23L508.826 369.619ZM443.684 369.619L459.655 342.674H491.597L507.568 369.619L491.597 396.565H459.655L443.684 369.619ZM508.826 314.669L492.386 286.926L492.23 286.658H459.03L442.434 314.662L458.874 342.405L459.03 342.674H492.23L508.826 314.669ZM443.684 314.669L459.655 287.723H491.597L507.568 314.669L491.597 341.615H459.655L443.684 314.669ZM508.826 259.719L492.386 231.976L492.23 231.707H459.03L442.434 259.712L458.874 287.455L459.03 287.723H492.23L508.826 259.719ZM443.684 259.719L459.655 232.773H491.597L507.568 259.719L491.597 286.665H459.655L443.684 259.719ZM508.826 204.769L492.386 177.026L492.23 176.757H459.03L442.434 204.762L458.874 232.505L459.03 232.773H492.23L508.826 204.769ZM443.684 204.769L459.655 177.823H491.597L507.568 204.769L491.597 231.715H459.655L443.684 204.769ZM558.354 561.938L541.914 534.194L541.758 533.926H508.558L491.962 561.931L508.402 589.674L508.558 589.942H541.758L558.354 561.938ZM493.22 561.938L509.191 534.992H541.133L557.104 561.938L541.133 588.884H509.191L493.22 561.938ZM558.354 506.988L541.914 479.244L541.758 478.976H508.558L491.962 506.98L508.402 534.724L508.558 534.992H541.758L558.354 506.988ZM493.22 506.988L509.191 480.042H541.133L557.104 506.988L541.133 533.934H509.191L493.22 506.988ZM558.354 452.037L541.914 424.294L541.758 424.026H508.558L491.962 452.03L508.402 479.773L508.558 480.042H541.758L558.354 452.037ZM493.22 452.037L509.191 425.092H541.133L557.104 452.037L541.133 478.983H509.191L493.22 452.037ZM558.354 342.137L541.914 314.394L541.758 314.126H508.558L491.962 342.13L508.402 369.873L508.558 370.141H541.758L558.354 342.137ZM493.22 342.137L509.191 315.191H541.133L557.104 342.137L541.133 369.083H509.191L493.22 342.137ZM558.354 232.237L541.914 204.493L541.758 204.225H508.558L491.962 232.229L508.402 259.973L508.558 260.241H541.758L558.354 232.237ZM493.22 232.237L509.191 205.291H541.133L557.104 232.237L541.133 259.183H509.191L493.22 232.237ZM558.354 177.287L541.914 149.543L541.758 149.275H508.558L491.962 177.279L508.402 205.023L508.558 205.291H541.758L558.354 177.287ZM493.22 177.287L509.191 150.341H541.133L557.104 177.287L541.133 204.232H509.191L493.22 177.287ZM558.354 122.336L541.914 94.593L541.758 94.3248H508.558L491.962 122.329L508.402 150.072L508.558 150.341H541.758L558.354 122.336ZM493.22 122.336L509.191 95.3904H541.133L557.104 122.336L541.133 149.282H509.191L493.22 122.336ZM607.212 589.42L590.772 561.677L590.616 561.409H557.416L540.82 589.413L557.26 617.156L557.416 617.424H590.616L607.212 589.42ZM542.078 589.42L558.049 562.474H589.991L605.962 589.42L589.991 616.366H558.049L542.078 589.42ZM607.212 534.47L590.772 506.727L590.616 506.458H557.416L540.82 534.463L557.26 562.206L557.416 562.474H590.616L607.212 534.47ZM542.078 534.47L558.049 507.524H589.991L605.962 534.47L589.991 561.416H558.049L542.078 534.47ZM607.212 479.52L590.772 451.776L590.616 451.508H557.416L540.82 479.513L557.26 507.256L557.416 507.524H590.616L607.212 479.52ZM542.078 479.52L558.049 452.574H589.991L605.962 479.52L589.991 506.466H558.049L542.078 479.52ZM607.212 424.57L590.772 396.826L590.616 396.558H557.416L540.82 424.562L557.26 452.306L557.416 452.574H590.616L607.212 424.57ZM542.078 424.57L558.049 397.624H589.991L605.962 424.57L589.991 451.515H558.049L542.078 424.57ZM607.212 369.619L590.772 341.876L590.616 341.608H557.416L540.82 369.612L557.26 397.355L557.416 397.624H590.616L607.212 369.619ZM542.078 369.619L558.049 342.674H589.991L605.962 369.619L589.991 396.565H558.049L542.078 369.619ZM607.212 259.719L590.772 231.976L590.616 231.707H557.416L540.82 259.712L557.26 287.455L557.416 287.723H590.616L607.212 259.719ZM542.078 259.719L558.049 232.773H589.991L605.962 259.719L589.991 286.665H558.049L542.078 259.719ZM607.212 204.769L590.772 177.026L590.616 176.757H557.416L540.82 204.762L557.26 232.505L557.416 232.773H590.616L607.212 204.769ZM542.078 204.769L558.049 177.823H589.991L605.962 204.769L589.991 231.715H558.049L542.078 204.769ZM607.212 149.819L590.772 122.075L590.616 121.807H557.416L540.82 149.811L557.26 177.555L557.416 177.823H590.616L607.212 149.819ZM542.078 149.819L558.049 122.873H589.991L605.962 149.819L589.991 176.765H558.049L542.078 149.819ZM607.212 94.8685L590.772 67.1252L590.616 66.857H557.416L540.82 94.8613L557.26 122.605L557.416 122.873H590.616L607.212 94.8685ZM542.078 94.8685L558.049 67.9226H589.991L605.962 94.8685L589.991 121.814H558.049L542.078 94.8685ZM607.212 39.9256L590.772 12.1822L590.616 11.914H557.416L540.82 39.9183L557.26 67.6616L557.416 67.9299H590.616L607.212 39.9256ZM542.078 39.9256L558.049 12.9797H589.991L605.962 39.9256L589.991 66.8715H558.049L542.078 39.9256ZM656.748 561.938L640.308 534.194L640.152 533.926H606.952L590.356 561.931L606.796 589.674L606.952 589.942H640.152L656.748 561.938ZM591.613 561.938L607.584 534.992H639.527L655.498 561.938L639.527 588.884H607.584L591.613 561.938ZM656.748 506.988L640.308 479.244L640.152 478.976H606.952L590.356 506.98L606.796 534.724L606.952 534.992H640.152L656.748 506.988ZM591.613 506.988L607.584 480.042H639.527L655.498 506.988L639.527 533.934H607.584L591.613 506.988ZM656.748 397.087L640.308 369.344L640.152 369.076H606.952L590.356 397.08L606.796 424.823L606.952 425.092H640.152L656.748 397.087ZM591.613 397.087L607.584 370.141H639.527L655.498 397.087L639.527 424.033H607.584L591.613 397.087ZM656.748 342.137L640.308 314.394L640.152 314.126H606.952L590.356 342.13L606.796 369.873L606.952 370.141H640.152L656.748 342.137ZM591.613 342.137L607.584 315.191H639.527L655.498 342.137L639.527 369.083H607.584L591.613 342.137ZM656.748 287.187L640.308 259.444L640.152 259.175H606.952L590.356 287.18L606.796 314.923L606.952 315.191H640.152L656.748 287.187ZM591.613 287.187L607.584 260.241H639.527L655.498 287.187L639.527 314.133H607.584L591.613 287.187ZM656.748 177.287L640.308 149.543L640.152 149.275H606.952L590.356 177.279L606.796 205.023L606.952 205.291H640.152L656.748 177.287ZM591.613 177.287L607.584 150.341H639.527L655.498 177.287L639.527 204.232H607.584L591.613 177.287ZM656.748 122.336L640.308 94.593L640.152 94.3248H606.952L590.356 122.329L606.796 150.072L606.952 150.341H640.152L656.748 122.336ZM591.613 122.336L607.584 95.3904H639.527L655.498 122.336L639.527 149.282H607.584L591.613 122.336ZM656.748 67.3862L640.308 39.6428L640.152 39.3746H606.952L590.356 67.3789L606.796 95.1222L606.952 95.3904H640.152L656.748 67.3862ZM591.613 67.3862L607.584 40.4403H639.527L655.498 67.3862L639.527 94.3321H607.584L591.613 67.3862ZM656.748 12.436L640.308 -15.3073L640.152 -15.5756H606.952L590.356 12.4287L606.796 40.172L606.952 40.4403H640.152L656.748 12.436ZM591.613 12.436L607.584 -14.5099H639.527L655.498 12.436L639.527 39.3819H607.584L591.613 12.436ZM705.606 589.42L689.166 561.677L689.01 561.409H655.81L639.214 589.413L655.654 617.156L655.81 617.424H689.01L705.606 589.42ZM640.472 589.42L656.443 562.474H688.385L704.356 589.42L688.385 616.366H656.443L640.472 589.42ZM705.606 534.47L689.166 506.727L689.01 506.458H655.81L639.214 534.463L655.654 562.206L655.81 562.474H689.01L705.606 534.47ZM640.472 534.47L656.443 507.524H688.385L704.356 534.47L688.385 561.416H656.443L640.472 534.47ZM705.606 479.52L689.166 451.776L689.01 451.508H655.81L639.214 479.513L655.654 507.256L655.81 507.524H689.01L705.606 479.52ZM640.472 479.52L656.443 452.574H688.385L704.356 479.52L688.385 506.466H656.443L640.472 479.52ZM705.606 369.619L689.166 341.876L689.01 341.608H655.81L639.214 369.612L655.654 397.355L655.81 397.624H689.01L705.606 369.619ZM640.472 369.619L656.443 342.674H688.385L704.356 369.619L688.385 396.565H656.443L640.472 369.619ZM705.606 314.669L689.166 286.926L689.01 286.658H655.81L639.214 314.662L655.654 342.405L655.81 342.674H689.01L705.606 314.669ZM640.472 314.669L656.443 287.723H688.385L704.356 314.669L688.385 341.615H656.443L640.472 314.669ZM705.606 259.719L689.166 231.976L689.01 231.707H655.81L639.214 259.712L655.654 287.455L655.81 287.723H689.01L705.606 259.719ZM640.472 259.719L656.443 232.773H688.385L704.356 259.719L688.385 286.665H656.443L640.472 259.719ZM705.606 204.769L689.166 177.026L689.01 176.757H655.81L639.214 204.762L655.654 232.505L655.81 232.773H689.01L705.606 204.769ZM640.472 204.769L656.443 177.823H688.385L704.356 204.769L688.385 231.715H656.443L640.472 204.769ZM705.606 94.8685L689.166 67.1252L689.01 66.857H655.81L639.214 94.8613L655.654 122.605L655.81 122.873H689.01L705.606 94.8685ZM640.472 94.8685L656.443 67.9226H688.385L704.356 94.8685L688.385 121.814H656.443L640.472 94.8685ZM705.606 39.9256L689.166 12.1822L689.01 11.914H655.81L639.214 39.9183L655.654 67.6616L655.81 67.9299H689.01L705.606 39.9256ZM640.472 39.9256L656.443 12.9797H688.385L704.356 39.9256L688.385 66.8715H656.443L640.472 39.9256ZM755.142 561.938L738.702 534.194L738.546 533.926H705.346L688.749 561.931L705.189 589.674L705.346 589.942H738.546L755.142 561.938ZM690 561.938L705.971 534.992H737.913L753.884 561.938L737.913 588.884H705.971L690 561.938ZM755.142 506.988L738.702 479.244L738.546 478.976H705.346L688.749 506.98L705.189 534.724L705.346 534.992H738.546L755.142 506.988ZM690 506.988L705.971 480.042H737.913L753.884 506.988L737.913 533.934H705.971L690 506.988ZM755.142 452.037L738.702 424.294L738.546 424.026H705.346L688.749 452.03L705.189 479.773L705.346 480.042H738.546L755.142 452.037ZM690 452.037L705.971 425.092H737.913L753.884 452.037L737.913 478.983H705.971L690 452.037ZM755.142 342.137L738.702 314.394L738.546 314.126H705.346L688.749 342.13L705.189 369.873L705.346 370.141H738.546L755.142 342.137ZM690 342.137L705.971 315.191H737.913L753.884 342.137L737.913 369.083H705.971L690 342.137ZM755.142 287.187L738.702 259.444L738.546 259.175H705.346L688.749 287.18L705.189 314.923L705.346 315.191H738.546L755.142 287.187ZM690 287.187L705.971 260.241H737.913L753.884 287.187L737.913 314.133H705.971L690 287.187ZM755.142 232.237L738.702 204.493L738.546 204.225H705.346L688.749 232.229L705.189 259.973L705.346 260.241H738.546L755.142 232.237ZM690 232.237L705.971 205.291H737.913L753.884 232.237L737.913 259.183H705.971L690 232.237ZM755.142 122.336L738.702 94.593L738.546 94.3248H705.346L688.749 122.329L705.189 150.072L705.346 150.341H738.546L755.142 122.336ZM690 122.336L705.971 95.3904H737.913L753.884 122.336L737.913 149.282H705.971L690 122.336ZM755.142 67.3862L738.702 39.6428L738.546 39.3746H705.346L688.749 67.3789L705.189 95.1222L705.346 95.3904H738.546L755.142 67.3862ZM690 67.3862L705.971 40.4403H737.913L753.884 67.3862L737.913 94.3321H705.971L690 67.3862ZM755.142 12.436L738.702 -15.3073L738.546 -15.5756H705.346L688.749 12.4287L705.189 40.172L705.346 40.4403H738.546L755.142 12.436ZM690 12.436L705.971 -14.5099H737.913L753.884 12.436L737.913 39.3819H705.971L690 12.436ZM804 589.42L787.56 561.677L787.404 561.409H754.204L737.608 589.413L754.048 617.156L754.204 617.424H787.404L804 589.42ZM738.858 589.42L754.829 562.474H786.771L802.742 589.42L786.771 616.366H754.829L738.858 589.42ZM804 479.52L787.56 451.776L787.404 451.508H754.204L737.608 479.513L754.048 507.256L754.204 507.524H787.404L804 479.52ZM738.858 479.52L754.829 452.574H786.771L802.742 479.52L786.771 506.466H754.829L738.858 479.52ZM804 424.57L787.56 396.826L787.404 396.558H754.204L737.608 424.562L754.048 452.306L754.204 452.574H787.404L804 424.57ZM738.858 424.57L754.829 397.624H786.771L802.742 424.57L786.771 451.515H754.829L738.858 424.57ZM804 314.669L787.56 286.926L787.404 286.658H754.204L737.608 314.662L754.048 342.405L754.204 342.674H787.404L804 314.669ZM738.858 314.669L754.829 287.723H786.771L802.742 314.669L786.771 341.615H754.829L738.858 314.669ZM804 204.769L787.56 177.026L787.404 176.757H754.204L737.608 204.762L754.048 232.505L754.204 232.773H787.404L804 204.769ZM738.858 204.769L754.829 177.823H786.771L802.742 204.769L786.771 231.715H754.829L738.858 204.769ZM804 149.819L787.56 122.075L787.404 121.807H754.204L737.608 149.811L754.048 177.555L754.204 177.823H787.404L804 149.819ZM738.858 149.819L754.829 122.873H786.771L802.742 149.819L786.771 176.765H754.829L738.858 149.819ZM804 94.8685L787.56 67.1252L787.404 66.857H754.204L737.608 94.8613L754.048 122.605L754.204 122.873H787.404L804 94.8685ZM738.858 94.8685L754.829 67.9226H786.771L802.742 94.8685L786.771 121.814H754.829L738.858 94.8685ZM804 39.9256L787.56 12.1822L787.404 11.914H754.204L737.608 39.9183L754.048 67.6616L754.204 67.9299H787.404L804 39.9256ZM738.858 39.9256L754.829 12.9797H786.771L802.742 39.9256L786.771 66.8715H754.829L738.858 39.9256Z" fill="url(#paint0_linear_4166_10108)"/>
<defs>
<linearGradient id="paint0_linear_4166_10108" x1="70.5" y1="82.5" x2="4.93313e-06" y2="592" gradientUnits="userSpaceOnUse">
<stop stop-color="#075F55"/>
<stop offset="0.5" stop-color="#9AC12A" stop-opacity="0.4"/>
<stop offset="1" stop-color="#00A164"/>
</linearGradient>
</defs>
</svg>
