<svg width="68" height="477" viewBox="0 0 68 477" fill="none" xmlns="http://www.w3.org/2000/svg">
<path d="M1.60779 561.938L18.0477 534.194L18.204 533.926H51.4039L68 561.931L51.5601 589.674L51.4039 589.942H18.204L1.60779 561.938ZM66.7423 561.938L50.7712 534.992H18.8292L2.85809 561.938L18.8292 588.884H50.7712L66.7423 561.938ZM1.60779 342.137L18.0477 314.394L18.204 314.126H51.4039L68 342.13L51.5601 369.873L51.4039 370.141H18.204L1.60779 342.137ZM66.7423 342.137L50.7712 315.191H18.8292L2.85809 342.137L18.8292 369.083H50.7712L66.7423 342.137ZM1.60779 122.336L18.0477 94.593L18.204 94.3248H51.4039L68 122.329L51.5601 150.072L51.4039 150.341H18.204L1.60779 122.336ZM66.7423 122.336L50.7712 95.3904H18.8292L2.85809 122.336L18.8292 149.282H50.7712L66.7423 122.336ZM-47.2505 589.42L-30.8106 561.677L-30.6543 561.409H2.54553L19.1417 589.413L2.70178 617.156L2.54553 617.424H-30.6543L-47.2505 589.42ZM17.884 589.42L1.9129 562.474H-30.0292L-46.0002 589.42L-30.0292 616.366H1.9129L17.884 589.42ZM-47.2505 534.47L-30.8106 506.727L-30.6543 506.458H2.54553L19.1417 534.463L2.70178 562.206L2.54553 562.474H-30.6543L-47.2505 534.47ZM17.884 534.47L1.9129 507.524H-30.0292L-46.0002 534.47L-30.0292 561.416H1.9129L17.884 534.47ZM-47.2505 424.57L-30.8106 396.826L-30.6543 396.558H2.54553L19.1417 424.562L2.70178 452.306L2.54553 452.574H-30.6543L-47.2505 424.57ZM17.884 424.57L1.9129 397.624H-30.0292L-46.0002 424.57L-30.0292 451.515H1.9129L17.884 424.57ZM-47.2505 314.669L-30.8106 286.926L-30.6543 286.658H2.54553L19.1417 314.662L2.70178 342.405L2.54553 342.674H-30.6543L-47.2505 314.669ZM17.884 314.669L1.9129 287.723H-30.0292L-46.0002 314.669L-30.0292 341.615H1.9129L17.884 314.669ZM-47.2505 204.769L-30.8106 177.026L-30.6543 176.757H2.54553L19.1417 204.762L2.70178 232.505L2.54553 232.773H-30.6543L-47.2505 204.769ZM17.884 204.769L1.9129 177.823H-30.0292L-46.0002 204.769L-30.0292 231.715H1.9129L17.884 204.769ZM-47.2505 94.8685L-30.8106 67.1252L-30.6543 66.857H2.54553L19.1417 94.8613L2.70178 122.605L2.54553 122.873H-30.6543L-47.2505 94.8685ZM17.884 94.8685L1.9129 67.9226H-30.0292L-46.0002 94.8685L-30.0292 121.814H1.9129L17.884 94.8685ZM-96.7861 506.988L-80.3461 479.244L-80.1899 478.976H-46.9901L-30.3939 506.98L-46.8337 534.724L-46.9901 534.992H-80.1899L-96.7861 506.988ZM-31.6441 506.988L-47.6152 480.042H-79.5573L-95.5283 506.988L-79.5573 533.934H-47.6152L-31.6441 506.988ZM-96.7861 397.087L-80.3461 369.344L-80.1899 369.076H-46.9901L-30.3939 397.08L-46.8337 424.823L-46.9901 425.092H-80.1899L-96.7861 397.087ZM-31.6441 397.087L-47.6152 370.141H-79.5573L-95.5283 397.087L-79.5573 424.033H-47.6152L-31.6441 397.087ZM-96.7861 342.137L-80.3461 314.394L-80.1899 314.126H-46.9901L-30.3939 342.13L-46.8337 369.873L-46.9901 370.141H-80.1899L-96.7861 342.137ZM-31.6441 342.137L-47.6152 315.191H-79.5573L-95.5283 342.137L-79.5573 369.083H-47.6152L-31.6441 342.137ZM-96.7861 287.187L-80.3461 259.444L-80.1899 259.175H-46.9901L-30.3939 287.18L-46.8337 314.923L-46.9901 315.191H-80.1899L-96.7861 287.187ZM-31.6441 287.187L-47.6152 260.241H-79.5573L-95.5283 287.187L-79.5573 314.133H-47.6152L-31.6441 287.187ZM-96.7861 177.287L-80.3461 149.543L-80.1899 149.275H-46.9901L-30.3939 177.279L-46.8337 205.023L-46.9901 205.291H-80.1899L-96.7861 177.287ZM-31.6441 177.287L-47.6152 150.341H-79.5573L-95.5283 177.287L-79.5573 204.232H-47.6152L-31.6441 177.287ZM-96.7861 67.3862L-80.3461 39.6428L-80.1899 39.3746H-46.9901L-30.3939 67.3789L-46.8337 95.1222L-46.9901 95.3904H-80.1899L-96.7861 67.3862ZM-31.6441 67.3862L-47.6152 40.4403H-79.5573L-95.5283 67.3862L-79.5573 94.3321H-47.6152L-31.6441 67.3862ZM-145.644 534.47L-129.204 506.727L-129.048 506.458H-95.8483L-79.2521 534.463L-95.692 562.206L-95.8483 562.474H-129.048L-145.644 534.47ZM-80.5024 534.47L-96.4734 507.524H-128.416L-144.387 534.47L-128.416 561.416H-96.4734L-80.5024 534.47ZM-145.644 424.57L-129.204 396.826L-129.048 396.558H-95.8483L-79.2521 424.562L-95.692 452.306L-95.8483 452.574H-129.048L-145.644 424.57ZM-80.5024 424.57L-96.4734 397.624H-128.416L-144.387 424.57L-128.416 451.515H-96.4734L-80.5024 424.57ZM-145.644 314.669L-129.204 286.926L-129.048 286.658H-95.8483L-79.2521 314.662L-95.692 342.405L-95.8483 342.674H-129.048L-145.644 314.669ZM-80.5024 314.669L-96.4734 287.723H-128.416L-144.387 314.669L-128.416 341.615H-96.4734L-80.5024 314.669ZM-145.644 149.819L-129.204 122.075L-129.048 121.807H-95.8483L-79.2521 149.811L-95.692 177.555L-95.8483 177.823H-129.048L-145.644 149.819ZM-80.5024 149.819L-96.4734 122.873H-128.416L-144.387 149.819L-128.416 176.765H-96.4734L-80.5024 149.819ZM-145.644 94.8685L-129.204 67.1252L-129.048 66.857H-95.8483L-79.2521 94.8613L-95.692 122.605L-95.8483 122.873H-129.048L-145.644 94.8685ZM-80.5024 94.8685L-96.4734 67.9226H-128.416L-144.387 94.8685L-128.416 121.814H-96.4734L-80.5024 94.8685ZM-145.644 39.9256L-129.204 12.1822L-129.048 11.914H-95.8483L-79.2521 39.9183L-95.692 67.6616L-95.8483 67.9299H-129.048L-145.644 39.9256ZM-80.5024 39.9256L-96.4734 12.9797H-128.416L-144.387 39.9256L-128.416 66.8715H-96.4734L-80.5024 39.9256ZM-195.18 561.938L-178.74 534.194L-178.584 533.926H-145.384L-128.788 561.931L-145.228 589.674L-145.384 589.942H-178.584L-195.18 561.938ZM-130.038 561.938L-146.009 534.992H-177.951L-193.922 561.938L-177.951 588.884H-146.009L-130.038 561.938ZM-195.18 397.087L-178.74 369.344L-178.584 369.076H-145.384L-128.788 397.08L-145.228 424.823L-145.384 425.092H-178.584L-195.18 397.087ZM-130.038 397.087L-146.009 370.141H-177.951L-193.922 397.087L-177.951 424.033H-146.009L-130.038 397.087ZM-195.18 342.137L-178.74 314.394L-178.584 314.126H-145.384L-128.788 342.13L-145.228 369.873L-145.384 370.141H-178.584L-195.18 342.137ZM-130.038 342.137L-146.009 315.191H-177.951L-193.922 342.137L-177.951 369.083H-146.009L-130.038 342.137ZM-195.18 287.187L-178.74 259.444L-178.584 259.175H-145.384L-128.788 287.18L-145.228 314.923L-145.384 315.191H-178.584L-195.18 287.187ZM-130.038 287.187L-146.009 260.241H-177.951L-193.922 287.187L-177.951 314.133H-146.009L-130.038 287.187ZM-195.18 177.287L-178.74 149.543L-178.584 149.275H-145.384L-128.788 177.279L-145.228 205.023L-145.384 205.291H-178.584L-195.18 177.287ZM-130.038 177.287L-146.009 150.341H-177.951L-193.922 177.287L-177.951 204.232H-146.009L-130.038 177.287ZM-195.18 122.336L-178.74 94.593L-178.584 94.3248H-145.384L-128.788 122.329L-145.228 150.072L-145.384 150.341H-178.584L-195.18 122.336ZM-130.038 122.336L-146.009 95.3904H-177.951L-193.922 122.336L-177.951 149.282H-146.009L-130.038 122.336ZM-195.18 67.3862L-178.74 39.6428L-178.584 39.3746H-145.384L-128.788 67.3789L-145.228 95.1222L-145.384 95.3904H-178.584L-195.18 67.3862ZM-130.038 67.3862L-146.009 40.4403H-177.951L-193.922 67.3862L-177.951 94.3321H-146.009L-130.038 67.3862ZM-244.038 479.52L-227.598 451.776L-227.442 451.508H-194.242L-177.646 479.513L-194.086 507.256L-194.242 507.524H-227.442L-244.038 479.52ZM-178.896 479.52L-194.867 452.574H-226.809L-242.78 479.52L-226.809 506.466H-194.867L-178.896 479.52ZM-244.038 424.57L-227.598 396.826L-227.442 396.558H-194.242L-177.646 424.562L-194.086 452.306L-194.242 452.574H-227.442L-244.038 424.57ZM-178.896 424.57L-194.867 397.624H-226.809L-242.78 424.57L-226.809 451.515H-194.867L-178.896 424.57ZM-244.038 369.619L-227.598 341.876L-227.442 341.608H-194.242L-177.646 369.612L-194.086 397.355L-194.242 397.624H-227.442L-244.038 369.619ZM-178.896 369.619L-194.867 342.674H-226.809L-242.78 369.619L-226.809 396.565H-194.867L-178.896 369.619ZM-244.038 314.669L-227.598 286.926L-227.442 286.658H-194.242L-177.646 314.662L-194.086 342.405L-194.242 342.674H-227.442L-244.038 314.669ZM-178.896 314.669L-194.867 287.723H-226.809L-242.78 314.669L-226.809 341.615H-194.867L-178.896 314.669ZM-244.038 204.769L-227.598 177.026L-227.442 176.757H-194.242L-177.646 204.762L-194.086 232.505L-194.242 232.773H-227.442L-244.038 204.769ZM-178.896 204.769L-194.867 177.823H-226.809L-242.78 204.769L-226.809 231.715H-194.867L-178.896 204.769ZM-244.038 149.819L-227.598 122.075L-227.442 121.807H-194.242L-177.646 149.811L-194.086 177.555L-194.242 177.823H-227.442L-244.038 149.819ZM-178.896 149.819L-194.867 122.873H-226.809L-242.78 149.819L-226.809 176.765H-194.867L-178.896 149.819ZM-293.574 561.938L-277.134 534.194L-276.978 533.926H-243.778L-227.182 561.931L-243.621 589.674L-243.778 589.942H-276.978L-293.574 561.938ZM-228.432 561.938L-244.403 534.992H-276.345L-292.316 561.938L-276.345 588.884H-244.403L-228.432 561.938ZM-293.574 506.988L-277.134 479.244L-276.978 478.976H-243.778L-227.182 506.98L-243.621 534.724L-243.778 534.992H-276.978L-293.574 506.988ZM-228.432 506.988L-244.403 480.042H-276.345L-292.316 506.988L-276.345 533.934H-244.403L-228.432 506.988ZM-293.574 452.037L-277.134 424.294L-276.978 424.026H-243.778L-227.182 452.03L-243.621 479.773L-243.778 480.042H-276.978L-293.574 452.037ZM-228.432 452.037L-244.403 425.092H-276.345L-292.316 452.037L-276.345 478.983H-244.403L-228.432 452.037ZM-293.574 397.087L-277.134 369.344L-276.978 369.076H-243.778L-227.182 397.08L-243.621 424.823L-243.778 425.092H-276.978L-293.574 397.087ZM-228.432 397.087L-244.403 370.141H-276.345L-292.316 397.087L-276.345 424.033H-244.403L-228.432 397.087ZM-293.574 232.237L-277.134 204.493L-276.978 204.225H-243.778L-227.182 232.229L-243.621 259.973L-243.778 260.241H-276.978L-293.574 232.237ZM-228.432 232.237L-244.403 205.291H-276.345L-292.316 232.237L-276.345 259.183H-244.403L-228.432 232.237ZM-293.574 177.287L-277.134 149.543L-276.978 149.275H-243.778L-227.182 177.279L-243.621 205.023L-243.778 205.291H-276.978L-293.574 177.287ZM-228.432 177.287L-244.403 150.341H-276.345L-292.316 177.287L-276.345 204.232H-244.403L-228.432 177.287ZM-293.574 122.336L-277.134 94.593L-276.978 94.3248H-243.778L-227.182 122.329L-243.621 150.072L-243.778 150.341H-276.978L-293.574 122.336ZM-228.432 122.336L-244.403 95.3904H-276.345L-292.316 122.336L-276.345 149.282H-244.403L-228.432 122.336ZM-293.574 67.3862L-277.134 39.6428L-276.978 39.3746H-243.778L-227.182 67.3789L-243.621 95.1222L-243.778 95.3904H-276.978L-293.574 67.3862ZM-228.432 67.3862L-244.403 40.4403H-276.345L-292.316 67.3862L-276.345 94.3321H-244.403L-228.432 67.3862ZM-293.574 12.436L-277.134 -15.3073L-276.978 -15.5756H-243.778L-227.182 12.4287L-243.621 40.172L-243.778 40.4403H-276.978L-293.574 12.436ZM-228.432 12.436L-244.403 -14.5099H-276.345L-292.316 12.436L-276.345 39.3819H-244.403L-228.432 12.436ZM-342.432 589.42L-325.992 561.677L-325.836 561.409H-292.636L-276.04 589.413L-292.48 617.156L-292.636 617.424H-325.836L-342.432 589.42ZM-277.29 589.42L-293.261 562.474H-325.203L-341.174 589.42L-325.203 616.366H-293.261L-277.29 589.42ZM-342.432 534.47L-325.992 506.727L-325.836 506.458H-292.636L-276.04 534.463L-292.48 562.206L-292.636 562.474H-325.836L-342.432 534.47ZM-277.29 534.47L-293.261 507.524H-325.203L-341.174 534.47L-325.203 561.416H-293.261L-277.29 534.47ZM-342.432 424.57L-325.992 396.826L-325.836 396.558H-292.636L-276.04 424.562L-292.48 452.306L-292.636 452.574H-325.836L-342.432 424.57ZM-277.29 424.57L-293.261 397.624H-325.203L-341.174 424.57L-325.203 451.515H-293.261L-277.29 424.57ZM-342.432 314.669L-325.992 286.926L-325.836 286.658H-292.636L-276.04 314.662L-292.48 342.405L-292.636 342.674H-325.836L-342.432 314.669ZM-277.29 314.669L-293.261 287.723H-325.203L-341.174 314.669L-325.203 341.615H-293.261L-277.29 314.669ZM-342.432 259.719L-325.992 231.976L-325.836 231.707H-292.636L-276.04 259.712L-292.48 287.455L-292.636 287.723H-325.836L-342.432 259.719ZM-277.29 259.719L-293.261 232.773H-325.203L-341.174 259.719L-325.203 286.665H-293.261L-277.29 259.719ZM-342.432 204.769L-325.992 177.026L-325.836 176.757H-292.636L-276.04 204.762L-292.48 232.505L-292.636 232.773H-325.836L-342.432 204.769ZM-277.29 204.769L-293.261 177.823H-325.203L-341.174 204.769L-325.203 231.715H-293.261L-277.29 204.769ZM-342.432 94.8685L-325.992 67.1252L-325.836 66.857H-292.636L-276.04 94.8613L-292.48 122.605L-292.636 122.873H-325.836L-342.432 94.8685ZM-277.29 94.8685L-293.261 67.9226H-325.203L-341.174 94.8685L-325.203 121.814H-293.261L-277.29 94.8685ZM-391.96 506.988L-375.52 479.244L-375.364 478.976H-342.164L-325.568 506.98L-342.008 534.724L-342.164 534.992H-375.364L-391.96 506.988ZM-326.826 506.988L-342.797 480.042H-374.739L-390.71 506.988L-374.739 533.934H-342.797L-326.826 506.988ZM-391.96 397.087L-375.52 369.344L-375.364 369.076H-342.164L-325.568 397.08L-342.008 424.823L-342.164 425.092H-375.364L-391.96 397.087ZM-326.826 397.087L-342.797 370.141H-374.739L-390.71 397.087L-374.739 424.033H-342.797L-326.826 397.087ZM-391.96 287.187L-375.52 259.444L-375.364 259.175H-342.164L-325.568 287.18L-342.008 314.923L-342.164 315.191H-375.364L-391.96 287.187ZM-326.826 287.187L-342.797 260.241H-374.739L-390.71 287.187L-374.739 314.133H-342.797L-326.826 287.187ZM-391.96 232.237L-375.52 204.493L-375.364 204.225H-342.164L-325.568 232.229L-342.008 259.973L-342.164 260.241H-375.364L-391.96 232.237ZM-326.826 232.237L-342.797 205.291H-374.739L-390.71 232.237L-374.739 259.183H-342.797L-326.826 232.237ZM-391.96 122.336L-375.52 94.593L-375.364 94.3248H-342.164L-325.568 122.329L-342.008 150.072L-342.164 150.341H-375.364L-391.96 122.336ZM-326.826 122.336L-342.797 95.3904H-374.739L-390.71 122.336L-374.739 149.282H-342.797L-326.826 122.336ZM-391.96 67.3862L-375.52 39.6428L-375.364 39.3746H-342.164L-325.568 67.3789L-342.008 95.1222L-342.164 95.3904H-375.364L-391.96 67.3862ZM-326.826 67.3862L-342.797 40.4403H-374.739L-390.71 67.3862L-374.739 94.3321H-342.797L-326.826 67.3862ZM-391.96 12.436L-375.52 -15.3073L-375.364 -15.5756H-342.164L-325.568 12.4287L-342.008 40.172L-342.164 40.4403H-375.364L-391.96 12.436ZM-326.826 12.436L-342.797 -14.5099H-374.739L-390.71 12.436L-374.739 39.3819H-342.797L-326.826 12.436ZM-440.826 479.52L-424.386 451.776L-424.23 451.508H-391.03L-374.434 479.513L-390.874 507.256L-391.03 507.524H-424.23L-440.826 479.52ZM-375.684 479.52L-391.655 452.574H-423.597L-439.568 479.52L-423.597 506.466H-391.655L-375.684 479.52ZM-440.826 424.57L-424.386 396.826L-424.23 396.558H-391.03L-374.434 424.562L-390.874 452.306L-391.03 452.574H-424.23L-440.826 424.57ZM-375.684 424.57L-391.655 397.624H-423.597L-439.568 424.57L-423.597 451.515H-391.655L-375.684 424.57ZM-440.826 369.619L-424.386 341.876L-424.23 341.608H-391.03L-374.434 369.612L-390.874 397.355L-391.03 397.624H-424.23L-440.826 369.619ZM-375.684 369.619L-391.655 342.674H-423.597L-439.568 369.619L-423.597 396.565H-391.655L-375.684 369.619ZM-440.826 314.669L-424.386 286.926L-424.23 286.658H-391.03L-374.434 314.662L-390.874 342.405L-391.03 342.674H-424.23L-440.826 314.669ZM-375.684 314.669L-391.655 287.723H-423.597L-439.568 314.669L-423.597 341.615H-391.655L-375.684 314.669ZM-440.826 259.719L-424.386 231.976L-424.23 231.707H-391.03L-374.434 259.712L-390.874 287.455L-391.03 287.723H-424.23L-440.826 259.719ZM-375.684 259.719L-391.655 232.773H-423.597L-439.568 259.719L-423.597 286.665H-391.655L-375.684 259.719ZM-440.826 204.769L-424.386 177.026L-424.23 176.757H-391.03L-374.434 204.762L-390.874 232.505L-391.03 232.773H-424.23L-440.826 204.769ZM-375.684 204.769L-391.655 177.823H-423.597L-439.568 204.769L-423.597 231.715H-391.655L-375.684 204.769ZM-490.354 561.938L-473.914 534.194L-473.758 533.926H-440.558L-423.962 561.931L-440.402 589.674L-440.558 589.942H-473.758L-490.354 561.938ZM-425.22 561.938L-441.191 534.992H-473.133L-489.104 561.938L-473.133 588.884H-441.191L-425.22 561.938ZM-490.354 506.988L-473.914 479.244L-473.758 478.976H-440.558L-423.962 506.98L-440.402 534.724L-440.558 534.992H-473.758L-490.354 506.988ZM-425.22 506.988L-441.191 480.042H-473.133L-489.104 506.988L-473.133 533.934H-441.191L-425.22 506.988ZM-490.354 452.037L-473.914 424.294L-473.758 424.026H-440.558L-423.962 452.03L-440.402 479.773L-440.558 480.042H-473.758L-490.354 452.037ZM-425.22 452.037L-441.191 425.092H-473.133L-489.104 452.037L-473.133 478.983H-441.191L-425.22 452.037ZM-490.354 342.137L-473.914 314.394L-473.758 314.126H-440.558L-423.962 342.13L-440.402 369.873L-440.558 370.141H-473.758L-490.354 342.137ZM-425.22 342.137L-441.191 315.191H-473.133L-489.104 342.137L-473.133 369.083H-441.191L-425.22 342.137ZM-490.354 232.237L-473.914 204.493L-473.758 204.225H-440.558L-423.962 232.229L-440.402 259.973L-440.558 260.241H-473.758L-490.354 232.237ZM-425.22 232.237L-441.191 205.291H-473.133L-489.104 232.237L-473.133 259.183H-441.191L-425.22 232.237ZM-490.354 177.287L-473.914 149.543L-473.758 149.275H-440.558L-423.962 177.279L-440.402 205.023L-440.558 205.291H-473.758L-490.354 177.287ZM-425.22 177.287L-441.191 150.341H-473.133L-489.104 177.287L-473.133 204.232H-441.191L-425.22 177.287ZM-490.354 122.336L-473.914 94.593L-473.758 94.3248H-440.558L-423.962 122.329L-440.402 150.072L-440.558 150.341H-473.758L-490.354 122.336ZM-425.22 122.336L-441.191 95.3904H-473.133L-489.104 122.336L-473.133 149.282H-441.191L-425.22 122.336ZM-539.212 589.42L-522.772 561.677L-522.616 561.409H-489.416L-472.82 589.413L-489.26 617.156L-489.416 617.424H-522.616L-539.212 589.42ZM-474.078 589.42L-490.049 562.474H-521.991L-537.962 589.42L-521.991 616.366H-490.049L-474.078 589.42ZM-539.212 534.47L-522.772 506.727L-522.616 506.458H-489.416L-472.82 534.463L-489.26 562.206L-489.416 562.474H-522.616L-539.212 534.47ZM-474.078 534.47L-490.049 507.524H-521.991L-537.962 534.47L-521.991 561.416H-490.049L-474.078 534.47ZM-539.212 479.52L-522.772 451.776L-522.616 451.508H-489.416L-472.82 479.513L-489.26 507.256L-489.416 507.524H-522.616L-539.212 479.52ZM-474.078 479.52L-490.049 452.574H-521.991L-537.962 479.52L-521.991 506.466H-490.049L-474.078 479.52ZM-539.212 424.57L-522.772 396.826L-522.616 396.558H-489.416L-472.82 424.562L-489.26 452.306L-489.416 452.574H-522.616L-539.212 424.57ZM-474.078 424.57L-490.049 397.624H-521.991L-537.962 424.57L-521.991 451.515H-490.049L-474.078 424.57ZM-539.212 369.619L-522.772 341.876L-522.616 341.608H-489.416L-472.82 369.612L-489.26 397.355L-489.416 397.624H-522.616L-539.212 369.619ZM-474.078 369.619L-490.049 342.674H-521.991L-537.962 369.619L-521.991 396.565H-490.049L-474.078 369.619ZM-539.212 259.719L-522.772 231.976L-522.616 231.707H-489.416L-472.82 259.712L-489.26 287.455L-489.416 287.723H-522.616L-539.212 259.719ZM-474.078 259.719L-490.049 232.773H-521.991L-537.962 259.719L-521.991 286.665H-490.049L-474.078 259.719ZM-539.212 204.769L-522.772 177.026L-522.616 176.757H-489.416L-472.82 204.762L-489.26 232.505L-489.416 232.773H-522.616L-539.212 204.769ZM-474.078 204.769L-490.049 177.823H-521.991L-537.962 204.769L-521.991 231.715H-490.049L-474.078 204.769ZM-539.212 149.819L-522.772 122.075L-522.616 121.807H-489.416L-472.82 149.811L-489.26 177.555L-489.416 177.823H-522.616L-539.212 149.819ZM-474.078 149.819L-490.049 122.873H-521.991L-537.962 149.819L-521.991 176.765H-490.049L-474.078 149.819ZM-539.212 94.8685L-522.772 67.1252L-522.616 66.857H-489.416L-472.82 94.8613L-489.26 122.605L-489.416 122.873H-522.616L-539.212 94.8685ZM-474.078 94.8685L-490.049 67.9226H-521.991L-537.962 94.8685L-521.991 121.814H-490.049L-474.078 94.8685ZM-539.212 39.9256L-522.772 12.1822L-522.616 11.914H-489.416L-472.82 39.9183L-489.26 67.6616L-489.416 67.9299H-522.616L-539.212 39.9256ZM-474.078 39.9256L-490.049 12.9797H-521.991L-537.962 39.9256L-521.991 66.8715H-490.049L-474.078 39.9256ZM-588.748 561.938L-572.308 534.194L-572.152 533.926H-538.952L-522.356 561.931L-538.796 589.674L-538.952 589.942H-572.152L-588.748 561.938ZM-523.613 561.938L-539.584 534.992H-571.527L-587.498 561.938L-571.527 588.884H-539.584L-523.613 561.938ZM-588.748 506.988L-572.308 479.244L-572.152 478.976H-538.952L-522.356 506.98L-538.796 534.724L-538.952 534.992H-572.152L-588.748 506.988ZM-523.613 506.988L-539.584 480.042H-571.527L-587.498 506.988L-571.527 533.934H-539.584L-523.613 506.988ZM-588.748 397.087L-572.308 369.344L-572.152 369.076H-538.952L-522.356 397.08L-538.796 424.823L-538.952 425.092H-572.152L-588.748 397.087ZM-523.613 397.087L-539.584 370.141H-571.527L-587.498 397.087L-571.527 424.033H-539.584L-523.613 397.087ZM-588.748 342.137L-572.308 314.394L-572.152 314.126H-538.952L-522.356 342.13L-538.796 369.873L-538.952 370.141H-572.152L-588.748 342.137ZM-523.613 342.137L-539.584 315.191H-571.527L-587.498 342.137L-571.527 369.083H-539.584L-523.613 342.137ZM-588.748 287.187L-572.308 259.444L-572.152 259.175H-538.952L-522.356 287.18L-538.796 314.923L-538.952 315.191H-572.152L-588.748 287.187ZM-523.613 287.187L-539.584 260.241H-571.527L-587.498 287.187L-571.527 314.133H-539.584L-523.613 287.187ZM-588.748 177.287L-572.308 149.543L-572.152 149.275H-538.952L-522.356 177.279L-538.796 205.023L-538.952 205.291H-572.152L-588.748 177.287ZM-523.613 177.287L-539.584 150.341H-571.527L-587.498 177.287L-571.527 204.232H-539.584L-523.613 177.287ZM-588.748 122.336L-572.308 94.593L-572.152 94.3248H-538.952L-522.356 122.329L-538.796 150.072L-538.952 150.341H-572.152L-588.748 122.336ZM-523.613 122.336L-539.584 95.3904H-571.527L-587.498 122.336L-571.527 149.282H-539.584L-523.613 122.336ZM-588.748 67.3862L-572.308 39.6428L-572.152 39.3746H-538.952L-522.356 67.3789L-538.796 95.1222L-538.952 95.3904H-572.152L-588.748 67.3862ZM-523.613 67.3862L-539.584 40.4403H-571.527L-587.498 67.3862L-571.527 94.3321H-539.584L-523.613 67.3862ZM-588.748 12.436L-572.308 -15.3073L-572.152 -15.5756H-538.952L-522.356 12.4287L-538.796 40.172L-538.952 40.4403H-572.152L-588.748 12.436ZM-523.613 12.436L-539.584 -14.5099H-571.527L-587.498 12.436L-571.527 39.3819H-539.584L-523.613 12.436ZM-637.606 589.42L-621.166 561.677L-621.01 561.409H-587.81L-571.214 589.413L-587.654 617.156L-587.81 617.424H-621.01L-637.606 589.42ZM-572.472 589.42L-588.443 562.474H-620.385L-636.356 589.42L-620.385 616.366H-588.443L-572.472 589.42ZM-637.606 534.47L-621.166 506.727L-621.01 506.458H-587.81L-571.214 534.463L-587.654 562.206L-587.81 562.474H-621.01L-637.606 534.47ZM-572.472 534.47L-588.443 507.524H-620.385L-636.356 534.47L-620.385 561.416H-588.443L-572.472 534.47ZM-637.606 479.52L-621.166 451.776L-621.01 451.508H-587.81L-571.214 479.513L-587.654 507.256L-587.81 507.524H-621.01L-637.606 479.52ZM-572.472 479.52L-588.443 452.574H-620.385L-636.356 479.52L-620.385 506.466H-588.443L-572.472 479.52ZM-637.606 369.619L-621.166 341.876L-621.01 341.608H-587.81L-571.214 369.612L-587.654 397.355L-587.81 397.624H-621.01L-637.606 369.619ZM-572.472 369.619L-588.443 342.674H-620.385L-636.356 369.619L-620.385 396.565H-588.443L-572.472 369.619ZM-637.606 314.669L-621.166 286.926L-621.01 286.658H-587.81L-571.214 314.662L-587.654 342.405L-587.81 342.674H-621.01L-637.606 314.669ZM-572.472 314.669L-588.443 287.723H-620.385L-636.356 314.669L-620.385 341.615H-588.443L-572.472 314.669ZM-637.606 259.719L-621.166 231.976L-621.01 231.707H-587.81L-571.214 259.712L-587.654 287.455L-587.81 287.723H-621.01L-637.606 259.719ZM-572.472 259.719L-588.443 232.773H-620.385L-636.356 259.719L-620.385 286.665H-588.443L-572.472 259.719ZM-637.606 204.769L-621.166 177.026L-621.01 176.757H-587.81L-571.214 204.762L-587.654 232.505L-587.81 232.773H-621.01L-637.606 204.769ZM-572.472 204.769L-588.443 177.823H-620.385L-636.356 204.769L-620.385 231.715H-588.443L-572.472 204.769ZM-637.606 94.8685L-621.166 67.1252L-621.01 66.857H-587.81L-571.214 94.8613L-587.654 122.605L-587.81 122.873H-621.01L-637.606 94.8685ZM-572.472 94.8685L-588.443 67.9226H-620.385L-636.356 94.8685L-620.385 121.814H-588.443L-572.472 94.8685ZM-637.606 39.9256L-621.166 12.1822L-621.01 11.914H-587.81L-571.214 39.9183L-587.654 67.6616L-587.81 67.9299H-621.01L-637.606 39.9256ZM-572.472 39.9256L-588.443 12.9797H-620.385L-636.356 39.9256L-620.385 66.8715H-588.443L-572.472 39.9256ZM-687.142 561.938L-670.702 534.194L-670.546 533.926H-637.346L-620.749 561.931L-637.189 589.674L-637.346 589.942H-670.546L-687.142 561.938ZM-622 561.938L-637.971 534.992H-669.913L-685.884 561.938L-669.913 588.884H-637.971L-622 561.938ZM-687.142 506.988L-670.702 479.244L-670.546 478.976H-637.346L-620.749 506.98L-637.189 534.724L-637.346 534.992H-670.546L-687.142 506.988ZM-622 506.988L-637.971 480.042H-669.913L-685.884 506.988L-669.913 533.934H-637.971L-622 506.988ZM-687.142 452.037L-670.702 424.294L-670.546 424.026H-637.346L-620.749 452.03L-637.189 479.773L-637.346 480.042H-670.546L-687.142 452.037ZM-622 452.037L-637.971 425.092H-669.913L-685.884 452.037L-669.913 478.983H-637.971L-622 452.037ZM-687.142 342.137L-670.702 314.394L-670.546 314.126H-637.346L-620.749 342.13L-637.189 369.873L-637.346 370.141H-670.546L-687.142 342.137ZM-622 342.137L-637.971 315.191H-669.913L-685.884 342.137L-669.913 369.083H-637.971L-622 342.137ZM-687.142 287.187L-670.702 259.444L-670.546 259.175H-637.346L-620.749 287.18L-637.189 314.923L-637.346 315.191H-670.546L-687.142 287.187ZM-622 287.187L-637.971 260.241H-669.913L-685.884 287.187L-669.913 314.133H-637.971L-622 287.187ZM-687.142 232.237L-670.702 204.493L-670.546 204.225H-637.346L-620.749 232.229L-637.189 259.973L-637.346 260.241H-670.546L-687.142 232.237ZM-622 232.237L-637.971 205.291H-669.913L-685.884 232.237L-669.913 259.183H-637.971L-622 232.237ZM-687.142 122.336L-670.702 94.593L-670.546 94.3248H-637.346L-620.749 122.329L-637.189 150.072L-637.346 150.341H-670.546L-687.142 122.336ZM-622 122.336L-637.971 95.3904H-669.913L-685.884 122.336L-669.913 149.282H-637.971L-622 122.336ZM-687.142 67.3862L-670.702 39.6428L-670.546 39.3746H-637.346L-620.749 67.3789L-637.189 95.1222L-637.346 95.3904H-670.546L-687.142 67.3862ZM-622 67.3862L-637.971 40.4403H-669.913L-685.884 67.3862L-669.913 94.3321H-637.971L-622 67.3862ZM-687.142 12.436L-670.702 -15.3073L-670.546 -15.5756H-637.346L-620.749 12.4287L-637.189 40.172L-637.346 40.4403H-670.546L-687.142 12.436ZM-622 12.436L-637.971 -14.5099H-669.913L-685.884 12.436L-669.913 39.3819H-637.971L-622 12.436ZM-736 589.42L-719.56 561.677L-719.404 561.409H-686.204L-669.608 589.413L-686.048 617.156L-686.204 617.424H-719.404L-736 589.42ZM-670.858 589.42L-686.829 562.474H-718.771L-734.742 589.42L-718.771 616.366H-686.829L-670.858 589.42ZM-736 479.52L-719.56 451.776L-719.404 451.508H-686.204L-669.608 479.513L-686.048 507.256L-686.204 507.524H-719.404L-736 479.52ZM-670.858 479.52L-686.829 452.574H-718.771L-734.742 479.52L-718.771 506.466H-686.829L-670.858 479.52ZM-736 424.57L-719.56 396.826L-719.404 396.558H-686.204L-669.608 424.562L-686.048 452.306L-686.204 452.574H-719.404L-736 424.57ZM-670.858 424.57L-686.829 397.624H-718.771L-734.742 424.57L-718.771 451.515H-686.829L-670.858 424.57ZM-736 314.669L-719.56 286.926L-719.404 286.658H-686.204L-669.608 314.662L-686.048 342.405L-686.204 342.674H-719.404L-736 314.669ZM-670.858 314.669L-686.829 287.723H-718.771L-734.742 314.669L-718.771 341.615H-686.829L-670.858 314.669ZM-736 204.769L-719.56 177.026L-719.404 176.757H-686.204L-669.608 204.762L-686.048 232.505L-686.204 232.773H-719.404L-736 204.769ZM-670.858 204.769L-686.829 177.823H-718.771L-734.742 204.769L-718.771 231.715H-686.829L-670.858 204.769ZM-736 149.819L-719.56 122.075L-719.404 121.807H-686.204L-669.608 149.811L-686.048 177.555L-686.204 177.823H-719.404L-736 149.819ZM-670.858 149.819L-686.829 122.873H-718.771L-734.742 149.819L-718.771 176.765H-686.829L-670.858 149.819ZM-736 94.8685L-719.56 67.1252L-719.404 66.857H-686.204L-669.608 94.8613L-686.048 122.605L-686.204 122.873H-719.404L-736 94.8685ZM-670.858 94.8685L-686.829 67.9226H-718.771L-734.742 94.8685L-718.771 121.814H-686.829L-670.858 94.8685ZM-736 39.9256L-719.56 12.1822L-719.404 11.914H-686.204L-669.608 39.9183L-686.048 67.6616L-686.204 67.9299H-719.404L-736 39.9256ZM-670.858 39.9256L-686.829 12.9797H-718.771L-734.742 39.9256L-718.771 66.8715H-686.829L-670.858 39.9256ZM1.60779 561.938L18.0477 534.194L18.204 533.926H51.4039L68 561.931L51.5601 589.674L51.4039 589.942H18.204L1.60779 561.938ZM66.7423 561.938L50.7712 534.992H18.8292L2.85809 561.938L18.8292 588.884H50.7712L66.7423 561.938ZM1.60779 342.137L18.0477 314.394L18.204 314.126H51.4039L68 342.13L51.5601 369.873L51.4039 370.141H18.204L1.60779 342.137ZM66.7423 342.137L50.7712 315.191H18.8292L2.85809 342.137L18.8292 369.083H50.7712L66.7423 342.137ZM1.60779 122.336L18.0477 94.593L18.204 94.3248H51.4039L68 122.329L51.5601 150.072L51.4039 150.341H18.204L1.60779 122.336ZM66.7423 122.336L50.7712 95.3904H18.8292L2.85809 122.336L18.8292 149.282H50.7712L66.7423 122.336ZM-47.2505 589.42L-30.8106 561.677L-30.6543 561.409H2.54553L19.1417 589.413L2.70178 617.156L2.54553 617.424H-30.6543L-47.2505 589.42ZM17.884 589.42L1.9129 562.474H-30.0292L-46.0002 589.42L-30.0292 616.366H1.9129L17.884 589.42ZM-47.2505 534.47L-30.8106 506.727L-30.6543 506.458H2.54553L19.1417 534.463L2.70178 562.206L2.54553 562.474H-30.6543L-47.2505 534.47ZM17.884 534.47L1.9129 507.524H-30.0292L-46.0002 534.47L-30.0292 561.416H1.9129L17.884 534.47ZM-47.2505 424.57L-30.8106 396.826L-30.6543 396.558H2.54553L19.1417 424.562L2.70178 452.306L2.54553 452.574H-30.6543L-47.2505 424.57ZM17.884 424.57L1.9129 397.624H-30.0292L-46.0002 424.57L-30.0292 451.515H1.9129L17.884 424.57ZM-47.2505 314.669L-30.8106 286.926L-30.6543 286.658H2.54553L19.1417 314.662L2.70178 342.405L2.54553 342.674H-30.6543L-47.2505 314.669ZM17.884 314.669L1.9129 287.723H-30.0292L-46.0002 314.669L-30.0292 341.615H1.9129L17.884 314.669ZM-47.2505 204.769L-30.8106 177.026L-30.6543 176.757H2.54553L19.1417 204.762L2.70178 232.505L2.54553 232.773H-30.6543L-47.2505 204.769ZM17.884 204.769L1.9129 177.823H-30.0292L-46.0002 204.769L-30.0292 231.715H1.9129L17.884 204.769ZM-47.2505 94.8685L-30.8106 67.1252L-30.6543 66.857H2.54553L19.1417 94.8613L2.70178 122.605L2.54553 122.873H-30.6543L-47.2505 94.8685ZM17.884 94.8685L1.9129 67.9226H-30.0292L-46.0002 94.8685L-30.0292 121.814H1.9129L17.884 94.8685ZM-96.7861 506.988L-80.3461 479.244L-80.1899 478.976H-46.9901L-30.3939 506.98L-46.8337 534.724L-46.9901 534.992H-80.1899L-96.7861 506.988ZM-31.6441 506.988L-47.6152 480.042H-79.5573L-95.5283 506.988L-79.5573 533.934H-47.6152L-31.6441 506.988ZM-96.7861 397.087L-80.3461 369.344L-80.1899 369.076H-46.9901L-30.3939 397.08L-46.8337 424.823L-46.9901 425.092H-80.1899L-96.7861 397.087ZM-31.6441 397.087L-47.6152 370.141H-79.5573L-95.5283 397.087L-79.5573 424.033H-47.6152L-31.6441 397.087ZM-96.7861 342.137L-80.3461 314.394L-80.1899 314.126H-46.9901L-30.3939 342.13L-46.8337 369.873L-46.9901 370.141H-80.1899L-96.7861 342.137ZM-31.6441 342.137L-47.6152 315.191H-79.5573L-95.5283 342.137L-79.5573 369.083H-47.6152L-31.6441 342.137ZM-96.7861 287.187L-80.3461 259.444L-80.1899 259.175H-46.9901L-30.3939 287.18L-46.8337 314.923L-46.9901 315.191H-80.1899L-96.7861 287.187ZM-31.6441 287.187L-47.6152 260.241H-79.5573L-95.5283 287.187L-79.5573 314.133H-47.6152L-31.6441 287.187ZM-96.7861 177.287L-80.3461 149.543L-80.1899 149.275H-46.9901L-30.3939 177.279L-46.8337 205.023L-46.9901 205.291H-80.1899L-96.7861 177.287ZM-31.6441 177.287L-47.6152 150.341H-79.5573L-95.5283 177.287L-79.5573 204.232H-47.6152L-31.6441 177.287ZM-96.7861 67.3862L-80.3461 39.6428L-80.1899 39.3746H-46.9901L-30.3939 67.3789L-46.8337 95.1222L-46.9901 95.3904H-80.1899L-96.7861 67.3862ZM-31.6441 67.3862L-47.6152 40.4403H-79.5573L-95.5283 67.3862L-79.5573 94.3321H-47.6152L-31.6441 67.3862ZM-145.644 534.47L-129.204 506.727L-129.048 506.458H-95.8483L-79.2521 534.463L-95.692 562.206L-95.8483 562.474H-129.048L-145.644 534.47ZM-80.5024 534.47L-96.4734 507.524H-128.416L-144.387 534.47L-128.416 561.416H-96.4734L-80.5024 534.47ZM-145.644 424.57L-129.204 396.826L-129.048 396.558H-95.8483L-79.2521 424.562L-95.692 452.306L-95.8483 452.574H-129.048L-145.644 424.57ZM-80.5024 424.57L-96.4734 397.624H-128.416L-144.387 424.57L-128.416 451.515H-96.4734L-80.5024 424.57ZM-145.644 314.669L-129.204 286.926L-129.048 286.658H-95.8483L-79.2521 314.662L-95.692 342.405L-95.8483 342.674H-129.048L-145.644 314.669ZM-80.5024 314.669L-96.4734 287.723H-128.416L-144.387 314.669L-128.416 341.615H-96.4734L-80.5024 314.669ZM-145.644 149.819L-129.204 122.075L-129.048 121.807H-95.8483L-79.2521 149.811L-95.692 177.555L-95.8483 177.823H-129.048L-145.644 149.819ZM-80.5024 149.819L-96.4734 122.873H-128.416L-144.387 149.819L-128.416 176.765H-96.4734L-80.5024 149.819ZM-145.644 94.8685L-129.204 67.1252L-129.048 66.857H-95.8483L-79.2521 94.8613L-95.692 122.605L-95.8483 122.873H-129.048L-145.644 94.8685ZM-80.5024 94.8685L-96.4734 67.9226H-128.416L-144.387 94.8685L-128.416 121.814H-96.4734L-80.5024 94.8685ZM-145.644 39.9256L-129.204 12.1822L-129.048 11.914H-95.8483L-79.2521 39.9183L-95.692 67.6616L-95.8483 67.9299H-129.048L-145.644 39.9256ZM-80.5024 39.9256L-96.4734 12.9797H-128.416L-144.387 39.9256L-128.416 66.8715H-96.4734L-80.5024 39.9256ZM-195.18 561.938L-178.74 534.194L-178.584 533.926H-145.384L-128.788 561.931L-145.228 589.674L-145.384 589.942H-178.584L-195.18 561.938ZM-130.038 561.938L-146.009 534.992H-177.951L-193.922 561.938L-177.951 588.884H-146.009L-130.038 561.938ZM-195.18 397.087L-178.74 369.344L-178.584 369.076H-145.384L-128.788 397.08L-145.228 424.823L-145.384 425.092H-178.584L-195.18 397.087ZM-130.038 397.087L-146.009 370.141H-177.951L-193.922 397.087L-177.951 424.033H-146.009L-130.038 397.087ZM-195.18 342.137L-178.74 314.394L-178.584 314.126H-145.384L-128.788 342.13L-145.228 369.873L-145.384 370.141H-178.584L-195.18 342.137ZM-130.038 342.137L-146.009 315.191H-177.951L-193.922 342.137L-177.951 369.083H-146.009L-130.038 342.137ZM-195.18 287.187L-178.74 259.444L-178.584 259.175H-145.384L-128.788 287.18L-145.228 314.923L-145.384 315.191H-178.584L-195.18 287.187ZM-130.038 287.187L-146.009 260.241H-177.951L-193.922 287.187L-177.951 314.133H-146.009L-130.038 287.187ZM-195.18 177.287L-178.74 149.543L-178.584 149.275H-145.384L-128.788 177.279L-145.228 205.023L-145.384 205.291H-178.584L-195.18 177.287ZM-130.038 177.287L-146.009 150.341H-177.951L-193.922 177.287L-177.951 204.232H-146.009L-130.038 177.287ZM-195.18 122.336L-178.74 94.593L-178.584 94.3248H-145.384L-128.788 122.329L-145.228 150.072L-145.384 150.341H-178.584L-195.18 122.336ZM-130.038 122.336L-146.009 95.3904H-177.951L-193.922 122.336L-177.951 149.282H-146.009L-130.038 122.336ZM-195.18 67.3862L-178.74 39.6428L-178.584 39.3746H-145.384L-128.788 67.3789L-145.228 95.1222L-145.384 95.3904H-178.584L-195.18 67.3862ZM-130.038 67.3862L-146.009 40.4403H-177.951L-193.922 67.3862L-177.951 94.3321H-146.009L-130.038 67.3862ZM-244.038 479.52L-227.598 451.776L-227.442 451.508H-194.242L-177.646 479.513L-194.086 507.256L-194.242 507.524H-227.442L-244.038 479.52ZM-178.896 479.52L-194.867 452.574H-226.809L-242.78 479.52L-226.809 506.466H-194.867L-178.896 479.52ZM-244.038 424.57L-227.598 396.826L-227.442 396.558H-194.242L-177.646 424.562L-194.086 452.306L-194.242 452.574H-227.442L-244.038 424.57ZM-178.896 424.57L-194.867 397.624H-226.809L-242.78 424.57L-226.809 451.515H-194.867L-178.896 424.57ZM-244.038 369.619L-227.598 341.876L-227.442 341.608H-194.242L-177.646 369.612L-194.086 397.355L-194.242 397.624H-227.442L-244.038 369.619ZM-178.896 369.619L-194.867 342.674H-226.809L-242.78 369.619L-226.809 396.565H-194.867L-178.896 369.619ZM-244.038 314.669L-227.598 286.926L-227.442 286.658H-194.242L-177.646 314.662L-194.086 342.405L-194.242 342.674H-227.442L-244.038 314.669ZM-178.896 314.669L-194.867 287.723H-226.809L-242.78 314.669L-226.809 341.615H-194.867L-178.896 314.669ZM-244.038 204.769L-227.598 177.026L-227.442 176.757H-194.242L-177.646 204.762L-194.086 232.505L-194.242 232.773H-227.442L-244.038 204.769ZM-178.896 204.769L-194.867 177.823H-226.809L-242.78 204.769L-226.809 231.715H-194.867L-178.896 204.769ZM-244.038 149.819L-227.598 122.075L-227.442 121.807H-194.242L-177.646 149.811L-194.086 177.555L-194.242 177.823H-227.442L-244.038 149.819ZM-178.896 149.819L-194.867 122.873H-226.809L-242.78 149.819L-226.809 176.765H-194.867L-178.896 149.819ZM-293.574 561.938L-277.134 534.194L-276.978 533.926H-243.778L-227.182 561.931L-243.621 589.674L-243.778 589.942H-276.978L-293.574 561.938ZM-228.432 561.938L-244.403 534.992H-276.345L-292.316 561.938L-276.345 588.884H-244.403L-228.432 561.938ZM-293.574 506.988L-277.134 479.244L-276.978 478.976H-243.778L-227.182 506.98L-243.621 534.724L-243.778 534.992H-276.978L-293.574 506.988ZM-228.432 506.988L-244.403 480.042H-276.345L-292.316 506.988L-276.345 533.934H-244.403L-228.432 506.988ZM-293.574 452.037L-277.134 424.294L-276.978 424.026H-243.778L-227.182 452.03L-243.621 479.773L-243.778 480.042H-276.978L-293.574 452.037ZM-228.432 452.037L-244.403 425.092H-276.345L-292.316 452.037L-276.345 478.983H-244.403L-228.432 452.037ZM-293.574 397.087L-277.134 369.344L-276.978 369.076H-243.778L-227.182 397.08L-243.621 424.823L-243.778 425.092H-276.978L-293.574 397.087ZM-228.432 397.087L-244.403 370.141H-276.345L-292.316 397.087L-276.345 424.033H-244.403L-228.432 397.087ZM-293.574 232.237L-277.134 204.493L-276.978 204.225H-243.778L-227.182 232.229L-243.621 259.973L-243.778 260.241H-276.978L-293.574 232.237ZM-228.432 232.237L-244.403 205.291H-276.345L-292.316 232.237L-276.345 259.183H-244.403L-228.432 232.237ZM-293.574 177.287L-277.134 149.543L-276.978 149.275H-243.778L-227.182 177.279L-243.621 205.023L-243.778 205.291H-276.978L-293.574 177.287ZM-228.432 177.287L-244.403 150.341H-276.345L-292.316 177.287L-276.345 204.232H-244.403L-228.432 177.287ZM-293.574 122.336L-277.134 94.593L-276.978 94.3248H-243.778L-227.182 122.329L-243.621 150.072L-243.778 150.341H-276.978L-293.574 122.336ZM-228.432 122.336L-244.403 95.3904H-276.345L-292.316 122.336L-276.345 149.282H-244.403L-228.432 122.336ZM-293.574 67.3862L-277.134 39.6428L-276.978 39.3746H-243.778L-227.182 67.3789L-243.621 95.1222L-243.778 95.3904H-276.978L-293.574 67.3862ZM-228.432 67.3862L-244.403 40.4403H-276.345L-292.316 67.3862L-276.345 94.3321H-244.403L-228.432 67.3862ZM-293.574 12.436L-277.134 -15.3073L-276.978 -15.5756H-243.778L-227.182 12.4287L-243.621 40.172L-243.778 40.4403H-276.978L-293.574 12.436ZM-228.432 12.436L-244.403 -14.5099H-276.345L-292.316 12.436L-276.345 39.3819H-244.403L-228.432 12.436ZM-342.432 589.42L-325.992 561.677L-325.836 561.409H-292.636L-276.04 589.413L-292.48 617.156L-292.636 617.424H-325.836L-342.432 589.42ZM-277.29 589.42L-293.261 562.474H-325.203L-341.174 589.42L-325.203 616.366H-293.261L-277.29 589.42ZM-342.432 534.47L-325.992 506.727L-325.836 506.458H-292.636L-276.04 534.463L-292.48 562.206L-292.636 562.474H-325.836L-342.432 534.47ZM-277.29 534.47L-293.261 507.524H-325.203L-341.174 534.47L-325.203 561.416H-293.261L-277.29 534.47ZM-342.432 424.57L-325.992 396.826L-325.836 396.558H-292.636L-276.04 424.562L-292.48 452.306L-292.636 452.574H-325.836L-342.432 424.57ZM-277.29 424.57L-293.261 397.624H-325.203L-341.174 424.57L-325.203 451.515H-293.261L-277.29 424.57ZM-342.432 314.669L-325.992 286.926L-325.836 286.658H-292.636L-276.04 314.662L-292.48 342.405L-292.636 342.674H-325.836L-342.432 314.669ZM-277.29 314.669L-293.261 287.723H-325.203L-341.174 314.669L-325.203 341.615H-293.261L-277.29 314.669ZM-342.432 259.719L-325.992 231.976L-325.836 231.707H-292.636L-276.04 259.712L-292.48 287.455L-292.636 287.723H-325.836L-342.432 259.719ZM-277.29 259.719L-293.261 232.773H-325.203L-341.174 259.719L-325.203 286.665H-293.261L-277.29 259.719ZM-342.432 204.769L-325.992 177.026L-325.836 176.757H-292.636L-276.04 204.762L-292.48 232.505L-292.636 232.773H-325.836L-342.432 204.769ZM-277.29 204.769L-293.261 177.823H-325.203L-341.174 204.769L-325.203 231.715H-293.261L-277.29 204.769ZM-342.432 94.8685L-325.992 67.1252L-325.836 66.857H-292.636L-276.04 94.8613L-292.48 122.605L-292.636 122.873H-325.836L-342.432 94.8685ZM-277.29 94.8685L-293.261 67.9226H-325.203L-341.174 94.8685L-325.203 121.814H-293.261L-277.29 94.8685ZM-391.96 506.988L-375.52 479.244L-375.364 478.976H-342.164L-325.568 506.98L-342.008 534.724L-342.164 534.992H-375.364L-391.96 506.988ZM-326.826 506.988L-342.797 480.042H-374.739L-390.71 506.988L-374.739 533.934H-342.797L-326.826 506.988ZM-391.96 397.087L-375.52 369.344L-375.364 369.076H-342.164L-325.568 397.08L-342.008 424.823L-342.164 425.092H-375.364L-391.96 397.087ZM-326.826 397.087L-342.797 370.141H-374.739L-390.71 397.087L-374.739 424.033H-342.797L-326.826 397.087ZM-391.96 287.187L-375.52 259.444L-375.364 259.175H-342.164L-325.568 287.18L-342.008 314.923L-342.164 315.191H-375.364L-391.96 287.187ZM-326.826 287.187L-342.797 260.241H-374.739L-390.71 287.187L-374.739 314.133H-342.797L-326.826 287.187ZM-391.96 232.237L-375.52 204.493L-375.364 204.225H-342.164L-325.568 232.229L-342.008 259.973L-342.164 260.241H-375.364L-391.96 232.237ZM-326.826 232.237L-342.797 205.291H-374.739L-390.71 232.237L-374.739 259.183H-342.797L-326.826 232.237ZM-391.96 122.336L-375.52 94.593L-375.364 94.3248H-342.164L-325.568 122.329L-342.008 150.072L-342.164 150.341H-375.364L-391.96 122.336ZM-326.826 122.336L-342.797 95.3904H-374.739L-390.71 122.336L-374.739 149.282H-342.797L-326.826 122.336ZM-391.96 67.3862L-375.52 39.6428L-375.364 39.3746H-342.164L-325.568 67.3789L-342.008 95.1222L-342.164 95.3904H-375.364L-391.96 67.3862ZM-326.826 67.3862L-342.797 40.4403H-374.739L-390.71 67.3862L-374.739 94.3321H-342.797L-326.826 67.3862ZM-391.96 12.436L-375.52 -15.3073L-375.364 -15.5756H-342.164L-325.568 12.4287L-342.008 40.172L-342.164 40.4403H-375.364L-391.96 12.436ZM-326.826 12.436L-342.797 -14.5099H-374.739L-390.71 12.436L-374.739 39.3819H-342.797L-326.826 12.436ZM-440.826 479.52L-424.386 451.776L-424.23 451.508H-391.03L-374.434 479.513L-390.874 507.256L-391.03 507.524H-424.23L-440.826 479.52ZM-375.684 479.52L-391.655 452.574H-423.597L-439.568 479.52L-423.597 506.466H-391.655L-375.684 479.52ZM-440.826 424.57L-424.386 396.826L-424.23 396.558H-391.03L-374.434 424.562L-390.874 452.306L-391.03 452.574H-424.23L-440.826 424.57ZM-375.684 424.57L-391.655 397.624H-423.597L-439.568 424.57L-423.597 451.515H-391.655L-375.684 424.57ZM-440.826 369.619L-424.386 341.876L-424.23 341.608H-391.03L-374.434 369.612L-390.874 397.355L-391.03 397.624H-424.23L-440.826 369.619ZM-375.684 369.619L-391.655 342.674H-423.597L-439.568 369.619L-423.597 396.565H-391.655L-375.684 369.619ZM-440.826 314.669L-424.386 286.926L-424.23 286.658H-391.03L-374.434 314.662L-390.874 342.405L-391.03 342.674H-424.23L-440.826 314.669ZM-375.684 314.669L-391.655 287.723H-423.597L-439.568 314.669L-423.597 341.615H-391.655L-375.684 314.669ZM-440.826 259.719L-424.386 231.976L-424.23 231.707H-391.03L-374.434 259.712L-390.874 287.455L-391.03 287.723H-424.23L-440.826 259.719ZM-375.684 259.719L-391.655 232.773H-423.597L-439.568 259.719L-423.597 286.665H-391.655L-375.684 259.719ZM-440.826 204.769L-424.386 177.026L-424.23 176.757H-391.03L-374.434 204.762L-390.874 232.505L-391.03 232.773H-424.23L-440.826 204.769ZM-375.684 204.769L-391.655 177.823H-423.597L-439.568 204.769L-423.597 231.715H-391.655L-375.684 204.769ZM-490.354 561.938L-473.914 534.194L-473.758 533.926H-440.558L-423.962 561.931L-440.402 589.674L-440.558 589.942H-473.758L-490.354 561.938ZM-425.22 561.938L-441.191 534.992H-473.133L-489.104 561.938L-473.133 588.884H-441.191L-425.22 561.938ZM-490.354 506.988L-473.914 479.244L-473.758 478.976H-440.558L-423.962 506.98L-440.402 534.724L-440.558 534.992H-473.758L-490.354 506.988ZM-425.22 506.988L-441.191 480.042H-473.133L-489.104 506.988L-473.133 533.934H-441.191L-425.22 506.988ZM-490.354 452.037L-473.914 424.294L-473.758 424.026H-440.558L-423.962 452.03L-440.402 479.773L-440.558 480.042H-473.758L-490.354 452.037ZM-425.22 452.037L-441.191 425.092H-473.133L-489.104 452.037L-473.133 478.983H-441.191L-425.22 452.037ZM-490.354 342.137L-473.914 314.394L-473.758 314.126H-440.558L-423.962 342.13L-440.402 369.873L-440.558 370.141H-473.758L-490.354 342.137ZM-425.22 342.137L-441.191 315.191H-473.133L-489.104 342.137L-473.133 369.083H-441.191L-425.22 342.137ZM-490.354 232.237L-473.914 204.493L-473.758 204.225H-440.558L-423.962 232.229L-440.402 259.973L-440.558 260.241H-473.758L-490.354 232.237ZM-425.22 232.237L-441.191 205.291H-473.133L-489.104 232.237L-473.133 259.183H-441.191L-425.22 232.237ZM-490.354 177.287L-473.914 149.543L-473.758 149.275H-440.558L-423.962 177.279L-440.402 205.023L-440.558 205.291H-473.758L-490.354 177.287ZM-425.22 177.287L-441.191 150.341H-473.133L-489.104 177.287L-473.133 204.232H-441.191L-425.22 177.287ZM-490.354 122.336L-473.914 94.593L-473.758 94.3248H-440.558L-423.962 122.329L-440.402 150.072L-440.558 150.341H-473.758L-490.354 122.336ZM-425.22 122.336L-441.191 95.3904H-473.133L-489.104 122.336L-473.133 149.282H-441.191L-425.22 122.336ZM-539.212 589.42L-522.772 561.677L-522.616 561.409H-489.416L-472.82 589.413L-489.26 617.156L-489.416 617.424H-522.616L-539.212 589.42ZM-474.078 589.42L-490.049 562.474H-521.991L-537.962 589.42L-521.991 616.366H-490.049L-474.078 589.42ZM-539.212 534.47L-522.772 506.727L-522.616 506.458H-489.416L-472.82 534.463L-489.26 562.206L-489.416 562.474H-522.616L-539.212 534.47ZM-474.078 534.47L-490.049 507.524H-521.991L-537.962 534.47L-521.991 561.416H-490.049L-474.078 534.47ZM-539.212 479.52L-522.772 451.776L-522.616 451.508H-489.416L-472.82 479.513L-489.26 507.256L-489.416 507.524H-522.616L-539.212 479.52ZM-474.078 479.52L-490.049 452.574H-521.991L-537.962 479.52L-521.991 506.466H-490.049L-474.078 479.52ZM-539.212 424.57L-522.772 396.826L-522.616 396.558H-489.416L-472.82 424.562L-489.26 452.306L-489.416 452.574H-522.616L-539.212 424.57ZM-474.078 424.57L-490.049 397.624H-521.991L-537.962 424.57L-521.991 451.515H-490.049L-474.078 424.57ZM-539.212 369.619L-522.772 341.876L-522.616 341.608H-489.416L-472.82 369.612L-489.26 397.355L-489.416 397.624H-522.616L-539.212 369.619ZM-474.078 369.619L-490.049 342.674H-521.991L-537.962 369.619L-521.991 396.565H-490.049L-474.078 369.619ZM-539.212 259.719L-522.772 231.976L-522.616 231.707H-489.416L-472.82 259.712L-489.26 287.455L-489.416 287.723H-522.616L-539.212 259.719ZM-474.078 259.719L-490.049 232.773H-521.991L-537.962 259.719L-521.991 286.665H-490.049L-474.078 259.719ZM-539.212 204.769L-522.772 177.026L-522.616 176.757H-489.416L-472.82 204.762L-489.26 232.505L-489.416 232.773H-522.616L-539.212 204.769ZM-474.078 204.769L-490.049 177.823H-521.991L-537.962 204.769L-521.991 231.715H-490.049L-474.078 204.769ZM-539.212 149.819L-522.772 122.075L-522.616 121.807H-489.416L-472.82 149.811L-489.26 177.555L-489.416 177.823H-522.616L-539.212 149.819ZM-474.078 149.819L-490.049 122.873H-521.991L-537.962 149.819L-521.991 176.765H-490.049L-474.078 149.819ZM-539.212 94.8685L-522.772 67.1252L-522.616 66.857H-489.416L-472.82 94.8613L-489.26 122.605L-489.416 122.873H-522.616L-539.212 94.8685ZM-474.078 94.8685L-490.049 67.9226H-521.991L-537.962 94.8685L-521.991 121.814H-490.049L-474.078 94.8685ZM-539.212 39.9256L-522.772 12.1822L-522.616 11.914H-489.416L-472.82 39.9183L-489.26 67.6616L-489.416 67.9299H-522.616L-539.212 39.9256ZM-474.078 39.9256L-490.049 12.9797H-521.991L-537.962 39.9256L-521.991 66.8715H-490.049L-474.078 39.9256ZM-588.748 561.938L-572.308 534.194L-572.152 533.926H-538.952L-522.356 561.931L-538.796 589.674L-538.952 589.942H-572.152L-588.748 561.938ZM-523.613 561.938L-539.584 534.992H-571.527L-587.498 561.938L-571.527 588.884H-539.584L-523.613 561.938ZM-588.748 506.988L-572.308 479.244L-572.152 478.976H-538.952L-522.356 506.98L-538.796 534.724L-538.952 534.992H-572.152L-588.748 506.988ZM-523.613 506.988L-539.584 480.042H-571.527L-587.498 506.988L-571.527 533.934H-539.584L-523.613 506.988ZM-588.748 397.087L-572.308 369.344L-572.152 369.076H-538.952L-522.356 397.08L-538.796 424.823L-538.952 425.092H-572.152L-588.748 397.087ZM-523.613 397.087L-539.584 370.141H-571.527L-587.498 397.087L-571.527 424.033H-539.584L-523.613 397.087ZM-588.748 342.137L-572.308 314.394L-572.152 314.126H-538.952L-522.356 342.13L-538.796 369.873L-538.952 370.141H-572.152L-588.748 342.137ZM-523.613 342.137L-539.584 315.191H-571.527L-587.498 342.137L-571.527 369.083H-539.584L-523.613 342.137ZM-588.748 287.187L-572.308 259.444L-572.152 259.175H-538.952L-522.356 287.18L-538.796 314.923L-538.952 315.191H-572.152L-588.748 287.187ZM-523.613 287.187L-539.584 260.241H-571.527L-587.498 287.187L-571.527 314.133H-539.584L-523.613 287.187ZM-588.748 177.287L-572.308 149.543L-572.152 149.275H-538.952L-522.356 177.279L-538.796 205.023L-538.952 205.291H-572.152L-588.748 177.287ZM-523.613 177.287L-539.584 150.341H-571.527L-587.498 177.287L-571.527 204.232H-539.584L-523.613 177.287ZM-588.748 122.336L-572.308 94.593L-572.152 94.3248H-538.952L-522.356 122.329L-538.796 150.072L-538.952 150.341H-572.152L-588.748 122.336ZM-523.613 122.336L-539.584 95.3904H-571.527L-587.498 122.336L-571.527 149.282H-539.584L-523.613 122.336ZM-588.748 67.3862L-572.308 39.6428L-572.152 39.3746H-538.952L-522.356 67.3789L-538.796 95.1222L-538.952 95.3904H-572.152L-588.748 67.3862ZM-523.613 67.3862L-539.584 40.4403H-571.527L-587.498 67.3862L-571.527 94.3321H-539.584L-523.613 67.3862ZM-588.748 12.436L-572.308 -15.3073L-572.152 -15.5756H-538.952L-522.356 12.4287L-538.796 40.172L-538.952 40.4403H-572.152L-588.748 12.436ZM-523.613 12.436L-539.584 -14.5099H-571.527L-587.498 12.436L-571.527 39.3819H-539.584L-523.613 12.436ZM-637.606 589.42L-621.166 561.677L-621.01 561.409H-587.81L-571.214 589.413L-587.654 617.156L-587.81 617.424H-621.01L-637.606 589.42ZM-572.472 589.42L-588.443 562.474H-620.385L-636.356 589.42L-620.385 616.366H-588.443L-572.472 589.42ZM-637.606 534.47L-621.166 506.727L-621.01 506.458H-587.81L-571.214 534.463L-587.654 562.206L-587.81 562.474H-621.01L-637.606 534.47ZM-572.472 534.47L-588.443 507.524H-620.385L-636.356 534.47L-620.385 561.416H-588.443L-572.472 534.47ZM-637.606 479.52L-621.166 451.776L-621.01 451.508H-587.81L-571.214 479.513L-587.654 507.256L-587.81 507.524H-621.01L-637.606 479.52ZM-572.472 479.52L-588.443 452.574H-620.385L-636.356 479.52L-620.385 506.466H-588.443L-572.472 479.52ZM-637.606 369.619L-621.166 341.876L-621.01 341.608H-587.81L-571.214 369.612L-587.654 397.355L-587.81 397.624H-621.01L-637.606 369.619ZM-572.472 369.619L-588.443 342.674H-620.385L-636.356 369.619L-620.385 396.565H-588.443L-572.472 369.619ZM-637.606 314.669L-621.166 286.926L-621.01 286.658H-587.81L-571.214 314.662L-587.654 342.405L-587.81 342.674H-621.01L-637.606 314.669ZM-572.472 314.669L-588.443 287.723H-620.385L-636.356 314.669L-620.385 341.615H-588.443L-572.472 314.669ZM-637.606 259.719L-621.166 231.976L-621.01 231.707H-587.81L-571.214 259.712L-587.654 287.455L-587.81 287.723H-621.01L-637.606 259.719ZM-572.472 259.719L-588.443 232.773H-620.385L-636.356 259.719L-620.385 286.665H-588.443L-572.472 259.719ZM-637.606 204.769L-621.166 177.026L-621.01 176.757H-587.81L-571.214 204.762L-587.654 232.505L-587.81 232.773H-621.01L-637.606 204.769ZM-572.472 204.769L-588.443 177.823H-620.385L-636.356 204.769L-620.385 231.715H-588.443L-572.472 204.769ZM-637.606 94.8685L-621.166 67.1252L-621.01 66.857H-587.81L-571.214 94.8613L-587.654 122.605L-587.81 122.873H-621.01L-637.606 94.8685ZM-572.472 94.8685L-588.443 67.9226H-620.385L-636.356 94.8685L-620.385 121.814H-588.443L-572.472 94.8685ZM-637.606 39.9256L-621.166 12.1822L-621.01 11.914H-587.81L-571.214 39.9183L-587.654 67.6616L-587.81 67.9299H-621.01L-637.606 39.9256ZM-572.472 39.9256L-588.443 12.9797H-620.385L-636.356 39.9256L-620.385 66.8715H-588.443L-572.472 39.9256ZM-687.142 561.938L-670.702 534.194L-670.546 533.926H-637.346L-620.749 561.931L-637.189 589.674L-637.346 589.942H-670.546L-687.142 561.938ZM-622 561.938L-637.971 534.992H-669.913L-685.884 561.938L-669.913 588.884H-637.971L-622 561.938ZM-687.142 506.988L-670.702 479.244L-670.546 478.976H-637.346L-620.749 506.98L-637.189 534.724L-637.346 534.992H-670.546L-687.142 506.988ZM-622 506.988L-637.971 480.042H-669.913L-685.884 506.988L-669.913 533.934H-637.971L-622 506.988ZM-687.142 452.037L-670.702 424.294L-670.546 424.026H-637.346L-620.749 452.03L-637.189 479.773L-637.346 480.042H-670.546L-687.142 452.037ZM-622 452.037L-637.971 425.092H-669.913L-685.884 452.037L-669.913 478.983H-637.971L-622 452.037ZM-687.142 342.137L-670.702 314.394L-670.546 314.126H-637.346L-620.749 342.13L-637.189 369.873L-637.346 370.141H-670.546L-687.142 342.137ZM-622 342.137L-637.971 315.191H-669.913L-685.884 342.137L-669.913 369.083H-637.971L-622 342.137ZM-687.142 287.187L-670.702 259.444L-670.546 259.175H-637.346L-620.749 287.18L-637.189 314.923L-637.346 315.191H-670.546L-687.142 287.187ZM-622 287.187L-637.971 260.241H-669.913L-685.884 287.187L-669.913 314.133H-637.971L-622 287.187ZM-687.142 232.237L-670.702 204.493L-670.546 204.225H-637.346L-620.749 232.229L-637.189 259.973L-637.346 260.241H-670.546L-687.142 232.237ZM-622 232.237L-637.971 205.291H-669.913L-685.884 232.237L-669.913 259.183H-637.971L-622 232.237ZM-687.142 122.336L-670.702 94.593L-670.546 94.3248H-637.346L-620.749 122.329L-637.189 150.072L-637.346 150.341H-670.546L-687.142 122.336ZM-622 122.336L-637.971 95.3904H-669.913L-685.884 122.336L-669.913 149.282H-637.971L-622 122.336ZM-687.142 67.3862L-670.702 39.6428L-670.546 39.3746H-637.346L-620.749 67.3789L-637.189 95.1222L-637.346 95.3904H-670.546L-687.142 67.3862ZM-622 67.3862L-637.971 40.4403H-669.913L-685.884 67.3862L-669.913 94.3321H-637.971L-622 67.3862ZM-687.142 12.436L-670.702 -15.3073L-670.546 -15.5756H-637.346L-620.749 12.4287L-637.189 40.172L-637.346 40.4403H-670.546L-687.142 12.436ZM-622 12.436L-637.971 -14.5099H-669.913L-685.884 12.436L-669.913 39.3819H-637.971L-622 12.436ZM-736 589.42L-719.56 561.677L-719.404 561.409H-686.204L-669.608 589.413L-686.048 617.156L-686.204 617.424H-719.404L-736 589.42ZM-670.858 589.42L-686.829 562.474H-718.771L-734.742 589.42L-718.771 616.366H-686.829L-670.858 589.42ZM-736 479.52L-719.56 451.776L-719.404 451.508H-686.204L-669.608 479.513L-686.048 507.256L-686.204 507.524H-719.404L-736 479.52ZM-670.858 479.52L-686.829 452.574H-718.771L-734.742 479.52L-718.771 506.466H-686.829L-670.858 479.52ZM-736 424.57L-719.56 396.826L-719.404 396.558H-686.204L-669.608 424.562L-686.048 452.306L-686.204 452.574H-719.404L-736 424.57ZM-670.858 424.57L-686.829 397.624H-718.771L-734.742 424.57L-718.771 451.515H-686.829L-670.858 424.57ZM-736 314.669L-719.56 286.926L-719.404 286.658H-686.204L-669.608 314.662L-686.048 342.405L-686.204 342.674H-719.404L-736 314.669ZM-670.858 314.669L-686.829 287.723H-718.771L-734.742 314.669L-718.771 341.615H-686.829L-670.858 314.669ZM-736 204.769L-719.56 177.026L-719.404 176.757H-686.204L-669.608 204.762L-686.048 232.505L-686.204 232.773H-719.404L-736 204.769ZM-670.858 204.769L-686.829 177.823H-718.771L-734.742 204.769L-718.771 231.715H-686.829L-670.858 204.769ZM-736 149.819L-719.56 122.075L-719.404 121.807H-686.204L-669.608 149.811L-686.048 177.555L-686.204 177.823H-719.404L-736 149.819ZM-670.858 149.819L-686.829 122.873H-718.771L-734.742 149.819L-718.771 176.765H-686.829L-670.858 149.819ZM-736 94.8685L-719.56 67.1252L-719.404 66.857H-686.204L-669.608 94.8613L-686.048 122.605L-686.204 122.873H-719.404L-736 94.8685ZM-670.858 94.8685L-686.829 67.9226H-718.771L-734.742 94.8685L-718.771 121.814H-686.829L-670.858 94.8685ZM-736 39.9256L-719.56 12.1822L-719.404 11.914H-686.204L-669.608 39.9183L-686.048 67.6616L-686.204 67.9299H-719.404L-736 39.9256ZM-670.858 39.9256L-686.829 12.9797H-718.771L-734.742 39.9256L-718.771 66.8715H-686.829L-670.858 39.9256Z" fill="url(#paint0_linear_4166_8524)"/>
<defs>
<linearGradient id="paint0_linear_4166_8524" x1="-2.50002" y1="82.5" x2="68" y2="592" gradientUnits="userSpaceOnUse">
<stop stop-color="#075F55"/>
<stop offset="0.5" stop-color="#9AC12A" stop-opacity="0.4"/>
<stop offset="1" stop-color="#00A164"/>
</linearGradient>
</defs>
</svg>
