<svg xmlns="http://www.w3.org/2000/svg" width="56" height="56" fill="none" viewBox="0 0 56 56">
  <rect width="56" height="56" fill="#075F55" rx="16"/>
  <path fill="#A6D05D" d="m28 13 .489-.872a1 1 0 0 0-.979 0L28 13Zm2.329 1.307-.49.872a1 1 0 0 0 .477.128l.013-1Zm2.67.033.86-.51a1 1 0 0 0-.847-.49l-.013 1Zm1.364 2.296-.86.51a1 1 0 0 0 .35.35l.51-.86ZM36.66 18l1-.012a1 1 0 0 0-.49-.848l-.51.86Zm.033 2.67-1 .013a1 1 0 0 0 .128.477l.872-.49ZM37.999 23l.872.49a1 1 0 0 0 0-.98L38 23Zm-1.306 2.33-.872-.49a1 1 0 0 0-.128.477l1 .012ZM36.66 28l.51.86a1 1 0 0 0 .49-.848l-1-.012Zm-2.297 1.364-.51-.86a1 1 0 0 0-.35.35l.86.51ZM33 31.66l.013 1a1 1 0 0 0 .847-.49l-.86-.51Zm-2.67.033-.013-1a1 1 0 0 0-.476.128l.489.872ZM27.999 33l-.489.872a1 1 0 0 0 .979 0l-.49-.872Zm-2.329-1.307.49-.872a1 1 0 0 0-.478-.128l-.012 1ZM23 31.66l-.86.51a1 1 0 0 0 .847.49l.012-1Zm-1.365-2.296.86-.51a1 1 0 0 0-.349-.35l-.51.86ZM19.34 28l-1 .012a1 1 0 0 0 .49.848l.51-.86Zm-.033-2.67 1-.013a1 1 0 0 0-.128-.477l-.872.49ZM17.999 23l-.872-.49a1 1 0 0 0 0 .98L18 23Zm1.307-2.33.872.49a1 1 0 0 0 .128-.477l-1-.012Zm.033-2.67-.51-.86a1 1 0 0 0-.49.848l1 .012Zm2.296-1.364.511.86a1 1 0 0 0 .35-.35l-.86-.51ZM23 14.34l-.012-1a1 1 0 0 0-.847.49l.86.51Zm2.671-.033.012 1a1 1 0 0 0 .477-.128l-.489-.872Zm-11.004 25.36-.894-.448a1 1 0 0 0 .894 1.448v-1Zm4.167 0 .8-.6a1 1 0 0 0-.8-.4v1Zm2.5 3.333-.8.6a1 1 0 0 0 1.694-.153L21.333 43Zm20-3.333v1a1 1 0 0 0 .894-1.448l-.894.448Zm-4.167 0v-1a1 1 0 0 0-.8.4l.8.6ZM34.666 43l-.894.447a1 1 0 0 0 1.694.153l-.8-.6Zm5.061-8.78a1 1 0 1 0-1.789.894l.895-.447.894-.448Zm-6.667 3.333a1 1 0 1 0-1.788.894l.894-.447.894-.447Zm-8.333.894a1 1 0 0 0-1.789-.894l.895.447.894.447Zm-6.667-3.333a1 1 0 1 0-1.788-.895l.894.448.894.447ZM28 13l-.49.872 2.33 1.307.489-.872.489-.873-2.33-1.306L28 13Zm2.329 1.307-.013 1 2.671.033.012-1 .013-1-2.67-.033-.013 1Zm2.67.033-.86.51 1.364 2.297.86-.511.86-.51-1.364-2.297-.86.51Zm1.364 2.296-.51.86 2.296 1.364.51-.86.511-.86-2.296-1.364-.51.86ZM36.66 18l-1 .012.033 2.671 1-.012 1-.013-.033-2.67-1 .012Zm.033 2.67-.872.49 1.306 2.33L38 23l.872-.49-1.306-2.329-.872.49ZM37.999 23l-.872-.49-1.306 2.33.872.49.872.489 1.306-2.33L38 23Zm-1.306 2.33-1-.013-.033 2.67 1 .013 1 .012.033-2.67-1-.013Zm-2.33 4.034-.86-.51-1.363 2.296.86.51.86.51 1.363-2.295-.86-.511ZM33 31.66l-.012-1-2.67.033.012 1 .012 1 2.67-.033-.012-1Zm-7.329.033.012-1-2.67-.033-.013 1-.012 1 2.67.033.013-1ZM23 31.66l.86-.51-1.365-2.297-.86.511-.86.51 1.365 2.297.86-.51ZM19.34 28l.999-.012-.033-2.671-1 .012-1 .013.033 2.67 1-.012Zm-.034-2.67.872-.49-1.306-2.33-.873.49-.872.49 1.307 2.329.872-.49ZM17.999 23l.873.49 1.306-2.33-.872-.49-.872-.489-1.307 2.33L18 23Zm1.307-2.33 1 .013.033-2.67-1-.013-1-.012-.033 2.67 1 .013Zm.033-2.67.51.86 2.297-1.364-.51-.86-.511-.86-2.297 1.364.511.86Zm2.296-1.364.86.51 1.364-2.296-.86-.51-.86-.51-1.363 2.295.86.511ZM23 14.34l.013 1 2.67-.033-.012-1-.012-1-2.671.033.012 1Zm2.671-.033.49.872 2.329-1.307L28 13l-.489-.872-2.33 1.306.49.873ZM36.66 28l-.511-.86-2.296 1.364.51.86.511.86 2.296-1.364-.51-.86Zm-15.025 1.364.511-.86-2.296-1.364-.51.86-.512.86 2.297 1.364.51-.86Zm8.694 2.33-.49-.873-2.329 1.307L28 33l.489.872 2.329-1.306-.49-.873ZM27.999 33l.49-.872-2.33-1.307-.489.872-.49.872 2.33 1.307L28 33Zm-13.333 6.667v1h4.167v-2h-4.167v1Zm4.167 0-.8.6 2.5 3.333.8-.6.8-.6-2.5-3.333-.8.6Zm22.5 0v-1h-4.167v2h4.167v-1Zm-4.167 0-.8-.6-2.5 3.333.8.6.8.6 2.5-3.333-.8-.6Zm1.667-5-.895.447 2.5 5 .895-.447.894-.448-2.5-5-.894.448ZM32.166 38l-.894.447 2.5 5 .894-.447.894-.447-2.5-5-.894.447Zm-8.333 0-.895-.447-2.5 5 .895.447.894.447 2.5-5-.894-.447Zm-6.667-3.333-.894-.448-2.5 5 .894.448.894.447 2.5-5-.894-.447ZM31.333 23h-1a2.333 2.333 0 0 1-2.334 2.333v2A4.333 4.333 0 0 0 32.333 23h-1Zm-3.334 3.333v-1A2.333 2.333 0 0 1 25.666 23h-2a4.333 4.333 0 0 0 4.333 4.333v-1ZM24.666 23h1a2.333 2.333 0 0 1 2.333-2.333v-2A4.333 4.333 0 0 0 23.666 23h1Zm3.333-3.333v1A2.333 2.333 0 0 1 30.333 23h2a4.333 4.333 0 0 0-4.334-4.333v1Z"/>
</svg>
