<svg xmlns="http://www.w3.org/2000/svg" width="32" height="32" fill="none" viewBox="0 0 32 32">
  <rect width="32" height="32" fill="#A6D05D" rx="8"/>
  <path fill="#075F55" d="m16 9.574-.548.512a.75.75 0 0 0 1.096 0L16 9.574Zm-2.566 13.222c-1.45-1.176-3.142-2.719-4.466-4.408-1.339-1.707-2.218-3.46-2.218-5.07h-1.5c0 2.117 1.13 4.202 2.537 5.996 1.422 1.813 3.21 3.436 4.702 4.647l.945-1.165ZM6.75 13.318c0-2.905 1.268-4.7 2.836-5.315 1.565-.613 3.754-.175 5.866 2.083l1.096-1.024c-2.388-2.554-5.199-3.36-7.509-2.456-2.307.904-3.789 3.386-3.789 6.712h1.5ZM19.51 23.96c1.493-1.211 3.281-2.834 4.703-4.647 1.407-1.794 2.537-3.879 2.537-5.997h-1.5c0 1.612-.88 3.364-2.218 5.071-1.324 1.689-3.016 3.232-4.466 4.408l.944 1.165Zm7.24-10.644c0-3.325-1.482-5.807-3.79-6.71-2.31-.905-5.12-.1-7.508 2.455l1.096 1.025c2.112-2.258 4.301-2.697 5.866-2.084 1.568.614 2.836 2.41 2.836 5.314h1.5ZM12.489 23.961c1.27 1.032 2.153 1.789 3.511 1.789v-1.5c-.723 0-1.173-.324-2.566-1.454l-.945 1.165Zm6.077-1.166c-1.393 1.13-1.843 1.455-2.566 1.455v1.5c1.358 0 2.241-.757 3.511-1.789l-.945-1.166Z"/>
  <path stroke="#075F55" stroke-linecap="round" stroke-width="1.5" d="M22.5 13h-2m0 0h-2m2 0v-2m0 2v2"/>
</svg>
