<svg xmlns="http://www.w3.org/2000/svg" width="80" height="80" fill="none" viewBox="0 0 80 80">
  <rect width="80" height="80" fill="#A6D05D" rx="16"/>
  <path fill="#075F55" d="M24.987 58.712a1.28 1.28 0 0 1-1.28-1.28c0-1.68 0-3.983 2.034-5.604a1.278 1.278 0 0 1 1.907.363c1.101 1.915 5.503 2.998 10.24 2.517 13.782-1.392 19.727-11.75 19.546-18.66-.147-5.626-3.13-8.484-5.874-9.283-2.533-.736-5.015.149-6.474 2.315-.523.774-1.328.85-1.892.584-1.756-.828-1.6-5.944-1.152-7.458a1.28 1.28 0 1 1 2.455.726c-.232.784-.237 2.065-.141 3.113 2.113-1.895 5.037-2.578 7.92-1.738 3.446 1.003 7.534 4.663 7.718 11.675.24 9.218-7.335 19.807-21.85 21.273-4.19.424-9.021-.209-11.567-2.416-.28.683-.31 1.535-.31 2.594a1.28 1.28 0 0 1-1.28 1.28Z"/>
  <path fill="#075F55" d="M21.28 58.712a1.28 1.28 0 0 1-1.28-1.28c0-3.308.97-6.62 2.375-8.32-.534-3.575 1.76-6.558 6.143-7.886 7.905-2.39 9.749-7.652 9.618-10.1-.02-.393-.093-.955-.177-1.606-.266-2.072-.631-4.911-.028-7.267a1.28 1.28 0 1 1 2.48.634c-.481 1.882-.153 4.44.087 6.307.09.702.168 1.308.195 1.797.232 4.375-3.247 10.21-11.434 12.687-1.957.592-5.115 2.101-4.257 5.533a1.28 1.28 0 0 1-.423 1.294c-.976.811-2.02 3.788-2.02 6.928a1.28 1.28 0 0 1-1.28 1.28Zm32.31-24.026a1.28 1.28 0 0 1-1.252-1.553c.232-1.059-.47-1.89-1.204-2.313-.661-.383-1.675-.608-2.356.012a1.281 1.281 0 0 1-1.722-1.894c1.402-1.275 3.506-1.407 5.36-.334 1.906 1.102 2.857 3.095 2.424 5.076a1.282 1.282 0 0 1-1.25 1.006Z"/>
</svg>
