<svg xmlns="http://www.w3.org/2000/svg" width="56" height="56" fill="none" viewBox="0 0 56 56">
  <rect width="56" height="56" fill="#075F55" rx="16"/>
  <path stroke="#A6D05D" stroke-linecap="round" stroke-linejoin="round" stroke-width="2" d="M14.665 43H41.33m-13.333 0V19.667m0 0a3.333 3.333 0 0 0 3.333-3.334m-3.333 3.334a3.333 3.333 0 0 1-3.333-3.334m6.666 0a3.333 3.333 0 0 0-6.666 0m6.666 0h10m-16.666 0h-10m3.333 20c2.521 0 4.606-1.402 4.95-3.747.022-.15.033-.224.024-.388a2.138 2.138 0 0 0-.08-.43c-.05-.157-.112-.268-.236-.488L17.998 23l-4.658 8.28c-.114.204-.172.306-.225.484a2.4 2.4 0 0 0-.07.485c0 .185.012.234.034.332.425 1.852 2.466 3.752 4.92 3.752Zm20 0c2.521 0 4.606-1.402 4.95-3.747.022-.15.033-.224.024-.388a2.138 2.138 0 0 0-.08-.43c-.05-.157-.112-.268-.236-.488L37.998 23l-4.657 8.28c-.115.204-.173.306-.226.484a2.4 2.4 0 0 0-.07.485c0 .185.012.234.034.332.425 1.852 2.466 3.752 4.92 3.752Z"/>
</svg>
