<svg xmlns="http://www.w3.org/2000/svg" width="32" height="32" fill="none" viewBox="0 0 32 32">
  <rect width="32" height="32" fill="#A6D05D" rx="8"/>
  <path fill="#075F55" d="M16 26a1 1 0 1 0 0-2v2Zm.445-17.988a1 1 0 0 0 .11-1.997l-.055.999-.055.998Zm-.682 5.225-.707-.707.707.707ZM21.41 7.59l.707.707-.707-.707ZM13 19l-.99-.141a1 1 0 0 0 1.188 1.121L13 19Zm.047-.332-.99-.142.99.142Zm.44.234-.197-.98.198.98Zm3.314-1.177-.572-.82.572.82Zm-1.237.663.366.93-.366-.93Zm-1.385-3.41-.83-.558.83.559Zm-.689 1.378-.944-.329.944.33Zm7.217-8.063a1 1 0 1 0-1.414 1.414L20 9l.707-.707Zm1.414 4.243a1 1 0 1 0 1.415-1.415l-.708.707-.707.708ZM20 20a1 1 0 1 0 0 2v-2Zm5.88-5.199a1 1 0 1 0-1.96.398L24.9 15l.98-.199ZM16 25v-1a8 8 0 0 1-8-8H6c0 5.523 4.477 10 10 10v-1Zm-9-9h1a8 8 0 0 1 8-8V6C10.477 6 6 10.477 6 16h1Zm9-9v1c.15 0 .298.004.445.012l.055-.998.055-.999C16.37 6.005 16.186 6 16 6v1Zm-.237 6.237.707.707 5.648-5.648-.707-.707-.707-.707-5.648 5.648.707.707Zm8.476-2.82-.707-.707-5.862 5.862.707.707.707.707 5.863-5.861-.708-.708ZM13 19l.99.141.047-.332-.99-.141-.99-.142-.047.333L13 19Zm.488-.098-.198-.98-.488.098L13 19l.198.98.488-.098-.198-.98Zm4.89-2.623-.708-.707c-.786.786-1.096 1.092-1.441 1.333l.572.82.573.82c.522-.365.973-.821 1.71-1.559l-.707-.707Zm-4.89 2.623.198.98c1.022-.207 1.651-.33 2.244-.563l-.366-.93-.366-.931c-.392.154-.818.244-1.908.463l.198.98Zm3.313-1.177-.572-.82c-.321.224-.667.41-1.031.553l.366.93.366.93c.51-.2.994-.46 1.444-.773l-.573-.82Zm-1.038-4.488-.707-.707c-.813.813-1.316 1.31-1.707 1.89l.83.559.83.558c.258-.383.594-.726 1.46-1.593l-.706-.707Zm-2.716 5.43.99.142c.174-1.213.246-1.688.398-2.124l-.945-.329-.944-.329c-.23.662-.326 1.362-.489 2.5l.99.14Zm1.132-3.688-.83-.559a6.998 6.998 0 0 0-.803 1.607l.944.33.945.328c.14-.406.334-.792.574-1.148l-.83-.558Zm10.06-7.39-.707.707a1 1 0 0 1 0 1.414l.707.707.707.708a3 3 0 0 0 0-4.243l-.707.707Zm0 0 .707-.707a3 3 0 0 0-4.242 0l.707.707.707.707a1 1 0 0 1 1.414 0l.707-.707ZM20 9l-.707.707 2.828 2.829.707-.708.707-.707-2.828-2.828L20 9Zm5 7h-1a4 4 0 0 1-4 4v2a6 6 0 0 0 6-6h-1Zm-.1-1-.98.199c.052.258.08.526.08.801h2c0-.41-.041-.81-.12-1.199L24.9 15Z"/>
</svg>
