<svg xmlns="http://www.w3.org/2000/svg" width="32" height="32" fill="none" viewBox="0 0 32 32">
  <rect width="32" height="32" fill="#A6D05D" rx="8"/>
  <path stroke="#075F55" stroke-linecap="round" stroke-linejoin="round" stroke-width="2" d="M15 22h2m-3.8 3h5.6c1.12 0 1.68 0 2.108-.218a2 2 0 0 0 .874-.874C22 23.48 22 22.92 22 21.8V10.2c0-1.12 0-1.68-.218-2.108a2 2 0 0 0-.874-.874C20.48 7 19.92 7 18.8 7h-5.6c-1.12 0-1.68 0-2.108.218a2 2 0 0 0-.874.874C10 8.52 10 9.08 10 10.2v11.6c0 1.12 0 1.68.218 2.108a2 2 0 0 0 .874.874C11.52 25 12.08 25 13.2 25Z"/>
</svg>
