<svg xmlns="http://www.w3.org/2000/svg" width="56" height="56" fill="none" viewBox="0 0 56 56">
  <rect width="56" height="56" fill="#075F55" rx="16"/>
  <path stroke="#A6D05D" stroke-linecap="round" stroke-linejoin="round" stroke-width="2" d="M13 24.667h30M18 20.5h.017m4.983 0h15M18.333 39.667h19.334c1.866 0 2.8 0 3.513-.364a3.333 3.333 0 0 0 1.457-1.456C43 37.134 43 36.2 43 34.333V21.667c0-1.867 0-2.8-.363-3.514a3.333 3.333 0 0 0-1.457-1.456c-.713-.364-1.647-.364-3.513-.364H18.333c-1.866 0-2.8 0-3.513.364-.627.32-1.137.83-1.457 1.456C13 18.866 13 19.8 13 21.667v12.666c0 1.867 0 2.8.363 3.514.32.627.83 1.137 1.457 1.456.713.364 1.646.364 3.513.364Z"/>
</svg>
