<svg xmlns="http://www.w3.org/2000/svg" width="56" height="56" fill="none" viewBox="0 0 56 56">
  <rect width="56" height="56" fill="#075F55" rx="16"/>
  <path stroke="#A6D05D" stroke-linecap="round" stroke-linejoin="round" stroke-width="2" d="M21.334 34.667v-8.334M28 34.667V21.333m6.667 13.334v-5m-20 6.333V20c0-1.867 0-2.8.363-3.513.32-.627.83-1.137 1.457-1.457.713-.363 1.647-.363 3.513-.363h16c1.867 0 2.8 0 3.514.363.627.32 1.137.83 1.456 1.457.364.713.364 1.646.364 3.513v16c0 1.867 0 2.8-.364 3.513a3.333 3.333 0 0 1-1.456 1.457c-.713.363-1.647.363-3.514.363H20c-1.866 0-2.8 0-3.513-.363a3.333 3.333 0 0 1-1.457-1.457c-.363-.713-.363-1.646-.363-3.513Z"/>
</svg>
