<svg xmlns="http://www.w3.org/2000/svg" width="80" height="80" fill="none" viewBox="0 0 80 80">
  <rect width="80" height="80" fill="#A6D05D" rx="16"/>
  <path fill="#075F55" stroke="#075F55" stroke-width=".7" d="M51.692 27.15a2.85 2.85 0 0 1 2.85 2.85v1.667a2.85 2.85 0 0 1-2.85 2.85h-2.5A5.494 5.494 0 0 0 43.71 40l-.001.35h-2.366V40a7.86 7.86 0 0 1 7.85-7.85h2.5a.483.483 0 0 0 .483-.483V30a.483.483 0 0 0-.483-.483H46.69a7.942 7.942 0 0 0-7.952 7.252v.003a3.65 3.65 0 0 1-.843 2.012l-.216.234-2.291 2.292-.248.247-.247-.247-1.177-1.177-.248-.247.248-.248 2.302-2.302c.21-.211.339-.489.367-.785a10.297 10.297 0 0 1 10.307-9.4h5Z"/>
  <path fill="#075F55" stroke="#075F55" stroke-width=".7" d="m37.948 27.084-.165.24-.396.573a6.64 6.64 0 0 0 .851 8.54l.25.24-.239.251-1.147 1.208-.242.256-.254-.244a9.016 9.016 0 0 1-1.69-10.753l-2.302-2.302.248-.247 1.177-1.176.247-.248 3.662 3.662Zm5.762-7.434v5.798l-.374-.026-.886-.063a5.54 5.54 0 0 0-1.85.197l-.465.134-.2.058-.145-.146-3.594-3.594-.248-.247 1.673-1.673.247.248 2.785 2.785c.229-.043.46-.078.69-.1v-3.37h2.367Zm4.166 0v5.801a8.773 8.773 0 0 1 1.654 2.378l.15.317-.318.15-1.51.708-.318.15-.148-.319a6.37 6.37 0 0 0-1.48-2.014h-.002l-.271-.231-.123-.106V19.65h2.366Z"/>
  <path fill="#075F55" stroke="#075F55" stroke-width=".7" d="m35.558 28.135.5 1.594.104.333-.333.105c-4.787 1.515-7.953 5.48-7.953 9.833 0 5.206 2.02 9.715 4.568 12.922 1.275 1.604 2.676 2.875 4.013 3.743 1.344.873 2.594 1.319 3.57 1.319.975 0 2.224-.446 3.568-1.319 1.337-.868 2.738-2.14 4.012-3.743 2.55-3.207 4.569-7.716 4.569-12.922 0-2.125-.731-4.174-2.132-5.928l-.218-.273.273-.219 1.302-1.04.274-.22.219.274c1.734 2.174 2.649 4.73 2.649 7.406 0 5.61-2.177 10.685-5.06 14.357-1.443 1.836-3.068 3.33-4.696 4.366-1.624 1.034-3.274 1.627-4.76 1.627-1.488 0-3.138-.593-4.762-1.627-1.629-1.037-3.254-2.53-4.696-4.366-2.883-3.672-5.06-8.747-5.06-14.357 0-5.435 3.882-10.285 9.61-12.095l.334-.105.105.335Z"/>
</svg>
