<svg xmlns="http://www.w3.org/2000/svg" width="32" height="32" fill="none" viewBox="0 0 32 32">
  <rect width="32" height="32" fill="#A6D05D" rx="8"/>
  <path fill="#075F55" d="M14.778 8.919v13.885h-3.005v-.932c-.661.753-1.643 1.21-2.985 1.21C6.163 23.081 4 20.8 4 17.844c0-2.956 2.164-5.237 4.788-5.237 1.342 0 2.323.456 2.985 1.21v-4.9h3.005Zm-3.005 8.926c0-1.487-1.002-2.42-2.384-2.42s-2.384.932-2.384 2.42 1.002 2.42 2.384 2.42 2.384-.932 2.384-2.42Zm11.217-5.157v3.371c-1.242-.198-3.005.298-3.005 2.262v4.483H16.98v-9.918h3.005v1.766c.4-1.33 1.743-1.964 3.006-1.964Zm1.203 8.509c0-1.031.861-1.884 1.904-1.884 1.042 0 1.903.852 1.903 1.884s-.861 1.884-1.903 1.884c-1.043 0-1.904-.852-1.904-1.884Z"/>
</svg>
