<svg xmlns="http://www.w3.org/2000/svg" width="56" height="56" fill="none" viewBox="0 0 56 56">
  <rect width="56" height="56" fill="#075F55" rx="16"/>
  <path stroke="#A6D05D" stroke-linecap="round" stroke-linejoin="round" stroke-width="2" d="M33 24.667v-.14a3.194 3.194 0 0 0-3.194-3.194h-3.473a3.333 3.333 0 0 0 0 6.667h3.334a3.333 3.333 0 0 1 0 6.667h-3.403A3.264 3.264 0 0 1 23 31.403v-.07m5 5.834V18.833M43 28c0 8.284-6.716 15-15 15-8.284 0-15-6.716-15-15 0-8.284 6.716-15 15-15 8.284 0 15 6.716 15 15Z"/>
</svg>
