<svg xmlns="http://www.w3.org/2000/svg" width="56" height="57" fill="none" viewBox="0 0 56 57">
  <rect width="56" height="56" y=".5" fill="#075F55" rx="16"/>
  <path stroke="#A6D05D" stroke-linecap="round" stroke-linejoin="round" stroke-width="2" d="M19 33.5h-1c-1.553 0-2.33 0-2.942.254a3.334 3.334 0 0 0-1.804 1.804C13 36.17 13 36.947 13 38.5c0 1.553 0 2.33.254 2.942a3.334 3.334 0 0 0 1.804 1.804c.612.254 1.389.254 2.942.254h20c1.553 0 2.33 0 2.942-.254a3.334 3.334 0 0 0 1.804-1.804C43 40.83 43 40.053 43 38.5c0-1.553 0-2.33-.254-2.942a3.334 3.334 0 0 0-1.804-1.804C40.33 33.5 39.553 33.5 38 33.5h-1m-9-10v13.333m0 0L24.667 33.5M28 36.833l3.333-3.333M18 23.5h20c1.553 0 2.33 0 2.942-.254a3.334 3.334 0 0 0 1.804-1.804C43 20.83 43 20.053 43 18.5c0-1.553 0-2.33-.254-2.942a3.334 3.334 0 0 0-1.804-1.804C40.33 13.5 39.553 13.5 38 13.5H18c-1.553 0-2.33 0-2.942.254a3.334 3.334 0 0 0-1.804 1.804C13 16.17 13 16.947 13 18.5c0 1.553 0 2.33.254 2.942a3.334 3.334 0 0 0 1.804 1.804c.612.254 1.389.254 2.942.254Z"/>
</svg>
