<svg xmlns="http://www.w3.org/2000/svg" width="57" height="57" fill="none" viewBox="0 0 57 57">
  <rect width="56" height="56" x=".5" y=".289" fill="#E4F7EF" rx="12"/>
  <path stroke="url(#a)" stroke-linecap="round" stroke-linejoin="round" stroke-width="2.75" d="M30.167 13.289h-8c-1.867 0-2.8 0-3.514.363-.627.32-1.137.83-1.456 1.457-.364.713-.364 1.646-.364 3.513v19.333c0 1.867 0 2.8.364 3.514.32.627.83 1.137 1.456 1.456.713.364 1.647.364 3.514.364h3m5-30 10 10m-10-10v7.333c0 .933 0 1.4.181 1.757.16.313.415.568.729.728.356.182.823.182 1.756.182h7.334m0 0v1.666M23.5 36.622h4.167M23.5 29.955h8.333M23.5 23.29h1.667m6.666 20 3.375-.675c.295-.06.442-.089.579-.142a1.66 1.66 0 0 0 .345-.185c.12-.084.227-.19.439-.403l6.929-6.929a2.357 2.357 0 1 0-3.333-3.333l-6.93 6.929c-.212.212-.318.318-.402.44a1.664 1.664 0 0 0-.184.344c-.054.137-.084.284-.143.579l-.675 3.375Z"/>
  <defs>
    <linearGradient id="a" x1="30.512" x2="30.512" y1="13.289" y2="43.289" gradientUnits="userSpaceOnUse">
      <stop stop-color="#1BA068"/>
      <stop offset="1" stop-color="#A6D05D"/>
    </linearGradient>
  </defs>
</svg>
