<svg width="56" height="56" viewBox="0 0 56 56" fill="none" xmlns="http://www.w3.org/2000/svg">
<rect width="56" height="56" rx="16" fill="#075F55"/>
<path d="M13 24.6666H43M18 20.5H18.0167M23 20.5H38M18.3333 39.6666H37.6667C39.5335 39.6666 40.4669 39.6666 41.18 39.3033C41.8072 38.9838 42.3171 38.4738 42.6367 37.8466C43 37.1336 43 36.2002 43 34.3333V21.6666C43 19.7998 43 18.8664 42.6367 18.1533C42.3171 17.5261 41.8072 17.0162 41.18 16.6966C40.4669 16.3333 39.5335 16.3333 37.6667 16.3333H18.3333C16.4665 16.3333 15.5331 16.3333 14.82 16.6966C14.1928 17.0162 13.6829 17.5261 13.3633 18.1533C13 18.8664 13 19.7998 13 21.6666V34.3333C13 36.2002 13 37.1336 13.3633 37.8466C13.6829 38.4738 14.1928 38.9838 14.82 39.3033C15.5331 39.6666 16.4665 39.6666 18.3333 39.6666Z" stroke="#A6D05D" stroke-width="2" stroke-linecap="round" stroke-linejoin="round"/>
</svg>
