<svg xmlns="http://www.w3.org/2000/svg" width="32" height="32" fill="none" viewBox="0 0 32 32">
  <rect width="32" height="32" fill="#A6D05D" rx="8"/>
  <path fill="#075F55" stroke="#075F55" stroke-width=".5" d="M17.8 7.35a2.05 2.05 0 0 1 2.05 2.05v2.75h2.75a2.05 2.05 0 0 1 2.05 2.052v3.6a2.05 2.05 0 0 1-2.05 2.049h-2.75v2.75a2.051 2.051 0 0 1-2.05 2.05h-3.6a2.05 2.05 0 0 1-2.05-2.05v-2.75H9.4a2.05 2.05 0 0 1-2.05-2.05v-3.6a2.052 2.052 0 0 1 2.05-2.05h2.75V9.4a2.05 2.05 0 0 1 2.05-2.05h3.6Zm-3.6 1.7a.35.35 0 0 0-.35.35V13a.85.85 0 0 1-.85.85H9.4a.35.35 0 0 0-.35.35v3.6a.35.35 0 0 0 .35.35H13a.85.85 0 0 1 .85.85v3.6a.351.351 0 0 0 .35.35h3.6a.35.35 0 0 0 .35-.35V19a.851.851 0 0 1 .85-.85h3.6a.35.35 0 0 0 .35-.35v-3.6a.352.352 0 0 0-.35-.35H19a.851.851 0 0 1-.85-.85V9.4a.35.35 0 0 0-.35-.35h-3.6Z"/>
</svg>
