<svg xmlns="http://www.w3.org/2000/svg" width="56" height="56" fill="none" viewBox="0 0 56 56">
  <rect width="56" height="56" fill="#075F55" rx="16"/>
  <path stroke="#A6D05D" stroke-linecap="round" stroke-linejoin="round" stroke-width="2" d="M33 28a5 5 0 1 1-10 0 5 5 0 0 1 10 0Z"/>
  <path stroke="#A6D05D" stroke-linecap="round" stroke-linejoin="round" stroke-width="2" d="M29.508 13.1c-.343-.1-.732-.1-1.508-.1s-1.165 0-1.508.1a2.5 2.5 0 0 0-1.268.859c-.22.28-.364.641-.652 1.362a2.108 2.108 0 0 1-2.624 1.217l-.952-.317c-.674-.225-1.012-.337-1.343-.356a2.5 2.5 0 0 0-1.391.328c-.288.165-.54.417-1.042.92-.535.534-.802.802-.972 1.107a2.5 2.5 0 0 0-.302 1.473c.036.347.176.698.457 1.4.44 1.1.017 2.355-.998 2.964l-.463.278c-.708.425-1.062.637-1.32.93a2.5 2.5 0 0 0-.504.89c-.118.371-.118.788-.118 1.622 0 .988 0 1.482.158 1.904a2.5 2.5 0 0 0 .66.977c.335.303.789.485 1.696.848a1.887 1.887 0 0 1 1.09 2.349l-.359 1.076c-.248.745-.372 1.117-.384 1.483a2.5 2.5 0 0 0 .299 1.264c.174.322.451.6 1.007 1.155.555.556.833.833 1.155 1.007a2.5 2.5 0 0 0 1.264.298c.366-.01.738-.135 1.483-.383l.879-.293a2.108 2.108 0 0 1 2.623 1.217c.289.72.433 1.081.653 1.362a2.5 2.5 0 0 0 1.268.859c.343.1.732.1 1.508.1s1.165 0 1.508-.1a2.5 2.5 0 0 0 1.268-.858c.22-.282.364-.642.652-1.363a2.108 2.108 0 0 1 2.624-1.217l.878.293c.745.248 1.118.372 1.484.384a2.5 2.5 0 0 0 1.263-.299c.323-.174.6-.451 1.156-1.007.555-.555.833-.833 1.007-1.155a2.5 2.5 0 0 0 .298-1.264c-.011-.366-.136-.738-.384-1.483l-.358-1.075a1.888 1.888 0 0 1 1.09-2.35c.907-.363 1.361-.545 1.695-.848a2.5 2.5 0 0 0 .661-.977c.158-.422.158-.916.158-1.904 0-.834 0-1.251-.118-1.622a2.5 2.5 0 0 0-.505-.89c-.257-.293-.61-.505-1.319-.93l-.463-.278a2.412 2.412 0 0 1-.999-2.964c.281-.702.421-1.053.457-1.4a2.5 2.5 0 0 0-.302-1.473c-.17-.305-.437-.573-.972-1.107-.503-.503-.754-.755-1.041-.92a2.5 2.5 0 0 0-1.392-.329c-.33.02-.668.132-1.343.357l-.95.317a2.108 2.108 0 0 1-2.624-1.217c-.289-.72-.433-1.081-.653-1.362a2.5 2.5 0 0 0-1.268-.859Z"/>
</svg>
