<svg xmlns="http://www.w3.org/2000/svg" width="56" height="56" fill="none" viewBox="0 0 56 56">
  <rect width="56" height="56" fill="#075F55" rx="16"/>
  <path stroke="#A6D05D" stroke-linecap="round" stroke-linejoin="round" stroke-width="2" d="M44.666 21.333h-3.333m0 0h-1.667C36.333 18.003 31.333 14.666 28 18m13.333 3.333v13.334M28 18l-5.001 5.003c-.132.132-.198.198-.252.257a3.333 3.333 0 0 0 .002 4.485c.053.059.119.125.251.257.133.132.199.198.257.252a3.333 3.333 0 0 0 4.484-.001c.059-.053.125-.12.257-.252l1.668-1.667M28 18c-3.334-3.334-8.334.003-11.667 3.333h-1.667m-3.333 0h3.333m0 0v13.334m26.667 0v5h3.333m-3.333-5h-4.714m-3.62-5 2.5 2.5c.133.132.2.199.253.258a3.333 3.333 0 0 1 0 4.484c-.053.059-.12.125-.252.258-.133.132-.2.199-.258.252a3.333 3.333 0 0 1-4.484 0 8.309 8.309 0 0 1-.258-.252l-.834-.834c-.908.91-1.363 1.364-1.853 1.606a3.334 3.334 0 0 1-2.96 0c-.49-.242-.945-.697-1.853-1.606-1.149 1.532-3.508 1.32-4.364-.393L18 34.667h-3.334m0 0v5h-3.333"/>
</svg>
