<svg xmlns="http://www.w3.org/2000/svg" width="56" height="57" fill="none" viewBox="0 0 56 57">
  <rect width="56" height="56" y=".5" fill="#075F55" rx="16"/>
  <path stroke="#A6D05D" stroke-linecap="round" stroke-linejoin="round" stroke-width="2" d="M25.5 43.5h12.167c1.866 0 2.8 0 3.513-.363a3.334 3.334 0 0 0 1.457-1.457c.363-.713.363-1.647.363-3.513V18.833c0-1.866 0-2.8-.363-3.513a3.334 3.334 0 0 0-1.457-1.457c-.713-.363-1.647-.363-3.513-.363h-6.334c-1.553 0-2.33 0-2.942.254a3.333 3.333 0 0 0-1.804 1.804c-.254.612-.254 1.389-.254 2.942M13 38.5h15m8.333-10H43m-6.667-6.667H43m-21.667 3.334v6.666M18 28.5h6.667m-6.334-10h6c1.867 0 2.8 0 3.514.363.627.32 1.137.83 1.456 1.457.364.713.364 1.646.364 3.513v14.334c0 1.866 0 2.8-.364 3.513a3.334 3.334 0 0 1-1.456 1.457c-.713.363-1.647.363-3.514.363h-6c-1.866 0-2.8 0-3.513-.363a3.334 3.334 0 0 1-1.457-1.457C13 40.967 13 40.033 13 38.167V23.833c0-1.866 0-2.8.363-3.513.32-.627.83-1.137 1.457-1.457.713-.363 1.646-.363 3.513-.363Z"/>
</svg>
