<svg xmlns="http://www.w3.org/2000/svg" width="80" height="80" fill="none" viewBox="0 0 80 80">
  <rect width="80" height="80" fill="#A6D05D" rx="16"/>
  <g clip-path="url(#a)">
    <path fill="#075F55" d="m59.525 39.061-11.471-8.343A5.793 5.793 0 0 0 40 31.94a5.793 5.793 0 0 0-8.053-1.22l-11.473 8.34a1.154 1.154 0 0 0 .05 1.9l10.36 6.72A16.713 16.713 0 0 0 40 50.38c3.243 0 6.395-.933 9.116-2.698l10.358-6.72a1.153 1.153 0 0 0 .05-1.9Zm-26.221-6.477a3.47 3.47 0 0 1 2.052-.667 3.494 3.494 0 0 1 3.49 3.49 1.154 1.154 0 0 0 2.308 0 3.494 3.494 0 0 1 3.49-3.49c.742 0 1.452.23 2.053.667l8.6 6.256h-10.68c-.228 0-.45.068-.64.194a7.148 7.148 0 0 1-7.951 0 1.155 1.155 0 0 0-.64-.194H24.702l8.602-6.256ZM47.86 45.745A14.41 14.41 0 0 1 40 48.071a14.41 14.41 0 0 1-7.86-2.326l-7.087-4.597h9.994A9.455 9.455 0 0 0 40 42.55c1.715 0 3.43-.467 4.953-1.402h9.994l-7.087 4.597Z"/>
  </g>
  <defs>
    <clipPath id="a">
      <path fill="#fff" d="M20 20h40v40H20z"/>
    </clipPath>
  </defs>
</svg>
