<svg xmlns="http://www.w3.org/2000/svg" width="32" height="32" fill="none" viewBox="0 0 32 32">
  <rect width="32" height="32" fill="#A6D05D" rx="8"/>
  <path fill="#075F55" d="M12.8 15.2a4 4 0 0 1-4-4V8a.8.8 0 0 1 .8-.8h.8a.8.8 0 0 0 0-1.6h-.8A2.4 2.4 0 0 0 7.2 8v3.2a5.584 5.584 0 0 0 2.416 4.592A7.04 7.04 0 0 1 12 20.8a5.6 5.6 0 0 0 11.2 0v-.912a3.2 3.2 0 1 0-1.6 0v.912a4 4 0 0 1-8 0 7.038 7.038 0 0 1 2.4-5.008 5.583 5.583 0 0 0 2.4-4.592V8A2.4 2.4 0 0 0 16 5.6h-.8a.8.8 0 1 0 0 1.6h.8a.8.8 0 0 1 .8.8v3.2a4 4 0 0 1-4 4Zm9.6 3.2a1.6 1.6 0 1 1 0-3.2 1.6 1.6 0 0 1 0 3.2Z"/>
</svg>
