<svg xmlns="http://www.w3.org/2000/svg" width="56" height="56" fill="none" viewBox="0 0 56 56">
  <rect width="56" height="56" fill="#075F55" rx="16"/>
  <path stroke="#A6D05D" stroke-linecap="round" stroke-linejoin="round" stroke-width="2" d="m13.046 24.703 6.096 4.877c.812.65 1.218.975 1.67 1.206.402.205.829.355 1.27.445.497.102 1.017.102 2.058.102h7.72c1.04 0 1.56 0 2.058-.102.441-.09.868-.24 1.27-.445.452-.231.858-.556 1.67-1.206l6.096-4.877m-29.908 0C13 25.483 13 26.44 13 27.667V35c0 2.8 0 4.2.545 5.27a5 5 0 0 0 2.185 2.185C16.8 43 18.2 43 21 43h14c2.8 0 4.2 0 5.27-.545a5 5 0 0 0 2.185-2.185C43 39.2 43 37.8 43 35v-7.333c0-1.227 0-2.185-.046-2.964m-29.908 0c.059-1 .193-1.705.499-2.306a5 5 0 0 1 2.185-2.185c1.07-.545 2.47-.545 5.27-.545h.333m21.621 5.036c-.059-1-.193-1.705-.499-2.306a5 5 0 0 0-2.185-2.185c-1.07-.545-2.47-.545-5.27-.545h-.333m-13.334 0V18a5 5 0 0 1 5-5h3.334a5 5 0 0 1 5 5v1.667m-13.334 0h13.334"/>
</svg>
