<svg xmlns="http://www.w3.org/2000/svg" width="56" height="56" fill="none" viewBox="0 0 56 56">
  <rect width="56" height="56" fill="#075F55" rx="16"/>
  <path stroke="#A6D05D" stroke-linecap="round" stroke-linejoin="round" stroke-width="2" d="M23 29.667a6.667 6.667 0 0 0 11.38 4.714M23 29.667h-6.667m6.667 0a6.666 6.666 0 0 1 3.626-5.935m-10.293 5.935a1.667 1.667 0 1 1-3.333 0 1.667 1.667 0 0 1 3.333 0Zm23.822-10.489a1.667 1.667 0 1 1 2.357-2.357 1.667 1.667 0 0 1-2.357 2.358Zm0 0-5.774 5.775m-10.762-8.738a1.667 1.667 0 1 0-1.239-3.096 1.667 1.667 0 0 0 1.24 3.096Zm0 0 3.007 7.517m7.755 10.649a6.646 6.646 0 0 0 1.952-4.714 6.646 6.646 0 0 0-1.952-4.714m0 9.428 5.774 5.774m0 0a1.667 1.667 0 1 0 2.357 2.357 1.667 1.667 0 0 0-2.357-2.357ZM34.38 24.953A6.646 6.646 0 0 0 29.667 23a6.638 6.638 0 0 0-3.04.732"/>
</svg>
