<svg xmlns="http://www.w3.org/2000/svg" width="57" height="57" fill="none" viewBox="0 0 57 57">
  <rect width="56" height="56" x=".5" y=".675" fill="#E4F7EF" rx="12"/>
  <path stroke="url(#a)" stroke-linecap="round" stroke-linejoin="round" stroke-width="2.75" d="M23.5 30.342a6.667 6.667 0 0 0 11.38 4.714M23.5 30.342h-6.667m6.667 0a6.666 6.666 0 0 1 3.626-5.934m-10.293 5.934a1.667 1.667 0 1 1-3.333 0 1.667 1.667 0 0 1 3.333 0Zm23.822-10.488a1.667 1.667 0 1 1 2.357-2.357 1.667 1.667 0 0 1-2.357 2.357Zm0 0-5.774 5.774M24.119 16.89a1.667 1.667 0 1 0-1.24-3.096 1.667 1.667 0 0 0 1.24 3.096Zm0 0 3.007 7.517m7.755 10.65a6.646 6.646 0 0 0 1.952-4.715 6.646 6.646 0 0 0-1.952-4.714m0 9.428 5.774 5.774m0 0a1.667 1.667 0 1 0 2.357 2.357 1.667 1.667 0 0 0-2.357-2.357ZM34.88 25.628a6.646 6.646 0 0 0-4.714-1.953 6.638 6.638 0 0 0-3.04.732"/>
  <defs>
    <linearGradient id="a" x1="28.5" x2="28.5" y1="13.675" y2="43.675" gradientUnits="userSpaceOnUse">
      <stop stop-color="#1BA068"/>
      <stop offset="1" stop-color="#A6D05D"/>
    </linearGradient>
  </defs>
</svg>
