<svg xmlns="http://www.w3.org/2000/svg" width="57" height="57" fill="none" viewBox="0 0 57 57">
  <rect width="56" height="56" x=".21" y=".174" fill="#E4F7EF" rx="12"/>
  <path fill="url(#a)" d="M10.626 21.849a1.375 1.375 0 0 0 1.834 2.049l-.917-1.025-.917-1.024Zm33.334 2.049a1.375 1.375 0 0 0 1.834-2.05l-.917 1.025-.917 1.025ZM28.21 40.133a1.375 1.375 0 1 0 0 2.75v-2.75Zm.017 2.75a1.375 1.375 0 1 0 0-2.75v2.75Zm4.664-6.525a1.375 1.375 0 0 0 1.85-2.034l-.925 1.017-.925 1.017Zm5.605-6.166a1.375 1.375 0 0 0 1.85-2.034l-.925 1.017-.925 1.017ZM21.68 34.324a1.375 1.375 0 1 0 1.85 2.035l-.925-1.018-.925-1.017Zm-5.605-6.166a1.375 1.375 0 1 0 1.85 2.034L17 29.175l-.925-1.017Zm9.78-12.922a1.375 1.375 0 1 0 .242 2.74l-.121-1.37-.122-1.37ZM36.966 25.73a1.375 1.375 0 0 0-1.336 2.403l.668-1.202.668-1.201ZM14.182 12.202a1.375 1.375 0 0 0-1.944 1.944l.972-.972.972-.972Zm28.056 31.945a1.375 1.375 0 0 0 1.944-1.945l-.972.972-.972.973ZM28.21 16.507v1.375a23.532 23.532 0 0 1 15.75 6.016l.917-1.025.917-1.024a26.282 26.282 0 0 0-17.584-6.716v1.375Zm0 25v1.376h.017v-2.75h-.017v1.374Zm0-8.333v1.375c1.803 0 3.444.684 4.68 1.81l.926-1.018.925-1.017a9.678 9.678 0 0 0-6.53-2.525v1.375Zm-5.606 2.167.926 1.017a6.928 6.928 0 0 1 4.68-1.809V31.8a9.678 9.678 0 0 0-6.53 2.525l.924 1.017Zm3.37-18.735.122 1.37a23.979 23.979 0 0 1 2.114-.093v-2.75c-.794 0-1.58.035-2.357.104l.122 1.37ZM36.3 26.93l-.668 1.202a15.336 15.336 0 0 1 2.865 2.06l.925-1.017.926-1.017a18.092 18.092 0 0 0-3.38-2.43L36.3 26.93ZM13.21 13.174l-.972.973 5.29 5.289.971-.973.973-.972-5.29-5.29-.972.973Zm-1.667 9.7.917 1.024a23.637 23.637 0 0 1 6.574-4.168l-.535-1.267-.534-1.266a26.388 26.388 0 0 0-7.339 4.652l.917 1.024Zm6.956-4.41-.972.972 6.657 6.656.972-.972.972-.972-6.656-6.657-.973.973Zm6.657 6.656-.972.972 18.054 18.055.972-.973.972-.972-18.054-18.054-.972.972Zm-8.157 4.055.925 1.017a15.24 15.24 0 0 1 7.482-3.72l-.25-1.352-.25-1.352a17.99 17.99 0 0 0-8.832 4.39l.925 1.017Z"/>
  <defs>
    <linearGradient id="a" x1="28.21" x2="28.21" y1="13.174" y2="43.174" gradientUnits="userSpaceOnUse">
      <stop stop-color="#1BA068"/>
      <stop offset="1" stop-color="#A6D05D"/>
    </linearGradient>
  </defs>
</svg>
