<svg xmlns="http://www.w3.org/2000/svg" width="80" height="80" fill="none" viewBox="0 0 80 80">
  <rect width="80" height="80" fill="#A6D05D" rx="16"/>
  <path fill="#075F55" d="M40 20c-7.593 0-13.773 6.179-13.773 13.773a1.334 1.334 0 0 0 2.666 0c0-6.124 4.983-11.106 11.107-11.106s11.107 4.982 11.107 11.106c0 4.004-1.56 5.527-3.724 7.64-2.358 2.303-5.291 5.167-5.291 11.347a4.579 4.579 0 0 1-4.575 4.573 4.578 4.578 0 0 1-4.573-4.573 1.333 1.333 0 1 0-2.667 0c0 3.992 3.248 7.24 7.24 7.24s7.241-3.248 7.241-7.24c0-5.056 2.282-7.284 4.495-9.447 2.223-2.169 4.52-4.41 4.52-9.54C53.773 26.18 47.595 20 40 20Z"/>
  <path fill="#075F55" d="M40.644 40.297a5.94 5.94 0 0 0-2.745-3.665 5.95 5.95 0 0 0-3.68-.808 1.333 1.333 0 1 0 .279 2.652c.715-.073 1.42.08 2.04.45a3.29 3.29 0 0 1 1.522 2.031 3.292 3.292 0 0 1-.36 2.519 3.299 3.299 0 0 1-2.037 1.525 3.303 3.303 0 0 1-2.517-.362 1.334 1.334 0 0 0-1.36 2.294 5.956 5.956 0 0 0 4.536.652 5.952 5.952 0 0 0 3.669-2.746 5.948 5.948 0 0 0 .653-4.542Zm.053-14.078c-4.29 0-7.779 3.49-7.779 7.78a1.334 1.334 0 0 0 2.667 0 5.118 5.118 0 0 1 5.112-5.114A5.118 5.118 0 0 1 45.807 34a1.333 1.333 0 1 0 2.667 0c0-4.29-3.49-7.78-7.777-7.78Z"/>
  <path fill="#075F55" d="M35.56 33.465a1.333 1.333 0 0 0-2.665.09l.119 3.546c.024.722.616 1.29 1.332 1.29.015 0 .03 0 .045-.002a1.333 1.333 0 0 0 1.288-1.377l-.118-3.547Z"/>
</svg>
