<svg xmlns="http://www.w3.org/2000/svg" width="80" height="80" fill="none" viewBox="0 0 80 80">
  <rect width="80" height="80" fill="#A6D05D" rx="16"/>
  <g clip-path="url(#a)">
    <path fill="#075F55" stroke="#075F55" stroke-width=".5" d="M40.001 33.417c.576 0 1.042.466 1.042 1.042v2.485c.464.325.792.848.792 1.473 0 1.01-.823 1.833-1.834 1.833a1.835 1.835 0 0 1-1.833-1.833c0-.625.328-1.148.792-1.473v-2.485a1.04 1.04 0 0 1 1.041-1.042Z"/>
    <path fill="#075F55" stroke="#075F55" stroke-width=".5" d="M53.458 20.75c3.276 0 5.792 2.926 5.792 6.583 0 1.325-.496 3.132-1.345 4.7-.81 1.495-1.976 2.83-3.405 3.287v14.972c0 4.94-4.018 8.958-8.958 8.958-4.648 0-8.468-3.56-8.905-8.094-1.985.155-3.83.177-4.554.177-.928 0-3.71-.028-6.266-.34-1.275-.157-2.51-.387-3.431-.725-.46-.17-.86-.371-1.149-.619-.29-.25-.487-.563-.487-.941V26.542c0-.379.196-.692.487-.941.289-.247.689-.45 1.149-.619.922-.338 2.156-.567 3.431-.723 2.555-.313 5.338-.342 6.266-.342.928 0 3.712.029 6.267.342 1.275.156 2.51.385 3.431.723.46.17.86.372 1.148.619.291.25.488.563.488.941v4.469c2.797 1.296 4.75 4.123 4.75 7.406 0 3.283-1.953 6.108-4.75 7.404v2.887c0 .371-.19.68-.472.927-.28.244-.667.444-1.113.612-.837.315-1.942.535-3.102.693.33 3.485 3.244 6.227 6.812 6.227a6.883 6.883 0 0 0 6.875-6.875V35.32c-1.43-.456-2.595-1.792-3.405-3.288-.85-1.567-1.345-3.374-1.345-4.699 0-3.657 2.516-6.583 5.791-6.583Zm-12.125 7.495c-1.377.417-3.267.645-4.988.77a62.145 62.145 0 0 1-4.262.152c-.717 0-2.535-.022-4.5-.173v20.062c1.346.116 2.877.194 4.5.194a50.6 50.6 0 0 0 6.125-.361 25.778 25.778 0 0 0 2.11-.342 7.036 7.036 0 0 0 1.015-.28V46.47a8.158 8.158 0 0 1-1.333.112c-4.503 0-8.167-3.663-8.167-8.166S35.497 30.25 40 30.25c.454 0 .9.04 1.333.111v-2.116Zm-18.5 20.022c.209.08.53.173.959.265.466.1 1.043.199 1.708.291V28.78c-.968-.129-1.896-.3-2.667-.535v20.022ZM40 32.333a6.09 6.09 0 0 0-6.083 6.084A6.09 6.09 0 0 0 40 44.5a6.09 6.09 0 0 0 6.083-6.083A6.09 6.09 0 0 0 40 32.333Zm13.458-9.5c-2.04 0-3.708 1.93-3.708 4.5 0 1.108.471 2.649 1.195 3.915.361.631.778 1.18 1.216 1.57.44.39.881.599 1.297.599.416 0 .857-.21 1.298-.6.438-.388.855-.938 1.216-1.569.724-1.266 1.195-2.807 1.195-3.915 0-2.57-1.668-4.5-3.709-4.5ZM32.083 26c-2.945 0-5.59.248-7.354.541 1.765.293 4.409.542 7.354.542 2.945 0 5.59-.25 7.355-.542-1.766-.293-4.41-.541-7.355-.541Z"/>
  </g>
  <defs>
    <clipPath id="a">
      <path fill="#fff" d="M20 20h40v40H20z"/>
    </clipPath>
  </defs>
</svg>
