<svg xmlns="http://www.w3.org/2000/svg" width="80" height="80" fill="none" viewBox="0 0 80 80">
  <rect width="80" height="80" fill="#A6D05D" rx="16"/>
  <g clip-path="url(#a)">
    <path fill="#075F55" stroke="#075F55" stroke-width=".5" d="M44.822 45.258c0 4.591 3.57 8.58 6.671 10.577 1.154.744 2.291 1.27 3.281 1.542 1 .274 1.811.279 2.345.037l.005-.002c.06-.026.182-.133.33-.414.142-.27.288-.666.417-1.203.258-1.074.442-2.688.407-4.937-.061-3.9-.85-9.043-2.606-13.61-1.759-4.576-4.466-8.52-8.324-10.108v-.001c-.233-.091-.398-.103-.512-.091a.572.572 0 0 0-.253.09c-.186.117-.379.345-.563.721-.184.374-.35.872-.495 1.5-.285 1.233-.484 2.934-.594 5.099 1.79 1.644 4.248 2.703 5.502 3.233l-.001.001a.83.83 0 0 1-.32 1.61v.002l-.022-.001h-.002v-.001a.767.767 0 0 1-.3-.069c-1.406-.587-4.25-1.808-6.32-3.832l-.059-.057-.004-.023c-1.257-1.272-2.208-2.844-2.289-4.816l-.042-1.129c-.072-2.635.04-5.272.334-7.892a.81.81 0 0 1 .926-.724h.015l-.001.002a.822.822 0 0 1 .546.308.821.821 0 0 1 .166.609h.002a58.946 58.946 0 0 0-.278 8.742l.032.37c.076.613.264 1.206.554 1.75.152-1.808.382-3.227.712-4.309.374-1.225.886-2.053 1.589-2.508l.003-.002c.445-.28 1.159-.51 2.104-.196l.193.07.002.002c4.643 1.901 7.603 6.476 9.415 11.408 1.7 4.63 2.408 9.622 2.538 13.142l.018.685v.001c.013 1.05-.013 2.824-.285 4.448-.136.812-.335 1.598-.629 2.241-.291.64-.692 1.173-1.25 1.423l-.006.003a3.942 3.942 0 0 1-1.602.299h-.001l-.005.001v-.001c-1.605-.002-3.608-.723-5.61-2.007h-.001c-3.571-2.319-7.424-6.684-7.424-11.99v-5.634c-.93-.41-1.853-.696-2.743-.696-.919 0-1.873.301-2.841.73.009 1.096.01 2.19 0 3.269v2.331c.007 5.306-3.858 9.672-7.422 11.99h-.002c-2.003 1.284-4.007 2.005-5.61 2.007a3.878 3.878 0 0 1-1.6-.299l-.007-.003c-.557-.25-.955-.784-1.246-1.423-.292-.643-.49-1.43-.626-2.24-.27-1.625-.295-3.4-.28-4.45l.017-.685c.128-3.52.834-8.511 2.535-13.142 1.81-4.932 4.77-9.51 9.413-11.414.916-.382 1.63-.227 2.11.015l.19.109h.002c.713.457 1.231 1.304 1.607 2.56.335 1.122.565 2.6.71 4.485.426-.706.697-1.482.736-2.34a58.786 58.786 0 0 0-.275-8.732.836.836 0 0 1 1.657-.208l.001.004a59.26 59.26 0 0 1 .291 9.019c-.09 2.069-1.144 3.727-2.504 5.024l-.003.003-.018.018c-2.04 1.948-4.785 3.106-6.138 3.684h-.001a.828.828 0 0 1-.862-.117.839.839 0 0 1 .209-1.425c1.218-.515 3.569-1.52 5.369-3.103-.107-2.207-.306-3.938-.594-5.193-.147-.638-.314-1.146-.499-1.527-.187-.383-.382-.618-.57-.74a.56.56 0 0 0-.247-.087c-.113-.012-.28 0-.52.094-3.857 1.59-6.562 5.533-8.32 10.106-1.756 4.568-2.545 9.71-2.607 13.61-.034 2.248.152 3.862.412 4.936.13.538.278.934.42 1.204.112.211.209.324.276.378l.056.036.006.002c.526.244 1.334.241 2.333-.033.99-.272 2.128-.799 3.282-1.546l.292-.193c3.029-2.054 6.38-5.936 6.38-10.384v-2.339c.008-.796.008-1.592.002-2.39-.344.195-.685.39-1.029.584l.001.001a21.6 21.6 0 0 1-2.324 1.269l-.006.003a.845.845 0 0 1-1.1-.413l-.003-.005a.85.85 0 0 1 .413-1.112l.002-.002c.741-.34 1.459-.73 2.147-1.166l.009-.006 1.153-.668c.396-.224.804-.445 1.222-.647l.051-.025h.01c1.243-.604 2.579-1.08 3.956-1.08 1.35 0 2.651.459 3.867 1.04a.3.3 0 0 1 .018.006h.007l.05.023c.858.407 1.686.9 2.449 1.35l.006.005c.69.436 1.41.826 2.153 1.166a.845.845 0 0 1 .478.945.842.842 0 0 1-.825.665h-.002a.832.832 0 0 1-.335-.075l-.002-.001a21.04 21.04 0 0 1-2.326-1.269 70.923 70.923 0 0 0-1.127-.638c0 .798 0 1.599.007 2.41v2.376Z"/>
  </g>
  <defs>
    <clipPath id="a">
      <path fill="#fff" d="M20 20h40v40H20z"/>
    </clipPath>
  </defs>
</svg>
