<svg xmlns="http://www.w3.org/2000/svg" width="58" height="58" fill="none" viewBox="0 0 58 58">
  <rect width="58" height="58" fill="#A6D05D" rx="16"/>
  <path stroke="#075F55" stroke-linecap="round" stroke-linejoin="round" stroke-width="2" d="M17 20.333C17 31.747 26.253 41 37.667 41c.515 0 1.025-.019 1.53-.056.58-.042.87-.064 1.135-.216.219-.126.426-.349.536-.576.132-.274.132-.595.132-1.235v-3.756c0-.538 0-.808-.089-1.038a1.334 1.334 0 0 0-.37-.529c-.186-.162-.44-.254-.945-.438h0l-4.276-1.555c-.589-.214-.883-.32-1.162-.303-.247.016-.483.1-.685.243-.228.162-.39.43-.711.967h0l-1.095 1.825a16.134 16.134 0 0 1-8-8l1.824-1.095c.538-.322.806-.483.968-.711.143-.202.227-.439.243-.685.018-.279-.09-.573-.303-1.162l-1.555-4.276c-.184-.506-.276-.759-.438-.945a1.334 1.334 0 0 0-.529-.37c-.23-.089-.5-.089-1.038-.089h-3.756c-.64 0-.96 0-1.235.132-.227.11-.45.317-.576.536-.152.264-.174.554-.216 1.134A20.915 20.915 0 0 0 17 20.333Z"/>
</svg>
