<svg xmlns="http://www.w3.org/2000/svg" width="56" height="57" fill="none" viewBox="0 0 56 57">
  <rect width="56" height="56" y=".5" fill="#075F55" rx="16"/>
  <path stroke="#A6D05D" stroke-linecap="round" stroke-linejoin="round" stroke-width="2" d="M29.667 41.833V38.5A8.333 8.333 0 0 0 13 38.5v3.333h16.667Zm0 0H43v-1.666c0-4.91-3.731-8.334-8.333-8.334-2.356 0-4.483 1.043-5.999 2.719m-2.335-14.385a5 5 0 1 1-10 0 5 5 0 0 1 10 0ZM38 23.5a3.333 3.333 0 1 1-6.667 0 3.333 3.333 0 0 1 6.667 0Z"/>
</svg>
