<svg xmlns="http://www.w3.org/2000/svg" width="56" height="56" fill="none" viewBox="0 0 56 56">
  <rect width="56" height="56" fill="#075F55" rx="16"/>
  <path stroke="#A6D05D" stroke-linecap="round" stroke-linejoin="round" stroke-width="2" d="m23 28 3.334 3.333L33 24.667M41.334 28c0 7.435-9.1 12.823-12.265 14.472-.342.178-.513.267-.75.313a1.89 1.89 0 0 1-.637 0c-.237-.046-.409-.135-.75-.313-3.165-1.65-12.265-7.037-12.265-14.472v-6.304c0-1.333 0-1.999.218-2.572.192-.505.505-.957.911-1.315.46-.405 1.084-.639 2.332-1.107l8.936-3.35c.346-.13.52-.196.698-.222.158-.022.319-.022.477 0 .178.026.351.091.698.221l8.936 3.351c1.248.468 1.872.702 2.331 1.107.406.358.72.81.912 1.316.218.572.218 1.238.218 2.571V28Z"/>
</svg>
