<svg xmlns="http://www.w3.org/2000/svg" width="56" height="57" fill="none" viewBox="0 0 56 57">
  <rect width="56" height="56" y=".5" fill="#075F55" rx="16"/>
  <path stroke="#A6D05D" stroke-linecap="round" stroke-linejoin="round" stroke-width="2" d="M22 31.5s2.25 3 6 3 6-3 6-3M32.5 24h.015M23.5 24h.015M43 28.5c0 8.284-6.716 15-15 15-8.284 0-15-6.716-15-15 0-8.284 6.716-15 15-15 8.284 0 15 6.716 15 15ZM33.25 24a.75.75 0 1 1-1.5 0 .75.75 0 0 1 1.5 0Zm-9 0a.75.75 0 1 1-1.5 0 .75.75 0 0 1 1.5 0Z"/>
</svg>
