<svg xmlns="http://www.w3.org/2000/svg" width="57" height="57" fill="none" viewBox="0 0 57 57">
  <rect width="56" height="56" x=".21" y=".288" fill="#E4F7EF" rx="12"/>
  <path stroke="url(#a)" stroke-linecap="round" stroke-linejoin="round" stroke-width="2.75" d="M25.71 43.288h12.167c1.867 0 2.8 0 3.513-.363a3.333 3.333 0 0 0 1.457-1.457c.363-.713.363-1.646.363-3.513V18.622c0-1.867 0-2.8-.363-3.514a3.333 3.333 0 0 0-1.457-1.456c-.713-.363-1.646-.363-3.513-.363h-6.334c-1.553 0-2.33 0-2.942.253a3.333 3.333 0 0 0-1.804 1.804c-.254.613-.254 1.39-.254 2.942m-13.333 20h15m8.333-10h6.667m-6.667-6.666h6.667m-21.667 3.333v6.667m-3.333-3.334h6.667m-6.334-10h6c1.867 0 2.8 0 3.514.364.627.32 1.137.83 1.456 1.456.364.713.364 1.647.364 3.514v14.333c0 1.867 0 2.8-.364 3.513a3.333 3.333 0 0 1-1.456 1.457c-.713.364-1.647.364-3.514.364h-6c-1.866 0-2.8 0-3.513-.364a3.333 3.333 0 0 1-1.457-1.457c-.363-.713-.363-1.646-.363-3.513V23.622c0-1.867 0-2.8.363-3.514.32-.627.83-1.137 1.457-1.456.713-.364 1.647-.364 3.513-.364Z"/>
  <defs>
    <linearGradient id="a" x1="28.21" x2="28.21" y1="13.289" y2="43.288" gradientUnits="userSpaceOnUse">
      <stop stop-color="#1BA068"/>
      <stop offset="1" stop-color="#A6D05D"/>
    </linearGradient>
  </defs>
</svg>
