<svg xmlns="http://www.w3.org/2000/svg" width="80" height="80" fill="none" viewBox="0 0 80 80">
  <rect width="80" height="80" fill="#A6D05D" rx="16"/>
  <path fill="#075F55" d="M48.984 35a1.562 1.562 0 1 0 0-3.125H45.86v-2.422h3.125a1.562 1.562 0 1 0 0-3.125h-3.16C45.47 22.78 42.468 20 38.828 20a7.04 7.04 0 0 0-7.031 7.031v17.393a9.295 9.295 0 0 0-2.344 6.201c0 5.17 4.206 9.375 9.375 9.375 5.17 0 9.375-4.206 9.375-9.375a9.311 9.311 0 0 0-1.739-5.439 1.562 1.562 0 1 0-2.544 1.815 6.204 6.204 0 0 1 1.158 3.624 6.257 6.257 0 0 1-6.25 6.25 6.257 6.257 0 0 1-6.25-6.25c0-1.692.666-3.277 1.875-4.463.3-.294.469-.696.469-1.115V27.03a3.91 3.91 0 0 1 3.906-3.906 3.91 3.91 0 0 1 3.906 3.906v11.875c0 .863.7 1.563 1.563 1.563h4.687a1.563 1.563 0 0 0 0-3.125H45.86V35h3.125Z"/>
  <path fill="#075F55" d="M38.828 25.469c-.863 0-1.562.7-1.562 1.562V47.92a3.125 3.125 0 1 0 3.125 0V27.031c0-.863-.7-1.562-1.563-1.562Z"/>
</svg>
