<svg xmlns="http://www.w3.org/2000/svg" width="57" height="57" fill="none" viewBox="0 0 57 57">
  <rect width="56" height="56" x=".71" y=".174" fill="#E4F7EF" rx="12"/>
  <path stroke="url(#a)" stroke-linecap="round" stroke-linejoin="round" stroke-width="2.75" d="m23.71 38.174-3.333 5m13.333-5 3.333 5M20.377 31.508h16.666m-15 0v-5m6.667 5V18.174m6.667 13.334v-8.334m-16.334 15h19.334c1.867 0 2.8 0 3.513-.363a3.334 3.334 0 0 0 1.457-1.457c.363-.713.363-1.646.363-3.513V18.508c0-1.867 0-2.8-.363-3.514a3.334 3.334 0 0 0-1.457-1.456c-.713-.364-1.646-.364-3.513-.364H19.043c-1.866 0-2.8 0-3.513.364-.627.32-1.137.83-1.457 1.456-.363.713-.363 1.647-.363 3.514V32.84c0 1.867 0 2.8.363 3.513.32.627.83 1.137 1.457 1.457.713.363 1.647.363 3.513.363Z"/>
  <defs>
    <linearGradient id="a" x1="28.71" x2="28.71" y1="13.174" y2="43.174" gradientUnits="userSpaceOnUse">
      <stop stop-color="#1BA068"/>
      <stop offset="1" stop-color="#A6D05D"/>
    </linearGradient>
  </defs>
</svg>
