<svg xmlns="http://www.w3.org/2000/svg" width="58" height="58" fill="none" viewBox="0 0 58 58">
  <rect width="58" height="58" fill="#A6D05D" rx="16"/>
  <path fill="#075F55" d="M38.4 19.547a13.094 13.094 0 0 0-9.347-3.88c-7.28 0-13.213 5.933-13.213 13.213 0 2.333.613 4.6 1.76 6.6l-1.867 6.853 7-1.84a13.217 13.217 0 0 0 6.32 1.614c7.28 0 13.214-5.934 13.214-13.214a13.13 13.13 0 0 0-3.867-9.346Zm-9.347 20.32a11.02 11.02 0 0 1-5.6-1.534l-.4-.24-4.16 1.094L20 35.133l-.267-.413a11.013 11.013 0 0 1-1.68-5.84c0-6.053 4.934-10.987 10.987-10.987a10.87 10.87 0 0 1 7.76 3.227 10.906 10.906 0 0 1 3.213 7.773c.027 6.054-4.906 10.974-10.96 10.974Zm6.027-8.214c-.333-.16-1.96-.96-2.253-1.08-.307-.106-.52-.16-.747.16-.227.334-.853 1.08-1.04 1.294-.187.226-.387.253-.72.08-.333-.16-1.4-.52-2.653-1.64-.987-.88-1.64-1.96-1.84-2.294-.187-.333-.027-.506.146-.68.147-.146.334-.386.494-.573.16-.187.226-.333.333-.547.107-.226.053-.413-.027-.573-.08-.16-.746-1.787-1.013-2.453-.267-.64-.547-.56-.747-.574h-.64c-.226 0-.573.08-.88.414-.293.333-1.146 1.133-1.146 2.76 0 1.626 1.186 3.2 1.346 3.413.16.227 2.334 3.56 5.64 4.987.787.346 1.4.546 1.88.693.787.253 1.507.213 2.08.133.64-.093 1.96-.8 2.227-1.573.28-.773.28-1.427.187-1.573-.094-.147-.294-.214-.627-.374Z"/>
</svg>
