<svg width="40" height="40" viewBox="0 0 40 40" fill="none" xmlns="http://www.w3.org/2000/svg">
<path d="M19.9999 0C12.4066 0 6.22656 6.17867 6.22656 13.7734C6.22656 14.5094 6.82391 15.1067 7.55992 15.1067C8.29594 15.1067 8.89328 14.5094 8.89328 13.7734C8.89328 7.64937 13.8759 2.66672 19.9999 2.66672C26.1239 2.66672 31.1066 7.64937 31.1066 13.7734C31.1066 17.7773 29.5479 19.3 27.3826 21.4134C25.0252 23.716 22.0919 26.58 22.0919 32.76C22.0919 35.2827 20.0398 37.3334 17.5172 37.3334C14.9959 37.3334 12.9438 35.2827 12.9438 32.76C12.9438 32.0227 12.3465 31.4266 11.6105 31.4266C10.8745 31.4266 10.2771 32.0227 10.2771 32.76C10.2771 36.752 13.5251 40 17.5171 40C21.5091 40 24.7584 36.752 24.7584 32.76C24.7584 27.704 27.0398 25.476 29.2531 23.3134C31.4758 21.144 33.7731 18.9027 33.7731 13.7734C33.7733 6.17867 27.5946 0 19.9999 0Z" fill="#075F55"/>
<path d="M20.6444 20.2974C20.2484 18.7467 19.2724 17.4453 17.8991 16.6321C16.7831 15.9681 15.5098 15.6907 14.2191 15.8241C13.4871 15.9001 12.9551 16.5574 13.0325 17.2894C13.1085 18.0214 13.7511 18.5454 14.4978 18.476C15.2125 18.4027 15.9178 18.556 16.5378 18.9253C17.3004 19.376 17.8404 20.0974 18.0604 20.9574C18.2818 21.8187 18.1525 22.7134 17.6991 23.476C17.2457 24.2414 16.5231 24.7814 15.6631 25.0014C14.8031 25.22 13.9097 25.0921 13.1457 24.6387C12.5124 24.264 11.6937 24.4721 11.3191 25.1053C10.9444 25.7387 11.1525 26.5574 11.7857 26.9333C12.7231 27.4893 13.7697 27.7746 14.8324 27.7746C15.3297 27.7746 15.8297 27.712 16.3217 27.5853C17.8724 27.1892 19.175 26.2132 19.991 24.8386C20.8097 23.4613 21.0404 21.8493 20.6444 20.2974Z" fill="#075F55"/>
<path d="M20.6966 6.21869C16.4073 6.21869 12.918 9.70939 12.918 13.9987C12.918 14.7347 13.5153 15.332 14.2513 15.332C14.9873 15.332 15.5847 14.7347 15.5847 13.9987C15.5847 11.1787 17.878 8.88533 20.6967 8.88533C23.5141 8.88533 25.8074 11.1787 25.8074 13.9987C25.8074 14.7347 26.4034 15.332 27.1408 15.332C27.8781 15.332 28.4741 14.7347 28.4741 13.9987C28.474 9.70931 24.9846 6.21869 20.6966 6.21869Z" fill="#075F55"/>
<path d="M15.5606 13.4653C15.5353 12.7293 14.926 12.1547 14.1833 12.1773C13.4473 12.2027 12.8699 12.8187 12.8953 13.5547L13.014 17.1013C13.038 17.8227 13.63 18.3906 14.346 18.3906C14.3607 18.3906 14.3753 18.3906 14.3914 18.3893C15.1274 18.364 15.7047 17.748 15.6793 17.012L15.5606 13.4653Z" fill="#075F55"/>
</svg>
