<svg width="80" height="80" viewBox="0 0 80 80" fill="none" xmlns="http://www.w3.org/2000/svg">
<g clip-path="url(#clip0_4625_7450)">
<path d="M38.9463 0.170044C39.63 -0.057693 40.37 -0.057693 41.0537 0.170044L61.9365 7.13293C65.2568 8.23586 68.1455 10.3573 70.1914 13.1954C72.2373 16.0336 73.3362 19.4448 73.333 22.9435V40.0001C73.3329 65.2081 42.6712 79.131 41.3535 79.713C40.9275 79.9023 40.4662 80.0001 40 80.0001C39.5338 80.0001 39.0726 79.9023 38.6465 79.713C37.3294 79.1313 6.66707 65.2084 6.66699 40.0001V22.9435C6.66355 19.4452 7.76235 16.0345 9.80762 13.1964C11.8528 10.3584 14.74 8.23645 18.0596 7.13293L38.9463 0.170044ZM40 23.8995C34.8453 23.8996 30.667 28.0779 30.667 33.2325V35.131C28.2404 36.19 26.6705 38.5849 26.667 41.2325V49.2325C26.6715 52.9124 29.6532 55.895 33.333 55.8995H46.667C50.3469 55.895 53.3285 52.9124 53.333 49.2325V41.2325C53.3296 38.5849 51.7596 36.19 49.333 35.131V33.2325C49.333 28.0779 45.1547 23.8995 40 23.8995ZM40 42.5656C40.7364 42.5656 41.333 43.1632 41.333 43.8995V46.5656C41.333 47.3019 40.7364 47.8995 40 47.8995C39.2637 47.8995 38.667 47.3019 38.667 46.5656V43.8995C38.667 43.1632 39.2637 42.5656 40 42.5656ZM40 26.5656C43.6819 26.5656 46.667 29.5506 46.667 33.2325V34.5656H33.333V33.2325C33.333 29.5507 36.3181 26.5656 40 26.5656Z" fill="#A6D05D"/>
</g>
<defs>
<clipPath id="clip0_4625_7450">
<rect width="80" height="80" fill="white"/>
</clipPath>
</defs>
</svg>
