<svg width="40" height="40" viewBox="0 0 40 40" fill="none" xmlns="http://www.w3.org/2000/svg">
<g clip-path="url(#clip0_3299_4117)">
<path d="M39.5249 19.061L28.054 10.7184C27.0563 9.99298 25.8774 9.60938 24.6439 9.60938C22.746 9.60938 21.0584 10.5261 20.0001 11.9397C18.9417 10.5261 17.2541 9.60938 15.3562 9.60938C14.123 9.60938 12.9438 9.99298 11.9465 10.7184L0.475259 19.061C0.167948 19.2843 -0.00966437 19.6451 0.000406415 20.0247C0.0107824 20.4046 0.207315 20.7553 0.525918 20.9619L10.8848 27.6812C13.6051 29.4458 16.7573 30.3787 20.0001 30.3787C23.2429 30.3787 26.395 29.4458 29.1157 27.6812L39.4742 20.9619C39.7931 20.7553 39.9897 20.4046 39.9997 20.0247C40.0098 19.6451 39.8322 19.2843 39.5249 19.061ZM13.3036 12.5845C13.9042 12.1478 14.6137 11.9171 15.3562 11.9171C17.2807 11.9171 18.8462 13.4827 18.8462 15.4071C18.8462 16.0443 19.3629 16.561 20.0001 16.561C20.6373 16.561 21.1539 16.0443 21.1539 15.4071C21.1539 13.4827 22.7195 11.9171 24.6439 11.9171C25.3864 11.9171 26.096 12.1478 26.6965 12.5845L35.2979 18.84H24.6155C24.3876 18.84 24.1651 18.9078 23.9756 19.0341C21.5604 20.6439 18.4397 20.6439 16.0249 19.0341C15.8353 18.9078 15.6126 18.84 15.3849 18.84H4.70224L13.3036 12.5845ZM27.8596 25.7452C25.514 27.2668 22.7961 28.071 20.0001 28.071C17.2041 28.071 14.4862 27.2668 12.1406 25.7452L5.05319 21.1478H15.0474C16.5702 22.0828 18.285 22.5503 20.0001 22.5503C21.7152 22.5503 23.4299 22.0828 24.9528 21.1478H34.947L27.8596 25.7452Z" fill="#075F55"/>
</g>
<defs>
<clipPath id="clip0_3299_4117">
<rect width="40" height="40" fill="white"/>
</clipPath>
</defs>
</svg>
