<svg width="80" height="80" viewBox="0 0 80 80" fill="none" xmlns="http://www.w3.org/2000/svg">
<g clip-path="url(#clip0_4625_7442)">
<path d="M56.4967 6.83333C52.0934 2.42667 46.2334 0 40.0001 0C33.7667 0 27.9067 2.42667 23.5001 6.83333C14.4034 15.93 14.4034 30.7333 23.5267 39.8567L31.8434 47.99C34.0934 50.19 37.0467 51.29 40.0001 51.29C42.9534 51.29 45.9067 50.19 48.1567 47.99L56.4967 39.83C60.9034 35.4233 63.3334 29.5633 63.3334 23.33C63.3334 17.0967 60.9034 11.2433 56.4967 6.83333ZM40.0001 33.3C34.4767 33.3 30.0001 28.8233 30.0001 23.3C30.0001 17.7767 34.4767 13.3 40.0001 13.3C45.5234 13.3 50.0001 17.7767 50.0001 23.3C50.0001 28.8233 45.5234 33.3 40.0001 33.3ZM80 55.8733C80.0067 57.0533 79.39 58.1467 78.3834 58.75L45.5134 78.4733C43.8134 79.4933 41.9067 80.0033 40.0034 80.0033C38.1001 80.0033 36.1901 79.4933 34.4934 78.4733L1.61672 58.75C0.606721 58.1433 -0.00661287 57.05 5.37982e-05 55.8733C0.00672047 54.6967 0.633387 53.61 1.65005 53.0167L17.8334 43.5433C18.1667 43.91 18.5101 44.2733 18.8634 44.6267L27.1801 52.7567C30.6067 56.11 35.1634 57.96 40.0001 57.96C44.8367 57.96 49.3901 56.11 52.8201 52.7567L61.2134 44.5467C61.5401 44.22 61.86 43.8833 62.17 43.5433L78.35 53.0133C79.3667 53.61 79.9934 54.7 80 55.8733Z" fill="#A6D05D"/>
</g>
<defs>
<clipPath id="clip0_4625_7442">
<rect width="80" height="80" fill="white"/>
</clipPath>
</defs>
</svg>
