<svg width="40" height="40" viewBox="0 0 40 40" fill="none" xmlns="http://www.w3.org/2000/svg">
<path d="M28.9844 15C29.8473 15 30.5469 14.3005 30.5469 13.4375C30.5469 12.5745 29.8473 11.875 28.9844 11.875H25.8594V9.45312H28.9844C29.8473 9.45312 30.5469 8.75359 30.5469 7.89062C30.5469 7.02766 29.8473 6.32812 28.9844 6.32812H25.8243C25.4704 2.77992 22.4679 0 18.8281 0C14.9511 0 11.7969 3.15422 11.7969 7.03125V24.4238C10.2806 26.137 9.45312 28.3142 9.45312 30.625C9.45312 35.7944 13.6588 40 18.8281 40C23.9975 40 28.2031 35.7944 28.2031 30.625C28.2031 28.6613 27.602 26.7806 26.4645 25.1863C25.9633 24.4838 24.9875 24.3206 24.2851 24.8218C23.5826 25.323 23.4194 26.2987 23.9205 27.0012C24.6778 28.0627 25.0781 29.3159 25.0781 30.625C25.0781 34.0713 22.2744 36.875 18.8281 36.875C15.3819 36.875 12.5781 34.0713 12.5781 30.625C12.5781 28.9327 13.2441 27.3478 14.4533 26.1622C14.753 25.8683 14.9219 25.4662 14.9219 25.0465V7.03125C14.9219 4.87734 16.6742 3.125 18.8281 3.125C20.982 3.125 22.7344 4.87734 22.7344 7.03125V18.9062C22.7344 19.7692 23.4339 20.4688 24.2969 20.4688H28.9844C29.8473 20.4688 30.5469 19.7692 30.5469 18.9062C30.5469 18.0433 29.8473 17.3438 28.9844 17.3438H25.8594V15H28.9844Z" fill="#075F55"/>
<path d="M18.8281 5.46875C17.9652 5.46875 17.2656 6.16828 17.2656 7.03125V27.9191C16.3318 28.4595 15.7031 29.4685 15.7031 30.625C15.7031 32.3509 17.1023 33.75 18.8281 33.75C20.554 33.75 21.9531 32.3509 21.9531 30.625C21.9531 29.4685 21.3245 28.4595 20.3906 27.9191V7.03125C20.3906 6.16828 19.6911 5.46875 18.8281 5.46875Z" fill="#075F55"/>
</svg>
