<svg width="40" height="40" viewBox="0 0 40 40" fill="none" xmlns="http://www.w3.org/2000/svg">
<g clip-path="url(#clip0_3299_4072)">
<path d="M24.8223 25.2578C24.8223 29.8493 28.3915 33.8379 31.4932 35.835C32.6474 36.5792 33.7841 37.1052 34.7744 37.377C35.7738 37.6511 36.5851 37.656 37.1191 37.4141L37.124 37.4121C37.1837 37.3862 37.3064 37.2794 37.4541 36.998C37.5959 36.7278 37.742 36.3323 37.8711 35.7949C38.1292 34.7206 38.3129 33.107 38.2783 30.8584C38.217 26.9586 37.4276 21.8145 35.6719 17.2471C33.9131 12.6717 31.2062 8.72734 27.3477 7.13965V7.13867C27.1148 7.04761 26.9495 7.03558 26.8359 7.04785C26.723 7.06006 26.6435 7.0995 26.583 7.1377C26.3968 7.25491 26.2042 7.48331 26.0195 7.85938C25.8363 8.23274 25.6708 8.7314 25.5254 9.35938C25.2398 10.5925 25.0405 12.2934 24.9307 14.458C26.7205 16.102 29.1787 17.1612 30.4326 17.6914L30.4316 17.6924C30.6172 17.7566 30.7747 17.8834 30.875 18.0527C30.9792 18.2288 31.0145 18.437 30.9746 18.6377C30.9347 18.8382 30.8226 19.0169 30.6592 19.1396C30.5017 19.2578 30.3074 19.3144 30.1113 19.3027V19.3037C30.1042 19.3037 30.097 19.3029 30.0898 19.3027H30.0879V19.3018C29.9839 19.2991 29.8817 19.2768 29.7871 19.2334C28.3824 18.6463 25.5385 17.4252 23.4688 15.4014L23.4092 15.3438L23.4053 15.3213C22.1478 14.0493 21.1974 12.4772 21.1162 10.5049L21.0742 9.37598C21.0025 6.74149 21.1144 4.10433 21.4082 1.48438C21.4186 1.37526 21.4504 1.26913 21.5029 1.17285C21.5565 1.07463 21.6303 0.988454 21.7188 0.919922C21.8071 0.85145 21.9092 0.801783 22.0176 0.774414C22.1211 0.748348 22.2285 0.744228 22.334 0.759766C22.3373 0.760123 22.3414 0.760344 22.3447 0.760742C22.346 0.760946 22.3474 0.760532 22.3486 0.760742L22.3477 0.761719C22.4521 0.774697 22.5534 0.806285 22.6455 0.857422C22.7415 0.910803 22.8259 0.983784 22.8936 1.07031C22.9611 1.15675 23.0114 1.25543 23.04 1.36133C23.068 1.46466 23.0739 1.57257 23.0605 1.67871L23.0615 1.67969C22.7527 4.58247 22.6601 7.50437 22.7842 10.4209L22.8164 10.791C22.8925 11.4043 23.0805 11.9974 23.3701 12.541C23.5215 10.7332 23.7518 9.31427 24.082 8.23242C24.4561 7.00688 24.9682 6.17928 25.6709 5.72363L25.6738 5.72168C26.1191 5.4424 26.8328 5.21208 27.7783 5.52637L27.9707 5.59668L27.9727 5.59766C32.6162 7.49928 35.5757 12.074 37.3877 17.0059C39.0888 21.6361 39.7964 26.6276 39.9258 30.1484L39.9443 30.833V30.834C39.9574 31.8842 39.9314 33.6582 39.6592 35.2822C39.5232 36.0936 39.3235 36.8798 39.0303 37.5234C38.739 38.1627 38.3384 38.6961 37.7803 38.9463L37.7744 38.9492C37.267 39.1595 36.7209 39.261 36.1719 39.248H36.1709C36.1693 39.248 36.1676 39.2491 36.166 39.249V39.248C34.561 39.2463 32.5584 38.5246 30.5557 37.2412L30.5547 37.2402C26.9839 34.9222 23.1309 30.5572 23.1309 25.251V19.6172C22.201 19.2062 21.278 18.9209 20.3877 18.9209C19.469 18.921 18.5149 19.2222 17.5469 19.6514C17.5556 20.7473 17.5566 21.8417 17.5469 22.9199V25.251C17.5541 30.5574 13.6892 34.9225 10.125 37.2402L10.123 37.2412C8.12032 38.5246 6.11626 39.2463 4.5127 39.248C3.96415 39.2626 3.4183 39.1611 2.91211 38.9492L2.90625 38.9463C2.34942 38.6959 1.95048 38.1624 1.66016 37.5234C1.36777 36.8799 1.16944 36.0936 1.03418 35.2822C0.763446 33.658 0.738597 31.8835 0.753906 30.833L0.771484 30.1484C0.898926 26.6276 1.60521 21.6366 3.30566 17.0059C5.1169 12.0736 8.07602 7.49674 12.7188 5.5918C13.6347 5.21015 14.3484 5.36477 14.8281 5.60742L15.0195 5.71582L15.0205 5.7168C15.7342 6.17316 16.2522 7.01968 16.6279 8.27637C16.9631 9.39751 17.1926 10.8751 17.3379 12.7607C17.7644 12.0546 18.0346 11.2789 18.0742 10.4219C18.1991 7.50793 18.1072 4.58875 17.7988 1.68848C17.7715 1.46883 17.8329 1.24699 17.9688 1.07227C18.1047 0.897635 18.3048 0.784288 18.5244 0.756836C18.744 0.729479 18.9659 0.789891 19.1406 0.925781C19.3153 1.0617 19.4285 1.26181 19.4561 1.48145L19.457 1.48535C19.7832 4.47969 19.8802 7.49476 19.748 10.5039C19.6572 12.573 18.6041 14.2307 17.2441 15.5283L17.2412 15.5312L17.2227 15.5488C15.1827 17.497 12.4379 18.6552 11.085 19.2334L11.084 19.2324C10.9807 19.278 10.8697 19.3027 10.7568 19.3037C10.5622 19.3052 10.3727 19.239 10.2217 19.1162C10.0707 18.9934 9.96695 18.8217 9.92871 18.6309C9.89052 18.4399 9.91953 18.2409 10.0117 18.0693C10.1034 17.8988 10.2517 17.7652 10.4307 17.6914C11.6489 17.1761 13.9997 16.1713 15.7998 14.5879C15.6934 12.3809 15.494 10.6501 15.2061 9.39551C15.0594 8.75665 14.8922 8.24878 14.707 7.86816C14.5205 7.48479 14.3255 7.25032 14.1367 7.12891V7.12793C14.0755 7.08954 13.999 7.05296 13.8896 7.04102C13.7769 7.02875 13.6105 7.04171 13.3701 7.13477C9.5126 8.72445 6.80751 12.6677 5.0498 17.2412C3.29453 21.8085 2.50468 26.9515 2.44336 30.8506C2.40875 33.0991 2.59526 34.7129 2.85547 35.7871C2.98572 36.3248 3.13279 36.7209 3.27539 36.9912C3.3868 37.2023 3.48393 37.3151 3.55078 37.3691L3.60742 37.4053L3.61328 37.4072C4.13896 37.6509 4.94697 37.6482 5.94629 37.374C6.93613 37.1024 8.07435 36.5751 9.22852 35.8281L9.52051 35.6348C12.5487 33.5809 15.9004 29.6991 15.9004 25.251V22.9121C15.9078 22.1163 15.9075 21.3197 15.9023 20.5225C15.5578 20.7173 15.2172 20.9126 14.873 21.1064L14.874 21.1074C14.1262 21.5778 13.35 22.0014 12.5498 22.376L12.5439 22.3789C12.343 22.4664 12.1153 22.4725 11.9102 22.3955C11.705 22.3185 11.5381 22.1639 11.4443 21.9658L11.4414 21.9609C11.3514 21.7586 11.3442 21.529 11.4209 21.3213C11.4977 21.1134 11.6534 20.9438 11.8535 20.8486L11.8564 20.8467C12.5975 20.507 13.3147 20.1176 14.0029 19.6807L14.0117 19.6748L15.165 19.0068C15.561 18.7828 15.9686 18.5624 16.3867 18.3604L16.4385 18.335H16.4482C17.6911 17.7315 19.0268 17.2559 20.4043 17.2559C21.7532 17.2559 23.0554 17.7139 24.2715 18.2949C24.278 18.2969 24.2838 18.2988 24.2891 18.3008H24.2959L24.3467 18.3242C25.2035 18.7305 26.0321 19.2232 26.7949 19.6748L26.8008 19.6787C27.4915 20.1152 28.2111 20.5047 28.9541 20.8447C29.1298 20.9239 29.2735 21.0614 29.3604 21.2334C29.4471 21.4053 29.4722 21.6018 29.4316 21.79C29.3911 21.9782 29.2874 22.1466 29.1377 22.2676C28.9877 22.3886 28.8001 22.4553 28.6074 22.4551H28.6055C28.4895 22.454 28.3751 22.4279 28.2695 22.3799L28.2676 22.3789C27.4668 22.0052 26.6898 21.5817 25.9424 21.1104V21.1094C25.5745 20.8985 25.1979 20.6842 24.8145 20.4717C24.8146 21.2699 24.8149 22.0708 24.8223 22.8818V25.2578Z" fill="#075F55" stroke="#075F55" stroke-width="0.5"/>
</g>
<defs>
<clipPath id="clip0_3299_4072">
<rect width="40" height="40" fill="white"/>
</clipPath>
</defs>
</svg>
