<svg width="80" height="80" viewBox="0 0 80 80" fill="none" xmlns="http://www.w3.org/2000/svg">
<g clip-path="url(#clip0_4625_7438)">
<path d="M20 40C31.0467 40 40 31.0467 40 20C40 8.95333 31.0467 0 20 0C8.95333 0 0 8.95333 0 20C0 31.0467 8.95333 40 20 40ZM28.3333 10C31.0933 10 33.3333 12.24 33.3333 15C33.3333 17.76 31.0933 20 28.3333 20C25.5733 20 23.3333 17.76 23.3333 15C23.3333 12.24 25.5733 10 28.3333 10ZM23.5367 25.2033C24.84 23.9 26.9467 23.9 28.25 25.2033C29.5533 26.5067 29.5533 28.6133 28.25 29.9167C26.0467 32.12 23.1167 33.3333 20 33.3333C16.8833 33.3333 13.9567 32.12 11.75 29.9167C10.4467 28.6133 10.4467 26.5067 11.75 25.2033C13.0533 23.9 15.16 23.9 16.4633 25.2033C18.35 27.09 21.65 27.09 23.5367 25.2033ZM11.6667 10C14.4267 10 16.6667 12.24 16.6667 15C16.6667 17.76 14.4267 20 11.6667 20C8.90667 20 6.66667 17.76 6.66667 15C6.66667 12.24 8.90667 10 11.6667 10ZM44.9167 48.13C43.6133 49.4333 41.5067 49.4333 40.2033 48.13C38.3167 46.2433 35.02 46.2433 33.1333 48.13C31.83 49.4333 29.7233 49.4333 28.42 48.13C27.7333 47.4433 27.4333 46.5467 27.4967 45.5633C31.1767 44.4833 34.51 42.6167 37.3433 40.1767C40.1 40.35 42.9033 41.4033 44.9167 43.4167C46.22 44.72 46.22 46.8267 44.9167 48.13ZM80 43.3367C80 46.57 77.6633 50.0033 73.3333 50.0033H72.2333L71.5033 55.5233C70.41 63.78 63.3067 70.0033 54.98 70.0033H53.3333C53.3333 75.5167 48.8467 80.0033 43.3333 80.0033H20C14.4867 80.0033 10 75.5167 10 70.0033V66.7667C10 63.78 9.12333 60.9933 7.53667 58.92C2.82333 52.7667 0.25 45.33 0.0433333 37.6267C4.8 43.0033 11.6733 46.4433 19.3533 46.63C22.83 52.5367 29.3167 56.6667 36.6633 56.6667C47.71 56.6667 56.6633 47.7133 56.6633 36.6667C56.6633 29.4433 52.39 22.91 46.63 19.3833C46.45 11.7033 43.02 4.83 37.6533 0.07C48.81 0.35 59.12 5.55 66 14.7333C70.2267 19.9567 79.9967 38.6067 79.9967 43.34L80 43.3367ZM50 31.6667C50 34.4267 47.76 36.6667 45 36.6667C43.7667 36.6667 42.58 36.1467 41.7033 35.4033C43.5433 32.8167 44.9367 29.9 45.7633 26.7433C48.1233 27.1433 49.9967 29.19 49.9967 31.6667H50Z" fill="#A6D05D"/>
</g>
<defs>
<clipPath id="clip0_4625_7438">
<rect width="80" height="80" fill="white"/>
</clipPath>
</defs>
</svg>
