<svg width="40" height="40" viewBox="0 0 40 40" fill="none" xmlns="http://www.w3.org/2000/svg">
<g clip-path="url(#clip0_3299_4101)">
<path d="M20.001 13.4166C20.5766 13.4166 21.043 13.8829 21.043 14.4586V16.9439C21.5072 17.269 21.835 17.792 21.835 18.4166C21.835 19.4274 21.0119 20.2496 20.001 20.2496C18.9902 20.2494 18.168 19.4273 18.168 18.4166C18.168 17.7919 18.4956 17.269 18.96 16.9439V14.4586C18.96 13.8831 19.4253 13.4167 20.001 13.4166Z" fill="#075F55" stroke="#075F55" stroke-width="0.5"/>
<path d="M33.458 0.75C36.7335 0.75 39.2499 3.67579 39.25 7.33301C39.25 8.65786 38.7543 10.4648 37.9053 12.0322C37.0951 13.5279 35.929 14.8635 34.5 15.3203V30.292C34.4998 35.2316 30.4816 39.2498 25.542 39.25C20.8941 39.25 17.0741 35.6904 16.6367 31.1562C14.6517 31.3114 12.8061 31.333 12.083 31.333C11.155 31.333 8.37217 31.3052 5.81738 30.9922C4.54242 30.836 3.30768 30.6062 2.38574 30.2676C1.92565 30.0985 1.52562 29.8965 1.2373 29.6494C0.946068 29.3998 0.75 29.0864 0.75 28.708V6.54199C0.75 6.16353 0.946052 5.85025 1.2373 5.60059C1.52562 5.35346 1.92565 5.15146 2.38574 4.98242C3.30768 4.64376 4.54243 4.41501 5.81738 4.25879C8.3722 3.94575 11.155 3.917 12.083 3.91699C13.0108 3.91699 15.7945 3.94569 18.3496 4.25879C19.6246 4.41504 20.8593 4.64372 21.7812 4.98242C22.2412 5.15141 22.6404 5.35357 22.9287 5.60059C23.22 5.85026 23.417 6.1635 23.417 6.54199V11.0107C26.2145 12.3067 28.167 15.1339 28.167 18.417C28.1668 21.6997 26.2142 24.5252 23.417 25.8213V28.708C23.417 29.0792 23.2277 29.3877 22.9453 29.6348C22.6659 29.8791 22.2783 30.0792 21.832 30.2471C20.995 30.5619 19.89 30.7824 18.7295 30.9395C19.0598 34.4254 21.9743 37.167 25.542 37.167C29.3325 37.1668 32.4168 34.0826 32.417 30.292V15.3203C30.9879 14.8636 29.822 13.528 29.0117 12.0322C28.1626 10.4648 27.667 8.6579 27.667 7.33301C27.6671 3.67591 30.1827 0.750179 33.458 0.75ZM21.333 8.24512C19.956 8.66237 18.0663 8.8899 16.3447 9.01465C14.4729 9.15026 12.7712 9.16699 12.083 9.16699C11.3662 9.16699 9.54745 9.14542 7.58301 8.99414V29.0557C8.92923 29.1721 10.46 29.25 12.083 29.25C14.4028 29.25 16.5399 29.0974 18.208 28.8887C19.0421 28.7843 19.7568 28.6663 20.3174 28.5469C20.774 28.4496 21.1142 28.3514 21.333 28.2666V26.4707C20.899 26.5425 20.4541 26.583 20 26.583C15.4971 26.583 11.8332 22.92 11.833 18.417C11.833 13.9139 15.4969 10.25 20 10.25C20.454 10.25 20.8991 10.2895 21.333 10.3613V8.24512ZM2.83301 28.2666C3.04183 28.3472 3.36337 28.4396 3.79199 28.5322C4.25792 28.6329 4.83504 28.731 5.5 28.8232V8.78027C4.53179 8.65114 3.60427 8.47937 2.83301 8.24512V28.2666ZM20 12.333C16.6459 12.333 13.917 15.0629 13.917 18.417C13.9172 21.7709 16.646 24.5 20 24.5C23.354 24.5 26.0828 21.7709 26.083 18.417C26.083 15.0629 23.3541 12.333 20 12.333ZM33.458 2.83301C31.4175 2.8332 29.7502 4.76343 29.75 7.33301C29.75 8.44077 30.221 9.98159 30.9453 11.248C31.3062 11.879 31.7227 12.4288 32.1611 12.8174C32.6015 13.2076 33.0422 13.4169 33.458 13.417C33.874 13.417 34.3153 13.2078 34.7559 12.8174C35.1943 12.4288 35.6108 11.879 35.9717 11.248C36.696 9.98162 37.167 8.44073 37.167 7.33301C37.1668 4.7633 35.4987 2.83301 33.458 2.83301ZM12.083 6C9.1382 6.00002 6.49365 6.24824 4.72852 6.54102C6.49363 6.83384 9.13802 7.08299 12.083 7.08301C15.0278 7.08301 17.6723 6.83377 19.4375 6.54102C17.6723 6.24824 15.0277 6 12.083 6Z" fill="#075F55" stroke="#075F55" stroke-width="0.5"/>
</g>
<defs>
<clipPath id="clip0_3299_4101">
<rect width="40" height="40" fill="white"/>
</clipPath>
</defs>
</svg>
