<svg width="80" height="80" viewBox="0 0 80 80" fill="none" xmlns="http://www.w3.org/2000/svg">
<rect width="80" height="80" rx="16" fill="#075F55"/>
<path d="M22.25 34H57.75M40 22L32 34L40 57.3333L48 34L40 22ZM41.28 56.2933L57.28 34.96C57.5382 34.6157 57.6673 34.4436 57.7171 34.2546C57.761 34.0877 57.761 33.9123 57.7171 33.7454C57.6673 33.5564 57.5382 33.3843 57.28 33.04L49.48 22.64C49.304 22.4053 49.216 22.288 49.1045 22.2034C49.0057 22.1284 48.8938 22.0725 48.7746 22.0384C48.64 22 48.4933 22 48.2 22H31.8C31.5067 22 31.36 22 31.2254 22.0384C31.1062 22.0725 30.9943 22.1284 30.8955 22.2034C30.784 22.288 30.696 22.4053 30.52 22.64L22.72 33.04C22.4618 33.3843 22.3327 33.5564 22.2829 33.7454C22.239 33.9123 22.239 34.0877 22.2829 34.2546C22.3327 34.4436 22.4618 34.6157 22.72 34.96L38.72 56.2933C39.1542 56.8723 39.3714 57.1618 39.6375 57.2653C39.8707 57.356 40.1293 57.356 40.3625 57.2653C40.6286 57.1618 40.8458 56.8723 41.28 56.2933Z" stroke="#A6D05D" stroke-width="2" stroke-linecap="round" stroke-linejoin="round"/>
</svg>
