<svg width="56" height="56" viewBox="0 0 56 56" fill="none" xmlns="http://www.w3.org/2000/svg">
<rect width="56" height="56" rx="16" fill="#075F55"/>
<path d="M33 24.6667V24.5278C33 22.7635 31.5698 21.3333 29.8056 21.3333H26.3333C24.4924 21.3333 23 22.8257 23 24.6667C23 26.5076 24.4924 28 26.3333 28H29.6667C31.5076 28 33 29.4924 33 31.3333C33 33.1743 31.5076 34.6667 29.6667 34.6667H26.2639C24.4613 34.6667 23 33.2054 23 31.4028V31.3333M28 37.1667V18.8333M43 28C43 36.2843 36.2843 43 28 43C19.7157 43 13 36.2843 13 28C13 19.7157 19.7157 13 28 13C36.2843 13 43 19.7157 43 28Z" stroke="#A6D05D" stroke-width="2" stroke-linecap="round" stroke-linejoin="round"/>
</svg>
