<svg width="40" height="40" viewBox="0 0 40 40" fill="none" xmlns="http://www.w3.org/2000/svg">
<path d="M4.98693 38.7125C4.27973 38.7125 3.70703 38.1398 3.70703 37.4326C3.70703 35.7512 3.70703 33.4487 5.74059 31.8283C6.03248 31.5954 6.41243 31.5018 6.77713 31.5718C7.1439 31.6418 7.46145 31.8679 7.64796 32.191C8.74898 34.1059 13.151 35.1889 17.8872 34.7078C31.67 33.3155 37.6154 22.9585 37.4344 16.0487C37.2874 10.4223 34.3033 7.56431 31.5598 6.7649C29.027 6.02857 26.5449 6.91397 25.0861 9.07995C24.5633 9.85441 23.7583 9.93067 23.194 9.66374C21.4384 8.8359 21.5944 3.71976 22.0416 2.20621C22.2413 1.52743 22.9534 1.13985 23.6322 1.34161C24.3102 1.54199 24.6971 2.25335 24.4967 2.93213C24.2652 3.7156 24.2603 4.99689 24.356 6.04452C26.4686 4.15032 29.3931 3.46739 32.276 4.30702C35.7219 5.30958 39.8105 8.96971 39.9942 15.9821C40.2348 25.2 32.6587 35.7887 18.1444 37.2551C13.9539 37.6794 9.12269 37.0464 6.57675 34.8395C6.29734 35.5224 6.26683 36.3739 6.26683 37.4333C6.26683 38.1391 5.69414 38.7125 4.98693 38.7125Z" fill="#075F55"/>
<path d="M1.2799 38.7125C0.572696 38.7125 0 38.1391 0 37.4326C0 34.124 0.969285 30.8119 2.37537 29.1118C1.8415 25.537 4.13576 22.5543 8.51764 21.2265C16.4231 18.8352 18.2667 13.5742 18.1363 11.1267C18.1155 10.7329 18.0434 10.1706 17.9595 9.52022C17.6926 7.44784 17.3279 4.60862 17.9311 2.25266C18.1058 1.56765 18.8033 1.15234 19.4876 1.32983C20.1726 1.50455 20.5859 2.20205 20.4105 2.88637C19.93 4.76878 20.2579 7.32651 20.4985 9.19436C20.5886 9.89601 20.6663 10.502 20.6926 10.9915C20.9249 15.3664 17.4457 21.2016 9.25882 23.6775C7.30153 24.2703 4.14408 25.779 5.00173 29.211C5.12099 29.688 4.95667 30.1907 4.5788 30.5055C3.60327 31.316 2.55911 34.2932 2.55911 37.4333C2.55911 38.1391 1.98641 38.7125 1.2799 38.7125Z" fill="#075F55"/>
<path d="M33.5896 14.6863C33.4987 14.6863 33.4065 14.6766 33.315 14.6565C32.6245 14.5053 32.187 13.8231 32.3381 13.1325C32.5697 12.0745 31.868 11.2432 31.1338 10.8196C30.473 10.4375 29.4587 10.2122 28.7778 10.832C28.2523 11.3077 27.4438 11.2675 26.9696 10.7461C26.494 10.2226 26.5328 9.41278 27.0556 8.93784C28.4575 7.66279 30.5618 7.53106 32.4158 8.60435C34.3217 9.70606 35.273 11.6987 34.8397 13.6803C34.7079 14.2779 34.1782 14.6863 33.5896 14.6863Z" fill="#075F55"/>
</svg>
