<svg xmlns="http://www.w3.org/2000/svg" width="1440" height="810" fill="none" viewBox="0 0 1440 810">
  <path fill="#075F55" d="M0 0h1440v810H0z"/>
  <g clip-path="url(#a)">
    <path fill="url(#b)" d="m1213.62 959.363 21.72-37.632.21-.364h43.87l21.93 37.986-21.73 37.632-.2.364h-43.87l-21.93-37.986Zm86.06 0-21.1-36.551h-42.2l-21.1 36.551 21.1 36.55h42.2l21.1-36.55Zm-86.06-298.147 21.72-37.632.21-.364h43.87l21.93 37.986-21.73 37.632-.2.364h-43.87l-21.93-37.986Zm86.06 0-21.1-36.55h-42.2l-21.1 36.55 21.1 36.55h42.2l21.1-36.55Zm-86.06-298.147 21.72-37.632.21-.364h43.87l21.93 37.986-21.73 37.633-.2.364h-43.87l-21.93-37.987Zm86.06 0-21.1-36.55h-42.2l-21.1 36.55 21.1 36.551h42.2l21.1-36.551Zm-150.61 633.572 21.72-37.632.21-.364h43.86l21.93 37.986-21.72 37.629-.21.37H1171l-21.93-37.989Zm86.06 0-21.1-36.551h-42.21l-21.1 36.551 21.1 36.549h42.21l21.1-36.549Zm-86.06-74.537 21.72-37.632.21-.364h43.86l21.93 37.986-21.72 37.633-.21.363H1171l-21.93-37.986Zm86.06 0-21.1-36.55h-42.21l-21.1 36.55 21.1 36.551h42.21l21.1-36.551Zm-86.06-149.073 21.72-37.632.21-.364h43.86l21.93 37.986-21.72 37.632-.21.364H1171l-21.93-37.986Zm86.06 0-21.1-36.551h-42.21l-21.1 36.551 21.1 36.55h42.21l21.1-36.55Zm-86.06-149.074 21.72-37.632.21-.363h43.86l21.93 37.986-21.72 37.632-.21.364H1171l-21.93-37.987Zm86.06 0-21.1-36.55h-42.21l-21.1 36.55 21.1 36.551h42.21l21.1-36.551Zm-86.06-149.073 21.72-37.632.21-.364h43.86l21.93 37.986-21.72 37.633-.21.363H1171l-21.93-37.986Zm86.06 0-21.1-36.55h-42.21l-21.1 36.55 21.1 36.551h42.21l21.1-36.551Zm-86.06-149.073 21.72-37.632.21-.364h43.86l21.93 37.986-21.72 37.632-.21.364H1171l-21.93-37.986Zm86.06 0-21.1-36.551h-42.21l-21.1 36.551 21.1 36.55h42.21l21.1-36.55Zm-151.51 559.015 21.72-37.632.2-.364h43.87l21.93 37.986-21.72 37.632-.21.364h-43.87l-21.92-37.986Zm86.07 0-21.1-36.551h-42.21l-21.1 36.551 21.1 36.551h42.21l21.1-36.551Zm-86.07-149.073 21.72-37.632.2-.364h43.87l21.93 37.986-21.72 37.632-.21.364h-43.87l-21.92-37.986Zm86.07 0-21.1-36.551h-42.21l-21.1 36.551 21.1 36.55h42.21l21.1-36.55Zm-86.07-74.537 21.72-37.632.2-.364h43.87l21.93 37.986-21.72 37.632-.21.364h-43.87l-21.92-37.986Zm86.07 0-21.1-36.55h-42.21l-21.1 36.55 21.1 36.55h42.21l21.1-36.55Zm-86.07-74.537 21.72-37.632.2-.364h43.87l21.93 37.987-21.72 37.632-.21.364h-43.87l-21.92-37.987Zm86.07 0-21.1-36.55h-42.21l-21.1 36.55 21.1 36.551h42.21l21.1-36.551Zm-86.07-149.073 21.72-37.632.2-.364h43.87l21.93 37.986-21.72 37.632-.21.364h-43.87l-21.92-37.986Zm86.07 0-21.1-36.55h-42.21l-21.1 36.55 21.1 36.551h42.21l21.1-36.551Zm-86.07-149.073 21.72-37.633.2-.363h43.87l21.93 37.986-21.72 37.632-.21.364h-43.87l-21.92-37.986Zm86.07 0-21.1-36.551h-42.21l-21.1 36.551 21.1 36.55h42.21l21.1-36.55Zm-150.63 633.571 21.72-37.632.21-.364h43.87l21.92 37.986-21.72 37.633-.2.363h-43.87l-21.93-37.986Zm86.07 0-21.1-36.55h-42.21l-21.1 36.55 21.1 36.551h42.21l21.1-36.551Zm-86.07-149.073 21.72-37.632.21-.364h43.87l21.92 37.986-21.72 37.632-.2.364h-43.87l-21.93-37.986Zm86.07 0-21.1-36.551h-42.21l-21.1 36.551 21.1 36.55h42.21l21.1-36.55Zm-86.07-149.074 21.72-37.632.21-.363h43.87l21.92 37.986-21.72 37.632-.2.364h-43.87l-21.93-37.987Zm86.07 0-21.1-36.55h-42.21l-21.1 36.55 21.1 36.551h42.21l21.1-36.551Zm-86.07-223.609 21.72-37.633.21-.364h43.87l21.92 37.987-21.72 37.632-.2.364h-43.87l-21.93-37.986Zm86.07 0-21.1-36.551h-42.21l-21.1 36.551 21.1 36.55h42.21l21.1-36.55Zm-86.07-74.537 21.72-37.632.21-.364h43.87l21.92 37.986-21.72 37.632-.2.364h-43.87l-21.93-37.986Zm86.07 0-21.1-36.551h-42.21l-21.1 36.551 21.1 36.55h42.21l21.1-36.55Zm-86.07-74.527 21.72-37.632.21-.364h43.87l21.92 37.986-21.72 37.632-.2.364h-43.87l-21.93-37.986Zm86.07 0-21.1-36.55h-42.21l-21.1 36.55 21.1 36.55h42.21l21.1-36.55ZM953.61 959.363l21.722-37.632.207-.364h43.871l21.92 37.986-21.72 37.632-.2.364h-43.871l-21.929-37.986Zm86.07 0-21.1-36.551h-42.206l-21.102 36.551 21.102 36.55h42.206l21.1-36.55Zm-86.07-223.61 21.722-37.632.207-.364h43.871l21.92 37.986-21.72 37.632-.2.364h-43.871l-21.929-37.986Zm86.07 0-21.1-36.551h-42.206l-21.102 36.551 21.102 36.55h42.206l21.1-36.55Zm-86.07-74.537 21.722-37.632.207-.364h43.871l21.92 37.986-21.72 37.632-.2.364h-43.871l-21.929-37.986Zm86.07 0-21.1-36.55h-42.206l-21.102 36.55 21.102 36.55h42.206l21.1-36.55Zm-86.07-74.537 21.722-37.632.207-.364h43.871l21.92 37.987-21.72 37.632-.2.364h-43.871l-21.929-37.987Zm86.07 0-21.1-36.55h-42.206l-21.102 36.55 21.102 36.551h42.206l21.1-36.551Zm-86.07-149.073 21.722-37.632.207-.364h43.871l21.92 37.986-21.72 37.632-.2.364h-43.871l-21.929-37.986Zm86.07 0-21.1-36.55h-42.206l-21.102 36.55 21.102 36.551h42.206l21.1-36.551Zm-86.07-74.537 21.722-37.632.207-.364h43.871l21.92 37.986-21.72 37.633-.2.364h-43.871l-21.929-37.987Zm86.07 0-21.1-36.55h-42.206l-21.102 36.55 21.102 36.551h42.206l21.1-36.551Zm-86.07-74.536 21.722-37.633.207-.363h43.871l21.92 37.986-21.72 37.632-.2.364h-43.871l-21.929-37.986Zm86.07 0-21.1-36.551h-42.206l-21.102 36.551 21.102 36.55h42.206l21.1-36.55ZM889.054 847.568l21.722-37.633.207-.363h43.866l21.929 37.986-21.722 37.632-.207.364h-43.866l-21.929-37.986Zm86.072 0-21.103-36.551h-42.204l-21.103 36.551 21.103 36.55h42.204l21.103-36.55Zm-86.072-74.537 21.722-37.632.207-.364h43.866l21.929 37.986-21.722 37.632-.207.364h-43.866l-21.929-37.986Zm86.072 0-21.103-36.551h-42.204l-21.103 36.551 21.103 36.55h42.204l21.103-36.55Zm-86.072-74.537 21.722-37.632.207-.364h43.866l21.929 37.986-21.722 37.632-.207.364h-43.866l-21.929-37.986Zm86.072 0-21.103-36.55h-42.204l-21.103 36.55 21.103 36.551h42.204l21.103-36.551Zm-86.072-74.537 21.722-37.632.207-.363h43.866l21.929 37.986-21.722 37.632-.207.364h-43.866l-21.929-37.987Zm86.072 0-21.103-36.55h-42.204l-21.103 36.55 21.103 36.551h42.204l21.103-36.551Zm-86.072-149.073 21.722-37.632.207-.364h43.866l21.929 37.986-21.722 37.633-.207.363h-43.866l-21.929-37.986Zm86.072 0-21.103-36.55h-42.204l-21.103 36.55 21.103 36.551h42.204l21.103-36.551Zm-86.072-74.536 21.722-37.633.207-.364h43.866l21.929 37.987-21.722 37.632-.207.364h-43.866l-21.929-37.986Zm86.072 0-21.103-36.551h-42.204l-21.103 36.551 21.103 36.55h42.204l21.103-36.55ZM823.604 959.363l21.722-37.632.206-.364h43.866l21.929 37.986-21.722 37.632-.207.364h-43.866l-21.928-37.986Zm86.071 0-21.102-36.551h-42.205l-21.102 36.551 21.102 36.55h42.205l21.102-36.55Zm-86.071-74.537 21.722-37.632.206-.364h43.866l21.929 37.986-21.722 37.632-.207.364h-43.866l-21.928-37.986Zm86.071 0-21.102-36.551h-42.205l-21.102 36.551 21.102 36.551h42.205l21.102-36.551Zm-86.071-74.537 21.722-37.632.206-.364h43.866l21.929 37.987-21.722 37.632-.207.363h-43.866l-21.928-37.986Zm86.071 0-21.102-36.55h-42.205l-21.102 36.55 21.102 36.551h42.205l21.102-36.551Zm-86.071-74.536 21.722-37.632.206-.364h43.866l21.929 37.986-21.722 37.632-.207.364h-43.866l-21.928-37.986Zm86.071 0-21.102-36.551h-42.205l-21.102 36.551 21.102 36.55h42.205l21.102-36.55Zm-86.071-223.61 21.722-37.632.206-.364h43.866l21.929 37.986-21.722 37.632-.207.364h-43.866l-21.928-37.986Zm86.071 0-21.102-36.551h-42.205l-21.102 36.551 21.102 36.55h42.205l21.102-36.55Zm-86.071-74.537 21.722-37.632.206-.364h43.866l21.929 37.986-21.722 37.632-.207.364h-43.866l-21.928-37.986Zm86.071 0-21.102-36.55h-42.205l-21.102 36.55 21.102 36.551h42.205l21.102-36.551Zm-86.071-74.537 21.722-37.632.206-.364h43.866l21.929 37.986-21.722 37.633-.207.364h-43.866l-21.928-37.987Zm86.071 0-21.102-36.55h-42.205l-21.102 36.55 21.102 36.551h42.205l21.102-36.551Zm-86.071-74.536 21.722-37.633.206-.363h43.866l21.929 37.986-21.722 37.632-.207.364h-43.866l-21.928-37.986Zm86.071 0-21.102-36.551h-42.205l-21.102 36.551 21.102 36.55h42.205l21.102-36.55Zm-86.071-74.537 21.722-37.632.206-.364h43.866l21.929 37.986-21.722 37.632-.207.364h-43.866l-21.928-37.986Zm86.071 0-21.102-36.551h-42.205l-21.102 36.551 21.102 36.55h42.205l21.102-36.55ZM759.048 996.641l21.722-37.632.206-.364h43.867l21.928 37.986-21.722 37.629-.206.37h-43.867l-21.928-37.989Zm86.071 0-21.102-36.551h-42.205l-21.102 36.551 21.102 36.549h42.205l21.102-36.549Zm-86.071-74.537 21.722-37.632.206-.364h43.867l21.928 37.986-21.722 37.633-.206.363h-43.867l-21.928-37.986Zm86.071 0-21.102-36.55h-42.205l-21.102 36.55 21.102 36.551h42.205l21.102-36.551Zm-86.071-149.073 21.722-37.632.206-.364h43.867l21.928 37.986-21.722 37.632-.206.364h-43.867l-21.928-37.986Zm86.071 0-21.102-36.551h-42.205l-21.102 36.551 21.102 36.55h42.205l21.102-36.55Zm-86.071-149.074 21.722-37.632.206-.363h43.867l21.928 37.986-21.722 37.632-.206.364h-43.867l-21.928-37.987Zm86.071 0-21.102-36.55h-42.205l-21.102 36.55 21.102 36.551h42.205l21.102-36.551Zm-86.071-74.536 21.722-37.632.206-.364h43.867l21.928 37.986-21.722 37.632-.206.364h-43.867l-21.928-37.986Zm86.071 0-21.102-36.551h-42.205l-21.102 36.551 21.102 36.55h42.205l21.102-36.55Zm-86.071-74.537 21.722-37.632.206-.364h43.867l21.928 37.986-21.722 37.633-.206.363h-43.867l-21.928-37.986Zm86.071 0-21.102-36.55h-42.205l-21.102 36.55 21.102 36.551h42.205l21.102-36.551Zm-86.071-149.073 21.722-37.632.206-.364h43.867l21.928 37.986-21.722 37.632-.206.364h-43.867l-21.928-37.986Zm86.071 0-21.102-36.551h-42.205l-21.102 36.551 21.102 36.55h42.205l21.102-36.55ZM693.607 884.826l21.722-37.632.206-.364h43.867l21.928 37.986-21.722 37.632-.206.364h-43.867l-21.928-37.986Zm86.061 0-21.102-36.551h-42.205l-21.102 36.551 21.102 36.551h42.205l21.102-36.551Zm-86.061-149.073 21.722-37.632.206-.364h43.867l21.928 37.986-21.722 37.632-.206.364h-43.867l-21.928-37.986Zm86.061 0-21.102-36.551h-42.205l-21.102 36.551 21.102 36.55h42.205l21.102-36.55Zm-86.061-149.074 21.722-37.632.206-.364h43.867l21.928 37.987-21.722 37.632-.206.364h-43.867l-21.928-37.987Zm86.061 0-21.102-36.55h-42.205l-21.102 36.55 21.102 36.551h42.205l21.102-36.551Zm-86.061-74.536 21.722-37.632.206-.364h43.867l21.928 37.986-21.722 37.632-.206.364h-43.867l-21.928-37.986Zm86.061 0-21.102-36.551h-42.205l-21.102 36.551 21.102 36.55h42.205l21.102-36.55Zm-86.061-149.074 21.722-37.632.206-.364h43.867l21.928 37.986-21.722 37.633-.206.364h-43.867l-21.928-37.987Zm86.061 0-21.102-36.55h-42.205l-21.102 36.55 21.102 36.551h42.205l21.102-36.551Zm-86.061-74.536 21.722-37.633.206-.363h43.867l21.928 37.986-21.722 37.632-.206.364h-43.867l-21.928-37.986Zm86.061 0-21.102-36.551h-42.205l-21.102 36.551 21.102 36.55h42.205l21.102-36.55Zm-86.061-74.537 21.722-37.632.206-.364h43.867l21.928 37.986-21.722 37.632-.206.364h-43.867l-21.928-37.986Zm86.061 0-21.102-36.551h-42.205l-21.102 36.551 21.102 36.55h42.205l21.102-36.55ZM629.041 847.568l21.722-37.633.207-.363h43.866l21.929 37.986-21.722 37.632-.207.364H650.97l-21.929-37.986Zm86.072 0-21.103-36.551h-42.204l-21.103 36.551 21.103 36.55h42.204l21.103-36.55Zm-86.072-74.537 21.722-37.632.207-.364h43.866l21.929 37.986-21.722 37.632-.207.364H650.97l-21.929-37.986Zm86.072 0L694.01 736.48h-42.204l-21.103 36.551 21.103 36.55h42.204l21.103-36.55Zm-86.072-74.537 21.722-37.632.207-.364h43.866l21.929 37.986-21.722 37.632-.207.364H650.97l-21.929-37.986Zm86.072 0-21.103-36.55h-42.204l-21.103 36.55 21.103 36.551h42.204l21.103-36.551Zm-86.072-74.537 21.722-37.632.207-.363h43.866l21.929 37.986-21.722 37.632-.207.364H650.97l-21.929-37.987Zm86.072 0-21.103-36.55h-42.204l-21.103 36.55 21.103 36.551h42.204l21.103-36.551Zm-86.072-74.536 21.722-37.632.207-.364h43.866l21.929 37.986-21.722 37.632-.207.364H650.97l-21.929-37.986Zm86.072 0L694.01 512.87h-42.204l-21.103 36.551 21.103 36.55h42.204l21.103-36.55Zm-86.072-74.537 21.722-37.632.207-.364h43.866l21.929 37.986-21.722 37.633-.207.363H650.97l-21.929-37.986Zm86.072 0-21.103-36.55h-42.204l-21.103 36.55 21.103 36.551h42.204l21.103-36.551ZM563.601 959.363l21.721-37.632.207-.364h43.866l21.929 37.986-21.722 37.632-.207.364h-43.866l-21.928-37.986Zm86.061 0-21.102-36.551h-42.205l-21.102 36.551 21.102 36.55h42.205l21.102-36.55Zm-86.061-74.537 21.721-37.632.207-.364h43.866l21.929 37.986-21.722 37.632-.207.364h-43.866l-21.928-37.986Zm86.061 0-21.102-36.551h-42.205l-21.102 36.551 21.102 36.551h42.205l21.102-36.551Zm-86.061-74.537 21.721-37.632.207-.364h43.866l21.929 37.987-21.722 37.632-.207.363h-43.866l-21.928-37.986Zm86.061 0-21.102-36.55h-42.205l-21.102 36.55 21.102 36.551h42.205l21.102-36.551Zm-86.061-149.073 21.721-37.632.207-.364h43.866l21.929 37.986-21.722 37.632-.207.364h-43.866l-21.928-37.986Zm86.061 0-21.102-36.55h-42.205l-21.102 36.55 21.102 36.55h42.205l21.102-36.55Zm-86.061-149.073 21.721-37.632.207-.364h43.866l21.929 37.986-21.722 37.632-.207.364h-43.866l-21.928-37.986Zm86.061 0-21.102-36.551h-42.205l-21.102 36.551 21.102 36.55h42.205l21.102-36.55Zm-86.061-74.537 21.721-37.632.207-.364h43.866l21.929 37.986-21.722 37.632-.207.364h-43.866l-21.928-37.986Zm86.061 0-21.102-36.55h-42.205l-21.102 36.55 21.102 36.551h42.205l21.102-36.551Zm-86.061-74.537 21.721-37.632.207-.364h43.866l21.929 37.986-21.722 37.633-.207.364h-43.866l-21.928-37.987Zm86.061 0-21.102-36.55h-42.205l-21.102 36.55 21.102 36.551h42.205l21.102-36.551ZM499.045 996.641l21.722-37.632.206-.364h43.867l21.928 37.986-21.722 37.629-.206.37h-43.867l-21.928-37.989Zm86.061 0-21.102-36.551h-42.205l-21.102 36.551 21.102 36.549h42.205l21.102-36.549Zm-86.061-74.537 21.722-37.632.206-.364h43.867l21.928 37.986-21.722 37.633-.206.363h-43.867l-21.928-37.986Zm86.061 0-21.102-36.55h-42.205l-21.102 36.55 21.102 36.551h42.205l21.102-36.551Zm-86.061-74.536 21.722-37.633.206-.363h43.867l21.928 37.986-21.722 37.632-.206.364h-43.867l-21.928-37.986Zm86.061 0-21.102-36.551h-42.205l-21.102 36.551 21.102 36.55h42.205l21.102-36.55Zm-86.061-74.537 21.722-37.632.206-.364h43.867l21.928 37.986-21.722 37.632-.206.364h-43.867l-21.928-37.986Zm86.061 0-21.102-36.551h-42.205l-21.102 36.551 21.102 36.55h42.205l21.102-36.55Zm-86.061-74.537 21.722-37.632.206-.364h43.867l21.928 37.986-21.722 37.632-.206.364h-43.867l-21.928-37.986Zm86.061 0-21.102-36.55h-42.205l-21.102 36.55 21.102 36.551h42.205l21.102-36.551Zm-86.061-149.073 21.722-37.632.206-.364h43.867l21.928 37.986-21.722 37.632-.206.364h-43.867l-21.928-37.986Zm86.061 0-21.102-36.551h-42.205l-21.102 36.551 21.102 36.55h42.205l21.102-36.55Zm-86.061-74.537 21.722-37.632.206-.364h43.867l21.928 37.986-21.722 37.633-.206.363h-43.867l-21.928-37.986Zm86.061 0-21.102-36.55h-42.205l-21.102 36.55 21.102 36.551h42.205l21.102-36.551Zm-86.061-74.536 21.722-37.633.206-.364h43.867l21.928 37.987-21.722 37.632-.206.364h-43.867l-21.928-37.986Zm86.061 0-21.102-36.551h-42.205l-21.102 36.551 21.102 36.55h42.205l21.102-36.55Zm-86.061-74.537 21.722-37.632.206-.364h43.867l21.928 37.986-21.722 37.632-.206.364h-43.867l-21.928-37.986Zm86.061 0-21.102-36.551h-42.205l-21.102 36.551 21.102 36.55h42.205l21.102-36.55Zm-86.061-74.527 21.722-37.632.206-.364h43.867l21.928 37.986-21.722 37.632-.206.364h-43.867l-21.928-37.986Zm86.061 0-21.102-36.55h-42.205l-21.102 36.55 21.102 36.55h42.205l21.102-36.55ZM433.594 959.363l21.722-37.632.206-.364h43.867l21.928 37.986-21.722 37.632-.206.364h-43.867l-21.928-37.986Zm86.061 0-21.102-36.551h-42.205l-21.102 36.551 21.102 36.55h42.205l21.102-36.55Zm-86.061-74.537 21.722-37.632.206-.364h43.867l21.928 37.986-21.722 37.632-.206.364h-43.867l-21.928-37.986Zm86.061 0-21.102-36.551h-42.205l-21.102 36.551 21.102 36.551h42.205l21.102-36.551Zm-86.061-149.073 21.722-37.632.206-.364h43.867l21.928 37.986-21.722 37.632-.206.364h-43.867l-21.928-37.986Zm86.061 0-21.102-36.551h-42.205l-21.102 36.551 21.102 36.55h42.205l21.102-36.55Zm-86.061-74.537 21.722-37.632.206-.364h43.867l21.928 37.986-21.722 37.632-.206.364h-43.867l-21.928-37.986Zm86.061 0-21.102-36.55h-42.205l-21.102 36.55 21.102 36.55h42.205l21.102-36.55Zm-86.061-74.537 21.722-37.632.206-.364h43.867l21.928 37.987-21.722 37.632-.206.364h-43.867l-21.928-37.987Zm86.061 0-21.102-36.55h-42.205l-21.102 36.55 21.102 36.551h42.205l21.102-36.551Zm-86.061-149.073 21.722-37.632.206-.364h43.867l21.928 37.986-21.722 37.632-.206.364h-43.867l-21.928-37.986Zm86.061 0-21.102-36.55h-42.205l-21.102 36.55 21.102 36.551h42.205l21.102-36.551Zm-86.061-74.537 21.722-37.632.206-.364h43.867l21.928 37.986-21.722 37.633-.206.364h-43.867l-21.928-37.987Zm86.061 0-21.102-36.55h-42.205l-21.102 36.55 21.102 36.551h42.205l21.102-36.551Zm-86.061-74.536 21.722-37.633.206-.363h43.867l21.928 37.986-21.722 37.632-.206.364h-43.867l-21.928-37.986Zm86.061 0-21.102-36.551h-42.205l-21.102 36.551 21.102 36.55h42.205l21.102-36.55Zm-86.061-74.537 21.722-37.632.206-.364h43.867l21.928 37.986-21.722 37.632-.206.364h-43.867l-21.928-37.986Zm86.061 0-21.102-36.551h-42.205l-21.102 36.551 21.102 36.55h42.205l21.102-36.55ZM369.038 996.641l21.722-37.632.207-.364h43.866l21.928 37.986-21.721 37.629-.207.37h-43.866l-21.929-37.989Zm86.062 0-21.103-36.551h-42.204l-21.103 36.551 21.103 36.549h42.204l21.103-36.549Zm-86.062-74.537 21.722-37.632.207-.364h43.866l21.928 37.986-21.721 37.633-.207.363h-43.866l-21.929-37.986Zm86.062 0-21.103-36.55h-42.204l-21.103 36.55 21.103 36.551h42.204l21.103-36.551Zm-86.062-74.536 21.722-37.633.207-.363h43.866l21.928 37.986-21.721 37.632-.207.364h-43.866l-21.929-37.986Zm86.062 0-21.103-36.551h-42.204l-21.103 36.551 21.103 36.55h42.204l21.103-36.55Zm-86.062-149.074 21.722-37.632.207-.364h43.866l21.928 37.986-21.721 37.632-.207.364h-43.866l-21.929-37.986Zm86.062 0-21.103-36.55h-42.204l-21.103 36.55 21.103 36.551h42.204l21.103-36.551Zm-86.062-74.537 21.722-37.632.207-.363h43.866l21.928 37.986-21.721 37.632-.207.364h-43.866l-21.929-37.987Zm86.062 0-21.103-36.55h-42.204l-21.103 36.55 21.103 36.551h42.204l21.103-36.551Zm-86.062-74.536 21.722-37.632.207-.364h43.866l21.928 37.986-21.721 37.632-.207.364h-43.866l-21.929-37.986Zm86.062 0-21.103-36.551h-42.204l-21.103 36.551 21.103 36.55h42.204l21.103-36.55Zm-86.062-74.537 21.722-37.632.207-.364h43.866l21.928 37.986-21.721 37.633-.207.363h-43.866l-21.929-37.986Zm86.062 0-21.103-36.55h-42.204l-21.103 36.55 21.103 36.551h42.204l21.103-36.551Zm-86.062-149.073 21.722-37.632.207-.364h43.866l21.928 37.986-21.721 37.632-.207.364h-43.866l-21.929-37.986Zm86.062 0-21.103-36.551h-42.204l-21.103 36.551 21.103 36.55h42.204l21.103-36.55Zm-86.062-74.527 21.722-37.632.207-.364h43.866l21.928 37.986-21.721 37.632-.207.364h-43.866l-21.929-37.986Zm86.062 0-21.103-36.55h-42.204l-21.103 36.55 21.103 36.55h42.204l21.103-36.55ZM303.588 959.363l21.721-37.632.207-.364h43.866l21.929 37.986-21.722 37.632-.207.364h-43.866l-21.928-37.986Zm86.071 0-21.103-36.551h-42.204l-21.103 36.551 21.103 36.55h42.204l21.103-36.55Zm-86.071-74.537 21.721-37.632.207-.364h43.866l21.929 37.986-21.722 37.632-.207.364h-43.866l-21.928-37.986Zm86.071 0-21.103-36.551h-42.204l-21.103 36.551 21.103 36.551h42.204l21.103-36.551Zm-86.071-74.537 21.721-37.632.207-.364h43.866l21.929 37.987-21.722 37.632-.207.363h-43.866l-21.928-37.986Zm86.071 0-21.103-36.55h-42.204l-21.103 36.55 21.103 36.551h42.204l21.103-36.551Zm-86.071-149.073 21.721-37.632.207-.364h43.866l21.929 37.986-21.722 37.632-.207.364h-43.866l-21.928-37.986Zm86.071 0-21.103-36.55h-42.204l-21.103 36.55 21.103 36.55h42.204l21.103-36.55Zm-86.071-74.537 21.721-37.632.207-.364h43.866l21.929 37.987-21.722 37.632-.207.364h-43.866l-21.928-37.987Zm86.071 0-21.103-36.55h-42.204l-21.103 36.55 21.103 36.551h42.204l21.103-36.551Zm-86.071-74.536 21.721-37.632.207-.364h43.866l21.929 37.986-21.722 37.632-.207.364h-43.866l-21.928-37.986Zm86.071 0-21.103-36.551h-42.204l-21.103 36.551 21.103 36.55h42.204l21.103-36.55Zm-86.071-149.074 21.721-37.632.207-.364h43.866l21.929 37.986-21.722 37.633-.207.364h-43.866l-21.928-37.987Zm86.071 0-21.103-36.55h-42.204l-21.103 36.55 21.103 36.551h42.204l21.103-36.551Zm-86.071-74.536 21.721-37.633.207-.363h43.866l21.929 37.986-21.722 37.632-.207.364h-43.866l-21.928-37.986Zm86.071 0-21.103-36.551h-42.204l-21.103 36.551 21.103 36.55h42.204l21.103-36.55Zm-86.071-74.537 21.721-37.632.207-.364h43.866l21.929 37.986-21.722 37.632-.207.364h-43.866l-21.928-37.986Zm86.071 0-21.103-36.551h-42.204l-21.103 36.551 21.103 36.55h42.204l21.103-36.55ZM239.032 996.641l21.722-37.632.206-.364h43.867l21.928 37.986-21.722 37.629-.206.37H260.96l-21.928-37.989Zm86.071 0-21.102-36.551h-42.205l-21.102 36.551 21.102 36.549h42.205l21.102-36.549Zm-86.071-149.073 21.722-37.633.206-.363h43.867l21.928 37.986-21.722 37.632-.206.364H260.96l-21.928-37.986Zm86.071 0-21.102-36.551h-42.205l-21.102 36.551 21.102 36.55h42.205l21.102-36.55Zm-86.071-74.537 21.722-37.632.206-.364h43.867l21.928 37.986-21.722 37.632-.206.364H260.96l-21.928-37.986Zm86.071 0-21.102-36.551h-42.205l-21.102 36.551 21.102 36.55h42.205l21.102-36.55Zm-86.071-149.074 21.722-37.632.206-.363h43.867l21.928 37.986-21.722 37.632-.206.364H260.96l-21.928-37.987Zm86.071 0-21.102-36.55h-42.205l-21.102 36.55 21.102 36.551h42.205l21.102-36.551Zm-86.071-149.073 21.722-37.632.206-.364h43.867l21.928 37.986-21.722 37.633-.206.363H260.96l-21.928-37.986Zm86.071 0-21.102-36.55h-42.205l-21.102 36.55 21.102 36.551h42.205l21.102-36.551Zm-86.071-74.536 21.722-37.633.206-.364h43.867l21.928 37.987-21.722 37.632-.206.364H260.96l-21.928-37.986Zm86.071 0-21.102-36.551h-42.205l-21.102 36.551 21.102 36.55h42.205l21.102-36.55Zm-86.071-74.537 21.722-37.632.206-.364h43.867l21.928 37.986-21.722 37.632-.206.364H260.96l-21.928-37.986Zm86.071 0-21.102-36.551h-42.205l-21.102 36.551 21.102 36.55h42.205l21.102-36.55Zm-86.071-74.527 21.722-37.632.206-.364h43.867l21.928 37.986-21.722 37.632-.206.364H260.96l-21.928-37.986Zm86.071 0-21.102-36.55h-42.205l-21.102 36.55 21.102 36.55h42.205l21.102-36.55Zm888.517 708.079 21.72-37.632.21-.364h43.87l21.93 37.986-21.73 37.632-.2.364h-43.87l-21.93-37.986Zm86.06 0-21.1-36.551h-42.2l-21.1 36.551 21.1 36.55h42.2l21.1-36.55Zm-86.06-298.147 21.72-37.632.21-.364h43.87l21.93 37.986-21.73 37.632-.2.364h-43.87l-21.93-37.986Zm86.06 0-21.1-36.55h-42.2l-21.1 36.55 21.1 36.55h42.2l21.1-36.55Zm-86.06-298.147 21.72-37.632.21-.364h43.87l21.93 37.986-21.73 37.633-.2.364h-43.87l-21.93-37.987Zm86.06 0-21.1-36.55h-42.2l-21.1 36.55 21.1 36.551h42.2l21.1-36.551Zm-150.61 633.572 21.72-37.632.21-.364h43.86l21.93 37.986-21.72 37.629-.21.37H1171l-21.93-37.989Zm86.06 0-21.1-36.551h-42.21l-21.1 36.551 21.1 36.549h42.21l21.1-36.549Zm-86.06-74.537 21.72-37.632.21-.364h43.86l21.93 37.986-21.72 37.633-.21.363H1171l-21.93-37.986Zm86.06 0-21.1-36.55h-42.21l-21.1 36.55 21.1 36.551h42.21l21.1-36.551Zm-86.06-149.073 21.72-37.632.21-.364h43.86l21.93 37.986-21.72 37.632-.21.364H1171l-21.93-37.986Zm86.06 0-21.1-36.551h-42.21l-21.1 36.551 21.1 36.55h42.21l21.1-36.55Zm-86.06-149.074 21.72-37.632.21-.363h43.86l21.93 37.986-21.72 37.632-.21.364H1171l-21.93-37.987Zm86.06 0-21.1-36.55h-42.21l-21.1 36.55 21.1 36.551h42.21l21.1-36.551Zm-86.06-149.073 21.72-37.632.21-.364h43.86l21.93 37.986-21.72 37.633-.21.363H1171l-21.93-37.986Zm86.06 0-21.1-36.55h-42.21l-21.1 36.55 21.1 36.551h42.21l21.1-36.551Zm-86.06-149.073 21.72-37.632.21-.364h43.86l21.93 37.986-21.72 37.632-.21.364H1171l-21.93-37.986Zm86.06 0-21.1-36.551h-42.21l-21.1 36.551 21.1 36.55h42.21l21.1-36.55Zm-151.51 559.015 21.72-37.632.2-.364h43.87l21.93 37.986-21.72 37.632-.21.364h-43.87l-21.92-37.986Zm86.07 0-21.1-36.551h-42.21l-21.1 36.551 21.1 36.551h42.21l21.1-36.551Zm-86.07-149.073 21.72-37.632.2-.364h43.87l21.93 37.986-21.72 37.632-.21.364h-43.87l-21.92-37.986Zm86.07 0-21.1-36.551h-42.21l-21.1 36.551 21.1 36.55h42.21l21.1-36.55Zm-86.07-74.537 21.72-37.632.2-.364h43.87l21.93 37.986-21.72 37.632-.21.364h-43.87l-21.92-37.986Zm86.07 0-21.1-36.55h-42.21l-21.1 36.55 21.1 36.55h42.21l21.1-36.55Zm-86.07-74.537 21.72-37.632.2-.364h43.87l21.93 37.987-21.72 37.632-.21.364h-43.87l-21.92-37.987Zm86.07 0-21.1-36.55h-42.21l-21.1 36.55 21.1 36.551h42.21l21.1-36.551Zm-86.07-149.073 21.72-37.632.2-.364h43.87l21.93 37.986-21.72 37.632-.21.364h-43.87l-21.92-37.986Zm86.07 0-21.1-36.55h-42.21l-21.1 36.55 21.1 36.551h42.21l21.1-36.551Zm-86.07-149.073 21.72-37.633.2-.363h43.87l21.93 37.986-21.72 37.632-.21.364h-43.87l-21.92-37.986Zm86.07 0-21.1-36.551h-42.21l-21.1 36.551 21.1 36.55h42.21l21.1-36.55Zm-150.63 633.571 21.72-37.632.21-.364h43.87l21.92 37.986-21.72 37.633-.2.363h-43.87l-21.93-37.986Zm86.07 0-21.1-36.55h-42.21l-21.1 36.55 21.1 36.551h42.21l21.1-36.551Zm-86.07-149.073 21.72-37.632.21-.364h43.87l21.92 37.986-21.72 37.632-.2.364h-43.87l-21.93-37.986Zm86.07 0-21.1-36.551h-42.21l-21.1 36.551 21.1 36.55h42.21l21.1-36.55Zm-86.07-149.074 21.72-37.632.21-.363h43.87l21.92 37.986-21.72 37.632-.2.364h-43.87l-21.93-37.987Zm86.07 0-21.1-36.55h-42.21l-21.1 36.55 21.1 36.551h42.21l21.1-36.551Zm-86.07-223.609 21.72-37.633.21-.364h43.87l21.92 37.987-21.72 37.632-.2.364h-43.87l-21.93-37.986Zm86.07 0-21.1-36.551h-42.21l-21.1 36.551 21.1 36.55h42.21l21.1-36.55Zm-86.07-74.537 21.72-37.632.21-.364h43.87l21.92 37.986-21.72 37.632-.2.364h-43.87l-21.93-37.986Zm86.07 0-21.1-36.551h-42.21l-21.1 36.551 21.1 36.55h42.21l21.1-36.55Zm-86.07-74.527 21.72-37.632.21-.364h43.87l21.92 37.986-21.72 37.632-.2.364h-43.87l-21.93-37.986Zm86.07 0-21.1-36.55h-42.21l-21.1 36.55 21.1 36.55h42.21l21.1-36.55ZM953.61 959.363l21.722-37.632.207-.364h43.871l21.92 37.986-21.72 37.632-.2.364h-43.871l-21.929-37.986Zm86.07 0-21.1-36.551h-42.206l-21.102 36.551 21.102 36.55h42.206l21.1-36.55Zm-86.07-223.61 21.722-37.632.207-.364h43.871l21.92 37.986-21.72 37.632-.2.364h-43.871l-21.929-37.986Zm86.07 0-21.1-36.551h-42.206l-21.102 36.551 21.102 36.55h42.206l21.1-36.55Zm-86.07-74.537 21.722-37.632.207-.364h43.871l21.92 37.986-21.72 37.632-.2.364h-43.871l-21.929-37.986Zm86.07 0-21.1-36.55h-42.206l-21.102 36.55 21.102 36.55h42.206l21.1-36.55Zm-86.07-74.537 21.722-37.632.207-.364h43.871l21.92 37.987-21.72 37.632-.2.364h-43.871l-21.929-37.987Zm86.07 0-21.1-36.55h-42.206l-21.102 36.55 21.102 36.551h42.206l21.1-36.551Zm-86.07-149.073 21.722-37.632.207-.364h43.871l21.92 37.986-21.72 37.632-.2.364h-43.871l-21.929-37.986Zm86.07 0-21.1-36.55h-42.206l-21.102 36.55 21.102 36.551h42.206l21.1-36.551Zm-86.07-74.537 21.722-37.632.207-.364h43.871l21.92 37.986-21.72 37.633-.2.364h-43.871l-21.929-37.987Zm86.07 0-21.1-36.55h-42.206l-21.102 36.55 21.102 36.551h42.206l21.1-36.551Zm-86.07-74.536 21.722-37.633.207-.363h43.871l21.92 37.986-21.72 37.632-.2.364h-43.871l-21.929-37.986Zm86.07 0-21.1-36.551h-42.206l-21.102 36.551 21.102 36.55h42.206l21.1-36.55ZM889.054 847.568l21.722-37.633.207-.363h43.866l21.929 37.986-21.722 37.632-.207.364h-43.866l-21.929-37.986Zm86.072 0-21.103-36.551h-42.204l-21.103 36.551 21.103 36.55h42.204l21.103-36.55Zm-86.072-74.537 21.722-37.632.207-.364h43.866l21.929 37.986-21.722 37.632-.207.364h-43.866l-21.929-37.986Zm86.072 0-21.103-36.551h-42.204l-21.103 36.551 21.103 36.55h42.204l21.103-36.55Zm-86.072-74.537 21.722-37.632.207-.364h43.866l21.929 37.986-21.722 37.632-.207.364h-43.866l-21.929-37.986Zm86.072 0-21.103-36.55h-42.204l-21.103 36.55 21.103 36.551h42.204l21.103-36.551Zm-86.072-74.537 21.722-37.632.207-.363h43.866l21.929 37.986-21.722 37.632-.207.364h-43.866l-21.929-37.987Zm86.072 0-21.103-36.55h-42.204l-21.103 36.55 21.103 36.551h42.204l21.103-36.551Zm-86.072-149.073 21.722-37.632.207-.364h43.866l21.929 37.986-21.722 37.633-.207.363h-43.866l-21.929-37.986Zm86.072 0-21.103-36.55h-42.204l-21.103 36.55 21.103 36.551h42.204l21.103-36.551Zm-86.072-74.536 21.722-37.633.207-.364h43.866l21.929 37.987-21.722 37.632-.207.364h-43.866l-21.929-37.986Zm86.072 0-21.103-36.551h-42.204l-21.103 36.551 21.103 36.55h42.204l21.103-36.55ZM823.604 959.363l21.722-37.632.206-.364h43.866l21.929 37.986-21.722 37.632-.207.364h-43.866l-21.928-37.986Zm86.071 0-21.102-36.551h-42.205l-21.102 36.551 21.102 36.55h42.205l21.102-36.55Zm-86.071-74.537 21.722-37.632.206-.364h43.866l21.929 37.986-21.722 37.632-.207.364h-43.866l-21.928-37.986Zm86.071 0-21.102-36.551h-42.205l-21.102 36.551 21.102 36.551h42.205l21.102-36.551Zm-86.071-74.537 21.722-37.632.206-.364h43.866l21.929 37.987-21.722 37.632-.207.363h-43.866l-21.928-37.986Zm86.071 0-21.102-36.55h-42.205l-21.102 36.55 21.102 36.551h42.205l21.102-36.551Zm-86.071-74.536 21.722-37.632.206-.364h43.866l21.929 37.986-21.722 37.632-.207.364h-43.866l-21.928-37.986Zm86.071 0-21.102-36.551h-42.205l-21.102 36.551 21.102 36.55h42.205l21.102-36.55Zm-86.071-223.61 21.722-37.632.206-.364h43.866l21.929 37.986-21.722 37.632-.207.364h-43.866l-21.928-37.986Zm86.071 0-21.102-36.551h-42.205l-21.102 36.551 21.102 36.55h42.205l21.102-36.55Zm-86.071-74.537 21.722-37.632.206-.364h43.866l21.929 37.986-21.722 37.632-.207.364h-43.866l-21.928-37.986Zm86.071 0-21.102-36.55h-42.205l-21.102 36.55 21.102 36.551h42.205l21.102-36.551Zm-86.071-74.537 21.722-37.632.206-.364h43.866l21.929 37.986-21.722 37.633-.207.364h-43.866l-21.928-37.987Zm86.071 0-21.102-36.55h-42.205l-21.102 36.55 21.102 36.551h42.205l21.102-36.551Zm-86.071-74.536 21.722-37.633.206-.363h43.866l21.929 37.986-21.722 37.632-.207.364h-43.866l-21.928-37.986Zm86.071 0-21.102-36.551h-42.205l-21.102 36.551 21.102 36.55h42.205l21.102-36.55Zm-86.071-74.537 21.722-37.632.206-.364h43.866l21.929 37.986-21.722 37.632-.207.364h-43.866l-21.928-37.986Zm86.071 0-21.102-36.551h-42.205l-21.102 36.551 21.102 36.55h42.205l21.102-36.55ZM759.048 996.641l21.722-37.632.206-.364h43.867l21.928 37.986-21.722 37.629-.206.37h-43.867l-21.928-37.989Zm86.071 0-21.102-36.551h-42.205l-21.102 36.551 21.102 36.549h42.205l21.102-36.549Zm-86.071-74.537 21.722-37.632.206-.364h43.867l21.928 37.986-21.722 37.633-.206.363h-43.867l-21.928-37.986Zm86.071 0-21.102-36.55h-42.205l-21.102 36.55 21.102 36.551h42.205l21.102-36.551Zm-86.071-149.073 21.722-37.632.206-.364h43.867l21.928 37.986-21.722 37.632-.206.364h-43.867l-21.928-37.986Zm86.071 0-21.102-36.551h-42.205l-21.102 36.551 21.102 36.55h42.205l21.102-36.55Zm-86.071-149.074 21.722-37.632.206-.363h43.867l21.928 37.986-21.722 37.632-.206.364h-43.867l-21.928-37.987Zm86.071 0-21.102-36.55h-42.205l-21.102 36.55 21.102 36.551h42.205l21.102-36.551Zm-86.071-74.536 21.722-37.632.206-.364h43.867l21.928 37.986-21.722 37.632-.206.364h-43.867l-21.928-37.986Zm86.071 0-21.102-36.551h-42.205l-21.102 36.551 21.102 36.55h42.205l21.102-36.55Zm-86.071-74.537 21.722-37.632.206-.364h43.867l21.928 37.986-21.722 37.633-.206.363h-43.867l-21.928-37.986Zm86.071 0-21.102-36.55h-42.205l-21.102 36.55 21.102 36.551h42.205l21.102-36.551Zm-86.071-149.073 21.722-37.632.206-.364h43.867l21.928 37.986-21.722 37.632-.206.364h-43.867l-21.928-37.986Zm86.071 0-21.102-36.551h-42.205l-21.102 36.551 21.102 36.55h42.205l21.102-36.55ZM693.607 884.826l21.722-37.632.206-.364h43.867l21.928 37.986-21.722 37.632-.206.364h-43.867l-21.928-37.986Zm86.061 0-21.102-36.551h-42.205l-21.102 36.551 21.102 36.551h42.205l21.102-36.551Zm-86.061-149.073 21.722-37.632.206-.364h43.867l21.928 37.986-21.722 37.632-.206.364h-43.867l-21.928-37.986Zm86.061 0-21.102-36.551h-42.205l-21.102 36.551 21.102 36.55h42.205l21.102-36.55Zm-86.061-149.074 21.722-37.632.206-.364h43.867l21.928 37.987-21.722 37.632-.206.364h-43.867l-21.928-37.987Zm86.061 0-21.102-36.55h-42.205l-21.102 36.55 21.102 36.551h42.205l21.102-36.551Zm-86.061-74.536 21.722-37.632.206-.364h43.867l21.928 37.986-21.722 37.632-.206.364h-43.867l-21.928-37.986Zm86.061 0-21.102-36.551h-42.205l-21.102 36.551 21.102 36.55h42.205l21.102-36.55Zm-86.061-149.074 21.722-37.632.206-.364h43.867l21.928 37.986-21.722 37.633-.206.364h-43.867l-21.928-37.987Zm86.061 0-21.102-36.55h-42.205l-21.102 36.55 21.102 36.551h42.205l21.102-36.551Zm-86.061-74.536 21.722-37.633.206-.363h43.867l21.928 37.986-21.722 37.632-.206.364h-43.867l-21.928-37.986Zm86.061 0-21.102-36.551h-42.205l-21.102 36.551 21.102 36.55h42.205l21.102-36.55Zm-86.061-74.537 21.722-37.632.206-.364h43.867l21.928 37.986-21.722 37.632-.206.364h-43.867l-21.928-37.986Zm86.061 0-21.102-36.551h-42.205l-21.102 36.551 21.102 36.55h42.205l21.102-36.55ZM629.041 847.568l21.722-37.633.207-.363h43.866l21.929 37.986-21.722 37.632-.207.364H650.97l-21.929-37.986Zm86.072 0-21.103-36.551h-42.204l-21.103 36.551 21.103 36.55h42.204l21.103-36.55Zm-86.072-74.537 21.722-37.632.207-.364h43.866l21.929 37.986-21.722 37.632-.207.364H650.97l-21.929-37.986Zm86.072 0L694.01 736.48h-42.204l-21.103 36.551 21.103 36.55h42.204l21.103-36.55Zm-86.072-74.537 21.722-37.632.207-.364h43.866l21.929 37.986-21.722 37.632-.207.364H650.97l-21.929-37.986Zm86.072 0-21.103-36.55h-42.204l-21.103 36.55 21.103 36.551h42.204l21.103-36.551Zm-86.072-74.537 21.722-37.632.207-.363h43.866l21.929 37.986-21.722 37.632-.207.364H650.97l-21.929-37.987Zm86.072 0-21.103-36.55h-42.204l-21.103 36.55 21.103 36.551h42.204l21.103-36.551Zm-86.072-74.536 21.722-37.632.207-.364h43.866l21.929 37.986-21.722 37.632-.207.364H650.97l-21.929-37.986Zm86.072 0L694.01 512.87h-42.204l-21.103 36.551 21.103 36.55h42.204l21.103-36.55Zm-86.072-74.537 21.722-37.632.207-.364h43.866l21.929 37.986-21.722 37.633-.207.363H650.97l-21.929-37.986Zm86.072 0-21.103-36.55h-42.204l-21.103 36.55 21.103 36.551h42.204l21.103-36.551ZM563.601 959.363l21.721-37.632.207-.364h43.866l21.929 37.986-21.722 37.632-.207.364h-43.866l-21.928-37.986Zm86.061 0-21.102-36.551h-42.205l-21.102 36.551 21.102 36.55h42.205l21.102-36.55Zm-86.061-74.537 21.721-37.632.207-.364h43.866l21.929 37.986-21.722 37.632-.207.364h-43.866l-21.928-37.986Zm86.061 0-21.102-36.551h-42.205l-21.102 36.551 21.102 36.551h42.205l21.102-36.551Zm-86.061-74.537 21.721-37.632.207-.364h43.866l21.929 37.987-21.722 37.632-.207.363h-43.866l-21.928-37.986Zm86.061 0-21.102-36.55h-42.205l-21.102 36.55 21.102 36.551h42.205l21.102-36.551Zm-86.061-149.073 21.721-37.632.207-.364h43.866l21.929 37.986-21.722 37.632-.207.364h-43.866l-21.928-37.986Zm86.061 0-21.102-36.55h-42.205l-21.102 36.55 21.102 36.55h42.205l21.102-36.55Zm-86.061-149.073 21.721-37.632.207-.364h43.866l21.929 37.986-21.722 37.632-.207.364h-43.866l-21.928-37.986Zm86.061 0-21.102-36.551h-42.205l-21.102 36.551 21.102 36.55h42.205l21.102-36.55Zm-86.061-74.537 21.721-37.632.207-.364h43.866l21.929 37.986-21.722 37.632-.207.364h-43.866l-21.928-37.986Zm86.061 0-21.102-36.55h-42.205l-21.102 36.55 21.102 36.551h42.205l21.102-36.551Zm-86.061-74.537 21.721-37.632.207-.364h43.866l21.929 37.986-21.722 37.633-.207.364h-43.866l-21.928-37.987Zm86.061 0-21.102-36.55h-42.205l-21.102 36.55 21.102 36.551h42.205l21.102-36.551ZM499.045 996.641l21.722-37.632.206-.364h43.867l21.928 37.986-21.722 37.629-.206.37h-43.867l-21.928-37.989Zm86.061 0-21.102-36.551h-42.205l-21.102 36.551 21.102 36.549h42.205l21.102-36.549Zm-86.061-74.537 21.722-37.632.206-.364h43.867l21.928 37.986-21.722 37.633-.206.363h-43.867l-21.928-37.986Zm86.061 0-21.102-36.55h-42.205l-21.102 36.55 21.102 36.551h42.205l21.102-36.551Zm-86.061-74.536 21.722-37.633.206-.363h43.867l21.928 37.986-21.722 37.632-.206.364h-43.867l-21.928-37.986Zm86.061 0-21.102-36.551h-42.205l-21.102 36.551 21.102 36.55h42.205l21.102-36.55Zm-86.061-74.537 21.722-37.632.206-.364h43.867l21.928 37.986-21.722 37.632-.206.364h-43.867l-21.928-37.986Zm86.061 0-21.102-36.551h-42.205l-21.102 36.551 21.102 36.55h42.205l21.102-36.55Zm-86.061-74.537 21.722-37.632.206-.364h43.867l21.928 37.986-21.722 37.632-.206.364h-43.867l-21.928-37.986Zm86.061 0-21.102-36.55h-42.205l-21.102 36.55 21.102 36.551h42.205l21.102-36.551Zm-86.061-149.073 21.722-37.632.206-.364h43.867l21.928 37.986-21.722 37.632-.206.364h-43.867l-21.928-37.986Zm86.061 0-21.102-36.551h-42.205l-21.102 36.551 21.102 36.55h42.205l21.102-36.55Zm-86.061-74.537 21.722-37.632.206-.364h43.867l21.928 37.986-21.722 37.633-.206.363h-43.867l-21.928-37.986Zm86.061 0-21.102-36.55h-42.205l-21.102 36.55 21.102 36.551h42.205l21.102-36.551Zm-86.061-74.536 21.722-37.633.206-.364h43.867l21.928 37.987-21.722 37.632-.206.364h-43.867l-21.928-37.986Zm86.061 0-21.102-36.551h-42.205l-21.102 36.551 21.102 36.55h42.205l21.102-36.55Zm-86.061-74.537 21.722-37.632.206-.364h43.867l21.928 37.986-21.722 37.632-.206.364h-43.867l-21.928-37.986Zm86.061 0-21.102-36.551h-42.205l-21.102 36.551 21.102 36.55h42.205l21.102-36.55Zm-86.061-74.527 21.722-37.632.206-.364h43.867l21.928 37.986-21.722 37.632-.206.364h-43.867l-21.928-37.986Zm86.061 0-21.102-36.55h-42.205l-21.102 36.55 21.102 36.55h42.205l21.102-36.55ZM433.594 959.363l21.722-37.632.206-.364h43.867l21.928 37.986-21.722 37.632-.206.364h-43.867l-21.928-37.986Zm86.061 0-21.102-36.551h-42.205l-21.102 36.551 21.102 36.55h42.205l21.102-36.55Zm-86.061-74.537 21.722-37.632.206-.364h43.867l21.928 37.986-21.722 37.632-.206.364h-43.867l-21.928-37.986Zm86.061 0-21.102-36.551h-42.205l-21.102 36.551 21.102 36.551h42.205l21.102-36.551Zm-86.061-149.073 21.722-37.632.206-.364h43.867l21.928 37.986-21.722 37.632-.206.364h-43.867l-21.928-37.986Zm86.061 0-21.102-36.551h-42.205l-21.102 36.551 21.102 36.55h42.205l21.102-36.55Zm-86.061-74.537 21.722-37.632.206-.364h43.867l21.928 37.986-21.722 37.632-.206.364h-43.867l-21.928-37.986Zm86.061 0-21.102-36.55h-42.205l-21.102 36.55 21.102 36.55h42.205l21.102-36.55Zm-86.061-74.537 21.722-37.632.206-.364h43.867l21.928 37.987-21.722 37.632-.206.364h-43.867l-21.928-37.987Zm86.061 0-21.102-36.55h-42.205l-21.102 36.55 21.102 36.551h42.205l21.102-36.551Zm-86.061-149.073 21.722-37.632.206-.364h43.867l21.928 37.986-21.722 37.632-.206.364h-43.867l-21.928-37.986Zm86.061 0-21.102-36.55h-42.205l-21.102 36.55 21.102 36.551h42.205l21.102-36.551Zm-86.061-74.537 21.722-37.632.206-.364h43.867l21.928 37.986-21.722 37.633-.206.364h-43.867l-21.928-37.987Zm86.061 0-21.102-36.55h-42.205l-21.102 36.55 21.102 36.551h42.205l21.102-36.551Zm-86.061-74.536 21.722-37.633.206-.363h43.867l21.928 37.986-21.722 37.632-.206.364h-43.867l-21.928-37.986Zm86.061 0-21.102-36.551h-42.205l-21.102 36.551 21.102 36.55h42.205l21.102-36.55Zm-86.061-74.537 21.722-37.632.206-.364h43.867l21.928 37.986-21.722 37.632-.206.364h-43.867l-21.928-37.986Zm86.061 0-21.102-36.551h-42.205l-21.102 36.551 21.102 36.55h42.205l21.102-36.55ZM369.038 996.641l21.722-37.632.207-.364h43.866l21.928 37.986-21.721 37.629-.207.37h-43.866l-21.929-37.989Zm86.062 0-21.103-36.551h-42.204l-21.103 36.551 21.103 36.549h42.204l21.103-36.549Zm-86.062-74.537 21.722-37.632.207-.364h43.866l21.928 37.986-21.721 37.633-.207.363h-43.866l-21.929-37.986Zm86.062 0-21.103-36.55h-42.204l-21.103 36.55 21.103 36.551h42.204l21.103-36.551Zm-86.062-74.536 21.722-37.633.207-.363h43.866l21.928 37.986-21.721 37.632-.207.364h-43.866l-21.929-37.986Zm86.062 0-21.103-36.551h-42.204l-21.103 36.551 21.103 36.55h42.204l21.103-36.55Zm-86.062-149.074 21.722-37.632.207-.364h43.866l21.928 37.986-21.721 37.632-.207.364h-43.866l-21.929-37.986Zm86.062 0-21.103-36.55h-42.204l-21.103 36.55 21.103 36.551h42.204l21.103-36.551Zm-86.062-74.537 21.722-37.632.207-.363h43.866l21.928 37.986-21.721 37.632-.207.364h-43.866l-21.929-37.987Zm86.062 0-21.103-36.55h-42.204l-21.103 36.55 21.103 36.551h42.204l21.103-36.551Zm-86.062-74.536 21.722-37.632.207-.364h43.866l21.928 37.986-21.721 37.632-.207.364h-43.866l-21.929-37.986Zm86.062 0-21.103-36.551h-42.204l-21.103 36.551 21.103 36.55h42.204l21.103-36.55Zm-86.062-74.537 21.722-37.632.207-.364h43.866l21.928 37.986-21.721 37.633-.207.363h-43.866l-21.929-37.986Zm86.062 0-21.103-36.55h-42.204l-21.103 36.55 21.103 36.551h42.204l21.103-36.551Zm-86.062-149.073 21.722-37.632.207-.364h43.866l21.928 37.986-21.721 37.632-.207.364h-43.866l-21.929-37.986Zm86.062 0-21.103-36.551h-42.204l-21.103 36.551 21.103 36.55h42.204l21.103-36.55Zm-86.062-74.527 21.722-37.632.207-.364h43.866l21.928 37.986-21.721 37.632-.207.364h-43.866l-21.929-37.986Zm86.062 0-21.103-36.55h-42.204l-21.103 36.55 21.103 36.55h42.204l21.103-36.55ZM303.588 959.363l21.721-37.632.207-.364h43.866l21.929 37.986-21.722 37.632-.207.364h-43.866l-21.928-37.986Zm86.071 0-21.103-36.551h-42.204l-21.103 36.551 21.103 36.55h42.204l21.103-36.55Zm-86.071-74.537 21.721-37.632.207-.364h43.866l21.929 37.986-21.722 37.632-.207.364h-43.866l-21.928-37.986Zm86.071 0-21.103-36.551h-42.204l-21.103 36.551 21.103 36.551h42.204l21.103-36.551Zm-86.071-74.537 21.721-37.632.207-.364h43.866l21.929 37.987-21.722 37.632-.207.363h-43.866l-21.928-37.986Zm86.071 0-21.103-36.55h-42.204l-21.103 36.55 21.103 36.551h42.204l21.103-36.551Zm-86.071-149.073 21.721-37.632.207-.364h43.866l21.929 37.986-21.722 37.632-.207.364h-43.866l-21.928-37.986Zm86.071 0-21.103-36.55h-42.204l-21.103 36.55 21.103 36.55h42.204l21.103-36.55Zm-86.071-74.537 21.721-37.632.207-.364h43.866l21.929 37.987-21.722 37.632-.207.364h-43.866l-21.928-37.987Zm86.071 0-21.103-36.55h-42.204l-21.103 36.55 21.103 36.551h42.204l21.103-36.551Zm-86.071-74.536 21.721-37.632.207-.364h43.866l21.929 37.986-21.722 37.632-.207.364h-43.866l-21.928-37.986Zm86.071 0-21.103-36.551h-42.204l-21.103 36.551 21.103 36.55h42.204l21.103-36.55Zm-86.071-149.074 21.721-37.632.207-.364h43.866l21.929 37.986-21.722 37.633-.207.364h-43.866l-21.928-37.987Zm86.071 0-21.103-36.55h-42.204l-21.103 36.55 21.103 36.551h42.204l21.103-36.551Zm-86.071-74.536 21.721-37.633.207-.363h43.866l21.929 37.986-21.722 37.632-.207.364h-43.866l-21.928-37.986Zm86.071 0-21.103-36.551h-42.204l-21.103 36.551 21.103 36.55h42.204l21.103-36.55Zm-86.071-74.537 21.721-37.632.207-.364h43.866l21.929 37.986-21.722 37.632-.207.364h-43.866l-21.928-37.986Zm86.071 0-21.103-36.551h-42.204l-21.103 36.551 21.103 36.55h42.204l21.103-36.55ZM239.032 996.641l21.722-37.632.206-.364h43.867l21.928 37.986-21.722 37.629-.206.37H260.96l-21.928-37.989Zm86.071 0-21.102-36.551h-42.205l-21.102 36.551 21.102 36.549h42.205l21.102-36.549Zm-86.071-149.073 21.722-37.633.206-.363h43.867l21.928 37.986-21.722 37.632-.206.364H260.96l-21.928-37.986Zm86.071 0-21.102-36.551h-42.205l-21.102 36.551 21.102 36.55h42.205l21.102-36.55Zm-86.071-74.537 21.722-37.632.206-.364h43.867l21.928 37.986-21.722 37.632-.206.364H260.96l-21.928-37.986Zm86.071 0-21.102-36.551h-42.205l-21.102 36.551 21.102 36.55h42.205l21.102-36.55Zm-86.071-149.074 21.722-37.632.206-.363h43.867l21.928 37.986-21.722 37.632-.206.364H260.96l-21.928-37.987Zm86.071 0-21.102-36.55h-42.205l-21.102 36.55 21.102 36.551h42.205l21.102-36.551Zm-86.071-149.073 21.722-37.632.206-.364h43.867l21.928 37.986-21.722 37.633-.206.363H260.96l-21.928-37.986Zm86.071 0-21.102-36.55h-42.205l-21.102 36.55 21.102 36.551h42.205l21.102-36.551Zm-86.071-74.536 21.722-37.633.206-.364h43.867l21.928 37.987-21.722 37.632-.206.364H260.96l-21.928-37.986Zm86.071 0-21.102-36.551h-42.205l-21.102 36.551 21.102 36.55h42.205l21.102-36.55Zm-86.071-74.537 21.722-37.632.206-.364h43.867l21.928 37.986-21.722 37.632-.206.364H260.96l-21.928-37.986Zm86.071 0-21.102-36.551h-42.205l-21.102 36.551 21.102 36.55h42.205l21.102-36.55Zm-86.071-74.527 21.722-37.632.206-.364h43.867l21.928 37.986-21.722 37.632-.206.364H260.96l-21.928-37.986Zm86.071 0-21.102-36.55h-42.205l-21.102 36.55 21.102 36.55h42.205l21.102-36.55Z"/>
    <path fill="url(#c)" d="M0 61h1440v749H0z"/>
  </g>
  <defs>
    <radialGradient id="c" cx="0" cy="0" r="1" gradientTransform="matrix(0 273.298 -525.434 0 720 536.702)" gradientUnits="userSpaceOnUse">
      <stop stop-color="#075F55" stop-opacity="0"/>
      <stop offset="1" stop-color="#075F55"/>
    </radialGradient>
    <linearGradient id="b" x1="770.189" x2="716.5" y1="176" y2="663" gradientUnits="userSpaceOnUse">
      <stop stop-color="#1BA068"/>
      <stop offset="1" stop-color="#A6D05D"/>
    </linearGradient>
    <clipPath id="a">
      <path fill="#fff" d="M0 61h1440v749H0z"/>
    </clipPath>
  </defs>
</svg>
