<svg xmlns="http://www.w3.org/2000/svg" width="1440" height="715" fill="none" viewBox="0 0 1440 715">
  <g clip-path="url(#a)">
    <g clip-path="url(#b)">
      <path fill="url(#c)" d="m1213.62 565.637 21.72 37.632.21.364h43.87l21.93-37.986-21.73-37.632-.2-.364h-43.87l-21.93 37.986Zm86.06 0-21.1 36.551h-42.2l-21.11-36.551 21.11-36.55h42.2l21.1 36.55Zm-86.06 298.147 21.72 37.632.21.364h43.87l21.93-37.986-21.73-37.632-.2-.364h-43.87l-21.93 37.986Zm86.06 0-21.1 36.55h-42.2l-21.11-36.55 21.11-36.55h42.2l21.1 36.55Zm-86.06 298.146 21.72 37.63.21.37h43.87l21.93-37.99-21.73-37.63-.2-.37h-43.87l-21.93 37.99Zm86.06 0-21.1 36.55h-42.2l-21.11-36.55 21.11-36.55h42.2l21.1 36.55Zm-150.61-633.571 21.72 37.632.21.364h43.86l21.93-37.986-21.72-37.632-.21-.364H1171l-21.93 37.986Zm86.06 0-21.1 36.551h-42.21l-21.1-36.551 21.1-36.55h42.21l21.1 36.55Zm-86.06 74.537 21.72 37.632.21.364h43.86l21.93-37.986-21.72-37.633-.21-.363H1171l-21.93 37.986Zm86.06 0-21.1 36.55h-42.21l-21.1-36.55 21.1-36.551h42.21l21.1 36.551Zm-86.06 149.073 21.72 37.632.21.364h43.86l21.93-37.986-21.72-37.632-.21-.364H1171l-21.93 37.986Zm86.06 0-21.1 36.551h-42.21l-21.1-36.551 21.1-36.55h42.21l21.1 36.55Zm-86.06 149.074 21.72 37.632.21.363h43.86l21.93-37.986-21.72-37.632-.21-.364H1171l-21.93 37.987Zm86.06 0-21.1 36.55h-42.21l-21.1-36.55 21.1-36.551h42.21l21.1 36.551Zm-86.06 149.077 21.72 37.63.21.36h43.86l21.93-37.98-21.72-37.64-.21-.36H1171l-21.93 37.99Zm86.06 0-21.1 36.55h-42.21l-21.1-36.55 21.1-36.55h42.21l21.1 36.55Zm-86.06 149.07 21.72 37.63.21.37h43.86l21.93-37.99-21.72-37.63-.21-.37H1171l-21.93 37.99Zm86.06 0-21.1 36.55h-42.21l-21.1-36.55 21.1-36.55h42.21l21.1 36.55Zm-151.51-559.016 21.72 37.632.2.364h43.87l21.93-37.986-21.72-37.632-.21-.364h-43.87l-21.92 37.986Zm86.07 0-21.1 36.551h-42.21l-21.1-36.551 21.1-36.551h42.21l21.1 36.551Zm-86.07 149.073 21.72 37.632.2.364h43.87l21.93-37.986-21.72-37.632-.21-.364h-43.87l-21.92 37.986Zm86.07 0-21.1 36.551h-42.21l-21.1-36.551 21.1-36.55h42.21l21.1 36.55Zm-86.07 74.537 21.72 37.632.2.364h43.87l21.93-37.986-21.72-37.632-.21-.364h-43.87l-21.92 37.986Zm86.07 0-21.1 36.55h-42.21l-21.1-36.55 21.1-36.55h42.21l21.1 36.55Zm-86.07 74.537 21.72 37.632.2.364h43.87l21.93-37.987-21.72-37.632-.21-.364h-43.87l-21.92 37.987Zm86.07 0-21.1 36.55h-42.21l-21.1-36.55 21.1-36.551h42.21l21.1 36.551Zm-86.07 149.069 21.72 37.64.2.36h43.87l21.93-37.99-21.72-37.63-.21-.36h-43.87l-21.92 37.98Zm86.07 0-21.1 36.55h-42.21l-21.1-36.55 21.1-36.55h42.21l21.1 36.55Zm-86.07 149.08 21.72 37.63.2.36h43.87l21.93-37.98-21.72-37.63-.21-.37h-43.87l-21.92 37.99Zm86.07 0-21.1 36.55h-42.21l-21.1-36.55 21.1-36.55h42.21l21.1 36.55Zm-150.63-633.574 21.72 37.632.21.364h43.87l21.92-37.986-21.72-37.633-.2-.363h-43.87l-21.93 37.986Zm86.07 0-21.1 36.55h-42.21l-21.1-36.55 21.1-36.551h42.21l21.1 36.551Zm-86.07 149.073 21.72 37.632.21.364h43.87l21.92-37.986-21.72-37.632-.2-.364h-43.87l-21.93 37.986Zm86.07 0-21.1 36.551h-42.21l-21.1-36.551 21.1-36.55h42.21l21.1 36.55Zm-86.07 149.074 21.72 37.632.21.363h43.87l21.92-37.986-21.72-37.632-.2-.364h-43.87l-21.93 37.987Zm86.07 0-21.1 36.55h-42.21l-21.1-36.55 21.1-36.551h42.21l21.1 36.551Zm-86.07 223.607 21.72 37.63.21.37h43.87l21.92-37.99-21.72-37.63-.2-.36h-43.87l-21.93 37.98Zm86.07 0-21.1 36.55h-42.21l-21.1-36.55 21.1-36.55h42.21l21.1 36.55Zm-86.07 74.54 21.72 37.63.21.37h43.87l21.92-37.99-21.72-37.63-.2-.37h-43.87l-21.93 37.99Zm86.07 0-21.1 36.55h-42.21l-21.1-36.55 21.1-36.55h42.21l21.1 36.55Zm-86.07 74.53 21.72 37.63.21.36h43.87l21.92-37.98-21.72-37.64-.2-.36h-43.87l-21.93 37.99Zm86.07 0-21.1 36.55h-42.21l-21.1-36.55 21.1-36.55h42.21l21.1 36.55ZM953.61 565.637l21.722 37.632.206.364h43.862l21.93-37.986-21.72-37.632-.21-.364h-43.862l-21.928 37.986Zm86.07 0-21.1 36.551h-42.206l-21.102-36.551 21.102-36.55h42.206l21.1 36.55Zm-86.07 223.61 21.722 37.632.206.364h43.862l21.93-37.986-21.72-37.632-.21-.364h-43.862l-21.928 37.986Zm86.07 0-21.1 36.551h-42.206l-21.102-36.551 21.102-36.55h42.206l21.1 36.55Zm-86.07 74.537 21.722 37.632.206.364h43.862l21.93-37.986-21.72-37.632-.21-.364h-43.862l-21.928 37.986Zm86.07 0-21.1 36.55h-42.206l-21.102-36.55 21.102-36.55h42.206l21.1 36.55Zm-86.07 74.537 21.722 37.632.206.364h43.862l21.93-37.987-21.72-37.632-.21-.364h-43.862l-21.928 37.987Zm86.07 0-21.1 36.55h-42.206l-21.102-36.55 21.102-36.551h42.206l21.1 36.551Zm-86.07 149.069 21.722 37.64.206.36h43.862l21.93-37.99-21.72-37.63-.21-.36h-43.862l-21.928 37.98Zm86.07 0-21.1 36.55h-42.206l-21.102-36.55 21.102-36.55h42.206l21.1 36.55Zm-86.07 74.54 21.722 37.63.206.37h43.862l21.93-37.99-21.72-37.63-.21-.37h-43.862l-21.928 37.99Zm86.07 0-21.1 36.55h-42.206l-21.102-36.55 21.102-36.55h42.206l21.1 36.55Zm-86.07 74.54 21.722 37.63.206.36h43.862l21.93-37.98-21.72-37.63-.21-.37h-43.862l-21.928 37.99Zm86.07 0-21.1 36.55h-42.206l-21.102-36.55 21.102-36.55h42.206l21.1 36.55ZM889.054 677.432l21.722 37.633.206.363h43.867l21.928-37.986-21.722-37.632-.206-.364h-43.867l-21.928 37.986Zm86.071 0-21.102 36.551h-42.205l-21.102-36.551 21.102-36.55h42.205l21.102 36.55Zm-86.071 74.537 21.722 37.632.206.364h43.867l21.928-37.986-21.722-37.632-.206-.364h-43.867l-21.928 37.986Zm86.071 0-21.102 36.551h-42.205l-21.102-36.551 21.102-36.55h42.205l21.102 36.55Zm-86.071 74.537 21.722 37.632.206.364h43.867l21.928-37.986-21.722-37.632-.206-.364h-43.867l-21.928 37.986Zm86.071 0-21.102 36.55h-42.205l-21.102-36.55 21.102-36.551h42.205l21.102 36.551Zm-86.071 74.537 21.722 37.632.206.363h43.867l21.928-37.986-21.722-37.632-.206-.364h-43.867l-21.928 37.987Zm86.071 0-21.102 36.55h-42.205l-21.102-36.55 21.102-36.551h42.205l21.102 36.551Zm-86.071 149.077 21.722 37.63.206.36h43.867l21.928-37.98-21.722-37.64-.206-.36h-43.867l-21.928 37.99Zm86.071 0-21.102 36.55h-42.205l-21.102-36.55 21.102-36.55h42.205l21.102 36.55Zm-86.071 74.53 21.722 37.63.206.37h43.867l21.928-37.99-21.722-37.63-.206-.36h-43.867l-21.928 37.98Zm86.071 0-21.102 36.55h-42.205l-21.102-36.55 21.102-36.55h42.205l21.102 36.55ZM823.603 565.637l21.722 37.632.207.364h43.866l21.928-37.986-21.721-37.632-.207-.364h-43.866l-21.929 37.986Zm86.071 0-21.102 36.551h-42.205l-21.102-36.551 21.102-36.55h42.205l21.102 36.55Zm-86.071 74.537 21.722 37.632.207.364h43.866l21.928-37.986-21.721-37.632-.207-.364h-43.866l-21.929 37.986Zm86.071 0-21.102 36.551h-42.205l-21.102-36.551 21.102-36.551h42.205l21.102 36.551Zm-86.071 74.537 21.722 37.632.207.364h43.866l21.928-37.987-21.721-37.632-.207-.363h-43.866l-21.929 37.986Zm86.071 0-21.102 36.55h-42.205l-21.102-36.55 21.102-36.551h42.205l21.102 36.551Zm-86.071 74.536 21.722 37.632.207.364h43.866l21.928-37.986-21.721-37.632-.207-.364h-43.866l-21.929 37.986Zm86.071 0-21.102 36.551h-42.205l-21.102-36.551 21.102-36.55h42.205l21.102 36.55Zm-86.071 223.613 21.722 37.63.207.36h43.866l21.928-37.98-21.721-37.635-.207-.364h-43.866l-21.929 37.989Zm86.071 0-21.102 36.55h-42.205l-21.102-36.55 21.102-36.553h42.205l21.102 36.553Zm-86.071 74.53 21.722 37.64.207.36h43.866l21.928-37.99-21.721-37.63-.207-.36h-43.866l-21.929 37.98Zm86.071 0-21.102 36.55h-42.205l-21.102-36.55 21.102-36.55h42.205l21.102 36.55Zm-86.071 74.54 21.722 37.63.207.37h43.866l21.928-37.99-21.721-37.63-.207-.37h-43.866l-21.929 37.99Zm86.071 0-21.102 36.55h-42.205l-21.102-36.55 21.102-36.55h42.205l21.102 36.55Zm-86.071 74.54 21.722 37.63.207.36h43.866l21.928-37.98-21.721-37.63-.207-.37h-43.866l-21.929 37.99Zm86.071 0-21.102 36.55h-42.205l-21.102-36.55 21.102-36.55h42.205l21.102 36.55ZM823.603 1311l21.722 37.64.207.36h43.866l21.928-37.99-21.721-37.63-.207-.36h-43.866L823.603 1311Zm86.071 0-21.102 36.55h-42.205L825.265 1311l21.102-36.55h42.205l21.102 36.55ZM759.047 528.359l21.722 37.632.207.364h43.866l21.929-37.986-21.722-37.632-.207-.364h-43.866l-21.929 37.986Zm86.072 0-21.103 36.551h-42.204l-21.103-36.551 21.103-36.55h42.204l21.103 36.55Zm-86.072 74.537 21.722 37.632.207.364h43.866l21.929-37.986-21.722-37.633-.207-.363h-43.866l-21.929 37.986Zm86.072 0-21.103 36.55h-42.204l-21.103-36.55 21.103-36.551h42.204l21.103 36.551Zm-86.072 149.073 21.722 37.632.207.364h43.866l21.929-37.986-21.722-37.632-.207-.364h-43.866l-21.929 37.986Zm86.072 0-21.103 36.551h-42.204l-21.103-36.551 21.103-36.55h42.204l21.103 36.55Zm-86.072 149.074 21.722 37.632.207.363h43.866l21.929-37.986-21.722-37.632-.207-.364h-43.866l-21.929 37.987Zm86.072 0-21.103 36.55h-42.204l-21.103-36.55 21.103-36.551h42.204l21.103 36.551Zm-86.072 74.536 21.722 37.631.207.37h43.866l21.929-37.991-21.722-37.632-.207-.364h-43.866l-21.929 37.986Zm86.072 0-21.103 36.551h-42.204l-21.103-36.551 21.103-36.55h42.204l21.103 36.55Zm-86.072 74.541 21.722 37.63.207.36h43.866l21.929-37.98-21.722-37.64-.207-.36h-43.866l-21.929 37.99Zm86.072 0-21.103 36.55h-42.204l-21.103-36.55 21.103-36.55h42.204l21.103 36.55Zm-86.072 149.07 21.722 37.63.207.37h43.866l21.929-37.99-21.722-37.63-.207-.37h-43.866l-21.929 37.99Zm86.072 0-21.103 36.55h-42.204l-21.103-36.55 21.103-36.55h42.204l21.103 36.55ZM693.607 640.174l21.721 37.632.207.364h43.866l21.929-37.986-21.722-37.632-.207-.364h-43.866l-21.928 37.986Zm86.061 0-21.102 36.551h-42.205l-21.102-36.551 21.102-36.551h42.205l21.102 36.551Zm-86.061 149.073 21.721 37.632.207.364h43.866l21.929-37.986-21.722-37.632-.207-.364h-43.866l-21.928 37.986Zm86.061 0-21.102 36.551h-42.205l-21.102-36.551 21.102-36.55h42.205l21.102 36.55Zm-86.061 149.074 21.721 37.632.207.364h43.866l21.929-37.987-21.722-37.632-.207-.364h-43.866l-21.928 37.987Zm86.061 0-21.102 36.55h-42.205l-21.102-36.55 21.102-36.551h42.205l21.102 36.551Zm-86.061 74.539 21.721 37.63.207.36h43.866l21.929-37.98-21.722-37.635-.207-.364h-43.866l-21.928 37.989Zm86.061 0-21.102 36.55h-42.205l-21.102-36.55 21.102-36.553h42.205l21.102 36.553Zm-86.061 149.07 21.721 37.63.207.37h43.866l21.929-37.99-21.722-37.63-.207-.37h-43.866l-21.928 37.99Zm86.061 0-21.102 36.55h-42.205l-21.102-36.55 21.102-36.55h42.205l21.102 36.55Zm-86.061 74.54 21.721 37.63.207.36h43.866l21.929-37.98-21.722-37.63-.207-.37h-43.866l-21.928 37.99Zm86.061 0-21.102 36.55h-42.205l-21.102-36.55 21.102-36.55h42.205l21.102 36.55ZM693.607 1311l21.721 37.64.207.36h43.866l21.929-37.99-21.722-37.63-.207-.36h-43.866L693.607 1311Zm86.061 0-21.102 36.55h-42.205L695.259 1311l21.102-36.55h42.205l21.102 36.55ZM629.041 677.432l21.722 37.633.206.363h43.867l21.928-37.986-21.722-37.632-.206-.364h-43.867l-21.928 37.986Zm86.071 0-21.102 36.551h-42.205l-21.102-36.551 21.102-36.55h42.205l21.102 36.55Zm-86.071 74.537 21.722 37.632.206.364h43.867l21.928-37.986-21.722-37.632-.206-.364h-43.867l-21.928 37.986Zm86.071 0L694.01 788.52h-42.205l-21.102-36.551 21.102-36.55h42.205l21.102 36.55Zm-86.071 74.537 21.722 37.632.206.364h43.867l21.928-37.986-21.722-37.632-.206-.364h-43.867l-21.928 37.986Zm86.071 0-21.102 36.55h-42.205l-21.102-36.55 21.102-36.551h42.205l21.102 36.551Zm-86.071 74.537 21.722 37.632.206.363h43.867l21.928-37.986-21.722-37.632-.206-.364h-43.867l-21.928 37.987Zm86.071 0-21.102 36.55h-42.205l-21.102-36.55 21.102-36.551h42.205l21.102 36.551Zm-86.071 74.536 21.722 37.631.206.37h43.867l21.928-37.991-21.722-37.632-.206-.364h-43.867l-21.928 37.986Zm86.071 0-21.102 36.551h-42.205l-21.102-36.551 21.102-36.55h42.205l21.102 36.55Zm-86.071 74.541 21.722 37.63.206.36h43.867l21.928-37.98-21.722-37.64-.206-.36h-43.867l-21.928 37.99Zm86.071 0-21.102 36.55h-42.205l-21.102-36.55 21.102-36.55h42.205l21.102 36.55ZM563.6 565.637l21.722 37.632.206.364h43.867l21.928-37.986-21.722-37.632-.206-.364h-43.867L563.6 565.637Zm86.061 0-21.102 36.551h-42.205l-21.102-36.551 21.102-36.55h42.205l21.102 36.55ZM563.6 640.174l21.722 37.632.206.364h43.867l21.928-37.986-21.722-37.632-.206-.364h-43.867L563.6 640.174Zm86.061 0-21.102 36.551h-42.205l-21.102-36.551 21.102-36.551h42.205l21.102 36.551ZM563.6 714.711l21.722 37.632.206.364h43.867l21.928-37.987-21.722-37.632-.206-.363h-43.867L563.6 714.711Zm86.061 0-21.102 36.55h-42.205l-21.102-36.55 21.102-36.551h42.205l21.102 36.551ZM563.6 863.784l21.722 37.632.206.364h43.867l21.928-37.986-21.722-37.632-.206-.364h-43.867L563.6 863.784Zm86.061 0-21.102 36.55h-42.205l-21.102-36.55 21.102-36.55h42.205l21.102 36.55ZM563.6 1012.86l21.722 37.63.206.36h43.867l21.928-37.98-21.722-37.635-.206-.364h-43.867L563.6 1012.86Zm86.061 0-21.102 36.55h-42.205l-21.102-36.55 21.102-36.553h42.205l21.102 36.553Zm-86.061 74.53 21.722 37.64.206.36h43.867l21.928-37.99-21.722-37.63-.206-.36h-43.867l-21.928 37.98Zm86.061 0-21.102 36.55h-42.205l-21.102-36.55 21.102-36.55h42.205l21.102 36.55Zm-86.061 74.54 21.722 37.63.206.37h43.867l21.928-37.99-21.722-37.63-.206-.37h-43.867l-21.928 37.99Zm86.061 0-21.102 36.55h-42.205l-21.102-36.55 21.102-36.55h42.205l21.102 36.55ZM499.044 528.359l21.722 37.632.207.364h43.866l21.928-37.986-21.721-37.632-.207-.364h-43.866l-21.929 37.986Zm86.062 0-21.103 36.551h-42.204l-21.103-36.551 21.103-36.55h42.204l21.103 36.55Zm-86.062 74.537 21.722 37.632.207.364h43.866l21.928-37.986-21.721-37.633-.207-.363h-43.866l-21.929 37.986Zm86.062 0-21.103 36.55h-42.204l-21.103-36.55 21.103-36.551h42.204l21.103 36.551Zm-86.062 74.536 21.722 37.633.207.363h43.866l21.928-37.986-21.721-37.632-.207-.364h-43.866l-21.929 37.986Zm86.062 0-21.103 36.551h-42.204l-21.103-36.551 21.103-36.55h42.204l21.103 36.55Zm-86.062 74.537 21.722 37.632.207.364h43.866l21.928-37.986-21.721-37.632-.207-.364h-43.866l-21.929 37.986Zm86.062 0-21.103 36.551h-42.204l-21.103-36.551 21.103-36.55h42.204l21.103 36.55Zm-86.062 74.537 21.722 37.632.207.364h43.866l21.928-37.986-21.721-37.632-.207-.364h-43.866l-21.929 37.986Zm86.062 0-21.103 36.55h-42.204l-21.103-36.55 21.103-36.551h42.204l21.103 36.551Zm-86.062 149.073 21.722 37.631.207.37h43.866l21.928-37.991-21.721-37.632-.207-.364h-43.866l-21.929 37.986Zm86.062 0-21.103 36.551h-42.204l-21.103-36.551 21.103-36.55h42.204l21.103 36.55Zm-86.062 74.541 21.722 37.63.207.36h43.866l21.928-37.98-21.721-37.64-.207-.36h-43.866l-21.929 37.99Zm86.062 0-21.103 36.55h-42.204l-21.103-36.55 21.103-36.55h42.204l21.103 36.55Zm-86.062 74.53 21.722 37.63.207.37h43.866l21.928-37.99-21.721-37.63-.207-.36h-43.866l-21.929 37.98Zm86.062 0-21.103 36.55h-42.204l-21.103-36.55 21.103-36.55h42.204l21.103 36.55Zm-86.062 74.54 21.722 37.63.207.37h43.866l21.928-37.99-21.721-37.63-.207-.37h-43.866l-21.929 37.99Zm86.062 0-21.103 36.55h-42.204l-21.103-36.55 21.103-36.55h42.204l21.103 36.55Zm-86.062 74.53 21.722 37.63.207.36h43.866l21.928-37.98-21.721-37.64-.207-.36h-43.866l-21.929 37.99Zm86.062 0-21.103 36.55h-42.204l-21.103-36.55 21.103-36.55h42.204l21.103 36.55ZM433.594 565.637l21.721 37.632.207.364h43.866l21.929-37.986-21.722-37.632-.207-.364h-43.866l-21.928 37.986Zm86.061 0-21.102 36.551h-42.205l-21.102-36.551 21.102-36.55h42.205l21.102 36.55Zm-86.061 74.537 21.721 37.632.207.364h43.866l21.929-37.986-21.722-37.632-.207-.364h-43.866l-21.928 37.986Zm86.061 0-21.102 36.551h-42.205l-21.102-36.551 21.102-36.551h42.205l21.102 36.551Zm-86.061 149.073 21.721 37.632.207.364h43.866l21.929-37.986-21.722-37.632-.207-.364h-43.866l-21.928 37.986Zm86.061 0-21.102 36.551h-42.205l-21.102-36.551 21.102-36.55h42.205l21.102 36.55Zm-86.061 74.537 21.721 37.632.207.364h43.866l21.929-37.986-21.722-37.632-.207-.364h-43.866l-21.928 37.986Zm86.061 0-21.102 36.55h-42.205l-21.102-36.55 21.102-36.55h42.205l21.102 36.55Zm-86.061 74.537 21.721 37.632.207.364h43.866l21.929-37.987-21.722-37.632-.207-.364h-43.866l-21.928 37.987Zm86.061 0-21.102 36.55h-42.205l-21.102-36.55 21.102-36.551h42.205l21.102 36.551Zm-86.061 149.069 21.721 37.64.207.36h43.866l21.929-37.99-21.722-37.63-.207-.36h-43.866l-21.928 37.98Zm86.061 0-21.102 36.55h-42.205l-21.102-36.55 21.102-36.55h42.205l21.102 36.55Zm-86.061 74.54 21.721 37.63.207.37h43.866l21.929-37.99-21.722-37.63-.207-.37h-43.866l-21.928 37.99Zm86.061 0-21.102 36.55h-42.205l-21.102-36.55 21.102-36.55h42.205l21.102 36.55Zm-86.061 74.54 21.721 37.63.207.36h43.866l21.929-37.98-21.722-37.63-.207-.37h-43.866l-21.928 37.99Zm86.061 0-21.102 36.55h-42.205l-21.102-36.55 21.102-36.55h42.205l21.102 36.55ZM433.594 1311l21.721 37.64.207.36h43.866l21.929-37.99-21.722-37.63-.207-.36h-43.866L433.594 1311Zm86.061 0-21.102 36.55h-42.205L435.246 1311l21.102-36.55h42.205l21.102 36.55ZM369.038 528.359l21.722 37.632.206.364h43.867l21.928-37.986-21.722-37.632-.206-.364h-43.867l-21.928 37.986Zm86.061 0-21.102 36.551h-42.205l-21.102-36.551 21.102-36.55h42.205l21.102 36.55Zm-86.061 74.537 21.722 37.632.206.364h43.867l21.928-37.986-21.722-37.633-.206-.363h-43.867l-21.928 37.986Zm86.061 0-21.102 36.55h-42.205l-21.102-36.55 21.102-36.551h42.205l21.102 36.551Zm-86.061 74.536 21.722 37.633.206.363h43.867l21.928-37.986-21.722-37.632-.206-.364h-43.867l-21.928 37.986Zm86.061 0-21.102 36.551h-42.205l-21.102-36.551 21.102-36.55h42.205l21.102 36.55Zm-86.061 149.074 21.722 37.632.206.364h43.867l21.928-37.986-21.722-37.632-.206-.364h-43.867l-21.928 37.986Zm86.061 0-21.102 36.55h-42.205l-21.102-36.55 21.102-36.551h42.205l21.102 36.551Zm-86.061 74.537 21.722 37.632.206.363h43.867l21.928-37.986-21.722-37.632-.206-.364h-43.867l-21.928 37.987Zm86.061 0-21.102 36.55h-42.205l-21.102-36.55 21.102-36.551h42.205l21.102 36.551Zm-86.061 74.536 21.722 37.631.206.37h43.867l21.928-37.991-21.722-37.632-.206-.364h-43.867l-21.928 37.986Zm86.061 0-21.102 36.551h-42.205l-21.102-36.551 21.102-36.55h42.205l21.102 36.55Zm-86.061 74.541 21.722 37.63.206.36h43.867l21.928-37.98-21.722-37.64-.206-.36h-43.867l-21.928 37.99Zm86.061 0-21.102 36.55h-42.205l-21.102-36.55 21.102-36.55h42.205l21.102 36.55Zm-86.061 149.07 21.722 37.63.206.37h43.867l21.928-37.99-21.722-37.63-.206-.37h-43.867l-21.928 37.99Zm86.061 0-21.102 36.55h-42.205l-21.102-36.55 21.102-36.55h42.205l21.102 36.55Zm-86.061 74.53 21.722 37.63.206.36h43.867l21.928-37.98-21.722-37.64-.206-.36h-43.867l-21.928 37.99Zm86.061 0-21.102 36.55h-42.205l-21.102-36.55 21.102-36.55h42.205l21.102 36.55ZM303.587 565.637l21.722 37.632.206.364h43.867l21.928-37.986-21.722-37.632-.206-.364h-43.867l-21.928 37.986Zm86.071 0-21.102 36.551h-42.205l-21.102-36.551 21.102-36.55h42.205l21.102 36.55Zm-86.071 74.537 21.722 37.632.206.364h43.867l21.928-37.986-21.722-37.632-.206-.364h-43.867l-21.928 37.986Zm86.071 0-21.102 36.551h-42.205l-21.102-36.551 21.102-36.551h42.205l21.102 36.551Zm-86.071 74.537 21.722 37.632.206.364h43.867l21.928-37.987-21.722-37.632-.206-.363h-43.867l-21.928 37.986Zm86.071 0-21.102 36.55h-42.205l-21.102-36.55 21.102-36.551h42.205l21.102 36.551Zm-86.071 149.073 21.722 37.632.206.364h43.867l21.928-37.986-21.722-37.632-.206-.364h-43.867l-21.928 37.986Zm86.071 0-21.102 36.55h-42.205l-21.102-36.55 21.102-36.55h42.205l21.102 36.55Zm-86.071 74.537 21.722 37.632.206.364h43.867l21.928-37.987-21.722-37.632-.206-.364h-43.867l-21.928 37.987Zm86.071 0-21.102 36.55h-42.205l-21.102-36.55 21.102-36.551h42.205l21.102 36.551Zm-86.071 74.539 21.722 37.63.206.36h43.867l21.928-37.98-21.722-37.635-.206-.364h-43.867l-21.928 37.989Zm86.071 0-21.102 36.55h-42.205l-21.102-36.55 21.102-36.553h42.205l21.102 36.553Zm-86.071 149.07 21.722 37.63.206.37h43.867l21.928-37.99-21.722-37.63-.206-.37h-43.867l-21.928 37.99Zm86.071 0-21.102 36.55h-42.205l-21.102-36.55 21.102-36.55h42.205l21.102 36.55Zm-86.071 74.54 21.722 37.63.206.36h43.867l21.928-37.98-21.722-37.63-.206-.37h-43.867l-21.928 37.99Zm86.071 0-21.102 36.55h-42.205l-21.102-36.55 21.102-36.55h42.205l21.102 36.55ZM303.587 1311l21.722 37.64.206.36h43.867l21.928-37.99-21.722-37.63-.206-.36h-43.867L303.587 1311Zm86.071 0-21.102 36.55h-42.205L305.249 1311l21.102-36.55h42.205l21.102 36.55ZM239.031 528.359l21.722 37.632.207.364h43.866l21.928-37.986-21.721-37.632-.207-.364H260.96l-21.929 37.986Zm86.071 0L304 564.91h-42.205l-21.102-36.551 21.102-36.55H304l21.102 36.55Zm-86.071 149.073 21.722 37.633.207.363h43.866l21.928-37.986-21.721-37.632-.207-.364H260.96l-21.929 37.986Zm86.071 0L304 713.983h-42.205l-21.102-36.551 21.102-36.55H304l21.102 36.55Zm-86.071 74.537 21.722 37.632.207.364h43.866l21.928-37.986-21.721-37.632-.207-.364H260.96l-21.929 37.986Zm86.071 0L304 788.52h-42.205l-21.102-36.551 21.102-36.55H304l21.102 36.55Zm-86.071 149.074 21.722 37.632.207.363h43.866l21.928-37.986-21.721-37.632-.207-.364H260.96l-21.929 37.987Zm86.071 0L304 937.593h-42.205l-21.102-36.55 21.102-36.551H304l21.102 36.551Zm-86.071 149.077 21.722 37.63.207.36h43.866l21.928-37.98-21.721-37.64-.207-.36H260.96l-21.929 37.99Zm86.071 0L304 1086.67h-42.205l-21.102-36.55 21.102-36.55H304l21.102 36.55Zm-86.071 74.53 21.722 37.63.207.37h43.866l21.928-37.99-21.721-37.63-.207-.36H260.96l-21.929 37.98Zm86.071 0L304 1161.2h-42.205l-21.102-36.55 21.102-36.55H304l21.102 36.55Zm-86.071 74.54 21.722 37.63.207.37h43.866l21.928-37.99-21.721-37.63-.207-.37H260.96l-21.929 37.99Zm86.071 0L304 1235.74h-42.205l-21.102-36.55 21.102-36.55H304l21.102 36.55Zm-86.071 74.53 21.722 37.63.207.36h43.866l21.928-37.98-21.721-37.64-.207-.36H260.96l-21.929 37.99Zm86.071 0L304 1310.27h-42.205l-21.102-36.55 21.102-36.55H304l21.102 36.55Zm888.518-708.083 21.72 37.632.21.364h43.87l21.93-37.986-21.73-37.632-.2-.364h-43.87l-21.93 37.986Zm86.06 0-21.1 36.551h-42.2l-21.11-36.551 21.11-36.55h42.2l21.1 36.55Zm-86.06 298.147 21.72 37.632.21.364h43.87l21.93-37.986-21.73-37.632-.2-.364h-43.87l-21.93 37.986Zm86.06 0-21.1 36.55h-42.2l-21.11-36.55 21.11-36.55h42.2l21.1 36.55Zm-86.06 298.146 21.72 37.63.21.37h43.87l21.93-37.99-21.73-37.63-.2-.37h-43.87l-21.93 37.99Zm86.06 0-21.1 36.55h-42.2l-21.11-36.55 21.11-36.55h42.2l21.1 36.55Zm-150.61-633.571 21.72 37.632.21.364h43.86l21.93-37.986-21.72-37.632-.21-.364H1171l-21.93 37.986Zm86.06 0-21.1 36.551h-42.21l-21.1-36.551 21.1-36.55h42.21l21.1 36.55Zm-86.06 74.537 21.72 37.632.21.364h43.86l21.93-37.986-21.72-37.633-.21-.363H1171l-21.93 37.986Zm86.06 0-21.1 36.55h-42.21l-21.1-36.55 21.1-36.551h42.21l21.1 36.551Zm-86.06 149.073 21.72 37.632.21.364h43.86l21.93-37.986-21.72-37.632-.21-.364H1171l-21.93 37.986Zm86.06 0-21.1 36.551h-42.21l-21.1-36.551 21.1-36.55h42.21l21.1 36.55Zm-86.06 149.074 21.72 37.632.21.363h43.86l21.93-37.986-21.72-37.632-.21-.364H1171l-21.93 37.987Zm86.06 0-21.1 36.55h-42.21l-21.1-36.55 21.1-36.551h42.21l21.1 36.551Zm-86.06 149.077 21.72 37.63.21.36h43.86l21.93-37.98-21.72-37.64-.21-.36H1171l-21.93 37.99Zm86.06 0-21.1 36.55h-42.21l-21.1-36.55 21.1-36.55h42.21l21.1 36.55Zm-86.06 149.07 21.72 37.63.21.37h43.86l21.93-37.99-21.72-37.63-.21-.37H1171l-21.93 37.99Zm86.06 0-21.1 36.55h-42.21l-21.1-36.55 21.1-36.55h42.21l21.1 36.55Zm-151.51-559.016 21.72 37.632.2.364h43.87l21.93-37.986-21.72-37.632-.21-.364h-43.87l-21.92 37.986Zm86.07 0-21.1 36.551h-42.21l-21.1-36.551 21.1-36.551h42.21l21.1 36.551Zm-86.07 149.073 21.72 37.632.2.364h43.87l21.93-37.986-21.72-37.632-.21-.364h-43.87l-21.92 37.986Zm86.07 0-21.1 36.551h-42.21l-21.1-36.551 21.1-36.55h42.21l21.1 36.55Zm-86.07 74.537 21.72 37.632.2.364h43.87l21.93-37.986-21.72-37.632-.21-.364h-43.87l-21.92 37.986Zm86.07 0-21.1 36.55h-42.21l-21.1-36.55 21.1-36.55h42.21l21.1 36.55Zm-86.07 74.537 21.72 37.632.2.364h43.87l21.93-37.987-21.72-37.632-.21-.364h-43.87l-21.92 37.987Zm86.07 0-21.1 36.55h-42.21l-21.1-36.55 21.1-36.551h42.21l21.1 36.551Zm-86.07 149.069 21.72 37.64.2.36h43.87l21.93-37.99-21.72-37.63-.21-.36h-43.87l-21.92 37.98Zm86.07 0-21.1 36.55h-42.21l-21.1-36.55 21.1-36.55h42.21l21.1 36.55Zm-86.07 149.08 21.72 37.63.2.36h43.87l21.93-37.98-21.72-37.63-.21-.37h-43.87l-21.92 37.99Zm86.07 0-21.1 36.55h-42.21l-21.1-36.55 21.1-36.55h42.21l21.1 36.55Zm-150.63-633.574 21.72 37.632.21.364h43.87l21.92-37.986-21.72-37.633-.2-.363h-43.87l-21.93 37.986Zm86.07 0-21.1 36.55h-42.21l-21.1-36.55 21.1-36.551h42.21l21.1 36.551Zm-86.07 149.073 21.72 37.632.21.364h43.87l21.92-37.986-21.72-37.632-.2-.364h-43.87l-21.93 37.986Zm86.07 0-21.1 36.551h-42.21l-21.1-36.551 21.1-36.55h42.21l21.1 36.55Zm-86.07 149.074 21.72 37.632.21.363h43.87l21.92-37.986-21.72-37.632-.2-.364h-43.87l-21.93 37.987Zm86.07 0-21.1 36.55h-42.21l-21.1-36.55 21.1-36.551h42.21l21.1 36.551Zm-86.07 223.607 21.72 37.63.21.37h43.87l21.92-37.99-21.72-37.63-.2-.36h-43.87l-21.93 37.98Zm86.07 0-21.1 36.55h-42.21l-21.1-36.55 21.1-36.55h42.21l21.1 36.55Zm-86.07 74.54 21.72 37.63.21.37h43.87l21.92-37.99-21.72-37.63-.2-.37h-43.87l-21.93 37.99Zm86.07 0-21.1 36.55h-42.21l-21.1-36.55 21.1-36.55h42.21l21.1 36.55Zm-86.07 74.53 21.72 37.63.21.36h43.87l21.92-37.98-21.72-37.64-.2-.36h-43.87l-21.93 37.99Zm86.07 0-21.1 36.55h-42.21l-21.1-36.55 21.1-36.55h42.21l21.1 36.55ZM953.61 565.637l21.722 37.632.206.364h43.862l21.93-37.986-21.72-37.632-.21-.364h-43.862l-21.928 37.986Zm86.07 0-21.1 36.551h-42.206l-21.102-36.551 21.102-36.55h42.206l21.1 36.55Zm-86.07 223.61 21.722 37.632.206.364h43.862l21.93-37.986-21.72-37.632-.21-.364h-43.862l-21.928 37.986Zm86.07 0-21.1 36.551h-42.206l-21.102-36.551 21.102-36.55h42.206l21.1 36.55Zm-86.07 74.537 21.722 37.632.206.364h43.862l21.93-37.986-21.72-37.632-.21-.364h-43.862l-21.928 37.986Zm86.07 0-21.1 36.55h-42.206l-21.102-36.55 21.102-36.55h42.206l21.1 36.55Zm-86.07 74.537 21.722 37.632.206.364h43.862l21.93-37.987-21.72-37.632-.21-.364h-43.862l-21.928 37.987Zm86.07 0-21.1 36.55h-42.206l-21.102-36.55 21.102-36.551h42.206l21.1 36.551Zm-86.07 149.069 21.722 37.64.206.36h43.862l21.93-37.99-21.72-37.63-.21-.36h-43.862l-21.928 37.98Zm86.07 0-21.1 36.55h-42.206l-21.102-36.55 21.102-36.55h42.206l21.1 36.55Zm-86.07 74.54 21.722 37.63.206.37h43.862l21.93-37.99-21.72-37.63-.21-.37h-43.862l-21.928 37.99Zm86.07 0-21.1 36.55h-42.206l-21.102-36.55 21.102-36.55h42.206l21.1 36.55Zm-86.07 74.54 21.722 37.63.206.36h43.862l21.93-37.98-21.72-37.63-.21-.37h-43.862l-21.928 37.99Zm86.07 0-21.1 36.55h-42.206l-21.102-36.55 21.102-36.55h42.206l21.1 36.55ZM889.054 677.432l21.722 37.633.206.363h43.867l21.928-37.986-21.722-37.632-.206-.364h-43.867l-21.928 37.986Zm86.071 0-21.102 36.551h-42.205l-21.102-36.551 21.102-36.55h42.205l21.102 36.55Zm-86.071 74.537 21.722 37.632.206.364h43.867l21.928-37.986-21.722-37.632-.206-.364h-43.867l-21.928 37.986Zm86.071 0-21.102 36.551h-42.205l-21.102-36.551 21.102-36.55h42.205l21.102 36.55Zm-86.071 74.537 21.722 37.632.206.364h43.867l21.928-37.986-21.722-37.632-.206-.364h-43.867l-21.928 37.986Zm86.071 0-21.102 36.55h-42.205l-21.102-36.55 21.102-36.551h42.205l21.102 36.551Zm-86.071 74.537 21.722 37.632.206.363h43.867l21.928-37.986-21.722-37.632-.206-.364h-43.867l-21.928 37.987Zm86.071 0-21.102 36.55h-42.205l-21.102-36.55 21.102-36.551h42.205l21.102 36.551Zm-86.071 149.077 21.722 37.63.206.36h43.867l21.928-37.98-21.722-37.64-.206-.36h-43.867l-21.928 37.99Zm86.071 0-21.102 36.55h-42.205l-21.102-36.55 21.102-36.55h42.205l21.102 36.55Zm-86.071 74.53 21.722 37.63.206.37h43.867l21.928-37.99-21.722-37.63-.206-.36h-43.867l-21.928 37.98Zm86.071 0-21.102 36.55h-42.205l-21.102-36.55 21.102-36.55h42.205l21.102 36.55ZM823.603 565.637l21.722 37.632.207.364h43.866l21.928-37.986-21.721-37.632-.207-.364h-43.866l-21.929 37.986Zm86.071 0-21.102 36.551h-42.205l-21.102-36.551 21.102-36.55h42.205l21.102 36.55Zm-86.071 74.537 21.722 37.632.207.364h43.866l21.928-37.986-21.721-37.632-.207-.364h-43.866l-21.929 37.986Zm86.071 0-21.102 36.551h-42.205l-21.102-36.551 21.102-36.551h42.205l21.102 36.551Zm-86.071 74.537 21.722 37.632.207.364h43.866l21.928-37.987-21.721-37.632-.207-.363h-43.866l-21.929 37.986Zm86.071 0-21.102 36.55h-42.205l-21.102-36.55 21.102-36.551h42.205l21.102 36.551Zm-86.071 74.536 21.722 37.632.207.364h43.866l21.928-37.986-21.721-37.632-.207-.364h-43.866l-21.929 37.986Zm86.071 0-21.102 36.551h-42.205l-21.102-36.551 21.102-36.55h42.205l21.102 36.55Zm-86.071 223.613 21.722 37.63.207.36h43.866l21.928-37.98-21.721-37.635-.207-.364h-43.866l-21.929 37.989Zm86.071 0-21.102 36.55h-42.205l-21.102-36.55 21.102-36.553h42.205l21.102 36.553Zm-86.071 74.53 21.722 37.64.207.36h43.866l21.928-37.99-21.721-37.63-.207-.36h-43.866l-21.929 37.98Zm86.071 0-21.102 36.55h-42.205l-21.102-36.55 21.102-36.55h42.205l21.102 36.55Zm-86.071 74.54 21.722 37.63.207.37h43.866l21.928-37.99-21.721-37.63-.207-.37h-43.866l-21.929 37.99Zm86.071 0-21.102 36.55h-42.205l-21.102-36.55 21.102-36.55h42.205l21.102 36.55Zm-86.071 74.54 21.722 37.63.207.36h43.866l21.928-37.98-21.721-37.63-.207-.37h-43.866l-21.929 37.99Zm86.071 0-21.102 36.55h-42.205l-21.102-36.55 21.102-36.55h42.205l21.102 36.55ZM823.603 1311l21.722 37.64.207.36h43.866l21.928-37.99-21.721-37.63-.207-.36h-43.866L823.603 1311Zm86.071 0-21.102 36.55h-42.205L825.265 1311l21.102-36.55h42.205l21.102 36.55ZM759.047 528.359l21.722 37.632.207.364h43.866l21.929-37.986-21.722-37.632-.207-.364h-43.866l-21.929 37.986Zm86.072 0-21.103 36.551h-42.204l-21.103-36.551 21.103-36.55h42.204l21.103 36.55Zm-86.072 74.537 21.722 37.632.207.364h43.866l21.929-37.986-21.722-37.633-.207-.363h-43.866l-21.929 37.986Zm86.072 0-21.103 36.55h-42.204l-21.103-36.55 21.103-36.551h42.204l21.103 36.551Zm-86.072 149.073 21.722 37.632.207.364h43.866l21.929-37.986-21.722-37.632-.207-.364h-43.866l-21.929 37.986Zm86.072 0-21.103 36.551h-42.204l-21.103-36.551 21.103-36.55h42.204l21.103 36.55Zm-86.072 149.074 21.722 37.632.207.363h43.866l21.929-37.986-21.722-37.632-.207-.364h-43.866l-21.929 37.987Zm86.072 0-21.103 36.55h-42.204l-21.103-36.55 21.103-36.551h42.204l21.103 36.551Zm-86.072 74.536 21.722 37.631.207.37h43.866l21.929-37.991-21.722-37.632-.207-.364h-43.866l-21.929 37.986Zm86.072 0-21.103 36.551h-42.204l-21.103-36.551 21.103-36.55h42.204l21.103 36.55Zm-86.072 74.541 21.722 37.63.207.36h43.866l21.929-37.98-21.722-37.64-.207-.36h-43.866l-21.929 37.99Zm86.072 0-21.103 36.55h-42.204l-21.103-36.55 21.103-36.55h42.204l21.103 36.55Zm-86.072 149.07 21.722 37.63.207.37h43.866l21.929-37.99-21.722-37.63-.207-.37h-43.866l-21.929 37.99Zm86.072 0-21.103 36.55h-42.204l-21.103-36.55 21.103-36.55h42.204l21.103 36.55ZM693.607 640.174l21.721 37.632.207.364h43.866l21.929-37.986-21.722-37.632-.207-.364h-43.866l-21.928 37.986Zm86.061 0-21.102 36.551h-42.205l-21.102-36.551 21.102-36.551h42.205l21.102 36.551Zm-86.061 149.073 21.721 37.632.207.364h43.866l21.929-37.986-21.722-37.632-.207-.364h-43.866l-21.928 37.986Zm86.061 0-21.102 36.551h-42.205l-21.102-36.551 21.102-36.55h42.205l21.102 36.55Zm-86.061 149.074 21.721 37.632.207.364h43.866l21.929-37.987-21.722-37.632-.207-.364h-43.866l-21.928 37.987Zm86.061 0-21.102 36.55h-42.205l-21.102-36.55 21.102-36.551h42.205l21.102 36.551Zm-86.061 74.539 21.721 37.63.207.36h43.866l21.929-37.98-21.722-37.635-.207-.364h-43.866l-21.928 37.989Zm86.061 0-21.102 36.55h-42.205l-21.102-36.55 21.102-36.553h42.205l21.102 36.553Zm-86.061 149.07 21.721 37.63.207.37h43.866l21.929-37.99-21.722-37.63-.207-.37h-43.866l-21.928 37.99Zm86.061 0-21.102 36.55h-42.205l-21.102-36.55 21.102-36.55h42.205l21.102 36.55Zm-86.061 74.54 21.721 37.63.207.36h43.866l21.929-37.98-21.722-37.63-.207-.37h-43.866l-21.928 37.99Zm86.061 0-21.102 36.55h-42.205l-21.102-36.55 21.102-36.55h42.205l21.102 36.55ZM693.607 1311l21.721 37.64.207.36h43.866l21.929-37.99-21.722-37.63-.207-.36h-43.866L693.607 1311Zm86.061 0-21.102 36.55h-42.205L695.259 1311l21.102-36.55h42.205l21.102 36.55ZM629.041 677.432l21.722 37.633.206.363h43.867l21.928-37.986-21.722-37.632-.206-.364h-43.867l-21.928 37.986Zm86.071 0-21.102 36.551h-42.205l-21.102-36.551 21.102-36.55h42.205l21.102 36.55Zm-86.071 74.537 21.722 37.632.206.364h43.867l21.928-37.986-21.722-37.632-.206-.364h-43.867l-21.928 37.986Zm86.071 0L694.01 788.52h-42.205l-21.102-36.551 21.102-36.55h42.205l21.102 36.55Zm-86.071 74.537 21.722 37.632.206.364h43.867l21.928-37.986-21.722-37.632-.206-.364h-43.867l-21.928 37.986Zm86.071 0-21.102 36.55h-42.205l-21.102-36.55 21.102-36.551h42.205l21.102 36.551Zm-86.071 74.537 21.722 37.632.206.363h43.867l21.928-37.986-21.722-37.632-.206-.364h-43.867l-21.928 37.987Zm86.071 0-21.102 36.55h-42.205l-21.102-36.55 21.102-36.551h42.205l21.102 36.551Zm-86.071 74.536 21.722 37.631.206.37h43.867l21.928-37.991-21.722-37.632-.206-.364h-43.867l-21.928 37.986Zm86.071 0-21.102 36.551h-42.205l-21.102-36.551 21.102-36.55h42.205l21.102 36.55Zm-86.071 74.541 21.722 37.63.206.36h43.867l21.928-37.98-21.722-37.64-.206-.36h-43.867l-21.928 37.99Zm86.071 0-21.102 36.55h-42.205l-21.102-36.55 21.102-36.55h42.205l21.102 36.55ZM563.6 565.637l21.722 37.632.206.364h43.867l21.928-37.986-21.722-37.632-.206-.364h-43.867L563.6 565.637Zm86.061 0-21.102 36.551h-42.205l-21.102-36.551 21.102-36.55h42.205l21.102 36.55ZM563.6 640.174l21.722 37.632.206.364h43.867l21.928-37.986-21.722-37.632-.206-.364h-43.867L563.6 640.174Zm86.061 0-21.102 36.551h-42.205l-21.102-36.551 21.102-36.551h42.205l21.102 36.551ZM563.6 714.711l21.722 37.632.206.364h43.867l21.928-37.987-21.722-37.632-.206-.363h-43.867L563.6 714.711Zm86.061 0-21.102 36.55h-42.205l-21.102-36.55 21.102-36.551h42.205l21.102 36.551ZM563.6 863.784l21.722 37.632.206.364h43.867l21.928-37.986-21.722-37.632-.206-.364h-43.867L563.6 863.784Zm86.061 0-21.102 36.55h-42.205l-21.102-36.55 21.102-36.55h42.205l21.102 36.55ZM563.6 1012.86l21.722 37.63.206.36h43.867l21.928-37.98-21.722-37.635-.206-.364h-43.867L563.6 1012.86Zm86.061 0-21.102 36.55h-42.205l-21.102-36.55 21.102-36.553h42.205l21.102 36.553Zm-86.061 74.53 21.722 37.64.206.36h43.867l21.928-37.99-21.722-37.63-.206-.36h-43.867l-21.928 37.98Zm86.061 0-21.102 36.55h-42.205l-21.102-36.55 21.102-36.55h42.205l21.102 36.55Zm-86.061 74.54 21.722 37.63.206.37h43.867l21.928-37.99-21.722-37.63-.206-.37h-43.867l-21.928 37.99Zm86.061 0-21.102 36.55h-42.205l-21.102-36.55 21.102-36.55h42.205l21.102 36.55ZM499.044 528.359l21.722 37.632.207.364h43.866l21.928-37.986-21.721-37.632-.207-.364h-43.866l-21.929 37.986Zm86.062 0-21.103 36.551h-42.204l-21.103-36.551 21.103-36.55h42.204l21.103 36.55Zm-86.062 74.537 21.722 37.632.207.364h43.866l21.928-37.986-21.721-37.633-.207-.363h-43.866l-21.929 37.986Zm86.062 0-21.103 36.55h-42.204l-21.103-36.55 21.103-36.551h42.204l21.103 36.551Zm-86.062 74.536 21.722 37.633.207.363h43.866l21.928-37.986-21.721-37.632-.207-.364h-43.866l-21.929 37.986Zm86.062 0-21.103 36.551h-42.204l-21.103-36.551 21.103-36.55h42.204l21.103 36.55Zm-86.062 74.537 21.722 37.632.207.364h43.866l21.928-37.986-21.721-37.632-.207-.364h-43.866l-21.929 37.986Zm86.062 0-21.103 36.551h-42.204l-21.103-36.551 21.103-36.55h42.204l21.103 36.55Zm-86.062 74.537 21.722 37.632.207.364h43.866l21.928-37.986-21.721-37.632-.207-.364h-43.866l-21.929 37.986Zm86.062 0-21.103 36.55h-42.204l-21.103-36.55 21.103-36.551h42.204l21.103 36.551Zm-86.062 149.073 21.722 37.631.207.37h43.866l21.928-37.991-21.721-37.632-.207-.364h-43.866l-21.929 37.986Zm86.062 0-21.103 36.551h-42.204l-21.103-36.551 21.103-36.55h42.204l21.103 36.55Zm-86.062 74.541 21.722 37.63.207.36h43.866l21.928-37.98-21.721-37.64-.207-.36h-43.866l-21.929 37.99Zm86.062 0-21.103 36.55h-42.204l-21.103-36.55 21.103-36.55h42.204l21.103 36.55Zm-86.062 74.53 21.722 37.63.207.37h43.866l21.928-37.99-21.721-37.63-.207-.36h-43.866l-21.929 37.98Zm86.062 0-21.103 36.55h-42.204l-21.103-36.55 21.103-36.55h42.204l21.103 36.55Zm-86.062 74.54 21.722 37.63.207.37h43.866l21.928-37.99-21.721-37.63-.207-.37h-43.866l-21.929 37.99Zm86.062 0-21.103 36.55h-42.204l-21.103-36.55 21.103-36.55h42.204l21.103 36.55Zm-86.062 74.53 21.722 37.63.207.36h43.866l21.928-37.98-21.721-37.64-.207-.36h-43.866l-21.929 37.99Zm86.062 0-21.103 36.55h-42.204l-21.103-36.55 21.103-36.55h42.204l21.103 36.55ZM433.594 565.637l21.721 37.632.207.364h43.866l21.929-37.986-21.722-37.632-.207-.364h-43.866l-21.928 37.986Zm86.061 0-21.102 36.551h-42.205l-21.102-36.551 21.102-36.55h42.205l21.102 36.55Zm-86.061 74.537 21.721 37.632.207.364h43.866l21.929-37.986-21.722-37.632-.207-.364h-43.866l-21.928 37.986Zm86.061 0-21.102 36.551h-42.205l-21.102-36.551 21.102-36.551h42.205l21.102 36.551Zm-86.061 149.073 21.721 37.632.207.364h43.866l21.929-37.986-21.722-37.632-.207-.364h-43.866l-21.928 37.986Zm86.061 0-21.102 36.551h-42.205l-21.102-36.551 21.102-36.55h42.205l21.102 36.55Zm-86.061 74.537 21.721 37.632.207.364h43.866l21.929-37.986-21.722-37.632-.207-.364h-43.866l-21.928 37.986Zm86.061 0-21.102 36.55h-42.205l-21.102-36.55 21.102-36.55h42.205l21.102 36.55Zm-86.061 74.537 21.721 37.632.207.364h43.866l21.929-37.987-21.722-37.632-.207-.364h-43.866l-21.928 37.987Zm86.061 0-21.102 36.55h-42.205l-21.102-36.55 21.102-36.551h42.205l21.102 36.551Zm-86.061 149.069 21.721 37.64.207.36h43.866l21.929-37.99-21.722-37.63-.207-.36h-43.866l-21.928 37.98Zm86.061 0-21.102 36.55h-42.205l-21.102-36.55 21.102-36.55h42.205l21.102 36.55Zm-86.061 74.54 21.721 37.63.207.37h43.866l21.929-37.99-21.722-37.63-.207-.37h-43.866l-21.928 37.99Zm86.061 0-21.102 36.55h-42.205l-21.102-36.55 21.102-36.55h42.205l21.102 36.55Zm-86.061 74.54 21.721 37.63.207.36h43.866l21.929-37.98-21.722-37.63-.207-.37h-43.866l-21.928 37.99Zm86.061 0-21.102 36.55h-42.205l-21.102-36.55 21.102-36.55h42.205l21.102 36.55ZM433.594 1311l21.721 37.64.207.36h43.866l21.929-37.99-21.722-37.63-.207-.36h-43.866L433.594 1311Zm86.061 0-21.102 36.55h-42.205L435.246 1311l21.102-36.55h42.205l21.102 36.55ZM369.038 528.359l21.722 37.632.206.364h43.867l21.928-37.986-21.722-37.632-.206-.364h-43.867l-21.928 37.986Zm86.061 0-21.102 36.551h-42.205l-21.102-36.551 21.102-36.55h42.205l21.102 36.55Zm-86.061 74.537 21.722 37.632.206.364h43.867l21.928-37.986-21.722-37.633-.206-.363h-43.867l-21.928 37.986Zm86.061 0-21.102 36.55h-42.205l-21.102-36.55 21.102-36.551h42.205l21.102 36.551Zm-86.061 74.536 21.722 37.633.206.363h43.867l21.928-37.986-21.722-37.632-.206-.364h-43.867l-21.928 37.986Zm86.061 0-21.102 36.551h-42.205l-21.102-36.551 21.102-36.55h42.205l21.102 36.55Zm-86.061 149.074 21.722 37.632.206.364h43.867l21.928-37.986-21.722-37.632-.206-.364h-43.867l-21.928 37.986Zm86.061 0-21.102 36.55h-42.205l-21.102-36.55 21.102-36.551h42.205l21.102 36.551Zm-86.061 74.537 21.722 37.632.206.363h43.867l21.928-37.986-21.722-37.632-.206-.364h-43.867l-21.928 37.987Zm86.061 0-21.102 36.55h-42.205l-21.102-36.55 21.102-36.551h42.205l21.102 36.551Zm-86.061 74.536 21.722 37.631.206.37h43.867l21.928-37.991-21.722-37.632-.206-.364h-43.867l-21.928 37.986Zm86.061 0-21.102 36.551h-42.205l-21.102-36.551 21.102-36.55h42.205l21.102 36.55Zm-86.061 74.541 21.722 37.63.206.36h43.867l21.928-37.98-21.722-37.64-.206-.36h-43.867l-21.928 37.99Zm86.061 0-21.102 36.55h-42.205l-21.102-36.55 21.102-36.55h42.205l21.102 36.55Zm-86.061 149.07 21.722 37.63.206.37h43.867l21.928-37.99-21.722-37.63-.206-.37h-43.867l-21.928 37.99Zm86.061 0-21.102 36.55h-42.205l-21.102-36.55 21.102-36.55h42.205l21.102 36.55Zm-86.061 74.53 21.722 37.63.206.36h43.867l21.928-37.98-21.722-37.64-.206-.36h-43.867l-21.928 37.99Zm86.061 0-21.102 36.55h-42.205l-21.102-36.55 21.102-36.55h42.205l21.102 36.55ZM303.587 565.637l21.722 37.632.206.364h43.867l21.928-37.986-21.722-37.632-.206-.364h-43.867l-21.928 37.986Zm86.071 0-21.102 36.551h-42.205l-21.102-36.551 21.102-36.55h42.205l21.102 36.55Zm-86.071 74.537 21.722 37.632.206.364h43.867l21.928-37.986-21.722-37.632-.206-.364h-43.867l-21.928 37.986Zm86.071 0-21.102 36.551h-42.205l-21.102-36.551 21.102-36.551h42.205l21.102 36.551Zm-86.071 74.537 21.722 37.632.206.364h43.867l21.928-37.987-21.722-37.632-.206-.363h-43.867l-21.928 37.986Zm86.071 0-21.102 36.55h-42.205l-21.102-36.55 21.102-36.551h42.205l21.102 36.551Zm-86.071 149.073 21.722 37.632.206.364h43.867l21.928-37.986-21.722-37.632-.206-.364h-43.867l-21.928 37.986Zm86.071 0-21.102 36.55h-42.205l-21.102-36.55 21.102-36.55h42.205l21.102 36.55Zm-86.071 74.537 21.722 37.632.206.364h43.867l21.928-37.987-21.722-37.632-.206-.364h-43.867l-21.928 37.987Zm86.071 0-21.102 36.55h-42.205l-21.102-36.55 21.102-36.551h42.205l21.102 36.551Zm-86.071 74.539 21.722 37.63.206.36h43.867l21.928-37.98-21.722-37.635-.206-.364h-43.867l-21.928 37.989Zm86.071 0-21.102 36.55h-42.205l-21.102-36.55 21.102-36.553h42.205l21.102 36.553Zm-86.071 149.07 21.722 37.63.206.37h43.867l21.928-37.99-21.722-37.63-.206-.37h-43.867l-21.928 37.99Zm86.071 0-21.102 36.55h-42.205l-21.102-36.55 21.102-36.55h42.205l21.102 36.55Zm-86.071 74.54 21.722 37.63.206.36h43.867l21.928-37.98-21.722-37.63-.206-.37h-43.867l-21.928 37.99Zm86.071 0-21.102 36.55h-42.205l-21.102-36.55 21.102-36.55h42.205l21.102 36.55ZM303.587 1311l21.722 37.64.206.36h43.867l21.928-37.99-21.722-37.63-.206-.36h-43.867L303.587 1311Zm86.071 0-21.102 36.55h-42.205L305.249 1311l21.102-36.55h42.205l21.102 36.55ZM239.031 528.359l21.722 37.632.207.364h43.866l21.928-37.986-21.721-37.632-.207-.364H260.96l-21.929 37.986Zm86.071 0L304 564.91h-42.205l-21.102-36.551 21.102-36.55H304l21.102 36.55Zm-86.071 149.073 21.722 37.633.207.363h43.866l21.928-37.986-21.721-37.632-.207-.364H260.96l-21.929 37.986Zm86.071 0L304 713.983h-42.205l-21.102-36.551 21.102-36.55H304l21.102 36.55Zm-86.071 74.537 21.722 37.632.207.364h43.866l21.928-37.986-21.721-37.632-.207-.364H260.96l-21.929 37.986Zm86.071 0L304 788.52h-42.205l-21.102-36.551 21.102-36.55H304l21.102 36.55Zm-86.071 149.074 21.722 37.632.207.363h43.866l21.928-37.986-21.721-37.632-.207-.364H260.96l-21.929 37.987Zm86.071 0L304 937.593h-42.205l-21.102-36.55 21.102-36.551H304l21.102 36.551Zm-86.071 149.077 21.722 37.63.207.36h43.866l21.928-37.98-21.721-37.64-.207-.36H260.96l-21.929 37.99Zm86.071 0L304 1086.67h-42.205l-21.102-36.55 21.102-36.55H304l21.102 36.55Zm-86.071 74.53 21.722 37.63.207.37h43.866l21.928-37.99-21.721-37.63-.207-.36H260.96l-21.929 37.98Zm86.071 0L304 1161.2h-42.205l-21.102-36.55 21.102-36.55H304l21.102 36.55Zm-86.071 74.54 21.722 37.63.207.37h43.866l21.928-37.99-21.721-37.63-.207-.37H260.96l-21.929 37.99Zm86.071 0L304 1235.74h-42.205l-21.102-36.55 21.102-36.55H304l21.102 36.55Zm-86.071 74.53 21.722 37.63.207.36h43.866l21.928-37.98-21.721-37.64-.207-.36H260.96l-21.929 37.99Zm86.071 0L304 1310.27h-42.205l-21.102-36.55 21.102-36.55H304l21.102 36.55Z"/>
      <path fill="#075F55" d="M0 26h1440v689H0z"/>
      <g filter="url(#d)" opacity=".7">
        <rect width="529" height="529" fill="url(#e)" rx="264.5" transform="matrix(1 0 0 -1 455 1062)"/>
      </g>
    </g>
  </g>
  <defs>
    <linearGradient id="c" x1="770.189" x2="716.499" y1="1349" y2="862" gradientUnits="userSpaceOnUse">
      <stop stop-color="#1BA068"/>
      <stop offset="1" stop-color="#A6D05D"/>
    </linearGradient>
    <linearGradient id="e" x1="-131.652" x2="0" y1="703.139" y2="-182.517" gradientUnits="userSpaceOnUse">
      <stop stop-color="#1BA068"/>
      <stop offset="1" stop-color="#A6D05D"/>
    </linearGradient>
    <clipPath id="a">
      <path fill="#fff" d="M0 0h1440v715H0z"/>
    </clipPath>
    <clipPath id="b">
      <path fill="#fff" d="M0 715h1440V0H0z"/>
    </clipPath>
    <filter id="d" width="929" height="929" x="255" y="333" color-interpolation-filters="sRGB" filterUnits="userSpaceOnUse">
      <feFlood flood-opacity="0" result="BackgroundImageFix"/>
      <feBlend in="SourceGraphic" in2="BackgroundImageFix" result="shape"/>
      <feGaussianBlur result="effect1_foregroundBlur_3819_4554" stdDeviation="100"/>
    </filter>
  </defs>
</svg>
