<svg xmlns="http://www.w3.org/2000/svg" width="1440" height="672" fill="none" viewBox="0 0 1440 672">
  <g clip-path="url(#a)">
    <path fill="url(#b)" d="m187.591 754.17 21.722-37.632.207-.364h43.866l21.929 37.986-21.722 37.632-.207.364H209.52l-21.929-37.986Zm86.062 0-21.103-36.551h-42.204l-21.103 36.551 21.103 36.55h42.204l21.103-36.55Zm-86.062-298.147 21.722-37.632.207-.364h43.866l21.929 37.986-21.722 37.632-.207.364H209.52l-21.929-37.986Zm86.062 0-21.103-36.55h-42.204l-21.103 36.55 21.103 36.551h42.204l21.103-36.551Zm-86.062-298.147 21.722-37.632.207-.364h43.866l21.929 37.987-21.722 37.632-.207.364H209.52l-21.929-37.987Zm86.062 0-21.103-36.55h-42.204l-21.103 36.55 21.103 36.551h42.204l21.103-36.551ZM123.036 791.448l21.721-37.632.207-.364h43.866l21.929 37.986-21.722 37.632-.207.364h-43.866l-21.928-37.986Zm86.061 0-21.102-36.551H145.79l-21.102 36.551 21.102 36.551h42.205l21.102-36.551Zm-86.061-74.537 21.721-37.632.207-.364h43.866l21.929 37.986-21.722 37.633-.207.363h-43.866l-21.928-37.986Zm86.061 0-21.102-36.55H145.79l-21.102 36.55 21.102 36.551h42.205l21.102-36.551Zm-86.061-149.073 21.721-37.632.207-.364h43.866l21.929 37.986-21.722 37.632-.207.364h-43.866l-21.928-37.986Zm86.061 0-21.102-36.55H145.79l-21.102 36.55 21.102 36.55h42.205l21.102-36.55Zm-86.061-149.073 21.721-37.633.207-.363h43.866l21.929 37.986-21.722 37.632-.207.364h-43.866l-21.928-37.986Zm86.061 0-21.102-36.551H145.79l-21.102 36.551 21.102 36.55h42.205l21.102-36.55Zm-86.061-149.074 21.721-37.632.207-.364h43.866l21.929 37.986-21.722 37.633-.207.363h-43.866l-21.928-37.986Zm86.061 0-21.102-36.55H145.79l-21.102 36.55 21.102 36.551h42.205l21.102-36.551Zm-86.061-149.073 21.721-37.632.207-.364h43.866l21.929 37.986-21.722 37.632-.207.364h-43.866l-21.928-37.986Zm86.061 0-21.102-36.55H145.79l-21.102 36.55 21.102 36.55h42.205l21.102-36.55ZM57.585 679.633l21.722-37.632.206-.364h43.867l21.928 37.986-21.722 37.633-.206.363H79.513l-21.928-37.986Zm86.071 0-21.102-36.55H80.349l-21.102 36.55 21.102 36.551h42.205l21.102-36.551ZM57.585 530.56l21.722-37.632.206-.364h43.867l21.928 37.986-21.722 37.632-.206.364H79.513L57.585 530.56Zm86.071 0-21.102-36.551H80.349L59.247 530.56l21.102 36.55h42.205l21.102-36.55Zm-86.071-74.537 21.722-37.632.206-.364h43.867l21.928 37.986-21.722 37.632-.206.364H79.513l-21.928-37.986Zm86.071 0-21.102-36.55H80.349l-21.102 36.55 21.102 36.551h42.205l21.102-36.551Zm-86.071-74.537 21.722-37.632.206-.364h43.867l21.928 37.987-21.722 37.632-.206.364H79.513l-21.928-37.987Zm86.071 0-21.102-36.55H80.349l-21.102 36.55 21.102 36.551h42.205l21.102-36.551ZM57.585 232.413l21.722-37.632.206-.364h43.867l21.928 37.986-21.722 37.632-.206.364H79.513l-21.928-37.986Zm86.071 0-21.102-36.55H80.349l-21.102 36.55 21.102 36.551h42.205l21.102-36.551ZM57.585 83.34l21.722-37.632.206-.364h43.867l21.928 37.986-21.722 37.632-.206.364H79.513L57.585 83.34Zm86.071 0-21.102-36.55H80.349L59.247 83.34l21.102 36.55h42.205l21.102-36.55ZM-6.971 716.91l21.722-37.632.207-.364h43.866L80.752 716.9l-21.721 37.633-.207.363H14.958L-6.971 716.91Zm86.071 0-21.102-36.55H15.793l-21.102 36.55 21.102 36.551h42.205l21.102-36.55ZM-6.97 567.838l21.72-37.632.207-.364h43.867l21.928 37.986-21.721 37.632-.207.364H14.958l-21.929-37.986Zm86.07 0-21.102-36.55H15.793l-21.102 36.55 21.102 36.55h42.205l21.102-36.55ZM-6.97 418.765l21.72-37.633.207-.363h43.867l21.928 37.986-21.721 37.632-.207.364H14.958l-21.929-37.986Zm86.07 0-21.102-36.551H15.793l-21.102 36.551 21.102 36.55h42.205l21.102-36.55Zm-86.07-223.61 21.72-37.633.207-.363h43.867l21.928 37.986-21.721 37.632-.207.364H14.958l-21.929-37.986Zm86.07 0-21.102-36.551H15.793l-21.102 36.551 21.102 36.55h42.205l21.102-36.55Zm-86.07-74.537 21.72-37.632.207-.364h43.867l21.928 37.986-21.721 37.632-.207.364H14.958l-21.929-37.986Zm86.07 0-21.102-36.55H15.793l-21.102 36.55 21.102 36.55h42.205l21.102-36.55ZM-6.97 46.091 14.75 8.46l.207-.364h43.867l21.928 37.986-21.721 37.632-.207.364H14.958L-6.971 46.091Zm86.07 0L57.998 9.541H15.793L-5.309 46.09l21.102 36.55h42.205L79.1 46.092ZM-72.42 754.17l21.721-37.632.207-.364h43.866l21.929 37.986-21.722 37.632-.207.364h-43.866L-72.42 754.17Zm86.07 0-21.102-36.551h-42.204L-70.76 754.17l21.103 36.55h42.204l21.103-36.55Zm-86.07-223.61 21.721-37.632.207-.364h43.866l21.929 37.986-21.722 37.632-.207.364h-43.866L-72.42 530.56Zm86.07 0-21.102-36.551h-42.204L-70.76 530.56l21.103 36.55h42.204l21.103-36.55Zm-86.07-74.537 21.721-37.632.207-.364h43.866l21.929 37.986-21.722 37.632-.207.364h-43.866l-21.928-37.986Zm86.07 0-21.102-36.55h-42.204l-21.103 36.55 21.103 36.551h42.204l21.103-36.551Zm-86.07-74.537 21.721-37.632.207-.364h43.866l21.929 37.987-21.722 37.632-.207.364h-43.866l-21.928-37.987Zm86.07 0-21.102-36.55h-42.204l-21.103 36.55 21.103 36.551h42.204l21.103-36.551Zm-86.07-149.073 21.721-37.632.207-.364h43.866l21.929 37.986-21.722 37.632-.207.364h-43.866l-21.928-37.986Zm86.07 0-21.102-36.55h-42.204l-21.103 36.55 21.103 36.551h42.204l21.103-36.551Zm-86.07-74.537 21.721-37.632.207-.364h43.866l21.929 37.987-21.722 37.632-.207.364h-43.866l-21.928-37.987Zm86.07 0-21.102-36.55h-42.204l-21.103 36.55 21.103 36.551h42.204l21.103-36.551ZM-72.42 83.34l21.72-37.632.207-.364h43.866L15.302 83.33-6.42 120.962l-.207.364h-43.866L-72.421 83.34Zm86.07 0L-7.452 46.79h-42.204L-70.76 83.34l21.103 36.55h42.204L13.65 83.34Zm-150.626 559.035 21.721-37.633.207-.363h43.866l21.929 37.986-21.722 37.632-.207.364h-43.866l-21.928-37.986Zm86.07 0-21.102-36.551h-42.204l-21.103 36.551 21.103 36.55h42.204l21.103-36.55Zm-86.07-74.537 21.721-37.632.207-.364h43.866l21.929 37.986-21.722 37.632-.207.364h-43.866l-21.928-37.986Zm86.07 0-21.102-36.55h-42.204l-21.103 36.55 21.103 36.55h42.204l21.103-36.55Zm-86.07-74.537 21.721-37.632.207-.364h43.866l21.929 37.986-21.722 37.633-.207.364h-43.866l-21.928-37.987Zm86.07 0-21.102-36.55h-42.204l-21.103 36.55 21.103 36.551h42.204l21.103-36.551Zm-86.07-74.536 21.721-37.633.207-.363h43.866l21.929 37.986-21.722 37.632-.207.364h-43.866l-21.928-37.986Zm86.07 0-21.102-36.551h-42.204l-21.103 36.551 21.103 36.55h42.204l21.103-36.55Zm-86.07-149.074 21.721-37.632.207-.364h43.866l21.929 37.986-21.722 37.633-.207.363h-43.866l-21.928-37.986Zm86.07 0-21.102-36.55h-42.204l-21.103 36.55 21.103 36.551h42.204l21.103-36.551Zm-86.07-74.536 21.721-37.633.207-.363h43.866l21.929 37.986-21.722 37.632-.207.364h-43.866l-21.928-37.986Zm86.07 0-21.102-36.551h-42.204l-21.103 36.551 21.103 36.55h42.204l21.103-36.55ZM-202.427 754.17l21.722-37.632.206-.364h43.867l21.928 37.986-21.722 37.632-.206.364H-180.5l-21.928-37.986Zm86.071 0-21.102-36.551h-42.205l-21.102 36.551 21.102 36.55h42.205l21.102-36.55Zm-86.071-74.537 21.722-37.632.206-.364h43.867l21.928 37.986-21.722 37.633-.206.363H-180.5l-21.928-37.986Zm86.071 0-21.102-36.55h-42.205l-21.102 36.55 21.102 36.551h42.205l21.102-36.551Zm-86.071-74.536 21.722-37.633.206-.364h43.867l21.928 37.987-21.722 37.632-.206.364H-180.5l-21.928-37.986Zm86.071 0-21.102-36.551h-42.205l-21.102 36.551 21.102 36.55h42.205l21.102-36.55Zm-86.071-74.537 21.722-37.632.206-.364h43.867l21.928 37.986-21.722 37.632-.206.364H-180.5l-21.928-37.986Zm86.071 0-21.102-36.551h-42.205l-21.102 36.551 21.102 36.55h42.205l21.102-36.55Zm-86.071-223.61 21.722-37.632.206-.364h43.867l21.928 37.986-21.722 37.632-.206.364H-180.5l-21.928-37.986Zm86.071 0-21.102-36.551h-42.205l-21.102 36.551 21.102 36.55h42.205l21.102-36.55Zm-86.071-74.537 21.722-37.632.206-.364h43.867l21.928 37.986-21.722 37.632-.206.364H-180.5l-21.928-37.986Zm86.071 0-21.102-36.55h-42.205l-21.102 36.55 21.102 36.551h42.205l21.102-36.551Zm-86.071-74.537 21.722-37.632.206-.364h43.867l21.928 37.987-21.722 37.632-.206.364H-180.5l-21.928-37.987Zm86.071 0-21.102-36.55h-42.205l-21.102 36.55 21.102 36.551h42.205l21.102-36.551Zm-86.071-74.536 21.722-37.632.206-.364h43.867l21.928 37.986-21.722 37.632-.206.364H-180.5l-21.928-37.986Zm86.071 0-21.102-36.55h-42.205l-21.102 36.55 21.102 36.55h42.205l21.102-36.55Zm-86.071-74.537 21.722-37.632.206-.364h43.867l21.928 37.986-21.722 37.633-.206.363H-180.5l-21.928-37.986Zm86.071 0-21.102-36.55h-42.205l-21.102 36.55 21.102 36.55h42.205l21.102-36.55Zm-150.627 782.645 21.722-37.632.206-.364h43.867l21.928 37.986-21.722 37.632-.206.364h-43.867l-21.928-37.986Zm86.071 0-21.102-36.551h-42.205l-21.102 36.551 21.102 36.551h42.205l21.102-36.551Zm-86.071-74.537 21.722-37.632.206-.364h43.867l21.928 37.986-21.722 37.633-.206.363h-43.867l-21.928-37.986Zm86.071 0-21.102-36.55h-42.205l-21.102 36.55 21.102 36.551h42.205l21.102-36.551Zm-86.071-149.073 21.722-37.632.206-.364h43.867l21.928 37.986-21.722 37.632-.206.364h-43.867l-21.928-37.986Zm86.071 0-21.102-36.55h-42.205l-21.102 36.55 21.102 36.55h42.205l21.102-36.55Zm-86.071-149.073 21.722-37.633.206-.363h43.867l21.928 37.986-21.722 37.632-.206.364h-43.867l-21.928-37.986Zm86.071 0-21.102-36.551h-42.205l-21.102 36.551 21.102 36.55h42.205l21.102-36.55Zm-86.071-74.537 21.722-37.632.206-.364h43.867l21.928 37.986-21.722 37.632-.206.364h-43.867l-21.928-37.986Zm86.071 0-21.102-36.551h-42.205l-21.102 36.551 21.102 36.55h42.205l21.102-36.55Zm-86.071-74.537 21.722-37.632.206-.364h43.867l21.928 37.986-21.722 37.633-.206.363h-43.867l-21.928-37.986Zm86.071 0-21.102-36.55h-42.205l-21.102 36.55 21.102 36.551h42.205l21.102-36.551Zm-86.071-149.073 21.722-37.632.206-.364h43.867l21.928 37.986-21.722 37.632-.206.364h-43.867l-21.928-37.986Zm86.071 0-21.102-36.55h-42.205l-21.102 36.55 21.102 36.55h42.205l21.102-36.55Zm-151.512 559.015 21.722-37.632.207-.364h43.866l21.928 37.986-21.721 37.633-.207.363h-43.866l-21.929-37.986Zm86.062 0-21.103-36.55h-42.204l-21.103 36.55 21.103 36.551h42.204l21.103-36.551Zm-86.062-149.073 21.722-37.632.207-.364h43.866l21.928 37.986-21.721 37.632-.207.364h-43.866l-21.929-37.986Zm86.062 0-21.103-36.551h-42.204l-21.103 36.551 21.103 36.55h42.204l21.103-36.55Zm-86.062-149.074 21.722-37.632.207-.364h43.866l21.928 37.987-21.721 37.632-.207.364h-43.866l-21.929-37.987Zm86.062 0-21.103-36.55h-42.204l-21.103 36.55 21.103 36.551h42.204l21.103-36.551Zm-86.062-74.536 21.722-37.632.207-.364h43.866l21.928 37.986-21.721 37.632-.207.364h-43.866l-21.929-37.986Zm86.062 0-21.103-36.551h-42.204l-21.103 36.551 21.103 36.55h42.204l21.103-36.55Zm-86.062-149.074 21.722-37.632.207-.364h43.866l21.928 37.987-21.721 37.632-.207.364h-43.866l-21.929-37.987Zm86.062 0-21.103-36.55h-42.204l-21.103 36.55 21.103 36.551h42.204l21.103-36.551Zm-86.062-74.536 21.722-37.632.207-.364h43.866l21.928 37.986-21.721 37.632-.207.364h-43.866l-21.929-37.986Zm86.062 0-21.103-36.55h-42.204l-21.103 36.55 21.103 36.55h42.204l21.103-36.55Zm-86.062-74.537 21.722-37.632.207-.364h43.866l21.928 37.986-21.721 37.633-.207.363h-43.866l-21.929-37.986Zm86.062 0-21.103-36.55h-42.204l-21.103 36.55 21.103 36.55h42.204l21.103-36.55ZM-396.99 642.375l21.722-37.633.206-.363h43.866l21.929 37.986-21.722 37.632-.207.364h-43.866l-21.928-37.986Zm86.071 0-21.103-36.551h-42.204l-21.103 36.551 21.103 36.55h42.204l21.103-36.55Zm-86.071-74.537 21.722-37.632.206-.364h43.866l21.929 37.986-21.722 37.632-.207.364h-43.866l-21.928-37.986Zm86.071 0-21.103-36.55h-42.204l-21.103 36.55 21.103 36.55h42.204l21.103-36.55Zm-86.071-74.537 21.722-37.632.206-.364h43.866l21.929 37.986-21.722 37.633-.207.364h-43.866l-21.928-37.987Zm86.071 0-21.103-36.55h-42.204l-21.103 36.55 21.103 36.551h42.204l21.103-36.551Zm-86.071-74.536 21.722-37.633.206-.363h43.866l21.929 37.986-21.722 37.632-.207.364h-43.866l-21.928-37.986Zm86.071 0-21.103-36.551h-42.204l-21.103 36.551 21.103 36.55h42.204l21.103-36.55Zm-86.071-74.537 21.722-37.632.206-.364h43.866l21.929 37.986-21.722 37.632-.207.364h-43.866l-21.928-37.986Zm86.071 0-21.103-36.551h-42.204l-21.103 36.551 21.103 36.55h42.204l21.103-36.55Zm-86.071-74.537 21.722-37.632.206-.364h43.866l21.929 37.986-21.722 37.633-.207.363h-43.866l-21.928-37.986Zm86.071 0-21.103-36.55h-42.204l-21.103 36.55 21.103 36.551h42.204l21.103-36.551ZM-462.431 754.17l21.722-37.632.206-.364h43.867l21.928 37.986-21.722 37.632-.206.364h-43.867l-21.928-37.986Zm86.061 0-21.102-36.551h-42.205l-21.102 36.551 21.102 36.55h42.205l21.102-36.55Zm-86.061-74.537 21.722-37.632.206-.364h43.867l21.928 37.986-21.722 37.633-.206.363h-43.867l-21.928-37.986Zm86.061 0-21.102-36.55h-42.205l-21.102 36.55 21.102 36.551h42.205l21.102-36.551Zm-86.061-74.536 21.722-37.633.206-.364h43.867l21.928 37.987-21.722 37.632-.206.364h-43.867l-21.928-37.986Zm86.061 0-21.102-36.551h-42.205l-21.102 36.551 21.102 36.55h42.205l21.102-36.55Zm-86.061-149.074 21.722-37.632.206-.364h43.867l21.928 37.986-21.722 37.632-.206.364h-43.867l-21.928-37.986Zm86.061 0-21.102-36.55h-42.205l-21.102 36.55 21.102 36.551h42.205l21.102-36.551Zm-86.061-149.073 21.722-37.632.206-.364h43.867l21.928 37.986-21.722 37.632-.206.364h-43.867l-21.928-37.986Zm86.061 0-21.102-36.551h-42.205l-21.102 36.551 21.102 36.55h42.205l21.102-36.55Zm-86.061-74.537 21.722-37.632.206-.364h43.867l21.928 37.986-21.722 37.632-.206.364h-43.867l-21.928-37.986Zm86.061 0-21.102-36.55h-42.205l-21.102 36.55 21.102 36.551h42.205l21.102-36.551Zm-86.061-74.537 21.722-37.632.206-.364h43.867l21.928 37.987-21.722 37.632-.206.364h-43.867l-21.928-37.987Zm86.061 0-21.102-36.55h-42.205l-21.102 36.55 21.102 36.551h42.205l21.102-36.551Zm-150.617 633.572 21.722-37.632.206-.364h43.867l21.928 37.986-21.722 37.632-.206.364h-43.867l-21.928-37.986Zm86.061 0-21.102-36.551h-42.205l-21.102 36.551 21.102 36.551h42.205l21.102-36.551Zm-86.061-74.537 21.722-37.632.206-.364h43.867l21.928 37.986-21.722 37.633-.206.363h-43.867l-21.928-37.986Zm86.061 0-21.102-36.55h-42.205l-21.102 36.55 21.102 36.551h42.205l21.102-36.551Zm-86.061-74.536 21.722-37.633.206-.363h43.867l21.928 37.986-21.722 37.632-.206.364h-43.867l-21.928-37.986Zm86.061 0-21.102-36.551h-42.205l-21.102 36.551 21.102 36.55h42.205l21.102-36.55Zm-86.061-74.537 21.722-37.632.206-.364h43.867l21.928 37.986-21.722 37.632-.206.364h-43.867l-21.928-37.986Zm86.061 0-21.102-36.55h-42.205l-21.102 36.55 21.102 36.55h42.205l21.102-36.55Zm-86.061-74.537 21.722-37.632.206-.364h43.867l21.928 37.986-21.722 37.633-.206.364h-43.867l-21.928-37.987Zm86.061 0-21.102-36.55h-42.205l-21.102 36.55 21.102 36.551h42.205l21.102-36.551Zm-86.061-149.073 21.722-37.632.206-.364h43.867l21.928 37.986-21.722 37.632-.206.364h-43.867l-21.928-37.986Zm86.061 0-21.102-36.551h-42.205l-21.102 36.551 21.102 36.55h42.205l21.102-36.55Zm-86.061-74.537 21.722-37.632.206-.364h43.867l21.928 37.986-21.722 37.633-.206.363h-43.867l-21.928-37.986Zm86.061 0-21.102-36.55h-42.205l-21.102 36.55 21.102 36.551h42.205l21.102-36.551Zm-86.061-74.536 21.722-37.633.206-.363h43.867l21.928 37.986-21.722 37.632-.206.364h-43.867l-21.928-37.986Zm86.061 0-21.102-36.551h-42.205l-21.102 36.551 21.102 36.55h42.205l21.102-36.55Zm-86.061-74.537 21.722-37.632.206-.364h43.867l21.928 37.986-21.722 37.632-.206.364h-43.867l-21.928-37.986Zm86.061 0-21.102-36.55h-42.205l-21.102 36.55 21.102 36.55h42.205l21.102-36.55Zm-86.061-74.527 21.722-37.632.206-.364h43.867l21.928 37.986-21.722 37.632-.206.364h-43.867l-21.928-37.986Zm86.061 0-21.102-36.55h-42.205l-21.102 36.55 21.102 36.55h42.205l21.102-36.55ZM-592.438 754.17l21.722-37.632.207-.364h43.866l21.928 37.986-21.721 37.632-.207.364h-43.866l-21.929-37.986Zm86.062 0-21.103-36.551h-42.204l-21.103 36.551 21.103 36.55h42.204l21.103-36.55Zm-86.062-74.537 21.722-37.632.207-.364h43.866l21.928 37.986-21.721 37.633-.207.363h-43.866l-21.929-37.986Zm86.062 0-21.103-36.55h-42.204l-21.103 36.55 21.103 36.551h42.204l21.103-36.551Zm-86.062-149.073 21.722-37.632.207-.364h43.866l21.928 37.986-21.721 37.632-.207.364h-43.866l-21.929-37.986Zm86.062 0-21.103-36.551h-42.204l-21.103 36.551 21.103 36.55h42.204l21.103-36.55Zm-86.062-74.537 21.722-37.632.207-.364h43.866l21.928 37.986-21.721 37.632-.207.364h-43.866l-21.929-37.986Zm86.062 0-21.103-36.55h-42.204l-21.103 36.55 21.103 36.551h42.204l21.103-36.551Zm-86.062-74.537 21.722-37.632.207-.364h43.866l21.928 37.987-21.721 37.632-.207.364h-43.866l-21.929-37.987Zm86.062 0-21.103-36.55h-42.204l-21.103 36.55 21.103 36.551h42.204l21.103-36.551Zm-86.062-149.073 21.722-37.632.207-.364h43.866l21.928 37.986-21.721 37.632-.207.364h-43.866l-21.929-37.986Zm86.062 0-21.103-36.55h-42.204l-21.103 36.55 21.103 36.551h42.204l21.103-36.551Zm-86.062-74.537 21.722-37.632.207-.364h43.866l21.928 37.987-21.721 37.632-.207.364h-43.866l-21.929-37.987Zm86.062 0-21.103-36.55h-42.204l-21.103 36.55 21.103 36.551h42.204l21.103-36.551Zm-86.062-74.536 21.722-37.632.207-.364h43.866l21.928 37.986-21.721 37.632-.207.364h-43.866l-21.929-37.986Zm86.062 0-21.103-36.55h-42.204l-21.103 36.55 21.103 36.55h42.204l21.103-36.55Zm-86.062-74.537 21.722-37.632.207-.364h43.866l21.928 37.986-21.721 37.633-.207.363h-43.866l-21.929-37.986Zm86.062 0-21.103-36.55h-42.204l-21.103 36.55 21.103 36.55h42.204l21.103-36.55Zm-150.618 782.645 21.722-37.632.207-.364h43.866l21.929 37.986-21.722 37.632-.207.364h-43.866l-21.929-37.986Zm86.062 0-21.103-36.551h-42.204l-21.103 36.551 21.103 36.551h42.204l21.103-36.551Zm-86.062-74.537 21.722-37.632.207-.364h43.866l21.929 37.986-21.722 37.633-.207.363h-43.866l-21.929-37.986Zm86.062 0-21.103-36.55h-42.204l-21.103 36.55 21.103 36.551h42.204l21.103-36.551Zm-86.062-74.536 21.722-37.633.207-.363h43.866l21.929 37.986-21.722 37.632-.207.364h-43.866l-21.929-37.986Zm86.062 0-21.103-36.551h-42.204l-21.103 36.551 21.103 36.55h42.204l21.103-36.55Zm-86.062-149.074 21.722-37.632.207-.364h43.866l21.929 37.986-21.722 37.633-.207.364h-43.866l-21.929-37.987Zm86.062 0-21.103-36.55h-42.204l-21.103 36.55 21.103 36.551h42.204l21.103-36.551Zm-86.062-74.536 21.722-37.633.207-.363h43.866l21.929 37.986-21.722 37.632-.207.364h-43.866l-21.929-37.986Zm86.062 0-21.103-36.551h-42.204l-21.103 36.551 21.103 36.55h42.204l21.103-36.55Zm-86.062-74.537 21.722-37.632.207-.364h43.866l21.929 37.986-21.722 37.632-.207.364h-43.866l-21.929-37.986Zm86.062 0-21.103-36.551h-42.204l-21.103 36.551 21.103 36.55h42.204l21.103-36.55Zm-86.062-74.537 21.722-37.632.207-.364h43.866l21.929 37.986-21.722 37.633-.207.363h-43.866l-21.929-37.986Zm86.062 0-21.103-36.55h-42.204l-21.103 36.55 21.103 36.551h42.204l21.103-36.551Zm-86.062-149.073 21.722-37.632.207-.364h43.866l21.929 37.986-21.722 37.632-.207.364h-43.866l-21.929-37.986Zm86.062 0-21.103-36.55h-42.204l-21.103 36.55 21.103 36.55h42.204l21.103-36.55Zm-86.062-74.527 21.722-37.632.207-.364h43.866l21.929 37.986-21.722 37.632-.207.364h-43.866l-21.929-37.986Zm86.062 0-21.103-36.55h-42.204l-21.103 36.55 21.103 36.55h42.204l21.103-36.55ZM-722.444 754.17l21.722-37.632.206-.364h43.867l21.928 37.986-21.722 37.632-.206.364h-43.867l-21.928-37.986Zm86.071 0-21.102-36.551h-42.205l-21.102 36.551 21.102 36.55h42.205l21.102-36.55Zm-86.071-74.537 21.722-37.632.206-.364h43.867l21.928 37.986-21.722 37.633-.206.363h-43.867l-21.928-37.986Zm86.071 0-21.102-36.55h-42.205l-21.102 36.55 21.102 36.551h42.205l21.102-36.551Zm-86.071-74.536 21.722-37.633.206-.364h43.867l21.928 37.987-21.722 37.632-.206.364h-43.867l-21.928-37.986Zm86.071 0-21.102-36.551h-42.205l-21.102 36.551 21.102 36.55h42.205l21.102-36.55Zm-86.071-149.074 21.722-37.632.206-.364h43.867l21.928 37.986-21.722 37.632-.206.364h-43.867l-21.928-37.986Zm86.071 0-21.102-36.55h-42.205l-21.102 36.55 21.102 36.551h42.205l21.102-36.551Zm-86.071-74.537 21.722-37.632.206-.364h43.867l21.928 37.987-21.722 37.632-.206.364h-43.867l-21.928-37.987Zm86.071 0-21.102-36.55h-42.205l-21.102 36.55 21.102 36.551h42.205l21.102-36.551Zm-86.071-74.536 21.722-37.632.206-.364h43.867l21.928 37.986-21.722 37.632-.206.364h-43.867l-21.928-37.986Zm86.071 0-21.102-36.551h-42.205l-21.102 36.551 21.102 36.55h42.205l21.102-36.55Zm-86.071-149.074 21.722-37.632.206-.364h43.867l21.928 37.987-21.722 37.632-.206.364h-43.867l-21.928-37.987Zm86.071 0-21.102-36.55h-42.205l-21.102 36.55 21.102 36.551h42.205l21.102-36.551Zm-86.071-74.536 21.722-37.632.206-.364h43.867l21.928 37.986-21.722 37.632-.206.364h-43.867l-21.928-37.986Zm86.071 0-21.102-36.55h-42.205l-21.102 36.55 21.102 36.55h42.205l21.102-36.55Zm-86.071-74.537 21.722-37.632.206-.364h43.867l21.928 37.986-21.722 37.633-.206.363h-43.867l-21.928-37.986Zm86.071 0-21.102-36.55h-42.205l-21.102 36.55 21.102 36.55h42.205l21.102-36.55ZM-787 791.448l21.722-37.632.206-.364h43.867l21.928 37.986-21.722 37.632-.206.364h-43.867L-787 791.448Zm86.071 0-21.102-36.551h-42.205l-21.102 36.551 21.102 36.551h42.205l21.102-36.551ZM-787 642.375l21.722-37.633.206-.363h43.867l21.928 37.986-21.722 37.632-.206.364h-43.867L-787 642.375Zm86.071 0-21.102-36.551h-42.205l-21.102 36.551 21.102 36.55h42.205l21.102-36.55ZM-787 567.838l21.722-37.632.206-.364h43.867l21.928 37.986-21.722 37.632-.206.364h-43.867L-787 567.838Zm86.071 0-21.102-36.55h-42.205l-21.102 36.55 21.102 36.55h42.205l21.102-36.55ZM-787 418.765l21.722-37.633.206-.363h43.867l21.928 37.986-21.722 37.632-.206.364h-43.867L-787 418.765Zm86.071 0-21.102-36.551h-42.205l-21.102 36.551 21.102 36.55h42.205l21.102-36.55ZM-787 269.691l21.722-37.632.206-.364h43.867l21.928 37.986-21.722 37.633-.206.363h-43.867L-787 269.691Zm86.071 0-21.102-36.55h-42.205l-21.102 36.55 21.102 36.551h42.205l21.102-36.551ZM-787 195.155l21.722-37.633.206-.363h43.867l21.928 37.986-21.722 37.632-.206.364h-43.867L-787 195.155Zm86.071 0-21.102-36.551h-42.205l-21.102 36.551 21.102 36.55h42.205l21.102-36.55ZM-787 120.618l21.722-37.632.206-.364h43.867l21.928 37.986-21.722 37.632-.206.364h-43.867L-787 120.618Zm86.071 0-21.102-36.55h-42.205l-21.102 36.55 21.102 36.55h42.205l21.102-36.55ZM-787 46.091l21.722-37.632.206-.364h43.867l21.928 37.986-21.722 37.632-.206.364h-43.867L-787 46.091Zm86.071 0-21.102-36.55h-42.205l-21.102 36.55 21.102 36.55h42.205l21.102-36.55Zm888.52 708.079 21.722-37.632.207-.364h43.866l21.929 37.986-21.722 37.632-.207.364H209.52l-21.929-37.986Zm86.062 0-21.103-36.551h-42.204l-21.103 36.551 21.103 36.55h42.204l21.103-36.55Zm-86.062-298.147 21.722-37.632.207-.364h43.866l21.929 37.986-21.722 37.632-.207.364H209.52l-21.929-37.986Zm86.062 0-21.103-36.55h-42.204l-21.103 36.55 21.103 36.551h42.204l21.103-36.551Zm-86.062-298.147 21.722-37.632.207-.364h43.866l21.929 37.987-21.722 37.632-.207.364H209.52l-21.929-37.987Zm86.062 0-21.103-36.55h-42.204l-21.103 36.55 21.103 36.551h42.204l21.103-36.551ZM123.036 791.448l21.721-37.632.207-.364h43.866l21.929 37.986-21.722 37.632-.207.364h-43.866l-21.928-37.986Zm86.061 0-21.102-36.551H145.79l-21.102 36.551 21.102 36.551h42.205l21.102-36.551Zm-86.061-74.537 21.721-37.632.207-.364h43.866l21.929 37.986-21.722 37.633-.207.363h-43.866l-21.928-37.986Zm86.061 0-21.102-36.55H145.79l-21.102 36.55 21.102 36.551h42.205l21.102-36.551Zm-86.061-149.073 21.721-37.632.207-.364h43.866l21.929 37.986-21.722 37.632-.207.364h-43.866l-21.928-37.986Zm86.061 0-21.102-36.55H145.79l-21.102 36.55 21.102 36.55h42.205l21.102-36.55Zm-86.061-149.073 21.721-37.633.207-.363h43.866l21.929 37.986-21.722 37.632-.207.364h-43.866l-21.928-37.986Zm86.061 0-21.102-36.551H145.79l-21.102 36.551 21.102 36.55h42.205l21.102-36.55Zm-86.061-149.074 21.721-37.632.207-.364h43.866l21.929 37.986-21.722 37.633-.207.363h-43.866l-21.928-37.986Zm86.061 0-21.102-36.55H145.79l-21.102 36.55 21.102 36.551h42.205l21.102-36.551Zm-86.061-149.073 21.721-37.632.207-.364h43.866l21.929 37.986-21.722 37.632-.207.364h-43.866l-21.928-37.986Zm86.061 0-21.102-36.55H145.79l-21.102 36.55 21.102 36.55h42.205l21.102-36.55ZM57.585 679.633l21.722-37.632.206-.364h43.867l21.928 37.986-21.722 37.633-.206.363H79.513l-21.928-37.986Zm86.071 0-21.102-36.55H80.349l-21.102 36.55 21.102 36.551h42.205l21.102-36.551ZM57.585 530.56l21.722-37.632.206-.364h43.867l21.928 37.986-21.722 37.632-.206.364H79.513L57.585 530.56Zm86.071 0-21.102-36.551H80.349L59.247 530.56l21.102 36.55h42.205l21.102-36.55Zm-86.071-74.537 21.722-37.632.206-.364h43.867l21.928 37.986-21.722 37.632-.206.364H79.513l-21.928-37.986Zm86.071 0-21.102-36.55H80.349l-21.102 36.55 21.102 36.551h42.205l21.102-36.551Zm-86.071-74.537 21.722-37.632.206-.364h43.867l21.928 37.987-21.722 37.632-.206.364H79.513l-21.928-37.987Zm86.071 0-21.102-36.55H80.349l-21.102 36.55 21.102 36.551h42.205l21.102-36.551ZM57.585 232.413l21.722-37.632.206-.364h43.867l21.928 37.986-21.722 37.632-.206.364H79.513l-21.928-37.986Zm86.071 0-21.102-36.55H80.349l-21.102 36.55 21.102 36.551h42.205l21.102-36.551ZM57.585 83.34l21.722-37.632.206-.364h43.867l21.928 37.986-21.722 37.632-.206.364H79.513L57.585 83.34Zm86.071 0-21.102-36.55H80.349L59.247 83.34l21.102 36.55h42.205l21.102-36.55ZM-6.971 716.91l21.722-37.632.207-.364h43.866L80.752 716.9l-21.721 37.633-.207.363H14.958L-6.971 716.91Zm86.071 0-21.102-36.55H15.793l-21.102 36.55 21.102 36.551h42.205l21.102-36.55ZM-6.97 567.838l21.72-37.632.207-.364h43.867l21.928 37.986-21.721 37.632-.207.364H14.958l-21.929-37.986Zm86.07 0-21.102-36.55H15.793l-21.102 36.55 21.102 36.55h42.205l21.102-36.55ZM-6.97 418.765l21.72-37.633.207-.363h43.867l21.928 37.986-21.721 37.632-.207.364H14.958l-21.929-37.986Zm86.07 0-21.102-36.551H15.793l-21.102 36.551 21.102 36.55h42.205l21.102-36.55Zm-86.07-223.61 21.72-37.633.207-.363h43.867l21.928 37.986-21.721 37.632-.207.364H14.958l-21.929-37.986Zm86.07 0-21.102-36.551H15.793l-21.102 36.551 21.102 36.55h42.205l21.102-36.55Zm-86.07-74.537 21.72-37.632.207-.364h43.867l21.928 37.986-21.721 37.632-.207.364H14.958l-21.929-37.986Zm86.07 0-21.102-36.55H15.793l-21.102 36.55 21.102 36.55h42.205l21.102-36.55ZM-6.97 46.091 14.75 8.46l.207-.364h43.867l21.928 37.986-21.721 37.632-.207.364H14.958L-6.971 46.091Zm86.07 0L57.998 9.541H15.793L-5.309 46.09l21.102 36.55h42.205L79.1 46.092ZM-72.42 754.17l21.721-37.632.207-.364h43.866l21.929 37.986-21.722 37.632-.207.364h-43.866L-72.42 754.17Zm86.07 0-21.102-36.551h-42.204L-70.76 754.17l21.103 36.55h42.204l21.103-36.55Zm-86.07-223.61 21.721-37.632.207-.364h43.866l21.929 37.986-21.722 37.632-.207.364h-43.866L-72.42 530.56Zm86.07 0-21.102-36.551h-42.204L-70.76 530.56l21.103 36.55h42.204l21.103-36.55Zm-86.07-74.537 21.721-37.632.207-.364h43.866l21.929 37.986-21.722 37.632-.207.364h-43.866l-21.928-37.986Zm86.07 0-21.102-36.55h-42.204l-21.103 36.55 21.103 36.551h42.204l21.103-36.551Zm-86.07-74.537 21.721-37.632.207-.364h43.866l21.929 37.987-21.722 37.632-.207.364h-43.866l-21.928-37.987Zm86.07 0-21.102-36.55h-42.204l-21.103 36.55 21.103 36.551h42.204l21.103-36.551Zm-86.07-149.073 21.721-37.632.207-.364h43.866l21.929 37.986-21.722 37.632-.207.364h-43.866l-21.928-37.986Zm86.07 0-21.102-36.55h-42.204l-21.103 36.55 21.103 36.551h42.204l21.103-36.551Zm-86.07-74.537 21.721-37.632.207-.364h43.866l21.929 37.987-21.722 37.632-.207.364h-43.866l-21.928-37.987Zm86.07 0-21.102-36.55h-42.204l-21.103 36.55 21.103 36.551h42.204l21.103-36.551ZM-72.42 83.34l21.72-37.632.207-.364h43.866L15.302 83.33-6.42 120.962l-.207.364h-43.866L-72.421 83.34Zm86.07 0L-7.452 46.79h-42.204L-70.76 83.34l21.103 36.55h42.204L13.65 83.34Zm-150.626 559.035 21.721-37.633.207-.363h43.866l21.929 37.986-21.722 37.632-.207.364h-43.866l-21.928-37.986Zm86.07 0-21.102-36.551h-42.204l-21.103 36.551 21.103 36.55h42.204l21.103-36.55Zm-86.07-74.537 21.721-37.632.207-.364h43.866l21.929 37.986-21.722 37.632-.207.364h-43.866l-21.928-37.986Zm86.07 0-21.102-36.55h-42.204l-21.103 36.55 21.103 36.55h42.204l21.103-36.55Zm-86.07-74.537 21.721-37.632.207-.364h43.866l21.929 37.986-21.722 37.633-.207.364h-43.866l-21.928-37.987Zm86.07 0-21.102-36.55h-42.204l-21.103 36.55 21.103 36.551h42.204l21.103-36.551Zm-86.07-74.536 21.721-37.633.207-.363h43.866l21.929 37.986-21.722 37.632-.207.364h-43.866l-21.928-37.986Zm86.07 0-21.102-36.551h-42.204l-21.103 36.551 21.103 36.55h42.204l21.103-36.55Zm-86.07-149.074 21.721-37.632.207-.364h43.866l21.929 37.986-21.722 37.633-.207.363h-43.866l-21.928-37.986Zm86.07 0-21.102-36.55h-42.204l-21.103 36.55 21.103 36.551h42.204l21.103-36.551Zm-86.07-74.536 21.721-37.633.207-.363h43.866l21.929 37.986-21.722 37.632-.207.364h-43.866l-21.928-37.986Zm86.07 0-21.102-36.551h-42.204l-21.103 36.551 21.103 36.55h42.204l21.103-36.55ZM-202.427 754.17l21.722-37.632.206-.364h43.867l21.928 37.986-21.722 37.632-.206.364H-180.5l-21.928-37.986Zm86.071 0-21.102-36.551h-42.205l-21.102 36.551 21.102 36.55h42.205l21.102-36.55Zm-86.071-74.537 21.722-37.632.206-.364h43.867l21.928 37.986-21.722 37.633-.206.363H-180.5l-21.928-37.986Zm86.071 0-21.102-36.55h-42.205l-21.102 36.55 21.102 36.551h42.205l21.102-36.551Zm-86.071-74.536 21.722-37.633.206-.364h43.867l21.928 37.987-21.722 37.632-.206.364H-180.5l-21.928-37.986Zm86.071 0-21.102-36.551h-42.205l-21.102 36.551 21.102 36.55h42.205l21.102-36.55Zm-86.071-74.537 21.722-37.632.206-.364h43.867l21.928 37.986-21.722 37.632-.206.364H-180.5l-21.928-37.986Zm86.071 0-21.102-36.551h-42.205l-21.102 36.551 21.102 36.55h42.205l21.102-36.55Zm-86.071-223.61 21.722-37.632.206-.364h43.867l21.928 37.986-21.722 37.632-.206.364H-180.5l-21.928-37.986Zm86.071 0-21.102-36.551h-42.205l-21.102 36.551 21.102 36.55h42.205l21.102-36.55Zm-86.071-74.537 21.722-37.632.206-.364h43.867l21.928 37.986-21.722 37.632-.206.364H-180.5l-21.928-37.986Zm86.071 0-21.102-36.55h-42.205l-21.102 36.55 21.102 36.551h42.205l21.102-36.551Zm-86.071-74.537 21.722-37.632.206-.364h43.867l21.928 37.987-21.722 37.632-.206.364H-180.5l-21.928-37.987Zm86.071 0-21.102-36.55h-42.205l-21.102 36.55 21.102 36.551h42.205l21.102-36.551Zm-86.071-74.536 21.722-37.632.206-.364h43.867l21.928 37.986-21.722 37.632-.206.364H-180.5l-21.928-37.986Zm86.071 0-21.102-36.55h-42.205l-21.102 36.55 21.102 36.55h42.205l21.102-36.55Zm-86.071-74.537 21.722-37.632.206-.364h43.867l21.928 37.986-21.722 37.633-.206.363H-180.5l-21.928-37.986Zm86.071 0-21.102-36.55h-42.205l-21.102 36.55 21.102 36.55h42.205l21.102-36.55Zm-150.627 782.645 21.722-37.632.206-.364h43.867l21.928 37.986-21.722 37.632-.206.364h-43.867l-21.928-37.986Zm86.071 0-21.102-36.551h-42.205l-21.102 36.551 21.102 36.551h42.205l21.102-36.551Zm-86.071-74.537 21.722-37.632.206-.364h43.867l21.928 37.986-21.722 37.633-.206.363h-43.867l-21.928-37.986Zm86.071 0-21.102-36.55h-42.205l-21.102 36.55 21.102 36.551h42.205l21.102-36.551Zm-86.071-149.073 21.722-37.632.206-.364h43.867l21.928 37.986-21.722 37.632-.206.364h-43.867l-21.928-37.986Zm86.071 0-21.102-36.55h-42.205l-21.102 36.55 21.102 36.55h42.205l21.102-36.55Zm-86.071-149.073 21.722-37.633.206-.363h43.867l21.928 37.986-21.722 37.632-.206.364h-43.867l-21.928-37.986Zm86.071 0-21.102-36.551h-42.205l-21.102 36.551 21.102 36.55h42.205l21.102-36.55Zm-86.071-74.537 21.722-37.632.206-.364h43.867l21.928 37.986-21.722 37.632-.206.364h-43.867l-21.928-37.986Zm86.071 0-21.102-36.551h-42.205l-21.102 36.551 21.102 36.55h42.205l21.102-36.55Zm-86.071-74.537 21.722-37.632.206-.364h43.867l21.928 37.986-21.722 37.633-.206.363h-43.867l-21.928-37.986Zm86.071 0-21.102-36.55h-42.205l-21.102 36.55 21.102 36.551h42.205l21.102-36.551Zm-86.071-149.073 21.722-37.632.206-.364h43.867l21.928 37.986-21.722 37.632-.206.364h-43.867l-21.928-37.986Zm86.071 0-21.102-36.55h-42.205l-21.102 36.55 21.102 36.55h42.205l21.102-36.55Zm-151.512 559.015 21.722-37.632.207-.364h43.866l21.928 37.986-21.721 37.633-.207.363h-43.866l-21.929-37.986Zm86.062 0-21.103-36.55h-42.204l-21.103 36.55 21.103 36.551h42.204l21.103-36.551Zm-86.062-149.073 21.722-37.632.207-.364h43.866l21.928 37.986-21.721 37.632-.207.364h-43.866l-21.929-37.986Zm86.062 0-21.103-36.551h-42.204l-21.103 36.551 21.103 36.55h42.204l21.103-36.55Zm-86.062-149.074 21.722-37.632.207-.364h43.866l21.928 37.987-21.721 37.632-.207.364h-43.866l-21.929-37.987Zm86.062 0-21.103-36.55h-42.204l-21.103 36.55 21.103 36.551h42.204l21.103-36.551Zm-86.062-74.536 21.722-37.632.207-.364h43.866l21.928 37.986-21.721 37.632-.207.364h-43.866l-21.929-37.986Zm86.062 0-21.103-36.551h-42.204l-21.103 36.551 21.103 36.55h42.204l21.103-36.55Zm-86.062-149.074 21.722-37.632.207-.364h43.866l21.928 37.987-21.721 37.632-.207.364h-43.866l-21.929-37.987Zm86.062 0-21.103-36.55h-42.204l-21.103 36.55 21.103 36.551h42.204l21.103-36.551Zm-86.062-74.536 21.722-37.632.207-.364h43.866l21.928 37.986-21.721 37.632-.207.364h-43.866l-21.929-37.986Zm86.062 0-21.103-36.55h-42.204l-21.103 36.55 21.103 36.55h42.204l21.103-36.55Zm-86.062-74.537 21.722-37.632.207-.364h43.866l21.928 37.986-21.721 37.633-.207.363h-43.866l-21.929-37.986Zm86.062 0-21.103-36.55h-42.204l-21.103 36.55 21.103 36.55h42.204l21.103-36.55ZM-396.99 642.375l21.722-37.633.206-.363h43.866l21.929 37.986-21.722 37.632-.207.364h-43.866l-21.928-37.986Zm86.071 0-21.103-36.551h-42.204l-21.103 36.551 21.103 36.55h42.204l21.103-36.55Zm-86.071-74.537 21.722-37.632.206-.364h43.866l21.929 37.986-21.722 37.632-.207.364h-43.866l-21.928-37.986Zm86.071 0-21.103-36.55h-42.204l-21.103 36.55 21.103 36.55h42.204l21.103-36.55Zm-86.071-74.537 21.722-37.632.206-.364h43.866l21.929 37.986-21.722 37.633-.207.364h-43.866l-21.928-37.987Zm86.071 0-21.103-36.55h-42.204l-21.103 36.55 21.103 36.551h42.204l21.103-36.551Zm-86.071-74.536 21.722-37.633.206-.363h43.866l21.929 37.986-21.722 37.632-.207.364h-43.866l-21.928-37.986Zm86.071 0-21.103-36.551h-42.204l-21.103 36.551 21.103 36.55h42.204l21.103-36.55Zm-86.071-74.537 21.722-37.632.206-.364h43.866l21.929 37.986-21.722 37.632-.207.364h-43.866l-21.928-37.986Zm86.071 0-21.103-36.551h-42.204l-21.103 36.551 21.103 36.55h42.204l21.103-36.55Zm-86.071-74.537 21.722-37.632.206-.364h43.866l21.929 37.986-21.722 37.633-.207.363h-43.866l-21.928-37.986Zm86.071 0-21.103-36.55h-42.204l-21.103 36.55 21.103 36.551h42.204l21.103-36.551ZM-462.431 754.17l21.722-37.632.206-.364h43.867l21.928 37.986-21.722 37.632-.206.364h-43.867l-21.928-37.986Zm86.061 0-21.102-36.551h-42.205l-21.102 36.551 21.102 36.55h42.205l21.102-36.55Zm-86.061-74.537 21.722-37.632.206-.364h43.867l21.928 37.986-21.722 37.633-.206.363h-43.867l-21.928-37.986Zm86.061 0-21.102-36.55h-42.205l-21.102 36.55 21.102 36.551h42.205l21.102-36.551Zm-86.061-74.536 21.722-37.633.206-.364h43.867l21.928 37.987-21.722 37.632-.206.364h-43.867l-21.928-37.986Zm86.061 0-21.102-36.551h-42.205l-21.102 36.551 21.102 36.55h42.205l21.102-36.55Zm-86.061-149.074 21.722-37.632.206-.364h43.867l21.928 37.986-21.722 37.632-.206.364h-43.867l-21.928-37.986Zm86.061 0-21.102-36.55h-42.205l-21.102 36.55 21.102 36.551h42.205l21.102-36.551Zm-86.061-149.073 21.722-37.632.206-.364h43.867l21.928 37.986-21.722 37.632-.206.364h-43.867l-21.928-37.986Zm86.061 0-21.102-36.551h-42.205l-21.102 36.551 21.102 36.55h42.205l21.102-36.55Zm-86.061-74.537 21.722-37.632.206-.364h43.867l21.928 37.986-21.722 37.632-.206.364h-43.867l-21.928-37.986Zm86.061 0-21.102-36.55h-42.205l-21.102 36.55 21.102 36.551h42.205l21.102-36.551Zm-86.061-74.537 21.722-37.632.206-.364h43.867l21.928 37.987-21.722 37.632-.206.364h-43.867l-21.928-37.987Zm86.061 0-21.102-36.55h-42.205l-21.102 36.55 21.102 36.551h42.205l21.102-36.551Zm-150.617 633.572 21.722-37.632.206-.364h43.867l21.928 37.986-21.722 37.632-.206.364h-43.867l-21.928-37.986Zm86.061 0-21.102-36.551h-42.205l-21.102 36.551 21.102 36.551h42.205l21.102-36.551Zm-86.061-74.537 21.722-37.632.206-.364h43.867l21.928 37.986-21.722 37.633-.206.363h-43.867l-21.928-37.986Zm86.061 0-21.102-36.55h-42.205l-21.102 36.55 21.102 36.551h42.205l21.102-36.551Zm-86.061-74.536 21.722-37.633.206-.363h43.867l21.928 37.986-21.722 37.632-.206.364h-43.867l-21.928-37.986Zm86.061 0-21.102-36.551h-42.205l-21.102 36.551 21.102 36.55h42.205l21.102-36.55Zm-86.061-74.537 21.722-37.632.206-.364h43.867l21.928 37.986-21.722 37.632-.206.364h-43.867l-21.928-37.986Zm86.061 0-21.102-36.55h-42.205l-21.102 36.55 21.102 36.55h42.205l21.102-36.55Zm-86.061-74.537 21.722-37.632.206-.364h43.867l21.928 37.986-21.722 37.633-.206.364h-43.867l-21.928-37.987Zm86.061 0-21.102-36.55h-42.205l-21.102 36.55 21.102 36.551h42.205l21.102-36.551Zm-86.061-149.073 21.722-37.632.206-.364h43.867l21.928 37.986-21.722 37.632-.206.364h-43.867l-21.928-37.986Zm86.061 0-21.102-36.551h-42.205l-21.102 36.551 21.102 36.55h42.205l21.102-36.55Zm-86.061-74.537 21.722-37.632.206-.364h43.867l21.928 37.986-21.722 37.633-.206.363h-43.867l-21.928-37.986Zm86.061 0-21.102-36.55h-42.205l-21.102 36.55 21.102 36.551h42.205l21.102-36.551Zm-86.061-74.536 21.722-37.633.206-.363h43.867l21.928 37.986-21.722 37.632-.206.364h-43.867l-21.928-37.986Zm86.061 0-21.102-36.551h-42.205l-21.102 36.551 21.102 36.55h42.205l21.102-36.55Zm-86.061-74.537 21.722-37.632.206-.364h43.867l21.928 37.986-21.722 37.632-.206.364h-43.867l-21.928-37.986Zm86.061 0-21.102-36.55h-42.205l-21.102 36.55 21.102 36.55h42.205l21.102-36.55Zm-86.061-74.527 21.722-37.632.206-.364h43.867l21.928 37.986-21.722 37.632-.206.364h-43.867l-21.928-37.986Zm86.061 0-21.102-36.55h-42.205l-21.102 36.55 21.102 36.55h42.205l21.102-36.55ZM-592.438 754.17l21.722-37.632.207-.364h43.866l21.928 37.986-21.721 37.632-.207.364h-43.866l-21.929-37.986Zm86.062 0-21.103-36.551h-42.204l-21.103 36.551 21.103 36.55h42.204l21.103-36.55Zm-86.062-74.537 21.722-37.632.207-.364h43.866l21.928 37.986-21.721 37.633-.207.363h-43.866l-21.929-37.986Zm86.062 0-21.103-36.55h-42.204l-21.103 36.55 21.103 36.551h42.204l21.103-36.551Zm-86.062-149.073 21.722-37.632.207-.364h43.866l21.928 37.986-21.721 37.632-.207.364h-43.866l-21.929-37.986Zm86.062 0-21.103-36.551h-42.204l-21.103 36.551 21.103 36.55h42.204l21.103-36.55Zm-86.062-74.537 21.722-37.632.207-.364h43.866l21.928 37.986-21.721 37.632-.207.364h-43.866l-21.929-37.986Zm86.062 0-21.103-36.55h-42.204l-21.103 36.55 21.103 36.551h42.204l21.103-36.551Zm-86.062-74.537 21.722-37.632.207-.364h43.866l21.928 37.987-21.721 37.632-.207.364h-43.866l-21.929-37.987Zm86.062 0-21.103-36.55h-42.204l-21.103 36.55 21.103 36.551h42.204l21.103-36.551Zm-86.062-149.073 21.722-37.632.207-.364h43.866l21.928 37.986-21.721 37.632-.207.364h-43.866l-21.929-37.986Zm86.062 0-21.103-36.55h-42.204l-21.103 36.55 21.103 36.551h42.204l21.103-36.551Zm-86.062-74.537 21.722-37.632.207-.364h43.866l21.928 37.987-21.721 37.632-.207.364h-43.866l-21.929-37.987Zm86.062 0-21.103-36.55h-42.204l-21.103 36.55 21.103 36.551h42.204l21.103-36.551Zm-86.062-74.536 21.722-37.632.207-.364h43.866l21.928 37.986-21.721 37.632-.207.364h-43.866l-21.929-37.986Zm86.062 0-21.103-36.55h-42.204l-21.103 36.55 21.103 36.55h42.204l21.103-36.55Zm-86.062-74.537 21.722-37.632.207-.364h43.866l21.928 37.986-21.721 37.633-.207.363h-43.866l-21.929-37.986Zm86.062 0-21.103-36.55h-42.204l-21.103 36.55 21.103 36.55h42.204l21.103-36.55Zm-150.618 782.645 21.722-37.632.207-.364h43.866l21.929 37.986-21.722 37.632-.207.364h-43.866l-21.929-37.986Zm86.062 0-21.103-36.551h-42.204l-21.103 36.551 21.103 36.551h42.204l21.103-36.551Zm-86.062-74.537 21.722-37.632.207-.364h43.866l21.929 37.986-21.722 37.633-.207.363h-43.866l-21.929-37.986Zm86.062 0-21.103-36.55h-42.204l-21.103 36.55 21.103 36.551h42.204l21.103-36.551Zm-86.062-74.536 21.722-37.633.207-.363h43.866l21.929 37.986-21.722 37.632-.207.364h-43.866l-21.929-37.986Zm86.062 0-21.103-36.551h-42.204l-21.103 36.551 21.103 36.55h42.204l21.103-36.55Zm-86.062-149.074 21.722-37.632.207-.364h43.866l21.929 37.986-21.722 37.633-.207.364h-43.866l-21.929-37.987Zm86.062 0-21.103-36.55h-42.204l-21.103 36.55 21.103 36.551h42.204l21.103-36.551Zm-86.062-74.536 21.722-37.633.207-.363h43.866l21.929 37.986-21.722 37.632-.207.364h-43.866l-21.929-37.986Zm86.062 0-21.103-36.551h-42.204l-21.103 36.551 21.103 36.55h42.204l21.103-36.55Zm-86.062-74.537 21.722-37.632.207-.364h43.866l21.929 37.986-21.722 37.632-.207.364h-43.866l-21.929-37.986Zm86.062 0-21.103-36.551h-42.204l-21.103 36.551 21.103 36.55h42.204l21.103-36.55Zm-86.062-74.537 21.722-37.632.207-.364h43.866l21.929 37.986-21.722 37.633-.207.363h-43.866l-21.929-37.986Zm86.062 0-21.103-36.55h-42.204l-21.103 36.55 21.103 36.551h42.204l21.103-36.551Zm-86.062-149.073 21.722-37.632.207-.364h43.866l21.929 37.986-21.722 37.632-.207.364h-43.866l-21.929-37.986Zm86.062 0-21.103-36.55h-42.204l-21.103 36.55 21.103 36.55h42.204l21.103-36.55Zm-86.062-74.527 21.722-37.632.207-.364h43.866l21.929 37.986-21.722 37.632-.207.364h-43.866l-21.929-37.986Zm86.062 0-21.103-36.55h-42.204l-21.103 36.55 21.103 36.55h42.204l21.103-36.55ZM-722.444 754.17l21.722-37.632.206-.364h43.867l21.928 37.986-21.722 37.632-.206.364h-43.867l-21.928-37.986Zm86.071 0-21.102-36.551h-42.205l-21.102 36.551 21.102 36.55h42.205l21.102-36.55Zm-86.071-74.537 21.722-37.632.206-.364h43.867l21.928 37.986-21.722 37.633-.206.363h-43.867l-21.928-37.986Zm86.071 0-21.102-36.55h-42.205l-21.102 36.55 21.102 36.551h42.205l21.102-36.551Zm-86.071-74.536 21.722-37.633.206-.364h43.867l21.928 37.987-21.722 37.632-.206.364h-43.867l-21.928-37.986Zm86.071 0-21.102-36.551h-42.205l-21.102 36.551 21.102 36.55h42.205l21.102-36.55Zm-86.071-149.074 21.722-37.632.206-.364h43.867l21.928 37.986-21.722 37.632-.206.364h-43.867l-21.928-37.986Zm86.071 0-21.102-36.55h-42.205l-21.102 36.55 21.102 36.551h42.205l21.102-36.551Zm-86.071-74.537 21.722-37.632.206-.364h43.867l21.928 37.987-21.722 37.632-.206.364h-43.867l-21.928-37.987Zm86.071 0-21.102-36.55h-42.205l-21.102 36.55 21.102 36.551h42.205l21.102-36.551Zm-86.071-74.536 21.722-37.632.206-.364h43.867l21.928 37.986-21.722 37.632-.206.364h-43.867l-21.928-37.986Zm86.071 0-21.102-36.551h-42.205l-21.102 36.551 21.102 36.55h42.205l21.102-36.55Zm-86.071-149.074 21.722-37.632.206-.364h43.867l21.928 37.987-21.722 37.632-.206.364h-43.867l-21.928-37.987Zm86.071 0-21.102-36.55h-42.205l-21.102 36.55 21.102 36.551h42.205l21.102-36.551Zm-86.071-74.536 21.722-37.632.206-.364h43.867l21.928 37.986-21.722 37.632-.206.364h-43.867l-21.928-37.986Zm86.071 0-21.102-36.55h-42.205l-21.102 36.55 21.102 36.55h42.205l21.102-36.55Zm-86.071-74.537 21.722-37.632.206-.364h43.867l21.928 37.986-21.722 37.633-.206.363h-43.867l-21.928-37.986Zm86.071 0-21.102-36.55h-42.205l-21.102 36.55 21.102 36.55h42.205l21.102-36.55ZM-787 791.448l21.722-37.632.206-.364h43.867l21.928 37.986-21.722 37.632-.206.364h-43.867L-787 791.448Zm86.071 0-21.102-36.551h-42.205l-21.102 36.551 21.102 36.551h42.205l21.102-36.551ZM-787 642.375l21.722-37.633.206-.363h43.867l21.928 37.986-21.722 37.632-.206.364h-43.867L-787 642.375Zm86.071 0-21.102-36.551h-42.205l-21.102 36.551 21.102 36.55h42.205l21.102-36.55ZM-787 567.838l21.722-37.632.206-.364h43.867l21.928 37.986-21.722 37.632-.206.364h-43.867L-787 567.838Zm86.071 0-21.102-36.55h-42.205l-21.102 36.55 21.102 36.55h42.205l21.102-36.55ZM-787 418.765l21.722-37.633.206-.363h43.867l21.928 37.986-21.722 37.632-.206.364h-43.867L-787 418.765Zm86.071 0-21.102-36.551h-42.205l-21.102 36.551 21.102 36.55h42.205l21.102-36.55ZM-787 269.691l21.722-37.632.206-.364h43.867l21.928 37.986-21.722 37.633-.206.363h-43.867L-787 269.691Zm86.071 0-21.102-36.55h-42.205l-21.102 36.55 21.102 36.551h42.205l21.102-36.551ZM-787 195.155l21.722-37.633.206-.363h43.867l21.928 37.986-21.722 37.632-.206.364h-43.867L-787 195.155Zm86.071 0-21.102-36.551h-42.205l-21.102 36.551 21.102 36.55h42.205l21.102-36.55ZM-787 120.618l21.722-37.632.206-.364h43.867l21.928 37.986-21.722 37.632-.206.364h-43.867L-787 120.618Zm86.071 0-21.102-36.55h-42.205l-21.102 36.55 21.102 36.55h42.205l21.102-36.55ZM-787 46.091l21.722-37.632.206-.364h43.867l21.928 37.986-21.722 37.632-.206.364h-43.867L-787 46.091Zm86.071 0-21.102-36.55h-42.205l-21.102 36.55 21.102 36.55h42.205l21.102-36.55Z" style="mix-blend-mode:lighten"/>
    <path fill="url(#c)" d="m1242.41 116.071-21.72 37.633-.21.363h-43.87l-21.92-37.986 21.72-37.632.2-.364h43.87l21.93 37.986Zm-86.06 0 21.1 36.551h42.2l21.11-36.551-21.11-36.55h-42.2l-21.1 36.55Zm86.06 298.147-21.72 37.632-.21.364h-43.87l-21.92-37.986 21.72-37.632.2-.364h43.87l21.93 37.986Zm-86.06 0 21.1 36.551h42.2l21.11-36.551-21.11-36.55h-42.2l-21.1 36.55Zm86.06 298.147-21.72 37.632-.21.364h-43.87l-21.92-37.986 21.72-37.633.2-.363h43.87l21.93 37.986Zm-86.06 0 21.1 36.55h42.2l21.11-36.55-21.11-36.551h-42.2l-21.1 36.551Zm150.61-633.572-21.72 37.632-.2.364h-43.87l-21.93-37.986 21.72-37.632.21-.364h43.87l21.92 37.986Zm-86.06 0 21.11 36.551h42.2l21.1-36.55-21.1-36.551h-42.2l-21.11 36.55Zm86.06 74.537-21.72 37.632-.2.364h-43.87l-21.93-37.986 21.72-37.632.21-.364h43.87l21.92 37.986Zm-86.06 0 21.11 36.55h42.2l21.1-36.55-21.1-36.551h-42.2l-21.11 36.551Zm86.06 149.073-21.72 37.632-.2.364h-43.87l-21.93-37.986 21.72-37.632.21-.364h43.87l21.92 37.986Zm-86.06 0 21.11 36.551h42.2l21.1-36.551-21.1-36.55h-42.2l-21.11 36.55Zm86.06 149.074-21.72 37.632-.2.364h-43.87l-21.93-37.987 21.72-37.632.21-.364h43.87l21.92 37.987Zm-86.06 0 21.11 36.55h42.2l21.1-36.55-21.1-36.551h-42.2l-21.11 36.551Zm86.06 149.073-21.72 37.632-.2.364h-43.87l-21.93-37.986 21.72-37.632.21-.364h43.87l21.92 37.986Zm-86.06 0 21.11 36.55h42.2l21.1-36.55-21.1-36.551h-42.2l-21.11 36.551Zm86.06 149.073-21.72 37.632-.2.364h-43.87l-21.93-37.986 21.72-37.632.21-.364h43.87l21.92 37.986Zm-86.06 0 21.11 36.551h42.2l21.1-36.551-21.1-36.55h-42.2l-21.11 36.55Zm151.52-559.015-21.73 37.632-.2.364h-43.87l-21.93-37.986 21.72-37.632.21-.364h43.87l21.93 37.986Zm-86.08 0 21.11 36.551h42.2l21.1-36.551-21.1-36.55h-42.2l-21.11 36.55Zm86.08 149.073-21.73 37.633-.2.363h-43.87l-21.93-37.986 21.72-37.632.21-.364h43.87l21.93 37.986Zm-86.08 0 21.11 36.551h42.2l21.1-36.551-21.1-36.55h-42.2l-21.11 36.55Zm86.08 74.537-21.73 37.632-.2.364h-43.87l-21.93-37.986 21.72-37.632.21-.364h43.87l21.93 37.986Zm-86.08 0 21.11 36.551h42.2l21.1-36.551-21.1-36.55h-42.2l-21.11 36.55Zm86.08 74.537-21.73 37.632-.2.364h-43.87l-21.93-37.986 21.72-37.633.21-.363h43.87l21.93 37.986Zm-86.08 0 21.11 36.55h42.2l21.1-36.55-21.1-36.551h-42.2l-21.11 36.551Zm86.08 149.073-21.73 37.632-.2.364h-43.87l-21.93-37.986 21.72-37.632.21-.364h43.87l21.93 37.986Zm-86.08 0 21.11 36.551h42.2l21.1-36.551-21.1-36.55h-42.2l-21.11 36.55Zm86.08 149.073-21.73 37.633-.2.363h-43.87l-21.93-37.986 21.72-37.632.21-.364h43.87l21.93 37.986Zm-86.08 0 21.11 36.551h42.2l21.1-36.551-21.1-36.55h-42.2l-21.11 36.55Zm150.63-633.571-21.72 37.632-.21.364h-43.86l-21.93-37.986 21.72-37.632.21-.364h43.86l21.93 37.986Zm-86.07 0 21.1 36.55h42.21l21.1-36.55-21.1-36.551H1372l-21.1 36.551Zm86.07 149.073-21.72 37.632-.21.364h-43.86l-21.93-37.986 21.72-37.632.21-.364h43.86l21.93 37.986Zm-86.07 0 21.1 36.551h42.21l21.1-36.551-21.1-36.55H1372l-21.1 36.55Zm86.07 149.074-21.72 37.632-.21.364h-43.86l-21.93-37.987 21.72-37.632.21-.364h43.86l21.93 37.987Zm-86.07 0 21.1 36.55h42.21l21.1-36.55-21.1-36.551H1372l-21.1 36.551Zm86.07 223.61-21.72 37.632-.21.364h-43.86l-21.93-37.987 21.72-37.632.21-.364h43.86l21.93 37.987Zm-86.07 0 21.1 36.55h42.21l21.1-36.55-21.1-36.551H1372l-21.1 36.551Zm86.07 74.536-21.72 37.632-.21.364h-43.86l-21.93-37.986 21.72-37.632.21-.364h43.86l21.93 37.986Zm-86.07 0 21.1 36.551h42.21l21.1-36.551-21.1-36.55H1372l-21.1 36.55Zm86.07 74.527-21.72 37.632-.21.364h-43.86l-21.93-37.986 21.72-37.632.21-.364h43.86l21.93 37.986Zm-86.07 0 21.1 36.551h42.21l21.1-36.551-21.1-36.55H1372l-21.1 36.55Zm151.52-708.079-21.72 37.633-.21.363h-43.86l-21.93-37.986 21.72-37.632.21-.364h43.86l21.93 37.986Zm-86.07 0 21.1 36.551h42.21l21.1-36.551-21.1-36.55h-42.21l-21.1 36.55Zm86.07 223.61-21.72 37.633-.21.363h-43.86l-21.93-37.986 21.72-37.632.21-.364h43.86l21.93 37.986Zm-86.07 0 21.1 36.551h42.21l21.1-36.551-21.1-36.55h-42.21l-21.1 36.55Zm86.07 74.537-21.72 37.632-.21.364h-43.86l-21.93-37.986 21.72-37.632.21-.364h43.86l21.93 37.986Zm-86.07 0 21.1 36.551h42.21l21.1-36.551-21.1-36.55h-42.21l-21.1 36.55Zm86.07 74.537-21.72 37.632-.21.364h-43.86l-21.93-37.986 21.72-37.633.21-.363h43.86l21.93 37.986Zm-86.07 0 21.1 36.55h42.21l21.1-36.55-21.1-36.551h-42.21l-21.1 36.551Zm86.07 149.073-21.72 37.632-.21.364h-43.86l-21.93-37.986 21.72-37.632.21-.364h43.86l21.93 37.986Zm-86.07 0 21.1 36.551h42.21l21.1-36.551-21.1-36.55h-42.21l-21.1 36.55Zm86.07 74.537-21.72 37.632-.21.364h-43.86l-21.93-37.986 21.72-37.633.21-.363h43.86l21.93 37.986Zm-86.07 0 21.1 36.55h42.21l21.1-36.55-21.1-36.551h-42.21l-21.1 36.551Zm86.07 74.536-21.72 37.633-.21.363h-43.86l-21.93-37.986 21.72-37.632.21-.364h43.86l21.93 37.986Zm-86.07 0 21.1 36.551h42.21l21.1-36.551-21.1-36.55h-42.21l-21.1 36.55Zm150.63-559.034-21.72 37.632-.21.364h-43.87l-21.93-37.987 21.73-37.632.2-.364h43.87l21.93 37.987Zm-86.07 0 21.1 36.55h42.2l21.11-36.55-21.11-36.551h-42.2l-21.1 36.551Zm86.07 74.536-21.72 37.632-.21.364h-43.87l-21.93-37.986 21.73-37.632.2-.364h43.87l21.93 37.986Zm-86.07 0 21.1 36.551h42.2l21.11-36.551-21.11-36.55h-42.2l-21.1 36.55Zm86.07 74.537-21.72 37.632-.21.364h-43.87l-21.93-37.986 21.73-37.632.2-.364h43.87l21.93 37.986Zm-86.07 0 21.1 36.55h42.2l21.11-36.55-21.11-36.551h-42.2l-21.1 36.551Zm86.07 74.537-21.72 37.632-.21.364h-43.87l-21.93-37.987 21.73-37.632.2-.364h43.87l21.93 37.987Zm-86.07 0 21.1 36.55h42.2l21.11-36.55-21.11-36.551h-42.2l-21.1 36.551Zm86.07 149.073-21.72 37.632-.21.364h-43.87l-21.93-37.986 21.73-37.632.2-.364h43.87l21.93 37.986Zm-86.07 0 21.1 36.55h42.2l21.11-36.55-21.11-36.551h-42.2l-21.1 36.551Zm86.07 74.537-21.72 37.632-.21.364h-43.87l-21.93-37.987 21.73-37.632.2-.364h43.87l21.93 37.987Zm-86.07 0 21.1 36.55h42.2l21.11-36.55-21.11-36.551h-42.2l-21.1 36.551Zm151.52-559.016-21.72 37.633-.21.363h-43.87l-21.93-37.986 21.73-37.632.2-.364h43.87l21.93 37.986Zm-86.07 0 21.1 36.551h42.2l21.11-36.551-21.11-36.55h-42.2l-21.1 36.55Zm86.07 74.537-21.72 37.632-.21.364h-43.87l-21.93-37.986 21.73-37.632.2-.364h43.87l21.93 37.986Zm-86.07 0 21.1 36.551h42.2l21.11-36.551-21.11-36.55h-42.2l-21.1 36.55Zm86.07 74.537-21.72 37.632-.21.364h-43.87l-21.93-37.986 21.73-37.633.2-.363h43.87l21.93 37.986Zm-86.07 0 21.1 36.55h42.2l21.11-36.55-21.11-36.551h-42.2l-21.1 36.551Zm86.07 74.536-21.72 37.633-.21.363h-43.87l-21.93-37.986 21.73-37.632.2-.364h43.87l21.93 37.986Zm-86.07 0 21.1 36.551h42.2l21.11-36.551-21.11-36.55h-42.2l-21.1 36.55Zm86.07 223.61-21.72 37.633-.21.363h-43.87l-21.93-37.986 21.73-37.632.2-.364h43.87l21.93 37.986Zm-86.07 0 21.1 36.551h42.2l21.11-36.551-21.11-36.55h-42.2l-21.1 36.55Zm86.07 74.537-21.72 37.632-.21.364h-43.87l-21.93-37.986 21.73-37.632.2-.364h43.87l21.93 37.986Zm-86.07 0 21.1 36.551h42.2l21.11-36.551-21.11-36.55h-42.2l-21.1 36.55Zm86.07 74.537-21.72 37.632-.21.364h-43.87l-21.93-37.986 21.73-37.633.2-.363h43.87l21.93 37.986Zm-86.07 0 21.1 36.55h42.2l21.11-36.55-21.11-36.551h-42.2l-21.1 36.551Zm86.07 74.536-21.72 37.633-.21.363h-43.87l-21.93-37.986 21.73-37.632.2-.364h43.87l21.93 37.986Zm-86.07 0 21.1 36.551h42.2l21.11-36.551-21.11-36.55h-42.2l-21.1 36.55Zm86.07 74.537-21.72 37.632-.21.364h-43.87l-21.93-37.986 21.73-37.632.2-.364h43.87l21.93 37.986Zm-86.07 0 21.1 36.551h42.2l21.11-36.551-21.11-36.55h-42.2l-21.1 36.55Zm150.62-782.645-21.72 37.632-.2.364h-43.87l-21.93-37.986 21.72-37.632.21-.364h43.87l21.92 37.986Zm-86.07 0 21.11 36.551h42.2l21.1-36.55-21.1-36.551h-42.2l-21.11 36.55Zm86.07 74.537-21.72 37.632-.2.364h-43.87l-21.93-37.986 21.72-37.632.21-.364h43.87l21.92 37.986Zm-86.07 0 21.11 36.55h42.2l21.1-36.55-21.1-36.551h-42.2l-21.11 36.551Zm86.07 149.073-21.72 37.632-.2.364h-43.87l-21.93-37.986 21.72-37.632.21-.364h43.87l21.92 37.986Zm-86.07 0 21.11 36.551h42.2l21.1-36.551-21.1-36.55h-42.2l-21.11 36.55Zm86.07 149.074-21.72 37.632-.2.364h-43.87l-21.93-37.987 21.72-37.632.21-.364h43.87l21.92 37.987Zm-86.07 0 21.11 36.55h42.2l21.1-36.55-21.1-36.551h-42.2l-21.11 36.551Zm86.07 74.536-21.72 37.632-.2.364h-43.87l-21.93-37.986 21.72-37.632.21-.364h43.87l21.92 37.986Zm-86.07 0 21.11 36.551h42.2l21.1-36.551-21.1-36.55h-42.2l-21.11 36.55Zm86.07 74.537-21.72 37.632-.2.364h-43.87l-21.93-37.986 21.72-37.632.21-.364h43.87l21.92 37.986Zm-86.07 0 21.11 36.55h42.2l21.1-36.55-21.1-36.551h-42.2l-21.11 36.551Zm86.07 149.073-21.72 37.632-.2.364h-43.87l-21.93-37.986 21.72-37.632.21-.364h43.87l21.92 37.986Zm-86.07 0 21.11 36.551h42.2l21.1-36.551-21.1-36.55h-42.2l-21.11 36.55Zm151.51-559.015-21.72 37.632-.2.364h-43.87l-21.93-37.986 21.72-37.632.21-.364h43.87l21.92 37.986Zm-86.06 0 21.11 36.551h42.2l21.1-36.551-21.1-36.55h-42.2l-21.11 36.55Zm86.06 149.073-21.72 37.633-.2.363h-43.87l-21.93-37.986 21.72-37.632.21-.364h43.87l21.92 37.986Zm-86.06 0 21.11 36.551h42.2l21.1-36.551-21.1-36.55h-42.2l-21.11 36.55Zm86.06 149.074-21.72 37.632-.2.364h-43.87l-21.93-37.986 21.72-37.633.21-.363h43.87l21.92 37.986Zm-86.06 0 21.11 36.55h42.2l21.1-36.55-21.1-36.551h-42.2l-21.11 36.551Zm86.06 74.536-21.72 37.633-.2.363h-43.87l-21.93-37.986 21.72-37.632.21-.364h43.87l21.92 37.986Zm-86.06 0 21.11 36.551h42.2l21.1-36.551-21.1-36.55h-42.2l-21.11 36.55Zm86.06 149.074-21.72 37.632-.2.364h-43.87l-21.93-37.986 21.72-37.633.21-.363h43.87l21.92 37.986Zm-86.06 0 21.11 36.55h42.2l21.1-36.55-21.1-36.551h-42.2l-21.11 36.551Zm86.06 74.536-21.72 37.633-.2.363h-43.87l-21.93-37.986 21.72-37.632.21-.364h43.87l21.92 37.986Zm-86.06 0 21.11 36.551h42.2l21.1-36.551-21.1-36.55h-42.2l-21.11 36.55Zm86.06 74.537-21.72 37.632-.2.364h-43.87l-21.93-37.986 21.72-37.632.21-.364h43.87l21.92 37.986Zm-86.06 0 21.11 36.551h42.2l21.1-36.551-21.1-36.55h-42.2l-21.11 36.55Zm150.63-633.571-21.72 37.632-.21.364h-43.86l-21.93-37.987 21.72-37.632.21-.364h43.86l21.93 37.987Zm-86.07 0 21.1 36.55h42.21l21.1-36.55-21.1-36.551h-42.21l-21.1 36.551Zm86.07 74.536-21.72 37.632-.21.364h-43.86l-21.93-37.986 21.72-37.632.21-.364h43.86l21.93 37.986Zm-86.07 0 21.1 36.551h42.21l21.1-36.551-21.1-36.55h-42.21l-21.1 36.55Zm86.07 74.537-21.72 37.632-.21.364h-43.86l-21.93-37.986 21.72-37.632.21-.364h43.86l21.93 37.986Zm-86.07 0 21.1 36.55h42.21l21.1-36.55-21.1-36.551h-42.21l-21.1 36.551Zm86.07 74.537-21.72 37.632-.21.364h-43.86l-21.93-37.987 21.72-37.632.21-.364h43.86l21.93 37.987Zm-86.07 0 21.1 36.55h42.21l21.1-36.55-21.1-36.551h-42.21l-21.1 36.551Zm86.07 74.536-21.72 37.632-.21.364h-43.86l-21.93-37.986 21.72-37.632.21-.364h43.86l21.93 37.986Zm-86.07 0 21.1 36.551h42.21l21.1-36.551-21.1-36.55h-42.21l-21.1 36.55Zm86.07 74.537-21.72 37.632-.21.364h-43.86l-21.93-37.986 21.72-37.632.21-.364h43.86l21.93 37.986Zm-86.07 0 21.1 36.55h42.21l21.1-36.55-21.1-36.551h-42.21l-21.1 36.551Zm151.51-484.479-21.72 37.633-.21.363h-43.86l-21.93-37.986 21.72-37.632.21-.364h43.86l21.93 37.986Zm-86.06 0 21.1 36.551h42.21l21.1-36.551-21.1-36.55h-42.21l-21.1 36.55Zm86.06 74.537-21.72 37.632-.21.364h-43.86l-21.93-37.986 21.72-37.632.21-.364h43.86l21.93 37.986Zm-86.06 0 21.1 36.551h42.21l21.1-36.551-21.1-36.55h-42.21l-21.1 36.55Zm86.06 74.537-21.72 37.632-.21.364h-43.86l-21.93-37.986 21.72-37.633.21-.363h43.86l21.93 37.986Zm-86.06 0 21.1 36.55h42.21l21.1-36.55-21.1-36.551h-42.21l-21.1 36.551Zm86.06 149.073-21.72 37.632-.21.364h-43.86l-21.93-37.986 21.72-37.632.21-.364h43.86l21.93 37.986Zm-86.06 0 21.1 36.551h42.21l21.1-36.551-21.1-36.55h-42.21l-21.1 36.55Zm86.06 149.073-21.72 37.633-.21.363h-43.86l-21.93-37.986 21.72-37.632.21-.364h43.86l21.93 37.986Zm-86.06 0 21.1 36.551h42.21l21.1-36.551-21.1-36.55h-42.21l-21.1 36.55Zm86.06 74.537-21.72 37.632-.21.364h-43.86l-21.93-37.986 21.72-37.632.21-.364h43.86l21.93 37.986Zm-86.06 0 21.1 36.551h42.21l21.1-36.551-21.1-36.55h-42.21l-21.1 36.55Zm86.06 74.537-21.72 37.632-.21.364h-43.86l-21.93-37.986 21.72-37.633.21-.363h43.86l21.93 37.986Zm-86.06 0 21.1 36.55h42.21l21.1-36.55-21.1-36.551h-42.21l-21.1 36.551Zm150.62-633.572-21.72 37.632-.21.364h-43.87l-21.93-37.986 21.73-37.632.2-.364h43.87l21.93 37.986Zm-86.06 0 21.1 36.551h42.2l21.11-36.55-21.11-36.551h-42.2l-21.1 36.55Zm86.06 74.537-21.72 37.632-.21.364h-43.87l-21.93-37.986 21.73-37.632.2-.364h43.87l21.93 37.986Zm-86.06 0 21.1 36.55h42.2l21.11-36.55-21.11-36.551h-42.2l-21.1 36.551Zm86.06 74.537-21.72 37.632-.21.364h-43.87l-21.93-37.987 21.73-37.632.2-.364h43.87l21.93 37.987Zm-86.06 0 21.1 36.55h42.2l21.11-36.55-21.11-36.551h-42.2l-21.1 36.551Zm86.06 74.536-21.72 37.632-.21.364h-43.87l-21.93-37.986 21.73-37.632.2-.364h43.87l21.93 37.986Zm-86.06 0 21.1 36.551h42.2l21.11-36.551-21.11-36.55h-42.2l-21.1 36.55Zm86.06 74.537-21.72 37.632-.21.364h-43.87l-21.93-37.986 21.73-37.632.2-.364h43.87l21.93 37.986Zm-86.06 0 21.1 36.55h42.2l21.11-36.55-21.11-36.551h-42.2l-21.1 36.551Zm86.06 149.073-21.72 37.632-.21.364h-43.87l-21.93-37.986 21.73-37.632.2-.364h43.87l21.93 37.986Zm-86.06 0 21.1 36.551h42.2l21.11-36.551-21.11-36.55h-42.2l-21.1 36.55Zm86.06 74.537-21.72 37.632-.21.364h-43.87l-21.93-37.986 21.73-37.632.2-.364h43.87l21.93 37.986Zm-86.06 0 21.1 36.55h42.2l21.11-36.55-21.11-36.551h-42.2l-21.1 36.551Zm86.06 74.537-21.72 37.632-.21.364h-43.87l-21.93-37.987 21.73-37.632.2-.364h43.87l21.93 37.987Zm-86.06 0 21.1 36.55h42.2l21.11-36.55-21.11-36.551h-42.2l-21.1 36.551Zm86.06 74.536-21.72 37.632-.21.364h-43.87l-21.93-37.986 21.73-37.632.2-.364h43.87l21.93 37.986Zm-86.06 0 21.1 36.551h42.2l21.11-36.551-21.11-36.55h-42.2l-21.1 36.55Zm86.06 74.527-21.72 37.632-.21.364h-43.87l-21.93-37.986 21.73-37.632.2-.364h43.87l21.93 37.986Zm-86.06 0 21.1 36.551h42.2l21.11-36.551-21.11-36.55h-42.2l-21.1 36.55Zm151.51-708.079-21.72 37.633-.21.363h-43.87l-21.93-37.986 21.73-37.632.2-.364h43.87l21.93 37.986Zm-86.06 0 21.1 36.551h42.2l21.11-36.551-21.11-36.55h-42.2l-21.1 36.55Zm86.06 74.537-21.72 37.632-.21.364h-43.87l-21.93-37.986 21.73-37.632.2-.364h43.87l21.93 37.986Zm-86.06 0 21.1 36.551h42.2l21.11-36.551-21.11-36.55h-42.2l-21.1 36.55Zm86.06 149.073-21.72 37.633-.21.363h-43.87l-21.93-37.986 21.73-37.632.2-.364h43.87l21.93 37.986Zm-86.06 0 21.1 36.551h42.2l21.11-36.551-21.11-36.55h-42.2l-21.1 36.55Zm86.06 74.537-21.72 37.632-.21.364h-43.87l-21.93-37.986 21.73-37.632.2-.364h43.87l21.93 37.986Zm-86.06 0 21.1 36.551h42.2l21.11-36.551-21.11-36.55h-42.2l-21.1 36.55Zm86.06 74.537-21.72 37.632-.21.364h-43.87l-21.93-37.986 21.73-37.633.2-.363h43.87l21.93 37.986Zm-86.06 0 21.1 36.55h42.2l21.11-36.55-21.11-36.551h-42.2l-21.1 36.551Zm86.06 149.073-21.72 37.632-.21.364h-43.87l-21.93-37.986 21.73-37.632.2-.364h43.87l21.93 37.986Zm-86.06 0 21.1 36.551h42.2l21.11-36.551-21.11-36.55h-42.2l-21.1 36.55Zm86.06 74.537-21.72 37.632-.21.364h-43.87l-21.93-37.986 21.73-37.633.2-.363h43.87l21.93 37.986Zm-86.06 0 21.1 36.55h42.2l21.11-36.55-21.11-36.551h-42.2l-21.1 36.551Zm86.06 74.536-21.72 37.633-.21.363h-43.87l-21.93-37.986 21.73-37.632.2-.364h43.87l21.93 37.986Zm-86.06 0 21.1 36.551h42.2l21.11-36.551-21.11-36.55h-42.2l-21.1 36.55Zm86.06 74.537-21.72 37.632-.21.364h-43.87l-21.93-37.986 21.73-37.632.2-.364h43.87l21.93 37.986Zm-86.06 0 21.1 36.551h42.2l21.11-36.551-21.11-36.55h-42.2l-21.1 36.55Zm150.61-782.645-21.72 37.632-.2.364h-43.87l-21.93-37.986 21.72-37.632.21-.364h43.87l21.92 37.986Zm-86.06 0 21.1 36.551h42.21l21.1-36.55-21.1-36.551h-42.21l-21.1 36.55Zm86.06 74.537-21.72 37.632-.2.364h-43.87l-21.93-37.986 21.72-37.632.21-.364h43.87l21.92 37.986Zm-86.06 0 21.1 36.55h42.21l21.1-36.55-21.1-36.551h-42.21l-21.1 36.551Zm86.06 74.537-21.72 37.632-.2.364h-43.87l-21.93-37.987 21.72-37.632.21-.364h43.87l21.92 37.987Zm-86.06 0 21.1 36.55h42.21l21.1-36.55-21.1-36.551h-42.21l-21.1 36.551Zm86.06 149.073-21.72 37.632-.2.364h-43.87l-21.93-37.986 21.72-37.632.21-.364h43.87l21.92 37.986Zm-86.06 0 21.1 36.55h42.21l21.1-36.55-21.1-36.551h-42.21l-21.1 36.551Zm86.06 74.537-21.72 37.632-.2.364h-43.87l-21.93-37.987 21.72-37.632.21-.364h43.87l21.92 37.987Zm-86.06 0 21.1 36.55h42.21l21.1-36.55-21.1-36.551h-42.21l-21.1 36.551Zm86.06 74.536-21.72 37.632-.2.364h-43.87l-21.93-37.986 21.72-37.632.21-.364h43.87l21.92 37.986Zm-86.06 0 21.1 36.551h42.21l21.1-36.551-21.1-36.55h-42.21l-21.1 36.55Zm86.06 74.537-21.72 37.632-.2.364h-43.87l-21.93-37.986 21.72-37.632.21-.364h43.87l21.92 37.986Zm-86.06 0 21.1 36.55h42.21l21.1-36.55-21.1-36.551h-42.21l-21.1 36.551Zm86.06 149.073-21.72 37.632-.2.364h-43.87l-21.93-37.986 21.72-37.632.21-.364h43.87l21.92 37.986Zm-86.06 0 21.1 36.551h42.21l21.1-36.551-21.1-36.55h-42.21l-21.1 36.55Zm86.06 74.527-21.72 37.632-.2.364h-43.87l-21.93-37.986 21.72-37.632.21-.364h43.87l21.92 37.986Zm-86.06 0 21.1 36.551h42.21l21.1-36.551-21.1-36.55h-42.21l-21.1 36.55Zm151.51-708.079-21.72 37.633-.2.363h-43.87l-21.93-37.986 21.72-37.632.21-.364h43.87l21.92 37.986Zm-86.07 0 21.11 36.551h42.2l21.1-36.551-21.1-36.55h-42.2l-21.11 36.55Zm86.07 74.537-21.72 37.632-.2.364h-43.87l-21.93-37.986 21.72-37.632.21-.364h43.87l21.92 37.986Zm-86.07 0 21.11 36.551h42.2l21.1-36.551-21.1-36.55h-42.2l-21.11 36.55Zm86.07 74.537-21.72 37.632-.2.364h-43.87l-21.93-37.986 21.72-37.633.21-.363h43.87l21.92 37.986Zm-86.07 0 21.11 36.55h42.2l21.1-36.55-21.1-36.551h-42.2l-21.11 36.551Zm86.07 149.073-21.72 37.632-.2.364h-43.87l-21.93-37.986 21.72-37.632.21-.364h43.87l21.92 37.986Zm-86.07 0 21.11 36.551h42.2l21.1-36.551-21.1-36.55h-42.2l-21.11 36.55Zm86.07 74.537-21.72 37.632-.2.364h-43.87l-21.93-37.986 21.72-37.633.21-.363h43.87l21.92 37.986Zm-86.07 0 21.11 36.55h42.2l21.1-36.55-21.1-36.551h-42.2l-21.11 36.551Zm86.07 74.536-21.72 37.633-.2.363h-43.87l-21.93-37.986 21.72-37.632.21-.364h43.87l21.92 37.986Zm-86.07 0 21.11 36.551h42.2l21.1-36.551-21.1-36.55h-42.2l-21.11 36.55Zm86.07 149.074-21.72 37.632-.2.364h-43.87l-21.93-37.986 21.72-37.633.21-.363h43.87l21.92 37.986Zm-86.07 0 21.11 36.55h42.2l21.1-36.55-21.1-36.551h-42.2l-21.11 36.551Zm86.07 74.536-21.72 37.633-.2.363h-43.87l-21.93-37.986 21.72-37.632.21-.364h43.87l21.92 37.986Zm-86.07 0 21.11 36.551h42.2l21.1-36.551-21.1-36.55h-42.2l-21.11 36.55Zm86.07 74.537-21.72 37.632-.2.364h-43.87l-21.93-37.986 21.72-37.632.21-.364h43.87l21.92 37.986Zm-86.07 0 21.11 36.551h42.2l21.1-36.551-21.1-36.55h-42.2l-21.11 36.55ZM2217 78.793l-21.72 37.632-.21.364h-43.86l-21.93-37.986L2151 41.171l.21-.364h43.86L2217 78.793Zm-86.07 0 21.1 36.551h42.21l21.1-36.55-21.1-36.551h-42.21l-21.1 36.55ZM2217 227.867l-21.72 37.632-.21.364h-43.86l-21.93-37.987 21.72-37.632.21-.364h43.86l21.93 37.987Zm-86.07 0 21.1 36.55h42.21l21.1-36.55-21.1-36.551h-42.21l-21.1 36.551Zm86.07 74.536-21.72 37.632-.21.364h-43.86l-21.93-37.986 21.72-37.632.21-.364h43.86l21.93 37.986Zm-86.07 0 21.1 36.551h42.21l21.1-36.551-21.1-36.55h-42.21l-21.1 36.55ZM2217 451.477l-21.72 37.632-.21.364h-43.86l-21.93-37.987 21.72-37.632.21-.364h43.86l21.93 37.987Zm-86.07 0 21.1 36.55h42.21l21.1-36.55-21.1-36.551h-42.21l-21.1 36.551ZM2217 600.55l-21.72 37.632-.21.364h-43.86l-21.93-37.986 21.72-37.632.21-.364h43.86L2217 600.55Zm-86.07 0 21.1 36.55h42.21l21.1-36.55-21.1-36.551h-42.21l-21.1 36.551Zm86.07 74.537-21.72 37.632-.21.364h-43.86l-21.93-37.987 21.72-37.632.21-.364h43.86l21.93 37.987Zm-86.07 0 21.1 36.55h42.21l21.1-36.55-21.1-36.551h-42.21l-21.1 36.551Zm86.07 74.536-21.72 37.632-.21.364h-43.86l-21.93-37.986 21.72-37.632.21-.364h43.86l21.93 37.986Zm-86.07 0 21.1 36.551h42.21l21.1-36.551-21.1-36.55h-42.21l-21.1 36.55ZM2217 824.15l-21.72 37.632-.21.364h-43.86l-21.93-37.986 21.72-37.632.21-.364h43.86L2217 824.15Zm-86.07 0 21.1 36.551h42.21l21.1-36.551-21.1-36.55h-42.21l-21.1 36.55Zm-888.52-708.079-21.72 37.633-.21.363h-43.87l-21.92-37.986 21.72-37.632.2-.364h43.87l21.93 37.986Zm-86.06 0 21.1 36.551h42.2l21.11-36.551-21.11-36.55h-42.2l-21.1 36.55Zm86.06 298.147-21.72 37.632-.21.364h-43.87l-21.92-37.986 21.72-37.632.2-.364h43.87l21.93 37.986Zm-86.06 0 21.1 36.551h42.2l21.11-36.551-21.11-36.55h-42.2l-21.1 36.55Zm86.06 298.147-21.72 37.632-.21.364h-43.87l-21.92-37.986 21.72-37.633.2-.363h43.87l21.93 37.986Zm-86.06 0 21.1 36.55h42.2l21.11-36.55-21.11-36.551h-42.2l-21.1 36.551Zm150.61-633.572-21.72 37.632-.2.364h-43.87l-21.93-37.986 21.72-37.632.21-.364h43.87l21.92 37.986Zm-86.06 0 21.11 36.551h42.2l21.1-36.55-21.1-36.551h-42.2l-21.11 36.55Zm86.06 74.537-21.72 37.632-.2.364h-43.87l-21.93-37.986 21.72-37.632.21-.364h43.87l21.92 37.986Zm-86.06 0 21.11 36.55h42.2l21.1-36.55-21.1-36.551h-42.2l-21.11 36.551Zm86.06 149.073-21.72 37.632-.2.364h-43.87l-21.93-37.986 21.72-37.632.21-.364h43.87l21.92 37.986Zm-86.06 0 21.11 36.551h42.2l21.1-36.551-21.1-36.55h-42.2l-21.11 36.55Zm86.06 149.074-21.72 37.632-.2.364h-43.87l-21.93-37.987 21.72-37.632.21-.364h43.87l21.92 37.987Zm-86.06 0 21.11 36.55h42.2l21.1-36.55-21.1-36.551h-42.2l-21.11 36.551Zm86.06 149.073-21.72 37.632-.2.364h-43.87l-21.93-37.986 21.72-37.632.21-.364h43.87l21.92 37.986Zm-86.06 0 21.11 36.55h42.2l21.1-36.55-21.1-36.551h-42.2l-21.11 36.551Zm86.06 149.073-21.72 37.632-.2.364h-43.87l-21.93-37.986 21.72-37.632.21-.364h43.87l21.92 37.986Zm-86.06 0 21.11 36.551h42.2l21.1-36.551-21.1-36.55h-42.2l-21.11 36.55Zm151.52-559.015-21.73 37.632-.2.364h-43.87l-21.93-37.986 21.72-37.632.21-.364h43.87l21.93 37.986Zm-86.08 0 21.11 36.551h42.2l21.1-36.551-21.1-36.55h-42.2l-21.11 36.55Zm86.08 149.073-21.73 37.633-.2.363h-43.87l-21.93-37.986 21.72-37.632.21-.364h43.87l21.93 37.986Zm-86.08 0 21.11 36.551h42.2l21.1-36.551-21.1-36.55h-42.2l-21.11 36.55Zm86.08 74.537-21.73 37.632-.2.364h-43.87l-21.93-37.986 21.72-37.632.21-.364h43.87l21.93 37.986Zm-86.08 0 21.11 36.551h42.2l21.1-36.551-21.1-36.55h-42.2l-21.11 36.55Zm86.08 74.537-21.73 37.632-.2.364h-43.87l-21.93-37.986 21.72-37.633.21-.363h43.87l21.93 37.986Zm-86.08 0 21.11 36.55h42.2l21.1-36.55-21.1-36.551h-42.2l-21.11 36.551Zm86.08 149.073-21.73 37.632-.2.364h-43.87l-21.93-37.986 21.72-37.632.21-.364h43.87l21.93 37.986Zm-86.08 0 21.11 36.551h42.2l21.1-36.551-21.1-36.55h-42.2l-21.11 36.55Zm86.08 149.073-21.73 37.633-.2.363h-43.87l-21.93-37.986 21.72-37.632.21-.364h43.87l21.93 37.986Zm-86.08 0 21.11 36.551h42.2l21.1-36.551-21.1-36.55h-42.2l-21.11 36.55Zm150.63-633.571-21.72 37.632-.21.364h-43.86l-21.93-37.986 21.72-37.632.21-.364h43.86l21.93 37.986Zm-86.07 0 21.1 36.55h42.21l21.1-36.55-21.1-36.551H1372l-21.1 36.551Zm86.07 149.073-21.72 37.632-.21.364h-43.86l-21.93-37.986 21.72-37.632.21-.364h43.86l21.93 37.986Zm-86.07 0 21.1 36.551h42.21l21.1-36.551-21.1-36.55H1372l-21.1 36.55Zm86.07 149.074-21.72 37.632-.21.364h-43.86l-21.93-37.987 21.72-37.632.21-.364h43.86l21.93 37.987Zm-86.07 0 21.1 36.55h42.21l21.1-36.55-21.1-36.551H1372l-21.1 36.551Zm86.07 223.61-21.72 37.632-.21.364h-43.86l-21.93-37.987 21.72-37.632.21-.364h43.86l21.93 37.987Zm-86.07 0 21.1 36.55h42.21l21.1-36.55-21.1-36.551H1372l-21.1 36.551Zm86.07 74.536-21.72 37.632-.21.364h-43.86l-21.93-37.986 21.72-37.632.21-.364h43.86l21.93 37.986Zm-86.07 0 21.1 36.551h42.21l21.1-36.551-21.1-36.55H1372l-21.1 36.55Zm86.07 74.527-21.72 37.632-.21.364h-43.86l-21.93-37.986 21.72-37.632.21-.364h43.86l21.93 37.986Zm-86.07 0 21.1 36.551h42.21l21.1-36.551-21.1-36.55H1372l-21.1 36.55Zm151.52-708.079-21.72 37.633-.21.363h-43.86l-21.93-37.986 21.72-37.632.21-.364h43.86l21.93 37.986Zm-86.07 0 21.1 36.551h42.21l21.1-36.551-21.1-36.55h-42.21l-21.1 36.55Zm86.07 223.61-21.72 37.633-.21.363h-43.86l-21.93-37.986 21.72-37.632.21-.364h43.86l21.93 37.986Zm-86.07 0 21.1 36.551h42.21l21.1-36.551-21.1-36.55h-42.21l-21.1 36.55Zm86.07 74.537-21.72 37.632-.21.364h-43.86l-21.93-37.986 21.72-37.632.21-.364h43.86l21.93 37.986Zm-86.07 0 21.1 36.551h42.21l21.1-36.551-21.1-36.55h-42.21l-21.1 36.55Zm86.07 74.537-21.72 37.632-.21.364h-43.86l-21.93-37.986 21.72-37.633.21-.363h43.86l21.93 37.986Zm-86.07 0 21.1 36.55h42.21l21.1-36.55-21.1-36.551h-42.21l-21.1 36.551Zm86.07 149.073-21.72 37.632-.21.364h-43.86l-21.93-37.986 21.72-37.632.21-.364h43.86l21.93 37.986Zm-86.07 0 21.1 36.551h42.21l21.1-36.551-21.1-36.55h-42.21l-21.1 36.55Zm86.07 74.537-21.72 37.632-.21.364h-43.86l-21.93-37.986 21.72-37.633.21-.363h43.86l21.93 37.986Zm-86.07 0 21.1 36.55h42.21l21.1-36.55-21.1-36.551h-42.21l-21.1 36.551Zm86.07 74.536-21.72 37.633-.21.363h-43.86l-21.93-37.986 21.72-37.632.21-.364h43.86l21.93 37.986Zm-86.07 0 21.1 36.551h42.21l21.1-36.551-21.1-36.55h-42.21l-21.1 36.55Zm150.63-559.034-21.72 37.632-.21.364h-43.87l-21.93-37.987 21.73-37.632.2-.364h43.87l21.93 37.987Zm-86.07 0 21.1 36.55h42.2l21.11-36.55-21.11-36.551h-42.2l-21.1 36.551Zm86.07 74.536-21.72 37.632-.21.364h-43.87l-21.93-37.986 21.73-37.632.2-.364h43.87l21.93 37.986Zm-86.07 0 21.1 36.551h42.2l21.11-36.551-21.11-36.55h-42.2l-21.1 36.55Zm86.07 74.537-21.72 37.632-.21.364h-43.87l-21.93-37.986 21.73-37.632.2-.364h43.87l21.93 37.986Zm-86.07 0 21.1 36.55h42.2l21.11-36.55-21.11-36.551h-42.2l-21.1 36.551Zm86.07 74.537-21.72 37.632-.21.364h-43.87l-21.93-37.987 21.73-37.632.2-.364h43.87l21.93 37.987Zm-86.07 0 21.1 36.55h42.2l21.11-36.55-21.11-36.551h-42.2l-21.1 36.551Zm86.07 149.073-21.72 37.632-.21.364h-43.87l-21.93-37.986 21.73-37.632.2-.364h43.87l21.93 37.986Zm-86.07 0 21.1 36.55h42.2l21.11-36.55-21.11-36.551h-42.2l-21.1 36.551Zm86.07 74.537-21.72 37.632-.21.364h-43.87l-21.93-37.987 21.73-37.632.2-.364h43.87l21.93 37.987Zm-86.07 0 21.1 36.55h42.2l21.11-36.55-21.11-36.551h-42.2l-21.1 36.551Zm151.52-559.016-21.72 37.633-.21.363h-43.87l-21.93-37.986 21.73-37.632.2-.364h43.87l21.93 37.986Zm-86.07 0 21.1 36.551h42.2l21.11-36.551-21.11-36.55h-42.2l-21.1 36.55Zm86.07 74.537-21.72 37.632-.21.364h-43.87l-21.93-37.986 21.73-37.632.2-.364h43.87l21.93 37.986Zm-86.07 0 21.1 36.551h42.2l21.11-36.551-21.11-36.55h-42.2l-21.1 36.55Zm86.07 74.537-21.72 37.632-.21.364h-43.87l-21.93-37.986 21.73-37.633.2-.363h43.87l21.93 37.986Zm-86.07 0 21.1 36.55h42.2l21.11-36.55-21.11-36.551h-42.2l-21.1 36.551Zm86.07 74.536-21.72 37.633-.21.363h-43.87l-21.93-37.986 21.73-37.632.2-.364h43.87l21.93 37.986Zm-86.07 0 21.1 36.551h42.2l21.11-36.551-21.11-36.55h-42.2l-21.1 36.55Zm86.07 223.61-21.72 37.633-.21.363h-43.87l-21.93-37.986 21.73-37.632.2-.364h43.87l21.93 37.986Zm-86.07 0 21.1 36.551h42.2l21.11-36.551-21.11-36.55h-42.2l-21.1 36.55Zm86.07 74.537-21.72 37.632-.21.364h-43.87l-21.93-37.986 21.73-37.632.2-.364h43.87l21.93 37.986Zm-86.07 0 21.1 36.551h42.2l21.11-36.551-21.11-36.55h-42.2l-21.1 36.55Zm86.07 74.537-21.72 37.632-.21.364h-43.87l-21.93-37.986 21.73-37.633.2-.363h43.87l21.93 37.986Zm-86.07 0 21.1 36.55h42.2l21.11-36.55-21.11-36.551h-42.2l-21.1 36.551Zm86.07 74.536-21.72 37.633-.21.363h-43.87l-21.93-37.986 21.73-37.632.2-.364h43.87l21.93 37.986Zm-86.07 0 21.1 36.551h42.2l21.11-36.551-21.11-36.55h-42.2l-21.1 36.55Zm86.07 74.537-21.72 37.632-.21.364h-43.87l-21.93-37.986 21.73-37.632.2-.364h43.87l21.93 37.986Zm-86.07 0 21.1 36.551h42.2l21.11-36.551-21.11-36.55h-42.2l-21.1 36.55Zm150.62-782.645-21.72 37.632-.2.364h-43.87l-21.93-37.986 21.72-37.632.21-.364h43.87l21.92 37.986Zm-86.07 0 21.11 36.551h42.2l21.1-36.55-21.1-36.551h-42.2l-21.11 36.55Zm86.07 74.537-21.72 37.632-.2.364h-43.87l-21.93-37.986 21.72-37.632.21-.364h43.87l21.92 37.986Zm-86.07 0 21.11 36.55h42.2l21.1-36.55-21.1-36.551h-42.2l-21.11 36.551Zm86.07 149.073-21.72 37.632-.2.364h-43.87l-21.93-37.986 21.72-37.632.21-.364h43.87l21.92 37.986Zm-86.07 0 21.11 36.551h42.2l21.1-36.551-21.1-36.55h-42.2l-21.11 36.55Zm86.07 149.074-21.72 37.632-.2.364h-43.87l-21.93-37.987 21.72-37.632.21-.364h43.87l21.92 37.987Zm-86.07 0 21.11 36.55h42.2l21.1-36.55-21.1-36.551h-42.2l-21.11 36.551Zm86.07 74.536-21.72 37.632-.2.364h-43.87l-21.93-37.986 21.72-37.632.21-.364h43.87l21.92 37.986Zm-86.07 0 21.11 36.551h42.2l21.1-36.551-21.1-36.55h-42.2l-21.11 36.55Zm86.07 74.537-21.72 37.632-.2.364h-43.87l-21.93-37.986 21.72-37.632.21-.364h43.87l21.92 37.986Zm-86.07 0 21.11 36.55h42.2l21.1-36.55-21.1-36.551h-42.2l-21.11 36.551Zm86.07 149.073-21.72 37.632-.2.364h-43.87l-21.93-37.986 21.72-37.632.21-.364h43.87l21.92 37.986Zm-86.07 0 21.11 36.551h42.2l21.1-36.551-21.1-36.55h-42.2l-21.11 36.55Zm151.51-559.015-21.72 37.632-.2.364h-43.87l-21.93-37.986 21.72-37.632.21-.364h43.87l21.92 37.986Zm-86.06 0 21.11 36.551h42.2l21.1-36.551-21.1-36.55h-42.2l-21.11 36.55Zm86.06 149.073-21.72 37.633-.2.363h-43.87l-21.93-37.986 21.72-37.632.21-.364h43.87l21.92 37.986Zm-86.06 0 21.11 36.551h42.2l21.1-36.551-21.1-36.55h-42.2l-21.11 36.55Zm86.06 149.074-21.72 37.632-.2.364h-43.87l-21.93-37.986 21.72-37.633.21-.363h43.87l21.92 37.986Zm-86.06 0 21.11 36.55h42.2l21.1-36.55-21.1-36.551h-42.2l-21.11 36.551Zm86.06 74.536-21.72 37.633-.2.363h-43.87l-21.93-37.986 21.72-37.632.21-.364h43.87l21.92 37.986Zm-86.06 0 21.11 36.551h42.2l21.1-36.551-21.1-36.55h-42.2l-21.11 36.55Zm86.06 149.074-21.72 37.632-.2.364h-43.87l-21.93-37.986 21.72-37.633.21-.363h43.87l21.92 37.986Zm-86.06 0 21.11 36.55h42.2l21.1-36.55-21.1-36.551h-42.2l-21.11 36.551Zm86.06 74.536-21.72 37.633-.2.363h-43.87l-21.93-37.986 21.72-37.632.21-.364h43.87l21.92 37.986Zm-86.06 0 21.11 36.551h42.2l21.1-36.551-21.1-36.55h-42.2l-21.11 36.55Zm86.06 74.537-21.72 37.632-.2.364h-43.87l-21.93-37.986 21.72-37.632.21-.364h43.87l21.92 37.986Zm-86.06 0 21.11 36.551h42.2l21.1-36.551-21.1-36.55h-42.2l-21.11 36.55Zm150.63-633.571-21.72 37.632-.21.364h-43.86l-21.93-37.987 21.72-37.632.21-.364h43.86l21.93 37.987Zm-86.07 0 21.1 36.55h42.21l21.1-36.55-21.1-36.551h-42.21l-21.1 36.551Zm86.07 74.536-21.72 37.632-.21.364h-43.86l-21.93-37.986 21.72-37.632.21-.364h43.86l21.93 37.986Zm-86.07 0 21.1 36.551h42.21l21.1-36.551-21.1-36.55h-42.21l-21.1 36.55Zm86.07 74.537-21.72 37.632-.21.364h-43.86l-21.93-37.986 21.72-37.632.21-.364h43.86l21.93 37.986Zm-86.07 0 21.1 36.55h42.21l21.1-36.55-21.1-36.551h-42.21l-21.1 36.551Zm86.07 74.537-21.72 37.632-.21.364h-43.86l-21.93-37.987 21.72-37.632.21-.364h43.86l21.93 37.987Zm-86.07 0 21.1 36.55h42.21l21.1-36.55-21.1-36.551h-42.21l-21.1 36.551Zm86.07 74.536-21.72 37.632-.21.364h-43.86l-21.93-37.986 21.72-37.632.21-.364h43.86l21.93 37.986Zm-86.07 0 21.1 36.551h42.21l21.1-36.551-21.1-36.55h-42.21l-21.1 36.55Zm86.07 74.537-21.72 37.632-.21.364h-43.86l-21.93-37.986 21.72-37.632.21-.364h43.86l21.93 37.986Zm-86.07 0 21.1 36.55h42.21l21.1-36.55-21.1-36.551h-42.21l-21.1 36.551Zm151.51-484.479-21.72 37.633-.21.363h-43.86l-21.93-37.986 21.72-37.632.21-.364h43.86l21.93 37.986Zm-86.06 0 21.1 36.551h42.21l21.1-36.551-21.1-36.55h-42.21l-21.1 36.55Zm86.06 74.537-21.72 37.632-.21.364h-43.86l-21.93-37.986 21.72-37.632.21-.364h43.86l21.93 37.986Zm-86.06 0 21.1 36.551h42.21l21.1-36.551-21.1-36.55h-42.21l-21.1 36.55Zm86.06 74.537-21.72 37.632-.21.364h-43.86l-21.93-37.986 21.72-37.633.21-.363h43.86l21.93 37.986Zm-86.06 0 21.1 36.55h42.21l21.1-36.55-21.1-36.551h-42.21l-21.1 36.551Zm86.06 149.073-21.72 37.632-.21.364h-43.86l-21.93-37.986 21.72-37.632.21-.364h43.86l21.93 37.986Zm-86.06 0 21.1 36.551h42.21l21.1-36.551-21.1-36.55h-42.21l-21.1 36.55Zm86.06 149.073-21.72 37.633-.21.363h-43.86l-21.93-37.986 21.72-37.632.21-.364h43.86l21.93 37.986Zm-86.06 0 21.1 36.551h42.21l21.1-36.551-21.1-36.55h-42.21l-21.1 36.55Zm86.06 74.537-21.72 37.632-.21.364h-43.86l-21.93-37.986 21.72-37.632.21-.364h43.86l21.93 37.986Zm-86.06 0 21.1 36.551h42.21l21.1-36.551-21.1-36.55h-42.21l-21.1 36.55Zm86.06 74.537-21.72 37.632-.21.364h-43.86l-21.93-37.986 21.72-37.633.21-.363h43.86l21.93 37.986Zm-86.06 0 21.1 36.55h42.21l21.1-36.55-21.1-36.551h-42.21l-21.1 36.551Zm150.62-633.572-21.72 37.632-.21.364h-43.87l-21.93-37.986 21.73-37.632.2-.364h43.87l21.93 37.986Zm-86.06 0 21.1 36.551h42.2l21.11-36.55-21.11-36.551h-42.2l-21.1 36.55Zm86.06 74.537-21.72 37.632-.21.364h-43.87l-21.93-37.986 21.73-37.632.2-.364h43.87l21.93 37.986Zm-86.06 0 21.1 36.55h42.2l21.11-36.55-21.11-36.551h-42.2l-21.1 36.551Zm86.06 74.537-21.72 37.632-.21.364h-43.87l-21.93-37.987 21.73-37.632.2-.364h43.87l21.93 37.987Zm-86.06 0 21.1 36.55h42.2l21.11-36.55-21.11-36.551h-42.2l-21.1 36.551Zm86.06 74.536-21.72 37.632-.21.364h-43.87l-21.93-37.986 21.73-37.632.2-.364h43.87l21.93 37.986Zm-86.06 0 21.1 36.551h42.2l21.11-36.551-21.11-36.55h-42.2l-21.1 36.55Zm86.06 74.537-21.72 37.632-.21.364h-43.87l-21.93-37.986 21.73-37.632.2-.364h43.87l21.93 37.986Zm-86.06 0 21.1 36.55h42.2l21.11-36.55-21.11-36.551h-42.2l-21.1 36.551Zm86.06 149.073-21.72 37.632-.21.364h-43.87l-21.93-37.986 21.73-37.632.2-.364h43.87l21.93 37.986Zm-86.06 0 21.1 36.551h42.2l21.11-36.551-21.11-36.55h-42.2l-21.1 36.55Zm86.06 74.537-21.72 37.632-.21.364h-43.87l-21.93-37.986 21.73-37.632.2-.364h43.87l21.93 37.986Zm-86.06 0 21.1 36.55h42.2l21.11-36.55-21.11-36.551h-42.2l-21.1 36.551Zm86.06 74.537-21.72 37.632-.21.364h-43.87l-21.93-37.987 21.73-37.632.2-.364h43.87l21.93 37.987Zm-86.06 0 21.1 36.55h42.2l21.11-36.55-21.11-36.551h-42.2l-21.1 36.551Zm86.06 74.536-21.72 37.632-.21.364h-43.87l-21.93-37.986 21.73-37.632.2-.364h43.87l21.93 37.986Zm-86.06 0 21.1 36.551h42.2l21.11-36.551-21.11-36.55h-42.2l-21.1 36.55Zm86.06 74.527-21.72 37.632-.21.364h-43.87l-21.93-37.986 21.73-37.632.2-.364h43.87l21.93 37.986Zm-86.06 0 21.1 36.551h42.2l21.11-36.551-21.11-36.55h-42.2l-21.1 36.55Zm151.51-708.079-21.72 37.633-.21.363h-43.87l-21.93-37.986 21.73-37.632.2-.364h43.87l21.93 37.986Zm-86.06 0 21.1 36.551h42.2l21.11-36.551-21.11-36.55h-42.2l-21.1 36.55Zm86.06 74.537-21.72 37.632-.21.364h-43.87l-21.93-37.986 21.73-37.632.2-.364h43.87l21.93 37.986Zm-86.06 0 21.1 36.551h42.2l21.11-36.551-21.11-36.55h-42.2l-21.1 36.55Zm86.06 149.073-21.72 37.633-.21.363h-43.87l-21.93-37.986 21.73-37.632.2-.364h43.87l21.93 37.986Zm-86.06 0 21.1 36.551h42.2l21.11-36.551-21.11-36.55h-42.2l-21.1 36.55Zm86.06 74.537-21.72 37.632-.21.364h-43.87l-21.93-37.986 21.73-37.632.2-.364h43.87l21.93 37.986Zm-86.06 0 21.1 36.551h42.2l21.11-36.551-21.11-36.55h-42.2l-21.1 36.55Zm86.06 74.537-21.72 37.632-.21.364h-43.87l-21.93-37.986 21.73-37.633.2-.363h43.87l21.93 37.986Zm-86.06 0 21.1 36.55h42.2l21.11-36.55-21.11-36.551h-42.2l-21.1 36.551Zm86.06 149.073-21.72 37.632-.21.364h-43.87l-21.93-37.986 21.73-37.632.2-.364h43.87l21.93 37.986Zm-86.06 0 21.1 36.551h42.2l21.11-36.551-21.11-36.55h-42.2l-21.1 36.55Zm86.06 74.537-21.72 37.632-.21.364h-43.87l-21.93-37.986 21.73-37.633.2-.363h43.87l21.93 37.986Zm-86.06 0 21.1 36.55h42.2l21.11-36.55-21.11-36.551h-42.2l-21.1 36.551Zm86.06 74.536-21.72 37.633-.21.363h-43.87l-21.93-37.986 21.73-37.632.2-.364h43.87l21.93 37.986Zm-86.06 0 21.1 36.551h42.2l21.11-36.551-21.11-36.55h-42.2l-21.1 36.55Zm86.06 74.537-21.72 37.632-.21.364h-43.87l-21.93-37.986 21.73-37.632.2-.364h43.87l21.93 37.986Zm-86.06 0 21.1 36.551h42.2l21.11-36.551-21.11-36.55h-42.2l-21.1 36.55Zm150.61-782.645-21.72 37.632-.2.364h-43.87l-21.93-37.986 21.72-37.632.21-.364h43.87l21.92 37.986Zm-86.06 0 21.1 36.551h42.21l21.1-36.55-21.1-36.551h-42.21l-21.1 36.55Zm86.06 74.537-21.72 37.632-.2.364h-43.87l-21.93-37.986 21.72-37.632.21-.364h43.87l21.92 37.986Zm-86.06 0 21.1 36.55h42.21l21.1-36.55-21.1-36.551h-42.21l-21.1 36.551Zm86.06 74.537-21.72 37.632-.2.364h-43.87l-21.93-37.987 21.72-37.632.21-.364h43.87l21.92 37.987Zm-86.06 0 21.1 36.55h42.21l21.1-36.55-21.1-36.551h-42.21l-21.1 36.551Zm86.06 149.073-21.72 37.632-.2.364h-43.87l-21.93-37.986 21.72-37.632.21-.364h43.87l21.92 37.986Zm-86.06 0 21.1 36.55h42.21l21.1-36.55-21.1-36.551h-42.21l-21.1 36.551Zm86.06 74.537-21.72 37.632-.2.364h-43.87l-21.93-37.987 21.72-37.632.21-.364h43.87l21.92 37.987Zm-86.06 0 21.1 36.55h42.21l21.1-36.55-21.1-36.551h-42.21l-21.1 36.551Zm86.06 74.536-21.72 37.632-.2.364h-43.87l-21.93-37.986 21.72-37.632.21-.364h43.87l21.92 37.986Zm-86.06 0 21.1 36.551h42.21l21.1-36.551-21.1-36.55h-42.21l-21.1 36.55Zm86.06 74.537-21.72 37.632-.2.364h-43.87l-21.93-37.986 21.72-37.632.21-.364h43.87l21.92 37.986Zm-86.06 0 21.1 36.55h42.21l21.1-36.55-21.1-36.551h-42.21l-21.1 36.551Zm86.06 149.073-21.72 37.632-.2.364h-43.87l-21.93-37.986 21.72-37.632.21-.364h43.87l21.92 37.986Zm-86.06 0 21.1 36.551h42.21l21.1-36.551-21.1-36.55h-42.21l-21.1 36.55Zm86.06 74.527-21.72 37.632-.2.364h-43.87l-21.93-37.986 21.72-37.632.21-.364h43.87l21.92 37.986Zm-86.06 0 21.1 36.551h42.21l21.1-36.551-21.1-36.55h-42.21l-21.1 36.55Zm151.51-708.079-21.72 37.633-.2.363h-43.87l-21.93-37.986 21.72-37.632.21-.364h43.87l21.92 37.986Zm-86.07 0 21.11 36.551h42.2l21.1-36.551-21.1-36.55h-42.2l-21.11 36.55Zm86.07 74.537-21.72 37.632-.2.364h-43.87l-21.93-37.986 21.72-37.632.21-.364h43.87l21.92 37.986Zm-86.07 0 21.11 36.551h42.2l21.1-36.551-21.1-36.55h-42.2l-21.11 36.55Zm86.07 74.537-21.72 37.632-.2.364h-43.87l-21.93-37.986 21.72-37.633.21-.363h43.87l21.92 37.986Zm-86.07 0 21.11 36.55h42.2l21.1-36.55-21.1-36.551h-42.2l-21.11 36.551Zm86.07 149.073-21.72 37.632-.2.364h-43.87l-21.93-37.986 21.72-37.632.21-.364h43.87l21.92 37.986Zm-86.07 0 21.11 36.551h42.2l21.1-36.551-21.1-36.55h-42.2l-21.11 36.55Zm86.07 74.537-21.72 37.632-.2.364h-43.87l-21.93-37.986 21.72-37.633.21-.363h43.87l21.92 37.986Zm-86.07 0 21.11 36.55h42.2l21.1-36.55-21.1-36.551h-42.2l-21.11 36.551Zm86.07 74.536-21.72 37.633-.2.363h-43.87l-21.93-37.986 21.72-37.632.21-.364h43.87l21.92 37.986Zm-86.07 0 21.11 36.551h42.2l21.1-36.551-21.1-36.55h-42.2l-21.11 36.55Zm86.07 149.074-21.72 37.632-.2.364h-43.87l-21.93-37.986 21.72-37.633.21-.363h43.87l21.92 37.986Zm-86.07 0 21.11 36.55h42.2l21.1-36.55-21.1-36.551h-42.2l-21.11 36.551Zm86.07 74.536-21.72 37.633-.2.363h-43.87l-21.93-37.986 21.72-37.632.21-.364h43.87l21.92 37.986Zm-86.07 0 21.11 36.551h42.2l21.1-36.551-21.1-36.55h-42.2l-21.11 36.55Zm86.07 74.537-21.72 37.632-.2.364h-43.87l-21.93-37.986 21.72-37.632.21-.364h43.87l21.92 37.986Zm-86.07 0 21.11 36.551h42.2l21.1-36.551-21.1-36.55h-42.2l-21.11 36.55ZM2217 78.793l-21.72 37.632-.21.364h-43.86l-21.93-37.986L2151 41.171l.21-.364h43.86L2217 78.793Zm-86.07 0 21.1 36.551h42.21l21.1-36.55-21.1-36.551h-42.21l-21.1 36.55ZM2217 227.867l-21.72 37.632-.21.364h-43.86l-21.93-37.987 21.72-37.632.21-.364h43.86l21.93 37.987Zm-86.07 0 21.1 36.55h42.21l21.1-36.55-21.1-36.551h-42.21l-21.1 36.551Zm86.07 74.536-21.72 37.632-.21.364h-43.86l-21.93-37.986 21.72-37.632.21-.364h43.86l21.93 37.986Zm-86.07 0 21.1 36.551h42.21l21.1-36.551-21.1-36.55h-42.21l-21.1 36.55ZM2217 451.477l-21.72 37.632-.21.364h-43.86l-21.93-37.987 21.72-37.632.21-.364h43.86l21.93 37.987Zm-86.07 0 21.1 36.55h42.21l21.1-36.55-21.1-36.551h-42.21l-21.1 36.551ZM2217 600.55l-21.72 37.632-.21.364h-43.86l-21.93-37.986 21.72-37.632.21-.364h43.86L2217 600.55Zm-86.07 0 21.1 36.55h42.21l21.1-36.55-21.1-36.551h-42.21l-21.1 36.551Zm86.07 74.537-21.72 37.632-.21.364h-43.86l-21.93-37.987 21.72-37.632.21-.364h43.86l21.93 37.987Zm-86.07 0 21.1 36.55h42.21l21.1-36.55-21.1-36.551h-42.21l-21.1 36.551Zm86.07 74.536-21.72 37.632-.21.364h-43.86l-21.93-37.986 21.72-37.632.21-.364h43.86l21.93 37.986Zm-86.07 0 21.1 36.551h42.21l21.1-36.551-21.1-36.55h-42.21l-21.1 36.55ZM2217 824.15l-21.72 37.632-.21.364h-43.86l-21.93-37.986 21.72-37.632.21-.364h43.86L2217 824.15Zm-86.07 0 21.1 36.551h42.21l21.1-36.551-21.1-36.55h-42.21l-21.1 36.55Z" style="mix-blend-mode:lighten"/>
    <path fill="url(#d)" d="M-1-87h1444v760H-1z"/>
    <path fill="url(#e)" d="M-1-87h1444v760H-1z"/>
    <path fill="url(#f)" d="M-1-87h1444v760H-1z"/>
    <path fill="url(#g)" d="M0 0h1444v972H0z" transform="matrix(1 0 0 -1 -1 972)"/>
    <path fill="url(#h)" d="M0 0h1444v972H0z" transform="matrix(1 0 0 -1 -1 972)"/>
    <path fill="url(#i)" d="M0 0h1444v972H0z" transform="matrix(1 0 0 -1 -1 972)"/>
  </g>
  <defs>
    <linearGradient id="b" x1="-787" x2="275.324" y1="400.13" y2="400.13" gradientUnits="userSpaceOnUse">
      <stop stop-color="#6B862B" stop-opacity=".6"/>
      <stop offset=".5" stop-color="#9AC12A" stop-opacity=".4"/>
      <stop offset="1" stop-color="#00A164"/>
    </linearGradient>
    <linearGradient id="c" x1="2217" x2="1154.68" y1="470.111" y2="470.111" gradientUnits="userSpaceOnUse">
      <stop stop-color="#6B862B" stop-opacity=".6"/>
      <stop offset=".5" stop-color="#9AC12A" stop-opacity=".4"/>
      <stop offset="1" stop-color="#00A164"/>
    </linearGradient>
    <linearGradient id="d" x1="721" x2="721" y1="527.726" y2="673" gradientUnits="userSpaceOnUse">
      <stop stop-color="#075F55" stop-opacity="0"/>
      <stop offset=".855" stop-color="#075F55" stop-opacity=".381"/>
      <stop offset="1" stop-color="#075F55"/>
    </linearGradient>
    <linearGradient id="e" x1="721" x2="721" y1="527.726" y2="673" gradientUnits="userSpaceOnUse">
      <stop stop-color="#075F55" stop-opacity="0"/>
      <stop offset=".855" stop-color="#075F55" stop-opacity=".381"/>
      <stop offset="1" stop-color="#075F55"/>
    </linearGradient>
    <linearGradient id="f" x1="721" x2="721" y1="527.726" y2="673" gradientUnits="userSpaceOnUse">
      <stop stop-color="#075F55" stop-opacity="0"/>
      <stop offset=".855" stop-color="#075F55" stop-opacity=".381"/>
      <stop offset="1" stop-color="#075F55"/>
    </linearGradient>
    <linearGradient id="g" x1="722" x2="722" y1="786.202" y2="972" gradientUnits="userSpaceOnUse">
      <stop stop-color="#075F55" stop-opacity="0"/>
      <stop offset=".855" stop-color="#075F55" stop-opacity=".381"/>
      <stop offset="1" stop-color="#075F55"/>
    </linearGradient>
    <linearGradient id="h" x1="722" x2="722" y1="786.202" y2="972" gradientUnits="userSpaceOnUse">
      <stop stop-color="#075F55" stop-opacity="0"/>
      <stop offset=".855" stop-color="#075F55" stop-opacity=".381"/>
      <stop offset="1" stop-color="#075F55"/>
    </linearGradient>
    <linearGradient id="i" x1="722" x2="722" y1="786.202" y2="972" gradientUnits="userSpaceOnUse">
      <stop stop-color="#075F55" stop-opacity="0"/>
      <stop offset=".855" stop-color="#075F55" stop-opacity=".381"/>
      <stop offset="1" stop-color="#075F55"/>
    </linearGradient>
    <clipPath id="a">
      <path fill="#fff" d="M0 0h1440v672H0z"/>
    </clipPath>
  </defs>
</svg>
