<svg xmlns="http://www.w3.org/2000/svg" width="1440" height="674" fill="none" viewBox="0 0 1440 674">
  <path fill="#075F55" d="M0 0h1440v674H0z"/>
  <g clip-path="url(#a)">
    <path fill="url(#b)" d="m1058.29 685.17 18.99-32.915.18-.318h38.36l19.18 33.224-19 32.915-.18.319h-38.36l-19.17-33.225Zm75.26 0-18.46-31.969h-36.91l-18.45 31.969 18.45 31.969h36.91l18.46-31.969Zm-75.26-260.775 18.99-32.915.18-.318h38.36l19.18 33.225-19 32.915-.18.318h-38.36l-19.17-33.225Zm75.26 0-18.46-31.969h-36.91l-18.45 31.969 18.45 31.969h36.91l18.46-31.969Zm-75.26-260.774 18.99-32.915.18-.319h38.36l19.18 33.225-19 32.915-.18.318h-38.36l-19.17-33.224Zm75.26 0-18.46-31.969h-36.91l-18.45 31.969 18.45 31.969h36.91l18.46-31.969Zm-131.72 554.154 19-32.915.18-.318h38.36l19.18 33.225-19 32.915-.18.318h-38.36l-19.18-33.225Zm75.26 0-18.45-31.969h-36.91l-18.45 31.969 18.45 31.969h36.91l18.45-31.969Zm-75.26-65.193 19-32.915.18-.319h38.36l19.18 33.225-19 32.915-.18.318h-38.36l-19.18-33.224Zm75.26 0-18.45-31.969h-36.91l-18.45 31.969 18.45 31.969h36.91l18.45-31.969Zm-75.26-130.388 19-32.915.18-.318h38.36l19.18 33.225-19 32.915-.18.318h-38.36l-19.18-33.225Zm75.26 0-18.45-31.969h-36.91l-18.45 31.969 18.45 31.969h36.91l18.45-31.969Zm-75.26-130.387 19-32.915.18-.318h38.36l19.18 33.224-19 32.915-.18.319h-38.36l-19.18-33.225Zm75.26 0-18.45-31.969h-36.91l-18.45 31.969 18.45 31.969h36.91l18.45-31.969Zm-75.26-130.387 19-32.915.18-.319h38.36l19.18 33.225-19 32.915-.18.318h-38.36l-19.18-33.224Zm75.26 0-18.45-31.969h-36.91l-18.45 31.969 18.45 31.969h36.91l18.45-31.969Zm-75.26-130.388 19-32.915.18-.318h38.36l19.18 33.225-19 32.915-.18.318h-38.36l-19.18-33.225Zm75.26 0-18.45-31.969h-36.91l-18.45 31.969 18.45 31.969h36.91l18.45-31.969ZM944.594 619.976l18.996-32.915.181-.318h38.359l19.18 33.225-19 32.915-.18.318h-38.359l-19.177-33.225Zm75.266 0-18.45-31.969h-36.908l-18.454 31.969 18.454 31.969h36.908l18.45-31.969Zm-75.266-130.387 18.996-32.915.181-.318h38.359l19.18 33.224-19 32.915-.18.319h-38.359l-19.177-33.225Zm75.266 0-18.45-31.969h-36.908l-18.454 31.969 18.454 31.969h36.908l18.45-31.969Zm-75.266-65.194 18.996-32.915.181-.318h38.359l19.18 33.225-19 32.915-.18.318h-38.359l-19.177-33.225Zm75.266 0-18.45-31.969h-36.908l-18.454 31.969 18.454 31.969h36.908l18.45-31.969Zm-75.266-65.193 18.996-32.915.181-.319h38.359l19.18 33.225-19 32.915-.18.318h-38.359l-19.177-33.224Zm75.266 0-18.45-31.969h-36.908l-18.454 31.969 18.454 31.969h36.908l18.45-31.969Zm-75.266-130.388 18.996-32.915.181-.318h38.359l19.18 33.225-19 32.915-.18.318h-38.359l-19.177-33.225Zm75.266 0-18.45-31.969h-36.908l-18.454 31.969 18.454 31.969h36.908l18.45-31.969ZM944.594 98.427l18.996-32.915.181-.318h38.359l19.18 33.224-19 32.915-.18.319h-38.359l-19.177-33.225Zm75.266 0-18.45-31.969h-36.908l-18.454 31.969 18.454 31.969h36.908l18.45-31.969ZM888.14 652.582l18.996-32.915.18-.319h38.362l19.176 33.225-18.996 32.915-.18.318h-38.362l-19.176-33.224Zm75.27 0-18.455-31.969h-36.908l-18.454 31.969 18.454 31.969h36.908l18.455-31.969Zm-75.27-130.388 18.996-32.915.18-.318h38.362l19.176 33.225-18.996 32.915-.18.318h-38.362l-19.176-33.225Zm75.27 0-18.455-31.969h-36.908l-18.454 31.969 18.454 31.969h36.908l18.455-31.969Zm-75.27-130.387 18.996-32.915.18-.318h38.362l19.176 33.224-18.996 32.915-.18.319h-38.362l-19.176-33.225Zm75.27 0-18.455-31.969h-36.908l-18.454 31.969 18.454 31.969h36.908l18.455-31.969Zm-75.27-195.581 18.996-32.915.18-.318h38.362l19.176 33.224-18.996 32.915-.18.319h-38.362l-19.176-33.225Zm75.27 0-18.455-31.969h-36.908l-18.454 31.969 18.454 31.969h36.908l18.455-31.969Zm-75.27-65.194 18.996-32.915.18-.318h38.362l19.176 33.225-18.996 32.915-.18.318h-38.362l-19.176-33.225Zm75.27 0-18.455-31.969h-36.908l-18.454 31.969 18.454 31.969h36.908l18.455-31.969Zm-75.27-65.185 18.996-32.915.18-.318h38.362l19.176 33.225-18.996 32.915-.18.318h-38.362L888.14 65.847Zm75.27 0-18.455-31.969h-36.908l-18.454 31.97 18.454 31.968h36.908l18.455-31.969ZM830.903 685.17l18.996-32.915.18-.318h38.362l19.176 33.224-18.996 32.915-.18.319h-38.362l-19.176-33.225Zm75.27 0-18.455-31.969H850.81l-18.454 31.969 18.454 31.969h36.908l18.455-31.969Zm-75.27-195.581 18.996-32.915.18-.318h38.362l19.176 33.224-18.996 32.915-.18.319h-38.362l-19.176-33.225Zm75.27 0-18.455-31.969H850.81l-18.454 31.969 18.454 31.969h36.908l18.455-31.969Zm-75.27-65.194 18.996-32.915.18-.318h38.362l19.176 33.225-18.996 32.915-.18.318h-38.362l-19.176-33.225Zm75.27 0-18.455-31.969H850.81l-18.454 31.969 18.454 31.969h36.908l18.455-31.969Zm-75.27-65.193 18.996-32.915.18-.319h38.362l19.176 33.225-18.996 32.915-.18.318h-38.362l-19.176-33.224Zm75.27 0-18.455-31.969H850.81l-18.454 31.969 18.454 31.969h36.908l18.455-31.969Zm-75.27-130.388 18.996-32.915.18-.318h38.362l19.176 33.225-18.996 32.915-.18.318h-38.362l-19.176-33.225Zm75.27 0-18.455-31.969H850.81l-18.454 31.969 18.454 31.969h36.908l18.455-31.969Zm-75.27-65.193 18.996-32.915.18-.319h38.362l19.176 33.225-18.996 32.915-.18.318h-38.362l-19.176-33.224Zm75.27 0-18.455-31.969H850.81l-18.454 31.969 18.454 31.969h36.908l18.455-31.969Zm-75.27-65.194 18.996-32.915.18-.318h38.362l19.176 33.224-18.996 32.915-.18.319h-38.362l-19.176-33.225Zm75.27 0-18.455-31.969H850.81l-18.454 31.969 18.454 31.969h36.908l18.455-31.969ZM774.448 587.388l18.996-32.915.181-.318h38.361l19.177 33.224-18.996 32.915-.181.319h-38.361l-19.177-33.225Zm75.27 0-18.454-31.969h-36.908l-18.454 31.969 18.454 31.969h36.908l18.454-31.969Zm-75.27-65.194 18.996-32.915.181-.318h38.361l19.177 33.225-18.996 32.915-.181.318h-38.361l-19.177-33.225Zm75.27 0-18.454-31.969h-36.908l-18.454 31.969 18.454 31.969h36.908l18.454-31.969Zm-75.27-65.193 18.996-32.915.181-.319h38.361l19.177 33.225-18.996 32.915-.181.318h-38.361l-19.177-33.224Zm75.27 0-18.454-31.969h-36.908l-18.454 31.969 18.454 31.969h36.908l18.454-31.969Zm-75.27-65.194 18.996-32.915.181-.318h38.361l19.177 33.224-18.996 32.915-.181.319h-38.361l-19.177-33.225Zm75.27 0-18.454-31.969h-36.908l-18.454 31.969 18.454 31.969h36.908l18.454-31.969Zm-75.27-130.387 18.996-32.915.181-.319h38.361l19.177 33.225-18.996 32.915-.181.318h-38.361l-19.177-33.224Zm75.27 0-18.454-31.969h-36.908l-18.454 31.969 18.454 31.969h36.908l18.454-31.969Zm-75.27-65.194 18.996-32.915.181-.318h38.361l19.177 33.224-18.996 32.915-.181.319h-38.361l-19.177-33.225Zm75.27 0-18.454-31.969h-36.908l-18.454 31.969 18.454 31.969h36.908l18.454-31.969ZM717.211 685.17l18.996-32.915.181-.318h38.361l19.177 33.224-18.996 32.915-.181.319h-38.361l-19.177-33.225Zm75.27 0-18.454-31.969h-36.908l-18.454 31.969 18.454 31.969h36.908l18.454-31.969Zm-75.27-65.194 18.996-32.915.181-.318h38.361l19.177 33.225-18.996 32.915-.181.318h-38.361l-19.177-33.225Zm75.27 0-18.454-31.969h-36.908l-18.454 31.969 18.454 31.969h36.908l18.454-31.969Zm-75.27-65.193 18.996-32.915.181-.319h38.361l19.177 33.225-18.996 32.915-.181.318h-38.361l-19.177-33.224Zm75.27 0-18.454-31.969h-36.908l-18.454 31.969 18.454 31.969h36.908l18.454-31.969Zm-75.27-65.194 18.996-32.915.181-.318h38.361l19.177 33.224-18.996 32.915-.181.319h-38.361l-19.177-33.225Zm75.27 0-18.454-31.969h-36.908l-18.454 31.969 18.454 31.969h36.908l18.454-31.969Zm-75.27-195.581 18.996-32.915.181-.318h38.361l19.177 33.224-18.996 32.915-.181.319h-38.361l-19.177-33.225Zm75.27 0-18.454-31.969h-36.908l-18.454 31.969 18.454 31.969h36.908l18.454-31.969Zm-75.27-65.194 18.996-32.915.181-.318h38.361l19.177 33.225-18.996 32.915-.181.318h-38.361l-19.177-33.225Zm75.27 0-18.454-31.969h-36.908l-18.454 31.969 18.454 31.969h36.908l18.454-31.969Zm-75.27-65.193 18.996-32.915.181-.319h38.361l19.177 33.225-18.996 32.915-.181.318h-38.361l-19.177-33.224Zm75.27 0-18.454-31.969h-36.908l-18.454 31.969 18.454 31.969h36.908l18.454-31.969Zm-75.27-65.194 18.996-32.915.181-.318h38.361l19.177 33.224-18.996 32.915-.181.319h-38.361l-19.177-33.225Zm75.27 0-18.454-31.969h-36.908l-18.454 31.969 18.454 31.969h36.908l18.454-31.969Zm-75.27-65.194L736.207.318l.181-.318h38.361l19.177 33.225L774.93 66.14l-.181.318h-38.361l-19.177-33.225Zm75.27 0L774.027 1.264h-36.908l-18.454 31.97 18.454 31.968h36.908l18.454-31.969ZM660.757 717.775l18.996-32.915.18-.318h38.362l19.176 33.225-18.995 32.915-.181.318h-38.362l-19.176-33.225Zm75.27 0-18.454-31.969h-36.909l-18.454 31.969 18.454 31.969h36.909l18.454-31.969Zm-75.27-65.193 18.996-32.915.18-.319h38.362l19.176 33.225-18.995 32.915-.181.318h-38.362l-19.176-33.224Zm75.27 0-18.454-31.969h-36.909l-18.454 31.969 18.454 31.969h36.909l18.454-31.969Zm-75.27-130.388 18.996-32.915.18-.318h38.362l19.176 33.225-18.995 32.915-.181.318h-38.362l-19.176-33.225Zm75.27 0-18.454-31.969h-36.909l-18.454 31.969 18.454 31.969h36.909l18.454-31.969Zm-75.27-130.387 18.996-32.915.18-.318h38.362l19.176 33.224-18.995 32.915-.181.319h-38.362l-19.176-33.225Zm75.27 0-18.454-31.969h-36.909l-18.454 31.969 18.454 31.969h36.909l18.454-31.969Zm-75.27-65.194 18.996-32.915.18-.318h38.362l19.176 33.225-18.995 32.915-.181.318h-38.362l-19.176-33.225Zm75.27 0-18.454-31.969h-36.909l-18.454 31.969 18.454 31.969h36.909l18.454-31.969Zm-75.27-65.193 18.996-32.915.18-.319h38.362l19.176 33.225-18.995 32.915-.181.318h-38.362l-19.176-33.224Zm75.27 0-18.454-31.969h-36.909L662.21 261.42l18.454 31.969h36.909l18.454-31.969Zm-75.27-130.388 18.996-32.915.18-.318h38.362l19.176 33.225-18.995 32.915-.181.318h-38.362l-19.176-33.225Zm75.27 0-18.454-31.969h-36.909l-18.454 31.969 18.454 31.969h36.909l18.454-31.969ZM603.529 619.976l18.996-32.915.18-.318h38.362l19.176 33.225-18.996 32.915-.18.318h-38.362l-19.176-33.225Zm75.261 0-18.454-31.969h-36.909l-18.454 31.969 18.454 31.969h36.909l18.454-31.969Zm-75.261-130.387 18.996-32.915.18-.318h38.362l19.176 33.224-18.996 32.915-.18.319h-38.362l-19.176-33.225Zm75.261 0-18.454-31.969h-36.909l-18.454 31.969 18.454 31.969h36.909l18.454-31.969Zm-75.261-130.387 18.996-32.915.18-.319h38.362l19.176 33.225-18.996 32.915-.18.318h-38.362l-19.176-33.224Zm75.261 0-18.454-31.969h-36.909l-18.454 31.969 18.454 31.969h36.909l18.454-31.969Zm-75.261-65.194 18.996-32.915.18-.318h38.362l19.176 33.224-18.996 32.915-.18.319h-38.362l-19.176-33.225Zm75.261 0-18.454-31.969h-36.909l-18.454 31.969 18.454 31.969h36.909l18.454-31.969Zm-75.261-130.387 18.996-32.915.18-.319h38.362l19.176 33.225-18.996 32.915-.18.318h-38.362l-19.176-33.224Zm75.261 0-18.454-31.969h-36.909l-18.454 31.969 18.454 31.969h36.909l18.454-31.969Zm-75.261-65.194 18.996-32.915.18-.318h38.362l19.176 33.224-18.996 32.915-.18.319h-38.362l-19.176-33.225Zm75.261 0-18.454-31.969h-36.909l-18.454 31.969 18.454 31.969h36.909l18.454-31.969Zm-75.261-65.194L622.525.318l.18-.318h38.362l19.176 33.225-18.996 32.915-.18.318h-38.362l-19.176-33.225Zm75.261 0L660.336 1.264h-36.909l-18.454 31.97 18.454 31.968h36.909l18.454-31.969ZM547.066 587.388l18.995-32.915.181-.318h38.362l19.176 33.224-18.996 32.915-.18.319h-38.362l-19.176-33.225Zm75.269 0-18.454-31.969h-36.908l-18.454 31.969 18.454 31.969h36.908l18.454-31.969Zm-75.269-65.194 18.995-32.915.181-.318h38.362l19.176 33.225-18.996 32.915-.18.318h-38.362l-19.176-33.225Zm75.269 0-18.454-31.969h-36.908l-18.454 31.969 18.454 31.969h36.908l18.454-31.969Zm-75.269-65.193 18.995-32.915.181-.319h38.362l19.176 33.225-18.996 32.915-.18.318h-38.362l-19.176-33.224Zm75.269 0-18.454-31.969h-36.908l-18.454 31.969 18.454 31.969h36.908l18.454-31.969Zm-75.269-65.194 18.995-32.915.181-.318h38.362l19.176 33.224-18.996 32.915-.18.319h-38.362l-19.176-33.225Zm75.269 0-18.454-31.969h-36.908l-18.454 31.969 18.454 31.969h36.908l18.454-31.969Zm-75.269-65.194 18.995-32.915.181-.318h38.362l19.176 33.225-18.996 32.915-.18.318h-38.362l-19.176-33.225Zm75.269 0-18.454-31.969h-36.908l-18.454 31.969 18.454 31.969h36.908l18.454-31.969Zm-75.269-65.193 18.995-32.915.181-.319h38.362l19.176 33.225-18.996 32.915-.18.318h-38.362l-19.176-33.224Zm75.269 0-18.454-31.969h-36.908l-18.454 31.969 18.454 31.969h36.908l18.454-31.969ZM489.837 685.17l18.996-32.915.181-.318h38.361l19.177 33.224-18.996 32.915-.181.319h-38.361l-19.177-33.225Zm75.261 0-18.454-31.969h-36.908l-18.454 31.969 18.454 31.969h36.908l18.454-31.969Zm-75.261-65.194 18.996-32.915.181-.318h38.361l19.177 33.225-18.996 32.915-.181.318h-38.361l-19.177-33.225Zm75.261 0-18.454-31.969h-36.908l-18.454 31.969 18.454 31.969h36.908l18.454-31.969Zm-75.261-65.193 18.996-32.915.181-.319h38.361l19.177 33.225-18.996 32.915-.181.318h-38.361l-19.177-33.224Zm75.261 0-18.454-31.969h-36.908l-18.454 31.969 18.454 31.969h36.908l18.454-31.969Zm-75.261-130.388 18.996-32.915.181-.318h38.361l19.177 33.225-18.996 32.915-.181.318h-38.361l-19.177-33.225Zm75.261 0-18.454-31.969h-36.908l-18.454 31.969 18.454 31.969h36.908l18.454-31.969Zm-75.261-130.387 18.996-32.915.181-.318h38.361l19.177 33.224-18.996 32.915-.181.319h-38.361l-19.177-33.225Zm75.261 0-18.454-31.969h-36.908l-18.454 31.969 18.454 31.969h36.908l18.454-31.969Zm-75.261-65.194 18.996-32.915.181-.318h38.361l19.177 33.225-18.996 32.915-.181.318h-38.361l-19.177-33.225Zm75.261 0-18.454-31.969h-36.908l-18.454 31.969 18.454 31.969h36.908l18.454-31.969Zm-75.261-65.193 18.996-32.915.181-.319h38.361l19.177 33.225-18.996 32.915-.181.318h-38.361l-19.177-33.224Zm75.261 0-18.454-31.969h-36.908l-18.454 31.969 18.454 31.969h36.908l18.454-31.969ZM433.383 717.775l18.996-32.915.18-.318h38.362l19.176 33.225-18.996 32.915-.18.318h-38.362l-19.176-33.225Zm75.261 0-18.454-31.969h-36.908l-18.455 31.969 18.455 31.969h36.908l18.454-31.969Zm-75.261-65.193 18.996-32.915.18-.319h38.362l19.176 33.225-18.996 32.915-.18.318h-38.362l-19.176-33.224Zm75.261 0-18.454-31.969h-36.908l-18.455 31.969 18.455 31.969h36.908l18.454-31.969Zm-75.261-65.194 18.996-32.915.18-.318h38.362l19.176 33.224-18.996 32.915-.18.319h-38.362l-19.176-33.225Zm75.261 0-18.454-31.969h-36.908l-18.455 31.969 18.455 31.969h36.908l18.454-31.969Zm-75.261-65.194 18.996-32.915.18-.318h38.362l19.176 33.225-18.996 32.915-.18.318h-38.362l-19.176-33.225Zm75.261 0-18.454-31.969h-36.908l-18.455 31.969 18.455 31.969h36.908l18.454-31.969Zm-75.261-65.193 18.996-32.915.18-.319h38.362l19.176 33.225-18.996 32.915-.18.318h-38.362l-19.176-33.224Zm75.261 0-18.454-31.969h-36.908l-18.455 31.969 18.455 31.969h36.908l18.454-31.969Zm-75.261-130.388 18.996-32.915.18-.318h38.362l19.176 33.225-18.996 32.915-.18.318h-38.362l-19.176-33.225Zm75.261 0-18.454-31.969h-36.908l-18.455 31.969 18.455 31.969h36.908l18.454-31.969Zm-75.261-65.193 18.996-32.915.18-.319h38.362l19.176 33.225-18.996 32.915-.18.318h-38.362l-19.176-33.224Zm75.261 0-18.454-31.969h-36.908l-18.455 31.969 18.455 31.969h36.908l18.454-31.969Zm-75.261-65.194 18.996-32.915.18-.318h38.362l19.176 33.224-18.996 32.915-.18.319h-38.362l-19.176-33.225Zm75.261 0-18.454-31.969h-36.908l-18.455 31.969 18.455 31.969h36.908l18.454-31.969Zm-75.261-65.194 18.996-32.915.18-.318h38.362l19.176 33.225-18.996 32.915-.18.318h-38.362l-19.176-33.225Zm75.261 0L490.19 99.063h-36.908l-18.455 31.969 18.455 31.969h36.908l18.454-31.969Zm-75.261-65.185 18.996-32.915.18-.318h38.362l19.176 33.225-18.996 32.915-.18.318h-38.362l-19.176-33.225Zm75.261 0L490.19 33.878h-36.908l-18.455 31.97 18.455 31.968h36.908l18.454-31.969ZM376.146 685.17l18.996-32.915.18-.318h38.362l19.176 33.224-18.996 32.915-.18.319h-38.362l-19.176-33.225Zm75.261 0-18.454-31.969h-36.908l-18.454 31.969 18.454 31.969h36.908l18.454-31.969Zm-75.261-65.194 18.996-32.915.18-.318h38.362l19.176 33.225-18.996 32.915-.18.318h-38.362l-19.176-33.225Zm75.261 0-18.454-31.969h-36.908l-18.454 31.969 18.454 31.969h36.908l18.454-31.969Zm-75.261-130.387 18.996-32.915.18-.318h38.362l19.176 33.224-18.996 32.915-.18.319h-38.362l-19.176-33.225Zm75.261 0-18.454-31.969h-36.908l-18.454 31.969 18.454 31.969h36.908l18.454-31.969Zm-75.261-65.194 18.996-32.915.18-.318h38.362l19.176 33.225-18.996 32.915-.18.318h-38.362l-19.176-33.225Zm75.261 0-18.454-31.969h-36.908l-18.454 31.969 18.454 31.969h36.908l18.454-31.969Zm-75.261-65.193 18.996-32.915.18-.319h38.362l19.176 33.225-18.996 32.915-.18.318h-38.362l-19.176-33.224Zm75.261 0-18.454-31.969h-36.908l-18.454 31.969 18.454 31.969h36.908l18.454-31.969Zm-75.261-130.388 18.996-32.915.18-.318h38.362l19.176 33.225-18.996 32.915-.18.318h-38.362l-19.176-33.225Zm75.261 0-18.454-31.969h-36.908l-18.454 31.969 18.454 31.969h36.908l18.454-31.969Zm-75.261-65.193 18.996-32.915.18-.319h38.362l19.176 33.225-18.996 32.915-.18.318h-38.362l-19.176-33.224Zm75.261 0-18.454-31.969h-36.908l-18.454 31.969 18.454 31.969h36.908l18.454-31.969Zm-75.261-65.194 18.996-32.915.18-.318h38.362l19.176 33.224-18.996 32.915-.18.319h-38.362l-19.176-33.225Zm75.261 0-18.454-31.969h-36.908l-18.454 31.969 18.454 31.969h36.908l18.454-31.969Zm-75.261-65.194L395.142.318l.18-.318h38.362l19.176 33.225-18.996 32.915-.18.318h-38.362l-19.176-33.225Zm75.261 0L432.953 1.264h-36.908l-18.454 31.97 18.454 31.968h36.908l18.454-31.969ZM319.691 717.775l18.996-32.915.181-.318h38.361l19.177 33.225-18.996 32.915-.181.318h-38.361l-19.177-33.225Zm75.262 0-18.455-31.969H339.59l-18.454 31.969 18.454 31.969h36.908l18.455-31.969Zm-75.262-65.193 18.996-32.915.181-.319h38.361l19.177 33.225-18.996 32.915-.181.318h-38.361l-19.177-33.224Zm75.262 0-18.455-31.969H339.59l-18.454 31.969 18.454 31.969h36.908l18.455-31.969Zm-75.262-65.194 18.996-32.915.181-.318h38.361l19.177 33.224-18.996 32.915-.181.319h-38.361l-19.177-33.225Zm75.262 0-18.455-31.969H339.59l-18.454 31.969 18.454 31.969h36.908l18.455-31.969Zm-75.262-130.387 18.996-32.915.181-.319h38.361l19.177 33.225-18.996 32.915-.181.318h-38.361l-19.177-33.224Zm75.262 0-18.455-31.969H339.59l-18.454 31.969 18.454 31.969h36.908l18.455-31.969Zm-75.262-65.194 18.996-32.915.181-.318h38.361l19.177 33.224-18.996 32.915-.181.319h-38.361l-19.177-33.225Zm75.262 0-18.455-31.969H339.59l-18.454 31.969 18.454 31.969h36.908l18.455-31.969Zm-75.262-65.194 18.996-32.915.181-.318h38.361l19.177 33.225-18.996 32.915-.181.318h-38.361l-19.177-33.225Zm75.262 0-18.455-31.969H339.59l-18.454 31.969 18.454 31.969h36.908l18.455-31.969Zm-75.262-65.193 18.996-32.915.181-.319h38.361l19.177 33.225-18.996 32.915-.181.318h-38.361l-19.177-33.224Zm75.262 0-18.455-31.969H339.59l-18.454 31.969 18.454 31.969h36.908l18.455-31.969Zm-75.262-130.388 18.996-32.915.181-.318h38.361l19.177 33.225-18.996 32.915-.181.318h-38.361l-19.177-33.225Zm75.262 0-18.455-31.969H339.59l-18.454 31.969 18.454 31.969h36.908l18.455-31.969Zm-75.262-65.185 18.996-32.915.181-.318h38.361l19.177 33.225-18.996 32.915-.181.318h-38.361l-19.177-33.225Zm75.262 0-18.455-31.969H339.59l-18.454 31.97 18.454 31.968h36.908l18.455-31.969ZM262.454 685.17l18.996-32.915.181-.318h38.361l19.177 33.224-18.996 32.915-.181.319h-38.361l-19.177-33.225Zm75.27 0-18.454-31.969h-36.908l-18.454 31.969 18.454 31.969h36.908l18.454-31.969Zm-75.27-65.194 18.996-32.915.181-.318h38.361l19.177 33.225-18.996 32.915-.181.318h-38.361l-19.177-33.225Zm75.27 0-18.454-31.969h-36.908l-18.454 31.969 18.454 31.969h36.908l18.454-31.969Zm-75.27-65.193 18.996-32.915.181-.319h38.361l19.177 33.225-18.996 32.915-.181.318h-38.361l-19.177-33.224Zm75.27 0-18.454-31.969h-36.908l-18.454 31.969 18.454 31.969h36.908l18.454-31.969Zm-75.27-130.388 18.996-32.915.181-.318h38.361l19.177 33.225-18.996 32.915-.181.318h-38.361l-19.177-33.225Zm75.27 0-18.454-31.969h-36.908l-18.454 31.969 18.454 31.969h36.908l18.454-31.969Zm-75.27-65.193 18.996-32.915.181-.319h38.361l19.177 33.225-18.996 32.915-.181.318h-38.361l-19.177-33.224Zm75.27 0-18.454-31.969h-36.908l-18.454 31.969 18.454 31.969h36.908l18.454-31.969Zm-75.27-65.194 18.996-32.915.181-.318h38.361l19.177 33.224-18.996 32.915-.181.319h-38.361l-19.177-33.225Zm75.27 0-18.454-31.969h-36.908l-18.454 31.969 18.454 31.969h36.908l18.454-31.969Zm-75.27-130.387 18.996-32.915.181-.319h38.361l19.177 33.225-18.996 32.915-.181.318h-38.361l-19.177-33.224Zm75.27 0-18.454-31.969h-36.908l-18.454 31.969 18.454 31.969h36.908l18.454-31.969Zm-75.27-65.194 18.996-32.915.181-.318h38.361l19.177 33.224-18.996 32.915-.181.319h-38.361l-19.177-33.225Zm75.27 0L319.27 66.458h-36.908l-18.454 31.969 18.454 31.969h36.908l18.454-31.969Zm-75.27-65.194L281.45.318l.181-.318h38.361l19.177 33.225-18.996 32.915-.181.318h-38.361l-19.177-33.225Zm75.27 0L319.27 1.264h-36.908l-18.454 31.97 18.454 31.968h36.908l18.454-31.969ZM206 717.775l18.996-32.915.18-.318h38.362l19.176 33.225-18.995 32.915-.181.318h-38.362L206 717.775Zm75.27 0-18.454-31.969h-36.909l-18.454 31.969 18.454 31.969h36.909l18.454-31.969ZM206 587.388l18.996-32.915.18-.318h38.362l19.176 33.224-18.995 32.915-.181.319h-38.362L206 587.388Zm75.27 0-18.454-31.969h-36.909l-18.454 31.969 18.454 31.969h36.909l18.454-31.969ZM206 522.194l18.996-32.915.18-.318h38.362l19.176 33.225-18.995 32.915-.181.318h-38.362L206 522.194Zm75.27 0-18.454-31.969h-36.909l-18.454 31.969 18.454 31.969h36.909l18.454-31.969ZM206 391.807l18.996-32.915.18-.318h38.362l19.176 33.224-18.995 32.915-.181.319h-38.362L206 391.807Zm75.27 0-18.454-31.969h-36.909l-18.454 31.969 18.454 31.969h36.909l18.454-31.969ZM206 261.42l18.996-32.915.18-.319h38.362l19.176 33.225-18.995 32.915-.181.318h-38.362L206 261.42Zm75.27 0-18.454-31.969h-36.909l-18.454 31.969 18.454 31.969h36.909l18.454-31.969ZM206 196.226l18.996-32.915.18-.318h38.362l19.176 33.224-18.995 32.915-.181.319h-38.362L206 196.226Zm75.27 0-18.454-31.969h-36.909l-18.454 31.969 18.454 31.969h36.909l18.454-31.969ZM206 131.032l18.996-32.915.18-.318h38.362l19.176 33.225-18.995 32.915-.181.318h-38.362L206 131.032Zm75.27 0-18.454-31.969h-36.909l-18.454 31.969 18.454 31.969h36.909l18.454-31.969ZM206 65.847l18.996-32.915.18-.318h38.362l19.176 33.225-18.995 32.915-.181.318h-38.362L206 65.847Zm75.27 0-18.454-31.969h-36.909l-18.454 31.97 18.454 31.968h36.909l18.454-31.969Zm777.02 619.323 18.99-32.915.18-.318h38.36l19.18 33.224-19 32.915-.18.319h-38.36l-19.17-33.225Zm75.26 0-18.46-31.969h-36.91l-18.45 31.969 18.45 31.969h36.91l18.46-31.969Zm-75.26-260.775 18.99-32.915.18-.318h38.36l19.18 33.225-19 32.915-.18.318h-38.36l-19.17-33.225Zm75.26 0-18.46-31.969h-36.91l-18.45 31.969 18.45 31.969h36.91l18.46-31.969Zm-75.26-260.774 18.99-32.915.18-.319h38.36l19.18 33.225-19 32.915-.18.318h-38.36l-19.17-33.224Zm75.26 0-18.46-31.969h-36.91l-18.45 31.969 18.45 31.969h36.91l18.46-31.969Zm-131.72 554.154 19-32.915.18-.318h38.36l19.18 33.225-19 32.915-.18.318h-38.36l-19.18-33.225Zm75.26 0-18.45-31.969h-36.91l-18.45 31.969 18.45 31.969h36.91l18.45-31.969Zm-75.26-65.193 19-32.915.18-.319h38.36l19.18 33.225-19 32.915-.18.318h-38.36l-19.18-33.224Zm75.26 0-18.45-31.969h-36.91l-18.45 31.969 18.45 31.969h36.91l18.45-31.969Zm-75.26-130.388 19-32.915.18-.318h38.36l19.18 33.225-19 32.915-.18.318h-38.36l-19.18-33.225Zm75.26 0-18.45-31.969h-36.91l-18.45 31.969 18.45 31.969h36.91l18.45-31.969Zm-75.26-130.387 19-32.915.18-.318h38.36l19.18 33.224-19 32.915-.18.319h-38.36l-19.18-33.225Zm75.26 0-18.45-31.969h-36.91l-18.45 31.969 18.45 31.969h36.91l18.45-31.969Zm-75.26-130.387 19-32.915.18-.319h38.36l19.18 33.225-19 32.915-.18.318h-38.36l-19.18-33.224Zm75.26 0-18.45-31.969h-36.91l-18.45 31.969 18.45 31.969h36.91l18.45-31.969Zm-75.26-130.388 19-32.915.18-.318h38.36l19.18 33.225-19 32.915-.18.318h-38.36l-19.18-33.225Zm75.26 0-18.45-31.969h-36.91l-18.45 31.969 18.45 31.969h36.91l18.45-31.969ZM944.594 619.976l18.996-32.915.181-.318h38.359l19.18 33.225-19 32.915-.18.318h-38.359l-19.177-33.225Zm75.266 0-18.45-31.969h-36.908l-18.454 31.969 18.454 31.969h36.908l18.45-31.969Zm-75.266-130.387 18.996-32.915.181-.318h38.359l19.18 33.224-19 32.915-.18.319h-38.359l-19.177-33.225Zm75.266 0-18.45-31.969h-36.908l-18.454 31.969 18.454 31.969h36.908l18.45-31.969Zm-75.266-65.194 18.996-32.915.181-.318h38.359l19.18 33.225-19 32.915-.18.318h-38.359l-19.177-33.225Zm75.266 0-18.45-31.969h-36.908l-18.454 31.969 18.454 31.969h36.908l18.45-31.969Zm-75.266-65.193 18.996-32.915.181-.319h38.359l19.18 33.225-19 32.915-.18.318h-38.359l-19.177-33.224Zm75.266 0-18.45-31.969h-36.908l-18.454 31.969 18.454 31.969h36.908l18.45-31.969Zm-75.266-130.388 18.996-32.915.181-.318h38.359l19.18 33.225-19 32.915-.18.318h-38.359l-19.177-33.225Zm75.266 0-18.45-31.969h-36.908l-18.454 31.969 18.454 31.969h36.908l18.45-31.969ZM944.594 98.427l18.996-32.915.181-.318h38.359l19.18 33.224-19 32.915-.18.319h-38.359l-19.177-33.225Zm75.266 0-18.45-31.969h-36.908l-18.454 31.969 18.454 31.969h36.908l18.45-31.969ZM888.14 652.582l18.996-32.915.18-.319h38.362l19.176 33.225-18.996 32.915-.18.318h-38.362l-19.176-33.224Zm75.27 0-18.455-31.969h-36.908l-18.454 31.969 18.454 31.969h36.908l18.455-31.969Zm-75.27-130.388 18.996-32.915.18-.318h38.362l19.176 33.225-18.996 32.915-.18.318h-38.362l-19.176-33.225Zm75.27 0-18.455-31.969h-36.908l-18.454 31.969 18.454 31.969h36.908l18.455-31.969Zm-75.27-130.387 18.996-32.915.18-.318h38.362l19.176 33.224-18.996 32.915-.18.319h-38.362l-19.176-33.225Zm75.27 0-18.455-31.969h-36.908l-18.454 31.969 18.454 31.969h36.908l18.455-31.969Zm-75.27-195.581 18.996-32.915.18-.318h38.362l19.176 33.224-18.996 32.915-.18.319h-38.362l-19.176-33.225Zm75.27 0-18.455-31.969h-36.908l-18.454 31.969 18.454 31.969h36.908l18.455-31.969Zm-75.27-65.194 18.996-32.915.18-.318h38.362l19.176 33.225-18.996 32.915-.18.318h-38.362l-19.176-33.225Zm75.27 0-18.455-31.969h-36.908l-18.454 31.969 18.454 31.969h36.908l18.455-31.969Zm-75.27-65.185 18.996-32.915.18-.318h38.362l19.176 33.225-18.996 32.915-.18.318h-38.362L888.14 65.847Zm75.27 0-18.455-31.969h-36.908l-18.454 31.97 18.454 31.968h36.908l18.455-31.969ZM830.903 685.17l18.996-32.915.18-.318h38.362l19.176 33.224-18.996 32.915-.18.319h-38.362l-19.176-33.225Zm75.27 0-18.455-31.969H850.81l-18.454 31.969 18.454 31.969h36.908l18.455-31.969Zm-75.27-195.581 18.996-32.915.18-.318h38.362l19.176 33.224-18.996 32.915-.18.319h-38.362l-19.176-33.225Zm75.27 0-18.455-31.969H850.81l-18.454 31.969 18.454 31.969h36.908l18.455-31.969Zm-75.27-65.194 18.996-32.915.18-.318h38.362l19.176 33.225-18.996 32.915-.18.318h-38.362l-19.176-33.225Zm75.27 0-18.455-31.969H850.81l-18.454 31.969 18.454 31.969h36.908l18.455-31.969Zm-75.27-65.193 18.996-32.915.18-.319h38.362l19.176 33.225-18.996 32.915-.18.318h-38.362l-19.176-33.224Zm75.27 0-18.455-31.969H850.81l-18.454 31.969 18.454 31.969h36.908l18.455-31.969Zm-75.27-130.388 18.996-32.915.18-.318h38.362l19.176 33.225-18.996 32.915-.18.318h-38.362l-19.176-33.225Zm75.27 0-18.455-31.969H850.81l-18.454 31.969 18.454 31.969h36.908l18.455-31.969Zm-75.27-65.193 18.996-32.915.18-.319h38.362l19.176 33.225-18.996 32.915-.18.318h-38.362l-19.176-33.224Zm75.27 0-18.455-31.969H850.81l-18.454 31.969 18.454 31.969h36.908l18.455-31.969Zm-75.27-65.194 18.996-32.915.18-.318h38.362l19.176 33.224-18.996 32.915-.18.319h-38.362l-19.176-33.225Zm75.27 0-18.455-31.969H850.81l-18.454 31.969 18.454 31.969h36.908l18.455-31.969ZM774.448 587.388l18.996-32.915.181-.318h38.361l19.177 33.224-18.996 32.915-.181.319h-38.361l-19.177-33.225Zm75.27 0-18.454-31.969h-36.908l-18.454 31.969 18.454 31.969h36.908l18.454-31.969Zm-75.27-65.194 18.996-32.915.181-.318h38.361l19.177 33.225-18.996 32.915-.181.318h-38.361l-19.177-33.225Zm75.27 0-18.454-31.969h-36.908l-18.454 31.969 18.454 31.969h36.908l18.454-31.969Zm-75.27-65.193 18.996-32.915.181-.319h38.361l19.177 33.225-18.996 32.915-.181.318h-38.361l-19.177-33.224Zm75.27 0-18.454-31.969h-36.908l-18.454 31.969 18.454 31.969h36.908l18.454-31.969Zm-75.27-65.194 18.996-32.915.181-.318h38.361l19.177 33.224-18.996 32.915-.181.319h-38.361l-19.177-33.225Zm75.27 0-18.454-31.969h-36.908l-18.454 31.969 18.454 31.969h36.908l18.454-31.969Zm-75.27-130.387 18.996-32.915.181-.319h38.361l19.177 33.225-18.996 32.915-.181.318h-38.361l-19.177-33.224Zm75.27 0-18.454-31.969h-36.908l-18.454 31.969 18.454 31.969h36.908l18.454-31.969Zm-75.27-65.194 18.996-32.915.181-.318h38.361l19.177 33.224-18.996 32.915-.181.319h-38.361l-19.177-33.225Zm75.27 0-18.454-31.969h-36.908l-18.454 31.969 18.454 31.969h36.908l18.454-31.969ZM717.211 685.17l18.996-32.915.181-.318h38.361l19.177 33.224-18.996 32.915-.181.319h-38.361l-19.177-33.225Zm75.27 0-18.454-31.969h-36.908l-18.454 31.969 18.454 31.969h36.908l18.454-31.969Zm-75.27-65.194 18.996-32.915.181-.318h38.361l19.177 33.225-18.996 32.915-.181.318h-38.361l-19.177-33.225Zm75.27 0-18.454-31.969h-36.908l-18.454 31.969 18.454 31.969h36.908l18.454-31.969Zm-75.27-65.193 18.996-32.915.181-.319h38.361l19.177 33.225-18.996 32.915-.181.318h-38.361l-19.177-33.224Zm75.27 0-18.454-31.969h-36.908l-18.454 31.969 18.454 31.969h36.908l18.454-31.969Zm-75.27-65.194 18.996-32.915.181-.318h38.361l19.177 33.224-18.996 32.915-.181.319h-38.361l-19.177-33.225Zm75.27 0-18.454-31.969h-36.908l-18.454 31.969 18.454 31.969h36.908l18.454-31.969Zm-75.27-195.581 18.996-32.915.181-.318h38.361l19.177 33.224-18.996 32.915-.181.319h-38.361l-19.177-33.225Zm75.27 0-18.454-31.969h-36.908l-18.454 31.969 18.454 31.969h36.908l18.454-31.969Zm-75.27-65.194 18.996-32.915.181-.318h38.361l19.177 33.225-18.996 32.915-.181.318h-38.361l-19.177-33.225Zm75.27 0-18.454-31.969h-36.908l-18.454 31.969 18.454 31.969h36.908l18.454-31.969Zm-75.27-65.193 18.996-32.915.181-.319h38.361l19.177 33.225-18.996 32.915-.181.318h-38.361l-19.177-33.224Zm75.27 0-18.454-31.969h-36.908l-18.454 31.969 18.454 31.969h36.908l18.454-31.969Zm-75.27-65.194 18.996-32.915.181-.318h38.361l19.177 33.224-18.996 32.915-.181.319h-38.361l-19.177-33.225Zm75.27 0-18.454-31.969h-36.908l-18.454 31.969 18.454 31.969h36.908l18.454-31.969Zm-75.27-65.194L736.207.318l.181-.318h38.361l19.177 33.225L774.93 66.14l-.181.318h-38.361l-19.177-33.225Zm75.27 0L774.027 1.264h-36.908l-18.454 31.97 18.454 31.968h36.908l18.454-31.969ZM660.757 717.775l18.996-32.915.18-.318h38.362l19.176 33.225-18.995 32.915-.181.318h-38.362l-19.176-33.225Zm75.27 0-18.454-31.969h-36.909l-18.454 31.969 18.454 31.969h36.909l18.454-31.969Zm-75.27-65.193 18.996-32.915.18-.319h38.362l19.176 33.225-18.995 32.915-.181.318h-38.362l-19.176-33.224Zm75.27 0-18.454-31.969h-36.909l-18.454 31.969 18.454 31.969h36.909l18.454-31.969Zm-75.27-130.388 18.996-32.915.18-.318h38.362l19.176 33.225-18.995 32.915-.181.318h-38.362l-19.176-33.225Zm75.27 0-18.454-31.969h-36.909l-18.454 31.969 18.454 31.969h36.909l18.454-31.969Zm-75.27-130.387 18.996-32.915.18-.318h38.362l19.176 33.224-18.995 32.915-.181.319h-38.362l-19.176-33.225Zm75.27 0-18.454-31.969h-36.909l-18.454 31.969 18.454 31.969h36.909l18.454-31.969Zm-75.27-65.194 18.996-32.915.18-.318h38.362l19.176 33.225-18.995 32.915-.181.318h-38.362l-19.176-33.225Zm75.27 0-18.454-31.969h-36.909l-18.454 31.969 18.454 31.969h36.909l18.454-31.969Zm-75.27-65.193 18.996-32.915.18-.319h38.362l19.176 33.225-18.995 32.915-.181.318h-38.362l-19.176-33.224Zm75.27 0-18.454-31.969h-36.909L662.21 261.42l18.454 31.969h36.909l18.454-31.969Zm-75.27-130.388 18.996-32.915.18-.318h38.362l19.176 33.225-18.995 32.915-.181.318h-38.362l-19.176-33.225Zm75.27 0-18.454-31.969h-36.909l-18.454 31.969 18.454 31.969h36.909l18.454-31.969ZM603.529 619.976l18.996-32.915.18-.318h38.362l19.176 33.225-18.996 32.915-.18.318h-38.362l-19.176-33.225Zm75.261 0-18.454-31.969h-36.909l-18.454 31.969 18.454 31.969h36.909l18.454-31.969Zm-75.261-130.387 18.996-32.915.18-.318h38.362l19.176 33.224-18.996 32.915-.18.319h-38.362l-19.176-33.225Zm75.261 0-18.454-31.969h-36.909l-18.454 31.969 18.454 31.969h36.909l18.454-31.969Zm-75.261-130.387 18.996-32.915.18-.319h38.362l19.176 33.225-18.996 32.915-.18.318h-38.362l-19.176-33.224Zm75.261 0-18.454-31.969h-36.909l-18.454 31.969 18.454 31.969h36.909l18.454-31.969Zm-75.261-65.194 18.996-32.915.18-.318h38.362l19.176 33.224-18.996 32.915-.18.319h-38.362l-19.176-33.225Zm75.261 0-18.454-31.969h-36.909l-18.454 31.969 18.454 31.969h36.909l18.454-31.969Zm-75.261-130.387 18.996-32.915.18-.319h38.362l19.176 33.225-18.996 32.915-.18.318h-38.362l-19.176-33.224Zm75.261 0-18.454-31.969h-36.909l-18.454 31.969 18.454 31.969h36.909l18.454-31.969Zm-75.261-65.194 18.996-32.915.18-.318h38.362l19.176 33.224-18.996 32.915-.18.319h-38.362l-19.176-33.225Zm75.261 0-18.454-31.969h-36.909l-18.454 31.969 18.454 31.969h36.909l18.454-31.969Zm-75.261-65.194L622.525.318l.18-.318h38.362l19.176 33.225-18.996 32.915-.18.318h-38.362l-19.176-33.225Zm75.261 0L660.336 1.264h-36.909l-18.454 31.97 18.454 31.968h36.909l18.454-31.969ZM547.066 587.388l18.995-32.915.181-.318h38.362l19.176 33.224-18.996 32.915-.18.319h-38.362l-19.176-33.225Zm75.269 0-18.454-31.969h-36.908l-18.454 31.969 18.454 31.969h36.908l18.454-31.969Zm-75.269-65.194 18.995-32.915.181-.318h38.362l19.176 33.225-18.996 32.915-.18.318h-38.362l-19.176-33.225Zm75.269 0-18.454-31.969h-36.908l-18.454 31.969 18.454 31.969h36.908l18.454-31.969Zm-75.269-65.193 18.995-32.915.181-.319h38.362l19.176 33.225-18.996 32.915-.18.318h-38.362l-19.176-33.224Zm75.269 0-18.454-31.969h-36.908l-18.454 31.969 18.454 31.969h36.908l18.454-31.969Zm-75.269-65.194 18.995-32.915.181-.318h38.362l19.176 33.224-18.996 32.915-.18.319h-38.362l-19.176-33.225Zm75.269 0-18.454-31.969h-36.908l-18.454 31.969 18.454 31.969h36.908l18.454-31.969Zm-75.269-65.194 18.995-32.915.181-.318h38.362l19.176 33.225-18.996 32.915-.18.318h-38.362l-19.176-33.225Zm75.269 0-18.454-31.969h-36.908l-18.454 31.969 18.454 31.969h36.908l18.454-31.969Zm-75.269-65.193 18.995-32.915.181-.319h38.362l19.176 33.225-18.996 32.915-.18.318h-38.362l-19.176-33.224Zm75.269 0-18.454-31.969h-36.908l-18.454 31.969 18.454 31.969h36.908l18.454-31.969ZM489.837 685.17l18.996-32.915.181-.318h38.361l19.177 33.224-18.996 32.915-.181.319h-38.361l-19.177-33.225Zm75.261 0-18.454-31.969h-36.908l-18.454 31.969 18.454 31.969h36.908l18.454-31.969Zm-75.261-65.194 18.996-32.915.181-.318h38.361l19.177 33.225-18.996 32.915-.181.318h-38.361l-19.177-33.225Zm75.261 0-18.454-31.969h-36.908l-18.454 31.969 18.454 31.969h36.908l18.454-31.969Zm-75.261-65.193 18.996-32.915.181-.319h38.361l19.177 33.225-18.996 32.915-.181.318h-38.361l-19.177-33.224Zm75.261 0-18.454-31.969h-36.908l-18.454 31.969 18.454 31.969h36.908l18.454-31.969Zm-75.261-130.388 18.996-32.915.181-.318h38.361l19.177 33.225-18.996 32.915-.181.318h-38.361l-19.177-33.225Zm75.261 0-18.454-31.969h-36.908l-18.454 31.969 18.454 31.969h36.908l18.454-31.969Zm-75.261-130.387 18.996-32.915.181-.318h38.361l19.177 33.224-18.996 32.915-.181.319h-38.361l-19.177-33.225Zm75.261 0-18.454-31.969h-36.908l-18.454 31.969 18.454 31.969h36.908l18.454-31.969Zm-75.261-65.194 18.996-32.915.181-.318h38.361l19.177 33.225-18.996 32.915-.181.318h-38.361l-19.177-33.225Zm75.261 0-18.454-31.969h-36.908l-18.454 31.969 18.454 31.969h36.908l18.454-31.969Zm-75.261-65.193 18.996-32.915.181-.319h38.361l19.177 33.225-18.996 32.915-.181.318h-38.361l-19.177-33.224Zm75.261 0-18.454-31.969h-36.908l-18.454 31.969 18.454 31.969h36.908l18.454-31.969ZM433.383 717.775l18.996-32.915.18-.318h38.362l19.176 33.225-18.996 32.915-.18.318h-38.362l-19.176-33.225Zm75.261 0-18.454-31.969h-36.908l-18.455 31.969 18.455 31.969h36.908l18.454-31.969Zm-75.261-65.193 18.996-32.915.18-.319h38.362l19.176 33.225-18.996 32.915-.18.318h-38.362l-19.176-33.224Zm75.261 0-18.454-31.969h-36.908l-18.455 31.969 18.455 31.969h36.908l18.454-31.969Zm-75.261-65.194 18.996-32.915.18-.318h38.362l19.176 33.224-18.996 32.915-.18.319h-38.362l-19.176-33.225Zm75.261 0-18.454-31.969h-36.908l-18.455 31.969 18.455 31.969h36.908l18.454-31.969Zm-75.261-65.194 18.996-32.915.18-.318h38.362l19.176 33.225-18.996 32.915-.18.318h-38.362l-19.176-33.225Zm75.261 0-18.454-31.969h-36.908l-18.455 31.969 18.455 31.969h36.908l18.454-31.969Zm-75.261-65.193 18.996-32.915.18-.319h38.362l19.176 33.225-18.996 32.915-.18.318h-38.362l-19.176-33.224Zm75.261 0-18.454-31.969h-36.908l-18.455 31.969 18.455 31.969h36.908l18.454-31.969Zm-75.261-130.388 18.996-32.915.18-.318h38.362l19.176 33.225-18.996 32.915-.18.318h-38.362l-19.176-33.225Zm75.261 0-18.454-31.969h-36.908l-18.455 31.969 18.455 31.969h36.908l18.454-31.969Zm-75.261-65.193 18.996-32.915.18-.319h38.362l19.176 33.225-18.996 32.915-.18.318h-38.362l-19.176-33.224Zm75.261 0-18.454-31.969h-36.908l-18.455 31.969 18.455 31.969h36.908l18.454-31.969Zm-75.261-65.194 18.996-32.915.18-.318h38.362l19.176 33.224-18.996 32.915-.18.319h-38.362l-19.176-33.225Zm75.261 0-18.454-31.969h-36.908l-18.455 31.969 18.455 31.969h36.908l18.454-31.969Zm-75.261-65.194 18.996-32.915.18-.318h38.362l19.176 33.225-18.996 32.915-.18.318h-38.362l-19.176-33.225Zm75.261 0L490.19 99.063h-36.908l-18.455 31.969 18.455 31.969h36.908l18.454-31.969Zm-75.261-65.185 18.996-32.915.18-.318h38.362l19.176 33.225-18.996 32.915-.18.318h-38.362l-19.176-33.225Zm75.261 0L490.19 33.878h-36.908l-18.455 31.97 18.455 31.968h36.908l18.454-31.969ZM376.146 685.17l18.996-32.915.18-.318h38.362l19.176 33.224-18.996 32.915-.18.319h-38.362l-19.176-33.225Zm75.261 0-18.454-31.969h-36.908l-18.454 31.969 18.454 31.969h36.908l18.454-31.969Zm-75.261-65.194 18.996-32.915.18-.318h38.362l19.176 33.225-18.996 32.915-.18.318h-38.362l-19.176-33.225Zm75.261 0-18.454-31.969h-36.908l-18.454 31.969 18.454 31.969h36.908l18.454-31.969Zm-75.261-130.387 18.996-32.915.18-.318h38.362l19.176 33.224-18.996 32.915-.18.319h-38.362l-19.176-33.225Zm75.261 0-18.454-31.969h-36.908l-18.454 31.969 18.454 31.969h36.908l18.454-31.969Zm-75.261-65.194 18.996-32.915.18-.318h38.362l19.176 33.225-18.996 32.915-.18.318h-38.362l-19.176-33.225Zm75.261 0-18.454-31.969h-36.908l-18.454 31.969 18.454 31.969h36.908l18.454-31.969Zm-75.261-65.193 18.996-32.915.18-.319h38.362l19.176 33.225-18.996 32.915-.18.318h-38.362l-19.176-33.224Zm75.261 0-18.454-31.969h-36.908l-18.454 31.969 18.454 31.969h36.908l18.454-31.969Zm-75.261-130.388 18.996-32.915.18-.318h38.362l19.176 33.225-18.996 32.915-.18.318h-38.362l-19.176-33.225Zm75.261 0-18.454-31.969h-36.908l-18.454 31.969 18.454 31.969h36.908l18.454-31.969Zm-75.261-65.193 18.996-32.915.18-.319h38.362l19.176 33.225-18.996 32.915-.18.318h-38.362l-19.176-33.224Zm75.261 0-18.454-31.969h-36.908l-18.454 31.969 18.454 31.969h36.908l18.454-31.969Zm-75.261-65.194 18.996-32.915.18-.318h38.362l19.176 33.224-18.996 32.915-.18.319h-38.362l-19.176-33.225Zm75.261 0-18.454-31.969h-36.908l-18.454 31.969 18.454 31.969h36.908l18.454-31.969Zm-75.261-65.194L395.142.318l.18-.318h38.362l19.176 33.225-18.996 32.915-.18.318h-38.362l-19.176-33.225Zm75.261 0L432.953 1.264h-36.908l-18.454 31.97 18.454 31.968h36.908l18.454-31.969ZM319.691 717.775l18.996-32.915.181-.318h38.361l19.177 33.225-18.996 32.915-.181.318h-38.361l-19.177-33.225Zm75.262 0-18.455-31.969H339.59l-18.454 31.969 18.454 31.969h36.908l18.455-31.969Zm-75.262-65.193 18.996-32.915.181-.319h38.361l19.177 33.225-18.996 32.915-.181.318h-38.361l-19.177-33.224Zm75.262 0-18.455-31.969H339.59l-18.454 31.969 18.454 31.969h36.908l18.455-31.969Zm-75.262-65.194 18.996-32.915.181-.318h38.361l19.177 33.224-18.996 32.915-.181.319h-38.361l-19.177-33.225Zm75.262 0-18.455-31.969H339.59l-18.454 31.969 18.454 31.969h36.908l18.455-31.969Zm-75.262-130.387 18.996-32.915.181-.319h38.361l19.177 33.225-18.996 32.915-.181.318h-38.361l-19.177-33.224Zm75.262 0-18.455-31.969H339.59l-18.454 31.969 18.454 31.969h36.908l18.455-31.969Zm-75.262-65.194 18.996-32.915.181-.318h38.361l19.177 33.224-18.996 32.915-.181.319h-38.361l-19.177-33.225Zm75.262 0-18.455-31.969H339.59l-18.454 31.969 18.454 31.969h36.908l18.455-31.969Zm-75.262-65.194 18.996-32.915.181-.318h38.361l19.177 33.225-18.996 32.915-.181.318h-38.361l-19.177-33.225Zm75.262 0-18.455-31.969H339.59l-18.454 31.969 18.454 31.969h36.908l18.455-31.969Zm-75.262-65.193 18.996-32.915.181-.319h38.361l19.177 33.225-18.996 32.915-.181.318h-38.361l-19.177-33.224Zm75.262 0-18.455-31.969H339.59l-18.454 31.969 18.454 31.969h36.908l18.455-31.969Zm-75.262-130.388 18.996-32.915.181-.318h38.361l19.177 33.225-18.996 32.915-.181.318h-38.361l-19.177-33.225Zm75.262 0-18.455-31.969H339.59l-18.454 31.969 18.454 31.969h36.908l18.455-31.969Zm-75.262-65.185 18.996-32.915.181-.318h38.361l19.177 33.225-18.996 32.915-.181.318h-38.361l-19.177-33.225Zm75.262 0-18.455-31.969H339.59l-18.454 31.97 18.454 31.968h36.908l18.455-31.969ZM262.454 685.17l18.996-32.915.181-.318h38.361l19.177 33.224-18.996 32.915-.181.319h-38.361l-19.177-33.225Zm75.27 0-18.454-31.969h-36.908l-18.454 31.969 18.454 31.969h36.908l18.454-31.969Zm-75.27-65.194 18.996-32.915.181-.318h38.361l19.177 33.225-18.996 32.915-.181.318h-38.361l-19.177-33.225Zm75.27 0-18.454-31.969h-36.908l-18.454 31.969 18.454 31.969h36.908l18.454-31.969Zm-75.27-65.193 18.996-32.915.181-.319h38.361l19.177 33.225-18.996 32.915-.181.318h-38.361l-19.177-33.224Zm75.27 0-18.454-31.969h-36.908l-18.454 31.969 18.454 31.969h36.908l18.454-31.969Zm-75.27-130.388 18.996-32.915.181-.318h38.361l19.177 33.225-18.996 32.915-.181.318h-38.361l-19.177-33.225Zm75.27 0-18.454-31.969h-36.908l-18.454 31.969 18.454 31.969h36.908l18.454-31.969Zm-75.27-65.193 18.996-32.915.181-.319h38.361l19.177 33.225-18.996 32.915-.181.318h-38.361l-19.177-33.224Zm75.27 0-18.454-31.969h-36.908l-18.454 31.969 18.454 31.969h36.908l18.454-31.969Zm-75.27-65.194 18.996-32.915.181-.318h38.361l19.177 33.224-18.996 32.915-.181.319h-38.361l-19.177-33.225Zm75.27 0-18.454-31.969h-36.908l-18.454 31.969 18.454 31.969h36.908l18.454-31.969Zm-75.27-130.387 18.996-32.915.181-.319h38.361l19.177 33.225-18.996 32.915-.181.318h-38.361l-19.177-33.224Zm75.27 0-18.454-31.969h-36.908l-18.454 31.969 18.454 31.969h36.908l18.454-31.969Zm-75.27-65.194 18.996-32.915.181-.318h38.361l19.177 33.224-18.996 32.915-.181.319h-38.361l-19.177-33.225Zm75.27 0L319.27 66.458h-36.908l-18.454 31.969 18.454 31.969h36.908l18.454-31.969Zm-75.27-65.194L281.45.318l.181-.318h38.361l19.177 33.225-18.996 32.915-.181.318h-38.361l-19.177-33.225Zm75.27 0L319.27 1.264h-36.908l-18.454 31.97 18.454 31.968h36.908l18.454-31.969ZM206 717.775l18.996-32.915.18-.318h38.362l19.176 33.225-18.995 32.915-.181.318h-38.362L206 717.775Zm75.27 0-18.454-31.969h-36.909l-18.454 31.969 18.454 31.969h36.909l18.454-31.969ZM206 587.388l18.996-32.915.18-.318h38.362l19.176 33.224-18.995 32.915-.181.319h-38.362L206 587.388Zm75.27 0-18.454-31.969h-36.909l-18.454 31.969 18.454 31.969h36.909l18.454-31.969ZM206 522.194l18.996-32.915.18-.318h38.362l19.176 33.225-18.995 32.915-.181.318h-38.362L206 522.194Zm75.27 0-18.454-31.969h-36.909l-18.454 31.969 18.454 31.969h36.909l18.454-31.969ZM206 391.807l18.996-32.915.18-.318h38.362l19.176 33.224-18.995 32.915-.181.319h-38.362L206 391.807Zm75.27 0-18.454-31.969h-36.909l-18.454 31.969 18.454 31.969h36.909l18.454-31.969ZM206 261.42l18.996-32.915.18-.319h38.362l19.176 33.225-18.995 32.915-.181.318h-38.362L206 261.42Zm75.27 0-18.454-31.969h-36.909l-18.454 31.969 18.454 31.969h36.909l18.454-31.969ZM206 196.226l18.996-32.915.18-.318h38.362l19.176 33.224-18.995 32.915-.181.319h-38.362L206 196.226Zm75.27 0-18.454-31.969h-36.909l-18.454 31.969 18.454 31.969h36.909l18.454-31.969ZM206 131.032l18.996-32.915.18-.318h38.362l19.176 33.225-18.995 32.915-.181.318h-38.362L206 131.032Zm75.27 0-18.454-31.969h-36.909l-18.454 31.969 18.454 31.969h36.909l18.454-31.969ZM206 65.847l18.996-32.915.18-.318h38.362l19.176 33.225-18.995 32.915-.181.318h-38.362L206 65.847Zm75.27 0-18.454-31.969h-36.909l-18.454 31.97 18.454 31.968h36.909l18.454-31.969Z"/>
    <path fill="url(#c)" d="M153 0h982v714H153z"/>
    <g filter="url(#d)">
      <circle cx="1040" cy="375" r="195" fill="url(#e)" transform="rotate(-90 1040 375)"/>
    </g>
  </g>
  <defs>
    <linearGradient id="b" x1="206" x2="1135.01" y1="375.509" y2="375.509" gradientUnits="userSpaceOnUse">
      <stop stop-color="#6B862B" stop-opacity=".6"/>
      <stop offset=".5" stop-color="#9AC12A" stop-opacity=".4"/>
      <stop offset="1" stop-color="#00A164"/>
    </linearGradient>
    <linearGradient id="e" x1="1040" x2="1040" y1="180" y2="570" gradientUnits="userSpaceOnUse">
      <stop stop-color="#1BA068"/>
      <stop offset="1" stop-color="#A6D05D"/>
    </linearGradient>
    <radialGradient id="c" cx="0" cy="0" r="1" gradientTransform="matrix(0 253 -379.102 0 714.5 357)" gradientUnits="userSpaceOnUse">
      <stop stop-color="#075F55" stop-opacity="0"/>
      <stop offset="1" stop-color="#075F55"/>
    </radialGradient>
    <clipPath id="a">
      <path fill="#fff" d="M0 0h1440v674H0z"/>
    </clipPath>
    <filter id="d" width="690" height="690" x="695" y="30" color-interpolation-filters="sRGB" filterUnits="userSpaceOnUse">
      <feFlood flood-opacity="0" result="BackgroundImageFix"/>
      <feBlend in="SourceGraphic" in2="BackgroundImageFix" result="shape"/>
      <feGaussianBlur result="effect1_foregroundBlur_3577_4320" stdDeviation="75"/>
    </filter>
  </defs>
</svg>
