<svg xmlns="http://www.w3.org/2000/svg" width="1440" height="655" fill="none" viewBox="0 0 1440 655">
  <path fill="#075F55" d="M0 0h1440v655H0z"/>
  <g clip-path="url(#a)">
    <path fill="url(#b)" d="m1308.39 658.306 17.23-29.847.17-.289h34.81l17.4 30.128-17.24 29.847-.16.289h-34.81l-17.4-30.128Zm68.29 0-16.74-28.989h-33.5l-16.74 28.989 16.74 28.989h33.5l16.74-28.989Zm-68.29-236.468 17.23-29.847.17-.289h34.81l17.4 30.128-17.24 29.847-.16.289h-34.81l-17.4-30.128Zm68.29 0-16.74-28.989h-33.5l-16.74 28.989 16.74 28.989h33.5l16.74-28.989Zm-68.29-236.468 17.23-29.847.17-.289h34.81l17.4 30.128-17.24 29.847-.16.289h-34.81l-17.4-30.128Zm68.29 0-16.74-28.989h-33.5l-16.74 28.989 16.74 28.989h33.5l16.74-28.989Zm-119.52 502.502 17.24-29.847.16-.288h34.81l17.4 30.127-17.24 29.847-.16.289h-34.81l-17.4-30.128Zm68.29 0-16.74-28.989h-33.49l-16.75 28.989 16.75 28.989h33.49l16.74-28.989Zm-68.29-59.117 17.24-29.847.16-.289h34.81l17.4 30.128-17.24 29.847-.16.289h-34.81l-17.4-30.128Zm68.29 0-16.74-28.989h-33.49l-16.75 28.989 16.75 28.989h33.49l16.74-28.989Zm-68.29-118.234 17.24-29.847.16-.289h34.81l17.4 30.128-17.24 29.847-.16.289h-34.81l-17.4-30.128Zm68.29 0-16.74-28.989h-33.49l-16.75 28.989 16.75 28.989h33.49l16.74-28.989Zm-68.29-118.234 17.24-29.847.16-.289h34.81l17.4 30.128-17.24 29.847-.16.289h-34.81l-17.4-30.128Zm68.29 0-16.74-28.989h-33.49l-16.75 28.989 16.75 28.989h33.49l16.74-28.989Zm-68.29-118.234 17.24-29.847.16-.289h34.81l17.4 30.128-17.24 29.847-.16.289h-34.81l-17.4-30.128Zm68.29 0-16.74-28.989h-33.49l-16.75 28.989 16.75 28.989h33.49l16.74-28.989Zm-68.29-118.234 17.24-29.847.16-.289h34.81l17.4 30.128-17.24 29.847-.16.289h-34.81l-17.4-30.128Zm68.29 0-16.74-28.989h-33.49l-16.75 28.989 16.75 28.989h33.49l16.74-28.989Zm-120.23 443.37 17.24-29.847.16-.289h34.81l17.4 30.128-17.23 29.847-.17.289h-34.81l-17.4-30.128Zm68.3 0-16.74-28.989h-33.49l-16.75 28.989 16.75 28.989h33.49l16.74-28.989Zm-68.3-118.234 17.24-29.847.16-.289h34.81l17.4 30.128-17.23 29.847-.17.289h-34.81l-17.4-30.128Zm68.3 0-16.74-28.989h-33.49l-16.75 28.989 16.75 28.989h33.49l16.74-28.989Zm-68.3-59.117 17.24-29.847.16-.289h34.81l17.4 30.128-17.23 29.847-.17.289h-34.81l-17.4-30.128Zm68.3 0-16.74-28.989h-33.49l-16.75 28.989 16.75 28.989h33.49l16.74-28.989Zm-68.3-59.117 17.24-29.847.16-.289h34.81l17.4 30.128-17.23 29.847-.17.289h-34.81l-17.4-30.128Zm68.3 0-16.74-28.989h-33.49l-16.75 28.989 16.75 28.989h33.49l16.74-28.989Zm-68.3-118.234 17.24-29.847.16-.289h34.81l17.4 30.128-17.23 29.847-.17.289h-34.81l-17.4-30.128Zm68.3 0-16.74-28.989h-33.49l-16.75 28.989 16.75 28.989h33.49l16.74-28.989Zm-68.3-118.234 17.24-29.847.16-.289h34.81l17.4 30.128-17.23 29.847-.17.289h-34.81l-17.4-30.128Zm68.3 0-16.74-28.99h-33.49l-16.75 28.99 16.75 28.989h33.49l16.74-28.989Zm-119.53 502.502 17.24-29.847.16-.289h34.81l17.41 30.128-17.24 29.847-.17.289h-34.81l-17.4-30.128Zm68.3 0-16.74-28.989h-33.49l-16.75 28.989 16.75 28.989h33.49l16.74-28.989Zm-68.3-118.234 17.24-29.847.16-.289h34.81l17.41 30.128-17.24 29.847-.17.289h-34.81l-17.4-30.128Zm68.3 0-16.74-28.989h-33.49l-16.75 28.989 16.75 28.989h33.49l16.74-28.989Zm-68.3-118.234 17.24-29.847.16-.289h34.81l17.41 30.128-17.24 29.847-.17.289h-34.81l-17.4-30.128Zm68.3 0-16.74-28.989h-33.49l-16.75 28.989 16.75 28.989h33.49l16.74-28.989Zm-68.3-177.351 17.24-29.847.16-.289h34.81l17.41 30.128-17.24 29.847-.17.289h-34.81l-17.4-30.128Zm68.3 0-16.74-28.989h-33.49l-16.75 28.989 16.75 28.989h33.49l16.74-28.989Zm-68.3-59.117 17.24-29.847.16-.289h34.81l17.41 30.128-17.24 29.847-.17.289h-34.81l-17.4-30.128Zm68.3 0-16.74-28.989h-33.49l-16.75 28.989 16.75 28.989h33.49l16.74-28.989Zm-68.3-59.11 17.24-29.846.16-.289h34.81l17.41 30.128-17.24 29.847-.17.289h-34.81l-17.4-30.128Zm68.3 0-16.74-28.988h-33.49l-16.75 28.989 16.75 28.989h33.49l16.74-28.99Zm-120.24 561.597 17.24-29.847.17-.289h34.81l17.4 30.128-17.24 29.847-.16.289h-34.81l-17.41-30.128Zm68.31 0-16.75-28.989h-33.49l-16.75 28.989 16.75 28.989h33.49l16.75-28.989Zm-68.31-177.351 17.24-29.847.17-.289h34.81l17.4 30.128-17.24 29.847-.16.289h-34.81l-17.41-30.128Zm68.31 0-16.75-28.989h-33.49l-16.75 28.989 16.75 28.989h33.49l16.75-28.989Zm-68.31-59.117 17.24-29.847.17-.289h34.81l17.4 30.128-17.24 29.847-.16.289h-34.81l-17.41-30.128Zm68.31 0-16.75-28.989h-33.49l-16.75 28.989 16.75 28.989h33.49l16.75-28.989Zm-68.31-59.117 17.24-29.847.17-.289h34.81l17.4 30.128-17.24 29.847-.16.289h-34.81l-17.41-30.128Zm68.31 0-16.75-28.989h-33.49l-16.75 28.989 16.75 28.989h33.49l16.75-28.989Zm-68.31-118.234 17.24-29.847.17-.289h34.81l17.4 30.128-17.24 29.847-.16.289h-34.81l-17.41-30.128Zm68.31 0-16.75-28.989h-33.49l-16.75 28.989 16.75 28.989h33.49l16.75-28.989Zm-68.31-59.117 17.24-29.847.17-.289h34.81l17.4 30.128-17.24 29.847-.16.289h-34.81l-17.41-30.128Zm68.31 0-16.75-28.989h-33.49l-16.75 28.989 16.75 28.989h33.49l16.75-28.989Zm-68.31-59.117 17.24-29.847.17-.289h34.81l17.4 30.128-17.24 29.847-.16.289h-34.81l-17.41-30.128Zm68.31 0-16.75-28.99h-33.49l-16.75 28.99 16.75 28.989h33.49l16.75-28.989Zm-119.53 443.385 17.23-29.847.17-.289h34.81l17.4 30.128-17.24 29.847-.16.289h-34.81l-17.4-30.128Zm68.3 0-16.75-28.989h-33.49l-16.75 28.989 16.75 28.989h33.49l16.75-28.989Zm-68.3-59.117 17.23-29.847.17-.289h34.81l17.4 30.128-17.24 29.847-.16.289h-34.81l-17.4-30.128Zm68.3 0-16.75-28.989h-33.49l-16.75 28.989 16.75 28.989h33.49l16.75-28.989Zm-68.3-59.117 17.23-29.847.17-.289h34.81l17.4 30.128-17.24 29.847-.16.289h-34.81l-17.4-30.128Zm68.3 0-16.75-28.989h-33.49l-16.75 28.989 16.75 28.989h33.49l16.75-28.989Zm-68.3-59.117 17.23-29.847.17-.289h34.81l17.4 30.128-17.24 29.847-.16.289h-34.81l-17.4-30.128Zm68.3 0-16.75-28.989h-33.49l-16.75 28.989 16.75 28.989h33.49l16.75-28.989Zm-68.3-118.234 17.23-29.847.17-.289h34.81l17.4 30.128-17.24 29.847-.16.289h-34.81l-17.4-30.128Zm68.3 0-16.75-28.989h-33.49l-16.75 28.989 16.75 28.989h33.49l16.75-28.989Zm-68.3-59.117 17.23-29.847.17-.289h34.81l17.4 30.128-17.24 29.847-.16.289h-34.81l-17.4-30.128Zm68.3 0-16.75-28.989h-33.49l-16.75 28.989 16.75 28.989h33.49l16.75-28.989Zm-120.243 443.37 17.233-29.847.17-.289h34.81l17.4 30.128-17.24 29.847-.16.289h-34.81l-17.403-30.128Zm68.303 0-16.75-28.989h-33.49l-16.74 28.989 16.74 28.989h33.49l16.75-28.989Zm-68.303-59.117 17.233-29.847.17-.289h34.81l17.4 30.128-17.24 29.847-.16.289h-34.81l-17.403-30.128Zm68.303 0-16.75-28.989h-33.49l-16.74 28.989 16.74 28.989h33.49l16.75-28.989Zm-68.303-59.117 17.233-29.847.17-.289h34.81l17.4 30.128-17.24 29.847-.16.289h-34.81l-17.403-30.128Zm68.303 0-16.75-28.989h-33.49l-16.74 28.989 16.74 28.989h33.49l16.75-28.989Zm-68.303-59.117 17.233-29.847.17-.289h34.81l17.4 30.128-17.24 29.847-.16.289h-34.81l-17.403-30.128Zm68.303 0-16.75-28.989h-33.49l-16.74 28.989 16.74 28.989h33.49l16.75-28.989Zm-68.303-177.351 17.233-29.847.17-.289h34.81l17.4 30.128-17.24 29.847-.16.289h-34.81l-17.403-30.128Zm68.303 0-16.75-28.989h-33.49l-16.74 28.989 16.74 28.989h33.49l16.75-28.989Zm-68.303-59.117 17.233-29.847.17-.289h34.81l17.4 30.128-17.24 29.847-.16.289h-34.81l-17.403-30.128Zm68.303 0-16.75-28.989h-33.49l-16.74 28.989 16.74 28.989h33.49l16.75-28.989Zm-68.303-59.117 17.233-29.847.17-.289h34.81l17.4 30.128-17.24 29.847-.16.289h-34.81l-17.403-30.128Zm68.303 0-16.75-28.989h-33.49l-16.74 28.989 16.74 28.989h33.49l16.75-28.989Zm-68.303-59.117 17.233-29.847.17-.289h34.81l17.4 30.128-17.24 29.847-.16.289h-34.81l-17.403-30.128Zm68.303 0-16.75-28.99h-33.49l-16.74 28.99 16.74 28.989h33.49l16.75-28.989Zm-68.303-59.117 17.233-29.847.17-.289h34.81l17.4 30.128-17.24 29.847-.16.288h-34.81l-17.403-30.127Zm68.303 0-16.75-28.99h-33.49l-16.74 28.99 16.74 28.989h33.49l16.75-28.99ZM947.659 687.872l17.237-29.847.164-.288h34.81l17.4 30.127-17.24 29.847-.16.289h-34.81l-17.401-30.128Zm68.301 0-16.745-28.989h-33.492l-16.745 28.989 16.745 28.989h33.492l16.745-28.989Zm-68.301-59.117 17.237-29.847.164-.289h34.81l17.4 30.128-17.24 29.847-.16.289h-34.81l-17.401-30.128Zm68.301 0-16.745-28.989h-33.492l-16.745 28.989 16.745 28.989h33.492l16.745-28.989Zm-68.301-118.234 17.237-29.847.164-.289h34.81l17.4 30.128-17.24 29.847-.16.289h-34.81l-17.401-30.128Zm68.301 0-16.745-28.989h-33.492l-16.745 28.989 16.745 28.989h33.492l16.745-28.989Zm-68.301-118.234 17.237-29.847.164-.289h34.81l17.4 30.128-17.24 29.847-.16.289h-34.81l-17.401-30.128Zm68.301 0-16.745-28.989h-33.492l-16.745 28.989 16.745 28.989h33.492l16.745-28.989Zm-68.301-59.117 17.237-29.847.164-.289h34.81l17.4 30.128-17.24 29.847-.16.289h-34.81l-17.401-30.128Zm68.301 0-16.745-28.989h-33.492l-16.745 28.989 16.745 28.989h33.492l16.745-28.989Zm-68.301-59.117 17.237-29.847.164-.289h34.81l17.4 30.128-17.24 29.847-.16.289h-34.81l-17.401-30.128Zm68.301 0-16.745-28.989h-33.492l-16.745 28.989 16.745 28.989h33.492l16.745-28.989Zm-68.301-118.234 17.237-29.847.164-.289h34.81l17.4 30.128-17.24 29.847-.16.289h-34.81l-17.401-30.128Zm68.301 0-16.745-28.989h-33.492l-16.745 28.989 16.745 28.989h33.492l16.745-28.989Zm-120.232 443.37 17.238-29.847.164-.289h34.81l17.401 30.128-17.237 29.847-.164.289h-34.81l-17.402-30.128Zm68.294 0L947.277 570.2h-33.492l-16.746 28.989 16.746 28.989h33.492l16.745-28.989Zm-68.294-118.234 17.238-29.847.164-.289h34.81l17.401 30.128-17.237 29.847-.164.289h-34.81l-17.402-30.128Zm68.294 0-16.745-28.989h-33.492l-16.746 28.989 16.746 28.989h33.492l16.745-28.989Zm-68.294-118.234 17.238-29.847.164-.289h34.81l17.401 30.128-17.237 29.847-.164.289h-34.81l-17.402-30.128Zm68.294 0-16.745-28.989h-33.492l-16.746 28.989 16.746 28.989h33.492l16.745-28.989Zm-68.294-59.117 17.238-29.847.164-.289h34.81l17.401 30.128-17.237 29.847-.164.289h-34.81l-17.402-30.128Zm68.294 0-16.745-28.989h-33.492l-16.746 28.989 16.746 28.989h33.492l16.745-28.989ZM895.728 185.37l17.238-29.847.164-.289h34.81l17.401 30.128-17.237 29.847-.164.289h-34.81l-17.402-30.128Zm68.294 0-16.745-28.989h-33.492l-16.746 28.989 16.746 28.989h33.492l16.745-28.989Zm-68.294-59.117 17.238-29.847.164-.289h34.81l17.401 30.128-17.237 29.847-.164.289h-34.81l-17.402-30.128Zm68.294 0-16.745-28.99h-33.492l-16.746 28.99 16.746 28.989h33.492l16.745-28.989Zm-68.294-59.117 17.238-29.847.164-.289h34.81l17.401 30.128-17.237 29.847-.164.288h-34.81l-17.402-30.127Zm68.294 0-16.745-28.99h-33.492l-16.746 28.99 16.746 28.989h33.492l16.745-28.99Zm-119.53 502.502 17.238-29.847.164-.289h34.81l17.401 30.128-17.237 29.847-.164.289h-34.81l-17.402-30.128Zm68.302 0-16.746-28.989h-33.491l-16.746 28.989 16.746 28.989h33.491l16.746-28.989Zm-68.302-59.117 17.238-29.847.164-.289h34.81l17.401 30.128-17.237 29.847-.164.289h-34.81l-17.402-30.128Zm68.302 0-16.746-28.989h-33.491l-16.746 28.989 16.746 28.989h33.491l16.746-28.989Zm-68.302-59.117 17.238-29.847.164-.289h34.81l17.401 30.128-17.237 29.847-.164.289h-34.81l-17.402-30.128Zm68.302 0-16.746-28.989h-33.491l-16.746 28.989 16.746 28.989h33.491l16.746-28.989Zm-68.302-59.117 17.238-29.847.164-.289h34.81l17.401 30.128-17.237 29.847-.164.289h-34.81l-17.402-30.128Zm68.302 0-16.746-28.989h-33.491l-16.746 28.989 16.746 28.989h33.491l16.746-28.989Zm-68.302-59.117 17.238-29.847.164-.289h34.81l17.401 30.128-17.237 29.847-.164.289h-34.81l-17.402-30.128Zm68.302 0-16.746-28.989h-33.491l-16.746 28.989 16.746 28.989h33.491l16.746-28.989Zm-68.302-59.117 17.238-29.847.164-.289h34.81l17.401 30.128-17.237 29.847-.164.289h-34.81l-17.402-30.128Zm68.302 0-16.746-28.989h-33.491l-16.746 28.989 16.746 28.989h33.491l16.746-28.989ZM792.562 658.306l17.237-29.847.164-.289h34.81l17.401 30.128-17.237 29.847-.164.289h-34.81l-17.401-30.128Zm68.294 0-16.746-28.989h-33.492l-16.745 28.989 16.745 28.989h33.492l16.746-28.989Zm-68.294-59.117 17.237-29.847.164-.289h34.81l17.401 30.128-17.237 29.847-.164.289h-34.81l-17.401-30.128Zm68.294 0L844.11 570.2h-33.492l-16.745 28.989 16.745 28.989h33.492l16.746-28.989Zm-68.294-59.117 17.237-29.847.164-.289h34.81l17.401 30.128-17.237 29.847-.164.289h-34.81l-17.401-30.128Zm68.294 0-16.746-28.989h-33.492l-16.745 28.989 16.745 28.989h33.492l16.746-28.989Zm-68.294-118.234 17.237-29.847.164-.289h34.81l17.401 30.128-17.237 29.847-.164.289h-34.81l-17.401-30.128Zm68.294 0-16.746-28.989h-33.492l-16.745 28.989 16.745 28.989h33.492l16.746-28.989Zm-68.294-118.234 17.237-29.847.164-.289h34.81l17.401 30.128-17.237 29.847-.164.289h-34.81l-17.401-30.128Zm68.294 0-16.746-28.989h-33.492l-16.745 28.989 16.745 28.989h33.492l16.746-28.989Zm-68.294-59.117 17.237-29.847.164-.289h34.81l17.401 30.128-17.237 29.847-.164.289h-34.81l-17.401-30.128Zm68.294 0-16.746-28.989h-33.492l-16.745 28.989 16.745 28.989h33.492l16.746-28.989Zm-68.294-59.117 17.237-29.847.164-.289h34.81l17.401 30.128-17.237 29.847-.164.289h-34.81l-17.401-30.128Zm68.294 0-16.746-28.989h-33.492l-16.745 28.989 16.745 28.989h33.492l16.746-28.989ZM741.333 687.872l17.238-29.847.164-.288h34.81l17.401 30.127-17.237 29.847-.164.289h-34.81l-17.402-30.128Zm68.294 0-16.745-28.989H759.39l-16.746 28.989 16.746 28.989h33.492l16.745-28.989Zm-68.294-59.117 17.238-29.847.164-.289h34.81l17.401 30.128-17.237 29.847-.164.289h-34.81l-17.402-30.128Zm68.294 0-16.745-28.989H759.39l-16.746 28.989 16.746 28.989h33.492l16.745-28.989Zm-68.294-59.117 17.238-29.847.164-.289h34.81l17.401 30.128-17.237 29.847-.164.289h-34.81l-17.402-30.128Zm68.294 0-16.745-28.989H759.39l-16.746 28.989 16.746 28.989h33.492l16.745-28.989Zm-68.294-59.117 17.238-29.847.164-.289h34.81l17.401 30.128-17.237 29.847-.164.289h-34.81l-17.402-30.128Zm68.294 0-16.745-28.989H759.39l-16.746 28.989 16.746 28.989h33.492l16.745-28.989Zm-68.294-59.117 17.238-29.847.164-.289h34.81l17.401 30.128-17.237 29.847-.164.289h-34.81l-17.402-30.128Zm68.294 0-16.745-28.989H759.39l-16.746 28.989 16.746 28.989h33.492l16.745-28.989ZM741.333 333.17l17.238-29.847.164-.289h34.81l17.401 30.128-17.237 29.847-.164.289h-34.81l-17.402-30.128Zm68.294 0-16.745-28.989H759.39l-16.746 28.989 16.746 28.989h33.492l16.745-28.989Zm-68.294-59.117 17.238-29.847.164-.289h34.81l17.401 30.128-17.237 29.847-.164.289h-34.81l-17.402-30.128Zm68.294 0-16.745-28.989H759.39l-16.746 28.989 16.746 28.989h33.492l16.745-28.989Zm-68.294-59.117 17.238-29.847.164-.289h34.81l17.401 30.128-17.237 29.847-.164.289h-34.81l-17.402-30.128Zm68.294 0-16.745-28.989H759.39l-16.746 28.989 16.746 28.989h33.492l16.745-28.989Zm-68.294-59.117 17.238-29.847.164-.289h34.81l17.401 30.128-17.237 29.847-.164.289h-34.81l-17.402-30.128Zm68.294 0-16.745-28.989H759.39l-16.746 28.989 16.746 28.989h33.492l16.745-28.989Zm-68.294-59.11 17.238-29.846.164-.289h34.81l17.401 30.128-17.237 29.847-.164.289h-34.81L741.333 96.71Zm68.294 0-16.745-28.988H759.39L742.644 96.71l16.746 28.989h33.492l16.745-28.99ZM689.395 658.307l17.237-29.847.164-.289h34.811l17.401 30.128-17.238 29.847-.163.289h-34.811l-17.401-30.128Zm68.294 0-16.746-28.989h-33.491l-16.746 28.989 16.746 28.989h33.491l16.746-28.989Zm-68.294-59.117 17.237-29.847.164-.289h34.811l17.401 30.128-17.238 29.847-.163.289h-34.811l-17.401-30.128Zm68.294 0-16.746-28.99h-33.491l-16.746 28.989 16.746 28.989h33.491l16.746-28.989Zm-68.294-118.234 17.237-29.847.164-.289h34.811l17.401 30.128-17.238 29.847-.163.289h-34.811l-17.401-30.128Zm68.294 0-16.746-28.989h-33.491l-16.746 28.989 16.746 28.989h33.491l16.746-28.989Zm-68.294-59.117 17.237-29.847.164-.289h34.811l17.401 30.128-17.238 29.847-.163.289h-34.811l-17.401-30.128Zm68.294 0-16.746-28.989h-33.491l-16.746 28.989 16.746 28.989h33.491l16.746-28.989Zm-68.294-59.117 17.237-29.847.164-.289h34.811l17.401 30.128-17.238 29.847-.163.289h-34.811l-17.401-30.128Zm68.294 0-16.746-28.989h-33.491l-16.746 28.989 16.746 28.989h33.491l16.746-28.989Zm-68.294-118.234 17.237-29.847.164-.289h34.811l17.401 30.128-17.238 29.847-.163.289h-34.811l-17.401-30.128Zm68.294 0-16.746-28.989h-33.491l-16.746 28.989 16.746 28.989h33.491l16.746-28.989Zm-68.294-59.117 17.237-29.847.164-.289h34.811l17.401 30.128-17.238 29.847-.163.289h-34.811l-17.401-30.128Zm68.294 0-16.746-28.989h-33.491l-16.746 28.989 16.746 28.989h33.491l16.746-28.989Zm-68.294-59.117 17.237-29.847.164-.289h34.811l17.401 30.128-17.238 29.847-.163.289h-34.811l-17.401-30.128Zm68.294 0-16.746-28.99h-33.491l-16.746 28.99 16.746 28.989h33.491l16.746-28.989Zm-68.294-59.117 17.237-29.847.164-.289h34.811l17.401 30.128-17.238 29.847-.163.288h-34.811l-17.401-30.127Zm68.294 0-16.746-28.99h-33.491l-16.746 28.99 16.746 28.989h33.491l16.746-28.99ZM638.167 687.872l17.237-29.847.164-.288h34.81l17.401 30.127-17.237 29.847-.164.289h-34.81l-17.401-30.128Zm68.294 0-16.746-28.989h-33.492l-16.745 28.989 16.745 28.989h33.492l16.746-28.989Zm-68.294-59.117 17.237-29.847.164-.289h34.81l17.401 30.128-17.237 29.847-.164.289h-34.81l-17.401-30.128Zm68.294 0-16.746-28.989h-33.492l-16.745 28.989 16.745 28.989h33.492l16.746-28.989Zm-68.294-59.117 17.237-29.847.164-.289h34.81l17.401 30.128-17.237 29.847-.164.289h-34.81l-17.401-30.128Zm68.294 0-16.746-28.989h-33.492l-16.745 28.989 16.745 28.989h33.492l16.746-28.989Zm-68.294-118.234 17.237-29.847.164-.289h34.81l17.401 30.128-17.237 29.847-.164.289h-34.81l-17.401-30.128Zm68.294 0-16.746-28.989h-33.492l-16.745 28.989 16.745 28.989h33.492l16.746-28.989Zm-68.294-59.117 17.237-29.847.164-.289h34.81l17.401 30.128-17.237 29.847-.164.289h-34.81l-17.401-30.128Zm68.294 0-16.746-28.989h-33.492l-16.745 28.989 16.745 28.989h33.492l16.746-28.989Zm-68.294-59.117 17.237-29.847.164-.289h34.81l17.401 30.128-17.237 29.847-.164.289h-34.81l-17.401-30.128Zm68.294 0-16.746-28.989h-33.492l-16.745 28.989 16.745 28.989h33.492l16.746-28.989Zm-68.294-59.117 17.237-29.847.164-.289h34.81l17.401 30.128-17.237 29.847-.164.289h-34.81l-17.401-30.128Zm68.294 0-16.746-28.989h-33.492l-16.745 28.989 16.745 28.989h33.492l16.746-28.989Zm-68.294-118.234 17.237-29.847.164-.289h34.81l17.401 30.128-17.237 29.847-.164.289h-34.81l-17.401-30.128Zm68.294 0-16.746-28.989h-33.492l-16.745 28.989 16.745 28.989h33.492l16.746-28.989Zm-68.294-59.11 17.237-29.846.164-.289h34.81l17.401 30.128-17.237 29.847-.164.289h-34.81L638.167 96.71Zm68.294 0-16.746-28.988h-33.492L639.478 96.71l16.745 28.989h33.492l16.746-28.99ZM586.228 658.307l17.238-29.847.164-.289h34.81l17.401 30.128-17.237 29.847-.164.289h-34.81l-17.402-30.128Zm68.302 0-16.746-28.989h-33.491l-16.746 28.989 16.746 28.989h33.491l16.746-28.989Zm-68.302-59.117 17.238-29.847.164-.289h34.81l17.401 30.128-17.237 29.847-.164.289h-34.81l-17.402-30.128Zm68.302 0-16.746-28.99h-33.491l-16.746 28.989 16.746 28.989h33.491l16.746-28.989Zm-68.302-59.117 17.238-29.847.164-.289h34.81l17.401 30.128-17.237 29.847-.164.289h-34.81l-17.402-30.128Zm68.302 0-16.746-28.989h-33.491l-16.746 28.989 16.746 28.989h33.491l16.746-28.989Zm-68.302-118.234 17.238-29.847.164-.289h34.81l17.401 30.128-17.237 29.847-.164.289h-34.81l-17.402-30.128Zm68.302 0-16.746-28.989h-33.491l-16.746 28.989 16.746 28.989h33.491l16.746-28.989Zm-68.302-59.117 17.238-29.847.164-.289h34.81l17.401 30.128-17.237 29.847-.164.289h-34.81l-17.402-30.128Zm68.302 0-16.746-28.989h-33.491l-16.746 28.989 16.746 28.989h33.491l16.746-28.989Zm-68.302-59.117 17.238-29.847.164-.289h34.81l17.401 30.128-17.237 29.847-.164.289h-34.81l-17.402-30.128Zm68.302 0-16.746-28.989h-33.491l-16.746 28.989 16.746 28.989h33.491l16.746-28.989ZM586.228 185.37l17.238-29.847.164-.289h34.81l17.401 30.128-17.237 29.847-.164.289h-34.81l-17.402-30.128Zm68.302 0-16.746-28.989h-33.491l-16.746 28.989 16.746 28.989h33.491l16.746-28.989Zm-68.302-59.117 17.238-29.847.164-.289h34.81l17.401 30.128-17.237 29.847-.164.289h-34.81l-17.402-30.128Zm68.302 0-16.746-28.99h-33.491l-16.746 28.99 16.746 28.989h33.491l16.746-28.989Zm-68.302-59.117 17.238-29.847.164-.289h34.81l17.401 30.128-17.237 29.847-.164.288h-34.81l-17.402-30.127Zm68.302 0-16.746-28.99h-33.491l-16.746 28.99 16.746 28.989h33.491l16.746-28.99ZM535 687.872l17.237-29.847.164-.288h34.811l17.401 30.127-17.238 29.847-.163.289h-34.811L535 687.872Zm68.302 0-16.746-28.989h-33.491l-16.746 28.989 16.746 28.989h33.491l16.746-28.989ZM535 569.638l17.237-29.847.164-.289h34.811l17.401 30.128-17.238 29.847-.163.289h-34.811L535 569.638Zm68.302 0-16.746-28.989h-33.491l-16.746 28.989 16.746 28.989h33.491l16.746-28.989ZM535 510.521l17.237-29.847.164-.289h34.811l17.401 30.128-17.238 29.847-.163.289h-34.811L535 510.521Zm68.302 0-16.746-28.989h-33.491l-16.746 28.989 16.746 28.989h33.491l16.746-28.989ZM535 392.287l17.237-29.847.164-.289h34.811l17.401 30.128-17.238 29.847-.163.289h-34.811L535 392.287Zm68.302 0-16.746-28.989h-33.491l-16.746 28.989 16.746 28.989h33.491l16.746-28.989ZM535 274.053l17.237-29.847.164-.289h34.811l17.401 30.128-17.238 29.847-.163.289h-34.811L535 274.053Zm68.302 0-16.746-28.989h-33.491l-16.746 28.989 16.746 28.989h33.491l16.746-28.989ZM535 214.936l17.237-29.847.164-.289h34.811l17.401 30.128-17.238 29.847-.163.289h-34.811L535 214.936Zm68.302 0-16.746-28.989h-33.491l-16.746 28.989 16.746 28.989h33.491l16.746-28.989ZM535 155.819l17.237-29.847.164-.289h34.811l17.401 30.128-17.238 29.847-.163.289h-34.811L535 155.819Zm68.302 0-16.746-28.989h-33.491l-16.746 28.989 16.746 28.989h33.491l16.746-28.989ZM535 96.709l17.237-29.846.164-.289h34.811l17.401 30.128-17.238 29.847-.163.289h-34.811L535 96.71Zm68.302 0-16.746-28.988h-33.491L536.319 96.71l16.746 28.989h33.491l16.746-28.99Zm705.088 561.597 17.23-29.847.17-.289h34.81l17.4 30.128-17.24 29.847-.16.289h-34.81l-17.4-30.128Zm68.29 0-16.74-28.989h-33.5l-16.74 28.989 16.74 28.989h33.5l16.74-28.989Zm-68.29-236.468 17.23-29.847.17-.289h34.81l17.4 30.128-17.24 29.847-.16.289h-34.81l-17.4-30.128Zm68.29 0-16.74-28.989h-33.5l-16.74 28.989 16.74 28.989h33.5l16.74-28.989Zm-68.29-236.468 17.23-29.847.17-.289h34.81l17.4 30.128-17.24 29.847-.16.289h-34.81l-17.4-30.128Zm68.29 0-16.74-28.989h-33.5l-16.74 28.989 16.74 28.989h33.5l16.74-28.989Zm-119.52 502.502 17.24-29.847.16-.288h34.81l17.4 30.127-17.24 29.847-.16.289h-34.81l-17.4-30.128Zm68.29 0-16.74-28.989h-33.49l-16.75 28.989 16.75 28.989h33.49l16.74-28.989Zm-68.29-59.117 17.24-29.847.16-.289h34.81l17.4 30.128-17.24 29.847-.16.289h-34.81l-17.4-30.128Zm68.29 0-16.74-28.989h-33.49l-16.75 28.989 16.75 28.989h33.49l16.74-28.989Zm-68.29-118.234 17.24-29.847.16-.289h34.81l17.4 30.128-17.24 29.847-.16.289h-34.81l-17.4-30.128Zm68.29 0-16.74-28.989h-33.49l-16.75 28.989 16.75 28.989h33.49l16.74-28.989Zm-68.29-118.234 17.24-29.847.16-.289h34.81l17.4 30.128-17.24 29.847-.16.289h-34.81l-17.4-30.128Zm68.29 0-16.74-28.989h-33.49l-16.75 28.989 16.75 28.989h33.49l16.74-28.989Zm-68.29-118.234 17.24-29.847.16-.289h34.81l17.4 30.128-17.24 29.847-.16.289h-34.81l-17.4-30.128Zm68.29 0-16.74-28.989h-33.49l-16.75 28.989 16.75 28.989h33.49l16.74-28.989Zm-68.29-118.234 17.24-29.847.16-.289h34.81l17.4 30.128-17.24 29.847-.16.289h-34.81l-17.4-30.128Zm68.29 0-16.74-28.989h-33.49l-16.75 28.989 16.75 28.989h33.49l16.74-28.989Zm-120.23 443.37 17.24-29.847.16-.289h34.81l17.4 30.128-17.23 29.847-.17.289h-34.81l-17.4-30.128Zm68.3 0-16.74-28.989h-33.49l-16.75 28.989 16.75 28.989h33.49l16.74-28.989Zm-68.3-118.234 17.24-29.847.16-.289h34.81l17.4 30.128-17.23 29.847-.17.289h-34.81l-17.4-30.128Zm68.3 0-16.74-28.989h-33.49l-16.75 28.989 16.75 28.989h33.49l16.74-28.989Zm-68.3-59.117 17.24-29.847.16-.289h34.81l17.4 30.128-17.23 29.847-.17.289h-34.81l-17.4-30.128Zm68.3 0-16.74-28.989h-33.49l-16.75 28.989 16.75 28.989h33.49l16.74-28.989Zm-68.3-59.117 17.24-29.847.16-.289h34.81l17.4 30.128-17.23 29.847-.17.289h-34.81l-17.4-30.128Zm68.3 0-16.74-28.989h-33.49l-16.75 28.989 16.75 28.989h33.49l16.74-28.989Zm-68.3-118.234 17.24-29.847.16-.289h34.81l17.4 30.128-17.23 29.847-.17.289h-34.81l-17.4-30.128Zm68.3 0-16.74-28.989h-33.49l-16.75 28.989 16.75 28.989h33.49l16.74-28.989Zm-68.3-118.234 17.24-29.847.16-.289h34.81l17.4 30.128-17.23 29.847-.17.289h-34.81l-17.4-30.128Zm68.3 0-16.74-28.99h-33.49l-16.75 28.99 16.75 28.989h33.49l16.74-28.989Zm-119.53 502.502 17.24-29.847.16-.289h34.81l17.41 30.128-17.24 29.847-.17.289h-34.81l-17.4-30.128Zm68.3 0-16.74-28.989h-33.49l-16.75 28.989 16.75 28.989h33.49l16.74-28.989Zm-68.3-118.234 17.24-29.847.16-.289h34.81l17.41 30.128-17.24 29.847-.17.289h-34.81l-17.4-30.128Zm68.3 0-16.74-28.989h-33.49l-16.75 28.989 16.75 28.989h33.49l16.74-28.989Zm-68.3-118.234 17.24-29.847.16-.289h34.81l17.41 30.128-17.24 29.847-.17.289h-34.81l-17.4-30.128Zm68.3 0-16.74-28.989h-33.49l-16.75 28.989 16.75 28.989h33.49l16.74-28.989Zm-68.3-177.351 17.24-29.847.16-.289h34.81l17.41 30.128-17.24 29.847-.17.289h-34.81l-17.4-30.128Zm68.3 0-16.74-28.989h-33.49l-16.75 28.989 16.75 28.989h33.49l16.74-28.989Zm-68.3-59.117 17.24-29.847.16-.289h34.81l17.41 30.128-17.24 29.847-.17.289h-34.81l-17.4-30.128Zm68.3 0-16.74-28.989h-33.49l-16.75 28.989 16.75 28.989h33.49l16.74-28.989Zm-68.3-59.11 17.24-29.846.16-.289h34.81l17.41 30.128-17.24 29.847-.17.289h-34.81l-17.4-30.128Zm68.3 0-16.74-28.988h-33.49l-16.75 28.989 16.75 28.989h33.49l16.74-28.99Zm-120.24 561.597 17.24-29.847.17-.289h34.81l17.4 30.128-17.24 29.847-.16.289h-34.81l-17.41-30.128Zm68.31 0-16.75-28.989h-33.49l-16.75 28.989 16.75 28.989h33.49l16.75-28.989Zm-68.31-177.351 17.24-29.847.17-.289h34.81l17.4 30.128-17.24 29.847-.16.289h-34.81l-17.41-30.128Zm68.31 0-16.75-28.989h-33.49l-16.75 28.989 16.75 28.989h33.49l16.75-28.989Zm-68.31-59.117 17.24-29.847.17-.289h34.81l17.4 30.128-17.24 29.847-.16.289h-34.81l-17.41-30.128Zm68.31 0-16.75-28.989h-33.49l-16.75 28.989 16.75 28.989h33.49l16.75-28.989Zm-68.31-59.117 17.24-29.847.17-.289h34.81l17.4 30.128-17.24 29.847-.16.289h-34.81l-17.41-30.128Zm68.31 0-16.75-28.989h-33.49l-16.75 28.989 16.75 28.989h33.49l16.75-28.989Zm-68.31-118.234 17.24-29.847.17-.289h34.81l17.4 30.128-17.24 29.847-.16.289h-34.81l-17.41-30.128Zm68.31 0-16.75-28.989h-33.49l-16.75 28.989 16.75 28.989h33.49l16.75-28.989Zm-68.31-59.117 17.24-29.847.17-.289h34.81l17.4 30.128-17.24 29.847-.16.289h-34.81l-17.41-30.128Zm68.31 0-16.75-28.989h-33.49l-16.75 28.989 16.75 28.989h33.49l16.75-28.989Zm-68.31-59.117 17.24-29.847.17-.289h34.81l17.4 30.128-17.24 29.847-.16.289h-34.81l-17.41-30.128Zm68.31 0-16.75-28.99h-33.49l-16.75 28.99 16.75 28.989h33.49l16.75-28.989Zm-119.53 443.385 17.23-29.847.17-.289h34.81l17.4 30.128-17.24 29.847-.16.289h-34.81l-17.4-30.128Zm68.3 0-16.75-28.989h-33.49l-16.75 28.989 16.75 28.989h33.49l16.75-28.989Zm-68.3-59.117 17.23-29.847.17-.289h34.81l17.4 30.128-17.24 29.847-.16.289h-34.81l-17.4-30.128Zm68.3 0-16.75-28.989h-33.49l-16.75 28.989 16.75 28.989h33.49l16.75-28.989Zm-68.3-59.117 17.23-29.847.17-.289h34.81l17.4 30.128-17.24 29.847-.16.289h-34.81l-17.4-30.128Zm68.3 0-16.75-28.989h-33.49l-16.75 28.989 16.75 28.989h33.49l16.75-28.989Zm-68.3-59.117 17.23-29.847.17-.289h34.81l17.4 30.128-17.24 29.847-.16.289h-34.81l-17.4-30.128Zm68.3 0-16.75-28.989h-33.49l-16.75 28.989 16.75 28.989h33.49l16.75-28.989Zm-68.3-118.234 17.23-29.847.17-.289h34.81l17.4 30.128-17.24 29.847-.16.289h-34.81l-17.4-30.128Zm68.3 0-16.75-28.989h-33.49l-16.75 28.989 16.75 28.989h33.49l16.75-28.989Zm-68.3-59.117 17.23-29.847.17-.289h34.81l17.4 30.128-17.24 29.847-.16.289h-34.81l-17.4-30.128Zm68.3 0-16.75-28.989h-33.49l-16.75 28.989 16.75 28.989h33.49l16.75-28.989Zm-120.243 443.37 17.233-29.847.17-.289h34.81l17.4 30.128-17.24 29.847-.16.289h-34.81l-17.403-30.128Zm68.303 0-16.75-28.989h-33.49l-16.74 28.989 16.74 28.989h33.49l16.75-28.989Zm-68.303-59.117 17.233-29.847.17-.289h34.81l17.4 30.128-17.24 29.847-.16.289h-34.81l-17.403-30.128Zm68.303 0-16.75-28.989h-33.49l-16.74 28.989 16.74 28.989h33.49l16.75-28.989Zm-68.303-59.117 17.233-29.847.17-.289h34.81l17.4 30.128-17.24 29.847-.16.289h-34.81l-17.403-30.128Zm68.303 0-16.75-28.989h-33.49l-16.74 28.989 16.74 28.989h33.49l16.75-28.989Zm-68.303-59.117 17.233-29.847.17-.289h34.81l17.4 30.128-17.24 29.847-.16.289h-34.81l-17.403-30.128Zm68.303 0-16.75-28.989h-33.49l-16.74 28.989 16.74 28.989h33.49l16.75-28.989Zm-68.303-177.351 17.233-29.847.17-.289h34.81l17.4 30.128-17.24 29.847-.16.289h-34.81l-17.403-30.128Zm68.303 0-16.75-28.989h-33.49l-16.74 28.989 16.74 28.989h33.49l16.75-28.989Zm-68.303-59.117 17.233-29.847.17-.289h34.81l17.4 30.128-17.24 29.847-.16.289h-34.81l-17.403-30.128Zm68.303 0-16.75-28.989h-33.49l-16.74 28.989 16.74 28.989h33.49l16.75-28.989Zm-68.303-59.117 17.233-29.847.17-.289h34.81l17.4 30.128-17.24 29.847-.16.289h-34.81l-17.403-30.128Zm68.303 0-16.75-28.989h-33.49l-16.74 28.989 16.74 28.989h33.49l16.75-28.989Zm-68.303-59.117 17.233-29.847.17-.289h34.81l17.4 30.128-17.24 29.847-.16.289h-34.81l-17.403-30.128Zm68.303 0-16.75-28.99h-33.49l-16.74 28.99 16.74 28.989h33.49l16.75-28.989Zm-68.303-59.117 17.233-29.847.17-.289h34.81l17.4 30.128-17.24 29.847-.16.288h-34.81l-17.403-30.127Zm68.303 0-16.75-28.99h-33.49l-16.74 28.99 16.74 28.989h33.49l16.75-28.99ZM947.659 687.872l17.237-29.847.164-.288h34.81l17.4 30.127-17.24 29.847-.16.289h-34.81l-17.401-30.128Zm68.301 0-16.745-28.989h-33.492l-16.745 28.989 16.745 28.989h33.492l16.745-28.989Zm-68.301-59.117 17.237-29.847.164-.289h34.81l17.4 30.128-17.24 29.847-.16.289h-34.81l-17.401-30.128Zm68.301 0-16.745-28.989h-33.492l-16.745 28.989 16.745 28.989h33.492l16.745-28.989Zm-68.301-118.234 17.237-29.847.164-.289h34.81l17.4 30.128-17.24 29.847-.16.289h-34.81l-17.401-30.128Zm68.301 0-16.745-28.989h-33.492l-16.745 28.989 16.745 28.989h33.492l16.745-28.989Zm-68.301-118.234 17.237-29.847.164-.289h34.81l17.4 30.128-17.24 29.847-.16.289h-34.81l-17.401-30.128Zm68.301 0-16.745-28.989h-33.492l-16.745 28.989 16.745 28.989h33.492l16.745-28.989Zm-68.301-59.117 17.237-29.847.164-.289h34.81l17.4 30.128-17.24 29.847-.16.289h-34.81l-17.401-30.128Zm68.301 0-16.745-28.989h-33.492l-16.745 28.989 16.745 28.989h33.492l16.745-28.989Zm-68.301-59.117 17.237-29.847.164-.289h34.81l17.4 30.128-17.24 29.847-.16.289h-34.81l-17.401-30.128Zm68.301 0-16.745-28.989h-33.492l-16.745 28.989 16.745 28.989h33.492l16.745-28.989Zm-68.301-118.234 17.237-29.847.164-.289h34.81l17.4 30.128-17.24 29.847-.16.289h-34.81l-17.401-30.128Zm68.301 0-16.745-28.989h-33.492l-16.745 28.989 16.745 28.989h33.492l16.745-28.989Zm-120.232 443.37 17.238-29.847.164-.289h34.81l17.401 30.128-17.237 29.847-.164.289h-34.81l-17.402-30.128Zm68.294 0L947.277 570.2h-33.492l-16.746 28.989 16.746 28.989h33.492l16.745-28.989Zm-68.294-118.234 17.238-29.847.164-.289h34.81l17.401 30.128-17.237 29.847-.164.289h-34.81l-17.402-30.128Zm68.294 0-16.745-28.989h-33.492l-16.746 28.989 16.746 28.989h33.492l16.745-28.989Zm-68.294-118.234 17.238-29.847.164-.289h34.81l17.401 30.128-17.237 29.847-.164.289h-34.81l-17.402-30.128Zm68.294 0-16.745-28.989h-33.492l-16.746 28.989 16.746 28.989h33.492l16.745-28.989Zm-68.294-59.117 17.238-29.847.164-.289h34.81l17.401 30.128-17.237 29.847-.164.289h-34.81l-17.402-30.128Zm68.294 0-16.745-28.989h-33.492l-16.746 28.989 16.746 28.989h33.492l16.745-28.989ZM895.728 185.37l17.238-29.847.164-.289h34.81l17.401 30.128-17.237 29.847-.164.289h-34.81l-17.402-30.128Zm68.294 0-16.745-28.989h-33.492l-16.746 28.989 16.746 28.989h33.492l16.745-28.989Zm-68.294-59.117 17.238-29.847.164-.289h34.81l17.401 30.128-17.237 29.847-.164.289h-34.81l-17.402-30.128Zm68.294 0-16.745-28.99h-33.492l-16.746 28.99 16.746 28.989h33.492l16.745-28.989Zm-68.294-59.117 17.238-29.847.164-.289h34.81l17.401 30.128-17.237 29.847-.164.288h-34.81l-17.402-30.127Zm68.294 0-16.745-28.99h-33.492l-16.746 28.99 16.746 28.989h33.492l16.745-28.99Zm-119.53 502.502 17.238-29.847.164-.289h34.81l17.401 30.128-17.237 29.847-.164.289h-34.81l-17.402-30.128Zm68.302 0-16.746-28.989h-33.491l-16.746 28.989 16.746 28.989h33.491l16.746-28.989Zm-68.302-59.117 17.238-29.847.164-.289h34.81l17.401 30.128-17.237 29.847-.164.289h-34.81l-17.402-30.128Zm68.302 0-16.746-28.989h-33.491l-16.746 28.989 16.746 28.989h33.491l16.746-28.989Zm-68.302-59.117 17.238-29.847.164-.289h34.81l17.401 30.128-17.237 29.847-.164.289h-34.81l-17.402-30.128Zm68.302 0-16.746-28.989h-33.491l-16.746 28.989 16.746 28.989h33.491l16.746-28.989Zm-68.302-59.117 17.238-29.847.164-.289h34.81l17.401 30.128-17.237 29.847-.164.289h-34.81l-17.402-30.128Zm68.302 0-16.746-28.989h-33.491l-16.746 28.989 16.746 28.989h33.491l16.746-28.989Zm-68.302-59.117 17.238-29.847.164-.289h34.81l17.401 30.128-17.237 29.847-.164.289h-34.81l-17.402-30.128Zm68.302 0-16.746-28.989h-33.491l-16.746 28.989 16.746 28.989h33.491l16.746-28.989Zm-68.302-59.117 17.238-29.847.164-.289h34.81l17.401 30.128-17.237 29.847-.164.289h-34.81l-17.402-30.128Zm68.302 0-16.746-28.989h-33.491l-16.746 28.989 16.746 28.989h33.491l16.746-28.989ZM792.562 658.306l17.237-29.847.164-.289h34.81l17.401 30.128-17.237 29.847-.164.289h-34.81l-17.401-30.128Zm68.294 0-16.746-28.989h-33.492l-16.745 28.989 16.745 28.989h33.492l16.746-28.989Zm-68.294-59.117 17.237-29.847.164-.289h34.81l17.401 30.128-17.237 29.847-.164.289h-34.81l-17.401-30.128Zm68.294 0L844.11 570.2h-33.492l-16.745 28.989 16.745 28.989h33.492l16.746-28.989Zm-68.294-59.117 17.237-29.847.164-.289h34.81l17.401 30.128-17.237 29.847-.164.289h-34.81l-17.401-30.128Zm68.294 0-16.746-28.989h-33.492l-16.745 28.989 16.745 28.989h33.492l16.746-28.989Zm-68.294-118.234 17.237-29.847.164-.289h34.81l17.401 30.128-17.237 29.847-.164.289h-34.81l-17.401-30.128Zm68.294 0-16.746-28.989h-33.492l-16.745 28.989 16.745 28.989h33.492l16.746-28.989Zm-68.294-118.234 17.237-29.847.164-.289h34.81l17.401 30.128-17.237 29.847-.164.289h-34.81l-17.401-30.128Zm68.294 0-16.746-28.989h-33.492l-16.745 28.989 16.745 28.989h33.492l16.746-28.989Zm-68.294-59.117 17.237-29.847.164-.289h34.81l17.401 30.128-17.237 29.847-.164.289h-34.81l-17.401-30.128Zm68.294 0-16.746-28.989h-33.492l-16.745 28.989 16.745 28.989h33.492l16.746-28.989Zm-68.294-59.117 17.237-29.847.164-.289h34.81l17.401 30.128-17.237 29.847-.164.289h-34.81l-17.401-30.128Zm68.294 0-16.746-28.989h-33.492l-16.745 28.989 16.745 28.989h33.492l16.746-28.989ZM741.333 687.872l17.238-29.847.164-.288h34.81l17.401 30.127-17.237 29.847-.164.289h-34.81l-17.402-30.128Zm68.294 0-16.745-28.989H759.39l-16.746 28.989 16.746 28.989h33.492l16.745-28.989Zm-68.294-59.117 17.238-29.847.164-.289h34.81l17.401 30.128-17.237 29.847-.164.289h-34.81l-17.402-30.128Zm68.294 0-16.745-28.989H759.39l-16.746 28.989 16.746 28.989h33.492l16.745-28.989Zm-68.294-59.117 17.238-29.847.164-.289h34.81l17.401 30.128-17.237 29.847-.164.289h-34.81l-17.402-30.128Zm68.294 0-16.745-28.989H759.39l-16.746 28.989 16.746 28.989h33.492l16.745-28.989Zm-68.294-59.117 17.238-29.847.164-.289h34.81l17.401 30.128-17.237 29.847-.164.289h-34.81l-17.402-30.128Zm68.294 0-16.745-28.989H759.39l-16.746 28.989 16.746 28.989h33.492l16.745-28.989Zm-68.294-59.117 17.238-29.847.164-.289h34.81l17.401 30.128-17.237 29.847-.164.289h-34.81l-17.402-30.128Zm68.294 0-16.745-28.989H759.39l-16.746 28.989 16.746 28.989h33.492l16.745-28.989ZM741.333 333.17l17.238-29.847.164-.289h34.81l17.401 30.128-17.237 29.847-.164.289h-34.81l-17.402-30.128Zm68.294 0-16.745-28.989H759.39l-16.746 28.989 16.746 28.989h33.492l16.745-28.989Zm-68.294-59.117 17.238-29.847.164-.289h34.81l17.401 30.128-17.237 29.847-.164.289h-34.81l-17.402-30.128Zm68.294 0-16.745-28.989H759.39l-16.746 28.989 16.746 28.989h33.492l16.745-28.989Zm-68.294-59.117 17.238-29.847.164-.289h34.81l17.401 30.128-17.237 29.847-.164.289h-34.81l-17.402-30.128Zm68.294 0-16.745-28.989H759.39l-16.746 28.989 16.746 28.989h33.492l16.745-28.989Zm-68.294-59.117 17.238-29.847.164-.289h34.81l17.401 30.128-17.237 29.847-.164.289h-34.81l-17.402-30.128Zm68.294 0-16.745-28.989H759.39l-16.746 28.989 16.746 28.989h33.492l16.745-28.989Zm-68.294-59.11 17.238-29.846.164-.289h34.81l17.401 30.128-17.237 29.847-.164.289h-34.81L741.333 96.71Zm68.294 0-16.745-28.988H759.39L742.644 96.71l16.746 28.989h33.492l16.745-28.99ZM689.395 658.307l17.237-29.847.164-.289h34.811l17.401 30.128-17.238 29.847-.163.289h-34.811l-17.401-30.128Zm68.294 0-16.746-28.989h-33.491l-16.746 28.989 16.746 28.989h33.491l16.746-28.989Zm-68.294-59.117 17.237-29.847.164-.289h34.811l17.401 30.128-17.238 29.847-.163.289h-34.811l-17.401-30.128Zm68.294 0-16.746-28.99h-33.491l-16.746 28.989 16.746 28.989h33.491l16.746-28.989Zm-68.294-118.234 17.237-29.847.164-.289h34.811l17.401 30.128-17.238 29.847-.163.289h-34.811l-17.401-30.128Zm68.294 0-16.746-28.989h-33.491l-16.746 28.989 16.746 28.989h33.491l16.746-28.989Zm-68.294-59.117 17.237-29.847.164-.289h34.811l17.401 30.128-17.238 29.847-.163.289h-34.811l-17.401-30.128Zm68.294 0-16.746-28.989h-33.491l-16.746 28.989 16.746 28.989h33.491l16.746-28.989Zm-68.294-59.117 17.237-29.847.164-.289h34.811l17.401 30.128-17.238 29.847-.163.289h-34.811l-17.401-30.128Zm68.294 0-16.746-28.989h-33.491l-16.746 28.989 16.746 28.989h33.491l16.746-28.989Zm-68.294-118.234 17.237-29.847.164-.289h34.811l17.401 30.128-17.238 29.847-.163.289h-34.811l-17.401-30.128Zm68.294 0-16.746-28.989h-33.491l-16.746 28.989 16.746 28.989h33.491l16.746-28.989Zm-68.294-59.117 17.237-29.847.164-.289h34.811l17.401 30.128-17.238 29.847-.163.289h-34.811l-17.401-30.128Zm68.294 0-16.746-28.989h-33.491l-16.746 28.989 16.746 28.989h33.491l16.746-28.989Zm-68.294-59.117 17.237-29.847.164-.289h34.811l17.401 30.128-17.238 29.847-.163.289h-34.811l-17.401-30.128Zm68.294 0-16.746-28.99h-33.491l-16.746 28.99 16.746 28.989h33.491l16.746-28.989Zm-68.294-59.117 17.237-29.847.164-.289h34.811l17.401 30.128-17.238 29.847-.163.288h-34.811l-17.401-30.127Zm68.294 0-16.746-28.99h-33.491l-16.746 28.99 16.746 28.989h33.491l16.746-28.99ZM638.167 687.872l17.237-29.847.164-.288h34.81l17.401 30.127-17.237 29.847-.164.289h-34.81l-17.401-30.128Zm68.294 0-16.746-28.989h-33.492l-16.745 28.989 16.745 28.989h33.492l16.746-28.989Zm-68.294-59.117 17.237-29.847.164-.289h34.81l17.401 30.128-17.237 29.847-.164.289h-34.81l-17.401-30.128Zm68.294 0-16.746-28.989h-33.492l-16.745 28.989 16.745 28.989h33.492l16.746-28.989Zm-68.294-59.117 17.237-29.847.164-.289h34.81l17.401 30.128-17.237 29.847-.164.289h-34.81l-17.401-30.128Zm68.294 0-16.746-28.989h-33.492l-16.745 28.989 16.745 28.989h33.492l16.746-28.989Zm-68.294-118.234 17.237-29.847.164-.289h34.81l17.401 30.128-17.237 29.847-.164.289h-34.81l-17.401-30.128Zm68.294 0-16.746-28.989h-33.492l-16.745 28.989 16.745 28.989h33.492l16.746-28.989Zm-68.294-59.117 17.237-29.847.164-.289h34.81l17.401 30.128-17.237 29.847-.164.289h-34.81l-17.401-30.128Zm68.294 0-16.746-28.989h-33.492l-16.745 28.989 16.745 28.989h33.492l16.746-28.989Zm-68.294-59.117 17.237-29.847.164-.289h34.81l17.401 30.128-17.237 29.847-.164.289h-34.81l-17.401-30.128Zm68.294 0-16.746-28.989h-33.492l-16.745 28.989 16.745 28.989h33.492l16.746-28.989Zm-68.294-59.117 17.237-29.847.164-.289h34.81l17.401 30.128-17.237 29.847-.164.289h-34.81l-17.401-30.128Zm68.294 0-16.746-28.989h-33.492l-16.745 28.989 16.745 28.989h33.492l16.746-28.989Zm-68.294-118.234 17.237-29.847.164-.289h34.81l17.401 30.128-17.237 29.847-.164.289h-34.81l-17.401-30.128Zm68.294 0-16.746-28.989h-33.492l-16.745 28.989 16.745 28.989h33.492l16.746-28.989Zm-68.294-59.11 17.237-29.846.164-.289h34.81l17.401 30.128-17.237 29.847-.164.289h-34.81L638.167 96.71Zm68.294 0-16.746-28.988h-33.492L639.478 96.71l16.745 28.989h33.492l16.746-28.99ZM586.228 658.307l17.238-29.847.164-.289h34.81l17.401 30.128-17.237 29.847-.164.289h-34.81l-17.402-30.128Zm68.302 0-16.746-28.989h-33.491l-16.746 28.989 16.746 28.989h33.491l16.746-28.989Zm-68.302-59.117 17.238-29.847.164-.289h34.81l17.401 30.128-17.237 29.847-.164.289h-34.81l-17.402-30.128Zm68.302 0-16.746-28.99h-33.491l-16.746 28.989 16.746 28.989h33.491l16.746-28.989Zm-68.302-59.117 17.238-29.847.164-.289h34.81l17.401 30.128-17.237 29.847-.164.289h-34.81l-17.402-30.128Zm68.302 0-16.746-28.989h-33.491l-16.746 28.989 16.746 28.989h33.491l16.746-28.989Zm-68.302-118.234 17.238-29.847.164-.289h34.81l17.401 30.128-17.237 29.847-.164.289h-34.81l-17.402-30.128Zm68.302 0-16.746-28.989h-33.491l-16.746 28.989 16.746 28.989h33.491l16.746-28.989Zm-68.302-59.117 17.238-29.847.164-.289h34.81l17.401 30.128-17.237 29.847-.164.289h-34.81l-17.402-30.128Zm68.302 0-16.746-28.989h-33.491l-16.746 28.989 16.746 28.989h33.491l16.746-28.989Zm-68.302-59.117 17.238-29.847.164-.289h34.81l17.401 30.128-17.237 29.847-.164.289h-34.81l-17.402-30.128Zm68.302 0-16.746-28.989h-33.491l-16.746 28.989 16.746 28.989h33.491l16.746-28.989ZM586.228 185.37l17.238-29.847.164-.289h34.81l17.401 30.128-17.237 29.847-.164.289h-34.81l-17.402-30.128Zm68.302 0-16.746-28.989h-33.491l-16.746 28.989 16.746 28.989h33.491l16.746-28.989Zm-68.302-59.117 17.238-29.847.164-.289h34.81l17.401 30.128-17.237 29.847-.164.289h-34.81l-17.402-30.128Zm68.302 0-16.746-28.99h-33.491l-16.746 28.99 16.746 28.989h33.491l16.746-28.989Zm-68.302-59.117 17.238-29.847.164-.289h34.81l17.401 30.128-17.237 29.847-.164.288h-34.81l-17.402-30.127Zm68.302 0-16.746-28.99h-33.491l-16.746 28.99 16.746 28.989h33.491l16.746-28.99ZM535 687.872l17.237-29.847.164-.288h34.811l17.401 30.127-17.238 29.847-.163.289h-34.811L535 687.872Zm68.302 0-16.746-28.989h-33.491l-16.746 28.989 16.746 28.989h33.491l16.746-28.989ZM535 569.638l17.237-29.847.164-.289h34.811l17.401 30.128-17.238 29.847-.163.289h-34.811L535 569.638Zm68.302 0-16.746-28.989h-33.491l-16.746 28.989 16.746 28.989h33.491l16.746-28.989ZM535 510.521l17.237-29.847.164-.289h34.811l17.401 30.128-17.238 29.847-.163.289h-34.811L535 510.521Zm68.302 0-16.746-28.989h-33.491l-16.746 28.989 16.746 28.989h33.491l16.746-28.989ZM535 392.287l17.237-29.847.164-.289h34.811l17.401 30.128-17.238 29.847-.163.289h-34.811L535 392.287Zm68.302 0-16.746-28.989h-33.491l-16.746 28.989 16.746 28.989h33.491l16.746-28.989ZM535 274.053l17.237-29.847.164-.289h34.811l17.401 30.128-17.238 29.847-.163.289h-34.811L535 274.053Zm68.302 0-16.746-28.989h-33.491l-16.746 28.989 16.746 28.989h33.491l16.746-28.989ZM535 214.936l17.237-29.847.164-.289h34.811l17.401 30.128-17.238 29.847-.163.289h-34.811L535 214.936Zm68.302 0-16.746-28.989h-33.491l-16.746 28.989 16.746 28.989h33.491l16.746-28.989ZM535 155.819l17.237-29.847.164-.289h34.811l17.401 30.128-17.238 29.847-.163.289h-34.811L535 155.819Zm68.302 0-16.746-28.989h-33.491l-16.746 28.989 16.746 28.989h33.491l16.746-28.989ZM535 96.709l17.237-29.846.164-.289h34.811l17.401 30.128-17.238 29.847-.163.289h-34.811L535 96.71Zm68.302 0-16.746-28.988h-33.491L536.319 96.71l16.746 28.989h33.491l16.746-28.99Z"/>
    <path fill="url(#c)" d="M509 2h931v716H509z"/>
    <g filter="url(#d)">
      <circle cx="1140" cy="433" r="200" fill="url(#e)" transform="rotate(-90 1140 433)"/>
    </g>
    <path fill="url(#f)" d="M0 462h1440v193H0z"/>
  </g>
  <defs>
    <linearGradient id="b" x1="535" x2="1378.01" y1="377.508" y2="377.508" gradientUnits="userSpaceOnUse">
      <stop stop-color="#6B862B" stop-opacity=".6"/>
      <stop offset=".5" stop-color="#9AC12A" stop-opacity=".4"/>
      <stop offset="1" stop-color="#00A164"/>
    </linearGradient>
    <linearGradient id="e" x1="1140" x2="1140" y1="233" y2="633" gradientUnits="userSpaceOnUse">
      <stop stop-color="#1BA068"/>
      <stop offset="1" stop-color="#A6D05D"/>
    </linearGradient>
    <linearGradient id="f" x1="624.588" x2="624.588" y1="487.409" y2="650.134" gradientUnits="userSpaceOnUse">
      <stop stop-color="#075F55" stop-opacity="0"/>
      <stop offset="1" stop-color="#075F55"/>
    </linearGradient>
    <radialGradient id="c" cx="0" cy="0" r="1" gradientTransform="matrix(0 301.843 -482.026 0 912.475 398.13)" gradientUnits="userSpaceOnUse">
      <stop stop-color="#075F55" stop-opacity="0"/>
      <stop offset="1" stop-color="#075F55"/>
    </radialGradient>
    <clipPath id="a">
      <path fill="#fff" d="M0 0h1440v655H0z"/>
    </clipPath>
    <filter id="d" width="700" height="700" x="790" y="83" color-interpolation-filters="sRGB" filterUnits="userSpaceOnUse">
      <feFlood flood-opacity="0" result="BackgroundImageFix"/>
      <feBlend in="SourceGraphic" in2="BackgroundImageFix" result="shape"/>
      <feGaussianBlur result="effect1_foregroundBlur_3691_4644" stdDeviation="75"/>
    </filter>
  </defs>
</svg>
