<svg xmlns="http://www.w3.org/2000/svg" width="489" height="337" fill="none" viewBox="0 0 489 337">
  <g clip-path="url(#a)">
    <g clip-path="url(#b)">
      <g clip-path="url(#c)">
        <path fill="url(#d)" d="m386.591 783.17 21.722-37.632.207-.364h43.866l21.929 37.986-21.722 37.632-.207.364H408.52l-21.929-37.986Zm86.062 0-21.103-36.551h-42.204l-21.103 36.551 21.103 36.55h42.204l21.103-36.55Zm-86.062-298.147 21.722-37.632.207-.364h43.866l21.929 37.986-21.722 37.632-.207.364H408.52l-21.929-37.986Zm86.062 0-21.103-36.55h-42.204l-21.103 36.55 21.103 36.551h42.204l21.103-36.551Zm-86.062-298.147 21.722-37.632.207-.364h43.866l21.929 37.987-21.722 37.632-.207.364H408.52l-21.929-37.987Zm86.062 0-21.103-36.55h-42.204l-21.103 36.55 21.103 36.551h42.204l21.103-36.551ZM322.036 820.448l21.721-37.632.207-.364h43.866l21.929 37.986-21.722 37.632-.207.364h-43.866l-21.928-37.986Zm86.061 0-21.102-36.551H344.79l-21.102 36.551 21.102 36.551h42.205l21.102-36.551Zm-86.061-74.537 21.721-37.632.207-.364h43.866l21.929 37.986-21.722 37.633-.207.363h-43.866l-21.928-37.986Zm86.061 0-21.102-36.55H344.79l-21.102 36.55 21.102 36.551h42.205l21.102-36.551Zm-86.061-149.073 21.721-37.632.207-.364h43.866l21.929 37.986-21.722 37.632-.207.364h-43.866l-21.928-37.986Zm86.061 0-21.102-36.55H344.79l-21.102 36.55 21.102 36.55h42.205l21.102-36.55Zm-86.061-149.073 21.721-37.633.207-.363h43.866l21.929 37.986-21.722 37.632-.207.364h-43.866l-21.928-37.986Zm86.061 0-21.102-36.551H344.79l-21.102 36.551 21.102 36.55h42.205l21.102-36.55Zm-86.061-149.074 21.721-37.632.207-.364h43.866l21.929 37.986-21.722 37.633-.207.363h-43.866l-21.928-37.986Zm86.061 0-21.102-36.55H344.79l-21.102 36.55 21.102 36.551h42.205l21.102-36.551Zm-86.061-149.073 21.721-37.632.207-.364h43.866l21.929 37.986-21.722 37.632-.207.364h-43.866l-21.928-37.986Zm86.061 0-21.102-36.551H344.79l-21.102 36.551 21.102 36.55h42.205l21.102-36.55ZM256.585 708.633l21.722-37.632.206-.364h43.867l21.928 37.986-21.722 37.633-.206.363h-43.867l-21.928-37.986Zm86.071 0-21.102-36.55h-42.205l-21.102 36.55 21.102 36.551h42.205l21.102-36.551ZM256.585 559.56l21.722-37.632.206-.364h43.867l21.928 37.986-21.722 37.632-.206.364h-43.867l-21.928-37.986Zm86.071 0-21.102-36.551h-42.205l-21.102 36.551 21.102 36.55h42.205l21.102-36.55Zm-86.071-74.537 21.722-37.632.206-.364h43.867l21.928 37.986-21.722 37.632-.206.364h-43.867l-21.928-37.986Zm86.071 0-21.102-36.55h-42.205l-21.102 36.55 21.102 36.551h42.205l21.102-36.551Zm-86.071-74.537 21.722-37.632.206-.364h43.867l21.928 37.987-21.722 37.632-.206.364h-43.867l-21.928-37.987Zm86.071 0-21.102-36.55h-42.205l-21.102 36.55 21.102 36.551h42.205l21.102-36.551Zm-86.071-149.073 21.722-37.632.206-.364h43.867l21.928 37.986-21.722 37.632-.206.364h-43.867l-21.928-37.986Zm86.071 0-21.102-36.55h-42.205l-21.102 36.55 21.102 36.551h42.205l21.102-36.551ZM256.585 112.34l21.722-37.632.206-.364h43.867l21.928 37.986-21.722 37.632-.206.364h-43.867l-21.928-37.986Zm86.071 0-21.102-36.55h-42.205l-21.102 36.55 21.102 36.55h42.205l21.102-36.55ZM192.029 745.911l21.722-37.632.206-.364h43.867l21.928 37.986-21.722 37.633-.206.363h-43.867l-21.928-37.986Zm86.071 0-21.102-36.55h-42.205l-21.102 36.55 21.102 36.551h42.205l21.102-36.551Zm-86.071-149.073 21.722-37.632.206-.364h43.867l21.928 37.986-21.722 37.632-.206.364h-43.867l-21.928-37.986Zm86.071 0-21.102-36.55h-42.205l-21.102 36.55 21.102 36.55h42.205l21.102-36.55Zm-86.071-149.073 21.722-37.633.206-.363h43.867l21.928 37.986-21.722 37.632-.206.364h-43.867l-21.928-37.986Zm86.071 0-21.102-36.551h-42.205l-21.102 36.551 21.102 36.55h42.205l21.102-36.55Zm-86.071-223.61 21.722-37.633.206-.363h43.867l21.928 37.986-21.722 37.632-.206.364h-43.867l-21.928-37.986Zm86.071 0-21.102-36.551h-42.205l-21.102 36.551 21.102 36.55h42.205l21.102-36.55Zm-86.071-74.537 21.722-37.632.206-.364h43.867l21.928 37.986-21.722 37.632-.206.364h-43.867l-21.928-37.986Zm86.071 0-21.102-36.551h-42.205l-21.102 36.551 21.102 36.55h42.205l21.102-36.55Zm-86.071-74.527 21.722-37.632.206-.364h43.867l21.928 37.986-21.722 37.632-.206.364h-43.867l-21.928-37.986Zm86.071 0-21.102-36.55h-42.205l-21.102 36.55 21.102 36.551h42.205l21.102-36.55ZM126.578 783.17l21.722-37.632.207-.364h43.866l21.929 37.986-21.722 37.632-.207.364h-43.866l-21.929-37.986Zm86.072 0-21.103-36.551h-42.204L128.24 783.17l21.103 36.55h42.204l21.103-36.55Zm-86.072-223.61 21.722-37.632.207-.364h43.866l21.929 37.986-21.722 37.632-.207.364h-43.866l-21.929-37.986Zm86.072 0-21.103-36.551h-42.204L128.24 559.56l21.103 36.55h42.204l21.103-36.55Zm-86.072-74.537 21.722-37.632.207-.364h43.866l21.929 37.986-21.722 37.632-.207.364h-43.866l-21.929-37.986Zm86.072 0-21.103-36.55h-42.204l-21.103 36.55 21.103 36.551h42.204l21.103-36.551Zm-86.072-74.537 21.722-37.632.207-.364h43.866l21.929 37.987-21.722 37.632-.207.364h-43.866l-21.929-37.987Zm86.072 0-21.103-36.55h-42.204l-21.103 36.55 21.103 36.551h42.204l21.103-36.551Zm-86.072-149.073 21.722-37.632.207-.364h43.866l21.929 37.986-21.722 37.632-.207.364h-43.866l-21.929-37.986Zm86.072 0-21.103-36.55h-42.204l-21.103 36.55 21.103 36.551h42.204l21.103-36.551Zm-86.072-74.537 21.722-37.632.207-.364h43.866l21.929 37.987-21.722 37.632-.207.364h-43.866l-21.929-37.987Zm86.072 0-21.103-36.55h-42.204l-21.103 36.55 21.103 36.551h42.204l21.103-36.551Zm-86.072-74.536L148.3 74.708l.207-.364h43.866l21.929 37.986-21.722 37.632-.207.364h-43.866l-21.929-37.986Zm86.072 0-21.103-36.55h-42.204l-21.103 36.55 21.103 36.55h42.204l21.103-36.55ZM62.023 671.375l21.721-37.633.207-.363h43.866l21.929 37.986-21.722 37.632-.207.364H83.951l-21.928-37.986Zm86.071 0-21.103-36.551H84.787l-21.103 36.551 21.103 36.55h42.204l21.103-36.55Zm-86.071-74.537 21.721-37.632.207-.364h43.866l21.929 37.986-21.722 37.632-.207.364H83.951l-21.928-37.986Zm86.071 0-21.103-36.55H84.787l-21.103 36.55 21.103 36.55h42.204l21.103-36.55Zm-86.071-74.537 21.721-37.632.207-.364h43.866l21.929 37.986-21.722 37.633-.207.364H83.951l-21.928-37.987Zm86.071 0-21.103-36.55H84.787l-21.103 36.55 21.103 36.551h42.204l21.103-36.551Zm-86.071-74.536 21.721-37.633.207-.363h43.866l21.929 37.986-21.722 37.632-.207.364H83.951l-21.928-37.986Zm86.071 0-21.103-36.551H84.787l-21.103 36.551 21.103 36.55h42.204l21.103-36.55ZM62.023 298.691l21.721-37.632.207-.364h43.866l21.929 37.986-21.722 37.633-.207.363H83.951l-21.928-37.986Zm86.071 0-21.103-36.55H84.787l-21.103 36.55 21.103 36.551h42.204l21.103-36.551Zm-86.071-74.536 21.721-37.633.207-.363h43.866l21.929 37.986-21.722 37.632-.207.364H83.951l-21.928-37.986Zm86.071 0-21.103-36.551H84.787l-21.103 36.551 21.103 36.55h42.204l21.103-36.55ZM-3.428 783.17l21.722-37.632.206-.364h43.867l21.928 37.986-21.722 37.632-.206.364H18.5L-3.428 783.17Zm86.071 0-21.102-36.551H19.336L-1.766 783.17l21.102 36.55h42.205l21.102-36.55Zm-86.071-74.537 21.722-37.632.206-.364h43.867l21.928 37.986-21.722 37.633-.206.363H18.5l-21.928-37.986Zm86.071 0-21.102-36.55H19.336l-21.102 36.55 21.102 36.551h42.205l21.102-36.551Zm-86.071-74.536 21.722-37.633.206-.364h43.867l21.928 37.987-21.722 37.632-.206.364H18.5l-21.928-37.986Zm86.071 0-21.102-36.551H19.336l-21.102 36.551 21.102 36.55h42.205l21.102-36.55ZM-3.428 559.56l21.722-37.632.206-.364h43.867l21.928 37.986-21.722 37.632-.206.364H18.5L-3.428 559.56Zm86.071 0-21.102-36.551H19.336L-1.766 559.56l21.102 36.55h42.205l21.102-36.55ZM-3.428 335.95l21.722-37.632.206-.364h43.867l21.928 37.986-21.722 37.632-.206.364H18.5L-3.428 335.95Zm86.071 0-21.102-36.551H19.336L-1.766 335.95l21.102 36.55h42.205l21.102-36.55Zm-86.071-74.537 21.722-37.632.206-.364h43.867l21.928 37.986-21.722 37.632-.206.364H18.5l-21.928-37.986Zm86.071 0-21.102-36.55H19.336l-21.102 36.55 21.102 36.551h42.205l21.102-36.551Zm-86.071-74.537 21.722-37.632.206-.364h43.867l21.928 37.987-21.722 37.632-.206.364H18.5l-21.928-37.987Zm86.071 0-21.102-36.55H19.336l-21.102 36.55 21.102 36.551h42.205l21.102-36.551ZM-3.428 112.34l21.722-37.632.206-.364h43.867l21.928 37.986-21.722 37.632-.206.364H18.5L-3.428 112.34Zm86.071 0L61.541 75.79H19.336l-21.102 36.55 21.102 36.55h42.205l21.102-36.55ZM-3.428 37.803 18.294.171l.206-.364h43.867l21.928 37.986-21.722 37.633-.206.363H18.5L-3.428 37.803Zm86.071 0L61.541 1.253H19.336l-21.102 36.55 21.102 36.55h42.205l21.102-36.55ZM-67.984 820.448l21.722-37.632.206-.364h43.867l21.928 37.986-21.722 37.632-.206.364h-43.867l-21.928-37.986Zm86.071 0-21.102-36.551H-45.22l-21.102 36.551 21.102 36.551h42.205l21.102-36.551Zm-86.07-74.537 21.721-37.632.206-.364h43.867l21.928 37.986-21.722 37.633-.206.363h-43.867l-21.928-37.986Zm86.07 0-21.102-36.55H-45.22l-21.102 36.55 21.102 36.551h42.205l21.102-36.551Zm-86.07-149.073 21.721-37.632.206-.364h43.867l21.928 37.986-21.722 37.632-.206.364h-43.867l-21.928-37.986Zm86.07 0-21.102-36.55H-45.22l-21.102 36.55 21.102 36.55h42.205l21.102-36.55Zm-86.07-149.073 21.721-37.633.206-.363h43.867l21.928 37.986-21.722 37.632-.206.364h-43.867l-21.928-37.986Zm86.07 0-21.102-36.551H-45.22l-21.102 36.551 21.102 36.55h42.205l21.102-36.55Zm-86.07-74.537 21.721-37.632.206-.364h43.867l21.928 37.986-21.722 37.632-.206.364h-43.867l-21.928-37.986Zm86.07 0-21.102-36.551H-45.22l-21.102 36.551 21.102 36.55h42.205l21.102-36.55Zm-86.07-74.537 21.721-37.632.206-.364h43.867l21.928 37.986-21.722 37.633-.206.363h-43.867l-21.928-37.986Zm86.07 0-21.102-36.55H-45.22l-21.102 36.55 21.102 36.551h42.205l21.102-36.551Zm-86.07-149.073 21.721-37.632.206-.364h43.867l21.928 37.986-21.722 37.632-.206.364h-43.867l-21.928-37.986Zm86.07 0-21.102-36.551H-45.22l-21.102 36.551 21.102 36.55h42.205l21.102-36.55Zm-151.512 559.015 21.722-37.632.207-.364h43.866l21.928 37.986-21.721 37.633-.207.363h-43.866l-21.929-37.986Zm86.062 0-21.103-36.55h-42.204l-21.103 36.55 21.103 36.551h42.204l21.103-36.551Zm-86.062-149.073 21.722-37.632.207-.364h43.866l21.928 37.986-21.721 37.632-.207.364h-43.866l-21.929-37.986Zm86.062 0-21.103-36.551h-42.204l-21.103 36.551 21.103 36.55h42.204l21.103-36.55Zm-86.062-149.074 21.722-37.632.207-.364h43.866l21.928 37.987-21.721 37.632-.207.364h-43.866l-21.929-37.987Zm86.062 0-21.103-36.55h-42.204l-21.103 36.55 21.103 36.551h42.204l21.103-36.551Zm-86.062-74.536 21.722-37.632.207-.364h43.866l21.928 37.986-21.721 37.632-.207.364h-43.866l-21.929-37.986Zm86.062 0-21.103-36.551h-42.204l-21.103 36.551 21.103 36.55h42.204l21.103-36.55Zm-86.062-149.074 21.722-37.632.207-.364h43.866l21.928 37.987-21.721 37.632-.207.364h-43.866l-21.929-37.987Zm86.062 0-21.103-36.55h-42.204l-21.103 36.55 21.103 36.551h42.204l21.103-36.551Zm-86.062-74.536 21.722-37.632.207-.364h43.866l21.928 37.986-21.721 37.632-.207.364h-43.866l-21.929-37.986Zm86.062 0-21.103-36.55h-42.204l-21.103 36.55 21.103 36.55h42.204l21.103-36.55Zm-86.062-74.537L-111.703.171l.207-.364h43.866l21.928 37.986-21.721 37.633-.207.363h-43.866l-21.929-37.986Zm86.062 0-21.103-36.55h-42.204l-21.103 36.55 21.103 36.55h42.204l21.103-36.55ZM-197.99 671.375l21.722-37.633.206-.363h43.866l21.929 37.986-21.722 37.632-.207.364h-43.866l-21.928-37.986Zm86.071 0-21.103-36.551h-42.204l-21.103 36.551 21.103 36.55h42.204l21.103-36.55Zm-86.071-74.537 21.722-37.632.206-.364h43.866l21.929 37.986-21.722 37.632-.207.364h-43.866l-21.928-37.986Zm86.071 0-21.103-36.55h-42.204l-21.103 36.55 21.103 36.55h42.204l21.103-36.55Zm-86.071-74.537 21.722-37.632.206-.364h43.866l21.929 37.986-21.722 37.633-.207.364h-43.866l-21.928-37.987Zm86.071 0-21.103-36.55h-42.204l-21.103 36.55 21.103 36.551h42.204l21.103-36.551Zm-86.071-74.536 21.722-37.633.206-.363h43.866l21.929 37.986-21.722 37.632-.207.364h-43.866l-21.928-37.986Zm86.071 0-21.103-36.551h-42.204l-21.103 36.551 21.103 36.55h42.204l21.103-36.55Zm-86.071-74.537 21.722-37.632.206-.364h43.866l21.929 37.986-21.722 37.632-.207.364h-43.866l-21.928-37.986Zm86.071 0-21.103-36.551h-42.204l-21.103 36.551 21.103 36.55h42.204l21.103-36.55Zm-86.071-74.537 21.722-37.632.206-.364h43.866l21.929 37.986-21.722 37.633-.207.363h-43.866l-21.928-37.986Zm86.071 0-21.103-36.55h-42.204l-21.103 36.55 21.103 36.551h42.204l21.103-36.551ZM-263.431 783.17l21.722-37.632.206-.364h43.867l21.928 37.986-21.722 37.632-.206.364h-43.867l-21.928-37.986Zm86.061 0-21.102-36.551h-42.205l-21.102 36.551 21.102 36.55h42.205l21.102-36.55Zm-86.061-74.537 21.722-37.632.206-.364h43.867l21.928 37.986-21.722 37.633-.206.363h-43.867l-21.928-37.986Zm86.061 0-21.102-36.55h-42.205l-21.102 36.55 21.102 36.551h42.205l21.102-36.551Zm-86.061-74.536 21.722-37.633.206-.364h43.867l21.928 37.987-21.722 37.632-.206.364h-43.867l-21.928-37.986Zm86.061 0-21.102-36.551h-42.205l-21.102 36.551 21.102 36.55h42.205l21.102-36.55Zm-86.061-149.074 21.722-37.632.206-.364h43.867l21.928 37.986-21.722 37.632-.206.364h-43.867l-21.928-37.986Zm86.061 0-21.102-36.55h-42.205l-21.102 36.55 21.102 36.551h42.205l21.102-36.551Zm-86.061-149.073 21.722-37.632.206-.364h43.867l21.928 37.986-21.722 37.632-.206.364h-43.867l-21.928-37.986Zm86.061 0-21.102-36.551h-42.205l-21.102 36.551 21.102 36.55h42.205l21.102-36.55Zm-86.061-74.537 21.722-37.632.206-.364h43.867l21.928 37.986-21.722 37.632-.206.364h-43.867l-21.928-37.986Zm86.061 0-21.102-36.55h-42.205l-21.102 36.55 21.102 36.551h42.205l21.102-36.551Zm-86.061-74.537 21.722-37.632.206-.364h43.867l21.928 37.987-21.722 37.632-.206.364h-43.867l-21.928-37.987Zm86.061 0-21.102-36.55h-42.205l-21.102 36.55 21.102 36.551h42.205l21.102-36.551Zm-150.617 633.572 21.722-37.632.206-.364h43.867l21.928 37.986-21.722 37.632-.206.364h-43.867l-21.928-37.986Zm86.061 0-21.102-36.551h-42.205l-21.102 36.551 21.102 36.551h42.205l21.102-36.551Zm-86.061-74.537 21.722-37.632.206-.364h43.867l21.928 37.986-21.722 37.633-.206.363h-43.867l-21.928-37.986Zm86.061 0-21.102-36.55h-42.205l-21.102 36.55 21.102 36.551h42.205l21.102-36.551Zm-86.061-74.536 21.722-37.633.206-.363h43.867l21.928 37.986-21.722 37.632-.206.364h-43.867l-21.928-37.986Zm86.061 0-21.102-36.551h-42.205l-21.102 36.551 21.102 36.55h42.205l21.102-36.55Zm-86.061-74.537 21.722-37.632.206-.364h43.867l21.928 37.986-21.722 37.632-.206.364h-43.867l-21.928-37.986Zm86.061 0-21.102-36.55h-42.205l-21.102 36.55 21.102 36.55h42.205l21.102-36.55Zm-86.061-74.537 21.722-37.632.206-.364h43.867l21.928 37.986-21.722 37.633-.206.364h-43.867l-21.928-37.987Zm86.061 0-21.102-36.55h-42.205l-21.102 36.55 21.102 36.551h42.205l21.102-36.551Zm-86.061-149.073 21.722-37.632.206-.364h43.867l21.928 37.986-21.722 37.632-.206.364h-43.867l-21.928-37.986Zm86.061 0-21.102-36.551h-42.205l-21.102 36.551 21.102 36.55h42.205l21.102-36.55Zm-86.061-74.537 21.722-37.632.206-.364h43.867l21.928 37.986-21.722 37.633-.206.363h-43.867l-21.928-37.986Zm86.061 0-21.102-36.55h-42.205l-21.102 36.55 21.102 36.551h42.205l21.102-36.551Zm-86.061-74.536 21.722-37.633.206-.363h43.867l21.928 37.986-21.722 37.632-.206.364h-43.867l-21.928-37.986Zm86.061 0-21.102-36.551h-42.205l-21.102 36.551 21.102 36.55h42.205l21.102-36.55Zm-86.061-74.537 21.722-37.632.206-.364h43.867l21.928 37.986-21.722 37.632-.206.364h-43.867l-21.928-37.986Zm86.061 0-21.102-36.551h-42.205l-21.102 36.551 21.102 36.55h42.205l21.102-36.55Zm-86.061-74.527 21.722-37.632.206-.364h43.867l21.928 37.986-21.722 37.632-.206.364h-43.867l-21.928-37.986Zm86.061 0-21.102-36.55h-42.205l-21.102 36.55 21.102 36.551h42.205l21.102-36.55ZM-393.438 783.17l21.722-37.632.207-.364h43.866l21.928 37.986-21.721 37.632-.207.364h-43.866l-21.929-37.986Zm86.062 0-21.103-36.551h-42.204l-21.103 36.551 21.103 36.55h42.204l21.103-36.55Zm-86.062-74.537 21.722-37.632.207-.364h43.866l21.928 37.986-21.721 37.633-.207.363h-43.866l-21.929-37.986Zm86.062 0-21.103-36.55h-42.204l-21.103 36.55 21.103 36.551h42.204l21.103-36.551Zm-86.062-149.073 21.722-37.632.207-.364h43.866l21.928 37.986-21.721 37.632-.207.364h-43.866l-21.929-37.986Zm86.062 0-21.103-36.551h-42.204l-21.103 36.551 21.103 36.55h42.204l21.103-36.55Zm-86.062-74.537 21.722-37.632.207-.364h43.866l21.928 37.986-21.721 37.632-.207.364h-43.866l-21.929-37.986Zm86.062 0-21.103-36.55h-42.204l-21.103 36.55 21.103 36.551h42.204l21.103-36.551Zm-86.062-74.537 21.722-37.632.207-.364h43.866l21.928 37.987-21.721 37.632-.207.364h-43.866l-21.929-37.987Zm86.062 0-21.103-36.55h-42.204l-21.103 36.55 21.103 36.551h42.204l21.103-36.551Zm-86.062-149.073 21.722-37.632.207-.364h43.866l21.928 37.986-21.721 37.632-.207.364h-43.866l-21.929-37.986Zm86.062 0-21.103-36.55h-42.204l-21.103 36.55 21.103 36.551h42.204l21.103-36.551Zm-86.062-74.537 21.722-37.632.207-.364h43.866l21.928 37.987-21.721 37.632-.207.364h-43.866l-21.929-37.987Zm86.062 0-21.103-36.55h-42.204l-21.103 36.55 21.103 36.551h42.204l21.103-36.551Zm-86.062-74.536 21.722-37.632.207-.364h43.866l21.928 37.986-21.721 37.632-.207.364h-43.866l-21.929-37.986Zm86.062 0-21.103-36.55h-42.204l-21.103 36.55 21.103 36.55h42.204l21.103-36.55Zm-86.062-74.537L-371.716.171l.207-.364h43.866l21.928 37.986-21.721 37.633-.207.363h-43.866l-21.929-37.986Zm86.062 0-21.103-36.55h-42.204l-21.103 36.55 21.103 36.55h42.204l21.103-36.55Zm-150.618 782.645 21.722-37.632.207-.364h43.866l21.929 37.986-21.722 37.632-.207.364h-43.866l-21.929-37.986Zm86.062 0-21.103-36.551h-42.204l-21.103 36.551 21.103 36.551h42.204l21.103-36.551Zm-86.062-74.537 21.722-37.632.207-.364h43.866l21.929 37.986-21.722 37.633-.207.363h-43.866l-21.929-37.986Zm86.062 0-21.103-36.55h-42.204l-21.103 36.55 21.103 36.551h42.204l21.103-36.551Zm-86.062-74.536 21.722-37.633.207-.363h43.866l21.929 37.986-21.722 37.632-.207.364h-43.866l-21.929-37.986Zm86.062 0-21.103-36.551h-42.204l-21.103 36.551 21.103 36.55h42.204l21.103-36.55Zm-86.062-149.074 21.722-37.632.207-.364h43.866l21.929 37.986-21.722 37.633-.207.364h-43.866l-21.929-37.987Zm86.062 0-21.103-36.55h-42.204l-21.103 36.55 21.103 36.551h42.204l21.103-36.551Zm-86.062-74.536 21.722-37.633.207-.363h43.866l21.929 37.986-21.722 37.632-.207.364h-43.866l-21.929-37.986Zm86.062 0-21.103-36.551h-42.204l-21.103 36.551 21.103 36.55h42.204l21.103-36.55Zm-86.062-74.537 21.722-37.632.207-.364h43.866l21.929 37.986-21.722 37.632-.207.364h-43.866l-21.929-37.986Zm86.062 0-21.103-36.551h-42.204l-21.103 36.551 21.103 36.55h42.204l21.103-36.55Zm-86.062-74.537 21.722-37.632.207-.364h43.866l21.929 37.986-21.722 37.633-.207.363h-43.866l-21.929-37.986Zm86.062 0-21.103-36.55h-42.204l-21.103 36.55 21.103 36.551h42.204l21.103-36.551Zm-86.062-149.073 21.722-37.632.207-.364h43.866l21.929 37.986-21.722 37.632-.207.364h-43.866l-21.929-37.986Zm86.062 0-21.103-36.551h-42.204l-21.103 36.551 21.103 36.55h42.204l21.103-36.55Zm-86.062-74.527 21.722-37.632.207-.364h43.866l21.929 37.986-21.722 37.632-.207.364h-43.866l-21.929-37.986Zm86.062 0-21.103-36.55h-42.204l-21.103 36.55 21.103 36.551h42.204l21.103-36.55ZM-523.444 783.17l21.722-37.632.206-.364h43.867l21.928 37.986-21.722 37.632-.206.364h-43.867l-21.928-37.986Zm86.071 0-21.102-36.551h-42.205l-21.102 36.551 21.102 36.55h42.205l21.102-36.55Zm-86.071-74.537 21.722-37.632.206-.364h43.867l21.928 37.986-21.722 37.633-.206.363h-43.867l-21.928-37.986Zm86.071 0-21.102-36.55h-42.205l-21.102 36.55 21.102 36.551h42.205l21.102-36.551Zm-86.071-74.536 21.722-37.633.206-.364h43.867l21.928 37.987-21.722 37.632-.206.364h-43.867l-21.928-37.986Zm86.071 0-21.102-36.551h-42.205l-21.102 36.551 21.102 36.55h42.205l21.102-36.55Zm-86.071-149.074 21.722-37.632.206-.364h43.867l21.928 37.986-21.722 37.632-.206.364h-43.867l-21.928-37.986Zm86.071 0-21.102-36.55h-42.205l-21.102 36.55 21.102 36.551h42.205l21.102-36.551Zm-86.071-74.537 21.722-37.632.206-.364h43.867l21.928 37.987-21.722 37.632-.206.364h-43.867l-21.928-37.987Zm86.071 0-21.102-36.55h-42.205l-21.102 36.55 21.102 36.551h42.205l21.102-36.551Zm-86.071-74.536 21.722-37.632.206-.364h43.867l21.928 37.986-21.722 37.632-.206.364h-43.867l-21.928-37.986Zm86.071 0-21.102-36.551h-42.205l-21.102 36.551 21.102 36.55h42.205l21.102-36.55Zm-86.071-149.074 21.722-37.632.206-.364h43.867l21.928 37.987-21.722 37.632-.206.364h-43.867l-21.928-37.987Zm86.071 0-21.102-36.55h-42.205l-21.102 36.55 21.102 36.551h42.205l21.102-36.551Zm-86.071-74.536 21.722-37.632.206-.364h43.867l21.928 37.986-21.722 37.632-.206.364h-43.867l-21.928-37.986Zm86.071 0-21.102-36.55h-42.205l-21.102 36.55 21.102 36.55h42.205l21.102-36.55Zm-86.071-74.537L-501.722.171l.206-.364h43.867l21.928 37.986-21.722 37.633-.206.363h-43.867l-21.928-37.986Zm86.071 0-21.102-36.55h-42.205l-21.102 36.55 21.102 36.55h42.205l21.102-36.55ZM-588 820.448l21.722-37.632.206-.364h43.867l21.928 37.986-21.722 37.632-.206.364h-43.867L-588 820.448Zm86.071 0-21.102-36.551h-42.205l-21.102 36.551 21.102 36.551h42.205l21.102-36.551ZM-588 671.375l21.722-37.633.206-.363h43.867l21.928 37.986-21.722 37.632-.206.364h-43.867L-588 671.375Zm86.071 0-21.102-36.551h-42.205l-21.102 36.551 21.102 36.55h42.205l21.102-36.55ZM-588 596.838l21.722-37.632.206-.364h43.867l21.928 37.986-21.722 37.632-.206.364h-43.867L-588 596.838Zm86.071 0-21.102-36.55h-42.205l-21.102 36.55 21.102 36.55h42.205l21.102-36.55ZM-588 447.765l21.722-37.633.206-.363h43.867l21.928 37.986-21.722 37.632-.206.364h-43.867L-588 447.765Zm86.071 0-21.102-36.551h-42.205l-21.102 36.551 21.102 36.55h42.205l21.102-36.55ZM-588 298.691l21.722-37.632.206-.364h43.867l21.928 37.986-21.722 37.633-.206.363h-43.867L-588 298.691Zm86.071 0-21.102-36.55h-42.205l-21.102 36.55 21.102 36.551h42.205l21.102-36.551ZM-588 224.155l21.722-37.633.206-.363h43.867l21.928 37.986-21.722 37.632-.206.364h-43.867L-588 224.155Zm86.071 0-21.102-36.551h-42.205l-21.102 36.551 21.102 36.55h42.205l21.102-36.55ZM-588 149.618l21.722-37.632.206-.364h43.867l21.928 37.986-21.722 37.632-.206.364h-43.867L-588 149.618Zm86.071 0-21.102-36.551h-42.205l-21.102 36.551 21.102 36.55h42.205l21.102-36.55ZM-588 75.091l21.722-37.632.206-.364h43.867l21.928 37.986-21.722 37.632-.206.364h-43.867L-588 75.091Zm86.071 0-21.102-36.55h-42.205l-21.102 36.55 21.102 36.551h42.205l21.102-36.55Zm888.52 708.079 21.722-37.632.207-.364h43.866l21.929 37.986-21.722 37.632-.207.364H408.52l-21.929-37.986Zm86.062 0-21.103-36.551h-42.204l-21.103 36.551 21.103 36.55h42.204l21.103-36.55Zm-86.062-298.147 21.722-37.632.207-.364h43.866l21.929 37.986-21.722 37.632-.207.364H408.52l-21.929-37.986Zm86.062 0-21.103-36.55h-42.204l-21.103 36.55 21.103 36.551h42.204l21.103-36.551Zm-86.062-298.147 21.722-37.632.207-.364h43.866l21.929 37.987-21.722 37.632-.207.364H408.52l-21.929-37.987Zm86.062 0-21.103-36.55h-42.204l-21.103 36.55 21.103 36.551h42.204l21.103-36.551ZM322.036 820.448l21.721-37.632.207-.364h43.866l21.929 37.986-21.722 37.632-.207.364h-43.866l-21.928-37.986Zm86.061 0-21.102-36.551H344.79l-21.102 36.551 21.102 36.551h42.205l21.102-36.551Zm-86.061-74.537 21.721-37.632.207-.364h43.866l21.929 37.986-21.722 37.633-.207.363h-43.866l-21.928-37.986Zm86.061 0-21.102-36.55H344.79l-21.102 36.55 21.102 36.551h42.205l21.102-36.551Zm-86.061-149.073 21.721-37.632.207-.364h43.866l21.929 37.986-21.722 37.632-.207.364h-43.866l-21.928-37.986Zm86.061 0-21.102-36.55H344.79l-21.102 36.55 21.102 36.55h42.205l21.102-36.55Zm-86.061-149.073 21.721-37.633.207-.363h43.866l21.929 37.986-21.722 37.632-.207.364h-43.866l-21.928-37.986Zm86.061 0-21.102-36.551H344.79l-21.102 36.551 21.102 36.55h42.205l21.102-36.55Zm-86.061-149.074 21.721-37.632.207-.364h43.866l21.929 37.986-21.722 37.633-.207.363h-43.866l-21.928-37.986Zm86.061 0-21.102-36.55H344.79l-21.102 36.55 21.102 36.551h42.205l21.102-36.551Zm-86.061-149.073 21.721-37.632.207-.364h43.866l21.929 37.986-21.722 37.632-.207.364h-43.866l-21.928-37.986Zm86.061 0-21.102-36.551H344.79l-21.102 36.551 21.102 36.55h42.205l21.102-36.55ZM256.585 708.633l21.722-37.632.206-.364h43.867l21.928 37.986-21.722 37.633-.206.363h-43.867l-21.928-37.986Zm86.071 0-21.102-36.55h-42.205l-21.102 36.55 21.102 36.551h42.205l21.102-36.551ZM256.585 559.56l21.722-37.632.206-.364h43.867l21.928 37.986-21.722 37.632-.206.364h-43.867l-21.928-37.986Zm86.071 0-21.102-36.551h-42.205l-21.102 36.551 21.102 36.55h42.205l21.102-36.55Zm-86.071-74.537 21.722-37.632.206-.364h43.867l21.928 37.986-21.722 37.632-.206.364h-43.867l-21.928-37.986Zm86.071 0-21.102-36.55h-42.205l-21.102 36.55 21.102 36.551h42.205l21.102-36.551Zm-86.071-74.537 21.722-37.632.206-.364h43.867l21.928 37.987-21.722 37.632-.206.364h-43.867l-21.928-37.987Zm86.071 0-21.102-36.55h-42.205l-21.102 36.55 21.102 36.551h42.205l21.102-36.551Zm-86.071-149.073 21.722-37.632.206-.364h43.867l21.928 37.986-21.722 37.632-.206.364h-43.867l-21.928-37.986Zm86.071 0-21.102-36.55h-42.205l-21.102 36.55 21.102 36.551h42.205l21.102-36.551ZM256.585 112.34l21.722-37.632.206-.364h43.867l21.928 37.986-21.722 37.632-.206.364h-43.867l-21.928-37.986Zm86.071 0-21.102-36.55h-42.205l-21.102 36.55 21.102 36.55h42.205l21.102-36.55ZM192.029 745.911l21.722-37.632.206-.364h43.867l21.928 37.986-21.722 37.633-.206.363h-43.867l-21.928-37.986Zm86.071 0-21.102-36.55h-42.205l-21.102 36.55 21.102 36.551h42.205l21.102-36.551Zm-86.071-149.073 21.722-37.632.206-.364h43.867l21.928 37.986-21.722 37.632-.206.364h-43.867l-21.928-37.986Zm86.071 0-21.102-36.55h-42.205l-21.102 36.55 21.102 36.55h42.205l21.102-36.55Zm-86.071-149.073 21.722-37.633.206-.363h43.867l21.928 37.986-21.722 37.632-.206.364h-43.867l-21.928-37.986Zm86.071 0-21.102-36.551h-42.205l-21.102 36.551 21.102 36.55h42.205l21.102-36.55Zm-86.071-223.61 21.722-37.633.206-.363h43.867l21.928 37.986-21.722 37.632-.206.364h-43.867l-21.928-37.986Zm86.071 0-21.102-36.551h-42.205l-21.102 36.551 21.102 36.55h42.205l21.102-36.55Zm-86.071-74.537 21.722-37.632.206-.364h43.867l21.928 37.986-21.722 37.632-.206.364h-43.867l-21.928-37.986Zm86.071 0-21.102-36.551h-42.205l-21.102 36.551 21.102 36.55h42.205l21.102-36.55Zm-86.071-74.527 21.722-37.632.206-.364h43.867l21.928 37.986-21.722 37.632-.206.364h-43.867l-21.928-37.986Zm86.071 0-21.102-36.55h-42.205l-21.102 36.55 21.102 36.551h42.205l21.102-36.55ZM126.578 783.17l21.722-37.632.207-.364h43.866l21.929 37.986-21.722 37.632-.207.364h-43.866l-21.929-37.986Zm86.072 0-21.103-36.551h-42.204L128.24 783.17l21.103 36.55h42.204l21.103-36.55Zm-86.072-223.61 21.722-37.632.207-.364h43.866l21.929 37.986-21.722 37.632-.207.364h-43.866l-21.929-37.986Zm86.072 0-21.103-36.551h-42.204L128.24 559.56l21.103 36.55h42.204l21.103-36.55Zm-86.072-74.537 21.722-37.632.207-.364h43.866l21.929 37.986-21.722 37.632-.207.364h-43.866l-21.929-37.986Zm86.072 0-21.103-36.55h-42.204l-21.103 36.55 21.103 36.551h42.204l21.103-36.551Zm-86.072-74.537 21.722-37.632.207-.364h43.866l21.929 37.987-21.722 37.632-.207.364h-43.866l-21.929-37.987Zm86.072 0-21.103-36.55h-42.204l-21.103 36.55 21.103 36.551h42.204l21.103-36.551Zm-86.072-149.073 21.722-37.632.207-.364h43.866l21.929 37.986-21.722 37.632-.207.364h-43.866l-21.929-37.986Zm86.072 0-21.103-36.55h-42.204l-21.103 36.55 21.103 36.551h42.204l21.103-36.551Zm-86.072-74.537 21.722-37.632.207-.364h43.866l21.929 37.987-21.722 37.632-.207.364h-43.866l-21.929-37.987Zm86.072 0-21.103-36.55h-42.204l-21.103 36.55 21.103 36.551h42.204l21.103-36.551Zm-86.072-74.536L148.3 74.708l.207-.364h43.866l21.929 37.986-21.722 37.632-.207.364h-43.866l-21.929-37.986Zm86.072 0-21.103-36.55h-42.204l-21.103 36.55 21.103 36.55h42.204l21.103-36.55ZM62.023 671.375l21.721-37.633.207-.363h43.866l21.929 37.986-21.722 37.632-.207.364H83.951l-21.928-37.986Zm86.071 0-21.103-36.551H84.787l-21.103 36.551 21.103 36.55h42.204l21.103-36.55Zm-86.071-74.537 21.721-37.632.207-.364h43.866l21.929 37.986-21.722 37.632-.207.364H83.951l-21.928-37.986Zm86.071 0-21.103-36.55H84.787l-21.103 36.55 21.103 36.55h42.204l21.103-36.55Zm-86.071-74.537 21.721-37.632.207-.364h43.866l21.929 37.986-21.722 37.633-.207.364H83.951l-21.928-37.987Zm86.071 0-21.103-36.55H84.787l-21.103 36.55 21.103 36.551h42.204l21.103-36.551Zm-86.071-74.536 21.721-37.633.207-.363h43.866l21.929 37.986-21.722 37.632-.207.364H83.951l-21.928-37.986Zm86.071 0-21.103-36.551H84.787l-21.103 36.551 21.103 36.55h42.204l21.103-36.55ZM62.023 298.691l21.721-37.632.207-.364h43.866l21.929 37.986-21.722 37.633-.207.363H83.951l-21.928-37.986Zm86.071 0-21.103-36.55H84.787l-21.103 36.55 21.103 36.551h42.204l21.103-36.551Zm-86.071-74.536 21.721-37.633.207-.363h43.866l21.929 37.986-21.722 37.632-.207.364H83.951l-21.928-37.986Zm86.071 0-21.103-36.551H84.787l-21.103 36.551 21.103 36.55h42.204l21.103-36.55ZM-3.428 783.17l21.722-37.632.206-.364h43.867l21.928 37.986-21.722 37.632-.206.364H18.5L-3.428 783.17Zm86.071 0-21.102-36.551H19.336L-1.766 783.17l21.102 36.55h42.205l21.102-36.55Zm-86.071-74.537 21.722-37.632.206-.364h43.867l21.928 37.986-21.722 37.633-.206.363H18.5l-21.928-37.986Zm86.071 0-21.102-36.55H19.336l-21.102 36.55 21.102 36.551h42.205l21.102-36.551Zm-86.071-74.536 21.722-37.633.206-.364h43.867l21.928 37.987-21.722 37.632-.206.364H18.5l-21.928-37.986Zm86.071 0-21.102-36.551H19.336l-21.102 36.551 21.102 36.55h42.205l21.102-36.55ZM-3.428 559.56l21.722-37.632.206-.364h43.867l21.928 37.986-21.722 37.632-.206.364H18.5L-3.428 559.56Zm86.071 0-21.102-36.551H19.336L-1.766 559.56l21.102 36.55h42.205l21.102-36.55ZM-3.428 335.95l21.722-37.632.206-.364h43.867l21.928 37.986-21.722 37.632-.206.364H18.5L-3.428 335.95Zm86.071 0-21.102-36.551H19.336L-1.766 335.95l21.102 36.55h42.205l21.102-36.55Zm-86.071-74.537 21.722-37.632.206-.364h43.867l21.928 37.986-21.722 37.632-.206.364H18.5l-21.928-37.986Zm86.071 0-21.102-36.55H19.336l-21.102 36.55 21.102 36.551h42.205l21.102-36.551Zm-86.071-74.537 21.722-37.632.206-.364h43.867l21.928 37.987-21.722 37.632-.206.364H18.5l-21.928-37.987Zm86.071 0-21.102-36.55H19.336l-21.102 36.55 21.102 36.551h42.205l21.102-36.551ZM-3.428 112.34l21.722-37.632.206-.364h43.867l21.928 37.986-21.722 37.632-.206.364H18.5L-3.428 112.34Zm86.071 0L61.541 75.79H19.336l-21.102 36.55 21.102 36.55h42.205l21.102-36.55ZM-3.428 37.803 18.294.171l.206-.364h43.867l21.928 37.986-21.722 37.633-.206.363H18.5L-3.428 37.803Zm86.071 0L61.541 1.253H19.336l-21.102 36.55 21.102 36.55h42.205l21.102-36.55ZM-67.984 820.448l21.722-37.632.206-.364h43.867l21.928 37.986-21.722 37.632-.206.364h-43.867l-21.928-37.986Zm86.071 0-21.102-36.551H-45.22l-21.102 36.551 21.102 36.551h42.205l21.102-36.551Zm-86.07-74.537 21.721-37.632.206-.364h43.867l21.928 37.986-21.722 37.633-.206.363h-43.867l-21.928-37.986Zm86.07 0-21.102-36.55H-45.22l-21.102 36.55 21.102 36.551h42.205l21.102-36.551Zm-86.07-149.073 21.721-37.632.206-.364h43.867l21.928 37.986-21.722 37.632-.206.364h-43.867l-21.928-37.986Zm86.07 0-21.102-36.55H-45.22l-21.102 36.55 21.102 36.55h42.205l21.102-36.55Zm-86.07-149.073 21.721-37.633.206-.363h43.867l21.928 37.986-21.722 37.632-.206.364h-43.867l-21.928-37.986Zm86.07 0-21.102-36.551H-45.22l-21.102 36.551 21.102 36.55h42.205l21.102-36.55Zm-86.07-74.537 21.721-37.632.206-.364h43.867l21.928 37.986-21.722 37.632-.206.364h-43.867l-21.928-37.986Zm86.07 0-21.102-36.551H-45.22l-21.102 36.551 21.102 36.55h42.205l21.102-36.55Zm-86.07-74.537 21.721-37.632.206-.364h43.867l21.928 37.986-21.722 37.633-.206.363h-43.867l-21.928-37.986Zm86.07 0-21.102-36.55H-45.22l-21.102 36.55 21.102 36.551h42.205l21.102-36.551Zm-86.07-149.073 21.721-37.632.206-.364h43.867l21.928 37.986-21.722 37.632-.206.364h-43.867l-21.928-37.986Zm86.07 0-21.102-36.551H-45.22l-21.102 36.551 21.102 36.55h42.205l21.102-36.55Zm-151.512 559.015 21.722-37.632.207-.364h43.866l21.928 37.986-21.721 37.633-.207.363h-43.866l-21.929-37.986Zm86.062 0-21.103-36.55h-42.204l-21.103 36.55 21.103 36.551h42.204l21.103-36.551Zm-86.062-149.073 21.722-37.632.207-.364h43.866l21.928 37.986-21.721 37.632-.207.364h-43.866l-21.929-37.986Zm86.062 0-21.103-36.551h-42.204l-21.103 36.551 21.103 36.55h42.204l21.103-36.55Zm-86.062-149.074 21.722-37.632.207-.364h43.866l21.928 37.987-21.721 37.632-.207.364h-43.866l-21.929-37.987Zm86.062 0-21.103-36.55h-42.204l-21.103 36.55 21.103 36.551h42.204l21.103-36.551Zm-86.062-74.536 21.722-37.632.207-.364h43.866l21.928 37.986-21.721 37.632-.207.364h-43.866l-21.929-37.986Zm86.062 0-21.103-36.551h-42.204l-21.103 36.551 21.103 36.55h42.204l21.103-36.55Zm-86.062-149.074 21.722-37.632.207-.364h43.866l21.928 37.987-21.721 37.632-.207.364h-43.866l-21.929-37.987Zm86.062 0-21.103-36.55h-42.204l-21.103 36.55 21.103 36.551h42.204l21.103-36.551Zm-86.062-74.536 21.722-37.632.207-.364h43.866l21.928 37.986-21.721 37.632-.207.364h-43.866l-21.929-37.986Zm86.062 0-21.103-36.55h-42.204l-21.103 36.55 21.103 36.55h42.204l21.103-36.55Zm-86.062-74.537L-111.703.171l.207-.364h43.866l21.928 37.986-21.721 37.633-.207.363h-43.866l-21.929-37.986Zm86.062 0-21.103-36.55h-42.204l-21.103 36.55 21.103 36.55h42.204l21.103-36.55ZM-197.99 671.375l21.722-37.633.206-.363h43.866l21.929 37.986-21.722 37.632-.207.364h-43.866l-21.928-37.986Zm86.071 0-21.103-36.551h-42.204l-21.103 36.551 21.103 36.55h42.204l21.103-36.55Zm-86.071-74.537 21.722-37.632.206-.364h43.866l21.929 37.986-21.722 37.632-.207.364h-43.866l-21.928-37.986Zm86.071 0-21.103-36.55h-42.204l-21.103 36.55 21.103 36.55h42.204l21.103-36.55Zm-86.071-74.537 21.722-37.632.206-.364h43.866l21.929 37.986-21.722 37.633-.207.364h-43.866l-21.928-37.987Zm86.071 0-21.103-36.55h-42.204l-21.103 36.55 21.103 36.551h42.204l21.103-36.551Zm-86.071-74.536 21.722-37.633.206-.363h43.866l21.929 37.986-21.722 37.632-.207.364h-43.866l-21.928-37.986Zm86.071 0-21.103-36.551h-42.204l-21.103 36.551 21.103 36.55h42.204l21.103-36.55Zm-86.071-74.537 21.722-37.632.206-.364h43.866l21.929 37.986-21.722 37.632-.207.364h-43.866l-21.928-37.986Zm86.071 0-21.103-36.551h-42.204l-21.103 36.551 21.103 36.55h42.204l21.103-36.55Zm-86.071-74.537 21.722-37.632.206-.364h43.866l21.929 37.986-21.722 37.633-.207.363h-43.866l-21.928-37.986Zm86.071 0-21.103-36.55h-42.204l-21.103 36.55 21.103 36.551h42.204l21.103-36.551ZM-263.431 783.17l21.722-37.632.206-.364h43.867l21.928 37.986-21.722 37.632-.206.364h-43.867l-21.928-37.986Zm86.061 0-21.102-36.551h-42.205l-21.102 36.551 21.102 36.55h42.205l21.102-36.55Zm-86.061-74.537 21.722-37.632.206-.364h43.867l21.928 37.986-21.722 37.633-.206.363h-43.867l-21.928-37.986Zm86.061 0-21.102-36.55h-42.205l-21.102 36.55 21.102 36.551h42.205l21.102-36.551Zm-86.061-74.536 21.722-37.633.206-.364h43.867l21.928 37.987-21.722 37.632-.206.364h-43.867l-21.928-37.986Zm86.061 0-21.102-36.551h-42.205l-21.102 36.551 21.102 36.55h42.205l21.102-36.55Zm-86.061-149.074 21.722-37.632.206-.364h43.867l21.928 37.986-21.722 37.632-.206.364h-43.867l-21.928-37.986Zm86.061 0-21.102-36.55h-42.205l-21.102 36.55 21.102 36.551h42.205l21.102-36.551Zm-86.061-149.073 21.722-37.632.206-.364h43.867l21.928 37.986-21.722 37.632-.206.364h-43.867l-21.928-37.986Zm86.061 0-21.102-36.551h-42.205l-21.102 36.551 21.102 36.55h42.205l21.102-36.55Zm-86.061-74.537 21.722-37.632.206-.364h43.867l21.928 37.986-21.722 37.632-.206.364h-43.867l-21.928-37.986Zm86.061 0-21.102-36.55h-42.205l-21.102 36.55 21.102 36.551h42.205l21.102-36.551Zm-86.061-74.537 21.722-37.632.206-.364h43.867l21.928 37.987-21.722 37.632-.206.364h-43.867l-21.928-37.987Zm86.061 0-21.102-36.55h-42.205l-21.102 36.55 21.102 36.551h42.205l21.102-36.551Zm-150.617 633.572 21.722-37.632.206-.364h43.867l21.928 37.986-21.722 37.632-.206.364h-43.867l-21.928-37.986Zm86.061 0-21.102-36.551h-42.205l-21.102 36.551 21.102 36.551h42.205l21.102-36.551Zm-86.061-74.537 21.722-37.632.206-.364h43.867l21.928 37.986-21.722 37.633-.206.363h-43.867l-21.928-37.986Zm86.061 0-21.102-36.55h-42.205l-21.102 36.55 21.102 36.551h42.205l21.102-36.551Zm-86.061-74.536 21.722-37.633.206-.363h43.867l21.928 37.986-21.722 37.632-.206.364h-43.867l-21.928-37.986Zm86.061 0-21.102-36.551h-42.205l-21.102 36.551 21.102 36.55h42.205l21.102-36.55Zm-86.061-74.537 21.722-37.632.206-.364h43.867l21.928 37.986-21.722 37.632-.206.364h-43.867l-21.928-37.986Zm86.061 0-21.102-36.55h-42.205l-21.102 36.55 21.102 36.55h42.205l21.102-36.55Zm-86.061-74.537 21.722-37.632.206-.364h43.867l21.928 37.986-21.722 37.633-.206.364h-43.867l-21.928-37.987Zm86.061 0-21.102-36.55h-42.205l-21.102 36.55 21.102 36.551h42.205l21.102-36.551Zm-86.061-149.073 21.722-37.632.206-.364h43.867l21.928 37.986-21.722 37.632-.206.364h-43.867l-21.928-37.986Zm86.061 0-21.102-36.551h-42.205l-21.102 36.551 21.102 36.55h42.205l21.102-36.55Zm-86.061-74.537 21.722-37.632.206-.364h43.867l21.928 37.986-21.722 37.633-.206.363h-43.867l-21.928-37.986Zm86.061 0-21.102-36.55h-42.205l-21.102 36.55 21.102 36.551h42.205l21.102-36.551Zm-86.061-74.536 21.722-37.633.206-.363h43.867l21.928 37.986-21.722 37.632-.206.364h-43.867l-21.928-37.986Zm86.061 0-21.102-36.551h-42.205l-21.102 36.551 21.102 36.55h42.205l21.102-36.55Zm-86.061-74.537 21.722-37.632.206-.364h43.867l21.928 37.986-21.722 37.632-.206.364h-43.867l-21.928-37.986Zm86.061 0-21.102-36.551h-42.205l-21.102 36.551 21.102 36.55h42.205l21.102-36.55Zm-86.061-74.527 21.722-37.632.206-.364h43.867l21.928 37.986-21.722 37.632-.206.364h-43.867l-21.928-37.986Zm86.061 0-21.102-36.55h-42.205l-21.102 36.55 21.102 36.551h42.205l21.102-36.55ZM-393.438 783.17l21.722-37.632.207-.364h43.866l21.928 37.986-21.721 37.632-.207.364h-43.866l-21.929-37.986Zm86.062 0-21.103-36.551h-42.204l-21.103 36.551 21.103 36.55h42.204l21.103-36.55Zm-86.062-74.537 21.722-37.632.207-.364h43.866l21.928 37.986-21.721 37.633-.207.363h-43.866l-21.929-37.986Zm86.062 0-21.103-36.55h-42.204l-21.103 36.55 21.103 36.551h42.204l21.103-36.551Zm-86.062-149.073 21.722-37.632.207-.364h43.866l21.928 37.986-21.721 37.632-.207.364h-43.866l-21.929-37.986Zm86.062 0-21.103-36.551h-42.204l-21.103 36.551 21.103 36.55h42.204l21.103-36.55Zm-86.062-74.537 21.722-37.632.207-.364h43.866l21.928 37.986-21.721 37.632-.207.364h-43.866l-21.929-37.986Zm86.062 0-21.103-36.55h-42.204l-21.103 36.55 21.103 36.551h42.204l21.103-36.551Zm-86.062-74.537 21.722-37.632.207-.364h43.866l21.928 37.987-21.721 37.632-.207.364h-43.866l-21.929-37.987Zm86.062 0-21.103-36.55h-42.204l-21.103 36.55 21.103 36.551h42.204l21.103-36.551Zm-86.062-149.073 21.722-37.632.207-.364h43.866l21.928 37.986-21.721 37.632-.207.364h-43.866l-21.929-37.986Zm86.062 0-21.103-36.55h-42.204l-21.103 36.55 21.103 36.551h42.204l21.103-36.551Zm-86.062-74.537 21.722-37.632.207-.364h43.866l21.928 37.987-21.721 37.632-.207.364h-43.866l-21.929-37.987Zm86.062 0-21.103-36.55h-42.204l-21.103 36.55 21.103 36.551h42.204l21.103-36.551Zm-86.062-74.536 21.722-37.632.207-.364h43.866l21.928 37.986-21.721 37.632-.207.364h-43.866l-21.929-37.986Zm86.062 0-21.103-36.55h-42.204l-21.103 36.55 21.103 36.55h42.204l21.103-36.55Zm-86.062-74.537L-371.716.171l.207-.364h43.866l21.928 37.986-21.721 37.633-.207.363h-43.866l-21.929-37.986Zm86.062 0-21.103-36.55h-42.204l-21.103 36.55 21.103 36.55h42.204l21.103-36.55Zm-150.618 782.645 21.722-37.632.207-.364h43.866l21.929 37.986-21.722 37.632-.207.364h-43.866l-21.929-37.986Zm86.062 0-21.103-36.551h-42.204l-21.103 36.551 21.103 36.551h42.204l21.103-36.551Zm-86.062-74.537 21.722-37.632.207-.364h43.866l21.929 37.986-21.722 37.633-.207.363h-43.866l-21.929-37.986Zm86.062 0-21.103-36.55h-42.204l-21.103 36.55 21.103 36.551h42.204l21.103-36.551Zm-86.062-74.536 21.722-37.633.207-.363h43.866l21.929 37.986-21.722 37.632-.207.364h-43.866l-21.929-37.986Zm86.062 0-21.103-36.551h-42.204l-21.103 36.551 21.103 36.55h42.204l21.103-36.55Zm-86.062-149.074 21.722-37.632.207-.364h43.866l21.929 37.986-21.722 37.633-.207.364h-43.866l-21.929-37.987Zm86.062 0-21.103-36.55h-42.204l-21.103 36.55 21.103 36.551h42.204l21.103-36.551Zm-86.062-74.536 21.722-37.633.207-.363h43.866l21.929 37.986-21.722 37.632-.207.364h-43.866l-21.929-37.986Zm86.062 0-21.103-36.551h-42.204l-21.103 36.551 21.103 36.55h42.204l21.103-36.55Zm-86.062-74.537 21.722-37.632.207-.364h43.866l21.929 37.986-21.722 37.632-.207.364h-43.866l-21.929-37.986Zm86.062 0-21.103-36.551h-42.204l-21.103 36.551 21.103 36.55h42.204l21.103-36.55Zm-86.062-74.537 21.722-37.632.207-.364h43.866l21.929 37.986-21.722 37.633-.207.363h-43.866l-21.929-37.986Zm86.062 0-21.103-36.55h-42.204l-21.103 36.55 21.103 36.551h42.204l21.103-36.551Zm-86.062-149.073 21.722-37.632.207-.364h43.866l21.929 37.986-21.722 37.632-.207.364h-43.866l-21.929-37.986Zm86.062 0-21.103-36.551h-42.204l-21.103 36.551 21.103 36.55h42.204l21.103-36.55Zm-86.062-74.527 21.722-37.632.207-.364h43.866l21.929 37.986-21.722 37.632-.207.364h-43.866l-21.929-37.986Zm86.062 0-21.103-36.55h-42.204l-21.103 36.55 21.103 36.551h42.204l21.103-36.55ZM-523.444 783.17l21.722-37.632.206-.364h43.867l21.928 37.986-21.722 37.632-.206.364h-43.867l-21.928-37.986Zm86.071 0-21.102-36.551h-42.205l-21.102 36.551 21.102 36.55h42.205l21.102-36.55Zm-86.071-74.537 21.722-37.632.206-.364h43.867l21.928 37.986-21.722 37.633-.206.363h-43.867l-21.928-37.986Zm86.071 0-21.102-36.55h-42.205l-21.102 36.55 21.102 36.551h42.205l21.102-36.551Zm-86.071-74.536 21.722-37.633.206-.364h43.867l21.928 37.987-21.722 37.632-.206.364h-43.867l-21.928-37.986Zm86.071 0-21.102-36.551h-42.205l-21.102 36.551 21.102 36.55h42.205l21.102-36.55Zm-86.071-149.074 21.722-37.632.206-.364h43.867l21.928 37.986-21.722 37.632-.206.364h-43.867l-21.928-37.986Zm86.071 0-21.102-36.55h-42.205l-21.102 36.55 21.102 36.551h42.205l21.102-36.551Zm-86.071-74.537 21.722-37.632.206-.364h43.867l21.928 37.987-21.722 37.632-.206.364h-43.867l-21.928-37.987Zm86.071 0-21.102-36.55h-42.205l-21.102 36.55 21.102 36.551h42.205l21.102-36.551Zm-86.071-74.536 21.722-37.632.206-.364h43.867l21.928 37.986-21.722 37.632-.206.364h-43.867l-21.928-37.986Zm86.071 0-21.102-36.551h-42.205l-21.102 36.551 21.102 36.55h42.205l21.102-36.55Zm-86.071-149.074 21.722-37.632.206-.364h43.867l21.928 37.987-21.722 37.632-.206.364h-43.867l-21.928-37.987Zm86.071 0-21.102-36.55h-42.205l-21.102 36.55 21.102 36.551h42.205l21.102-36.551Zm-86.071-74.536 21.722-37.632.206-.364h43.867l21.928 37.986-21.722 37.632-.206.364h-43.867l-21.928-37.986Zm86.071 0-21.102-36.55h-42.205l-21.102 36.55 21.102 36.55h42.205l21.102-36.55Zm-86.071-74.537L-501.722.171l.206-.364h43.867l21.928 37.986-21.722 37.633-.206.363h-43.867l-21.928-37.986Zm86.071 0-21.102-36.55h-42.205l-21.102 36.55 21.102 36.55h42.205l21.102-36.55ZM-588 820.448l21.722-37.632.206-.364h43.867l21.928 37.986-21.722 37.632-.206.364h-43.867L-588 820.448Zm86.071 0-21.102-36.551h-42.205l-21.102 36.551 21.102 36.551h42.205l21.102-36.551ZM-588 671.375l21.722-37.633.206-.363h43.867l21.928 37.986-21.722 37.632-.206.364h-43.867L-588 671.375Zm86.071 0-21.102-36.551h-42.205l-21.102 36.551 21.102 36.55h42.205l21.102-36.55ZM-588 596.838l21.722-37.632.206-.364h43.867l21.928 37.986-21.722 37.632-.206.364h-43.867L-588 596.838Zm86.071 0-21.102-36.55h-42.205l-21.102 36.55 21.102 36.55h42.205l21.102-36.55ZM-588 447.765l21.722-37.633.206-.363h43.867l21.928 37.986-21.722 37.632-.206.364h-43.867L-588 447.765Zm86.071 0-21.102-36.551h-42.205l-21.102 36.551 21.102 36.55h42.205l21.102-36.55ZM-588 298.691l21.722-37.632.206-.364h43.867l21.928 37.986-21.722 37.633-.206.363h-43.867L-588 298.691Zm86.071 0-21.102-36.55h-42.205l-21.102 36.55 21.102 36.551h42.205l21.102-36.551ZM-588 224.155l21.722-37.633.206-.363h43.867l21.928 37.986-21.722 37.632-.206.364h-43.867L-588 224.155Zm86.071 0-21.102-36.551h-42.205l-21.102 36.551 21.102 36.55h42.205l21.102-36.55ZM-588 149.618l21.722-37.632.206-.364h43.867l21.928 37.986-21.722 37.632-.206.364h-43.867L-588 149.618Zm86.071 0-21.102-36.551h-42.205l-21.102 36.551 21.102 36.55h42.205l21.102-36.55ZM-588 75.091l21.722-37.632.206-.364h43.867l21.928 37.986-21.722 37.632-.206.364h-43.867L-588 75.091Zm86.071 0-21.102-36.55h-42.205l-21.102 36.55 21.102 36.551h42.205l21.102-36.55Z"/>
      </g>
    </g>
  </g>
  <defs>
    <clipPath id="a">
      <path fill="#fff" d="M0 0h489v337H0z"/>
    </clipPath>
    <clipPath id="b">
      <path fill="#fff" d="M-107-171.193h1440v508H-107z"/>
    </clipPath>
    <clipPath id="c">
      <path fill="#fff" d="M-128-110.193h802v859h-802z"/>
    </clipPath>
    <linearGradient id="d" x1="-588" x2="474.324" y1="429.13" y2="429.13" gradientUnits="userSpaceOnUse">
      <stop stop-color="#6B862B" stop-opacity=".6"/>
      <stop offset=".5" stop-color="#9AC12A" stop-opacity=".4"/>
      <stop offset="1" stop-color="#00A164"/>
    </linearGradient>
  </defs>
</svg>
