<svg xmlns="http://www.w3.org/2000/svg" width="1440" height="548" fill="none" viewBox="0 0 1440 548">
  <g clip-path="url(#a)">
    <path fill="#075F55" d="M0 0h1440v548H0z"/>
    <path fill="url(#b)" d="m953.591 844.17 21.722-37.632.207-.364h43.87l21.92 37.986-21.72 37.632-.2.364h-43.87l-21.929-37.986Zm86.059 0-21.1-36.551h-42.204l-21.103 36.551 21.103 36.55h42.204l21.1-36.55Zm-86.059-298.147 21.722-37.632.207-.364h43.87l21.92 37.986-21.72 37.632-.2.364h-43.87l-21.929-37.986Zm86.059 0-21.1-36.55h-42.204l-21.103 36.55 21.103 36.551h42.204l21.1-36.551Zm-86.059-298.147 21.722-37.632.207-.364h43.87l21.92 37.987-21.72 37.632-.2.364h-43.87l-21.929-37.987Zm86.059 0-21.1-36.55h-42.204l-21.103 36.55 21.103 36.551h42.204l21.1-36.551ZM889.036 881.448l21.721-37.632.207-.364h43.866l21.929 37.986-21.722 37.632-.207.364h-43.866l-21.928-37.986Zm86.061 0-21.102-36.551H911.79l-21.102 36.551 21.102 36.551h42.205l21.102-36.551Zm-86.061-74.537 21.721-37.632.207-.364h43.866l21.929 37.986-21.722 37.633-.207.363h-43.866l-21.928-37.986Zm86.061 0-21.102-36.55H911.79l-21.102 36.55 21.102 36.551h42.205l21.102-36.551Zm-86.061-149.073 21.721-37.632.207-.364h43.866l21.929 37.986-21.722 37.632-.207.364h-43.866l-21.928-37.986Zm86.061 0-21.102-36.55H911.79l-21.102 36.55 21.102 36.55h42.205l21.102-36.55Zm-86.061-149.073 21.721-37.633.207-.363h43.866l21.929 37.986-21.722 37.632-.207.364h-43.866l-21.928-37.986Zm86.061 0-21.102-36.551H911.79l-21.102 36.551 21.102 36.55h42.205l21.102-36.55Zm-86.061-149.074 21.721-37.632.207-.364h43.866l21.929 37.986-21.722 37.633-.207.363h-43.866l-21.928-37.986Zm86.061 0-21.102-36.55H911.79l-21.102 36.55 21.102 36.551h42.205l21.102-36.551Zm-86.061-149.073 21.721-37.632.207-.364h43.866l21.929 37.986-21.722 37.632-.207.364h-43.866l-21.928-37.986Zm86.061 0-21.102-36.551H911.79l-21.102 36.551 21.102 36.55h42.205l21.102-36.55ZM823.585 769.633l21.722-37.632.206-.364h43.867l21.928 37.986-21.722 37.633-.206.363h-43.867l-21.928-37.986Zm86.071 0-21.102-36.55h-42.205l-21.102 36.55 21.102 36.551h42.205l21.102-36.551ZM823.585 620.56l21.722-37.632.206-.364h43.867l21.928 37.986-21.722 37.632-.206.364h-43.867l-21.928-37.986Zm86.071 0-21.102-36.551h-42.205l-21.102 36.551 21.102 36.55h42.205l21.102-36.55Zm-86.071-74.537 21.722-37.632.206-.364h43.867l21.928 37.986-21.722 37.632-.206.364h-43.867l-21.928-37.986Zm86.071 0-21.102-36.55h-42.205l-21.102 36.55 21.102 36.551h42.205l21.102-36.551Zm-86.071-74.537 21.722-37.632.206-.364h43.867l21.928 37.987-21.722 37.632-.206.364h-43.867l-21.928-37.987Zm86.071 0-21.102-36.55h-42.205l-21.102 36.55 21.102 36.551h42.205l21.102-36.551Zm-86.071-149.073 21.722-37.632.206-.364h43.867l21.928 37.986-21.722 37.632-.206.364h-43.867l-21.928-37.986Zm86.071 0-21.102-36.55h-42.205l-21.102 36.55 21.102 36.551h42.205l21.102-36.551ZM823.585 173.34l21.722-37.632.206-.364h43.867l21.928 37.986-21.722 37.632-.206.364h-43.867l-21.928-37.986Zm86.071 0-21.102-36.551h-42.205l-21.102 36.551 21.102 36.55h42.205l21.102-36.55ZM759.029 806.911l21.722-37.632.206-.364h43.867l21.928 37.986-21.722 37.633-.206.363h-43.867l-21.928-37.986Zm86.071 0-21.102-36.55h-42.205l-21.102 36.55 21.102 36.551h42.205l21.102-36.551Zm-86.071-149.073 21.722-37.632.206-.364h43.867l21.928 37.986-21.722 37.632-.206.364h-43.867l-21.928-37.986Zm86.071 0-21.102-36.55h-42.205l-21.102 36.55 21.102 36.55h42.205l21.102-36.55Zm-86.071-149.073 21.722-37.633.206-.363h43.867l21.928 37.986-21.722 37.632-.206.364h-43.867l-21.928-37.986Zm86.071 0-21.102-36.551h-42.205l-21.102 36.551 21.102 36.55h42.205l21.102-36.55Zm-86.071-223.61 21.722-37.633.206-.363h43.867l21.928 37.986-21.722 37.632-.206.364h-43.867l-21.928-37.986Zm86.071 0-21.102-36.551h-42.205l-21.102 36.551 21.102 36.55h42.205l21.102-36.55Zm-86.071-74.537 21.722-37.632.206-.364h43.867l21.928 37.986-21.722 37.632-.206.364h-43.867l-21.928-37.986Zm86.071 0-21.102-36.551h-42.205l-21.102 36.551 21.102 36.55h42.205l21.102-36.55Zm-86.071-74.527 21.722-37.632.206-.364h43.867l21.928 37.986-21.722 37.632-.206.364h-43.867l-21.928-37.986Zm86.071 0-21.102-36.55h-42.205l-21.102 36.55 21.102 36.551h42.205l21.102-36.551ZM693.578 844.17l21.722-37.632.207-.364h43.866l21.929 37.986-21.722 37.632-.207.364h-43.866l-21.929-37.986Zm86.072 0-21.103-36.551h-42.204L695.24 844.17l21.103 36.55h42.204l21.103-36.55Zm-86.072-223.61 21.722-37.632.207-.364h43.866l21.929 37.986-21.722 37.632-.207.364h-43.866l-21.929-37.986Zm86.072 0-21.103-36.551h-42.204L695.24 620.56l21.103 36.55h42.204l21.103-36.55Zm-86.072-74.537 21.722-37.632.207-.364h43.866l21.929 37.986-21.722 37.632-.207.364h-43.866l-21.929-37.986Zm86.072 0-21.103-36.55h-42.204l-21.103 36.55 21.103 36.551h42.204l21.103-36.551Zm-86.072-74.537 21.722-37.632.207-.364h43.866l21.929 37.987-21.722 37.632-.207.364h-43.866l-21.929-37.987Zm86.072 0-21.103-36.55h-42.204l-21.103 36.55 21.103 36.551h42.204l21.103-36.551Zm-86.072-149.073 21.722-37.632.207-.364h43.866l21.929 37.986-21.722 37.632-.207.364h-43.866l-21.929-37.986Zm86.072 0-21.103-36.55h-42.204l-21.103 36.55 21.103 36.551h42.204l21.103-36.551Zm-86.072-74.537 21.722-37.632.207-.364h43.866l21.929 37.987-21.722 37.632-.207.364h-43.866l-21.929-37.987Zm86.072 0-21.103-36.55h-42.204l-21.103 36.55 21.103 36.551h42.204l21.103-36.551Zm-86.072-74.536 21.722-37.632.207-.364h43.866l21.929 37.986-21.722 37.632-.207.364h-43.866l-21.929-37.986Zm86.072 0-21.103-36.551h-42.204L695.24 173.34l21.103 36.55h42.204l21.103-36.55ZM629.023 732.375l21.721-37.633.207-.363h43.866l21.929 37.986-21.722 37.632-.207.364h-43.866l-21.928-37.986Zm86.071 0-21.103-36.551h-42.204l-21.103 36.551 21.103 36.55h42.204l21.103-36.55Zm-86.071-74.537 21.721-37.632.207-.364h43.866l21.929 37.986-21.722 37.632-.207.364h-43.866l-21.928-37.986Zm86.071 0-21.103-36.55h-42.204l-21.103 36.55 21.103 36.55h42.204l21.103-36.55Zm-86.071-74.537 21.721-37.632.207-.364h43.866l21.929 37.986-21.722 37.633-.207.364h-43.866l-21.928-37.987Zm86.071 0-21.103-36.55h-42.204l-21.103 36.55 21.103 36.551h42.204l21.103-36.551Zm-86.071-74.536 21.721-37.633.207-.363h43.866l21.929 37.986-21.722 37.632-.207.364h-43.866l-21.928-37.986Zm86.071 0-21.103-36.551h-42.204l-21.103 36.551 21.103 36.55h42.204l21.103-36.55Zm-86.071-149.074 21.721-37.632.207-.364h43.866l21.929 37.986-21.722 37.633-.207.363h-43.866l-21.928-37.986Zm86.071 0-21.103-36.55h-42.204l-21.103 36.55 21.103 36.551h42.204l21.103-36.551Zm-86.071-74.536 21.721-37.633.207-.363h43.866l21.929 37.986-21.722 37.632-.207.364h-43.866l-21.928-37.986Zm86.071 0-21.103-36.551h-42.204l-21.103 36.551 21.103 36.55h42.204l21.103-36.55ZM563.572 844.17l21.722-37.632.206-.364h43.867l21.928 37.986-21.722 37.632-.206.364H585.5l-21.928-37.986Zm86.071 0-21.102-36.551h-42.205l-21.102 36.551 21.102 36.55h42.205l21.102-36.55Zm-86.071-74.537 21.722-37.632.206-.364h43.867l21.928 37.986-21.722 37.633-.206.363H585.5l-21.928-37.986Zm86.071 0-21.102-36.55h-42.205l-21.102 36.55 21.102 36.551h42.205l21.102-36.551Zm-86.071-74.536 21.722-37.633.206-.364h43.867l21.928 37.987-21.722 37.632-.206.364H585.5l-21.928-37.986Zm86.071 0-21.102-36.551h-42.205l-21.102 36.551 21.102 36.55h42.205l21.102-36.55Zm-86.071-74.537 21.722-37.632.206-.364h43.867l21.928 37.986-21.722 37.632-.206.364H585.5l-21.928-37.986Zm86.071 0-21.102-36.551h-42.205l-21.102 36.551 21.102 36.55h42.205l21.102-36.55Zm-86.071-223.61 21.722-37.632.206-.364h43.867l21.928 37.986-21.722 37.632-.206.364H585.5l-21.928-37.986Zm86.071 0-21.102-36.551h-42.205l-21.102 36.551 21.102 36.55h42.205l21.102-36.55Zm-86.071-74.537 21.722-37.632.206-.364h43.867l21.928 37.986-21.722 37.632-.206.364H585.5l-21.928-37.986Zm86.071 0-21.102-36.55h-42.205l-21.102 36.55 21.102 36.551h42.205l21.102-36.551Zm-86.071-74.537 21.722-37.632.206-.364h43.867l21.928 37.987-21.722 37.632-.206.364H585.5l-21.928-37.987Zm86.071 0-21.102-36.55h-42.205l-21.102 36.55 21.102 36.551h42.205l21.102-36.551Zm-86.071-74.536 21.722-37.632.206-.364h43.867l21.928 37.986-21.722 37.632-.206.364H585.5l-21.928-37.986Zm86.071 0-21.102-36.551h-42.205l-21.102 36.551 21.102 36.55h42.205l21.102-36.55Zm-86.071-74.537 21.722-37.632.206-.364h43.867l21.928 37.986-21.722 37.632-.206.364H585.5l-21.928-37.986Zm86.071 0-21.102-36.55h-42.205l-21.102 36.55 21.102 36.551h42.205l21.102-36.55ZM499.016 881.448l21.722-37.632.206-.364h43.867l21.928 37.986-21.722 37.632-.206.364h-43.867l-21.928-37.986Zm86.071 0-21.102-36.551H521.78l-21.102 36.551 21.102 36.551h42.205l21.102-36.551Zm-86.071-74.537 21.722-37.632.206-.364h43.867l21.928 37.986-21.722 37.633-.206.363h-43.867l-21.928-37.986Zm86.071 0-21.102-36.55H521.78l-21.102 36.55 21.102 36.551h42.205l21.102-36.551Zm-86.071-149.073 21.722-37.632.206-.364h43.867l21.928 37.986-21.722 37.632-.206.364h-43.867l-21.928-37.986Zm86.071 0-21.102-36.55H521.78l-21.102 36.55 21.102 36.55h42.205l21.102-36.55Zm-86.071-149.073 21.722-37.633.206-.363h43.867l21.928 37.986-21.722 37.632-.206.364h-43.867l-21.928-37.986Zm86.071 0-21.102-36.551H521.78l-21.102 36.551 21.102 36.55h42.205l21.102-36.55Zm-86.071-74.537 21.722-37.632.206-.364h43.867l21.928 37.986-21.722 37.632-.206.364h-43.867l-21.928-37.986Zm86.071 0-21.102-36.551H521.78l-21.102 36.551 21.102 36.55h42.205l21.102-36.55Zm-86.071-74.537 21.722-37.632.206-.364h43.867l21.928 37.986-21.722 37.633-.206.363h-43.867l-21.928-37.986Zm86.071 0-21.102-36.55H521.78l-21.102 36.55 21.102 36.551h42.205l21.102-36.551Zm-86.071-149.073 21.722-37.632.206-.364h43.867l21.928 37.986-21.722 37.632-.206.364h-43.867l-21.928-37.986Zm86.071 0-21.102-36.551H521.78l-21.102 36.551 21.102 36.55h42.205l21.102-36.55ZM433.575 769.633l21.722-37.632.207-.364h43.866l21.928 37.986-21.721 37.633-.207.363h-43.866l-21.929-37.986Zm86.062 0-21.103-36.55H456.33l-21.103 36.55 21.103 36.551h42.204l21.103-36.551ZM433.575 620.56l21.722-37.632.207-.364h43.866l21.928 37.986-21.721 37.632-.207.364h-43.866l-21.929-37.986Zm86.062 0-21.103-36.551H456.33l-21.103 36.551 21.103 36.55h42.204l21.103-36.55Zm-86.062-149.074 21.722-37.632.207-.364h43.866l21.928 37.987-21.721 37.632-.207.364h-43.866l-21.929-37.987Zm86.062 0-21.103-36.55H456.33l-21.103 36.55 21.103 36.551h42.204l21.103-36.551Zm-86.062-74.536 21.722-37.632.207-.364h43.866l21.928 37.986-21.721 37.632-.207.364h-43.866l-21.929-37.986Zm86.062 0-21.103-36.551H456.33l-21.103 36.551 21.103 36.55h42.204l21.103-36.55Zm-86.062-149.074 21.722-37.632.207-.364h43.866l21.928 37.987-21.721 37.632-.207.364h-43.866l-21.929-37.987Zm86.062 0-21.103-36.55H456.33l-21.103 36.55 21.103 36.551h42.204l21.103-36.551Zm-86.062-74.536 21.722-37.632.207-.364h43.866l21.928 37.986-21.721 37.632-.207.364h-43.866l-21.929-37.986Zm86.062 0-21.103-36.551H456.33l-21.103 36.551 21.103 36.55h42.204l21.103-36.55Zm-86.062-74.537 21.722-37.632.207-.364h43.866l21.928 37.986-21.721 37.632-.207.364h-43.866l-21.929-37.986Zm86.062 0-21.103-36.55H456.33l-21.103 36.55 21.103 36.551h42.204l21.103-36.55ZM369.01 732.375l21.722-37.633.206-.363h43.866l21.929 37.986-21.722 37.632-.207.364h-43.866l-21.928-37.986Zm86.071 0-21.103-36.551h-42.204l-21.103 36.551 21.103 36.55h42.204l21.103-36.55Zm-86.071-74.537 21.722-37.632.206-.364h43.866l21.929 37.986-21.722 37.632-.207.364h-43.866l-21.928-37.986Zm86.071 0-21.103-36.55h-42.204l-21.103 36.55 21.103 36.55h42.204l21.103-36.55Zm-86.071-74.537 21.722-37.632.206-.364h43.866l21.929 37.986-21.722 37.633-.207.364h-43.866l-21.928-37.987Zm86.071 0-21.103-36.55h-42.204l-21.103 36.55 21.103 36.551h42.204l21.103-36.551Zm-86.071-74.536 21.722-37.633.206-.363h43.866l21.929 37.986-21.722 37.632-.207.364h-43.866l-21.928-37.986Zm86.071 0-21.103-36.551h-42.204l-21.103 36.551 21.103 36.55h42.204l21.103-36.55Zm-86.071-74.537 21.722-37.632.206-.364h43.866l21.929 37.986-21.722 37.632-.207.364h-43.866l-21.928-37.986Zm86.071 0-21.103-36.551h-42.204l-21.103 36.551 21.103 36.55h42.204l21.103-36.55Zm-86.071-74.537 21.722-37.632.206-.364h43.866l21.929 37.986-21.722 37.633-.207.363h-43.866l-21.928-37.986Zm86.071 0-21.103-36.55h-42.204l-21.103 36.55 21.103 36.551h42.204l21.103-36.551ZM303.569 844.17l21.722-37.632.206-.364h43.867l21.928 37.986-21.722 37.632-.206.364h-43.867l-21.928-37.986Zm86.061 0-21.102-36.551h-42.205l-21.102 36.551 21.102 36.55h42.205l21.102-36.55Zm-86.061-74.537 21.722-37.632.206-.364h43.867l21.928 37.986-21.722 37.633-.206.363h-43.867l-21.928-37.986Zm86.061 0-21.102-36.55h-42.205l-21.102 36.55 21.102 36.551h42.205l21.102-36.551Zm-86.061-74.536 21.722-37.633.206-.364h43.867l21.928 37.987-21.722 37.632-.206.364h-43.867l-21.928-37.986Zm86.061 0-21.102-36.551h-42.205l-21.102 36.551 21.102 36.55h42.205l21.102-36.55Zm-86.061-149.074 21.722-37.632.206-.364h43.867l21.928 37.986-21.722 37.632-.206.364h-43.867l-21.928-37.986Zm86.061 0-21.102-36.55h-42.205l-21.102 36.55 21.102 36.551h42.205l21.102-36.551ZM303.569 396.95l21.722-37.632.206-.364h43.867l21.928 37.986-21.722 37.632-.206.364h-43.867l-21.928-37.986Zm86.061 0-21.102-36.551h-42.205l-21.102 36.551 21.102 36.55h42.205l21.102-36.55Zm-86.061-74.537 21.722-37.632.206-.364h43.867l21.928 37.986-21.722 37.632-.206.364h-43.867l-21.928-37.986Zm86.061 0-21.102-36.55h-42.205l-21.102 36.55 21.102 36.551h42.205l21.102-36.551Zm-86.061-74.537 21.722-37.632.206-.364h43.867l21.928 37.987-21.722 37.632-.206.364h-43.867l-21.928-37.987Zm86.061 0-21.102-36.55h-42.205l-21.102 36.55 21.102 36.551h42.205l21.102-36.551ZM239.013 881.448l21.722-37.632.206-.364h43.867l21.928 37.986-21.722 37.632-.206.364h-43.867l-21.928-37.986Zm86.061 0-21.102-36.551h-42.205l-21.102 36.551 21.102 36.551h42.205l21.102-36.551Zm-86.061-74.537 21.722-37.632.206-.364h43.867l21.928 37.986-21.722 37.633-.206.363h-43.867l-21.928-37.986Zm86.061 0-21.102-36.55h-42.205l-21.102 36.55 21.102 36.551h42.205l21.102-36.551Zm-86.061-74.536 21.722-37.633.206-.363h43.867l21.928 37.986-21.722 37.632-.206.364h-43.867l-21.928-37.986Zm86.061 0-21.102-36.551h-42.205l-21.102 36.551 21.102 36.55h42.205l21.102-36.55Zm-86.061-74.537 21.722-37.632.206-.364h43.867l21.928 37.986-21.722 37.632-.206.364h-43.867l-21.928-37.986Zm86.061 0-21.102-36.55h-42.205l-21.102 36.55 21.102 36.55h42.205l21.102-36.55Zm-86.061-74.537 21.722-37.632.206-.364h43.867l21.928 37.986-21.722 37.633-.206.364h-43.867l-21.928-37.987Zm86.061 0-21.102-36.55h-42.205l-21.102 36.55 21.102 36.551h42.205l21.102-36.551Zm-86.061-149.073 21.722-37.632.206-.364h43.867l21.928 37.986-21.722 37.632-.206.364h-43.867l-21.928-37.986Zm86.061 0-21.102-36.551h-42.205l-21.102 36.551 21.102 36.55h42.205l21.102-36.55Zm-86.061-74.537 21.722-37.632.206-.364h43.867l21.928 37.986-21.722 37.633-.206.363h-43.867l-21.928-37.986Zm86.061 0-21.102-36.55h-42.205l-21.102 36.55 21.102 36.551h42.205l21.102-36.551Zm-86.061-74.536 21.722-37.633.206-.363h43.867l21.928 37.986-21.722 37.632-.206.364h-43.867l-21.928-37.986Zm86.061 0-21.102-36.551h-42.205l-21.102 36.551 21.102 36.55h42.205l21.102-36.55Zm-86.061-74.537 21.722-37.632.206-.364h43.867l21.928 37.986-21.722 37.632-.206.364h-43.867l-21.928-37.986Zm86.061 0-21.102-36.551h-42.205l-21.102 36.551 21.102 36.55h42.205l21.102-36.55Zm-86.061-74.527 21.722-37.632.206-.364h43.867l21.928 37.986-21.722 37.632-.206.364h-43.867l-21.928-37.986Zm86.061 0-21.102-36.55h-42.205l-21.102 36.55 21.102 36.551h42.205l21.102-36.551ZM173.562 844.17l21.722-37.632.207-.364h43.866l21.928 37.986-21.721 37.632-.207.364h-43.866l-21.929-37.986Zm86.062 0-21.103-36.551h-42.204l-21.103 36.551 21.103 36.55h42.204l21.103-36.55Zm-86.062-74.537 21.722-37.632.207-.364h43.866l21.928 37.986-21.721 37.633-.207.363h-43.866l-21.929-37.986Zm86.062 0-21.103-36.55h-42.204l-21.103 36.55 21.103 36.551h42.204l21.103-36.551ZM173.562 620.56l21.722-37.632.207-.364h43.866l21.928 37.986-21.721 37.632-.207.364h-43.866l-21.929-37.986Zm86.062 0-21.103-36.551h-42.204l-21.103 36.551 21.103 36.55h42.204l21.103-36.55Zm-86.062-74.537 21.722-37.632.207-.364h43.866l21.928 37.986-21.721 37.632-.207.364h-43.866l-21.929-37.986Zm86.062 0-21.103-36.55h-42.204l-21.103 36.55 21.103 36.551h42.204l21.103-36.551Zm-86.062-74.537 21.722-37.632.207-.364h43.866l21.928 37.987-21.721 37.632-.207.364h-43.866l-21.929-37.987Zm86.062 0-21.103-36.55h-42.204l-21.103 36.55 21.103 36.551h42.204l21.103-36.551Zm-86.062-149.073 21.722-37.632.207-.364h43.866l21.928 37.986-21.721 37.632-.207.364h-43.866l-21.929-37.986Zm86.062 0-21.103-36.55h-42.204l-21.103 36.55 21.103 36.551h42.204l21.103-36.551Zm-86.062-74.537 21.722-37.632.207-.364h43.866l21.928 37.987-21.721 37.632-.207.364h-43.866l-21.929-37.987Zm86.062 0-21.103-36.55h-42.204l-21.103 36.55 21.103 36.551h42.204l21.103-36.551Zm-86.062-74.536 21.722-37.632.207-.364h43.866l21.928 37.986-21.721 37.632-.207.364h-43.866l-21.929-37.986Zm86.062 0-21.103-36.551h-42.204l-21.103 36.551 21.103 36.55h42.204l21.103-36.55Zm-86.062-74.537 21.722-37.632.207-.364h43.866l21.928 37.986-21.721 37.632-.207.364h-43.866l-21.929-37.986Zm86.062 0-21.103-36.55h-42.204l-21.103 36.55 21.103 36.551h42.204l21.103-36.55ZM109.006 881.448l21.722-37.632.207-.364h43.866l21.929 37.986-21.722 37.632-.207.364h-43.866l-21.929-37.986Zm86.062 0-21.103-36.551h-42.204l-21.103 36.551 21.103 36.551h42.204l21.103-36.551Zm-86.062-74.537 21.722-37.632.207-.364h43.866l21.929 37.986-21.722 37.633-.207.363h-43.866l-21.929-37.986Zm86.062 0-21.103-36.55h-42.204l-21.103 36.55 21.103 36.551h42.204l21.103-36.551Zm-86.062-74.536 21.722-37.633.207-.363h43.866l21.929 37.986-21.722 37.632-.207.364h-43.866l-21.929-37.986Zm86.062 0-21.103-36.551h-42.204l-21.103 36.551 21.103 36.55h42.204l21.103-36.55Zm-86.062-149.074 21.722-37.632.207-.364h43.866l21.929 37.986-21.722 37.633-.207.364h-43.866l-21.929-37.987Zm86.062 0-21.103-36.55h-42.204l-21.103 36.55 21.103 36.551h42.204l21.103-36.551Zm-86.062-74.536 21.722-37.633.207-.363h43.866l21.929 37.986-21.722 37.632-.207.364h-43.866l-21.929-37.986Zm86.062 0-21.103-36.551h-42.204l-21.103 36.551 21.103 36.55h42.204l21.103-36.55Zm-86.062-74.537 21.722-37.632.207-.364h43.866l21.929 37.986-21.722 37.632-.207.364h-43.866l-21.929-37.986Zm86.062 0-21.103-36.551h-42.204l-21.103 36.551 21.103 36.55h42.204l21.103-36.55Zm-86.062-74.537 21.722-37.632.207-.364h43.866l21.929 37.986-21.722 37.633-.207.363h-43.866l-21.929-37.986Zm86.062 0-21.103-36.55h-42.204l-21.103 36.55 21.103 36.551h42.204l21.103-36.551Zm-86.062-149.073 21.722-37.632.207-.364h43.866l21.929 37.986-21.722 37.632-.207.364h-43.866l-21.929-37.986Zm86.062 0-21.103-36.551h-42.204l-21.103 36.551 21.103 36.55h42.204l21.103-36.55Zm-86.062-74.527 21.722-37.632.207-.364h43.866l21.929 37.986-21.722 37.632-.207.364h-43.866l-21.929-37.986Zm86.062 0-21.103-36.55h-42.204l-21.103 36.55 21.103 36.551h42.204l21.103-36.551ZM43.556 844.17l21.722-37.632.206-.364h43.867l21.928 37.986-21.722 37.632-.206.364H65.484L43.556 844.17Zm86.071 0-21.102-36.551H66.32L45.218 844.17l21.102 36.55h42.205l21.102-36.55Zm-86.071-74.537 21.722-37.632.206-.364h43.867l21.928 37.986-21.722 37.633-.206.363H65.484l-21.928-37.986Zm86.071 0-21.102-36.55H66.32l-21.102 36.55 21.102 36.551h42.205l21.102-36.551Zm-86.071-74.536 21.722-37.633.206-.364h43.867l21.928 37.987-21.722 37.632-.206.364H65.484l-21.928-37.986Zm86.071 0-21.102-36.551H66.32l-21.102 36.551 21.102 36.55h42.205l21.102-36.55ZM43.556 546.023l21.722-37.632.206-.364h43.867l21.928 37.986-21.722 37.632-.206.364H65.484l-21.928-37.986Zm86.071 0-21.102-36.55H66.32l-21.102 36.55 21.102 36.551h42.205l21.102-36.551Zm-86.071-74.537 21.722-37.632.206-.364h43.867l21.928 37.987-21.722 37.632-.206.364H65.484l-21.928-37.987Zm86.071 0-21.102-36.55H66.32l-21.102 36.55 21.102 36.551h42.205l21.102-36.551ZM43.556 396.95l21.722-37.632.206-.364h43.867l21.928 37.986-21.722 37.632-.206.364H65.484L43.556 396.95Zm86.071 0-21.102-36.551H66.32L45.218 396.95 66.32 433.5h42.205l21.102-36.55ZM43.556 247.876l21.722-37.632.206-.364h43.867l21.928 37.987-21.722 37.632-.206.364H65.484l-21.928-37.987Zm86.071 0-21.102-36.55H66.32l-21.102 36.55 21.102 36.551h42.205l21.102-36.551ZM43.556 173.34l21.722-37.632.206-.364h43.867l21.928 37.986-21.722 37.632-.206.364H65.484L43.556 173.34Zm86.071 0-21.102-36.551H66.32L45.218 173.34l21.102 36.55h42.205l21.102-36.55ZM43.556 98.803l21.722-37.632.206-.364h43.867l21.928 37.986-21.722 37.632-.206.364H65.484L43.556 98.803Zm86.071 0-21.102-36.55H66.32l-21.102 36.55 21.102 36.551h42.205l21.102-36.55ZM-21 881.448.722 843.816l.206-.364h43.867l21.928 37.986-21.722 37.632-.206.364H.928L-21 881.448Zm86.071 0L43.97 844.897H1.764l-21.102 36.551 21.102 36.551H43.97l21.102-36.551ZM-21 732.375.722 694.742l.206-.363h43.867l21.928 37.986-21.722 37.632-.206.364H.928L-21 732.375Zm86.071 0L43.97 695.824H1.764l-21.102 36.551 21.102 36.55H43.97l21.102-36.55ZM-21 657.838.722 620.206l.206-.364h43.867l21.928 37.986-21.722 37.632-.206.364H.928L-21 657.838Zm86.071 0-21.102-36.55H1.764l-21.102 36.55 21.102 36.55H43.97l21.102-36.55ZM-21 508.765.722 471.132l.206-.363h43.867l21.928 37.986-21.722 37.632-.206.364H.928L-21 508.765Zm86.071 0L43.97 472.214H1.764l-21.102 36.551 21.102 36.55H43.97l21.102-36.55ZM-21 359.691.722 322.059l.206-.364h43.867l21.928 37.986-21.722 37.633-.206.363H.928L-21 359.691Zm86.071 0-21.102-36.55H1.764l-21.102 36.55 21.102 36.551H43.97l21.102-36.551ZM-21 285.155.722 247.522l.206-.363h43.867l21.928 37.986-21.722 37.632-.206.364H.928L-21 285.155Zm86.071 0L43.97 248.604H1.764l-21.102 36.551 21.102 36.55H43.97l21.102-36.55ZM-21 210.618.722 172.986l.206-.364h43.867l21.928 37.986-21.722 37.632-.206.364H.928L-21 210.618Zm86.071 0L43.97 174.067H1.764l-21.102 36.551 21.102 36.55H43.97l21.102-36.55ZM-21 136.091.722 98.459l.206-.364h43.867l21.928 37.986-21.722 37.632-.206.364H.928L-21 136.091Zm86.071 0L43.97 99.541H1.764l-21.102 36.55 21.102 36.551H43.97l21.102-36.551Zm888.52 708.079 21.722-37.632.207-.364h43.87l21.92 37.986-21.72 37.632-.2.364h-43.87l-21.929-37.986Zm86.059 0-21.1-36.551h-42.204l-21.103 36.551 21.103 36.55h42.204l21.1-36.55Zm-86.059-298.147 21.722-37.632.207-.364h43.87l21.92 37.986-21.72 37.632-.2.364h-43.87l-21.929-37.986Zm86.059 0-21.1-36.55h-42.204l-21.103 36.55 21.103 36.551h42.204l21.1-36.551Zm-86.059-298.147 21.722-37.632.207-.364h43.87l21.92 37.987-21.72 37.632-.2.364h-43.87l-21.929-37.987Zm86.059 0-21.1-36.55h-42.204l-21.103 36.55 21.103 36.551h42.204l21.1-36.551ZM889.036 881.448l21.721-37.632.207-.364h43.866l21.929 37.986-21.722 37.632-.207.364h-43.866l-21.928-37.986Zm86.061 0-21.102-36.551H911.79l-21.102 36.551 21.102 36.551h42.205l21.102-36.551Zm-86.061-74.537 21.721-37.632.207-.364h43.866l21.929 37.986-21.722 37.633-.207.363h-43.866l-21.928-37.986Zm86.061 0-21.102-36.55H911.79l-21.102 36.55 21.102 36.551h42.205l21.102-36.551Zm-86.061-149.073 21.721-37.632.207-.364h43.866l21.929 37.986-21.722 37.632-.207.364h-43.866l-21.928-37.986Zm86.061 0-21.102-36.55H911.79l-21.102 36.55 21.102 36.55h42.205l21.102-36.55Zm-86.061-149.073 21.721-37.633.207-.363h43.866l21.929 37.986-21.722 37.632-.207.364h-43.866l-21.928-37.986Zm86.061 0-21.102-36.551H911.79l-21.102 36.551 21.102 36.55h42.205l21.102-36.55Zm-86.061-149.074 21.721-37.632.207-.364h43.866l21.929 37.986-21.722 37.633-.207.363h-43.866l-21.928-37.986Zm86.061 0-21.102-36.55H911.79l-21.102 36.55 21.102 36.551h42.205l21.102-36.551Zm-86.061-149.073 21.721-37.632.207-.364h43.866l21.929 37.986-21.722 37.632-.207.364h-43.866l-21.928-37.986Zm86.061 0-21.102-36.551H911.79l-21.102 36.551 21.102 36.55h42.205l21.102-36.55ZM823.585 769.633l21.722-37.632.206-.364h43.867l21.928 37.986-21.722 37.633-.206.363h-43.867l-21.928-37.986Zm86.071 0-21.102-36.55h-42.205l-21.102 36.55 21.102 36.551h42.205l21.102-36.551ZM823.585 620.56l21.722-37.632.206-.364h43.867l21.928 37.986-21.722 37.632-.206.364h-43.867l-21.928-37.986Zm86.071 0-21.102-36.551h-42.205l-21.102 36.551 21.102 36.55h42.205l21.102-36.55Zm-86.071-74.537 21.722-37.632.206-.364h43.867l21.928 37.986-21.722 37.632-.206.364h-43.867l-21.928-37.986Zm86.071 0-21.102-36.55h-42.205l-21.102 36.55 21.102 36.551h42.205l21.102-36.551Zm-86.071-74.537 21.722-37.632.206-.364h43.867l21.928 37.987-21.722 37.632-.206.364h-43.867l-21.928-37.987Zm86.071 0-21.102-36.55h-42.205l-21.102 36.55 21.102 36.551h42.205l21.102-36.551Zm-86.071-149.073 21.722-37.632.206-.364h43.867l21.928 37.986-21.722 37.632-.206.364h-43.867l-21.928-37.986Zm86.071 0-21.102-36.55h-42.205l-21.102 36.55 21.102 36.551h42.205l21.102-36.551ZM823.585 173.34l21.722-37.632.206-.364h43.867l21.928 37.986-21.722 37.632-.206.364h-43.867l-21.928-37.986Zm86.071 0-21.102-36.551h-42.205l-21.102 36.551 21.102 36.55h42.205l21.102-36.55ZM759.029 806.911l21.722-37.632.206-.364h43.867l21.928 37.986-21.722 37.633-.206.363h-43.867l-21.928-37.986Zm86.071 0-21.102-36.55h-42.205l-21.102 36.55 21.102 36.551h42.205l21.102-36.551Zm-86.071-149.073 21.722-37.632.206-.364h43.867l21.928 37.986-21.722 37.632-.206.364h-43.867l-21.928-37.986Zm86.071 0-21.102-36.55h-42.205l-21.102 36.55 21.102 36.55h42.205l21.102-36.55Zm-86.071-149.073 21.722-37.633.206-.363h43.867l21.928 37.986-21.722 37.632-.206.364h-43.867l-21.928-37.986Zm86.071 0-21.102-36.551h-42.205l-21.102 36.551 21.102 36.55h42.205l21.102-36.55Zm-86.071-223.61 21.722-37.633.206-.363h43.867l21.928 37.986-21.722 37.632-.206.364h-43.867l-21.928-37.986Zm86.071 0-21.102-36.551h-42.205l-21.102 36.551 21.102 36.55h42.205l21.102-36.55Zm-86.071-74.537 21.722-37.632.206-.364h43.867l21.928 37.986-21.722 37.632-.206.364h-43.867l-21.928-37.986Zm86.071 0-21.102-36.551h-42.205l-21.102 36.551 21.102 36.55h42.205l21.102-36.55Zm-86.071-74.527 21.722-37.632.206-.364h43.867l21.928 37.986-21.722 37.632-.206.364h-43.867l-21.928-37.986Zm86.071 0-21.102-36.55h-42.205l-21.102 36.55 21.102 36.551h42.205l21.102-36.551ZM693.578 844.17l21.722-37.632.207-.364h43.866l21.929 37.986-21.722 37.632-.207.364h-43.866l-21.929-37.986Zm86.072 0-21.103-36.551h-42.204L695.24 844.17l21.103 36.55h42.204l21.103-36.55Zm-86.072-223.61 21.722-37.632.207-.364h43.866l21.929 37.986-21.722 37.632-.207.364h-43.866l-21.929-37.986Zm86.072 0-21.103-36.551h-42.204L695.24 620.56l21.103 36.55h42.204l21.103-36.55Zm-86.072-74.537 21.722-37.632.207-.364h43.866l21.929 37.986-21.722 37.632-.207.364h-43.866l-21.929-37.986Zm86.072 0-21.103-36.55h-42.204l-21.103 36.55 21.103 36.551h42.204l21.103-36.551Zm-86.072-74.537 21.722-37.632.207-.364h43.866l21.929 37.987-21.722 37.632-.207.364h-43.866l-21.929-37.987Zm86.072 0-21.103-36.55h-42.204l-21.103 36.55 21.103 36.551h42.204l21.103-36.551Zm-86.072-149.073 21.722-37.632.207-.364h43.866l21.929 37.986-21.722 37.632-.207.364h-43.866l-21.929-37.986Zm86.072 0-21.103-36.55h-42.204l-21.103 36.55 21.103 36.551h42.204l21.103-36.551Zm-86.072-74.537 21.722-37.632.207-.364h43.866l21.929 37.987-21.722 37.632-.207.364h-43.866l-21.929-37.987Zm86.072 0-21.103-36.55h-42.204l-21.103 36.55 21.103 36.551h42.204l21.103-36.551Zm-86.072-74.536 21.722-37.632.207-.364h43.866l21.929 37.986-21.722 37.632-.207.364h-43.866l-21.929-37.986Zm86.072 0-21.103-36.551h-42.204L695.24 173.34l21.103 36.55h42.204l21.103-36.55ZM629.023 732.375l21.721-37.633.207-.363h43.866l21.929 37.986-21.722 37.632-.207.364h-43.866l-21.928-37.986Zm86.071 0-21.103-36.551h-42.204l-21.103 36.551 21.103 36.55h42.204l21.103-36.55Zm-86.071-74.537 21.721-37.632.207-.364h43.866l21.929 37.986-21.722 37.632-.207.364h-43.866l-21.928-37.986Zm86.071 0-21.103-36.55h-42.204l-21.103 36.55 21.103 36.55h42.204l21.103-36.55Zm-86.071-74.537 21.721-37.632.207-.364h43.866l21.929 37.986-21.722 37.633-.207.364h-43.866l-21.928-37.987Zm86.071 0-21.103-36.55h-42.204l-21.103 36.55 21.103 36.551h42.204l21.103-36.551Zm-86.071-74.536 21.721-37.633.207-.363h43.866l21.929 37.986-21.722 37.632-.207.364h-43.866l-21.928-37.986Zm86.071 0-21.103-36.551h-42.204l-21.103 36.551 21.103 36.55h42.204l21.103-36.55Zm-86.071-149.074 21.721-37.632.207-.364h43.866l21.929 37.986-21.722 37.633-.207.363h-43.866l-21.928-37.986Zm86.071 0-21.103-36.55h-42.204l-21.103 36.55 21.103 36.551h42.204l21.103-36.551Zm-86.071-74.536 21.721-37.633.207-.363h43.866l21.929 37.986-21.722 37.632-.207.364h-43.866l-21.928-37.986Zm86.071 0-21.103-36.551h-42.204l-21.103 36.551 21.103 36.55h42.204l21.103-36.55ZM563.572 844.17l21.722-37.632.206-.364h43.867l21.928 37.986-21.722 37.632-.206.364H585.5l-21.928-37.986Zm86.071 0-21.102-36.551h-42.205l-21.102 36.551 21.102 36.55h42.205l21.102-36.55Zm-86.071-74.537 21.722-37.632.206-.364h43.867l21.928 37.986-21.722 37.633-.206.363H585.5l-21.928-37.986Zm86.071 0-21.102-36.55h-42.205l-21.102 36.55 21.102 36.551h42.205l21.102-36.551Zm-86.071-74.536 21.722-37.633.206-.364h43.867l21.928 37.987-21.722 37.632-.206.364H585.5l-21.928-37.986Zm86.071 0-21.102-36.551h-42.205l-21.102 36.551 21.102 36.55h42.205l21.102-36.55Zm-86.071-74.537 21.722-37.632.206-.364h43.867l21.928 37.986-21.722 37.632-.206.364H585.5l-21.928-37.986Zm86.071 0-21.102-36.551h-42.205l-21.102 36.551 21.102 36.55h42.205l21.102-36.55Zm-86.071-223.61 21.722-37.632.206-.364h43.867l21.928 37.986-21.722 37.632-.206.364H585.5l-21.928-37.986Zm86.071 0-21.102-36.551h-42.205l-21.102 36.551 21.102 36.55h42.205l21.102-36.55Zm-86.071-74.537 21.722-37.632.206-.364h43.867l21.928 37.986-21.722 37.632-.206.364H585.5l-21.928-37.986Zm86.071 0-21.102-36.55h-42.205l-21.102 36.55 21.102 36.551h42.205l21.102-36.551Zm-86.071-74.537 21.722-37.632.206-.364h43.867l21.928 37.987-21.722 37.632-.206.364H585.5l-21.928-37.987Zm86.071 0-21.102-36.55h-42.205l-21.102 36.55 21.102 36.551h42.205l21.102-36.551Zm-86.071-74.536 21.722-37.632.206-.364h43.867l21.928 37.986-21.722 37.632-.206.364H585.5l-21.928-37.986Zm86.071 0-21.102-36.551h-42.205l-21.102 36.551 21.102 36.55h42.205l21.102-36.55Zm-86.071-74.537 21.722-37.632.206-.364h43.867l21.928 37.986-21.722 37.632-.206.364H585.5l-21.928-37.986Zm86.071 0-21.102-36.55h-42.205l-21.102 36.55 21.102 36.551h42.205l21.102-36.55ZM499.016 881.448l21.722-37.632.206-.364h43.867l21.928 37.986-21.722 37.632-.206.364h-43.867l-21.928-37.986Zm86.071 0-21.102-36.551H521.78l-21.102 36.551 21.102 36.551h42.205l21.102-36.551Zm-86.071-74.537 21.722-37.632.206-.364h43.867l21.928 37.986-21.722 37.633-.206.363h-43.867l-21.928-37.986Zm86.071 0-21.102-36.55H521.78l-21.102 36.55 21.102 36.551h42.205l21.102-36.551Zm-86.071-149.073 21.722-37.632.206-.364h43.867l21.928 37.986-21.722 37.632-.206.364h-43.867l-21.928-37.986Zm86.071 0-21.102-36.55H521.78l-21.102 36.55 21.102 36.55h42.205l21.102-36.55Zm-86.071-149.073 21.722-37.633.206-.363h43.867l21.928 37.986-21.722 37.632-.206.364h-43.867l-21.928-37.986Zm86.071 0-21.102-36.551H521.78l-21.102 36.551 21.102 36.55h42.205l21.102-36.55Zm-86.071-74.537 21.722-37.632.206-.364h43.867l21.928 37.986-21.722 37.632-.206.364h-43.867l-21.928-37.986Zm86.071 0-21.102-36.551H521.78l-21.102 36.551 21.102 36.55h42.205l21.102-36.55Zm-86.071-74.537 21.722-37.632.206-.364h43.867l21.928 37.986-21.722 37.633-.206.363h-43.867l-21.928-37.986Zm86.071 0-21.102-36.55H521.78l-21.102 36.55 21.102 36.551h42.205l21.102-36.551Zm-86.071-149.073 21.722-37.632.206-.364h43.867l21.928 37.986-21.722 37.632-.206.364h-43.867l-21.928-37.986Zm86.071 0-21.102-36.551H521.78l-21.102 36.551 21.102 36.55h42.205l21.102-36.55ZM433.575 769.633l21.722-37.632.207-.364h43.866l21.928 37.986-21.721 37.633-.207.363h-43.866l-21.929-37.986Zm86.062 0-21.103-36.55H456.33l-21.103 36.55 21.103 36.551h42.204l21.103-36.551ZM433.575 620.56l21.722-37.632.207-.364h43.866l21.928 37.986-21.721 37.632-.207.364h-43.866l-21.929-37.986Zm86.062 0-21.103-36.551H456.33l-21.103 36.551 21.103 36.55h42.204l21.103-36.55Zm-86.062-149.074 21.722-37.632.207-.364h43.866l21.928 37.987-21.721 37.632-.207.364h-43.866l-21.929-37.987Zm86.062 0-21.103-36.55H456.33l-21.103 36.55 21.103 36.551h42.204l21.103-36.551Zm-86.062-74.536 21.722-37.632.207-.364h43.866l21.928 37.986-21.721 37.632-.207.364h-43.866l-21.929-37.986Zm86.062 0-21.103-36.551H456.33l-21.103 36.551 21.103 36.55h42.204l21.103-36.55Zm-86.062-149.074 21.722-37.632.207-.364h43.866l21.928 37.987-21.721 37.632-.207.364h-43.866l-21.929-37.987Zm86.062 0-21.103-36.55H456.33l-21.103 36.55 21.103 36.551h42.204l21.103-36.551Zm-86.062-74.536 21.722-37.632.207-.364h43.866l21.928 37.986-21.721 37.632-.207.364h-43.866l-21.929-37.986Zm86.062 0-21.103-36.551H456.33l-21.103 36.551 21.103 36.55h42.204l21.103-36.55Zm-86.062-74.537 21.722-37.632.207-.364h43.866l21.928 37.986-21.721 37.632-.207.364h-43.866l-21.929-37.986Zm86.062 0-21.103-36.55H456.33l-21.103 36.55 21.103 36.551h42.204l21.103-36.55ZM369.01 732.375l21.722-37.633.206-.363h43.866l21.929 37.986-21.722 37.632-.207.364h-43.866l-21.928-37.986Zm86.071 0-21.103-36.551h-42.204l-21.103 36.551 21.103 36.55h42.204l21.103-36.55Zm-86.071-74.537 21.722-37.632.206-.364h43.866l21.929 37.986-21.722 37.632-.207.364h-43.866l-21.928-37.986Zm86.071 0-21.103-36.55h-42.204l-21.103 36.55 21.103 36.55h42.204l21.103-36.55Zm-86.071-74.537 21.722-37.632.206-.364h43.866l21.929 37.986-21.722 37.633-.207.364h-43.866l-21.928-37.987Zm86.071 0-21.103-36.55h-42.204l-21.103 36.55 21.103 36.551h42.204l21.103-36.551Zm-86.071-74.536 21.722-37.633.206-.363h43.866l21.929 37.986-21.722 37.632-.207.364h-43.866l-21.928-37.986Zm86.071 0-21.103-36.551h-42.204l-21.103 36.551 21.103 36.55h42.204l21.103-36.55Zm-86.071-74.537 21.722-37.632.206-.364h43.866l21.929 37.986-21.722 37.632-.207.364h-43.866l-21.928-37.986Zm86.071 0-21.103-36.551h-42.204l-21.103 36.551 21.103 36.55h42.204l21.103-36.55Zm-86.071-74.537 21.722-37.632.206-.364h43.866l21.929 37.986-21.722 37.633-.207.363h-43.866l-21.928-37.986Zm86.071 0-21.103-36.55h-42.204l-21.103 36.55 21.103 36.551h42.204l21.103-36.551ZM303.569 844.17l21.722-37.632.206-.364h43.867l21.928 37.986-21.722 37.632-.206.364h-43.867l-21.928-37.986Zm86.061 0-21.102-36.551h-42.205l-21.102 36.551 21.102 36.55h42.205l21.102-36.55Zm-86.061-74.537 21.722-37.632.206-.364h43.867l21.928 37.986-21.722 37.633-.206.363h-43.867l-21.928-37.986Zm86.061 0-21.102-36.55h-42.205l-21.102 36.55 21.102 36.551h42.205l21.102-36.551Zm-86.061-74.536 21.722-37.633.206-.364h43.867l21.928 37.987-21.722 37.632-.206.364h-43.867l-21.928-37.986Zm86.061 0-21.102-36.551h-42.205l-21.102 36.551 21.102 36.55h42.205l21.102-36.55Zm-86.061-149.074 21.722-37.632.206-.364h43.867l21.928 37.986-21.722 37.632-.206.364h-43.867l-21.928-37.986Zm86.061 0-21.102-36.55h-42.205l-21.102 36.55 21.102 36.551h42.205l21.102-36.551ZM303.569 396.95l21.722-37.632.206-.364h43.867l21.928 37.986-21.722 37.632-.206.364h-43.867l-21.928-37.986Zm86.061 0-21.102-36.551h-42.205l-21.102 36.551 21.102 36.55h42.205l21.102-36.55Zm-86.061-74.537 21.722-37.632.206-.364h43.867l21.928 37.986-21.722 37.632-.206.364h-43.867l-21.928-37.986Zm86.061 0-21.102-36.55h-42.205l-21.102 36.55 21.102 36.551h42.205l21.102-36.551Zm-86.061-74.537 21.722-37.632.206-.364h43.867l21.928 37.987-21.722 37.632-.206.364h-43.867l-21.928-37.987Zm86.061 0-21.102-36.55h-42.205l-21.102 36.55 21.102 36.551h42.205l21.102-36.551ZM239.013 881.448l21.722-37.632.206-.364h43.867l21.928 37.986-21.722 37.632-.206.364h-43.867l-21.928-37.986Zm86.061 0-21.102-36.551h-42.205l-21.102 36.551 21.102 36.551h42.205l21.102-36.551Zm-86.061-74.537 21.722-37.632.206-.364h43.867l21.928 37.986-21.722 37.633-.206.363h-43.867l-21.928-37.986Zm86.061 0-21.102-36.55h-42.205l-21.102 36.55 21.102 36.551h42.205l21.102-36.551Zm-86.061-74.536 21.722-37.633.206-.363h43.867l21.928 37.986-21.722 37.632-.206.364h-43.867l-21.928-37.986Zm86.061 0-21.102-36.551h-42.205l-21.102 36.551 21.102 36.55h42.205l21.102-36.55Zm-86.061-74.537 21.722-37.632.206-.364h43.867l21.928 37.986-21.722 37.632-.206.364h-43.867l-21.928-37.986Zm86.061 0-21.102-36.55h-42.205l-21.102 36.55 21.102 36.55h42.205l21.102-36.55Zm-86.061-74.537 21.722-37.632.206-.364h43.867l21.928 37.986-21.722 37.633-.206.364h-43.867l-21.928-37.987Zm86.061 0-21.102-36.55h-42.205l-21.102 36.55 21.102 36.551h42.205l21.102-36.551Zm-86.061-149.073 21.722-37.632.206-.364h43.867l21.928 37.986-21.722 37.632-.206.364h-43.867l-21.928-37.986Zm86.061 0-21.102-36.551h-42.205l-21.102 36.551 21.102 36.55h42.205l21.102-36.55Zm-86.061-74.537 21.722-37.632.206-.364h43.867l21.928 37.986-21.722 37.633-.206.363h-43.867l-21.928-37.986Zm86.061 0-21.102-36.55h-42.205l-21.102 36.55 21.102 36.551h42.205l21.102-36.551Zm-86.061-74.536 21.722-37.633.206-.363h43.867l21.928 37.986-21.722 37.632-.206.364h-43.867l-21.928-37.986Zm86.061 0-21.102-36.551h-42.205l-21.102 36.551 21.102 36.55h42.205l21.102-36.55Zm-86.061-74.537 21.722-37.632.206-.364h43.867l21.928 37.986-21.722 37.632-.206.364h-43.867l-21.928-37.986Zm86.061 0-21.102-36.551h-42.205l-21.102 36.551 21.102 36.55h42.205l21.102-36.55Zm-86.061-74.527 21.722-37.632.206-.364h43.867l21.928 37.986-21.722 37.632-.206.364h-43.867l-21.928-37.986Zm86.061 0-21.102-36.55h-42.205l-21.102 36.55 21.102 36.551h42.205l21.102-36.551ZM173.562 844.17l21.722-37.632.207-.364h43.866l21.928 37.986-21.721 37.632-.207.364h-43.866l-21.929-37.986Zm86.062 0-21.103-36.551h-42.204l-21.103 36.551 21.103 36.55h42.204l21.103-36.55Zm-86.062-74.537 21.722-37.632.207-.364h43.866l21.928 37.986-21.721 37.633-.207.363h-43.866l-21.929-37.986Zm86.062 0-21.103-36.55h-42.204l-21.103 36.55 21.103 36.551h42.204l21.103-36.551ZM173.562 620.56l21.722-37.632.207-.364h43.866l21.928 37.986-21.721 37.632-.207.364h-43.866l-21.929-37.986Zm86.062 0-21.103-36.551h-42.204l-21.103 36.551 21.103 36.55h42.204l21.103-36.55Zm-86.062-74.537 21.722-37.632.207-.364h43.866l21.928 37.986-21.721 37.632-.207.364h-43.866l-21.929-37.986Zm86.062 0-21.103-36.55h-42.204l-21.103 36.55 21.103 36.551h42.204l21.103-36.551Zm-86.062-74.537 21.722-37.632.207-.364h43.866l21.928 37.987-21.721 37.632-.207.364h-43.866l-21.929-37.987Zm86.062 0-21.103-36.55h-42.204l-21.103 36.55 21.103 36.551h42.204l21.103-36.551Zm-86.062-149.073 21.722-37.632.207-.364h43.866l21.928 37.986-21.721 37.632-.207.364h-43.866l-21.929-37.986Zm86.062 0-21.103-36.55h-42.204l-21.103 36.55 21.103 36.551h42.204l21.103-36.551Zm-86.062-74.537 21.722-37.632.207-.364h43.866l21.928 37.987-21.721 37.632-.207.364h-43.866l-21.929-37.987Zm86.062 0-21.103-36.55h-42.204l-21.103 36.55 21.103 36.551h42.204l21.103-36.551Zm-86.062-74.536 21.722-37.632.207-.364h43.866l21.928 37.986-21.721 37.632-.207.364h-43.866l-21.929-37.986Zm86.062 0-21.103-36.551h-42.204l-21.103 36.551 21.103 36.55h42.204l21.103-36.55Zm-86.062-74.537 21.722-37.632.207-.364h43.866l21.928 37.986-21.721 37.632-.207.364h-43.866l-21.929-37.986Zm86.062 0-21.103-36.55h-42.204l-21.103 36.55 21.103 36.551h42.204l21.103-36.55ZM109.006 881.448l21.722-37.632.207-.364h43.866l21.929 37.986-21.722 37.632-.207.364h-43.866l-21.929-37.986Zm86.062 0-21.103-36.551h-42.204l-21.103 36.551 21.103 36.551h42.204l21.103-36.551Zm-86.062-74.537 21.722-37.632.207-.364h43.866l21.929 37.986-21.722 37.633-.207.363h-43.866l-21.929-37.986Zm86.062 0-21.103-36.55h-42.204l-21.103 36.55 21.103 36.551h42.204l21.103-36.551Zm-86.062-74.536 21.722-37.633.207-.363h43.866l21.929 37.986-21.722 37.632-.207.364h-43.866l-21.929-37.986Zm86.062 0-21.103-36.551h-42.204l-21.103 36.551 21.103 36.55h42.204l21.103-36.55Zm-86.062-149.074 21.722-37.632.207-.364h43.866l21.929 37.986-21.722 37.633-.207.364h-43.866l-21.929-37.987Zm86.062 0-21.103-36.55h-42.204l-21.103 36.55 21.103 36.551h42.204l21.103-36.551Zm-86.062-74.536 21.722-37.633.207-.363h43.866l21.929 37.986-21.722 37.632-.207.364h-43.866l-21.929-37.986Zm86.062 0-21.103-36.551h-42.204l-21.103 36.551 21.103 36.55h42.204l21.103-36.55Zm-86.062-74.537 21.722-37.632.207-.364h43.866l21.929 37.986-21.722 37.632-.207.364h-43.866l-21.929-37.986Zm86.062 0-21.103-36.551h-42.204l-21.103 36.551 21.103 36.55h42.204l21.103-36.55Zm-86.062-74.537 21.722-37.632.207-.364h43.866l21.929 37.986-21.722 37.633-.207.363h-43.866l-21.929-37.986Zm86.062 0-21.103-36.55h-42.204l-21.103 36.55 21.103 36.551h42.204l21.103-36.551Zm-86.062-149.073 21.722-37.632.207-.364h43.866l21.929 37.986-21.722 37.632-.207.364h-43.866l-21.929-37.986Zm86.062 0-21.103-36.551h-42.204l-21.103 36.551 21.103 36.55h42.204l21.103-36.55Zm-86.062-74.527 21.722-37.632.207-.364h43.866l21.929 37.986-21.722 37.632-.207.364h-43.866l-21.929-37.986Zm86.062 0-21.103-36.55h-42.204l-21.103 36.55 21.103 36.551h42.204l21.103-36.551ZM43.556 844.17l21.722-37.632.206-.364h43.867l21.928 37.986-21.722 37.632-.206.364H65.484L43.556 844.17Zm86.071 0-21.102-36.551H66.32L45.218 844.17l21.102 36.55h42.205l21.102-36.55Zm-86.071-74.537 21.722-37.632.206-.364h43.867l21.928 37.986-21.722 37.633-.206.363H65.484l-21.928-37.986Zm86.071 0-21.102-36.55H66.32l-21.102 36.55 21.102 36.551h42.205l21.102-36.551Zm-86.071-74.536 21.722-37.633.206-.364h43.867l21.928 37.987-21.722 37.632-.206.364H65.484l-21.928-37.986Zm86.071 0-21.102-36.551H66.32l-21.102 36.551 21.102 36.55h42.205l21.102-36.55ZM43.556 546.023l21.722-37.632.206-.364h43.867l21.928 37.986-21.722 37.632-.206.364H65.484l-21.928-37.986Zm86.071 0-21.102-36.55H66.32l-21.102 36.55 21.102 36.551h42.205l21.102-36.551Zm-86.071-74.537 21.722-37.632.206-.364h43.867l21.928 37.987-21.722 37.632-.206.364H65.484l-21.928-37.987Zm86.071 0-21.102-36.55H66.32l-21.102 36.55 21.102 36.551h42.205l21.102-36.551ZM43.556 396.95l21.722-37.632.206-.364h43.867l21.928 37.986-21.722 37.632-.206.364H65.484L43.556 396.95Zm86.071 0-21.102-36.551H66.32L45.218 396.95 66.32 433.5h42.205l21.102-36.55ZM43.556 247.876l21.722-37.632.206-.364h43.867l21.928 37.987-21.722 37.632-.206.364H65.484l-21.928-37.987Zm86.071 0-21.102-36.55H66.32l-21.102 36.55 21.102 36.551h42.205l21.102-36.551ZM43.556 173.34l21.722-37.632.206-.364h43.867l21.928 37.986-21.722 37.632-.206.364H65.484L43.556 173.34Zm86.071 0-21.102-36.551H66.32L45.218 173.34l21.102 36.55h42.205l21.102-36.55ZM43.556 98.803l21.722-37.632.206-.364h43.867l21.928 37.986-21.722 37.632-.206.364H65.484L43.556 98.803Zm86.071 0-21.102-36.55H66.32l-21.102 36.55 21.102 36.551h42.205l21.102-36.55ZM-21 881.448.722 843.816l.206-.364h43.867l21.928 37.986-21.722 37.632-.206.364H.928L-21 881.448Zm86.071 0L43.97 844.897H1.764l-21.102 36.551 21.102 36.551H43.97l21.102-36.551ZM-21 732.375.722 694.742l.206-.363h43.867l21.928 37.986-21.722 37.632-.206.364H.928L-21 732.375Zm86.071 0L43.97 695.824H1.764l-21.102 36.551 21.102 36.55H43.97l21.102-36.55ZM-21 657.838.722 620.206l.206-.364h43.867l21.928 37.986-21.722 37.632-.206.364H.928L-21 657.838Zm86.071 0-21.102-36.55H1.764l-21.102 36.55 21.102 36.55H43.97l21.102-36.55ZM-21 508.765.722 471.132l.206-.363h43.867l21.928 37.986-21.722 37.632-.206.364H.928L-21 508.765Zm86.071 0L43.97 472.214H1.764l-21.102 36.551 21.102 36.55H43.97l21.102-36.55ZM-21 359.691.722 322.059l.206-.364h43.867l21.928 37.986-21.722 37.633-.206.363H.928L-21 359.691Zm86.071 0-21.102-36.55H1.764l-21.102 36.55 21.102 36.551H43.97l21.102-36.551ZM-21 285.155.722 247.522l.206-.363h43.867l21.928 37.986-21.722 37.632-.206.364H.928L-21 285.155Zm86.071 0L43.97 248.604H1.764l-21.102 36.551 21.102 36.55H43.97l21.102-36.55ZM-21 210.618.722 172.986l.206-.364h43.867l21.928 37.986-21.722 37.632-.206.364H.928L-21 210.618Zm86.071 0L43.97 174.067H1.764l-21.102 36.551 21.102 36.55H43.97l21.102-36.55ZM-21 136.091.722 98.459l.206-.364h43.867l21.928 37.986-21.722 37.632-.206.364H.928L-21 136.091Zm86.071 0L43.97 99.541H1.764l-21.102 36.55 21.102 36.551H43.97l21.102-36.551Z"/>
    <path fill="url(#c)" d="M-70 46h1160v502H-70z"/>
  </g>
  <defs>
    <radialGradient id="c" cx="0" cy="0" r="1" gradientTransform="matrix(0 180.64 -417.414 0 510 297)" gradientUnits="userSpaceOnUse">
      <stop stop-color="#075F55" stop-opacity="0"/>
      <stop offset="1" stop-color="#075F55"/>
    </radialGradient>
    <linearGradient id="b" x1="-21" x2="1041.32" y1="490.13" y2="490.13" gradientUnits="userSpaceOnUse">
      <stop stop-color="#6B862B" stop-opacity=".6"/>
      <stop offset=".5" stop-color="#9AC12A" stop-opacity=".4"/>
      <stop offset="1" stop-color="#00A164"/>
    </linearGradient>
    <clipPath id="a">
      <path fill="#fff" d="M0 0h1440v548H0z"/>
    </clipPath>
  </defs>
</svg>
