<svg xmlns="http://www.w3.org/2000/svg" width="1440" height="1702" fill="none" viewBox="0 0 1440 1702">
  <path fill="#075F55" d="M0 0h1440v1702H0z"/>
  <g clip-path="url(#a)">
    <path fill="url(#b)" d="m1403.62 798.17 21.72-37.632.21-.364h43.87l21.93 37.986-21.73 37.632-.2.364h-43.87l-21.93-37.986Zm86.06 0-21.1-36.551h-42.2l-21.1 36.551 21.1 36.55h42.2l21.1-36.55Zm-86.06-298.147 21.72-37.632.21-.364h43.87l21.93 37.986-21.73 37.632-.2.364h-43.87l-21.93-37.986Zm86.06 0-21.1-36.55h-42.2l-21.1 36.55 21.1 36.551h42.2l21.1-36.551Zm-86.06-298.147 21.72-37.632.21-.364h43.87l21.93 37.987-21.73 37.632-.2.364h-43.87l-21.93-37.987Zm86.06 0-21.1-36.55h-42.2l-21.1 36.55 21.1 36.551h42.2l21.1-36.551Zm-150.61 633.572 21.72-37.632.21-.364h43.86l21.93 37.986-21.72 37.632-.21.364H1361l-21.93-37.986Zm86.06 0-21.1-36.551h-42.21l-21.1 36.551 21.1 36.551h42.21l21.1-36.551Zm-86.06-74.537 21.72-37.632.21-.364h43.86l21.93 37.986-21.72 37.633-.21.363H1361l-21.93-37.986Zm86.06 0-21.1-36.55h-42.21l-21.1 36.55 21.1 36.551h42.21l21.1-36.551Zm-86.06-149.073 21.72-37.632.21-.364h43.86l21.93 37.986-21.72 37.632-.21.364H1361l-21.93-37.986Zm86.06 0-21.1-36.55h-42.21l-21.1 36.55 21.1 36.55h42.21l21.1-36.55Zm-86.06-149.073 21.72-37.633.21-.363h43.86l21.93 37.986-21.72 37.632-.21.364H1361l-21.93-37.986Zm86.06 0-21.1-36.551h-42.21l-21.1 36.551 21.1 36.55h42.21l21.1-36.55Zm-86.06-149.074 21.72-37.632.21-.364h43.86l21.93 37.986-21.72 37.633-.21.363H1361l-21.93-37.986Zm86.06 0-21.1-36.55h-42.21l-21.1 36.55 21.1 36.551h42.21l21.1-36.551Zm-86.06-149.073 21.72-37.632.21-.364h43.86l21.93 37.986-21.72 37.632-.21.364H1361l-21.93-37.986Zm86.06 0-21.1-36.551h-42.21l-21.1 36.551 21.1 36.55h42.21l21.1-36.55Zm-151.51 559.015 21.72-37.632.2-.364h43.87l21.93 37.986-21.72 37.633-.21.363h-43.87l-21.92-37.986Zm86.07 0-21.1-36.55h-42.21l-21.1 36.55 21.1 36.551h42.21l21.1-36.551Zm-86.07-149.073 21.72-37.632.2-.364h43.87l21.93 37.986-21.72 37.632-.21.364h-43.87l-21.92-37.986Zm86.07 0-21.1-36.551h-42.21l-21.1 36.551 21.1 36.55h42.21l21.1-36.55Zm-86.07-74.537 21.72-37.632.2-.364h43.87l21.93 37.986-21.72 37.632-.21.364h-43.87l-21.92-37.986Zm86.07 0-21.1-36.55h-42.21l-21.1 36.55 21.1 36.551h42.21l21.1-36.551Zm-86.07-74.537 21.72-37.632.2-.364h43.87l21.93 37.987-21.72 37.632-.21.364h-43.87l-21.92-37.987Zm86.07 0-21.1-36.55h-42.21l-21.1 36.55 21.1 36.551h42.21l21.1-36.551Zm-86.07-149.073 21.72-37.632.2-.364h43.87l21.93 37.986-21.72 37.632-.21.364h-43.87l-21.92-37.986Zm86.07 0-21.1-36.55h-42.21l-21.1 36.55 21.1 36.551h42.21l21.1-36.551Zm-86.07-149.073 21.72-37.632.2-.364h43.87l21.93 37.986-21.72 37.632-.21.364h-43.87l-21.92-37.986Zm86.07 0-21.1-36.55h-42.21l-21.1 36.55 21.1 36.55h42.21l21.1-36.55Zm-150.63 633.571 21.72-37.632.21-.364h43.87l21.92 37.986-21.72 37.633-.2.363h-43.87l-21.93-37.986Zm86.07 0-21.1-36.55h-42.21l-21.1 36.55 21.1 36.551h42.21l21.1-36.551Zm-86.07-149.073 21.72-37.632.21-.364h43.87l21.92 37.986-21.72 37.632-.2.364h-43.87l-21.93-37.986Zm86.07 0-21.1-36.55h-42.21l-21.1 36.55 21.1 36.55h42.21l21.1-36.55Zm-86.07-149.073 21.72-37.633.21-.363h43.87l21.92 37.986-21.72 37.632-.2.364h-43.87l-21.93-37.986Zm86.07 0-21.1-36.551h-42.21l-21.1 36.551 21.1 36.55h42.21l21.1-36.55Zm-86.07-223.61 21.72-37.633.21-.363h43.87l21.92 37.986-21.72 37.632-.2.364h-43.87l-21.93-37.986Zm86.07 0-21.1-36.551h-42.21l-21.1 36.551 21.1 36.55h42.21l21.1-36.55Zm-86.07-74.537 21.72-37.632.21-.364h43.87l21.92 37.986-21.72 37.632-.2.364h-43.87l-21.93-37.986Zm86.07 0-21.1-36.551h-42.21l-21.1 36.551 21.1 36.55h42.21l21.1-36.55Zm-86.07-74.527 21.72-37.632.21-.364h43.87l21.92 37.986-21.72 37.632-.2.364h-43.87l-21.93-37.986Zm86.07 0-21.1-36.55h-42.21l-21.1 36.55 21.1 36.551h42.21l21.1-36.55ZM1143.61 798.17l21.72-37.632.21-.364h43.87l21.92 37.986-21.72 37.632-.2.364h-43.87l-21.93-37.986Zm86.07 0-21.1-36.551h-42.21l-21.1 36.551 21.1 36.55h42.21l21.1-36.55Zm-86.07-223.61 21.72-37.632.21-.364h43.87l21.92 37.986-21.72 37.632-.2.364h-43.87l-21.93-37.986Zm86.07 0-21.1-36.551h-42.21l-21.1 36.551 21.1 36.55h42.21l21.1-36.55Zm-86.07-74.537 21.72-37.632.21-.364h43.87l21.92 37.986-21.72 37.632-.2.364h-43.87l-21.93-37.986Zm86.07 0-21.1-36.55h-42.21l-21.1 36.55 21.1 36.551h42.21l21.1-36.551Zm-86.07-74.537 21.72-37.632.21-.364h43.87l21.92 37.987-21.72 37.632-.2.364h-43.87l-21.93-37.987Zm86.07 0-21.1-36.55h-42.21l-21.1 36.55 21.1 36.551h42.21l21.1-36.551Zm-86.07-149.073 21.72-37.632.21-.364h43.87l21.92 37.986-21.72 37.632-.2.364h-43.87l-21.93-37.986Zm86.07 0-21.1-36.55h-42.21l-21.1 36.55 21.1 36.551h42.21l21.1-36.551Zm-86.07-74.537 21.72-37.632.21-.364h43.87l21.92 37.987-21.72 37.632-.2.364h-43.87l-21.93-37.987Zm86.07 0-21.1-36.55h-42.21l-21.1 36.55 21.1 36.551h42.21l21.1-36.551Zm-86.07-74.536 21.72-37.632.21-.364h43.87l21.92 37.986-21.72 37.632-.2.364h-43.87l-21.93-37.986Zm86.07 0-21.1-36.55h-42.21l-21.1 36.55 21.1 36.55h42.21l21.1-36.55Zm-150.63 559.035 21.73-37.633.2-.363h43.87l21.93 37.986-21.72 37.632-.21.364h-43.87l-21.93-37.986Zm86.08 0-21.11-36.551h-42.2l-21.1 36.551 21.1 36.55h42.2l21.11-36.55Zm-86.08-74.537 21.73-37.632.2-.364h43.87l21.93 37.986-21.72 37.632-.21.364h-43.87l-21.93-37.986Zm86.08 0-21.11-36.55h-42.2l-21.1 36.55 21.1 36.55h42.2l21.11-36.55Zm-86.08-74.537 21.73-37.632.2-.364h43.87l21.93 37.986-21.72 37.633-.21.364h-43.87l-21.93-37.987Zm86.08 0-21.11-36.55h-42.2l-21.1 36.55 21.1 36.551h42.2l21.11-36.551Zm-86.08-74.536 21.73-37.633.2-.363h43.87l21.93 37.986-21.72 37.632-.21.364h-43.87l-21.93-37.986Zm86.08 0-21.11-36.551h-42.2l-21.1 36.551 21.1 36.55h42.2l21.11-36.55Zm-86.08-149.074 21.73-37.632.2-.364h43.87l21.93 37.986-21.72 37.633-.21.363h-43.87l-21.93-37.986Zm86.08 0-21.11-36.55h-42.2l-21.1 36.55 21.1 36.551h42.2l21.11-36.551Zm-86.08-74.536 21.73-37.633.2-.363h43.87l21.93 37.986-21.72 37.632-.21.364h-43.87l-21.93-37.986Zm86.08 0-21.11-36.551h-42.2l-21.1 36.551 21.1 36.55h42.2l21.11-36.55ZM1013.6 798.17l21.73-37.632.2-.364h43.87l21.93 37.986-21.72 37.632-.21.364h-43.87l-21.93-37.986Zm86.07 0-21.1-36.551h-42.2l-21.1 36.551 21.1 36.55h42.2l21.1-36.55Zm-86.07-74.537 21.73-37.632.2-.364h43.87l21.93 37.986-21.72 37.633-.21.363h-43.87l-21.93-37.986Zm86.07 0-21.1-36.55h-42.2l-21.1 36.55 21.1 36.551h42.2l21.1-36.551Zm-86.07-74.536 21.73-37.633.2-.364h43.87l21.93 37.987-21.72 37.632-.21.364h-43.87l-21.93-37.986Zm86.07 0-21.1-36.551h-42.2l-21.1 36.551 21.1 36.55h42.2l21.1-36.55Zm-86.07-74.537 21.73-37.632.2-.364h43.87l21.93 37.986-21.72 37.632-.21.364h-43.87l-21.93-37.986Zm86.07 0-21.1-36.551h-42.2l-21.1 36.551 21.1 36.55h42.2l21.1-36.55Zm-86.07-223.61 21.73-37.632.2-.364h43.87l21.93 37.986-21.72 37.632-.21.364h-43.87l-21.93-37.986Zm86.07 0-21.1-36.551h-42.2l-21.1 36.551 21.1 36.55h42.2l21.1-36.55Zm-86.07-74.537 21.73-37.632.2-.364h43.87l21.93 37.986-21.72 37.632-.21.364h-43.87l-21.93-37.986Zm86.07 0-21.1-36.55h-42.2l-21.1 36.55 21.1 36.551h42.2l21.1-36.551Zm-86.07-74.537 21.73-37.632.2-.364h43.87l21.93 37.987-21.72 37.632-.21.364h-43.87l-21.93-37.987Zm86.07 0-21.1-36.55h-42.2l-21.1 36.55 21.1 36.551h42.2l21.1-36.551Zm-86.07-74.536 21.73-37.632.2-.364h43.87l21.93 37.986-21.72 37.632-.21.364h-43.87l-21.93-37.986Zm86.07 0-21.1-36.55h-42.2l-21.1 36.55 21.1 36.55h42.2l21.1-36.55Zm-86.07-74.537 21.73-37.632.2-.364h43.87l21.93 37.986-21.72 37.633-.21.363h-43.87l-21.93-37.986Zm86.07 0-21.1-36.55h-42.2l-21.1 36.55 21.1 36.55h42.2l21.1-36.55ZM949.048 835.448l21.722-37.632.206-.364h43.864l21.93 37.986-21.72 37.632-.21.364h-43.864l-21.928-37.986Zm86.072 0-21.1-36.551h-42.208l-21.102 36.551 21.102 36.551h42.208l21.1-36.551Zm-86.072-74.537 21.722-37.632.206-.364h43.864l21.93 37.986-21.72 37.633-.21.363h-43.864l-21.928-37.986Zm86.072 0-21.1-36.55h-42.208l-21.102 36.55 21.102 36.551h42.208l21.1-36.551Zm-86.072-149.073 21.722-37.632.206-.364h43.864l21.93 37.986-21.72 37.632-.21.364h-43.864l-21.928-37.986Zm86.072 0-21.1-36.55h-42.208l-21.102 36.55 21.102 36.55h42.208l21.1-36.55Zm-86.072-149.073 21.722-37.633.206-.363h43.864l21.93 37.986-21.72 37.632-.21.364h-43.864l-21.928-37.986Zm86.072 0-21.1-36.551h-42.208l-21.102 36.551 21.102 36.55h42.208l21.1-36.55Zm-86.072-74.537 21.722-37.632.206-.364h43.864l21.93 37.986-21.72 37.632-.21.364h-43.864l-21.928-37.986Zm86.072 0-21.1-36.551h-42.208l-21.102 36.551 21.102 36.55h42.208l21.1-36.55Zm-86.072-74.537 21.722-37.632.206-.364h43.864l21.93 37.986-21.72 37.633-.21.363h-43.864l-21.928-37.986Zm86.072 0-21.1-36.55h-42.208l-21.102 36.55 21.102 36.551h42.208l21.1-36.551Zm-86.072-149.073 21.722-37.632.206-.364h43.864l21.93 37.986-21.72 37.632-.21.364h-43.864l-21.928-37.986Zm86.072 0-21.1-36.551h-42.208l-21.102 36.551 21.102 36.55h42.208l21.1-36.55ZM883.607 723.633l21.722-37.632.206-.364h43.867l21.928 37.986-21.722 37.633-.206.363h-43.867l-21.928-37.986Zm86.061 0-21.102-36.55h-42.205l-21.102 36.55 21.102 36.551h42.205l21.102-36.551ZM883.607 574.56l21.722-37.632.206-.364h43.867l21.928 37.986-21.722 37.632-.206.364h-43.867l-21.928-37.986Zm86.061 0-21.102-36.551h-42.205l-21.102 36.551 21.102 36.55h42.205l21.102-36.55Zm-86.061-149.074 21.722-37.632.206-.364h43.867l21.928 37.987-21.722 37.632-.206.364h-43.867l-21.928-37.987Zm86.061 0-21.102-36.55h-42.205l-21.102 36.55 21.102 36.551h42.205l21.102-36.551Zm-86.061-74.536 21.722-37.632.206-.364h43.867l21.928 37.986-21.722 37.632-.206.364h-43.867l-21.928-37.986Zm86.061 0-21.102-36.551h-42.205l-21.102 36.551 21.102 36.55h42.205l21.102-36.55Zm-86.061-149.074 21.722-37.632.206-.364h43.867l21.928 37.987-21.722 37.632-.206.364h-43.867l-21.928-37.987Zm86.061 0-21.102-36.55h-42.205l-21.102 36.55 21.102 36.551h42.205l21.102-36.551Zm-86.061-74.536 21.722-37.632.206-.364h43.867l21.928 37.986-21.722 37.632-.206.364h-43.867l-21.928-37.986Zm86.061 0-21.102-36.55h-42.205l-21.102 36.55 21.102 36.55h42.205l21.102-36.55Zm-86.061-74.537 21.722-37.632.206-.364h43.867l21.928 37.986-21.722 37.633-.206.363h-43.867l-21.928-37.986Zm86.061 0-21.102-36.55h-42.205l-21.102 36.55 21.102 36.55h42.205l21.102-36.55ZM819.041 686.375l21.722-37.633.207-.363h43.866l21.929 37.986-21.722 37.632-.207.364H840.97l-21.929-37.986Zm86.072 0-21.103-36.551h-42.204l-21.103 36.551 21.103 36.55h42.204l21.103-36.55Zm-86.072-74.537 21.722-37.632.207-.364h43.866l21.929 37.986-21.722 37.632-.207.364H840.97l-21.929-37.986Zm86.072 0-21.103-36.55h-42.204l-21.103 36.55 21.103 36.55h42.204l21.103-36.55Zm-86.072-74.537 21.722-37.632.207-.364h43.866l21.929 37.986-21.722 37.633-.207.364H840.97l-21.929-37.987Zm86.072 0-21.103-36.55h-42.204l-21.103 36.55 21.103 36.551h42.204l21.103-36.551Zm-86.072-74.536 21.722-37.633.207-.363h43.866l21.929 37.986-21.722 37.632-.207.364H840.97l-21.929-37.986Zm86.072 0-21.103-36.551h-42.204l-21.103 36.551 21.103 36.55h42.204l21.103-36.55Zm-86.072-74.537 21.722-37.632.207-.364h43.866l21.929 37.986-21.722 37.632-.207.364H840.97l-21.929-37.986Zm86.072 0-21.103-36.551h-42.204l-21.103 36.551 21.103 36.55h42.204l21.103-36.55Zm-86.072-74.537 21.722-37.632.207-.364h43.866l21.929 37.986-21.722 37.633-.207.363H840.97l-21.929-37.986Zm86.072 0-21.103-36.55h-42.204l-21.103 36.55 21.103 36.551h42.204l21.103-36.551ZM753.601 798.17l21.721-37.632.207-.364h43.866l21.929 37.986-21.722 37.632-.207.364h-43.866l-21.928-37.986Zm86.061 0-21.102-36.551h-42.205l-21.102 36.551 21.102 36.55h42.205l21.102-36.55Zm-86.061-74.537 21.721-37.632.207-.364h43.866l21.929 37.986-21.722 37.633-.207.363h-43.866l-21.928-37.986Zm86.061 0-21.102-36.55h-42.205l-21.102 36.55 21.102 36.551h42.205l21.102-36.551Zm-86.061-74.536 21.721-37.633.207-.364h43.866l21.929 37.987-21.722 37.632-.207.364h-43.866l-21.928-37.986Zm86.061 0-21.102-36.551h-42.205l-21.102 36.551 21.102 36.55h42.205l21.102-36.55Zm-86.061-149.074 21.721-37.632.207-.364h43.866l21.929 37.986-21.722 37.632-.207.364h-43.866l-21.928-37.986Zm86.061 0-21.102-36.55h-42.205l-21.102 36.55 21.102 36.551h42.205l21.102-36.551ZM753.601 350.95l21.721-37.632.207-.364h43.866l21.929 37.986-21.722 37.632-.207.364h-43.866l-21.928-37.986Zm86.061 0-21.102-36.551h-42.205l-21.102 36.551 21.102 36.55h42.205l21.102-36.55Zm-86.061-74.537 21.721-37.632.207-.364h43.866l21.929 37.986-21.722 37.632-.207.364h-43.866l-21.928-37.986Zm86.061 0-21.102-36.55h-42.205l-21.102 36.55 21.102 36.551h42.205l21.102-36.551Zm-86.061-74.537 21.721-37.632.207-.364h43.866l21.929 37.987-21.722 37.632-.207.364h-43.866l-21.928-37.987Zm86.061 0-21.102-36.55h-42.205l-21.102 36.55 21.102 36.551h42.205l21.102-36.551ZM689.045 835.448l21.722-37.632.206-.364h43.867l21.928 37.986-21.722 37.632-.206.364h-43.867l-21.928-37.986Zm86.061 0-21.102-36.551h-42.205l-21.102 36.551 21.102 36.551h42.205l21.102-36.551Zm-86.061-74.537 21.722-37.632.206-.364h43.867l21.928 37.986-21.722 37.633-.206.363h-43.867l-21.928-37.986Zm86.061 0-21.102-36.55h-42.205l-21.102 36.55 21.102 36.551h42.205l21.102-36.551Zm-86.061-74.536 21.722-37.633.206-.363h43.867l21.928 37.986-21.722 37.632-.206.364h-43.867l-21.928-37.986Zm86.061 0-21.102-36.551h-42.205l-21.102 36.551 21.102 36.55h42.205l21.102-36.55Zm-86.061-74.537 21.722-37.632.206-.364h43.867l21.928 37.986-21.722 37.632-.206.364h-43.867l-21.928-37.986Zm86.061 0-21.102-36.55h-42.205l-21.102 36.55 21.102 36.55h42.205l21.102-36.55Zm-86.061-74.537 21.722-37.632.206-.364h43.867l21.928 37.986-21.722 37.633-.206.364h-43.867l-21.928-37.987Zm86.061 0-21.102-36.55h-42.205l-21.102 36.55 21.102 36.551h42.205l21.102-36.551Zm-86.061-149.073 21.722-37.632.206-.364h43.867l21.928 37.986-21.722 37.632-.206.364h-43.867l-21.928-37.986Zm86.061 0-21.102-36.551h-42.205l-21.102 36.551 21.102 36.55h42.205l21.102-36.55Zm-86.061-74.537 21.722-37.632.206-.364h43.867l21.928 37.986-21.722 37.633-.206.363h-43.867l-21.928-37.986Zm86.061 0-21.102-36.55h-42.205l-21.102 36.55 21.102 36.551h42.205l21.102-36.551Zm-86.061-74.536 21.722-37.633.206-.363h43.867l21.928 37.986-21.722 37.632-.206.364h-43.867l-21.928-37.986Zm86.061 0-21.102-36.551h-42.205l-21.102 36.551 21.102 36.55h42.205l21.102-36.55Zm-86.061-74.537 21.722-37.632.206-.364h43.867l21.928 37.986-21.722 37.632-.206.364h-43.867l-21.928-37.986Zm86.061 0-21.102-36.551h-42.205l-21.102 36.551 21.102 36.55h42.205l21.102-36.55Zm-86.061-74.527 21.722-37.632.206-.364h43.867l21.928 37.986-21.722 37.632-.206.364h-43.867l-21.928-37.986Zm86.061 0-21.102-36.55h-42.205l-21.102 36.55 21.102 36.551h42.205l21.102-36.55ZM623.594 798.17l21.722-37.632.206-.364h43.867l21.928 37.986-21.722 37.632-.206.364h-43.867l-21.928-37.986Zm86.061 0-21.102-36.551h-42.205l-21.102 36.551 21.102 36.55h42.205l21.102-36.55Zm-86.061-74.537 21.722-37.632.206-.364h43.867l21.928 37.986-21.722 37.633-.206.363h-43.867l-21.928-37.986Zm86.061 0-21.102-36.55h-42.205l-21.102 36.55 21.102 36.551h42.205l21.102-36.551ZM623.594 574.56l21.722-37.632.206-.364h43.867l21.928 37.986-21.722 37.632-.206.364h-43.867l-21.928-37.986Zm86.061 0-21.102-36.551h-42.205l-21.102 36.551 21.102 36.55h42.205l21.102-36.55Zm-86.061-74.537 21.722-37.632.206-.364h43.867l21.928 37.986-21.722 37.632-.206.364h-43.867l-21.928-37.986Zm86.061 0-21.102-36.55h-42.205l-21.102 36.55 21.102 36.551h42.205l21.102-36.551Zm-86.061-74.537 21.722-37.632.206-.364h43.867l21.928 37.987-21.722 37.632-.206.364h-43.867l-21.928-37.987Zm86.061 0-21.102-36.55h-42.205l-21.102 36.55 21.102 36.551h42.205l21.102-36.551Zm-86.061-149.073 21.722-37.632.206-.364h43.867l21.928 37.986-21.722 37.632-.206.364h-43.867l-21.928-37.986Zm86.061 0-21.102-36.55h-42.205l-21.102 36.55 21.102 36.551h42.205l21.102-36.551Zm-86.061-74.537 21.722-37.632.206-.364h43.867l21.928 37.987-21.722 37.632-.206.364h-43.867l-21.928-37.987Zm86.061 0-21.102-36.55h-42.205l-21.102 36.55 21.102 36.551h42.205l21.102-36.551Zm-86.061-74.536 21.722-37.632.206-.364h43.867l21.928 37.986-21.722 37.632-.206.364h-43.867l-21.928-37.986Zm86.061 0-21.102-36.55h-42.205l-21.102 36.55 21.102 36.55h42.205l21.102-36.55Zm-86.061-74.537 21.722-37.632.206-.364h43.867l21.928 37.986-21.722 37.633-.206.363h-43.867l-21.928-37.986Zm86.061 0-21.102-36.55h-42.205l-21.102 36.55 21.102 36.55h42.205l21.102-36.55ZM559.038 835.448l21.722-37.632.207-.364h43.866l21.928 37.986-21.721 37.632-.207.364h-43.866l-21.929-37.986Zm86.062 0-21.103-36.551h-42.204l-21.103 36.551 21.103 36.551h42.204l21.103-36.551Zm-86.062-74.537 21.722-37.632.207-.364h43.866l21.928 37.986-21.721 37.633-.207.363h-43.866l-21.929-37.986Zm86.062 0-21.103-36.55h-42.204l-21.103 36.55 21.103 36.551h42.204l21.103-36.551Zm-86.062-74.536 21.722-37.633.207-.363h43.866l21.928 37.986-21.721 37.632-.207.364h-43.866l-21.929-37.986Zm86.062 0-21.103-36.551h-42.204l-21.103 36.551 21.103 36.55h42.204l21.103-36.55Zm-86.062-149.074 21.722-37.632.207-.364h43.866l21.928 37.986-21.721 37.633-.207.364h-43.866l-21.929-37.987Zm86.062 0-21.103-36.55h-42.204l-21.103 36.55 21.103 36.551h42.204l21.103-36.551Zm-86.062-74.536 21.722-37.633.207-.363h43.866l21.928 37.986-21.721 37.632-.207.364h-43.866l-21.929-37.986Zm86.062 0-21.103-36.551h-42.204l-21.103 36.551 21.103 36.55h42.204l21.103-36.55Zm-86.062-74.537 21.722-37.632.207-.364h43.866l21.928 37.986-21.721 37.632-.207.364h-43.866l-21.929-37.986Zm86.062 0-21.103-36.551h-42.204l-21.103 36.551 21.103 36.55h42.204l21.103-36.55Zm-86.062-74.537 21.722-37.632.207-.364h43.866l21.928 37.986-21.721 37.633-.207.363h-43.866l-21.929-37.986Zm86.062 0-21.103-36.55h-42.204l-21.103 36.55 21.103 36.551h42.204l21.103-36.551Zm-86.062-149.073 21.722-37.632.207-.364h43.866l21.928 37.986-21.721 37.632-.207.364h-43.866l-21.929-37.986Zm86.062 0-21.103-36.551h-42.204l-21.103 36.551 21.103 36.55h42.204l21.103-36.55Zm-86.062-74.527L580.76 52.46l.207-.364h43.866l21.928 37.986-21.721 37.632-.207.364h-43.866l-21.929-37.986Zm86.062 0-21.103-36.55h-42.204L560.69 90.09l21.103 36.551h42.204l21.103-36.55ZM493.588 798.17l21.721-37.632.207-.364h43.866l21.929 37.986-21.722 37.632-.207.364h-43.866l-21.928-37.986Zm86.071 0-21.103-36.551h-42.204l-21.103 36.551 21.103 36.55h42.204l21.103-36.55Zm-86.071-74.537 21.721-37.632.207-.364h43.866l21.929 37.986-21.722 37.633-.207.363h-43.866l-21.928-37.986Zm86.071 0-21.103-36.55h-42.204l-21.103 36.55 21.103 36.551h42.204l21.103-36.551Zm-86.071-74.536 21.721-37.633.207-.364h43.866l21.929 37.987-21.722 37.632-.207.364h-43.866l-21.928-37.986Zm86.071 0-21.103-36.551h-42.204l-21.103 36.551 21.103 36.55h42.204l21.103-36.55Zm-86.071-149.074 21.721-37.632.207-.364h43.866l21.929 37.986-21.722 37.632-.207.364h-43.866l-21.928-37.986Zm86.071 0-21.103-36.55h-42.204l-21.103 36.55 21.103 36.551h42.204l21.103-36.551Zm-86.071-74.537 21.721-37.632.207-.364h43.866l21.929 37.987-21.722 37.632-.207.364h-43.866l-21.928-37.987Zm86.071 0-21.103-36.55h-42.204l-21.103 36.55 21.103 36.551h42.204l21.103-36.551Zm-86.071-74.536 21.721-37.632.207-.364h43.866l21.929 37.986-21.722 37.632-.207.364h-43.866l-21.928-37.986Zm86.071 0-21.103-36.551h-42.204l-21.103 36.551 21.103 36.55h42.204l21.103-36.55Zm-86.071-149.074 21.721-37.632.207-.364h43.866l21.929 37.987-21.722 37.632-.207.364h-43.866l-21.928-37.987Zm86.071 0-21.103-36.55h-42.204l-21.103 36.55 21.103 36.551h42.204l21.103-36.551Zm-86.071-74.536 21.721-37.632.207-.364h43.866l21.929 37.986-21.722 37.632-.207.364h-43.866l-21.928-37.986Zm86.071 0-21.103-36.55h-42.204l-21.103 36.55 21.103 36.55h42.204l21.103-36.55Zm-86.071-74.537 21.721-37.632.207-.364h43.866l21.929 37.986-21.722 37.633-.207.363h-43.866l-21.928-37.986Zm86.071 0-21.103-36.55h-42.204l-21.103 36.55 21.103 36.55h42.204l21.103-36.55ZM429.032 835.448l21.722-37.632.206-.364h43.867l21.928 37.986-21.722 37.632-.206.364H450.96l-21.928-37.986Zm86.071 0-21.102-36.551h-42.205l-21.102 36.551 21.102 36.551h42.205l21.102-36.551Zm-86.071-149.073 21.722-37.633.206-.363h43.867l21.928 37.986-21.722 37.632-.206.364H450.96l-21.928-37.986Zm86.071 0-21.102-36.551h-42.205l-21.102 36.551 21.102 36.55h42.205l21.102-36.55Zm-86.071-74.537 21.722-37.632.206-.364h43.867l21.928 37.986-21.722 37.632-.206.364H450.96l-21.928-37.986Zm86.071 0-21.102-36.55h-42.205l-21.102 36.55 21.102 36.55h42.205l21.102-36.55Zm-86.071-149.073 21.722-37.633.206-.363h43.867l21.928 37.986-21.722 37.632-.206.364H450.96l-21.928-37.986Zm86.071 0-21.102-36.551h-42.205l-21.102 36.551 21.102 36.55h42.205l21.102-36.55Zm-86.071-149.074 21.722-37.632.206-.364h43.867l21.928 37.986-21.722 37.633-.206.363H450.96l-21.928-37.986Zm86.071 0-21.102-36.55h-42.205l-21.102 36.55 21.102 36.551h42.205l21.102-36.551Zm-86.071-74.536 21.722-37.633.206-.363h43.867l21.928 37.986-21.722 37.632-.206.364H450.96l-21.928-37.986Zm86.071 0-21.102-36.551h-42.205l-21.102 36.551 21.102 36.55h42.205l21.102-36.55Zm-86.071-74.537 21.722-37.632.206-.364h43.867l21.928 37.986-21.722 37.632-.206.364H450.96l-21.928-37.986Zm86.071 0-21.102-36.551h-42.205l-21.102 36.551 21.102 36.55h42.205l21.102-36.55Zm-86.071-74.527 21.722-37.632.206-.364h43.867l21.928 37.986-21.722 37.632-.206.364H450.96l-21.928-37.986Zm86.071 0-21.102-36.55h-42.205l-21.102 36.55 21.102 36.551h42.205l21.102-36.55ZM1403.62 798.17l21.72-37.632.21-.364h43.87l21.93 37.986-21.73 37.632-.2.364h-43.87l-21.93-37.986Zm86.06 0-21.1-36.551h-42.2l-21.1 36.551 21.1 36.55h42.2l21.1-36.55Zm-86.06-298.147 21.72-37.632.21-.364h43.87l21.93 37.986-21.73 37.632-.2.364h-43.87l-21.93-37.986Zm86.06 0-21.1-36.55h-42.2l-21.1 36.55 21.1 36.551h42.2l21.1-36.551Zm-86.06-298.147 21.72-37.632.21-.364h43.87l21.93 37.987-21.73 37.632-.2.364h-43.87l-21.93-37.987Zm86.06 0-21.1-36.55h-42.2l-21.1 36.55 21.1 36.551h42.2l21.1-36.551Zm-150.61 633.572 21.72-37.632.21-.364h43.86l21.93 37.986-21.72 37.632-.21.364H1361l-21.93-37.986Zm86.06 0-21.1-36.551h-42.21l-21.1 36.551 21.1 36.551h42.21l21.1-36.551Zm-86.06-74.537 21.72-37.632.21-.364h43.86l21.93 37.986-21.72 37.633-.21.363H1361l-21.93-37.986Zm86.06 0-21.1-36.55h-42.21l-21.1 36.55 21.1 36.551h42.21l21.1-36.551Zm-86.06-149.073 21.72-37.632.21-.364h43.86l21.93 37.986-21.72 37.632-.21.364H1361l-21.93-37.986Zm86.06 0-21.1-36.55h-42.21l-21.1 36.55 21.1 36.55h42.21l21.1-36.55Zm-86.06-149.073 21.72-37.633.21-.363h43.86l21.93 37.986-21.72 37.632-.21.364H1361l-21.93-37.986Zm86.06 0-21.1-36.551h-42.21l-21.1 36.551 21.1 36.55h42.21l21.1-36.55Zm-86.06-149.074 21.72-37.632.21-.364h43.86l21.93 37.986-21.72 37.633-.21.363H1361l-21.93-37.986Zm86.06 0-21.1-36.55h-42.21l-21.1 36.55 21.1 36.551h42.21l21.1-36.551Zm-86.06-149.073 21.72-37.632.21-.364h43.86l21.93 37.986-21.72 37.632-.21.364H1361l-21.93-37.986Zm86.06 0-21.1-36.551h-42.21l-21.1 36.551 21.1 36.55h42.21l21.1-36.55Zm-151.51 559.015 21.72-37.632.2-.364h43.87l21.93 37.986-21.72 37.633-.21.363h-43.87l-21.92-37.986Zm86.07 0-21.1-36.55h-42.21l-21.1 36.55 21.1 36.551h42.21l21.1-36.551Zm-86.07-149.073 21.72-37.632.2-.364h43.87l21.93 37.986-21.72 37.632-.21.364h-43.87l-21.92-37.986Zm86.07 0-21.1-36.551h-42.21l-21.1 36.551 21.1 36.55h42.21l21.1-36.55Zm-86.07-74.537 21.72-37.632.2-.364h43.87l21.93 37.986-21.72 37.632-.21.364h-43.87l-21.92-37.986Zm86.07 0-21.1-36.55h-42.21l-21.1 36.55 21.1 36.551h42.21l21.1-36.551Zm-86.07-74.537 21.72-37.632.2-.364h43.87l21.93 37.987-21.72 37.632-.21.364h-43.87l-21.92-37.987Zm86.07 0-21.1-36.55h-42.21l-21.1 36.55 21.1 36.551h42.21l21.1-36.551Zm-86.07-149.073 21.72-37.632.2-.364h43.87l21.93 37.986-21.72 37.632-.21.364h-43.87l-21.92-37.986Zm86.07 0-21.1-36.55h-42.21l-21.1 36.55 21.1 36.551h42.21l21.1-36.551Zm-86.07-149.073 21.72-37.632.2-.364h43.87l21.93 37.986-21.72 37.632-.21.364h-43.87l-21.92-37.986Zm86.07 0-21.1-36.55h-42.21l-21.1 36.55 21.1 36.55h42.21l21.1-36.55Zm-150.63 633.571 21.72-37.632.21-.364h43.87l21.92 37.986-21.72 37.633-.2.363h-43.87l-21.93-37.986Zm86.07 0-21.1-36.55h-42.21l-21.1 36.55 21.1 36.551h42.21l21.1-36.551Zm-86.07-149.073 21.72-37.632.21-.364h43.87l21.92 37.986-21.72 37.632-.2.364h-43.87l-21.93-37.986Zm86.07 0-21.1-36.55h-42.21l-21.1 36.55 21.1 36.55h42.21l21.1-36.55Zm-86.07-149.073 21.72-37.633.21-.363h43.87l21.92 37.986-21.72 37.632-.2.364h-43.87l-21.93-37.986Zm86.07 0-21.1-36.551h-42.21l-21.1 36.551 21.1 36.55h42.21l21.1-36.55Zm-86.07-223.61 21.72-37.633.21-.363h43.87l21.92 37.986-21.72 37.632-.2.364h-43.87l-21.93-37.986Zm86.07 0-21.1-36.551h-42.21l-21.1 36.551 21.1 36.55h42.21l21.1-36.55Zm-86.07-74.537 21.72-37.632.21-.364h43.87l21.92 37.986-21.72 37.632-.2.364h-43.87l-21.93-37.986Zm86.07 0-21.1-36.551h-42.21l-21.1 36.551 21.1 36.55h42.21l21.1-36.55Zm-86.07-74.527 21.72-37.632.21-.364h43.87l21.92 37.986-21.72 37.632-.2.364h-43.87l-21.93-37.986Zm86.07 0-21.1-36.55h-42.21l-21.1 36.55 21.1 36.551h42.21l21.1-36.55ZM1143.61 798.17l21.72-37.632.21-.364h43.87l21.92 37.986-21.72 37.632-.2.364h-43.87l-21.93-37.986Zm86.07 0-21.1-36.551h-42.21l-21.1 36.551 21.1 36.55h42.21l21.1-36.55Zm-86.07-223.61 21.72-37.632.21-.364h43.87l21.92 37.986-21.72 37.632-.2.364h-43.87l-21.93-37.986Zm86.07 0-21.1-36.551h-42.21l-21.1 36.551 21.1 36.55h42.21l21.1-36.55Zm-86.07-74.537 21.72-37.632.21-.364h43.87l21.92 37.986-21.72 37.632-.2.364h-43.87l-21.93-37.986Zm86.07 0-21.1-36.55h-42.21l-21.1 36.55 21.1 36.551h42.21l21.1-36.551Zm-86.07-74.537 21.72-37.632.21-.364h43.87l21.92 37.987-21.72 37.632-.2.364h-43.87l-21.93-37.987Zm86.07 0-21.1-36.55h-42.21l-21.1 36.55 21.1 36.551h42.21l21.1-36.551Zm-86.07-149.073 21.72-37.632.21-.364h43.87l21.92 37.986-21.72 37.632-.2.364h-43.87l-21.93-37.986Zm86.07 0-21.1-36.55h-42.21l-21.1 36.55 21.1 36.551h42.21l21.1-36.551Zm-86.07-74.537 21.72-37.632.21-.364h43.87l21.92 37.987-21.72 37.632-.2.364h-43.87l-21.93-37.987Zm86.07 0-21.1-36.55h-42.21l-21.1 36.55 21.1 36.551h42.21l21.1-36.551Zm-86.07-74.536 21.72-37.632.21-.364h43.87l21.92 37.986-21.72 37.632-.2.364h-43.87l-21.93-37.986Zm86.07 0-21.1-36.55h-42.21l-21.1 36.55 21.1 36.55h42.21l21.1-36.55Zm-150.63 559.035 21.73-37.633.2-.363h43.87l21.93 37.986-21.72 37.632-.21.364h-43.87l-21.93-37.986Zm86.08 0-21.11-36.551h-42.2l-21.1 36.551 21.1 36.55h42.2l21.11-36.55Zm-86.08-74.537 21.73-37.632.2-.364h43.87l21.93 37.986-21.72 37.632-.21.364h-43.87l-21.93-37.986Zm86.08 0-21.11-36.55h-42.2l-21.1 36.55 21.1 36.55h42.2l21.11-36.55Zm-86.08-74.537 21.73-37.632.2-.364h43.87l21.93 37.986-21.72 37.633-.21.364h-43.87l-21.93-37.987Zm86.08 0-21.11-36.55h-42.2l-21.1 36.55 21.1 36.551h42.2l21.11-36.551Zm-86.08-74.536 21.73-37.633.2-.363h43.87l21.93 37.986-21.72 37.632-.21.364h-43.87l-21.93-37.986Zm86.08 0-21.11-36.551h-42.2l-21.1 36.551 21.1 36.55h42.2l21.11-36.55Zm-86.08-149.074 21.73-37.632.2-.364h43.87l21.93 37.986-21.72 37.633-.21.363h-43.87l-21.93-37.986Zm86.08 0-21.11-36.55h-42.2l-21.1 36.55 21.1 36.551h42.2l21.11-36.551Zm-86.08-74.536 21.73-37.633.2-.363h43.87l21.93 37.986-21.72 37.632-.21.364h-43.87l-21.93-37.986Zm86.08 0-21.11-36.551h-42.2l-21.1 36.551 21.1 36.55h42.2l21.11-36.55ZM1013.6 798.17l21.73-37.632.2-.364h43.87l21.93 37.986-21.72 37.632-.21.364h-43.87l-21.93-37.986Zm86.07 0-21.1-36.551h-42.2l-21.1 36.551 21.1 36.55h42.2l21.1-36.55Zm-86.07-74.537 21.73-37.632.2-.364h43.87l21.93 37.986-21.72 37.633-.21.363h-43.87l-21.93-37.986Zm86.07 0-21.1-36.55h-42.2l-21.1 36.55 21.1 36.551h42.2l21.1-36.551Zm-86.07-74.536 21.73-37.633.2-.364h43.87l21.93 37.987-21.72 37.632-.21.364h-43.87l-21.93-37.986Zm86.07 0-21.1-36.551h-42.2l-21.1 36.551 21.1 36.55h42.2l21.1-36.55Zm-86.07-74.537 21.73-37.632.2-.364h43.87l21.93 37.986-21.72 37.632-.21.364h-43.87l-21.93-37.986Zm86.07 0-21.1-36.551h-42.2l-21.1 36.551 21.1 36.55h42.2l21.1-36.55Zm-86.07-223.61 21.73-37.632.2-.364h43.87l21.93 37.986-21.72 37.632-.21.364h-43.87l-21.93-37.986Zm86.07 0-21.1-36.551h-42.2l-21.1 36.551 21.1 36.55h42.2l21.1-36.55Zm-86.07-74.537 21.73-37.632.2-.364h43.87l21.93 37.986-21.72 37.632-.21.364h-43.87l-21.93-37.986Zm86.07 0-21.1-36.55h-42.2l-21.1 36.55 21.1 36.551h42.2l21.1-36.551Zm-86.07-74.537 21.73-37.632.2-.364h43.87l21.93 37.987-21.72 37.632-.21.364h-43.87l-21.93-37.987Zm86.07 0-21.1-36.55h-42.2l-21.1 36.55 21.1 36.551h42.2l21.1-36.551Zm-86.07-74.536 21.73-37.632.2-.364h43.87l21.93 37.986-21.72 37.632-.21.364h-43.87l-21.93-37.986Zm86.07 0-21.1-36.55h-42.2l-21.1 36.55 21.1 36.55h42.2l21.1-36.55Zm-86.07-74.537 21.73-37.632.2-.364h43.87l21.93 37.986-21.72 37.633-.21.363h-43.87l-21.93-37.986Zm86.07 0-21.1-36.55h-42.2l-21.1 36.55 21.1 36.55h42.2l21.1-36.55ZM949.048 835.448l21.722-37.632.206-.364h43.864l21.93 37.986-21.72 37.632-.21.364h-43.864l-21.928-37.986Zm86.072 0-21.1-36.551h-42.208l-21.102 36.551 21.102 36.551h42.208l21.1-36.551Zm-86.072-74.537 21.722-37.632.206-.364h43.864l21.93 37.986-21.72 37.633-.21.363h-43.864l-21.928-37.986Zm86.072 0-21.1-36.55h-42.208l-21.102 36.55 21.102 36.551h42.208l21.1-36.551Zm-86.072-149.073 21.722-37.632.206-.364h43.864l21.93 37.986-21.72 37.632-.21.364h-43.864l-21.928-37.986Zm86.072 0-21.1-36.55h-42.208l-21.102 36.55 21.102 36.55h42.208l21.1-36.55Zm-86.072-149.073 21.722-37.633.206-.363h43.864l21.93 37.986-21.72 37.632-.21.364h-43.864l-21.928-37.986Zm86.072 0-21.1-36.551h-42.208l-21.102 36.551 21.102 36.55h42.208l21.1-36.55Zm-86.072-74.537 21.722-37.632.206-.364h43.864l21.93 37.986-21.72 37.632-.21.364h-43.864l-21.928-37.986Zm86.072 0-21.1-36.551h-42.208l-21.102 36.551 21.102 36.55h42.208l21.1-36.55Zm-86.072-74.537 21.722-37.632.206-.364h43.864l21.93 37.986-21.72 37.633-.21.363h-43.864l-21.928-37.986Zm86.072 0-21.1-36.55h-42.208l-21.102 36.55 21.102 36.551h42.208l21.1-36.551Zm-86.072-149.073 21.722-37.632.206-.364h43.864l21.93 37.986-21.72 37.632-.21.364h-43.864l-21.928-37.986Zm86.072 0-21.1-36.551h-42.208l-21.102 36.551 21.102 36.55h42.208l21.1-36.55ZM883.607 723.633l21.722-37.632.206-.364h43.867l21.928 37.986-21.722 37.633-.206.363h-43.867l-21.928-37.986Zm86.061 0-21.102-36.55h-42.205l-21.102 36.55 21.102 36.551h42.205l21.102-36.551ZM883.607 574.56l21.722-37.632.206-.364h43.867l21.928 37.986-21.722 37.632-.206.364h-43.867l-21.928-37.986Zm86.061 0-21.102-36.551h-42.205l-21.102 36.551 21.102 36.55h42.205l21.102-36.55Zm-86.061-149.074 21.722-37.632.206-.364h43.867l21.928 37.987-21.722 37.632-.206.364h-43.867l-21.928-37.987Zm86.061 0-21.102-36.55h-42.205l-21.102 36.55 21.102 36.551h42.205l21.102-36.551Zm-86.061-74.536 21.722-37.632.206-.364h43.867l21.928 37.986-21.722 37.632-.206.364h-43.867l-21.928-37.986Zm86.061 0-21.102-36.551h-42.205l-21.102 36.551 21.102 36.55h42.205l21.102-36.55Zm-86.061-149.074 21.722-37.632.206-.364h43.867l21.928 37.987-21.722 37.632-.206.364h-43.867l-21.928-37.987Zm86.061 0-21.102-36.55h-42.205l-21.102 36.55 21.102 36.551h42.205l21.102-36.551Zm-86.061-74.536 21.722-37.632.206-.364h43.867l21.928 37.986-21.722 37.632-.206.364h-43.867l-21.928-37.986Zm86.061 0-21.102-36.55h-42.205l-21.102 36.55 21.102 36.55h42.205l21.102-36.55Zm-86.061-74.537 21.722-37.632.206-.364h43.867l21.928 37.986-21.722 37.633-.206.363h-43.867l-21.928-37.986Zm86.061 0-21.102-36.55h-42.205l-21.102 36.55 21.102 36.55h42.205l21.102-36.55ZM819.041 686.375l21.722-37.633.207-.363h43.866l21.929 37.986-21.722 37.632-.207.364H840.97l-21.929-37.986Zm86.072 0-21.103-36.551h-42.204l-21.103 36.551 21.103 36.55h42.204l21.103-36.55Zm-86.072-74.537 21.722-37.632.207-.364h43.866l21.929 37.986-21.722 37.632-.207.364H840.97l-21.929-37.986Zm86.072 0-21.103-36.55h-42.204l-21.103 36.55 21.103 36.55h42.204l21.103-36.55Zm-86.072-74.537 21.722-37.632.207-.364h43.866l21.929 37.986-21.722 37.633-.207.364H840.97l-21.929-37.987Zm86.072 0-21.103-36.55h-42.204l-21.103 36.55 21.103 36.551h42.204l21.103-36.551Zm-86.072-74.536 21.722-37.633.207-.363h43.866l21.929 37.986-21.722 37.632-.207.364H840.97l-21.929-37.986Zm86.072 0-21.103-36.551h-42.204l-21.103 36.551 21.103 36.55h42.204l21.103-36.55Zm-86.072-74.537 21.722-37.632.207-.364h43.866l21.929 37.986-21.722 37.632-.207.364H840.97l-21.929-37.986Zm86.072 0-21.103-36.551h-42.204l-21.103 36.551 21.103 36.55h42.204l21.103-36.55Zm-86.072-74.537 21.722-37.632.207-.364h43.866l21.929 37.986-21.722 37.633-.207.363H840.97l-21.929-37.986Zm86.072 0-21.103-36.55h-42.204l-21.103 36.55 21.103 36.551h42.204l21.103-36.551ZM753.601 798.17l21.721-37.632.207-.364h43.866l21.929 37.986-21.722 37.632-.207.364h-43.866l-21.928-37.986Zm86.061 0-21.102-36.551h-42.205l-21.102 36.551 21.102 36.55h42.205l21.102-36.55Zm-86.061-74.537 21.721-37.632.207-.364h43.866l21.929 37.986-21.722 37.633-.207.363h-43.866l-21.928-37.986Zm86.061 0-21.102-36.55h-42.205l-21.102 36.55 21.102 36.551h42.205l21.102-36.551Zm-86.061-74.536 21.721-37.633.207-.364h43.866l21.929 37.987-21.722 37.632-.207.364h-43.866l-21.928-37.986Zm86.061 0-21.102-36.551h-42.205l-21.102 36.551 21.102 36.55h42.205l21.102-36.55Zm-86.061-149.074 21.721-37.632.207-.364h43.866l21.929 37.986-21.722 37.632-.207.364h-43.866l-21.928-37.986Zm86.061 0-21.102-36.55h-42.205l-21.102 36.55 21.102 36.551h42.205l21.102-36.551ZM753.601 350.95l21.721-37.632.207-.364h43.866l21.929 37.986-21.722 37.632-.207.364h-43.866l-21.928-37.986Zm86.061 0-21.102-36.551h-42.205l-21.102 36.551 21.102 36.55h42.205l21.102-36.55Zm-86.061-74.537 21.721-37.632.207-.364h43.866l21.929 37.986-21.722 37.632-.207.364h-43.866l-21.928-37.986Zm86.061 0-21.102-36.55h-42.205l-21.102 36.55 21.102 36.551h42.205l21.102-36.551Zm-86.061-74.537 21.721-37.632.207-.364h43.866l21.929 37.987-21.722 37.632-.207.364h-43.866l-21.928-37.987Zm86.061 0-21.102-36.55h-42.205l-21.102 36.55 21.102 36.551h42.205l21.102-36.551ZM689.045 835.448l21.722-37.632.206-.364h43.867l21.928 37.986-21.722 37.632-.206.364h-43.867l-21.928-37.986Zm86.061 0-21.102-36.551h-42.205l-21.102 36.551 21.102 36.551h42.205l21.102-36.551Zm-86.061-74.537 21.722-37.632.206-.364h43.867l21.928 37.986-21.722 37.633-.206.363h-43.867l-21.928-37.986Zm86.061 0-21.102-36.55h-42.205l-21.102 36.55 21.102 36.551h42.205l21.102-36.551Zm-86.061-74.536 21.722-37.633.206-.363h43.867l21.928 37.986-21.722 37.632-.206.364h-43.867l-21.928-37.986Zm86.061 0-21.102-36.551h-42.205l-21.102 36.551 21.102 36.55h42.205l21.102-36.55Zm-86.061-74.537 21.722-37.632.206-.364h43.867l21.928 37.986-21.722 37.632-.206.364h-43.867l-21.928-37.986Zm86.061 0-21.102-36.55h-42.205l-21.102 36.55 21.102 36.55h42.205l21.102-36.55Zm-86.061-74.537 21.722-37.632.206-.364h43.867l21.928 37.986-21.722 37.633-.206.364h-43.867l-21.928-37.987Zm86.061 0-21.102-36.55h-42.205l-21.102 36.55 21.102 36.551h42.205l21.102-36.551Zm-86.061-149.073 21.722-37.632.206-.364h43.867l21.928 37.986-21.722 37.632-.206.364h-43.867l-21.928-37.986Zm86.061 0-21.102-36.551h-42.205l-21.102 36.551 21.102 36.55h42.205l21.102-36.55Zm-86.061-74.537 21.722-37.632.206-.364h43.867l21.928 37.986-21.722 37.633-.206.363h-43.867l-21.928-37.986Zm86.061 0-21.102-36.55h-42.205l-21.102 36.55 21.102 36.551h42.205l21.102-36.551Zm-86.061-74.536 21.722-37.633.206-.363h43.867l21.928 37.986-21.722 37.632-.206.364h-43.867l-21.928-37.986Zm86.061 0-21.102-36.551h-42.205l-21.102 36.551 21.102 36.55h42.205l21.102-36.55Zm-86.061-74.537 21.722-37.632.206-.364h43.867l21.928 37.986-21.722 37.632-.206.364h-43.867l-21.928-37.986Zm86.061 0-21.102-36.551h-42.205l-21.102 36.551 21.102 36.55h42.205l21.102-36.55Zm-86.061-74.527 21.722-37.632.206-.364h43.867l21.928 37.986-21.722 37.632-.206.364h-43.867l-21.928-37.986Zm86.061 0-21.102-36.55h-42.205l-21.102 36.55 21.102 36.551h42.205l21.102-36.55ZM623.594 798.17l21.722-37.632.206-.364h43.867l21.928 37.986-21.722 37.632-.206.364h-43.867l-21.928-37.986Zm86.061 0-21.102-36.551h-42.205l-21.102 36.551 21.102 36.55h42.205l21.102-36.55Zm-86.061-74.537 21.722-37.632.206-.364h43.867l21.928 37.986-21.722 37.633-.206.363h-43.867l-21.928-37.986Zm86.061 0-21.102-36.55h-42.205l-21.102 36.55 21.102 36.551h42.205l21.102-36.551ZM623.594 574.56l21.722-37.632.206-.364h43.867l21.928 37.986-21.722 37.632-.206.364h-43.867l-21.928-37.986Zm86.061 0-21.102-36.551h-42.205l-21.102 36.551 21.102 36.55h42.205l21.102-36.55Zm-86.061-74.537 21.722-37.632.206-.364h43.867l21.928 37.986-21.722 37.632-.206.364h-43.867l-21.928-37.986Zm86.061 0-21.102-36.55h-42.205l-21.102 36.55 21.102 36.551h42.205l21.102-36.551Zm-86.061-74.537 21.722-37.632.206-.364h43.867l21.928 37.987-21.722 37.632-.206.364h-43.867l-21.928-37.987Zm86.061 0-21.102-36.55h-42.205l-21.102 36.55 21.102 36.551h42.205l21.102-36.551Zm-86.061-149.073 21.722-37.632.206-.364h43.867l21.928 37.986-21.722 37.632-.206.364h-43.867l-21.928-37.986Zm86.061 0-21.102-36.55h-42.205l-21.102 36.55 21.102 36.551h42.205l21.102-36.551Zm-86.061-74.537 21.722-37.632.206-.364h43.867l21.928 37.987-21.722 37.632-.206.364h-43.867l-21.928-37.987Zm86.061 0-21.102-36.55h-42.205l-21.102 36.55 21.102 36.551h42.205l21.102-36.551Zm-86.061-74.536 21.722-37.632.206-.364h43.867l21.928 37.986-21.722 37.632-.206.364h-43.867l-21.928-37.986Zm86.061 0-21.102-36.55h-42.205l-21.102 36.55 21.102 36.55h42.205l21.102-36.55Zm-86.061-74.537 21.722-37.632.206-.364h43.867l21.928 37.986-21.722 37.633-.206.363h-43.867l-21.928-37.986Zm86.061 0-21.102-36.55h-42.205l-21.102 36.55 21.102 36.55h42.205l21.102-36.55ZM559.038 835.448l21.722-37.632.207-.364h43.866l21.928 37.986-21.721 37.632-.207.364h-43.866l-21.929-37.986Zm86.062 0-21.103-36.551h-42.204l-21.103 36.551 21.103 36.551h42.204l21.103-36.551Zm-86.062-74.537 21.722-37.632.207-.364h43.866l21.928 37.986-21.721 37.633-.207.363h-43.866l-21.929-37.986Zm86.062 0-21.103-36.55h-42.204l-21.103 36.55 21.103 36.551h42.204l21.103-36.551Zm-86.062-74.536 21.722-37.633.207-.363h43.866l21.928 37.986-21.721 37.632-.207.364h-43.866l-21.929-37.986Zm86.062 0-21.103-36.551h-42.204l-21.103 36.551 21.103 36.55h42.204l21.103-36.55Zm-86.062-149.074 21.722-37.632.207-.364h43.866l21.928 37.986-21.721 37.633-.207.364h-43.866l-21.929-37.987Zm86.062 0-21.103-36.55h-42.204l-21.103 36.55 21.103 36.551h42.204l21.103-36.551Zm-86.062-74.536 21.722-37.633.207-.363h43.866l21.928 37.986-21.721 37.632-.207.364h-43.866l-21.929-37.986Zm86.062 0-21.103-36.551h-42.204l-21.103 36.551 21.103 36.55h42.204l21.103-36.55Zm-86.062-74.537 21.722-37.632.207-.364h43.866l21.928 37.986-21.721 37.632-.207.364h-43.866l-21.929-37.986Zm86.062 0-21.103-36.551h-42.204l-21.103 36.551 21.103 36.55h42.204l21.103-36.55Zm-86.062-74.537 21.722-37.632.207-.364h43.866l21.928 37.986-21.721 37.633-.207.363h-43.866l-21.929-37.986Zm86.062 0-21.103-36.55h-42.204l-21.103 36.55 21.103 36.551h42.204l21.103-36.551Zm-86.062-149.073 21.722-37.632.207-.364h43.866l21.928 37.986-21.721 37.632-.207.364h-43.866l-21.929-37.986Zm86.062 0-21.103-36.551h-42.204l-21.103 36.551 21.103 36.55h42.204l21.103-36.55Zm-86.062-74.527L580.76 52.46l.207-.364h43.866l21.928 37.986-21.721 37.632-.207.364h-43.866l-21.929-37.986Zm86.062 0-21.103-36.55h-42.204L560.69 90.09l21.103 36.551h42.204l21.103-36.55ZM493.588 798.17l21.721-37.632.207-.364h43.866l21.929 37.986-21.722 37.632-.207.364h-43.866l-21.928-37.986Zm86.071 0-21.103-36.551h-42.204l-21.103 36.551 21.103 36.55h42.204l21.103-36.55Zm-86.071-74.537 21.721-37.632.207-.364h43.866l21.929 37.986-21.722 37.633-.207.363h-43.866l-21.928-37.986Zm86.071 0-21.103-36.55h-42.204l-21.103 36.55 21.103 36.551h42.204l21.103-36.551Zm-86.071-74.536 21.721-37.633.207-.364h43.866l21.929 37.987-21.722 37.632-.207.364h-43.866l-21.928-37.986Zm86.071 0-21.103-36.551h-42.204l-21.103 36.551 21.103 36.55h42.204l21.103-36.55Zm-86.071-149.074 21.721-37.632.207-.364h43.866l21.929 37.986-21.722 37.632-.207.364h-43.866l-21.928-37.986Zm86.071 0-21.103-36.55h-42.204l-21.103 36.55 21.103 36.551h42.204l21.103-36.551Zm-86.071-74.537 21.721-37.632.207-.364h43.866l21.929 37.987-21.722 37.632-.207.364h-43.866l-21.928-37.987Zm86.071 0-21.103-36.55h-42.204l-21.103 36.55 21.103 36.551h42.204l21.103-36.551Zm-86.071-74.536 21.721-37.632.207-.364h43.866l21.929 37.986-21.722 37.632-.207.364h-43.866l-21.928-37.986Zm86.071 0-21.103-36.551h-42.204l-21.103 36.551 21.103 36.55h42.204l21.103-36.55Zm-86.071-149.074 21.721-37.632.207-.364h43.866l21.929 37.987-21.722 37.632-.207.364h-43.866l-21.928-37.987Zm86.071 0-21.103-36.55h-42.204l-21.103 36.55 21.103 36.551h42.204l21.103-36.551Zm-86.071-74.536 21.721-37.632.207-.364h43.866l21.929 37.986-21.722 37.632-.207.364h-43.866l-21.928-37.986Zm86.071 0-21.103-36.55h-42.204l-21.103 36.55 21.103 36.55h42.204l21.103-36.55Zm-86.071-74.537 21.721-37.632.207-.364h43.866l21.929 37.986-21.722 37.633-.207.363h-43.866l-21.928-37.986Zm86.071 0-21.103-36.55h-42.204l-21.103 36.55 21.103 36.55h42.204l21.103-36.55ZM429.032 835.448l21.722-37.632.206-.364h43.867l21.928 37.986-21.722 37.632-.206.364H450.96l-21.928-37.986Zm86.071 0-21.102-36.551h-42.205l-21.102 36.551 21.102 36.551h42.205l21.102-36.551Zm-86.071-149.073 21.722-37.633.206-.363h43.867l21.928 37.986-21.722 37.632-.206.364H450.96l-21.928-37.986Zm86.071 0-21.102-36.551h-42.205l-21.102 36.551 21.102 36.55h42.205l21.102-36.55Zm-86.071-74.537 21.722-37.632.206-.364h43.867l21.928 37.986-21.722 37.632-.206.364H450.96l-21.928-37.986Zm86.071 0-21.102-36.55h-42.205l-21.102 36.55 21.102 36.55h42.205l21.102-36.55Zm-86.071-149.073 21.722-37.633.206-.363h43.867l21.928 37.986-21.722 37.632-.206.364H450.96l-21.928-37.986Zm86.071 0-21.102-36.551h-42.205l-21.102 36.551 21.102 36.55h42.205l21.102-36.55Zm-86.071-149.074 21.722-37.632.206-.364h43.867l21.928 37.986-21.722 37.633-.206.363H450.96l-21.928-37.986Zm86.071 0-21.102-36.55h-42.205l-21.102 36.55 21.102 36.551h42.205l21.102-36.551Zm-86.071-74.536 21.722-37.633.206-.363h43.867l21.928 37.986-21.722 37.632-.206.364H450.96l-21.928-37.986Zm86.071 0-21.102-36.551h-42.205l-21.102 36.551 21.102 36.55h42.205l21.102-36.55Zm-86.071-74.537 21.722-37.632.206-.364h43.867l21.928 37.986-21.722 37.632-.206.364H450.96l-21.928-37.986Zm86.071 0-21.102-36.551h-42.205l-21.102 36.551 21.102 36.55h42.205l21.102-36.55Zm-86.071-74.527 21.722-37.632.206-.364h43.867l21.928 37.986-21.722 37.632-.206.364H450.96l-21.928-37.986Zm86.071 0-21.102-36.55h-42.205l-21.102 36.55 21.102 36.551h42.205l21.102-36.55Z"/>
    <path fill="url(#c)" d="M0 0h1440v1392H0z"/>
    <g filter="url(#d)" opacity=".5">
      <rect width="1078.82" height="565.501" x="-436" y="893.155" fill="url(#e)" rx="282.75" transform="rotate(-37.104 -436 893.155)"/>
    </g>
  </g>
  <defs>
    <linearGradient id="b" x1="960.189" x2="960.189" y1="14.807" y2="873.434" gradientUnits="userSpaceOnUse">
      <stop stop-color="#1BA068"/>
      <stop offset="1" stop-color="#A6D05D"/>
    </linearGradient>
    <linearGradient id="e" x1="103.408" x2="103.408" y1="893.155" y2="1458.66" gradientUnits="userSpaceOnUse">
      <stop stop-color="#1BA068"/>
      <stop offset="1" stop-color="#A6D05D"/>
    </linearGradient>
    <radialGradient id="c" cx="0" cy="0" r="1" gradientTransform="matrix(-362.50008 -93.49919 96.72327 -374.99998 1193 449)" gradientUnits="userSpaceOnUse">
      <stop stop-color="#075F55" stop-opacity="0"/>
      <stop offset="1" stop-color="#075F55"/>
    </radialGradient>
    <clipPath id="a">
      <path fill="#fff" d="M0 0h1440v1546H0z"/>
    </clipPath>
    <filter id="d" width="1374.92" height="1275.2" x="-522.688" y="155.651" color-interpolation-filters="sRGB" filterUnits="userSpaceOnUse">
      <feFlood flood-opacity="0" result="BackgroundImageFix"/>
      <feBlend in="SourceGraphic" in2="BackgroundImageFix" result="shape"/>
      <feGaussianBlur result="effect1_foregroundBlur_3577_4405" stdDeviation="100"/>
    </filter>
  </defs>
</svg>
