<svg xmlns="http://www.w3.org/2000/svg" width="982" height="527" fill="none" viewBox="0 0 982 527">
  <g clip-path="url(#a)">
    <path fill="url(#b)" d="m950.286 665.17 18.995-32.915.181-.318h38.358l19.18 33.224-19 32.915-.18.319h-38.358l-19.176-33.225Zm75.264 0-18.46-31.969h-36.906L951.73 665.17l18.454 31.969h36.906l18.46-31.969Zm-75.264-260.775 18.995-32.915.181-.318h38.358l19.18 33.225-19 32.915-.18.318h-38.358l-19.176-33.225Zm75.264 0-18.46-31.969h-36.906l-18.454 31.969 18.454 31.969h36.906l18.46-31.969Zm-75.264-260.774 18.995-32.915.181-.319h38.358l19.18 33.225-19 32.915-.18.318h-38.358l-19.176-33.224Zm75.264 0-18.46-31.969h-36.906l-18.454 31.969 18.454 31.969h36.906l18.46-31.969ZM893.831 697.775l18.996-32.915.181-.318h38.361l19.177 33.225-18.996 32.915-.181.318h-38.361l-19.177-33.225Zm75.261 0-18.454-31.969H913.73l-18.454 31.969 18.454 31.969h36.908l18.454-31.969Zm-75.261-65.193 18.996-32.915.181-.319h38.361l19.177 33.225-18.996 32.915-.181.318h-38.361l-19.177-33.224Zm75.261 0-18.454-31.969H913.73l-18.454 31.969 18.454 31.969h36.908l18.454-31.969Zm-75.261-130.388 18.996-32.915.181-.318h38.361l19.177 33.225-18.996 32.915-.181.318h-38.361l-19.177-33.225Zm75.261 0-18.454-31.969H913.73l-18.454 31.969 18.454 31.969h36.908l18.454-31.969Zm-75.261-130.387 18.996-32.915.181-.318h38.361l19.177 33.224-18.996 32.915-.181.319h-38.361l-19.177-33.225Zm75.261 0-18.454-31.969H913.73l-18.454 31.969 18.454 31.969h36.908l18.454-31.969ZM893.831 241.42l18.996-32.915.181-.319h38.361l19.177 33.225-18.996 32.915-.181.318h-38.361l-19.177-33.224Zm75.261 0-18.454-31.969H913.73l-18.454 31.969 18.454 31.969h36.908l18.454-31.969Zm-75.261-130.388 18.996-32.915.181-.318h38.361l19.177 33.225-18.996 32.915-.181.318h-38.361l-19.177-33.225Zm75.261 0-18.454-31.969H913.73l-18.454 31.969 18.454 31.969h36.908l18.454-31.969ZM836.594 599.976l18.996-32.915.181-.318h38.361l19.177 33.225-18.996 32.915-.181.318h-38.361l-19.177-33.225Zm75.27 0-18.454-31.969h-36.908l-18.454 31.969 18.454 31.969h36.908l18.454-31.969Zm-75.27-130.387 18.996-32.915.181-.318h38.361l19.177 33.224-18.996 32.915-.181.319h-38.361l-19.177-33.225Zm75.27 0L893.41 437.62h-36.908l-18.454 31.969 18.454 31.969h36.908l18.454-31.969Zm-75.27-65.194 18.996-32.915.181-.318h38.361l19.177 33.225-18.996 32.915-.181.318h-38.361l-19.177-33.225Zm75.27 0-18.454-31.969h-36.908l-18.454 31.969 18.454 31.969h36.908l18.454-31.969Zm-75.27-65.193 18.996-32.915.181-.319h38.361l19.177 33.225-18.996 32.915-.181.318h-38.361l-19.177-33.224Zm75.27 0-18.454-31.969h-36.908l-18.454 31.969 18.454 31.969h36.908l18.454-31.969Zm-75.27-130.388 18.996-32.915.181-.318h38.361l19.177 33.225-18.996 32.915-.181.318h-38.361l-19.177-33.225Zm75.27 0-18.454-31.969h-36.908l-18.454 31.969 18.454 31.969h36.908l18.454-31.969Zm-75.27-130.387 18.996-32.915.181-.318h38.361l19.177 33.224-18.996 32.915-.181.319h-38.361l-19.177-33.225Zm75.27 0L893.41 46.458h-36.908l-18.454 31.969 18.454 31.969h36.908l18.454-31.969ZM780.14 632.582l18.996-32.915.18-.319h38.362l19.176 33.225-18.996 32.915-.18.318h-38.362l-19.176-33.224Zm75.27 0-18.455-31.969h-36.908l-18.454 31.969 18.454 31.969h36.908l18.455-31.969Zm-75.27-130.388 18.996-32.915.18-.318h38.362l19.176 33.225-18.996 32.915-.18.318h-38.362l-19.176-33.225Zm75.27 0-18.455-31.969h-36.908l-18.454 31.969 18.454 31.969h36.908l18.455-31.969Zm-75.27-130.387 18.996-32.915.18-.318h38.362l19.176 33.224-18.996 32.915-.18.319h-38.362l-19.176-33.225Zm75.27 0-18.455-31.969h-36.908l-18.454 31.969 18.454 31.969h36.908l18.455-31.969Zm-75.27-195.581 18.996-32.915.18-.318h38.362l19.176 33.224-18.996 32.915-.18.319h-38.362l-19.176-33.225Zm75.27 0-18.455-31.969h-36.908l-18.454 31.969 18.454 31.969h36.908l18.455-31.969Zm-75.27-65.194 18.996-32.915.18-.318h38.362l19.176 33.225-18.996 32.915-.18.318h-38.362l-19.176-33.225Zm75.27 0-18.455-31.969h-36.908l-18.454 31.969 18.454 31.969h36.908l18.455-31.969Zm-75.27-65.185 18.996-32.915.18-.318h38.362l19.176 33.225-18.996 32.915-.18.318h-38.362L780.14 45.847Zm75.27 0-18.455-31.969h-36.908l-18.454 31.97 18.454 31.968h36.908l18.455-31.969ZM722.903 665.17l18.996-32.915.18-.318h38.362l19.176 33.224-18.996 32.915-.18.319h-38.362l-19.176-33.225Zm75.27 0-18.455-31.969H742.81l-18.454 31.969 18.454 31.969h36.908l18.455-31.969Zm-75.27-195.581 18.996-32.915.18-.318h38.362l19.176 33.224-18.996 32.915-.18.319h-38.362l-19.176-33.225Zm75.27 0-18.455-31.969H742.81l-18.454 31.969 18.454 31.969h36.908l18.455-31.969Zm-75.27-65.194 18.996-32.915.18-.318h38.362l19.176 33.225-18.996 32.915-.18.318h-38.362l-19.176-33.225Zm75.27 0-18.455-31.969H742.81l-18.454 31.969 18.454 31.969h36.908l18.455-31.969Zm-75.27-65.193 18.996-32.915.18-.319h38.362l19.176 33.225-18.996 32.915-.18.318h-38.362l-19.176-33.224Zm75.27 0-18.455-31.969H742.81l-18.454 31.969 18.454 31.969h36.908l18.455-31.969Zm-75.27-130.388 18.996-32.915.18-.318h38.362l19.176 33.225-18.996 32.915-.18.318h-38.362l-19.176-33.225Zm75.27 0-18.455-31.969H742.81l-18.454 31.969 18.454 31.969h36.908l18.455-31.969Zm-75.27-65.193 18.996-32.915.18-.319h38.362l19.176 33.225-18.996 32.915-.18.318h-38.362l-19.176-33.224Zm75.27 0-18.455-31.969H742.81l-18.454 31.969 18.454 31.969h36.908l18.455-31.969Zm-75.27-65.194 18.996-32.915.18-.318h38.362l19.176 33.224-18.996 32.915-.18.319h-38.362l-19.176-33.225Zm75.27 0-18.455-31.969H742.81l-18.454 31.969 18.454 31.969h36.908l18.455-31.969ZM666.448 567.388l18.996-32.915.181-.318h38.361l19.177 33.224-18.996 32.915-.181.319h-38.361l-19.177-33.225Zm75.27 0-18.454-31.969h-36.908l-18.454 31.969 18.454 31.969h36.908l18.454-31.969Zm-75.27-65.194 18.996-32.915.181-.318h38.361l19.177 33.225-18.996 32.915-.181.318h-38.361l-19.177-33.225Zm75.27 0-18.454-31.969h-36.908l-18.454 31.969 18.454 31.969h36.908l18.454-31.969Zm-75.27-65.193 18.996-32.915.181-.319h38.361l19.177 33.225-18.996 32.915-.181.318h-38.361l-19.177-33.224Zm75.27 0-18.454-31.969h-36.908l-18.454 31.969 18.454 31.969h36.908l18.454-31.969Zm-75.27-65.194 18.996-32.915.181-.318h38.361l19.177 33.224-18.996 32.915-.181.319h-38.361l-19.177-33.225Zm75.27 0-18.454-31.969h-36.908l-18.454 31.969 18.454 31.969h36.908l18.454-31.969Zm-75.27-130.387 18.996-32.915.181-.319h38.361l19.177 33.225-18.996 32.915-.181.318h-38.361l-19.177-33.224Zm75.27 0-18.454-31.969h-36.908l-18.454 31.969 18.454 31.969h36.908l18.454-31.969Zm-75.27-65.194 18.996-32.915.181-.318h38.361l19.177 33.224-18.996 32.915-.181.319h-38.361l-19.177-33.225Zm75.27 0-18.454-31.969h-36.908l-18.454 31.969 18.454 31.969h36.908l18.454-31.969ZM609.211 665.17l18.996-32.915.181-.318h38.361l19.177 33.224-18.996 32.915-.181.319h-38.361l-19.177-33.225Zm75.27 0-18.454-31.969h-36.908l-18.454 31.969 18.454 31.969h36.908l18.454-31.969Zm-75.27-65.194 18.996-32.915.181-.318h38.361l19.177 33.225-18.996 32.915-.181.318h-38.361l-19.177-33.225Zm75.27 0-18.454-31.969h-36.908l-18.454 31.969 18.454 31.969h36.908l18.454-31.969Zm-75.27-65.193 18.996-32.915.181-.319h38.361l19.177 33.225-18.996 32.915-.181.318h-38.361l-19.177-33.224Zm75.27 0-18.454-31.969h-36.908l-18.454 31.969 18.454 31.969h36.908l18.454-31.969Zm-75.27-65.194 18.996-32.915.181-.318h38.361l19.177 33.224-18.996 32.915-.181.319h-38.361l-19.177-33.225Zm75.27 0-18.454-31.969h-36.908l-18.454 31.969 18.454 31.969h36.908l18.454-31.969Zm-75.27-195.581 18.996-32.915.181-.318h38.361l19.177 33.224-18.996 32.915-.181.319h-38.361l-19.177-33.225Zm75.27 0-18.454-31.969h-36.908l-18.454 31.969 18.454 31.969h36.908l18.454-31.969Zm-75.27-65.194 18.996-32.915.181-.318h38.361l19.177 33.225-18.996 32.915-.181.318h-38.361l-19.177-33.225Zm75.27 0-18.454-31.969h-36.908l-18.454 31.969 18.454 31.969h36.908l18.454-31.969Zm-75.27-65.193 18.996-32.915.181-.319h38.361l19.177 33.225-18.996 32.915-.181.318h-38.361l-19.177-33.224Zm75.27 0-18.454-31.969h-36.908l-18.454 31.969 18.454 31.969h36.908l18.454-31.969Zm-75.27-65.194 18.996-32.915.181-.318h38.361l19.177 33.224-18.996 32.915-.181.319h-38.361l-19.177-33.225Zm75.27 0-18.454-31.969h-36.908l-18.454 31.969 18.454 31.969h36.908l18.454-31.969Zm-75.27-65.194 18.996-32.915.181-.318h38.361l19.177 33.225L666.93 46.14l-.181.318h-38.361l-19.177-33.225Zm75.27 0-18.454-31.969h-36.908l-18.454 31.97 18.454 31.968h36.908l18.454-31.969ZM552.757 697.775l18.996-32.915.18-.318h38.362l19.176 33.225-18.995 32.915-.181.318h-38.362l-19.176-33.225Zm75.27 0-18.454-31.969h-36.909l-18.454 31.969 18.454 31.969h36.909l18.454-31.969Zm-75.27-65.193 18.996-32.915.18-.319h38.362l19.176 33.225-18.995 32.915-.181.318h-38.362l-19.176-33.224Zm75.27 0-18.454-31.969h-36.909l-18.454 31.969 18.454 31.969h36.909l18.454-31.969Zm-75.27-130.388 18.996-32.915.18-.318h38.362l19.176 33.225-18.995 32.915-.181.318h-38.362l-19.176-33.225Zm75.27 0-18.454-31.969h-36.909l-18.454 31.969 18.454 31.969h36.909l18.454-31.969Zm-75.27-130.387 18.996-32.915.18-.318h38.362l19.176 33.224-18.995 32.915-.181.319h-38.362l-19.176-33.225Zm75.27 0-18.454-31.969h-36.909l-18.454 31.969 18.454 31.969h36.909l18.454-31.969Zm-75.27-65.194 18.996-32.915.18-.318h38.362l19.176 33.225-18.995 32.915-.181.318h-38.362l-19.176-33.225Zm75.27 0-18.454-31.969h-36.909l-18.454 31.969 18.454 31.969h36.909l18.454-31.969Zm-75.27-65.193 18.996-32.915.18-.319h38.362l19.176 33.225-18.995 32.915-.181.318h-38.362l-19.176-33.224Zm75.27 0-18.454-31.969h-36.909L554.21 241.42l18.454 31.969h36.909l18.454-31.969Zm-75.27-130.388 18.996-32.915.18-.318h38.362l19.176 33.225-18.995 32.915-.181.318h-38.362l-19.176-33.225Zm75.27 0-18.454-31.969h-36.909l-18.454 31.969 18.454 31.969h36.909l18.454-31.969ZM495.529 599.976l18.996-32.915.18-.318h38.362l19.176 33.225-18.996 32.915-.18.318h-38.362l-19.176-33.225Zm75.261 0-18.454-31.969h-36.909l-18.454 31.969 18.454 31.969h36.909l18.454-31.969Zm-75.261-130.387 18.996-32.915.18-.318h38.362l19.176 33.224-18.996 32.915-.18.319h-38.362l-19.176-33.225Zm75.261 0-18.454-31.969h-36.909l-18.454 31.969 18.454 31.969h36.909l18.454-31.969Zm-75.261-130.387 18.996-32.915.18-.319h38.362l19.176 33.225-18.996 32.915-.18.318h-38.362l-19.176-33.224Zm75.261 0-18.454-31.969h-36.909l-18.454 31.969 18.454 31.969h36.909l18.454-31.969Zm-75.261-65.194 18.996-32.915.18-.318h38.362l19.176 33.224-18.996 32.915-.18.319h-38.362l-19.176-33.225Zm75.261 0-18.454-31.969h-36.909l-18.454 31.969 18.454 31.969h36.909l18.454-31.969Zm-75.261-130.387 18.996-32.915.18-.319h38.362l19.176 33.225-18.996 32.915-.18.318h-38.362l-19.176-33.224Zm75.261 0-18.454-31.969h-36.909l-18.454 31.969 18.454 31.969h36.909l18.454-31.969Zm-75.261-65.194 18.996-32.915.18-.318h38.362l19.176 33.224-18.996 32.915-.18.319h-38.362l-19.176-33.225Zm75.261 0-18.454-31.969h-36.909l-18.454 31.969 18.454 31.969h36.909l18.454-31.969Zm-75.261-65.194 18.996-32.915.18-.318h38.362l19.176 33.225-18.996 32.915-.18.318h-38.362l-19.176-33.225Zm75.261 0-18.454-31.969h-36.909l-18.454 31.97 18.454 31.968h36.909l18.454-31.969ZM439.066 567.388l18.995-32.915.181-.318h38.362l19.176 33.224-18.996 32.915-.18.319h-38.362l-19.176-33.225Zm75.269 0-18.454-31.969h-36.908l-18.454 31.969 18.454 31.969h36.908l18.454-31.969Zm-75.269-65.194 18.995-32.915.181-.318h38.362l19.176 33.225-18.996 32.915-.18.318h-38.362l-19.176-33.225Zm75.269 0-18.454-31.969h-36.908l-18.454 31.969 18.454 31.969h36.908l18.454-31.969Zm-75.269-65.193 18.995-32.915.181-.319h38.362l19.176 33.225-18.996 32.915-.18.318h-38.362l-19.176-33.224Zm75.269 0-18.454-31.969h-36.908l-18.454 31.969 18.454 31.969h36.908l18.454-31.969Zm-75.269-65.194 18.995-32.915.181-.318h38.362l19.176 33.224-18.996 32.915-.18.319h-38.362l-19.176-33.225Zm75.269 0-18.454-31.969h-36.908l-18.454 31.969 18.454 31.969h36.908l18.454-31.969Zm-75.269-65.194 18.995-32.915.181-.318h38.362l19.176 33.225-18.996 32.915-.18.318h-38.362l-19.176-33.225Zm75.269 0-18.454-31.969h-36.908l-18.454 31.969 18.454 31.969h36.908l18.454-31.969Zm-75.269-65.193 18.995-32.915.181-.319h38.362l19.176 33.225-18.996 32.915-.18.318h-38.362l-19.176-33.224Zm75.269 0-18.454-31.969h-36.908l-18.454 31.969 18.454 31.969h36.908l18.454-31.969ZM381.837 665.17l18.996-32.915.181-.318h38.361l19.177 33.224-18.996 32.915-.181.319h-38.361l-19.177-33.225Zm75.261 0-18.454-31.969h-36.908l-18.454 31.969 18.454 31.969h36.908l18.454-31.969Zm-75.261-65.194 18.996-32.915.181-.318h38.361l19.177 33.225-18.996 32.915-.181.318h-38.361l-19.177-33.225Zm75.261 0-18.454-31.969h-36.908l-18.454 31.969 18.454 31.969h36.908l18.454-31.969Zm-75.261-65.193 18.996-32.915.181-.319h38.361l19.177 33.225-18.996 32.915-.181.318h-38.361l-19.177-33.224Zm75.261 0-18.454-31.969h-36.908l-18.454 31.969 18.454 31.969h36.908l18.454-31.969Zm-75.261-130.388 18.996-32.915.181-.318h38.361l19.177 33.225-18.996 32.915-.181.318h-38.361l-19.177-33.225Zm75.261 0-18.454-31.969h-36.908l-18.454 31.969 18.454 31.969h36.908l18.454-31.969Zm-75.261-130.387 18.996-32.915.181-.318h38.361l19.177 33.224-18.996 32.915-.181.319h-38.361l-19.177-33.225Zm75.261 0-18.454-31.969h-36.908l-18.454 31.969 18.454 31.969h36.908l18.454-31.969Zm-75.261-65.194 18.996-32.915.181-.318h38.361l19.177 33.225-18.996 32.915-.181.318h-38.361l-19.177-33.225Zm75.261 0-18.454-31.969h-36.908l-18.454 31.969 18.454 31.969h36.908l18.454-31.969Zm-75.261-65.193 18.996-32.915.181-.319h38.361l19.177 33.225-18.996 32.915-.181.318h-38.361l-19.177-33.224Zm75.261 0-18.454-31.969h-36.908l-18.454 31.969 18.454 31.969h36.908l18.454-31.969ZM325.383 697.775l18.996-32.915.18-.318h38.362l19.176 33.225-18.996 32.915-.18.318h-38.362l-19.176-33.225Zm75.261 0-18.454-31.969h-36.908l-18.455 31.969 18.455 31.969h36.908l18.454-31.969Zm-75.261-65.193 18.996-32.915.18-.319h38.362l19.176 33.225-18.996 32.915-.18.318h-38.362l-19.176-33.224Zm75.261 0-18.454-31.969h-36.908l-18.455 31.969 18.455 31.969h36.908l18.454-31.969Zm-75.261-65.194 18.996-32.915.18-.318h38.362l19.176 33.224-18.996 32.915-.18.319h-38.362l-19.176-33.225Zm75.261 0-18.454-31.969h-36.908l-18.455 31.969 18.455 31.969h36.908l18.454-31.969Zm-75.261-65.194 18.996-32.915.18-.318h38.362l19.176 33.225-18.996 32.915-.18.318h-38.362l-19.176-33.225Zm75.261 0-18.454-31.969h-36.908l-18.455 31.969 18.455 31.969h36.908l18.454-31.969Zm-75.261-65.193 18.996-32.915.18-.319h38.362l19.176 33.225-18.996 32.915-.18.318h-38.362l-19.176-33.224Zm75.261 0-18.454-31.969h-36.908l-18.455 31.969 18.455 31.969h36.908l18.454-31.969Zm-75.261-130.388 18.996-32.915.18-.318h38.362l19.176 33.225-18.996 32.915-.18.318h-38.362l-19.176-33.225Zm75.261 0-18.454-31.969h-36.908l-18.455 31.969 18.455 31.969h36.908l18.454-31.969Zm-75.261-65.193 18.996-32.915.18-.319h38.362l19.176 33.225-18.996 32.915-.18.318h-38.362l-19.176-33.224Zm75.261 0-18.454-31.969h-36.908l-18.455 31.969 18.455 31.969h36.908l18.454-31.969Zm-75.261-65.194 18.996-32.915.18-.318h38.362l19.176 33.224-18.996 32.915-.18.319h-38.362l-19.176-33.225Zm75.261 0-18.454-31.969h-36.908l-18.455 31.969 18.455 31.969h36.908l18.454-31.969Zm-75.261-65.194 18.996-32.915.18-.318h38.362l19.176 33.225-18.996 32.915-.18.318h-38.362l-19.176-33.225Zm75.261 0L382.19 79.063h-36.908l-18.455 31.969 18.455 31.969h36.908l18.454-31.969Zm-75.261-65.185 18.996-32.915.18-.318h38.362l19.176 33.225-18.996 32.915-.18.318h-38.362l-19.176-33.225Zm75.261 0L382.19 13.878h-36.908l-18.455 31.97 18.455 31.968h36.908l18.454-31.969ZM268.146 665.17l18.996-32.915.18-.318h38.362l19.176 33.224-18.996 32.915-.18.319h-38.362l-19.176-33.225Zm75.261 0-18.454-31.969h-36.908l-18.454 31.969 18.454 31.969h36.908l18.454-31.969Zm-75.261-65.194 18.996-32.915.18-.318h38.362l19.176 33.225-18.996 32.915-.18.318h-38.362l-19.176-33.225Zm75.261 0-18.454-31.969h-36.908l-18.454 31.969 18.454 31.969h36.908l18.454-31.969Zm-75.261-130.387 18.996-32.915.18-.318h38.362l19.176 33.224-18.996 32.915-.18.319h-38.362l-19.176-33.225Zm75.261 0-18.454-31.969h-36.908l-18.454 31.969 18.454 31.969h36.908l18.454-31.969Zm-75.261-65.194 18.996-32.915.18-.318h38.362l19.176 33.225-18.996 32.915-.18.318h-38.362l-19.176-33.225Zm75.261 0-18.454-31.969h-36.908l-18.454 31.969 18.454 31.969h36.908l18.454-31.969Zm-75.261-65.193 18.996-32.915.18-.319h38.362l19.176 33.225-18.996 32.915-.18.318h-38.362l-19.176-33.224Zm75.261 0-18.454-31.969h-36.908l-18.454 31.969 18.454 31.969h36.908l18.454-31.969Zm-75.261-130.388 18.996-32.915.18-.318h38.362l19.176 33.225-18.996 32.915-.18.318h-38.362l-19.176-33.225Zm75.261 0-18.454-31.969h-36.908l-18.454 31.969 18.454 31.969h36.908l18.454-31.969Zm-75.261-65.193 18.996-32.915.18-.319h38.362l19.176 33.225-18.996 32.915-.18.318h-38.362l-19.176-33.224Zm75.261 0-18.454-31.969h-36.908l-18.454 31.969 18.454 31.969h36.908l18.454-31.969Zm-75.261-65.194 18.996-32.915.18-.318h38.362l19.176 33.224-18.996 32.915-.18.319h-38.362l-19.176-33.225Zm75.261 0-18.454-31.969h-36.908l-18.454 31.969 18.454 31.969h36.908l18.454-31.969Zm-75.261-65.194 18.996-32.915.18-.318h38.362l19.176 33.225-18.996 32.915-.18.318h-38.362l-19.176-33.225Zm75.261 0-18.454-31.969h-36.908l-18.454 31.97 18.454 31.968h36.908l18.454-31.969ZM211.691 697.775l18.996-32.915.181-.318h38.361l19.177 33.225-18.996 32.915-.181.318h-38.361l-19.177-33.225Zm75.262 0-18.455-31.969H231.59l-18.454 31.969 18.454 31.969h36.908l18.455-31.969Zm-75.262-65.193 18.996-32.915.181-.319h38.361l19.177 33.225-18.996 32.915-.181.318h-38.361l-19.177-33.224Zm75.262 0-18.455-31.969H231.59l-18.454 31.969 18.454 31.969h36.908l18.455-31.969Zm-75.262-65.194 18.996-32.915.181-.318h38.361l19.177 33.224-18.996 32.915-.181.319h-38.361l-19.177-33.225Zm75.262 0-18.455-31.969H231.59l-18.454 31.969 18.454 31.969h36.908l18.455-31.969Zm-75.262-130.387 18.996-32.915.181-.319h38.361l19.177 33.225-18.996 32.915-.181.318h-38.361l-19.177-33.224Zm75.262 0-18.455-31.969H231.59l-18.454 31.969 18.454 31.969h36.908l18.455-31.969Zm-75.262-65.194 18.996-32.915.181-.318h38.361l19.177 33.224-18.996 32.915-.181.319h-38.361l-19.177-33.225Zm75.262 0-18.455-31.969H231.59l-18.454 31.969 18.454 31.969h36.908l18.455-31.969Zm-75.262-65.194 18.996-32.915.181-.318h38.361l19.177 33.225-18.996 32.915-.181.318h-38.361l-19.177-33.225Zm75.262 0-18.455-31.969H231.59l-18.454 31.969 18.454 31.969h36.908l18.455-31.969Zm-75.262-65.193 18.996-32.915.181-.319h38.361l19.177 33.225-18.996 32.915-.181.318h-38.361l-19.177-33.224Zm75.262 0-18.455-31.969H231.59l-18.454 31.969 18.454 31.969h36.908l18.455-31.969Zm-75.262-130.388 18.996-32.915.181-.318h38.361l19.177 33.225-18.996 32.915-.181.318h-38.361l-19.177-33.225Zm75.262 0-18.455-31.969H231.59l-18.454 31.969 18.454 31.969h36.908l18.455-31.969Zm-75.262-65.185 18.996-32.915.181-.318h38.361l19.177 33.225-18.996 32.915-.181.318h-38.361l-19.177-33.225Zm75.262 0-18.455-31.969H231.59l-18.454 31.97 18.454 31.968h36.908l18.455-31.969ZM154.454 665.17l18.996-32.915.181-.318h38.361l19.177 33.224-18.996 32.915-.181.319h-38.361l-19.177-33.225Zm75.27 0-18.454-31.969h-36.908l-18.454 31.969 18.454 31.969h36.908l18.454-31.969Zm-75.27-65.194 18.996-32.915.181-.318h38.361l19.177 33.225-18.996 32.915-.181.318h-38.361l-19.177-33.225Zm75.27 0-18.454-31.969h-36.908l-18.454 31.969 18.454 31.969h36.908l18.454-31.969Zm-75.27-65.193 18.996-32.915.181-.319h38.361l19.177 33.225-18.996 32.915-.181.318h-38.361l-19.177-33.224Zm75.27 0-18.454-31.969h-36.908l-18.454 31.969 18.454 31.969h36.908l18.454-31.969Zm-75.27-130.388 18.996-32.915.181-.318h38.361l19.177 33.225-18.996 32.915-.181.318h-38.361l-19.177-33.225Zm75.27 0-18.454-31.969h-36.908l-18.454 31.969 18.454 31.969h36.908l18.454-31.969Zm-75.27-65.193 18.996-32.915.181-.319h38.361l19.177 33.225-18.996 32.915-.181.318h-38.361l-19.177-33.224Zm75.27 0-18.454-31.969h-36.908l-18.454 31.969 18.454 31.969h36.908l18.454-31.969Zm-75.27-65.194 18.996-32.915.181-.318h38.361l19.177 33.224-18.996 32.915-.181.319h-38.361l-19.177-33.225Zm75.27 0-18.454-31.969h-36.908l-18.454 31.969 18.454 31.969h36.908l18.454-31.969Zm-75.27-130.387 18.996-32.915.181-.319h38.361l19.177 33.225-18.996 32.915-.181.318h-38.361l-19.177-33.224Zm75.27 0-18.454-31.969h-36.908l-18.454 31.969 18.454 31.969h36.908l18.454-31.969Zm-75.27-65.194 18.996-32.915.181-.318h38.361l19.177 33.224-18.996 32.915-.181.319h-38.361l-19.177-33.225Zm75.27 0L211.27 46.458h-36.908l-18.454 31.969 18.454 31.969h36.908l18.454-31.969Zm-75.27-65.194 18.996-32.915.181-.318h38.361l19.177 33.225-18.996 32.915-.181.318h-38.361l-19.177-33.225Zm75.27 0L211.27-18.736h-36.908l-18.454 31.97 18.454 31.968h36.908l18.454-31.969ZM98 697.775l18.996-32.915.18-.318h38.362l19.176 33.225-18.995 32.915-.181.318h-38.362L98 697.775Zm75.27 0-18.454-31.969h-36.909l-18.454 31.969 18.454 31.969h36.909l18.454-31.969ZM98 567.388l18.996-32.915.18-.318h38.362l19.176 33.224-18.995 32.915-.181.319h-38.362L98 567.388Zm75.27 0-18.454-31.969h-36.909l-18.454 31.969 18.454 31.969h36.909l18.454-31.969ZM98 502.194l18.996-32.915.18-.318h38.362l19.176 33.225-18.995 32.915-.181.318h-38.362L98 502.194Zm75.27 0-18.454-31.969h-36.909l-18.454 31.969 18.454 31.969h36.909l18.454-31.969ZM98 371.807l18.996-32.915.18-.318h38.362l19.176 33.224-18.995 32.915-.181.319h-38.362L98 371.807Zm75.27 0-18.454-31.969h-36.909l-18.454 31.969 18.454 31.969h36.909l18.454-31.969ZM98 241.42l18.996-32.915.18-.319h38.362l19.176 33.225-18.995 32.915-.181.318h-38.362L98 241.42Zm75.27 0-18.454-31.969h-36.909L99.453 241.42l18.454 31.969h36.909l18.454-31.969ZM98 176.226l18.996-32.915.18-.318h38.362l19.176 33.224-18.995 32.915-.181.319h-38.362L98 176.226Zm75.27 0-18.454-31.969h-36.909l-18.454 31.969 18.454 31.969h36.909l18.454-31.969ZM98 111.032l18.996-32.915.18-.318h38.362l19.176 33.225-18.995 32.915-.181.318h-38.362L98 111.032Zm75.27 0-18.454-31.969h-36.909l-18.454 31.969 18.454 31.969h36.909l18.454-31.969ZM98 45.847l18.996-32.915.18-.318h38.362l19.176 33.225-18.995 32.915-.181.318h-38.362L98 45.847Zm75.27 0-18.454-31.969h-36.909l-18.454 31.97 18.454 31.968h36.909l18.454-31.969ZM950.286 665.17l18.995-32.915.181-.318h38.358l19.18 33.224-19 32.915-.18.319h-38.358l-19.176-33.225Zm75.264 0-18.46-31.969h-36.906L951.73 665.17l18.454 31.969h36.906l18.46-31.969Zm-75.264-260.775 18.995-32.915.181-.318h38.358l19.18 33.225-19 32.915-.18.318h-38.358l-19.176-33.225Zm75.264 0-18.46-31.969h-36.906l-18.454 31.969 18.454 31.969h36.906l18.46-31.969Zm-75.264-260.774 18.995-32.915.181-.319h38.358l19.18 33.225-19 32.915-.18.318h-38.358l-19.176-33.224Zm75.264 0-18.46-31.969h-36.906l-18.454 31.969 18.454 31.969h36.906l18.46-31.969ZM893.831 697.775l18.996-32.915.181-.318h38.361l19.177 33.225-18.996 32.915-.181.318h-38.361l-19.177-33.225Zm75.261 0-18.454-31.969H913.73l-18.454 31.969 18.454 31.969h36.908l18.454-31.969Zm-75.261-65.193 18.996-32.915.181-.319h38.361l19.177 33.225-18.996 32.915-.181.318h-38.361l-19.177-33.224Zm75.261 0-18.454-31.969H913.73l-18.454 31.969 18.454 31.969h36.908l18.454-31.969Zm-75.261-130.388 18.996-32.915.181-.318h38.361l19.177 33.225-18.996 32.915-.181.318h-38.361l-19.177-33.225Zm75.261 0-18.454-31.969H913.73l-18.454 31.969 18.454 31.969h36.908l18.454-31.969Zm-75.261-130.387 18.996-32.915.181-.318h38.361l19.177 33.224-18.996 32.915-.181.319h-38.361l-19.177-33.225Zm75.261 0-18.454-31.969H913.73l-18.454 31.969 18.454 31.969h36.908l18.454-31.969ZM893.831 241.42l18.996-32.915.181-.319h38.361l19.177 33.225-18.996 32.915-.181.318h-38.361l-19.177-33.224Zm75.261 0-18.454-31.969H913.73l-18.454 31.969 18.454 31.969h36.908l18.454-31.969Zm-75.261-130.388 18.996-32.915.181-.318h38.361l19.177 33.225-18.996 32.915-.181.318h-38.361l-19.177-33.225Zm75.261 0-18.454-31.969H913.73l-18.454 31.969 18.454 31.969h36.908l18.454-31.969ZM836.594 599.976l18.996-32.915.181-.318h38.361l19.177 33.225-18.996 32.915-.181.318h-38.361l-19.177-33.225Zm75.27 0-18.454-31.969h-36.908l-18.454 31.969 18.454 31.969h36.908l18.454-31.969Zm-75.27-130.387 18.996-32.915.181-.318h38.361l19.177 33.224-18.996 32.915-.181.319h-38.361l-19.177-33.225Zm75.27 0L893.41 437.62h-36.908l-18.454 31.969 18.454 31.969h36.908l18.454-31.969Zm-75.27-65.194 18.996-32.915.181-.318h38.361l19.177 33.225-18.996 32.915-.181.318h-38.361l-19.177-33.225Zm75.27 0-18.454-31.969h-36.908l-18.454 31.969 18.454 31.969h36.908l18.454-31.969Zm-75.27-65.193 18.996-32.915.181-.319h38.361l19.177 33.225-18.996 32.915-.181.318h-38.361l-19.177-33.224Zm75.27 0-18.454-31.969h-36.908l-18.454 31.969 18.454 31.969h36.908l18.454-31.969Zm-75.27-130.388 18.996-32.915.181-.318h38.361l19.177 33.225-18.996 32.915-.181.318h-38.361l-19.177-33.225Zm75.27 0-18.454-31.969h-36.908l-18.454 31.969 18.454 31.969h36.908l18.454-31.969Zm-75.27-130.387 18.996-32.915.181-.318h38.361l19.177 33.224-18.996 32.915-.181.319h-38.361l-19.177-33.225Zm75.27 0L893.41 46.458h-36.908l-18.454 31.969 18.454 31.969h36.908l18.454-31.969ZM780.14 632.582l18.996-32.915.18-.319h38.362l19.176 33.225-18.996 32.915-.18.318h-38.362l-19.176-33.224Zm75.27 0-18.455-31.969h-36.908l-18.454 31.969 18.454 31.969h36.908l18.455-31.969Zm-75.27-130.388 18.996-32.915.18-.318h38.362l19.176 33.225-18.996 32.915-.18.318h-38.362l-19.176-33.225Zm75.27 0-18.455-31.969h-36.908l-18.454 31.969 18.454 31.969h36.908l18.455-31.969Zm-75.27-130.387 18.996-32.915.18-.318h38.362l19.176 33.224-18.996 32.915-.18.319h-38.362l-19.176-33.225Zm75.27 0-18.455-31.969h-36.908l-18.454 31.969 18.454 31.969h36.908l18.455-31.969Zm-75.27-195.581 18.996-32.915.18-.318h38.362l19.176 33.224-18.996 32.915-.18.319h-38.362l-19.176-33.225Zm75.27 0-18.455-31.969h-36.908l-18.454 31.969 18.454 31.969h36.908l18.455-31.969Zm-75.27-65.194 18.996-32.915.18-.318h38.362l19.176 33.225-18.996 32.915-.18.318h-38.362l-19.176-33.225Zm75.27 0-18.455-31.969h-36.908l-18.454 31.969 18.454 31.969h36.908l18.455-31.969Zm-75.27-65.185 18.996-32.915.18-.318h38.362l19.176 33.225-18.996 32.915-.18.318h-38.362L780.14 45.847Zm75.27 0-18.455-31.969h-36.908l-18.454 31.97 18.454 31.968h36.908l18.455-31.969ZM722.903 665.17l18.996-32.915.18-.318h38.362l19.176 33.224-18.996 32.915-.18.319h-38.362l-19.176-33.225Zm75.27 0-18.455-31.969H742.81l-18.454 31.969 18.454 31.969h36.908l18.455-31.969Zm-75.27-195.581 18.996-32.915.18-.318h38.362l19.176 33.224-18.996 32.915-.18.319h-38.362l-19.176-33.225Zm75.27 0-18.455-31.969H742.81l-18.454 31.969 18.454 31.969h36.908l18.455-31.969Zm-75.27-65.194 18.996-32.915.18-.318h38.362l19.176 33.225-18.996 32.915-.18.318h-38.362l-19.176-33.225Zm75.27 0-18.455-31.969H742.81l-18.454 31.969 18.454 31.969h36.908l18.455-31.969Zm-75.27-65.193 18.996-32.915.18-.319h38.362l19.176 33.225-18.996 32.915-.18.318h-38.362l-19.176-33.224Zm75.27 0-18.455-31.969H742.81l-18.454 31.969 18.454 31.969h36.908l18.455-31.969Zm-75.27-130.388 18.996-32.915.18-.318h38.362l19.176 33.225-18.996 32.915-.18.318h-38.362l-19.176-33.225Zm75.27 0-18.455-31.969H742.81l-18.454 31.969 18.454 31.969h36.908l18.455-31.969Zm-75.27-65.193 18.996-32.915.18-.319h38.362l19.176 33.225-18.996 32.915-.18.318h-38.362l-19.176-33.224Zm75.27 0-18.455-31.969H742.81l-18.454 31.969 18.454 31.969h36.908l18.455-31.969Zm-75.27-65.194 18.996-32.915.18-.318h38.362l19.176 33.224-18.996 32.915-.18.319h-38.362l-19.176-33.225Zm75.27 0-18.455-31.969H742.81l-18.454 31.969 18.454 31.969h36.908l18.455-31.969ZM666.448 567.388l18.996-32.915.181-.318h38.361l19.177 33.224-18.996 32.915-.181.319h-38.361l-19.177-33.225Zm75.27 0-18.454-31.969h-36.908l-18.454 31.969 18.454 31.969h36.908l18.454-31.969Zm-75.27-65.194 18.996-32.915.181-.318h38.361l19.177 33.225-18.996 32.915-.181.318h-38.361l-19.177-33.225Zm75.27 0-18.454-31.969h-36.908l-18.454 31.969 18.454 31.969h36.908l18.454-31.969Zm-75.27-65.193 18.996-32.915.181-.319h38.361l19.177 33.225-18.996 32.915-.181.318h-38.361l-19.177-33.224Zm75.27 0-18.454-31.969h-36.908l-18.454 31.969 18.454 31.969h36.908l18.454-31.969Zm-75.27-65.194 18.996-32.915.181-.318h38.361l19.177 33.224-18.996 32.915-.181.319h-38.361l-19.177-33.225Zm75.27 0-18.454-31.969h-36.908l-18.454 31.969 18.454 31.969h36.908l18.454-31.969Zm-75.27-130.387 18.996-32.915.181-.319h38.361l19.177 33.225-18.996 32.915-.181.318h-38.361l-19.177-33.224Zm75.27 0-18.454-31.969h-36.908l-18.454 31.969 18.454 31.969h36.908l18.454-31.969Zm-75.27-65.194 18.996-32.915.181-.318h38.361l19.177 33.224-18.996 32.915-.181.319h-38.361l-19.177-33.225Zm75.27 0-18.454-31.969h-36.908l-18.454 31.969 18.454 31.969h36.908l18.454-31.969ZM609.211 665.17l18.996-32.915.181-.318h38.361l19.177 33.224-18.996 32.915-.181.319h-38.361l-19.177-33.225Zm75.27 0-18.454-31.969h-36.908l-18.454 31.969 18.454 31.969h36.908l18.454-31.969Zm-75.27-65.194 18.996-32.915.181-.318h38.361l19.177 33.225-18.996 32.915-.181.318h-38.361l-19.177-33.225Zm75.27 0-18.454-31.969h-36.908l-18.454 31.969 18.454 31.969h36.908l18.454-31.969Zm-75.27-65.193 18.996-32.915.181-.319h38.361l19.177 33.225-18.996 32.915-.181.318h-38.361l-19.177-33.224Zm75.27 0-18.454-31.969h-36.908l-18.454 31.969 18.454 31.969h36.908l18.454-31.969Zm-75.27-65.194 18.996-32.915.181-.318h38.361l19.177 33.224-18.996 32.915-.181.319h-38.361l-19.177-33.225Zm75.27 0-18.454-31.969h-36.908l-18.454 31.969 18.454 31.969h36.908l18.454-31.969Zm-75.27-195.581 18.996-32.915.181-.318h38.361l19.177 33.224-18.996 32.915-.181.319h-38.361l-19.177-33.225Zm75.27 0-18.454-31.969h-36.908l-18.454 31.969 18.454 31.969h36.908l18.454-31.969Zm-75.27-65.194 18.996-32.915.181-.318h38.361l19.177 33.225-18.996 32.915-.181.318h-38.361l-19.177-33.225Zm75.27 0-18.454-31.969h-36.908l-18.454 31.969 18.454 31.969h36.908l18.454-31.969Zm-75.27-65.193 18.996-32.915.181-.319h38.361l19.177 33.225-18.996 32.915-.181.318h-38.361l-19.177-33.224Zm75.27 0-18.454-31.969h-36.908l-18.454 31.969 18.454 31.969h36.908l18.454-31.969Zm-75.27-65.194 18.996-32.915.181-.318h38.361l19.177 33.224-18.996 32.915-.181.319h-38.361l-19.177-33.225Zm75.27 0-18.454-31.969h-36.908l-18.454 31.969 18.454 31.969h36.908l18.454-31.969Zm-75.27-65.194 18.996-32.915.181-.318h38.361l19.177 33.225L666.93 46.14l-.181.318h-38.361l-19.177-33.225Zm75.27 0-18.454-31.969h-36.908l-18.454 31.97 18.454 31.968h36.908l18.454-31.969ZM552.757 697.775l18.996-32.915.18-.318h38.362l19.176 33.225-18.995 32.915-.181.318h-38.362l-19.176-33.225Zm75.27 0-18.454-31.969h-36.909l-18.454 31.969 18.454 31.969h36.909l18.454-31.969Zm-75.27-65.193 18.996-32.915.18-.319h38.362l19.176 33.225-18.995 32.915-.181.318h-38.362l-19.176-33.224Zm75.27 0-18.454-31.969h-36.909l-18.454 31.969 18.454 31.969h36.909l18.454-31.969Zm-75.27-130.388 18.996-32.915.18-.318h38.362l19.176 33.225-18.995 32.915-.181.318h-38.362l-19.176-33.225Zm75.27 0-18.454-31.969h-36.909l-18.454 31.969 18.454 31.969h36.909l18.454-31.969Zm-75.27-130.387 18.996-32.915.18-.318h38.362l19.176 33.224-18.995 32.915-.181.319h-38.362l-19.176-33.225Zm75.27 0-18.454-31.969h-36.909l-18.454 31.969 18.454 31.969h36.909l18.454-31.969Zm-75.27-65.194 18.996-32.915.18-.318h38.362l19.176 33.225-18.995 32.915-.181.318h-38.362l-19.176-33.225Zm75.27 0-18.454-31.969h-36.909l-18.454 31.969 18.454 31.969h36.909l18.454-31.969Zm-75.27-65.193 18.996-32.915.18-.319h38.362l19.176 33.225-18.995 32.915-.181.318h-38.362l-19.176-33.224Zm75.27 0-18.454-31.969h-36.909L554.21 241.42l18.454 31.969h36.909l18.454-31.969Zm-75.27-130.388 18.996-32.915.18-.318h38.362l19.176 33.225-18.995 32.915-.181.318h-38.362l-19.176-33.225Zm75.27 0-18.454-31.969h-36.909l-18.454 31.969 18.454 31.969h36.909l18.454-31.969ZM495.529 599.976l18.996-32.915.18-.318h38.362l19.176 33.225-18.996 32.915-.18.318h-38.362l-19.176-33.225Zm75.261 0-18.454-31.969h-36.909l-18.454 31.969 18.454 31.969h36.909l18.454-31.969Zm-75.261-130.387 18.996-32.915.18-.318h38.362l19.176 33.224-18.996 32.915-.18.319h-38.362l-19.176-33.225Zm75.261 0-18.454-31.969h-36.909l-18.454 31.969 18.454 31.969h36.909l18.454-31.969Zm-75.261-130.387 18.996-32.915.18-.319h38.362l19.176 33.225-18.996 32.915-.18.318h-38.362l-19.176-33.224Zm75.261 0-18.454-31.969h-36.909l-18.454 31.969 18.454 31.969h36.909l18.454-31.969Zm-75.261-65.194 18.996-32.915.18-.318h38.362l19.176 33.224-18.996 32.915-.18.319h-38.362l-19.176-33.225Zm75.261 0-18.454-31.969h-36.909l-18.454 31.969 18.454 31.969h36.909l18.454-31.969Zm-75.261-130.387 18.996-32.915.18-.319h38.362l19.176 33.225-18.996 32.915-.18.318h-38.362l-19.176-33.224Zm75.261 0-18.454-31.969h-36.909l-18.454 31.969 18.454 31.969h36.909l18.454-31.969Zm-75.261-65.194 18.996-32.915.18-.318h38.362l19.176 33.224-18.996 32.915-.18.319h-38.362l-19.176-33.225Zm75.261 0-18.454-31.969h-36.909l-18.454 31.969 18.454 31.969h36.909l18.454-31.969Zm-75.261-65.194 18.996-32.915.18-.318h38.362l19.176 33.225-18.996 32.915-.18.318h-38.362l-19.176-33.225Zm75.261 0-18.454-31.969h-36.909l-18.454 31.97 18.454 31.968h36.909l18.454-31.969ZM439.066 567.388l18.995-32.915.181-.318h38.362l19.176 33.224-18.996 32.915-.18.319h-38.362l-19.176-33.225Zm75.269 0-18.454-31.969h-36.908l-18.454 31.969 18.454 31.969h36.908l18.454-31.969Zm-75.269-65.194 18.995-32.915.181-.318h38.362l19.176 33.225-18.996 32.915-.18.318h-38.362l-19.176-33.225Zm75.269 0-18.454-31.969h-36.908l-18.454 31.969 18.454 31.969h36.908l18.454-31.969Zm-75.269-65.193 18.995-32.915.181-.319h38.362l19.176 33.225-18.996 32.915-.18.318h-38.362l-19.176-33.224Zm75.269 0-18.454-31.969h-36.908l-18.454 31.969 18.454 31.969h36.908l18.454-31.969Zm-75.269-65.194 18.995-32.915.181-.318h38.362l19.176 33.224-18.996 32.915-.18.319h-38.362l-19.176-33.225Zm75.269 0-18.454-31.969h-36.908l-18.454 31.969 18.454 31.969h36.908l18.454-31.969Zm-75.269-65.194 18.995-32.915.181-.318h38.362l19.176 33.225-18.996 32.915-.18.318h-38.362l-19.176-33.225Zm75.269 0-18.454-31.969h-36.908l-18.454 31.969 18.454 31.969h36.908l18.454-31.969Zm-75.269-65.193 18.995-32.915.181-.319h38.362l19.176 33.225-18.996 32.915-.18.318h-38.362l-19.176-33.224Zm75.269 0-18.454-31.969h-36.908l-18.454 31.969 18.454 31.969h36.908l18.454-31.969ZM381.837 665.17l18.996-32.915.181-.318h38.361l19.177 33.224-18.996 32.915-.181.319h-38.361l-19.177-33.225Zm75.261 0-18.454-31.969h-36.908l-18.454 31.969 18.454 31.969h36.908l18.454-31.969Zm-75.261-65.194 18.996-32.915.181-.318h38.361l19.177 33.225-18.996 32.915-.181.318h-38.361l-19.177-33.225Zm75.261 0-18.454-31.969h-36.908l-18.454 31.969 18.454 31.969h36.908l18.454-31.969Zm-75.261-65.193 18.996-32.915.181-.319h38.361l19.177 33.225-18.996 32.915-.181.318h-38.361l-19.177-33.224Zm75.261 0-18.454-31.969h-36.908l-18.454 31.969 18.454 31.969h36.908l18.454-31.969Zm-75.261-130.388 18.996-32.915.181-.318h38.361l19.177 33.225-18.996 32.915-.181.318h-38.361l-19.177-33.225Zm75.261 0-18.454-31.969h-36.908l-18.454 31.969 18.454 31.969h36.908l18.454-31.969Zm-75.261-130.387 18.996-32.915.181-.318h38.361l19.177 33.224-18.996 32.915-.181.319h-38.361l-19.177-33.225Zm75.261 0-18.454-31.969h-36.908l-18.454 31.969 18.454 31.969h36.908l18.454-31.969Zm-75.261-65.194 18.996-32.915.181-.318h38.361l19.177 33.225-18.996 32.915-.181.318h-38.361l-19.177-33.225Zm75.261 0-18.454-31.969h-36.908l-18.454 31.969 18.454 31.969h36.908l18.454-31.969Zm-75.261-65.193 18.996-32.915.181-.319h38.361l19.177 33.225-18.996 32.915-.181.318h-38.361l-19.177-33.224Zm75.261 0-18.454-31.969h-36.908l-18.454 31.969 18.454 31.969h36.908l18.454-31.969ZM325.383 697.775l18.996-32.915.18-.318h38.362l19.176 33.225-18.996 32.915-.18.318h-38.362l-19.176-33.225Zm75.261 0-18.454-31.969h-36.908l-18.455 31.969 18.455 31.969h36.908l18.454-31.969Zm-75.261-65.193 18.996-32.915.18-.319h38.362l19.176 33.225-18.996 32.915-.18.318h-38.362l-19.176-33.224Zm75.261 0-18.454-31.969h-36.908l-18.455 31.969 18.455 31.969h36.908l18.454-31.969Zm-75.261-65.194 18.996-32.915.18-.318h38.362l19.176 33.224-18.996 32.915-.18.319h-38.362l-19.176-33.225Zm75.261 0-18.454-31.969h-36.908l-18.455 31.969 18.455 31.969h36.908l18.454-31.969Zm-75.261-65.194 18.996-32.915.18-.318h38.362l19.176 33.225-18.996 32.915-.18.318h-38.362l-19.176-33.225Zm75.261 0-18.454-31.969h-36.908l-18.455 31.969 18.455 31.969h36.908l18.454-31.969Zm-75.261-65.193 18.996-32.915.18-.319h38.362l19.176 33.225-18.996 32.915-.18.318h-38.362l-19.176-33.224Zm75.261 0-18.454-31.969h-36.908l-18.455 31.969 18.455 31.969h36.908l18.454-31.969Zm-75.261-130.388 18.996-32.915.18-.318h38.362l19.176 33.225-18.996 32.915-.18.318h-38.362l-19.176-33.225Zm75.261 0-18.454-31.969h-36.908l-18.455 31.969 18.455 31.969h36.908l18.454-31.969Zm-75.261-65.193 18.996-32.915.18-.319h38.362l19.176 33.225-18.996 32.915-.18.318h-38.362l-19.176-33.224Zm75.261 0-18.454-31.969h-36.908l-18.455 31.969 18.455 31.969h36.908l18.454-31.969Zm-75.261-65.194 18.996-32.915.18-.318h38.362l19.176 33.224-18.996 32.915-.18.319h-38.362l-19.176-33.225Zm75.261 0-18.454-31.969h-36.908l-18.455 31.969 18.455 31.969h36.908l18.454-31.969Zm-75.261-65.194 18.996-32.915.18-.318h38.362l19.176 33.225-18.996 32.915-.18.318h-38.362l-19.176-33.225Zm75.261 0L382.19 79.063h-36.908l-18.455 31.969 18.455 31.969h36.908l18.454-31.969Zm-75.261-65.185 18.996-32.915.18-.318h38.362l19.176 33.225-18.996 32.915-.18.318h-38.362l-19.176-33.225Zm75.261 0L382.19 13.878h-36.908l-18.455 31.97 18.455 31.968h36.908l18.454-31.969ZM268.146 665.17l18.996-32.915.18-.318h38.362l19.176 33.224-18.996 32.915-.18.319h-38.362l-19.176-33.225Zm75.261 0-18.454-31.969h-36.908l-18.454 31.969 18.454 31.969h36.908l18.454-31.969Zm-75.261-65.194 18.996-32.915.18-.318h38.362l19.176 33.225-18.996 32.915-.18.318h-38.362l-19.176-33.225Zm75.261 0-18.454-31.969h-36.908l-18.454 31.969 18.454 31.969h36.908l18.454-31.969Zm-75.261-130.387 18.996-32.915.18-.318h38.362l19.176 33.224-18.996 32.915-.18.319h-38.362l-19.176-33.225Zm75.261 0-18.454-31.969h-36.908l-18.454 31.969 18.454 31.969h36.908l18.454-31.969Zm-75.261-65.194 18.996-32.915.18-.318h38.362l19.176 33.225-18.996 32.915-.18.318h-38.362l-19.176-33.225Zm75.261 0-18.454-31.969h-36.908l-18.454 31.969 18.454 31.969h36.908l18.454-31.969Zm-75.261-65.193 18.996-32.915.18-.319h38.362l19.176 33.225-18.996 32.915-.18.318h-38.362l-19.176-33.224Zm75.261 0-18.454-31.969h-36.908l-18.454 31.969 18.454 31.969h36.908l18.454-31.969Zm-75.261-130.388 18.996-32.915.18-.318h38.362l19.176 33.225-18.996 32.915-.18.318h-38.362l-19.176-33.225Zm75.261 0-18.454-31.969h-36.908l-18.454 31.969 18.454 31.969h36.908l18.454-31.969Zm-75.261-65.193 18.996-32.915.18-.319h38.362l19.176 33.225-18.996 32.915-.18.318h-38.362l-19.176-33.224Zm75.261 0-18.454-31.969h-36.908l-18.454 31.969 18.454 31.969h36.908l18.454-31.969Zm-75.261-65.194 18.996-32.915.18-.318h38.362l19.176 33.224-18.996 32.915-.18.319h-38.362l-19.176-33.225Zm75.261 0-18.454-31.969h-36.908l-18.454 31.969 18.454 31.969h36.908l18.454-31.969Zm-75.261-65.194 18.996-32.915.18-.318h38.362l19.176 33.225-18.996 32.915-.18.318h-38.362l-19.176-33.225Zm75.261 0-18.454-31.969h-36.908l-18.454 31.97 18.454 31.968h36.908l18.454-31.969ZM211.691 697.775l18.996-32.915.181-.318h38.361l19.177 33.225-18.996 32.915-.181.318h-38.361l-19.177-33.225Zm75.262 0-18.455-31.969H231.59l-18.454 31.969 18.454 31.969h36.908l18.455-31.969Zm-75.262-65.193 18.996-32.915.181-.319h38.361l19.177 33.225-18.996 32.915-.181.318h-38.361l-19.177-33.224Zm75.262 0-18.455-31.969H231.59l-18.454 31.969 18.454 31.969h36.908l18.455-31.969Zm-75.262-65.194 18.996-32.915.181-.318h38.361l19.177 33.224-18.996 32.915-.181.319h-38.361l-19.177-33.225Zm75.262 0-18.455-31.969H231.59l-18.454 31.969 18.454 31.969h36.908l18.455-31.969Zm-75.262-130.387 18.996-32.915.181-.319h38.361l19.177 33.225-18.996 32.915-.181.318h-38.361l-19.177-33.224Zm75.262 0-18.455-31.969H231.59l-18.454 31.969 18.454 31.969h36.908l18.455-31.969Zm-75.262-65.194 18.996-32.915.181-.318h38.361l19.177 33.224-18.996 32.915-.181.319h-38.361l-19.177-33.225Zm75.262 0-18.455-31.969H231.59l-18.454 31.969 18.454 31.969h36.908l18.455-31.969Zm-75.262-65.194 18.996-32.915.181-.318h38.361l19.177 33.225-18.996 32.915-.181.318h-38.361l-19.177-33.225Zm75.262 0-18.455-31.969H231.59l-18.454 31.969 18.454 31.969h36.908l18.455-31.969Zm-75.262-65.193 18.996-32.915.181-.319h38.361l19.177 33.225-18.996 32.915-.181.318h-38.361l-19.177-33.224Zm75.262 0-18.455-31.969H231.59l-18.454 31.969 18.454 31.969h36.908l18.455-31.969Zm-75.262-130.388 18.996-32.915.181-.318h38.361l19.177 33.225-18.996 32.915-.181.318h-38.361l-19.177-33.225Zm75.262 0-18.455-31.969H231.59l-18.454 31.969 18.454 31.969h36.908l18.455-31.969Zm-75.262-65.185 18.996-32.915.181-.318h38.361l19.177 33.225-18.996 32.915-.181.318h-38.361l-19.177-33.225Zm75.262 0-18.455-31.969H231.59l-18.454 31.97 18.454 31.968h36.908l18.455-31.969ZM154.454 665.17l18.996-32.915.181-.318h38.361l19.177 33.224-18.996 32.915-.181.319h-38.361l-19.177-33.225Zm75.27 0-18.454-31.969h-36.908l-18.454 31.969 18.454 31.969h36.908l18.454-31.969Zm-75.27-65.194 18.996-32.915.181-.318h38.361l19.177 33.225-18.996 32.915-.181.318h-38.361l-19.177-33.225Zm75.27 0-18.454-31.969h-36.908l-18.454 31.969 18.454 31.969h36.908l18.454-31.969Zm-75.27-65.193 18.996-32.915.181-.319h38.361l19.177 33.225-18.996 32.915-.181.318h-38.361l-19.177-33.224Zm75.27 0-18.454-31.969h-36.908l-18.454 31.969 18.454 31.969h36.908l18.454-31.969Zm-75.27-130.388 18.996-32.915.181-.318h38.361l19.177 33.225-18.996 32.915-.181.318h-38.361l-19.177-33.225Zm75.27 0-18.454-31.969h-36.908l-18.454 31.969 18.454 31.969h36.908l18.454-31.969Zm-75.27-65.193 18.996-32.915.181-.319h38.361l19.177 33.225-18.996 32.915-.181.318h-38.361l-19.177-33.224Zm75.27 0-18.454-31.969h-36.908l-18.454 31.969 18.454 31.969h36.908l18.454-31.969Zm-75.27-65.194 18.996-32.915.181-.318h38.361l19.177 33.224-18.996 32.915-.181.319h-38.361l-19.177-33.225Zm75.27 0-18.454-31.969h-36.908l-18.454 31.969 18.454 31.969h36.908l18.454-31.969Zm-75.27-130.387 18.996-32.915.181-.319h38.361l19.177 33.225-18.996 32.915-.181.318h-38.361l-19.177-33.224Zm75.27 0-18.454-31.969h-36.908l-18.454 31.969 18.454 31.969h36.908l18.454-31.969Zm-75.27-65.194 18.996-32.915.181-.318h38.361l19.177 33.224-18.996 32.915-.181.319h-38.361l-19.177-33.225Zm75.27 0L211.27 46.458h-36.908l-18.454 31.969 18.454 31.969h36.908l18.454-31.969Zm-75.27-65.194 18.996-32.915.181-.318h38.361l19.177 33.225-18.996 32.915-.181.318h-38.361l-19.177-33.225Zm75.27 0L211.27-18.736h-36.908l-18.454 31.97 18.454 31.968h36.908l18.454-31.969ZM98 697.775l18.996-32.915.18-.318h38.362l19.176 33.225-18.995 32.915-.181.318h-38.362L98 697.775Zm75.27 0-18.454-31.969h-36.909l-18.454 31.969 18.454 31.969h36.909l18.454-31.969ZM98 567.388l18.996-32.915.18-.318h38.362l19.176 33.224-18.995 32.915-.181.319h-38.362L98 567.388Zm75.27 0-18.454-31.969h-36.909l-18.454 31.969 18.454 31.969h36.909l18.454-31.969ZM98 502.194l18.996-32.915.18-.318h38.362l19.176 33.225-18.995 32.915-.181.318h-38.362L98 502.194Zm75.27 0-18.454-31.969h-36.909l-18.454 31.969 18.454 31.969h36.909l18.454-31.969ZM98 371.807l18.996-32.915.18-.318h38.362l19.176 33.224-18.995 32.915-.181.319h-38.362L98 371.807Zm75.27 0-18.454-31.969h-36.909l-18.454 31.969 18.454 31.969h36.909l18.454-31.969ZM98 241.42l18.996-32.915.18-.319h38.362l19.176 33.225-18.995 32.915-.181.318h-38.362L98 241.42Zm75.27 0-18.454-31.969h-36.909L99.453 241.42l18.454 31.969h36.909l18.454-31.969ZM98 176.226l18.996-32.915.18-.318h38.362l19.176 33.224-18.995 32.915-.181.319h-38.362L98 176.226Zm75.27 0-18.454-31.969h-36.909l-18.454 31.969 18.454 31.969h36.909l18.454-31.969ZM98 111.032l18.996-32.915.18-.318h38.362l19.176 33.225-18.995 32.915-.181.318h-38.362L98 111.032Zm75.27 0-18.454-31.969h-36.909l-18.454 31.969 18.454 31.969h36.909l18.454-31.969ZM98 45.847l18.996-32.915.18-.318h38.362l19.176 33.225-18.995 32.915-.181.318h-38.362L98 45.847Zm75.27 0-18.454-31.969h-36.909l-18.454 31.97 18.454 31.968h36.909l18.454-31.969Z"/>
    <path fill="url(#c)" d="M0 0h982v714H0z"/>
  </g>
  <defs>
    <radialGradient id="c" cx="0" cy="0" r="1" gradientTransform="matrix(0 253 -379.102 0 561.5 357)" gradientUnits="userSpaceOnUse">
      <stop stop-color="#fff" stop-opacity="0"/>
      <stop offset="1" stop-color="#fff"/>
    </radialGradient>
    <linearGradient id="b" x1="98" x2="1027.01" y1="355.509" y2="355.509" gradientUnits="userSpaceOnUse">
      <stop stop-color="#6B862B" stop-opacity=".6"/>
      <stop offset=".5" stop-color="#9AC12A" stop-opacity=".4"/>
      <stop offset="1" stop-color="#00A164"/>
    </linearGradient>
    <clipPath id="a">
      <path fill="#fff" d="M0 0h982v527H0z"/>
    </clipPath>
  </defs>
</svg>
