<svg xmlns="http://www.w3.org/2000/svg" width="1440" height="700" fill="none" viewBox="0 0 1440 700">
  <g clip-path="url(#a)">
    <path fill="url(#b)" d="m1043.59 334.363 21.72-37.632.21-.364h43.87l21.92 37.986-21.72 37.632-.2.364h-43.87l-21.93-37.986Zm86.06 0-21.1-36.551h-42.2l-21.11 36.551 21.11 36.55h42.2l21.1-36.55Zm-86.06-298.147 21.72-37.632.21-.364h43.87l21.92 37.986-21.72 37.632-.2.364h-43.87l-21.93-37.986Zm86.06 0-21.1-36.55h-42.2l-21.11 36.55 21.11 36.55h42.2l21.1-36.55Zm-86.06-298.147 21.72-37.632.21-.364h43.87l21.92 37.986-21.72 37.633-.2.364h-43.87l-21.93-37.987Zm86.06 0-21.1-36.55h-42.2l-21.11 36.55 21.11 36.551h42.2l21.1-36.551ZM979.036 371.641l21.724-37.632.2-.364h43.87l21.93 37.986-21.72 37.632-.21.364h-43.87l-21.924-37.986Zm86.064 0-21.11-36.551h-42.2l-21.102 36.551 21.102 36.55h42.2l21.11-36.55Zm-86.064-74.537 21.724-37.632.2-.364h43.87l21.93 37.986-21.72 37.633-.21.363h-43.87l-21.924-37.986Zm86.064 0-21.11-36.55h-42.2l-21.102 36.55 21.102 36.551h42.2l21.11-36.551Zm-86.064-149.073 21.724-37.632.2-.364h43.87l21.93 37.986-21.72 37.632-.21.364h-43.87l-21.924-37.986Zm86.064 0-21.11-36.551h-42.2l-21.102 36.551 21.102 36.55h42.2l21.11-36.55ZM979.036-1.042l21.724-37.633.2-.364h43.87l21.93 37.987-21.72 37.632-.21.364h-43.87L979.036-1.042Zm86.064 0-21.11-36.551h-42.2l-21.102 36.55 21.102 36.551h42.2l21.11-36.55Zm-86.064-149.074 21.724-37.632.2-.364h43.87l21.93 37.986-21.72 37.633-.21.363h-43.87l-21.924-37.986Zm86.064 0-21.11-36.55h-42.2l-21.102 36.55 21.102 36.551h42.2l21.11-36.551Zm-86.064-149.073 21.724-37.632.2-.364h43.87l21.93 37.986-21.72 37.632-.21.364h-43.87l-21.924-37.986Zm86.064 0-21.11-36.551h-42.2l-21.102 36.551 21.102 36.55h42.2l21.11-36.55ZM913.585 259.826l21.722-37.632.206-.364h43.867l21.93 37.986-21.724 37.632-.206.364h-43.867l-21.928-37.986Zm86.071 0-21.102-36.551h-42.205l-21.102 36.551 21.102 36.551h42.205l21.102-36.551Zm-86.071-149.073 21.722-37.632.206-.364h43.867l21.93 37.986-21.724 37.632-.206.364h-43.867l-21.928-37.986Zm86.071 0-21.102-36.55h-42.205l-21.102 36.55 21.102 36.55h42.205l21.102-36.55Zm-86.071-74.537 21.722-37.632.206-.364h43.867l21.93 37.986-21.724 37.632-.206.364h-43.867l-21.928-37.986Zm86.071 0L978.554-.334h-42.205l-21.102 36.55 21.102 36.55h42.205l21.102-36.55Zm-86.071-74.537 21.722-37.632.206-.364h43.867l21.93 37.986L979.586-.697l-.206.364h-43.867L913.585-38.32Zm86.071 0-21.102-36.55h-42.205l-21.102 36.55 21.102 36.55h42.205l21.102-36.55Zm-86.071-149.073 21.722-37.632.206-.364h43.867l21.93 37.986-21.724 37.632-.206.364h-43.867l-21.928-37.986Zm86.071 0-21.102-36.55h-42.205l-21.102 36.55 21.102 36.551h42.205l21.102-36.551Zm-86.071-149.073 21.722-37.633.206-.363h43.867l21.93 37.986-21.724 37.632-.206.364h-43.867l-21.928-37.986Zm86.071 0-21.102-36.551h-42.205l-21.102 36.551 21.102 36.55h42.205l21.102-36.55ZM849.029 297.104l21.722-37.632.206-.364h43.867l21.928 37.986-21.722 37.633-.206.363h-43.867l-21.928-37.986Zm86.071 0-21.102-36.55h-42.205l-21.102 36.55 21.102 36.551h42.205l21.102-36.551Zm-86.071-149.073 21.722-37.632.206-.364h43.867l21.928 37.986-21.722 37.632-.206.364h-43.867l-21.928-37.986Zm86.071 0-21.102-36.551h-42.205l-21.102 36.551 21.102 36.55h42.205l21.102-36.55ZM849.029-1.042l21.722-37.633.206-.364h43.867l21.928 37.987L915.03 36.58l-.206.364h-43.867L849.029-1.042Zm86.071 0-21.102-36.551h-42.205l-21.102 36.55 21.102 36.551h42.205L935.1-1.042Zm-86.071-223.61 21.722-37.633.206-.364h43.867l21.928 37.987-21.722 37.632-.206.364h-43.867l-21.928-37.986Zm86.071 0-21.102-36.551h-42.205l-21.102 36.551 21.102 36.55h42.205l21.102-36.55Zm-86.071-74.537 21.722-37.632.206-.364h43.867l21.928 37.986-21.722 37.632-.206.364h-43.867l-21.928-37.986Zm86.071 0-21.102-36.551h-42.205l-21.102 36.551 21.102 36.55h42.205l21.102-36.55Zm-86.071-74.527 21.722-37.632.206-.364h43.867l21.928 37.986-21.722 37.632-.206.364h-43.867l-21.928-37.986Zm86.071 0-21.102-36.55h-42.205l-21.102 36.55 21.102 36.55h42.205l21.102-36.55ZM783.578 334.363l21.722-37.632.207-.364h43.866l21.929 37.986-21.722 37.632-.207.364h-43.866l-21.929-37.986Zm86.072 0-21.103-36.551h-42.204l-21.103 36.551 21.103 36.55h42.204l21.103-36.55Zm-86.072-223.61L805.3 73.121l.207-.364h43.866l21.929 37.986-21.722 37.632-.207.364h-43.866l-21.929-37.986Zm86.072 0-21.103-36.55h-42.204l-21.103 36.55 21.103 36.55h42.204l21.103-36.55Zm-86.072-74.537L805.3-1.416l.207-.364h43.866l21.929 37.986-21.722 37.632-.207.364h-43.866l-21.929-37.986Zm86.072 0L848.547-.334h-42.204l-21.103 36.55 21.103 36.55h42.204l21.103-36.55Zm-86.072-74.537L805.3-75.953l.207-.364h43.866l21.929 37.986L849.58-.697l-.207.364h-43.866L783.578-38.32Zm86.072 0-21.103-36.55h-42.204l-21.103 36.55 21.103 36.55h42.204l21.103-36.55Zm-86.072-149.073 21.722-37.632.207-.364h43.866l21.929 37.986-21.722 37.632-.207.364h-43.866l-21.929-37.986Zm86.072 0-21.103-36.55h-42.204l-21.103 36.55 21.103 36.551h42.204l21.103-36.551Zm-86.072-74.537 21.722-37.632.207-.364h43.866l21.929 37.986-21.722 37.633-.207.364h-43.866l-21.929-37.987Zm86.072 0-21.103-36.55h-42.204l-21.103 36.55 21.103 36.551h42.204l21.103-36.551Zm-86.072-74.536L805.3-374.1l.207-.363h43.866l21.929 37.986-21.722 37.632-.207.364h-43.866l-21.929-37.986Zm86.072 0-21.103-36.551h-42.204l-21.103 36.551 21.103 36.55h42.204l21.103-36.55ZM719.023 222.568l21.721-37.633.207-.363h43.866l21.929 37.986-21.722 37.632-.207.364h-43.866l-21.928-37.986Zm86.071 0-21.103-36.551h-42.204l-21.103 36.551 21.103 36.55h42.204l21.103-36.55Zm-86.071-74.537 21.721-37.632.207-.364h43.866l21.929 37.986-21.722 37.632-.207.364h-43.866l-21.928-37.986Zm86.071 0-21.103-36.551h-42.204l-21.103 36.551 21.103 36.55h42.204l21.103-36.55Zm-86.071-74.537 21.721-37.632.207-.364h43.866l21.929 37.986-21.722 37.632-.207.364h-43.866l-21.928-37.986Zm86.071 0-21.103-36.55h-42.204l-21.103 36.55 21.103 36.551h42.204l21.103-36.55ZM719.023-1.043l21.721-37.632.207-.364h43.866l21.929 37.987-21.722 37.632-.207.364h-43.866L719.023-1.042Zm86.071 0-21.103-36.55h-42.204l-21.103 36.55 21.103 36.551h42.204l21.103-36.55Zm-86.071-149.073 21.721-37.632.207-.364h43.866l21.929 37.986-21.722 37.633-.207.363h-43.866l-21.928-37.986Zm86.071 0-21.103-36.55h-42.204l-21.103 36.55 21.103 36.551h42.204l21.103-36.551Zm-86.071-74.536 21.721-37.633.207-.364h43.866l21.929 37.987-21.722 37.632-.207.364h-43.866l-21.928-37.986Zm86.071 0-21.103-36.551h-42.204l-21.103 36.551 21.103 36.55h42.204l21.103-36.55ZM653.572 334.363l21.722-37.632.206-.364h43.867l21.928 37.986-21.722 37.632-.206.364H675.5l-21.928-37.986Zm86.071 0-21.102-36.551h-42.205l-21.102 36.551 21.102 36.55h42.205l21.102-36.55Zm-86.071-74.537 21.722-37.632.206-.364h43.867l21.928 37.986-21.722 37.632-.206.364H675.5l-21.928-37.986Zm86.071 0-21.102-36.551h-42.205l-21.102 36.551 21.102 36.551h42.205l21.102-36.551Zm-86.071-74.537 21.722-37.632.206-.364h43.867l21.928 37.987-21.722 37.632-.206.363H675.5l-21.928-37.986Zm86.071 0-21.102-36.55h-42.205l-21.102 36.55 21.102 36.551h42.205l21.102-36.551Zm-86.071-74.536 21.722-37.632.206-.364h43.867l21.928 37.986-21.722 37.632-.206.364H675.5l-21.928-37.986Zm86.071 0-21.102-36.55h-42.205l-21.102 36.55 21.102 36.55h42.205l21.102-36.55Zm-86.071-223.61 21.722-37.632.206-.364h43.867l21.928 37.986-21.722 37.632-.206.364H675.5l-21.928-37.986Zm86.071 0-21.102-36.551h-42.205l-21.102 36.551 21.102 36.55h42.205l21.102-36.55Zm-86.071-74.537 21.722-37.632.206-.364h43.867l21.928 37.986-21.722 37.632-.206.364H675.5l-21.928-37.986Zm86.071 0-21.102-36.55h-42.205l-21.102 36.55 21.102 36.551h42.205l21.102-36.551Zm-86.071-74.537 21.722-37.632.206-.364h43.867l21.928 37.986-21.722 37.633-.206.364H675.5l-21.928-37.987Zm86.071 0-21.102-36.55h-42.205l-21.102 36.55 21.102 36.551h42.205l21.102-36.551Zm-86.071-74.536 21.722-37.633.206-.363h43.867l21.928 37.986-21.722 37.632-.206.364H675.5l-21.928-37.986Zm86.071 0-21.102-36.551h-42.205l-21.102 36.551 21.102 36.55h42.205l21.102-36.55Zm-86.071-74.537 21.722-37.632.206-.364h43.867l21.928 37.986-21.722 37.632-.206.364H675.5l-21.928-37.986Zm86.071 0-21.102-36.551h-42.205l-21.102 36.551 21.102 36.55h42.205l21.102-36.55ZM589.016 371.641l21.722-37.632.206-.364h43.867l21.928 37.986-21.722 37.632-.206.364h-43.867l-21.928-37.986Zm86.071 0-21.102-36.551H611.78l-21.102 36.551 21.102 36.55h42.205l21.102-36.55Zm-86.071-74.537 21.722-37.632.206-.364h43.867l21.928 37.986-21.722 37.633-.206.363h-43.867l-21.928-37.986Zm86.071 0-21.102-36.55H611.78l-21.102 36.55 21.102 36.551h42.205l21.102-36.551Zm-86.071-149.073 21.722-37.632.206-.364h43.867l21.928 37.986-21.722 37.632-.206.364h-43.867l-21.928-37.986Zm86.071 0-21.102-36.551H611.78l-21.102 36.551 21.102 36.55h42.205l21.102-36.55ZM589.016-1.042l21.722-37.633.206-.364h43.867l21.928 37.987-21.722 37.632-.206.364h-43.867L589.016-1.042Zm86.071 0-21.102-36.551H611.78l-21.102 36.55 21.102 36.551h42.205l21.102-36.55ZM589.016-75.58l21.722-37.632.206-.364h43.867l21.928 37.986-21.722 37.632-.206.364h-43.867L589.016-75.58Zm86.071 0-21.102-36.551H611.78l-21.102 36.55L611.78-39.03h42.205l21.102-36.55Zm-86.071-74.537 21.722-37.632.206-.364h43.867l21.928 37.986-21.722 37.633-.206.363h-43.867l-21.928-37.986Zm86.071 0-21.102-36.55H611.78l-21.102 36.55 21.102 36.551h42.205l21.102-36.551ZM589.016-299.19l21.722-37.632.206-.364h43.867l21.928 37.986-21.722 37.632-.206.364h-43.867l-21.928-37.986Zm86.071 0-21.102-36.551H611.78l-21.102 36.551 21.102 36.55h42.205l21.102-36.55ZM523.575 259.826l21.722-37.632.207-.364h43.866l21.928 37.986-21.721 37.632-.207.364h-43.866l-21.929-37.986Zm86.062 0-21.103-36.551H546.33l-21.103 36.551 21.103 36.551h42.204l21.103-36.551Zm-86.062-149.073 21.722-37.632.207-.364h43.866l21.928 37.986-21.721 37.632-.207.364h-43.866l-21.929-37.986Zm86.062 0-21.103-36.55H546.33l-21.103 36.55 21.103 36.55h42.204l21.103-36.55ZM523.575-38.321l21.722-37.632.207-.364h43.866l21.928 37.986L589.577-.697l-.207.364h-43.866L523.575-38.32Zm86.062 0-21.103-36.55H546.33l-21.103 36.55L546.33-1.77h42.204l21.103-36.55Zm-86.062-74.536 21.722-37.632.207-.364h43.866l21.928 37.986-21.721 37.632-.207.364h-43.866l-21.929-37.986Zm86.062 0-21.103-36.551H546.33l-21.103 36.551 21.103 36.55h42.204l21.103-36.55Zm-86.062-149.074 21.722-37.632.207-.364h43.866l21.928 37.986-21.721 37.633-.207.364h-43.866l-21.929-37.987Zm86.062 0-21.103-36.55H546.33l-21.103 36.55 21.103 36.551h42.204l21.103-36.551Zm-86.062-74.536 21.722-37.633.207-.363h43.866l21.928 37.986-21.721 37.632-.207.364h-43.866l-21.929-37.986Zm86.062 0-21.103-36.551H546.33l-21.103 36.551 21.103 36.55h42.204l21.103-36.55Zm-86.062-74.537 21.722-37.632.207-.364h43.866l21.928 37.986-21.721 37.632-.207.364h-43.866l-21.929-37.986Zm86.062 0-21.103-36.551H546.33l-21.103 36.551 21.103 36.55h42.204l21.103-36.55ZM459.01 222.568l21.722-37.633.206-.363h43.866l21.929 37.986-21.722 37.632-.207.364h-43.866l-21.928-37.986Zm86.071 0-21.103-36.551h-42.204l-21.103 36.551 21.103 36.55h42.204l21.103-36.55Zm-86.071-74.537 21.722-37.632.206-.364h43.866l21.929 37.986-21.722 37.632-.207.364h-43.866l-21.928-37.986Zm86.071 0-21.103-36.551h-42.204l-21.103 36.551 21.103 36.55h42.204l21.103-36.55ZM459.01 73.494l21.722-37.632.206-.364h43.866l21.929 37.986-21.722 37.632-.207.364h-43.866L459.01 73.494Zm86.071 0-21.103-36.55h-42.204l-21.103 36.55 21.103 36.551h42.204l21.103-36.55ZM459.01-1.043l21.722-37.632.206-.364h43.866l21.929 37.987-21.722 37.632-.207.364h-43.866L459.01-1.042Zm86.071 0-21.103-36.55h-42.204l-21.103 36.55 21.103 36.551h42.204l21.103-36.55ZM459.01-75.579l21.722-37.632.206-.364h43.866l21.929 37.986-21.722 37.632-.207.364h-43.866L459.01-75.579Zm86.071 0-21.103-36.551h-42.204l-21.103 36.55 21.103 36.551h42.204l21.103-36.55Zm-86.071-74.537 21.722-37.632.206-.364h43.866l21.929 37.986-21.722 37.633-.207.363h-43.866l-21.928-37.986Zm86.071 0-21.103-36.55h-42.204l-21.103 36.55 21.103 36.551h42.204l21.103-36.551ZM393.569 334.363l21.722-37.632.206-.364h43.867l21.928 37.986-21.722 37.632-.206.364h-43.867l-21.928-37.986Zm86.061 0-21.102-36.551h-42.205l-21.102 36.551 21.102 36.55h42.205l21.102-36.55Zm-86.061-74.537 21.722-37.632.206-.364h43.867l21.928 37.986-21.722 37.632-.206.364h-43.867l-21.928-37.986Zm86.061 0-21.102-36.551h-42.205l-21.102 36.551 21.102 36.551h42.205l21.102-36.551Zm-86.061-74.537 21.722-37.632.206-.364h43.867l21.928 37.987-21.722 37.632-.206.363h-43.867l-21.928-37.986Zm86.061 0-21.102-36.55h-42.205l-21.102 36.55 21.102 36.551h42.205l21.102-36.551ZM393.569 36.216l21.722-37.632.206-.364h43.867l21.928 37.986-21.722 37.632-.206.364h-43.867l-21.928-37.986Zm86.061 0L458.528-.334h-42.205l-21.102 36.55 21.102 36.55h42.205l21.102-36.55Zm-86.061-149.073 21.722-37.632.206-.364h43.867l21.928 37.986-21.722 37.632-.206.364h-43.867l-21.928-37.986Zm86.061 0-21.102-36.551h-42.205l-21.102 36.551 21.102 36.55h42.205l21.102-36.55Zm-86.061-74.537 21.722-37.632.206-.364h43.867l21.928 37.986-21.722 37.632-.206.364h-43.867l-21.928-37.986Zm86.061 0-21.102-36.55h-42.205l-21.102 36.55 21.102 36.551h42.205l21.102-36.551Zm-86.061-74.537 21.722-37.632.206-.364h43.867l21.928 37.986-21.722 37.633-.206.364h-43.867l-21.928-37.987Zm86.061 0-21.102-36.55h-42.205l-21.102 36.55 21.102 36.551h42.205l21.102-36.551ZM329.013 371.641l21.722-37.632.206-.364h43.867l21.928 37.986-21.722 37.632-.206.364h-43.867l-21.928-37.986Zm86.061 0-21.102-36.551h-42.205l-21.102 36.551 21.102 36.55h42.205l21.102-36.55Zm-86.061-74.537 21.722-37.632.206-.364h43.867l21.928 37.986-21.722 37.633-.206.363h-43.867l-21.928-37.986Zm86.061 0-21.102-36.55h-42.205l-21.102 36.55 21.102 36.551h42.205l21.102-36.551Zm-86.061-74.536 21.722-37.633.206-.363h43.867l21.928 37.986-21.722 37.632-.206.364h-43.867l-21.928-37.986Zm86.061 0-21.102-36.551h-42.205l-21.102 36.551 21.102 36.55h42.205l21.102-36.55Zm-86.061-74.537 21.722-37.632.206-.364h43.867l21.928 37.986-21.722 37.632-.206.364h-43.867l-21.928-37.986Zm86.061 0-21.102-36.551h-42.205l-21.102 36.551 21.102 36.55h42.205l21.102-36.55Zm-86.061-74.537 21.722-37.632.206-.364h43.867l21.928 37.986-21.722 37.632-.206.364h-43.867l-21.928-37.986Zm86.061 0-21.102-36.55h-42.205l-21.102 36.55 21.102 36.551h42.205l21.102-36.55ZM329.013-75.579l21.722-37.632.206-.364h43.867l21.928 37.986-21.722 37.632-.206.364h-43.867l-21.928-37.986Zm86.061 0-21.102-36.551h-42.205l-21.102 36.55 21.102 36.551h42.205l21.102-36.55Zm-86.061-74.537 21.722-37.632.206-.364h43.867l21.928 37.986-21.722 37.633-.206.363h-43.867l-21.928-37.986Zm86.061 0-21.102-36.55h-42.205l-21.102 36.55 21.102 36.551h42.205l21.102-36.551Zm-86.061-74.536 21.722-37.633.206-.364h43.867l21.928 37.987-21.722 37.632-.206.364h-43.867l-21.928-37.986Zm86.061 0-21.102-36.551h-42.205l-21.102 36.551 21.102 36.55h42.205l21.102-36.55Zm-86.061-74.537 21.722-37.632.206-.364h43.867l21.928 37.986-21.722 37.632-.206.364h-43.867l-21.928-37.986Zm86.061 0-21.102-36.551h-42.205l-21.102 36.551 21.102 36.55h42.205l21.102-36.55Zm-86.061-74.527 21.722-37.632.206-.364h43.867l21.928 37.986-21.722 37.632-.206.364h-43.867l-21.928-37.986Zm86.061 0-21.102-36.55h-42.205l-21.102 36.55 21.102 36.55h42.205l21.102-36.55ZM263.562 334.363l21.722-37.632.207-.364h43.866l21.928 37.986-21.721 37.632-.207.364h-43.866l-21.929-37.986Zm86.062 0-21.103-36.551h-42.204l-21.103 36.551 21.103 36.55h42.204l21.103-36.55Zm-86.062-74.537 21.722-37.632.207-.364h43.866l21.928 37.986-21.721 37.632-.207.364h-43.866l-21.929-37.986Zm86.062 0-21.103-36.551h-42.204l-21.103 36.551 21.103 36.551h42.204l21.103-36.551Zm-86.062-149.073 21.722-37.632.207-.364h43.866l21.928 37.986-21.721 37.632-.207.364h-43.866l-21.929-37.986Zm86.062 0-21.103-36.55h-42.204l-21.103 36.55 21.103 36.55h42.204l21.103-36.55Zm-86.062-74.537 21.722-37.632.207-.364h43.866l21.928 37.986-21.721 37.632-.207.364h-43.866l-21.929-37.986Zm86.062 0L328.521-.334h-42.204l-21.103 36.55 21.103 36.55h42.204l21.103-36.55Zm-86.062-74.537 21.722-37.632.207-.364h43.866l21.928 37.986L329.564-.697l-.207.364h-43.866L263.562-38.32Zm86.062 0-21.103-36.55h-42.204l-21.103 36.55 21.103 36.55h42.204l21.103-36.55Zm-86.062-149.073 21.722-37.632.207-.364h43.866l21.928 37.986-21.721 37.632-.207.364h-43.866l-21.929-37.986Zm86.062 0-21.103-36.55h-42.204l-21.103 36.55 21.103 36.551h42.204l21.103-36.551Zm-86.062-74.537 21.722-37.632.207-.364h43.866l21.928 37.986-21.721 37.633-.207.364h-43.866l-21.929-37.987Zm86.062 0-21.103-36.55h-42.204l-21.103 36.55 21.103 36.551h42.204l21.103-36.551Zm-86.062-74.536 21.722-37.633.207-.363h43.866l21.928 37.986-21.721 37.632-.207.364h-43.866l-21.929-37.986Zm86.062 0-21.103-36.551h-42.204l-21.103 36.551 21.103 36.55h42.204l21.103-36.55Zm-86.062-74.537 21.722-37.632.207-.364h43.866l21.928 37.986-21.721 37.632-.207.364h-43.866l-21.929-37.986Zm86.062 0-21.103-36.551h-42.204l-21.103 36.551 21.103 36.55h42.204l21.103-36.55ZM199.006 371.641l21.722-37.632.207-.364h43.866l21.929 37.986-21.722 37.632-.207.364h-43.866l-21.929-37.986Zm86.062 0-21.103-36.551h-42.204l-21.103 36.551 21.103 36.55h42.204l21.103-36.55Zm-86.062-74.537 21.722-37.632.207-.364h43.866l21.929 37.986-21.722 37.633-.207.363h-43.866l-21.929-37.986Zm86.062 0-21.103-36.55h-42.204l-21.103 36.55 21.103 36.551h42.204l21.103-36.551Zm-86.062-74.536 21.722-37.633.207-.363h43.866l21.929 37.986-21.722 37.632-.207.364h-43.866l-21.929-37.986Zm86.062 0-21.103-36.551h-42.204l-21.103 36.551 21.103 36.55h42.204l21.103-36.55ZM199.006 73.494l21.722-37.632.207-.364h43.866l21.929 37.986-21.722 37.632-.207.364h-43.866l-21.929-37.986Zm86.062 0-21.103-36.55h-42.204l-21.103 36.55 21.103 36.551h42.204l21.103-36.55ZM199.006-1.043l21.722-37.632.207-.364h43.866L286.73-1.051 265.008 36.58l-.207.364h-43.866L199.006-1.042Zm86.062 0-21.103-36.55h-42.204l-21.103 36.55 21.103 36.551h42.204l21.103-36.55Zm-86.062-74.536 21.722-37.632.207-.364h43.866l21.929 37.986-21.722 37.632-.207.364h-43.866l-21.929-37.986Zm86.062 0-21.103-36.551h-42.204l-21.103 36.55 21.103 36.551h42.204l21.103-36.55Zm-86.062-74.537 21.722-37.632.207-.364h43.866l21.929 37.986-21.722 37.633-.207.363h-43.866l-21.929-37.986Zm86.062 0-21.103-36.55h-42.204l-21.103 36.55 21.103 36.551h42.204l21.103-36.551Zm-86.062-149.073 21.722-37.632.207-.364h43.866l21.929 37.986-21.722 37.632-.207.364h-43.866l-21.929-37.986Zm86.062 0-21.103-36.551h-42.204l-21.103 36.551 21.103 36.55h42.204l21.103-36.55Zm-86.062-74.527 21.722-37.632.207-.364h43.866l21.929 37.986-21.722 37.632-.207.364h-43.866l-21.929-37.986Zm86.062 0-21.103-36.55h-42.204l-21.103 36.55 21.103 36.55h42.204l21.103-36.55ZM133.556 334.363l21.722-37.632.206-.364h43.867l21.928 37.986-21.722 37.632-.206.364h-43.867l-21.928-37.986Zm86.071 0-21.102-36.551H156.32l-21.102 36.551 21.102 36.55h42.205l21.102-36.55Zm-86.071-74.537 21.722-37.632.206-.364h43.867l21.928 37.986-21.722 37.632-.206.364h-43.867l-21.928-37.986Zm86.071 0-21.102-36.551H156.32l-21.102 36.551 21.102 36.551h42.205l21.102-36.551Zm-86.071-74.537 21.722-37.632.206-.364h43.867l21.928 37.987-21.722 37.632-.206.363h-43.867l-21.928-37.986Zm86.071 0-21.102-36.55H156.32l-21.102 36.55 21.102 36.551h42.205l21.102-36.551ZM133.556 36.216l21.722-37.632.206-.364h43.867l21.928 37.986-21.722 37.632-.206.364h-43.867l-21.928-37.986Zm86.071 0L198.525-.334H156.32l-21.102 36.55 21.102 36.55h42.205l21.102-36.55Zm-86.071-74.537 21.722-37.632.206-.364h43.867l21.928 37.986L199.557-.697l-.206.364h-43.867L133.556-38.32Zm86.071 0-21.102-36.55H156.32l-21.102 36.55L156.32-1.77h42.205l21.102-36.55Zm-86.071-74.536 21.722-37.632.206-.364h43.867l21.928 37.986-21.722 37.632-.206.364h-43.867l-21.928-37.986Zm86.071 0-21.102-36.551H156.32l-21.102 36.551 21.102 36.55h42.205l21.102-36.55Zm-86.071-149.074 21.722-37.632.206-.364h43.867l21.928 37.986-21.722 37.633-.206.364h-43.867l-21.928-37.987Zm86.071 0-21.102-36.55H156.32l-21.102 36.55 21.102 36.551h42.205l21.102-36.551Zm-86.071-74.536 21.722-37.633.206-.363h43.867l21.928 37.986-21.722 37.632-.206.364h-43.867l-21.928-37.986Zm86.071 0-21.102-36.551H156.32l-21.102 36.551 21.102 36.55h42.205l21.102-36.55Zm-86.071-74.537 21.722-37.632.206-.364h43.867l21.928 37.986-21.722 37.632-.206.364h-43.867l-21.928-37.986Zm86.071 0-21.102-36.551H156.32l-21.102 36.551 21.102 36.55h42.205l21.102-36.55ZM69 371.641l21.722-37.632.206-.364h43.867l21.928 37.986-21.722 37.632-.206.364H90.928L69 371.641Zm86.071 0-21.102-36.551H91.764l-21.102 36.551 21.102 36.55h42.205l21.102-36.55ZM69 222.568l21.722-37.633.206-.363h43.867l21.928 37.986-21.722 37.632-.206.364H90.928L69 222.568Zm86.071 0-21.102-36.551H91.764l-21.102 36.551 21.102 36.55h42.205l21.102-36.55ZM69 148.031l21.722-37.632.206-.364h43.867l21.928 37.986-21.722 37.632-.206.364H90.928L69 148.031Zm86.071 0-21.102-36.551H91.764l-21.102 36.551 21.102 36.55h42.205l21.102-36.55ZM69-1.042l21.722-37.633.206-.364h43.867l21.928 37.987-21.722 37.632-.206.364H90.928L69-1.042Zm86.071 0-21.102-36.551H91.764L70.662-1.043l21.102 36.551h42.205l21.102-36.55ZM69-150.117l21.722-37.632.206-.364h43.867l21.928 37.986-21.722 37.633-.206.363H90.928L69-150.116Zm86.071 0-21.102-36.55H91.764l-21.102 36.55 21.102 36.551h42.205l21.102-36.551ZM69-224.652l21.722-37.633.206-.364h43.867l21.928 37.987-21.722 37.632-.206.364H90.928L69-224.652Zm86.071 0-21.102-36.551H91.764l-21.102 36.551 21.102 36.55h42.205l21.102-36.55ZM69-299.189l21.722-37.632.206-.364h43.867l21.928 37.986-21.722 37.632-.206.364H90.928L69-299.189Zm86.071 0-21.102-36.551H91.764l-21.102 36.551 21.102 36.55h42.205l21.102-36.55ZM69-373.716l21.722-37.632.206-.364h43.867l21.928 37.986-21.722 37.632-.206.364H90.928L69-373.716Zm86.071 0-21.102-36.55H91.764l-21.102 36.55 21.102 36.55h42.205l21.102-36.55Zm888.519 708.079 21.72-37.632.21-.364h43.87l21.92 37.986-21.72 37.632-.2.364h-43.87l-21.93-37.986Zm86.06 0-21.1-36.551h-42.2l-21.11 36.551 21.11 36.55h42.2l21.1-36.55Zm-86.06-298.147 21.72-37.632.21-.364h43.87l21.92 37.986-21.72 37.632-.2.364h-43.87l-21.93-37.986Zm86.06 0-21.1-36.55h-42.2l-21.11 36.55 21.11 36.55h42.2l21.1-36.55Zm-86.06-298.147 21.72-37.632.21-.364h43.87l21.92 37.986-21.72 37.633-.2.364h-43.87l-21.93-37.987Zm86.06 0-21.1-36.55h-42.2l-21.11 36.55 21.11 36.551h42.2l21.1-36.551ZM979.036 371.641l21.724-37.632.2-.364h43.87l21.93 37.986-21.72 37.632-.21.364h-43.87l-21.924-37.986Zm86.064 0-21.11-36.551h-42.2l-21.102 36.551 21.102 36.55h42.2l21.11-36.55Zm-86.064-74.537 21.724-37.632.2-.364h43.87l21.93 37.986-21.72 37.633-.21.363h-43.87l-21.924-37.986Zm86.064 0-21.11-36.55h-42.2l-21.102 36.55 21.102 36.551h42.2l21.11-36.551Zm-86.064-149.073 21.724-37.632.2-.364h43.87l21.93 37.986-21.72 37.632-.21.364h-43.87l-21.924-37.986Zm86.064 0-21.11-36.551h-42.2l-21.102 36.551 21.102 36.55h42.2l21.11-36.55ZM979.036-1.042l21.724-37.633.2-.364h43.87l21.93 37.987-21.72 37.632-.21.364h-43.87L979.036-1.042Zm86.064 0-21.11-36.551h-42.2l-21.102 36.55 21.102 36.551h42.2l21.11-36.55Zm-86.064-149.074 21.724-37.632.2-.364h43.87l21.93 37.986-21.72 37.633-.21.363h-43.87l-21.924-37.986Zm86.064 0-21.11-36.55h-42.2l-21.102 36.55 21.102 36.551h42.2l21.11-36.551Zm-86.064-149.073 21.724-37.632.2-.364h43.87l21.93 37.986-21.72 37.632-.21.364h-43.87l-21.924-37.986Zm86.064 0-21.11-36.551h-42.2l-21.102 36.551 21.102 36.55h42.2l21.11-36.55ZM913.585 259.826l21.722-37.632.206-.364h43.867l21.93 37.986-21.724 37.632-.206.364h-43.867l-21.928-37.986Zm86.071 0-21.102-36.551h-42.205l-21.102 36.551 21.102 36.551h42.205l21.102-36.551Zm-86.071-149.073 21.722-37.632.206-.364h43.867l21.93 37.986-21.724 37.632-.206.364h-43.867l-21.928-37.986Zm86.071 0-21.102-36.55h-42.205l-21.102 36.55 21.102 36.55h42.205l21.102-36.55Zm-86.071-74.537 21.722-37.632.206-.364h43.867l21.93 37.986-21.724 37.632-.206.364h-43.867l-21.928-37.986Zm86.071 0L978.554-.334h-42.205l-21.102 36.55 21.102 36.55h42.205l21.102-36.55Zm-86.071-74.537 21.722-37.632.206-.364h43.867l21.93 37.986L979.586-.697l-.206.364h-43.867L913.585-38.32Zm86.071 0-21.102-36.55h-42.205l-21.102 36.55 21.102 36.55h42.205l21.102-36.55Zm-86.071-149.073 21.722-37.632.206-.364h43.867l21.93 37.986-21.724 37.632-.206.364h-43.867l-21.928-37.986Zm86.071 0-21.102-36.55h-42.205l-21.102 36.55 21.102 36.551h42.205l21.102-36.551Zm-86.071-149.073 21.722-37.633.206-.363h43.867l21.93 37.986-21.724 37.632-.206.364h-43.867l-21.928-37.986Zm86.071 0-21.102-36.551h-42.205l-21.102 36.551 21.102 36.55h42.205l21.102-36.55ZM849.029 297.104l21.722-37.632.206-.364h43.867l21.928 37.986-21.722 37.633-.206.363h-43.867l-21.928-37.986Zm86.071 0-21.102-36.55h-42.205l-21.102 36.55 21.102 36.551h42.205l21.102-36.551Zm-86.071-149.073 21.722-37.632.206-.364h43.867l21.928 37.986-21.722 37.632-.206.364h-43.867l-21.928-37.986Zm86.071 0-21.102-36.551h-42.205l-21.102 36.551 21.102 36.55h42.205l21.102-36.55ZM849.029-1.042l21.722-37.633.206-.364h43.867l21.928 37.987L915.03 36.58l-.206.364h-43.867L849.029-1.042Zm86.071 0-21.102-36.551h-42.205l-21.102 36.55 21.102 36.551h42.205L935.1-1.042Zm-86.071-223.61 21.722-37.633.206-.364h43.867l21.928 37.987-21.722 37.632-.206.364h-43.867l-21.928-37.986Zm86.071 0-21.102-36.551h-42.205l-21.102 36.551 21.102 36.55h42.205l21.102-36.55Zm-86.071-74.537 21.722-37.632.206-.364h43.867l21.928 37.986-21.722 37.632-.206.364h-43.867l-21.928-37.986Zm86.071 0-21.102-36.551h-42.205l-21.102 36.551 21.102 36.55h42.205l21.102-36.55Zm-86.071-74.527 21.722-37.632.206-.364h43.867l21.928 37.986-21.722 37.632-.206.364h-43.867l-21.928-37.986Zm86.071 0-21.102-36.55h-42.205l-21.102 36.55 21.102 36.55h42.205l21.102-36.55ZM783.578 334.363l21.722-37.632.207-.364h43.866l21.929 37.986-21.722 37.632-.207.364h-43.866l-21.929-37.986Zm86.072 0-21.103-36.551h-42.204l-21.103 36.551 21.103 36.55h42.204l21.103-36.55Zm-86.072-223.61L805.3 73.121l.207-.364h43.866l21.929 37.986-21.722 37.632-.207.364h-43.866l-21.929-37.986Zm86.072 0-21.103-36.55h-42.204l-21.103 36.55 21.103 36.55h42.204l21.103-36.55Zm-86.072-74.537L805.3-1.416l.207-.364h43.866l21.929 37.986-21.722 37.632-.207.364h-43.866l-21.929-37.986Zm86.072 0L848.547-.334h-42.204l-21.103 36.55 21.103 36.55h42.204l21.103-36.55Zm-86.072-74.537L805.3-75.953l.207-.364h43.866l21.929 37.986L849.58-.697l-.207.364h-43.866L783.578-38.32Zm86.072 0-21.103-36.55h-42.204l-21.103 36.55 21.103 36.55h42.204l21.103-36.55Zm-86.072-149.073 21.722-37.632.207-.364h43.866l21.929 37.986-21.722 37.632-.207.364h-43.866l-21.929-37.986Zm86.072 0-21.103-36.55h-42.204l-21.103 36.55 21.103 36.551h42.204l21.103-36.551Zm-86.072-74.537 21.722-37.632.207-.364h43.866l21.929 37.986-21.722 37.633-.207.364h-43.866l-21.929-37.987Zm86.072 0-21.103-36.55h-42.204l-21.103 36.55 21.103 36.551h42.204l21.103-36.551Zm-86.072-74.536L805.3-374.1l.207-.363h43.866l21.929 37.986-21.722 37.632-.207.364h-43.866l-21.929-37.986Zm86.072 0-21.103-36.551h-42.204l-21.103 36.551 21.103 36.55h42.204l21.103-36.55ZM719.023 222.568l21.721-37.633.207-.363h43.866l21.929 37.986-21.722 37.632-.207.364h-43.866l-21.928-37.986Zm86.071 0-21.103-36.551h-42.204l-21.103 36.551 21.103 36.55h42.204l21.103-36.55Zm-86.071-74.537 21.721-37.632.207-.364h43.866l21.929 37.986-21.722 37.632-.207.364h-43.866l-21.928-37.986Zm86.071 0-21.103-36.551h-42.204l-21.103 36.551 21.103 36.55h42.204l21.103-36.55Zm-86.071-74.537 21.721-37.632.207-.364h43.866l21.929 37.986-21.722 37.632-.207.364h-43.866l-21.928-37.986Zm86.071 0-21.103-36.55h-42.204l-21.103 36.55 21.103 36.551h42.204l21.103-36.55ZM719.023-1.043l21.721-37.632.207-.364h43.866l21.929 37.987-21.722 37.632-.207.364h-43.866L719.023-1.042Zm86.071 0-21.103-36.55h-42.204l-21.103 36.55 21.103 36.551h42.204l21.103-36.55Zm-86.071-149.073 21.721-37.632.207-.364h43.866l21.929 37.986-21.722 37.633-.207.363h-43.866l-21.928-37.986Zm86.071 0-21.103-36.55h-42.204l-21.103 36.55 21.103 36.551h42.204l21.103-36.551Zm-86.071-74.536 21.721-37.633.207-.364h43.866l21.929 37.987-21.722 37.632-.207.364h-43.866l-21.928-37.986Zm86.071 0-21.103-36.551h-42.204l-21.103 36.551 21.103 36.55h42.204l21.103-36.55ZM653.572 334.363l21.722-37.632.206-.364h43.867l21.928 37.986-21.722 37.632-.206.364H675.5l-21.928-37.986Zm86.071 0-21.102-36.551h-42.205l-21.102 36.551 21.102 36.55h42.205l21.102-36.55Zm-86.071-74.537 21.722-37.632.206-.364h43.867l21.928 37.986-21.722 37.632-.206.364H675.5l-21.928-37.986Zm86.071 0-21.102-36.551h-42.205l-21.102 36.551 21.102 36.551h42.205l21.102-36.551Zm-86.071-74.537 21.722-37.632.206-.364h43.867l21.928 37.987-21.722 37.632-.206.363H675.5l-21.928-37.986Zm86.071 0-21.102-36.55h-42.205l-21.102 36.55 21.102 36.551h42.205l21.102-36.551Zm-86.071-74.536 21.722-37.632.206-.364h43.867l21.928 37.986-21.722 37.632-.206.364H675.5l-21.928-37.986Zm86.071 0-21.102-36.55h-42.205l-21.102 36.55 21.102 36.55h42.205l21.102-36.55Zm-86.071-223.61 21.722-37.632.206-.364h43.867l21.928 37.986-21.722 37.632-.206.364H675.5l-21.928-37.986Zm86.071 0-21.102-36.551h-42.205l-21.102 36.551 21.102 36.55h42.205l21.102-36.55Zm-86.071-74.537 21.722-37.632.206-.364h43.867l21.928 37.986-21.722 37.632-.206.364H675.5l-21.928-37.986Zm86.071 0-21.102-36.55h-42.205l-21.102 36.55 21.102 36.551h42.205l21.102-36.551Zm-86.071-74.537 21.722-37.632.206-.364h43.867l21.928 37.986-21.722 37.633-.206.364H675.5l-21.928-37.987Zm86.071 0-21.102-36.55h-42.205l-21.102 36.55 21.102 36.551h42.205l21.102-36.551Zm-86.071-74.536 21.722-37.633.206-.363h43.867l21.928 37.986-21.722 37.632-.206.364H675.5l-21.928-37.986Zm86.071 0-21.102-36.551h-42.205l-21.102 36.551 21.102 36.55h42.205l21.102-36.55Zm-86.071-74.537 21.722-37.632.206-.364h43.867l21.928 37.986-21.722 37.632-.206.364H675.5l-21.928-37.986Zm86.071 0-21.102-36.551h-42.205l-21.102 36.551 21.102 36.55h42.205l21.102-36.55ZM589.016 371.641l21.722-37.632.206-.364h43.867l21.928 37.986-21.722 37.632-.206.364h-43.867l-21.928-37.986Zm86.071 0-21.102-36.551H611.78l-21.102 36.551 21.102 36.55h42.205l21.102-36.55Zm-86.071-74.537 21.722-37.632.206-.364h43.867l21.928 37.986-21.722 37.633-.206.363h-43.867l-21.928-37.986Zm86.071 0-21.102-36.55H611.78l-21.102 36.55 21.102 36.551h42.205l21.102-36.551Zm-86.071-149.073 21.722-37.632.206-.364h43.867l21.928 37.986-21.722 37.632-.206.364h-43.867l-21.928-37.986Zm86.071 0-21.102-36.551H611.78l-21.102 36.551 21.102 36.55h42.205l21.102-36.55ZM589.016-1.042l21.722-37.633.206-.364h43.867l21.928 37.987-21.722 37.632-.206.364h-43.867L589.016-1.042Zm86.071 0-21.102-36.551H611.78l-21.102 36.55 21.102 36.551h42.205l21.102-36.55ZM589.016-75.58l21.722-37.632.206-.364h43.867l21.928 37.986-21.722 37.632-.206.364h-43.867L589.016-75.58Zm86.071 0-21.102-36.551H611.78l-21.102 36.55L611.78-39.03h42.205l21.102-36.55Zm-86.071-74.537 21.722-37.632.206-.364h43.867l21.928 37.986-21.722 37.633-.206.363h-43.867l-21.928-37.986Zm86.071 0-21.102-36.55H611.78l-21.102 36.55 21.102 36.551h42.205l21.102-36.551ZM589.016-299.19l21.722-37.632.206-.364h43.867l21.928 37.986-21.722 37.632-.206.364h-43.867l-21.928-37.986Zm86.071 0-21.102-36.551H611.78l-21.102 36.551 21.102 36.55h42.205l21.102-36.55ZM523.575 259.826l21.722-37.632.207-.364h43.866l21.928 37.986-21.721 37.632-.207.364h-43.866l-21.929-37.986Zm86.062 0-21.103-36.551H546.33l-21.103 36.551 21.103 36.551h42.204l21.103-36.551Zm-86.062-149.073 21.722-37.632.207-.364h43.866l21.928 37.986-21.721 37.632-.207.364h-43.866l-21.929-37.986Zm86.062 0-21.103-36.55H546.33l-21.103 36.55 21.103 36.55h42.204l21.103-36.55ZM523.575-38.321l21.722-37.632.207-.364h43.866l21.928 37.986L589.577-.697l-.207.364h-43.866L523.575-38.32Zm86.062 0-21.103-36.55H546.33l-21.103 36.55L546.33-1.77h42.204l21.103-36.55Zm-86.062-74.536 21.722-37.632.207-.364h43.866l21.928 37.986-21.721 37.632-.207.364h-43.866l-21.929-37.986Zm86.062 0-21.103-36.551H546.33l-21.103 36.551 21.103 36.55h42.204l21.103-36.55Zm-86.062-149.074 21.722-37.632.207-.364h43.866l21.928 37.986-21.721 37.633-.207.364h-43.866l-21.929-37.987Zm86.062 0-21.103-36.55H546.33l-21.103 36.55 21.103 36.551h42.204l21.103-36.551Zm-86.062-74.536 21.722-37.633.207-.363h43.866l21.928 37.986-21.721 37.632-.207.364h-43.866l-21.929-37.986Zm86.062 0-21.103-36.551H546.33l-21.103 36.551 21.103 36.55h42.204l21.103-36.55Zm-86.062-74.537 21.722-37.632.207-.364h43.866l21.928 37.986-21.721 37.632-.207.364h-43.866l-21.929-37.986Zm86.062 0-21.103-36.551H546.33l-21.103 36.551 21.103 36.55h42.204l21.103-36.55ZM459.01 222.568l21.722-37.633.206-.363h43.866l21.929 37.986-21.722 37.632-.207.364h-43.866l-21.928-37.986Zm86.071 0-21.103-36.551h-42.204l-21.103 36.551 21.103 36.55h42.204l21.103-36.55Zm-86.071-74.537 21.722-37.632.206-.364h43.866l21.929 37.986-21.722 37.632-.207.364h-43.866l-21.928-37.986Zm86.071 0-21.103-36.551h-42.204l-21.103 36.551 21.103 36.55h42.204l21.103-36.55ZM459.01 73.494l21.722-37.632.206-.364h43.866l21.929 37.986-21.722 37.632-.207.364h-43.866L459.01 73.494Zm86.071 0-21.103-36.55h-42.204l-21.103 36.55 21.103 36.551h42.204l21.103-36.55ZM459.01-1.043l21.722-37.632.206-.364h43.866l21.929 37.987-21.722 37.632-.207.364h-43.866L459.01-1.042Zm86.071 0-21.103-36.55h-42.204l-21.103 36.55 21.103 36.551h42.204l21.103-36.55ZM459.01-75.579l21.722-37.632.206-.364h43.866l21.929 37.986-21.722 37.632-.207.364h-43.866L459.01-75.579Zm86.071 0-21.103-36.551h-42.204l-21.103 36.55 21.103 36.551h42.204l21.103-36.55Zm-86.071-74.537 21.722-37.632.206-.364h43.866l21.929 37.986-21.722 37.633-.207.363h-43.866l-21.928-37.986Zm86.071 0-21.103-36.55h-42.204l-21.103 36.55 21.103 36.551h42.204l21.103-36.551ZM393.569 334.363l21.722-37.632.206-.364h43.867l21.928 37.986-21.722 37.632-.206.364h-43.867l-21.928-37.986Zm86.061 0-21.102-36.551h-42.205l-21.102 36.551 21.102 36.55h42.205l21.102-36.55Zm-86.061-74.537 21.722-37.632.206-.364h43.867l21.928 37.986-21.722 37.632-.206.364h-43.867l-21.928-37.986Zm86.061 0-21.102-36.551h-42.205l-21.102 36.551 21.102 36.551h42.205l21.102-36.551Zm-86.061-74.537 21.722-37.632.206-.364h43.867l21.928 37.987-21.722 37.632-.206.363h-43.867l-21.928-37.986Zm86.061 0-21.102-36.55h-42.205l-21.102 36.55 21.102 36.551h42.205l21.102-36.551ZM393.569 36.216l21.722-37.632.206-.364h43.867l21.928 37.986-21.722 37.632-.206.364h-43.867l-21.928-37.986Zm86.061 0L458.528-.334h-42.205l-21.102 36.55 21.102 36.55h42.205l21.102-36.55Zm-86.061-149.073 21.722-37.632.206-.364h43.867l21.928 37.986-21.722 37.632-.206.364h-43.867l-21.928-37.986Zm86.061 0-21.102-36.551h-42.205l-21.102 36.551 21.102 36.55h42.205l21.102-36.55Zm-86.061-74.537 21.722-37.632.206-.364h43.867l21.928 37.986-21.722 37.632-.206.364h-43.867l-21.928-37.986Zm86.061 0-21.102-36.55h-42.205l-21.102 36.55 21.102 36.551h42.205l21.102-36.551Zm-86.061-74.537 21.722-37.632.206-.364h43.867l21.928 37.986-21.722 37.633-.206.364h-43.867l-21.928-37.987Zm86.061 0-21.102-36.55h-42.205l-21.102 36.55 21.102 36.551h42.205l21.102-36.551ZM329.013 371.641l21.722-37.632.206-.364h43.867l21.928 37.986-21.722 37.632-.206.364h-43.867l-21.928-37.986Zm86.061 0-21.102-36.551h-42.205l-21.102 36.551 21.102 36.55h42.205l21.102-36.55Zm-86.061-74.537 21.722-37.632.206-.364h43.867l21.928 37.986-21.722 37.633-.206.363h-43.867l-21.928-37.986Zm86.061 0-21.102-36.55h-42.205l-21.102 36.55 21.102 36.551h42.205l21.102-36.551Zm-86.061-74.536 21.722-37.633.206-.363h43.867l21.928 37.986-21.722 37.632-.206.364h-43.867l-21.928-37.986Zm86.061 0-21.102-36.551h-42.205l-21.102 36.551 21.102 36.55h42.205l21.102-36.55Zm-86.061-74.537 21.722-37.632.206-.364h43.867l21.928 37.986-21.722 37.632-.206.364h-43.867l-21.928-37.986Zm86.061 0-21.102-36.551h-42.205l-21.102 36.551 21.102 36.55h42.205l21.102-36.55Zm-86.061-74.537 21.722-37.632.206-.364h43.867l21.928 37.986-21.722 37.632-.206.364h-43.867l-21.928-37.986Zm86.061 0-21.102-36.55h-42.205l-21.102 36.55 21.102 36.551h42.205l21.102-36.55ZM329.013-75.579l21.722-37.632.206-.364h43.867l21.928 37.986-21.722 37.632-.206.364h-43.867l-21.928-37.986Zm86.061 0-21.102-36.551h-42.205l-21.102 36.55 21.102 36.551h42.205l21.102-36.55Zm-86.061-74.537 21.722-37.632.206-.364h43.867l21.928 37.986-21.722 37.633-.206.363h-43.867l-21.928-37.986Zm86.061 0-21.102-36.55h-42.205l-21.102 36.55 21.102 36.551h42.205l21.102-36.551Zm-86.061-74.536 21.722-37.633.206-.364h43.867l21.928 37.987-21.722 37.632-.206.364h-43.867l-21.928-37.986Zm86.061 0-21.102-36.551h-42.205l-21.102 36.551 21.102 36.55h42.205l21.102-36.55Zm-86.061-74.537 21.722-37.632.206-.364h43.867l21.928 37.986-21.722 37.632-.206.364h-43.867l-21.928-37.986Zm86.061 0-21.102-36.551h-42.205l-21.102 36.551 21.102 36.55h42.205l21.102-36.55Zm-86.061-74.527 21.722-37.632.206-.364h43.867l21.928 37.986-21.722 37.632-.206.364h-43.867l-21.928-37.986Zm86.061 0-21.102-36.55h-42.205l-21.102 36.55 21.102 36.55h42.205l21.102-36.55ZM263.562 334.363l21.722-37.632.207-.364h43.866l21.928 37.986-21.721 37.632-.207.364h-43.866l-21.929-37.986Zm86.062 0-21.103-36.551h-42.204l-21.103 36.551 21.103 36.55h42.204l21.103-36.55Zm-86.062-74.537 21.722-37.632.207-.364h43.866l21.928 37.986-21.721 37.632-.207.364h-43.866l-21.929-37.986Zm86.062 0-21.103-36.551h-42.204l-21.103 36.551 21.103 36.551h42.204l21.103-36.551Zm-86.062-149.073 21.722-37.632.207-.364h43.866l21.928 37.986-21.721 37.632-.207.364h-43.866l-21.929-37.986Zm86.062 0-21.103-36.55h-42.204l-21.103 36.55 21.103 36.55h42.204l21.103-36.55Zm-86.062-74.537 21.722-37.632.207-.364h43.866l21.928 37.986-21.721 37.632-.207.364h-43.866l-21.929-37.986Zm86.062 0L328.521-.334h-42.204l-21.103 36.55 21.103 36.55h42.204l21.103-36.55Zm-86.062-74.537 21.722-37.632.207-.364h43.866l21.928 37.986L329.564-.697l-.207.364h-43.866L263.562-38.32Zm86.062 0-21.103-36.55h-42.204l-21.103 36.55 21.103 36.55h42.204l21.103-36.55Zm-86.062-149.073 21.722-37.632.207-.364h43.866l21.928 37.986-21.721 37.632-.207.364h-43.866l-21.929-37.986Zm86.062 0-21.103-36.55h-42.204l-21.103 36.55 21.103 36.551h42.204l21.103-36.551Zm-86.062-74.537 21.722-37.632.207-.364h43.866l21.928 37.986-21.721 37.633-.207.364h-43.866l-21.929-37.987Zm86.062 0-21.103-36.55h-42.204l-21.103 36.55 21.103 36.551h42.204l21.103-36.551Zm-86.062-74.536 21.722-37.633.207-.363h43.866l21.928 37.986-21.721 37.632-.207.364h-43.866l-21.929-37.986Zm86.062 0-21.103-36.551h-42.204l-21.103 36.551 21.103 36.55h42.204l21.103-36.55Zm-86.062-74.537 21.722-37.632.207-.364h43.866l21.928 37.986-21.721 37.632-.207.364h-43.866l-21.929-37.986Zm86.062 0-21.103-36.551h-42.204l-21.103 36.551 21.103 36.55h42.204l21.103-36.55ZM199.006 371.641l21.722-37.632.207-.364h43.866l21.929 37.986-21.722 37.632-.207.364h-43.866l-21.929-37.986Zm86.062 0-21.103-36.551h-42.204l-21.103 36.551 21.103 36.55h42.204l21.103-36.55Zm-86.062-74.537 21.722-37.632.207-.364h43.866l21.929 37.986-21.722 37.633-.207.363h-43.866l-21.929-37.986Zm86.062 0-21.103-36.55h-42.204l-21.103 36.55 21.103 36.551h42.204l21.103-36.551Zm-86.062-74.536 21.722-37.633.207-.363h43.866l21.929 37.986-21.722 37.632-.207.364h-43.866l-21.929-37.986Zm86.062 0-21.103-36.551h-42.204l-21.103 36.551 21.103 36.55h42.204l21.103-36.55ZM199.006 73.494l21.722-37.632.207-.364h43.866l21.929 37.986-21.722 37.632-.207.364h-43.866l-21.929-37.986Zm86.062 0-21.103-36.55h-42.204l-21.103 36.55 21.103 36.551h42.204l21.103-36.55ZM199.006-1.043l21.722-37.632.207-.364h43.866L286.73-1.051 265.008 36.58l-.207.364h-43.866L199.006-1.042Zm86.062 0-21.103-36.55h-42.204l-21.103 36.55 21.103 36.551h42.204l21.103-36.55Zm-86.062-74.536 21.722-37.632.207-.364h43.866l21.929 37.986-21.722 37.632-.207.364h-43.866l-21.929-37.986Zm86.062 0-21.103-36.551h-42.204l-21.103 36.55 21.103 36.551h42.204l21.103-36.55Zm-86.062-74.537 21.722-37.632.207-.364h43.866l21.929 37.986-21.722 37.633-.207.363h-43.866l-21.929-37.986Zm86.062 0-21.103-36.55h-42.204l-21.103 36.55 21.103 36.551h42.204l21.103-36.551Zm-86.062-149.073 21.722-37.632.207-.364h43.866l21.929 37.986-21.722 37.632-.207.364h-43.866l-21.929-37.986Zm86.062 0-21.103-36.551h-42.204l-21.103 36.551 21.103 36.55h42.204l21.103-36.55Zm-86.062-74.527 21.722-37.632.207-.364h43.866l21.929 37.986-21.722 37.632-.207.364h-43.866l-21.929-37.986Zm86.062 0-21.103-36.55h-42.204l-21.103 36.55 21.103 36.55h42.204l21.103-36.55ZM133.556 334.363l21.722-37.632.206-.364h43.867l21.928 37.986-21.722 37.632-.206.364h-43.867l-21.928-37.986Zm86.071 0-21.102-36.551H156.32l-21.102 36.551 21.102 36.55h42.205l21.102-36.55Zm-86.071-74.537 21.722-37.632.206-.364h43.867l21.928 37.986-21.722 37.632-.206.364h-43.867l-21.928-37.986Zm86.071 0-21.102-36.551H156.32l-21.102 36.551 21.102 36.551h42.205l21.102-36.551Zm-86.071-74.537 21.722-37.632.206-.364h43.867l21.928 37.987-21.722 37.632-.206.363h-43.867l-21.928-37.986Zm86.071 0-21.102-36.55H156.32l-21.102 36.55 21.102 36.551h42.205l21.102-36.551ZM133.556 36.216l21.722-37.632.206-.364h43.867l21.928 37.986-21.722 37.632-.206.364h-43.867l-21.928-37.986Zm86.071 0L198.525-.334H156.32l-21.102 36.55 21.102 36.55h42.205l21.102-36.55Zm-86.071-74.537 21.722-37.632.206-.364h43.867l21.928 37.986L199.557-.697l-.206.364h-43.867L133.556-38.32Zm86.071 0-21.102-36.55H156.32l-21.102 36.55L156.32-1.77h42.205l21.102-36.55Zm-86.071-74.536 21.722-37.632.206-.364h43.867l21.928 37.986-21.722 37.632-.206.364h-43.867l-21.928-37.986Zm86.071 0-21.102-36.551H156.32l-21.102 36.551 21.102 36.55h42.205l21.102-36.55Zm-86.071-149.074 21.722-37.632.206-.364h43.867l21.928 37.986-21.722 37.633-.206.364h-43.867l-21.928-37.987Zm86.071 0-21.102-36.55H156.32l-21.102 36.55 21.102 36.551h42.205l21.102-36.551Zm-86.071-74.536 21.722-37.633.206-.363h43.867l21.928 37.986-21.722 37.632-.206.364h-43.867l-21.928-37.986Zm86.071 0-21.102-36.551H156.32l-21.102 36.551 21.102 36.55h42.205l21.102-36.55Zm-86.071-74.537 21.722-37.632.206-.364h43.867l21.928 37.986-21.722 37.632-.206.364h-43.867l-21.928-37.986Zm86.071 0-21.102-36.551H156.32l-21.102 36.551 21.102 36.55h42.205l21.102-36.55ZM69 371.641l21.722-37.632.206-.364h43.867l21.928 37.986-21.722 37.632-.206.364H90.928L69 371.641Zm86.071 0-21.102-36.551H91.764l-21.102 36.551 21.102 36.55h42.205l21.102-36.55ZM69 222.568l21.722-37.633.206-.363h43.867l21.928 37.986-21.722 37.632-.206.364H90.928L69 222.568Zm86.071 0-21.102-36.551H91.764l-21.102 36.551 21.102 36.55h42.205l21.102-36.55ZM69 148.031l21.722-37.632.206-.364h43.867l21.928 37.986-21.722 37.632-.206.364H90.928L69 148.031Zm86.071 0-21.102-36.551H91.764l-21.102 36.551 21.102 36.55h42.205l21.102-36.55ZM69-1.042l21.722-37.633.206-.364h43.867l21.928 37.987-21.722 37.632-.206.364H90.928L69-1.042Zm86.071 0-21.102-36.551H91.764L70.662-1.043l21.102 36.551h42.205l21.102-36.55ZM69-150.117l21.722-37.632.206-.364h43.867l21.928 37.986-21.722 37.633-.206.363H90.928L69-150.116Zm86.071 0-21.102-36.55H91.764l-21.102 36.55 21.102 36.551h42.205l21.102-36.551ZM69-224.652l21.722-37.633.206-.364h43.867l21.928 37.987-21.722 37.632-.206.364H90.928L69-224.652Zm86.071 0-21.102-36.551H91.764l-21.102 36.551 21.102 36.55h42.205l21.102-36.55ZM69-299.189l21.722-37.632.206-.364h43.867l21.928 37.986-21.722 37.632-.206.364H90.928L69-299.189Zm86.071 0-21.102-36.551H91.764l-21.102 36.551 21.102 36.55h42.205l21.102-36.55ZM69-373.716l21.722-37.632.206-.364h43.867l21.928 37.986-21.722 37.632-.206.364H90.928L69-373.716Zm86.071 0-21.102-36.55H91.764l-21.102 36.55 21.102 36.55h42.205l21.102-36.55Z"/>
  </g>
  <defs>
    <linearGradient id="b" x1="600.157" x2="600.157" y1="-449" y2="409.627" gradientUnits="userSpaceOnUse">
      <stop stop-color="#1BA068"/>
      <stop offset="1" stop-color="#A6D05D"/>
    </linearGradient>
    <clipPath id="a">
      <path fill="#fff" d="M0 0h1440v700H0z"/>
    </clipPath>
  </defs>
</svg>
