<svg xmlns="http://www.w3.org/2000/svg" width="1440" height="266" fill="none" viewBox="0 0 1440 266">
  <path fill="#075F55" d="M193.958 10.714v249.875h-54.079v-16.772c-11.893 13.559-29.562 21.768-53.722 21.768C38.925 265.585 0 224.539 0 171.348 0 118.157 38.94 77.11 86.157 77.11c24.16 0 41.813 8.21 53.722 21.769V10.714h54.079Zm-54.079 160.634c0-26.765-18.026-43.552-42.9-43.552-24.873 0-42.9 16.772-42.9 43.552S72.106 214.9 96.98 214.9c24.874 0 42.9-16.772 42.9-43.552ZM341.757 78.54v60.678c-22.359-3.566-54.08 5.35-54.08 40.693v80.678h-54.079V82.107h54.079v31.776c7.205-23.92 31.364-35.343 54.08-35.343ZM363.4 231.672c0-18.555 15.496-33.913 34.252-33.913s34.251 15.342 34.251 33.913c0 18.571-15.495 33.913-34.251 33.913S363.4 250.243 363.4 231.672Zm120.162-60.323c0-52.822 42.185-93.161 94.821-93.161 52.635 0 94.448 40.339 94.448 93.161s-42.186 93.161-94.448 93.161c-52.263 0-94.821-40.339-94.821-93.161Zm170.885 0c0-42.476-33.164-76.036-76.064-76.036-42.9 0-76.422 33.56-76.422 76.036s33.522 76.035 76.422 76.035 76.064-33.559 76.064-76.035Zm214.144-21.784v111.01h-18.384v-111.01c0-32.837-19.113-54.252-52.992-54.252s-63.085 22.845-63.085 71.04v94.237h-18.026V82.108h18.026v33.913c13.695-26.411 36.767-37.834 64.529-37.834 42.9 0 69.932 28.195 69.932 71.393v-.015ZM919.424 0h18.026v260.575h-18.026V0Zm68.13 24.627c0-7.502 6.49-13.928 14.426-13.928 7.93 0 14.42 6.426 14.42 13.928 0 7.502-6.49 14.281-14.42 14.281-7.936 0-14.426-6.425-14.426-14.281Zm5.403 57.48h18.023V260.59h-18.023V82.107Zm226.053 67.458v111.01h-18.38v-111.01c0-32.837-19.12-54.252-53-54.252-33.87 0-63.08 22.845-63.08 71.04v94.237h-18.03V82.108h18.03v33.913c13.69-26.411 36.77-37.834 64.53-37.834 42.9 0 69.93 28.195 69.93 71.393v-.015ZM1440 172.056c0 2.859-.36 5.719-.36 8.563h-163.31c4.34 40.339 35.33 66.75 76.43 66.75 29.56 0 51.92-13.559 62.37-32.483l15.86 9.285c-14.78 24.274-42.9 40.339-78.59 40.339-55.52 0-94.82-39.263-94.82-93.161s38.21-93.161 93.37-93.161c55.17 0 89.05 44.981 89.05 93.883v-.015Zm-163.68-8.916h144.92c-3.96-43.553-34.96-67.827-70.3-67.827-41.1 0-71.02 28.195-74.62 67.827Z" opacity=".3"/>
</svg>
