<svg xmlns="http://www.w3.org/2000/svg" width="1440" height="680" fill="none" viewBox="0 0 1440 680">
  <path fill="#fff" d="M0 0h1440v680H0z"/>
  <path fill="#075F55" d="M0 0h1440v680H0z"/>
  <g clip-path="url(#a)">
    <path fill="url(#b)" d="m1078.39 587.306 17.23-29.847.17-.289h34.81l17.4 30.128-17.24 29.847-.16.289h-34.81l-17.4-30.128Zm68.29 0-16.74-28.989h-33.5l-16.74 28.989 16.74 28.989h33.5l16.74-28.989Zm-68.29-236.468 17.23-29.847.17-.289h34.81l17.4 30.128-17.24 29.847-.16.289h-34.81l-17.4-30.128Zm68.29 0-16.74-28.989h-33.5l-16.74 28.989 16.74 28.989h33.5l16.74-28.989Zm-68.29-236.468 17.23-29.847.17-.289h34.81l17.4 30.128-17.24 29.847-.16.289h-34.81l-17.4-30.128Zm68.29 0-16.74-28.99h-33.5l-16.74 28.99 16.74 28.989h33.5l16.74-28.989Zm-119.52 502.502 17.24-29.847.16-.288h34.81l17.4 30.127-17.24 29.847-.16.289h-34.81l-17.4-30.128Zm68.29 0-16.74-28.989h-33.49l-16.75 28.989 16.75 28.989h33.49l16.74-28.989Zm-68.29-59.117 17.24-29.847.16-.289h34.81l17.4 30.128-17.24 29.847-.16.289h-34.81l-17.4-30.128Zm68.29 0-16.74-28.989h-33.49l-16.75 28.989 16.75 28.989h33.49l16.74-28.989Zm-68.29-118.234 17.24-29.847.16-.289h34.81l17.4 30.128-17.24 29.847-.16.289h-34.81l-17.4-30.128Zm68.29 0-16.74-28.989h-33.49l-16.75 28.989 16.75 28.989h33.49l16.74-28.989Zm-68.29-118.234 17.24-29.847.16-.289h34.81l17.4 30.128-17.24 29.847-.16.289h-34.81l-17.4-30.128Zm68.29 0-16.74-28.989h-33.49l-16.75 28.989 16.75 28.989h33.49l16.74-28.989Zm-68.29-118.234 17.24-29.847.16-.289h34.81l17.4 30.128-17.24 29.847-.16.289h-34.81l-17.4-30.128Zm68.29 0-16.74-28.989h-33.49l-16.75 28.989 16.75 28.989h33.49l16.74-28.989Zm-68.29-118.234 17.24-29.847.16-.289h34.81l17.4 30.128-17.24 29.847-.16.289h-34.81l-17.4-30.128Zm68.29 0-16.74-28.99h-33.49l-16.75 28.99 16.75 28.989h33.49l16.74-28.989Zm-120.229 443.37 17.237-29.847.164-.289h34.808l17.4 30.128-17.23 29.847-.17.289h-34.808l-17.401-30.128Zm68.299 0-16.74-28.989h-33.495l-16.746 28.989 16.746 28.989h33.495l16.74-28.989Zm-68.299-118.234 17.237-29.847.164-.289h34.808l17.4 30.128-17.23 29.847-.17.289h-34.808l-17.401-30.128Zm68.299 0-16.74-28.989h-33.495l-16.746 28.989 16.746 28.989h33.495l16.74-28.989Zm-68.299-59.117 17.237-29.847.164-.289h34.808l17.4 30.128-17.23 29.847-.17.289h-34.808l-17.401-30.128Zm68.299 0-16.74-28.989h-33.495l-16.746 28.989 16.746 28.989h33.495l16.74-28.989Zm-68.299-59.117 17.237-29.847.164-.289h34.808l17.4 30.128-17.23 29.847-.17.289h-34.808l-17.401-30.128Zm68.299 0-16.74-28.989h-33.495l-16.746 28.989 16.746 28.989h33.495l16.74-28.989Zm-68.299-118.234 17.237-29.847.164-.289h34.808l17.4 30.128-17.23 29.847-.17.289h-34.808l-17.401-30.128Zm68.299 0-16.74-28.989h-33.495l-16.746 28.989 16.746 28.989h33.495l16.74-28.989ZM975.221 55.253l17.237-29.847.164-.289h34.808l17.4 30.128-17.23 29.847-.17.288h-34.808l-17.401-30.127Zm68.299 0-16.74-28.99h-33.495l-16.746 28.99 16.746 28.989h33.495l16.74-28.99ZM923.992 557.755l17.238-29.847.164-.289h34.81l17.401 30.128-17.237 29.847-.164.289h-34.81l-17.402-30.128Zm68.302 0-16.746-28.989h-33.491l-16.746 28.989 16.746 28.989h33.491l16.746-28.989Zm-68.302-118.234 17.238-29.847.164-.289h34.81l17.401 30.128-17.237 29.847-.164.289h-34.81l-17.402-30.128Zm68.302 0-16.746-28.989h-33.491l-16.746 28.989 16.746 28.989h33.491l16.746-28.989Zm-68.302-118.234 17.238-29.847.164-.289h34.81l17.401 30.128-17.237 29.847-.164.289h-34.81l-17.402-30.128Zm68.302 0-16.746-28.989h-33.491l-16.746 28.989 16.746 28.989h33.491l16.746-28.989Zm-68.302-177.351 17.238-29.847.164-.289h34.81l17.401 30.128-17.237 29.847-.164.289h-34.81l-17.402-30.128Zm68.302 0-16.746-28.989h-33.491l-16.746 28.989 16.746 28.989h33.491l16.746-28.989Zm-68.302-59.117 17.238-29.847.164-.289h34.81l17.401 30.128-17.237 29.847-.164.289h-34.81l-17.402-30.128Zm68.302 0-16.746-28.99h-33.491l-16.746 28.99 16.746 28.989h33.491l16.746-28.989Zm-68.302-59.11L941.23-4.136l.164-.289h34.81l17.401 30.128-17.237 29.847-.164.289h-34.81L923.992 25.71Zm68.302 0L975.548-3.278h-33.491L925.311 25.71l16.746 28.989h33.491l16.746-28.99Zm-120.24 561.597 17.237-29.847.164-.289h34.81l17.402 30.128-17.238 29.847-.164.289h-34.81l-17.401-30.128Zm68.302 0-16.746-28.989h-33.492l-16.745 28.989 16.745 28.989h33.492l16.746-28.989Zm-68.302-177.351 17.237-29.847.164-.289h34.81l17.402 30.128-17.238 29.847-.164.289h-34.81l-17.401-30.128Zm68.302 0-16.746-28.989h-33.492l-16.745 28.989 16.745 28.989h33.492l16.746-28.989Zm-68.302-59.117 17.237-29.847.164-.289h34.81l17.402 30.128-17.238 29.847-.164.289h-34.81l-17.401-30.128Zm68.302 0-16.746-28.989h-33.492l-16.745 28.989 16.745 28.989h33.492l16.746-28.989Zm-68.302-59.117 17.237-29.847.164-.289h34.81l17.402 30.128-17.238 29.847-.164.289h-34.81l-17.401-30.128Zm68.302 0-16.746-28.989h-33.492l-16.745 28.989 16.745 28.989h33.492l16.746-28.989Zm-68.302-118.234 17.237-29.847.164-.289h34.81l17.402 30.128-17.238 29.847-.164.289h-34.81l-17.401-30.128Zm68.302 0-16.746-28.989h-33.492l-16.745 28.989 16.745 28.989h33.492l16.746-28.989Zm-68.302-59.117 17.237-29.847.164-.289h34.81l17.402 30.128-17.238 29.847-.164.289h-34.81l-17.401-30.128Zm68.302 0L923.61 85.38h-33.492l-16.745 28.99 16.745 28.989h33.492l16.746-28.989Zm-68.302-59.117 17.237-29.847.164-.289h34.81l17.402 30.128-17.238 29.847-.164.288h-34.81l-17.401-30.127Zm68.302 0-16.746-28.99h-33.492l-16.745 28.99 16.745 28.989h33.492l16.746-28.99Zm-119.53 443.385 17.237-29.847.164-.289h34.81l17.401 30.128-17.237 29.847-.164.289h-34.81l-17.401-30.128Zm68.301 0-16.745-28.989H838.89l-16.746 28.989 16.746 28.989h33.492l16.745-28.989Zm-68.301-59.117 17.237-29.847.164-.289h34.81l17.401 30.128-17.237 29.847-.164.289h-34.81l-17.401-30.128Zm68.301 0-16.745-28.989H838.89l-16.746 28.989 16.746 28.989h33.492l16.745-28.989Zm-68.301-59.117 17.237-29.847.164-.289h34.81l17.401 30.128-17.237 29.847-.164.289h-34.81l-17.401-30.128Zm68.301 0-16.745-28.989H838.89l-16.746 28.989 16.746 28.989h33.492l16.745-28.989Zm-68.301-59.117 17.237-29.847.164-.289h34.81l17.401 30.128-17.237 29.847-.164.289h-34.81l-17.401-30.128Zm68.301 0-16.745-28.989H838.89l-16.746 28.989 16.746 28.989h33.492l16.745-28.989Zm-68.301-118.234 17.237-29.847.164-.289h34.81l17.401 30.128-17.237 29.847-.164.289h-34.81l-17.401-30.128Zm68.301 0-16.745-28.989H838.89l-16.746 28.989 16.746 28.989h33.492l16.745-28.989Zm-68.301-59.117 17.237-29.847.164-.289h34.81l17.401 30.128-17.237 29.847-.164.289h-34.81l-17.401-30.128Zm68.301 0-16.745-28.989H838.89l-16.746 28.989 16.746 28.989h33.492l16.745-28.989Zm-120.24 443.37 17.238-29.847.163-.289h34.811l17.401 30.128-17.237 29.847-.164.289h-34.811l-17.401-30.128Zm68.302 0-16.746-28.989h-33.491l-16.746 28.989 16.746 28.989h33.491l16.746-28.989Zm-68.302-59.117 17.238-29.847.163-.289h34.811l17.401 30.128-17.237 29.847-.164.289h-34.811l-17.401-30.128Zm68.302 0L820.443 499.2h-33.491l-16.746 28.989 16.746 28.989h33.491l16.746-28.989Zm-68.302-59.117 17.238-29.847.163-.289h34.811l17.401 30.128-17.237 29.847-.164.289h-34.811l-17.401-30.128Zm68.302 0-16.746-28.989h-33.491l-16.746 28.989 16.746 28.989h33.491l16.746-28.989Zm-68.302-59.117 17.238-29.847.163-.289h34.811l17.401 30.128-17.237 29.847-.164.289h-34.811l-17.401-30.128Zm68.302 0-16.746-28.989h-33.491l-16.746 28.989 16.746 28.989h33.491l16.746-28.989Zm-68.302-177.351 17.238-29.847.163-.289h34.811l17.401 30.128-17.237 29.847-.164.289h-34.811l-17.401-30.128Zm68.302 0-16.746-28.989h-33.491l-16.746 28.989 16.746 28.989h33.491l16.746-28.989Zm-68.302-59.117 17.238-29.847.163-.289h34.811l17.401 30.128-17.237 29.847-.164.289h-34.811l-17.401-30.128Zm68.302 0-16.746-28.989h-33.491l-16.746 28.989 16.746 28.989h33.491l16.746-28.989Zm-68.302-59.117 17.238-29.847.163-.289h34.811l17.401 30.128-17.237 29.847-.164.289h-34.811l-17.401-30.128Zm68.302 0-16.746-28.99h-33.491l-16.746 28.99 16.746 28.989h33.491l16.746-28.989Zm-68.302-59.117 17.238-29.847.163-.289h34.811L838.5 55.245l-17.237 29.847-.164.288h-34.811l-17.401-30.127Zm68.302 0-16.746-28.99h-33.491l-16.746 28.99 16.746 28.989h33.491l16.746-28.99ZM768.887-3.864l17.238-29.847.163-.289h34.811L838.5-3.872l-17.237 29.847-.164.288h-34.811L768.887-3.863Zm68.302 0-16.746-28.99h-33.491l-16.746 28.99 16.746 28.989h33.491l16.746-28.99Zm-119.53 620.736 17.237-29.847.164-.288h34.81l17.402 30.127-17.238 29.847-.164.289h-34.81l-17.401-30.128Zm68.302 0-16.746-28.989h-33.492l-16.745 28.989 16.745 28.989h33.492l16.746-28.989Zm-68.302-59.117 17.237-29.847.164-.289h34.81l17.402 30.128-17.238 29.847-.164.289h-34.81l-17.401-30.128Zm68.302 0-16.746-28.989h-33.492l-16.745 28.989 16.745 28.989h33.492l16.746-28.989Zm-68.302-118.234 17.237-29.847.164-.289h34.81l17.402 30.128-17.238 29.847-.164.289h-34.81l-17.401-30.128Zm68.302 0-16.746-28.989h-33.492l-16.745 28.989 16.745 28.989h33.492l16.746-28.989Zm-68.302-118.234 17.237-29.847.164-.289h34.81l17.402 30.128-17.238 29.847-.164.289h-34.81l-17.401-30.128Zm68.302 0-16.746-28.989h-33.492l-16.745 28.989 16.745 28.989h33.492l16.746-28.989Zm-68.302-59.117 17.237-29.847.164-.289h34.81l17.402 30.128-17.238 29.847-.164.289h-34.81l-17.401-30.128Zm68.302 0-16.746-28.989h-33.492l-16.745 28.989 16.745 28.989h33.492l16.746-28.989Zm-68.302-59.117 17.237-29.847.164-.289h34.81l17.402 30.128-17.238 29.847-.164.289h-34.81l-17.401-30.128Zm68.302 0-16.746-28.989h-33.492l-16.745 28.989 16.745 28.989h33.492l16.746-28.989ZM717.659 84.819l17.237-29.847.164-.289h34.81l17.402 30.128-17.238 29.847-.164.289h-34.81l-17.401-30.128Zm68.302 0-16.746-28.99h-33.492l-16.745 28.99 16.745 28.989h33.492l16.746-28.989Zm-120.233 443.37 17.238-29.847.164-.289h34.81l17.401 30.128-17.237 29.847-.164.289h-34.81l-17.402-30.128Zm68.294 0L717.277 499.2h-33.492l-16.746 28.989 16.746 28.989h33.492l16.745-28.989Zm-68.294-118.234 17.238-29.847.164-.289h34.81l17.401 30.128-17.237 29.847-.164.289h-34.81l-17.402-30.128Zm68.294 0-16.745-28.989h-33.492l-16.746 28.989 16.746 28.989h33.492l16.745-28.989Zm-68.294-118.234 17.238-29.847.164-.289h34.81l17.401 30.128-17.237 29.847-.164.289h-34.81l-17.402-30.128Zm68.294 0-16.745-28.989h-33.492l-16.746 28.989 16.746 28.989h33.492l16.745-28.989Zm-68.294-59.117 17.238-29.847.164-.289h34.81l17.401 30.128-17.237 29.847-.164.289h-34.81l-17.402-30.128Zm68.294 0-16.745-28.989h-33.492l-16.746 28.989 16.746 28.989h33.492l16.745-28.989ZM665.728 114.37l17.238-29.847.164-.289h34.81l17.401 30.128-17.237 29.847-.164.289h-34.81l-17.402-30.128Zm68.294 0-16.745-28.99h-33.492l-16.746 28.99 16.746 28.989h33.492l16.745-28.989Zm-68.294-59.117 17.238-29.847.164-.289h34.81l17.401 30.128-17.237 29.847-.164.288h-34.81l-17.402-30.127Zm68.294 0-16.745-28.99h-33.492l-16.746 28.99 16.746 28.989h33.492l16.745-28.99ZM665.728-3.864l17.238-29.847.164-.289h34.81l17.401 30.128-17.237 29.847-.164.288h-34.81L665.728-3.863Zm68.294 0-16.745-28.99h-33.492l-16.746 28.99 16.746 28.989h33.492l16.745-28.99Zm-119.53 502.502 17.238-29.847.164-.289h34.81l17.401 30.128-17.237 29.847-.164.289h-34.81l-17.402-30.128Zm68.302 0-16.746-28.989h-33.491l-16.746 28.989 16.746 28.989h33.491l16.746-28.989Zm-68.302-59.117 17.238-29.847.164-.289h34.81l17.401 30.128-17.237 29.847-.164.289h-34.81l-17.402-30.128Zm68.302 0-16.746-28.989h-33.491l-16.746 28.989 16.746 28.989h33.491l16.746-28.989Zm-68.302-59.117 17.238-29.847.164-.289h34.81l17.401 30.128-17.237 29.847-.164.289h-34.81l-17.402-30.128Zm68.302 0-16.746-28.989h-33.491l-16.746 28.989 16.746 28.989h33.491l16.746-28.989Zm-68.302-59.117 17.238-29.847.164-.289h34.81l17.401 30.128-17.237 29.847-.164.289h-34.81l-17.402-30.128Zm68.302 0-16.746-28.989h-33.491l-16.746 28.989 16.746 28.989h33.491l16.746-28.989Zm-68.302-59.117 17.238-29.847.164-.289h34.81l17.401 30.128-17.237 29.847-.164.289h-34.81l-17.402-30.128Zm68.302 0-16.746-28.989h-33.491l-16.746 28.989 16.746 28.989h33.491l16.746-28.989Zm-68.302-59.117 17.238-29.847.164-.289h34.81l17.401 30.128-17.237 29.847-.164.289h-34.81l-17.402-30.128Zm68.302 0-16.746-28.989h-33.491l-16.746 28.989 16.746 28.989h33.491l16.746-28.989ZM562.562 587.306l17.237-29.847.164-.289h34.81l17.401 30.128-17.237 29.847-.164.289h-34.81l-17.401-30.128Zm68.294 0-16.746-28.989h-33.492l-16.745 28.989 16.745 28.989h33.492l16.746-28.989Zm-68.294-59.117 17.237-29.847.164-.289h34.81l17.401 30.128-17.237 29.847-.164.289h-34.81l-17.401-30.128Zm68.294 0L614.11 499.2h-33.492l-16.745 28.989 16.745 28.989h33.492l16.746-28.989Zm-68.294-59.117 17.237-29.847.164-.289h34.81l17.401 30.128-17.237 29.847-.164.289h-34.81l-17.401-30.128Zm68.294 0-16.746-28.989h-33.492l-16.745 28.989 16.745 28.989h33.492l16.746-28.989Zm-68.294-118.234 17.237-29.847.164-.289h34.81l17.401 30.128-17.237 29.847-.164.289h-34.81l-17.401-30.128Zm68.294 0-16.746-28.989h-33.492l-16.745 28.989 16.745 28.989h33.492l16.746-28.989Zm-68.294-118.234 17.237-29.847.164-.289h34.81l17.401 30.128-17.237 29.847-.164.289h-34.81l-17.401-30.128Zm68.294 0-16.746-28.989h-33.492l-16.745 28.989 16.745 28.989h33.492l16.746-28.989Zm-68.294-59.117 17.237-29.847.164-.289h34.81l17.401 30.128-17.237 29.847-.164.289h-34.81l-17.401-30.128Zm68.294 0-16.746-28.989h-33.492l-16.745 28.989 16.745 28.989h33.492l16.746-28.989Zm-68.294-59.117 17.237-29.847.164-.289h34.81l17.401 30.128-17.237 29.847-.164.289h-34.81l-17.401-30.128Zm68.294 0L614.11 85.38h-33.492l-16.745 28.99 16.745 28.989h33.492l16.746-28.989ZM511.333 616.872l17.238-29.847.164-.288h34.81l17.401 30.127-17.237 29.847-.164.289h-34.81l-17.402-30.128Zm68.294 0-16.745-28.989H529.39l-16.746 28.989 16.746 28.989h33.492l16.745-28.989Zm-68.294-59.117 17.238-29.847.164-.289h34.81l17.401 30.128-17.237 29.847-.164.289h-34.81l-17.402-30.128Zm68.294 0-16.745-28.989H529.39l-16.746 28.989 16.746 28.989h33.492l16.745-28.989Zm-68.294-59.117 17.238-29.847.164-.289h34.81l17.401 30.128-17.237 29.847-.164.289h-34.81l-17.402-30.128Zm68.294 0-16.745-28.989H529.39l-16.746 28.989 16.746 28.989h33.492l16.745-28.989Zm-68.294-59.117 17.238-29.847.164-.289h34.81l17.401 30.128-17.237 29.847-.164.289h-34.81l-17.402-30.128Zm68.294 0-16.745-28.989H529.39l-16.746 28.989 16.746 28.989h33.492l16.745-28.989Zm-68.294-59.117 17.238-29.847.164-.289h34.81l17.401 30.128-17.237 29.847-.164.289h-34.81l-17.402-30.128Zm68.294 0-16.745-28.989H529.39l-16.746 28.989 16.746 28.989h33.492l16.745-28.989ZM511.333 262.17l17.238-29.847.164-.289h34.81l17.401 30.128-17.237 29.847-.164.289h-34.81l-17.402-30.128Zm68.294 0-16.745-28.989H529.39l-16.746 28.989 16.746 28.989h33.492l16.745-28.989Zm-68.294-59.117 17.238-29.847.164-.289h34.81l17.401 30.128-17.237 29.847-.164.289h-34.81l-17.402-30.128Zm68.294 0-16.745-28.989H529.39l-16.746 28.989 16.746 28.989h33.492l16.745-28.989Zm-68.294-59.117 17.238-29.847.164-.289h34.81l17.401 30.128-17.237 29.847-.164.289h-34.81l-17.402-30.128Zm68.294 0-16.745-28.989H529.39l-16.746 28.989 16.746 28.989h33.492l16.745-28.989Zm-68.294-59.117 17.238-29.847.164-.289h34.81l17.401 30.128-17.237 29.847-.164.289h-34.81l-17.402-30.128Zm68.294 0-16.745-28.99H529.39l-16.746 28.99 16.746 28.989h33.492l16.745-28.989Zm-68.294-59.11 17.238-29.846.164-.289h34.81l17.401 30.128-17.237 29.847-.164.289h-34.81L511.333 25.71Zm68.294 0L562.882-3.278H529.39L512.644 25.71l16.746 28.989h33.492l16.745-28.99ZM459.395 587.307l17.237-29.847.164-.289h34.811l17.401 30.128-17.238 29.847-.163.289h-34.811l-17.401-30.128Zm68.294 0-16.746-28.989h-33.491l-16.746 28.989 16.746 28.989h33.491l16.746-28.989Zm-68.294-59.117 17.237-29.847.164-.289h34.811l17.401 30.128-17.238 29.847-.163.289h-34.811l-17.401-30.128Zm68.294 0-16.746-28.99h-33.491l-16.746 28.989 16.746 28.989h33.491l16.746-28.989Zm-68.294-118.234 17.237-29.847.164-.289h34.811l17.401 30.128-17.238 29.847-.163.289h-34.811l-17.401-30.128Zm68.294 0-16.746-28.989h-33.491l-16.746 28.989 16.746 28.989h33.491l16.746-28.989Zm-68.294-59.117 17.237-29.847.164-.289h34.811l17.401 30.128-17.238 29.847-.163.289h-34.811l-17.401-30.128Zm68.294 0-16.746-28.989h-33.491l-16.746 28.989 16.746 28.989h33.491l16.746-28.989Zm-68.294-59.117 17.237-29.847.164-.289h34.811l17.401 30.128-17.238 29.847-.163.289h-34.811l-17.401-30.128Zm68.294 0-16.746-28.989h-33.491l-16.746 28.989 16.746 28.989h33.491l16.746-28.989Zm-68.294-118.234 17.237-29.847.164-.289h34.811l17.401 30.128-17.238 29.847-.163.289h-34.811l-17.401-30.128Zm68.294 0-16.746-28.989h-33.491l-16.746 28.989 16.746 28.989h33.491l16.746-28.989Zm-68.294-59.117 17.237-29.847.164-.289h34.811l17.401 30.128-17.238 29.847-.163.289h-34.811l-17.401-30.128Zm68.294 0-16.746-28.99h-33.491l-16.746 28.99 16.746 28.989h33.491l16.746-28.989Zm-68.294-59.117 17.237-29.847.164-.289h34.811l17.401 30.128-17.238 29.847-.163.288h-34.811l-17.401-30.127Zm68.294 0-16.746-28.99h-33.491l-16.746 28.99 16.746 28.989h33.491l16.746-28.99ZM459.395-3.864l17.237-29.847.164-.289h34.811l17.401 30.128-17.238 29.847-.163.288h-34.811L459.395-3.863Zm68.294 0-16.746-28.99h-33.491l-16.746 28.99 16.746 28.989h33.491l16.746-28.99ZM408.167 616.872l17.237-29.847.164-.288h34.81l17.401 30.127-17.237 29.847-.164.289h-34.81l-17.401-30.128Zm68.294 0-16.746-28.989h-33.492l-16.745 28.989 16.745 28.989h33.492l16.746-28.989Zm-68.294-59.117 17.237-29.847.164-.289h34.81l17.401 30.128-17.237 29.847-.164.289h-34.81l-17.401-30.128Zm68.294 0-16.746-28.989h-33.492l-16.745 28.989 16.745 28.989h33.492l16.746-28.989Zm-68.294-59.117 17.237-29.847.164-.289h34.81l17.401 30.128-17.237 29.847-.164.289h-34.81l-17.401-30.128Zm68.294 0-16.746-28.989h-33.492l-16.745 28.989 16.745 28.989h33.492l16.746-28.989Zm-68.294-118.234 17.237-29.847.164-.289h34.81l17.401 30.128-17.237 29.847-.164.289h-34.81l-17.401-30.128Zm68.294 0-16.746-28.989h-33.492l-16.745 28.989 16.745 28.989h33.492l16.746-28.989Zm-68.294-59.117 17.237-29.847.164-.289h34.81l17.401 30.128-17.237 29.847-.164.289h-34.81l-17.401-30.128Zm68.294 0-16.746-28.989h-33.492l-16.745 28.989 16.745 28.989h33.492l16.746-28.989Zm-68.294-59.117 17.237-29.847.164-.289h34.81l17.401 30.128-17.237 29.847-.164.289h-34.81l-17.401-30.128Zm68.294 0-16.746-28.989h-33.492l-16.745 28.989 16.745 28.989h33.492l16.746-28.989Zm-68.294-59.117 17.237-29.847.164-.289h34.81l17.401 30.128-17.237 29.847-.164.289h-34.81l-17.401-30.128Zm68.294 0-16.746-28.989h-33.492l-16.745 28.989 16.745 28.989h33.492l16.746-28.989ZM408.167 84.819l17.237-29.847.164-.289h34.81l17.401 30.128-17.237 29.847-.164.289h-34.81l-17.401-30.128Zm68.294 0-16.746-28.99h-33.492l-16.745 28.99 16.745 28.989h33.492l16.746-28.989Zm-68.294-59.11 17.237-29.846.164-.289h34.81l17.401 30.128-17.237 29.847-.164.289h-34.81L408.167 25.71Zm68.294 0L459.715-3.278h-33.492L409.478 25.71l16.745 28.989h33.492l16.746-28.99ZM356.228 587.307l17.238-29.847.164-.289h34.81l17.401 30.128-17.237 29.847-.164.289h-34.81l-17.402-30.128Zm68.302 0-16.746-28.989h-33.491l-16.746 28.989 16.746 28.989h33.491l16.746-28.989Zm-68.302-59.117 17.238-29.847.164-.289h34.81l17.401 30.128-17.237 29.847-.164.289h-34.81l-17.402-30.128Zm68.302 0-16.746-28.99h-33.491l-16.746 28.989 16.746 28.989h33.491l16.746-28.989Zm-68.302-59.117 17.238-29.847.164-.289h34.81l17.401 30.128-17.237 29.847-.164.289h-34.81l-17.402-30.128Zm68.302 0-16.746-28.989h-33.491l-16.746 28.989 16.746 28.989h33.491l16.746-28.989Zm-68.302-118.234 17.238-29.847.164-.289h34.81l17.401 30.128-17.237 29.847-.164.289h-34.81l-17.402-30.128Zm68.302 0-16.746-28.989h-33.491l-16.746 28.989 16.746 28.989h33.491l16.746-28.989Zm-68.302-59.117 17.238-29.847.164-.289h34.81l17.401 30.128-17.237 29.847-.164.289h-34.81l-17.402-30.128Zm68.302 0-16.746-28.989h-33.491l-16.746 28.989 16.746 28.989h33.491l16.746-28.989Zm-68.302-59.117 17.238-29.847.164-.289h34.81l17.401 30.128-17.237 29.847-.164.289h-34.81l-17.402-30.128Zm68.302 0-16.746-28.989h-33.491l-16.746 28.989 16.746 28.989h33.491l16.746-28.989ZM356.228 114.37l17.238-29.847.164-.289h34.81l17.401 30.128-17.237 29.847-.164.289h-34.81l-17.402-30.128Zm68.302 0-16.746-28.99h-33.491l-16.746 28.99 16.746 28.989h33.491l16.746-28.989Zm-68.302-59.117 17.238-29.847.164-.289h34.81l17.401 30.128-17.237 29.847-.164.288h-34.81l-17.402-30.127Zm68.302 0-16.746-28.99h-33.491l-16.746 28.99 16.746 28.989h33.491l16.746-28.99ZM356.228-3.864l17.238-29.847.164-.289h34.81l17.401 30.128-17.237 29.847-.164.288h-34.81L356.228-3.863Zm68.302 0-16.746-28.99h-33.491l-16.746 28.99 16.746 28.989h33.491l16.746-28.99ZM305 616.872l17.237-29.847.164-.288h34.811l17.401 30.127-17.238 29.847-.163.289h-34.811L305 616.872Zm68.302 0-16.746-28.989h-33.491l-16.746 28.989 16.746 28.989h33.491l16.746-28.989ZM305 498.638l17.237-29.847.164-.289h34.811l17.401 30.128-17.238 29.847-.163.289h-34.811L305 498.638Zm68.302 0-16.746-28.989h-33.491l-16.746 28.989 16.746 28.989h33.491l16.746-28.989ZM305 439.521l17.237-29.847.164-.289h34.811l17.401 30.128-17.238 29.847-.163.289h-34.811L305 439.521Zm68.302 0-16.746-28.989h-33.491l-16.746 28.989 16.746 28.989h33.491l16.746-28.989ZM305 321.287l17.237-29.847.164-.289h34.811l17.401 30.128-17.238 29.847-.163.289h-34.811L305 321.287Zm68.302 0-16.746-28.989h-33.491l-16.746 28.989 16.746 28.989h33.491l16.746-28.989ZM305 203.053l17.237-29.847.164-.289h34.811l17.401 30.128-17.238 29.847-.163.289h-34.811L305 203.053Zm68.302 0-16.746-28.989h-33.491l-16.746 28.989 16.746 28.989h33.491l16.746-28.989ZM305 143.936l17.237-29.847.164-.289h34.811l17.401 30.128-17.238 29.847-.163.289h-34.811L305 143.936Zm68.302 0-16.746-28.989h-33.491l-16.746 28.989 16.746 28.989h33.491l16.746-28.989ZM305 84.819l17.237-29.847.164-.289h34.811l17.401 30.128-17.238 29.847-.163.289h-34.811L305 84.819Zm68.302 0-16.746-28.99h-33.491l-16.746 28.99 16.746 28.989h33.491l16.746-28.989ZM305 25.709l17.237-29.846.164-.289h34.811l17.401 30.128-17.238 29.847-.163.289h-34.811L305 25.71Zm68.302 0L356.556-3.278h-33.491L306.319 25.71l16.746 28.989h33.491l16.746-28.99Zm705.088 561.597 17.23-29.847.17-.289h34.81l17.4 30.128-17.24 29.847-.16.289h-34.81l-17.4-30.128Zm68.29 0-16.74-28.989h-33.5l-16.74 28.989 16.74 28.989h33.5l16.74-28.989Zm-68.29-236.468 17.23-29.847.17-.289h34.81l17.4 30.128-17.24 29.847-.16.289h-34.81l-17.4-30.128Zm68.29 0-16.74-28.989h-33.5l-16.74 28.989 16.74 28.989h33.5l16.74-28.989Zm-68.29-236.468 17.23-29.847.17-.289h34.81l17.4 30.128-17.24 29.847-.16.289h-34.81l-17.4-30.128Zm68.29 0-16.74-28.99h-33.5l-16.74 28.99 16.74 28.989h33.5l16.74-28.989Zm-119.52 502.502 17.24-29.847.16-.288h34.81l17.4 30.127-17.24 29.847-.16.289h-34.81l-17.4-30.128Zm68.29 0-16.74-28.989h-33.49l-16.75 28.989 16.75 28.989h33.49l16.74-28.989Zm-68.29-59.117 17.24-29.847.16-.289h34.81l17.4 30.128-17.24 29.847-.16.289h-34.81l-17.4-30.128Zm68.29 0-16.74-28.989h-33.49l-16.75 28.989 16.75 28.989h33.49l16.74-28.989Zm-68.29-118.234 17.24-29.847.16-.289h34.81l17.4 30.128-17.24 29.847-.16.289h-34.81l-17.4-30.128Zm68.29 0-16.74-28.989h-33.49l-16.75 28.989 16.75 28.989h33.49l16.74-28.989Zm-68.29-118.234 17.24-29.847.16-.289h34.81l17.4 30.128-17.24 29.847-.16.289h-34.81l-17.4-30.128Zm68.29 0-16.74-28.989h-33.49l-16.75 28.989 16.75 28.989h33.49l16.74-28.989Zm-68.29-118.234 17.24-29.847.16-.289h34.81l17.4 30.128-17.24 29.847-.16.289h-34.81l-17.4-30.128Zm68.29 0-16.74-28.989h-33.49l-16.75 28.989 16.75 28.989h33.49l16.74-28.989Zm-68.29-118.234 17.24-29.847.16-.289h34.81l17.4 30.128-17.24 29.847-.16.289h-34.81l-17.4-30.128Zm68.29 0-16.74-28.99h-33.49l-16.75 28.99 16.75 28.989h33.49l16.74-28.989Zm-120.229 443.37 17.237-29.847.164-.289h34.808l17.4 30.128-17.23 29.847-.17.289h-34.808l-17.401-30.128Zm68.299 0-16.74-28.989h-33.495l-16.746 28.989 16.746 28.989h33.495l16.74-28.989Zm-68.299-118.234 17.237-29.847.164-.289h34.808l17.4 30.128-17.23 29.847-.17.289h-34.808l-17.401-30.128Zm68.299 0-16.74-28.989h-33.495l-16.746 28.989 16.746 28.989h33.495l16.74-28.989Zm-68.299-59.117 17.237-29.847.164-.289h34.808l17.4 30.128-17.23 29.847-.17.289h-34.808l-17.401-30.128Zm68.299 0-16.74-28.989h-33.495l-16.746 28.989 16.746 28.989h33.495l16.74-28.989Zm-68.299-59.117 17.237-29.847.164-.289h34.808l17.4 30.128-17.23 29.847-.17.289h-34.808l-17.401-30.128Zm68.299 0-16.74-28.989h-33.495l-16.746 28.989 16.746 28.989h33.495l16.74-28.989Zm-68.299-118.234 17.237-29.847.164-.289h34.808l17.4 30.128-17.23 29.847-.17.289h-34.808l-17.401-30.128Zm68.299 0-16.74-28.989h-33.495l-16.746 28.989 16.746 28.989h33.495l16.74-28.989ZM975.221 55.253l17.237-29.847.164-.289h34.808l17.4 30.128-17.23 29.847-.17.288h-34.808l-17.401-30.127Zm68.299 0-16.74-28.99h-33.495l-16.746 28.99 16.746 28.989h33.495l16.74-28.99ZM923.992 557.755l17.238-29.847.164-.289h34.81l17.401 30.128-17.237 29.847-.164.289h-34.81l-17.402-30.128Zm68.302 0-16.746-28.989h-33.491l-16.746 28.989 16.746 28.989h33.491l16.746-28.989Zm-68.302-118.234 17.238-29.847.164-.289h34.81l17.401 30.128-17.237 29.847-.164.289h-34.81l-17.402-30.128Zm68.302 0-16.746-28.989h-33.491l-16.746 28.989 16.746 28.989h33.491l16.746-28.989Zm-68.302-118.234 17.238-29.847.164-.289h34.81l17.401 30.128-17.237 29.847-.164.289h-34.81l-17.402-30.128Zm68.302 0-16.746-28.989h-33.491l-16.746 28.989 16.746 28.989h33.491l16.746-28.989Zm-68.302-177.351 17.238-29.847.164-.289h34.81l17.401 30.128-17.237 29.847-.164.289h-34.81l-17.402-30.128Zm68.302 0-16.746-28.989h-33.491l-16.746 28.989 16.746 28.989h33.491l16.746-28.989Zm-68.302-59.117 17.238-29.847.164-.289h34.81l17.401 30.128-17.237 29.847-.164.289h-34.81l-17.402-30.128Zm68.302 0-16.746-28.99h-33.491l-16.746 28.99 16.746 28.989h33.491l16.746-28.989Zm-68.302-59.11L941.23-4.136l.164-.289h34.81l17.401 30.128-17.237 29.847-.164.289h-34.81L923.992 25.71Zm68.302 0L975.548-3.278h-33.491L925.311 25.71l16.746 28.989h33.491l16.746-28.99Zm-120.24 561.597 17.237-29.847.164-.289h34.81l17.402 30.128-17.238 29.847-.164.289h-34.81l-17.401-30.128Zm68.302 0-16.746-28.989h-33.492l-16.745 28.989 16.745 28.989h33.492l16.746-28.989Zm-68.302-177.351 17.237-29.847.164-.289h34.81l17.402 30.128-17.238 29.847-.164.289h-34.81l-17.401-30.128Zm68.302 0-16.746-28.989h-33.492l-16.745 28.989 16.745 28.989h33.492l16.746-28.989Zm-68.302-59.117 17.237-29.847.164-.289h34.81l17.402 30.128-17.238 29.847-.164.289h-34.81l-17.401-30.128Zm68.302 0-16.746-28.989h-33.492l-16.745 28.989 16.745 28.989h33.492l16.746-28.989Zm-68.302-59.117 17.237-29.847.164-.289h34.81l17.402 30.128-17.238 29.847-.164.289h-34.81l-17.401-30.128Zm68.302 0-16.746-28.989h-33.492l-16.745 28.989 16.745 28.989h33.492l16.746-28.989Zm-68.302-118.234 17.237-29.847.164-.289h34.81l17.402 30.128-17.238 29.847-.164.289h-34.81l-17.401-30.128Zm68.302 0-16.746-28.989h-33.492l-16.745 28.989 16.745 28.989h33.492l16.746-28.989Zm-68.302-59.117 17.237-29.847.164-.289h34.81l17.402 30.128-17.238 29.847-.164.289h-34.81l-17.401-30.128Zm68.302 0L923.61 85.38h-33.492l-16.745 28.99 16.745 28.989h33.492l16.746-28.989Zm-68.302-59.117 17.237-29.847.164-.289h34.81l17.402 30.128-17.238 29.847-.164.288h-34.81l-17.401-30.127Zm68.302 0-16.746-28.99h-33.492l-16.745 28.99 16.745 28.989h33.492l16.746-28.99Zm-119.53 443.385 17.237-29.847.164-.289h34.81l17.401 30.128-17.237 29.847-.164.289h-34.81l-17.401-30.128Zm68.301 0-16.745-28.989H838.89l-16.746 28.989 16.746 28.989h33.492l16.745-28.989Zm-68.301-59.117 17.237-29.847.164-.289h34.81l17.401 30.128-17.237 29.847-.164.289h-34.81l-17.401-30.128Zm68.301 0-16.745-28.989H838.89l-16.746 28.989 16.746 28.989h33.492l16.745-28.989Zm-68.301-59.117 17.237-29.847.164-.289h34.81l17.401 30.128-17.237 29.847-.164.289h-34.81l-17.401-30.128Zm68.301 0-16.745-28.989H838.89l-16.746 28.989 16.746 28.989h33.492l16.745-28.989Zm-68.301-59.117 17.237-29.847.164-.289h34.81l17.401 30.128-17.237 29.847-.164.289h-34.81l-17.401-30.128Zm68.301 0-16.745-28.989H838.89l-16.746 28.989 16.746 28.989h33.492l16.745-28.989Zm-68.301-118.234 17.237-29.847.164-.289h34.81l17.401 30.128-17.237 29.847-.164.289h-34.81l-17.401-30.128Zm68.301 0-16.745-28.989H838.89l-16.746 28.989 16.746 28.989h33.492l16.745-28.989Zm-68.301-59.117 17.237-29.847.164-.289h34.81l17.401 30.128-17.237 29.847-.164.289h-34.81l-17.401-30.128Zm68.301 0-16.745-28.989H838.89l-16.746 28.989 16.746 28.989h33.492l16.745-28.989Zm-120.24 443.37 17.238-29.847.163-.289h34.811l17.401 30.128-17.237 29.847-.164.289h-34.811l-17.401-30.128Zm68.302 0-16.746-28.989h-33.491l-16.746 28.989 16.746 28.989h33.491l16.746-28.989Zm-68.302-59.117 17.238-29.847.163-.289h34.811l17.401 30.128-17.237 29.847-.164.289h-34.811l-17.401-30.128Zm68.302 0L820.443 499.2h-33.491l-16.746 28.989 16.746 28.989h33.491l16.746-28.989Zm-68.302-59.117 17.238-29.847.163-.289h34.811l17.401 30.128-17.237 29.847-.164.289h-34.811l-17.401-30.128Zm68.302 0-16.746-28.989h-33.491l-16.746 28.989 16.746 28.989h33.491l16.746-28.989Zm-68.302-59.117 17.238-29.847.163-.289h34.811l17.401 30.128-17.237 29.847-.164.289h-34.811l-17.401-30.128Zm68.302 0-16.746-28.989h-33.491l-16.746 28.989 16.746 28.989h33.491l16.746-28.989Zm-68.302-177.351 17.238-29.847.163-.289h34.811l17.401 30.128-17.237 29.847-.164.289h-34.811l-17.401-30.128Zm68.302 0-16.746-28.989h-33.491l-16.746 28.989 16.746 28.989h33.491l16.746-28.989Zm-68.302-59.117 17.238-29.847.163-.289h34.811l17.401 30.128-17.237 29.847-.164.289h-34.811l-17.401-30.128Zm68.302 0-16.746-28.989h-33.491l-16.746 28.989 16.746 28.989h33.491l16.746-28.989Zm-68.302-59.117 17.238-29.847.163-.289h34.811l17.401 30.128-17.237 29.847-.164.289h-34.811l-17.401-30.128Zm68.302 0-16.746-28.99h-33.491l-16.746 28.99 16.746 28.989h33.491l16.746-28.989Zm-68.302-59.117 17.238-29.847.163-.289h34.811L838.5 55.245l-17.237 29.847-.164.288h-34.811l-17.401-30.127Zm68.302 0-16.746-28.99h-33.491l-16.746 28.99 16.746 28.989h33.491l16.746-28.99ZM768.887-3.864l17.238-29.847.163-.289h34.811L838.5-3.872l-17.237 29.847-.164.288h-34.811L768.887-3.863Zm68.302 0-16.746-28.99h-33.491l-16.746 28.99 16.746 28.989h33.491l16.746-28.99Zm-119.53 620.736 17.237-29.847.164-.288h34.81l17.402 30.127-17.238 29.847-.164.289h-34.81l-17.401-30.128Zm68.302 0-16.746-28.989h-33.492l-16.745 28.989 16.745 28.989h33.492l16.746-28.989Zm-68.302-59.117 17.237-29.847.164-.289h34.81l17.402 30.128-17.238 29.847-.164.289h-34.81l-17.401-30.128Zm68.302 0-16.746-28.989h-33.492l-16.745 28.989 16.745 28.989h33.492l16.746-28.989Zm-68.302-118.234 17.237-29.847.164-.289h34.81l17.402 30.128-17.238 29.847-.164.289h-34.81l-17.401-30.128Zm68.302 0-16.746-28.989h-33.492l-16.745 28.989 16.745 28.989h33.492l16.746-28.989Zm-68.302-118.234 17.237-29.847.164-.289h34.81l17.402 30.128-17.238 29.847-.164.289h-34.81l-17.401-30.128Zm68.302 0-16.746-28.989h-33.492l-16.745 28.989 16.745 28.989h33.492l16.746-28.989Zm-68.302-59.117 17.237-29.847.164-.289h34.81l17.402 30.128-17.238 29.847-.164.289h-34.81l-17.401-30.128Zm68.302 0-16.746-28.989h-33.492l-16.745 28.989 16.745 28.989h33.492l16.746-28.989Zm-68.302-59.117 17.237-29.847.164-.289h34.81l17.402 30.128-17.238 29.847-.164.289h-34.81l-17.401-30.128Zm68.302 0-16.746-28.989h-33.492l-16.745 28.989 16.745 28.989h33.492l16.746-28.989ZM717.659 84.819l17.237-29.847.164-.289h34.81l17.402 30.128-17.238 29.847-.164.289h-34.81l-17.401-30.128Zm68.302 0-16.746-28.99h-33.492l-16.745 28.99 16.745 28.989h33.492l16.746-28.989Zm-120.233 443.37 17.238-29.847.164-.289h34.81l17.401 30.128-17.237 29.847-.164.289h-34.81l-17.402-30.128Zm68.294 0L717.277 499.2h-33.492l-16.746 28.989 16.746 28.989h33.492l16.745-28.989Zm-68.294-118.234 17.238-29.847.164-.289h34.81l17.401 30.128-17.237 29.847-.164.289h-34.81l-17.402-30.128Zm68.294 0-16.745-28.989h-33.492l-16.746 28.989 16.746 28.989h33.492l16.745-28.989Zm-68.294-118.234 17.238-29.847.164-.289h34.81l17.401 30.128-17.237 29.847-.164.289h-34.81l-17.402-30.128Zm68.294 0-16.745-28.989h-33.492l-16.746 28.989 16.746 28.989h33.492l16.745-28.989Zm-68.294-59.117 17.238-29.847.164-.289h34.81l17.401 30.128-17.237 29.847-.164.289h-34.81l-17.402-30.128Zm68.294 0-16.745-28.989h-33.492l-16.746 28.989 16.746 28.989h33.492l16.745-28.989ZM665.728 114.37l17.238-29.847.164-.289h34.81l17.401 30.128-17.237 29.847-.164.289h-34.81l-17.402-30.128Zm68.294 0-16.745-28.99h-33.492l-16.746 28.99 16.746 28.989h33.492l16.745-28.989Zm-68.294-59.117 17.238-29.847.164-.289h34.81l17.401 30.128-17.237 29.847-.164.288h-34.81l-17.402-30.127Zm68.294 0-16.745-28.99h-33.492l-16.746 28.99 16.746 28.989h33.492l16.745-28.99ZM665.728-3.864l17.238-29.847.164-.289h34.81l17.401 30.128-17.237 29.847-.164.288h-34.81L665.728-3.863Zm68.294 0-16.745-28.99h-33.492l-16.746 28.99 16.746 28.989h33.492l16.745-28.99Zm-119.53 502.502 17.238-29.847.164-.289h34.81l17.401 30.128-17.237 29.847-.164.289h-34.81l-17.402-30.128Zm68.302 0-16.746-28.989h-33.491l-16.746 28.989 16.746 28.989h33.491l16.746-28.989Zm-68.302-59.117 17.238-29.847.164-.289h34.81l17.401 30.128-17.237 29.847-.164.289h-34.81l-17.402-30.128Zm68.302 0-16.746-28.989h-33.491l-16.746 28.989 16.746 28.989h33.491l16.746-28.989Zm-68.302-59.117 17.238-29.847.164-.289h34.81l17.401 30.128-17.237 29.847-.164.289h-34.81l-17.402-30.128Zm68.302 0-16.746-28.989h-33.491l-16.746 28.989 16.746 28.989h33.491l16.746-28.989Zm-68.302-59.117 17.238-29.847.164-.289h34.81l17.401 30.128-17.237 29.847-.164.289h-34.81l-17.402-30.128Zm68.302 0-16.746-28.989h-33.491l-16.746 28.989 16.746 28.989h33.491l16.746-28.989Zm-68.302-59.117 17.238-29.847.164-.289h34.81l17.401 30.128-17.237 29.847-.164.289h-34.81l-17.402-30.128Zm68.302 0-16.746-28.989h-33.491l-16.746 28.989 16.746 28.989h33.491l16.746-28.989Zm-68.302-59.117 17.238-29.847.164-.289h34.81l17.401 30.128-17.237 29.847-.164.289h-34.81l-17.402-30.128Zm68.302 0-16.746-28.989h-33.491l-16.746 28.989 16.746 28.989h33.491l16.746-28.989ZM562.562 587.306l17.237-29.847.164-.289h34.81l17.401 30.128-17.237 29.847-.164.289h-34.81l-17.401-30.128Zm68.294 0-16.746-28.989h-33.492l-16.745 28.989 16.745 28.989h33.492l16.746-28.989Zm-68.294-59.117 17.237-29.847.164-.289h34.81l17.401 30.128-17.237 29.847-.164.289h-34.81l-17.401-30.128Zm68.294 0L614.11 499.2h-33.492l-16.745 28.989 16.745 28.989h33.492l16.746-28.989Zm-68.294-59.117 17.237-29.847.164-.289h34.81l17.401 30.128-17.237 29.847-.164.289h-34.81l-17.401-30.128Zm68.294 0-16.746-28.989h-33.492l-16.745 28.989 16.745 28.989h33.492l16.746-28.989Zm-68.294-118.234 17.237-29.847.164-.289h34.81l17.401 30.128-17.237 29.847-.164.289h-34.81l-17.401-30.128Zm68.294 0-16.746-28.989h-33.492l-16.745 28.989 16.745 28.989h33.492l16.746-28.989Zm-68.294-118.234 17.237-29.847.164-.289h34.81l17.401 30.128-17.237 29.847-.164.289h-34.81l-17.401-30.128Zm68.294 0-16.746-28.989h-33.492l-16.745 28.989 16.745 28.989h33.492l16.746-28.989Zm-68.294-59.117 17.237-29.847.164-.289h34.81l17.401 30.128-17.237 29.847-.164.289h-34.81l-17.401-30.128Zm68.294 0-16.746-28.989h-33.492l-16.745 28.989 16.745 28.989h33.492l16.746-28.989Zm-68.294-59.117 17.237-29.847.164-.289h34.81l17.401 30.128-17.237 29.847-.164.289h-34.81l-17.401-30.128Zm68.294 0L614.11 85.38h-33.492l-16.745 28.99 16.745 28.989h33.492l16.746-28.989ZM511.333 616.872l17.238-29.847.164-.288h34.81l17.401 30.127-17.237 29.847-.164.289h-34.81l-17.402-30.128Zm68.294 0-16.745-28.989H529.39l-16.746 28.989 16.746 28.989h33.492l16.745-28.989Zm-68.294-59.117 17.238-29.847.164-.289h34.81l17.401 30.128-17.237 29.847-.164.289h-34.81l-17.402-30.128Zm68.294 0-16.745-28.989H529.39l-16.746 28.989 16.746 28.989h33.492l16.745-28.989Zm-68.294-59.117 17.238-29.847.164-.289h34.81l17.401 30.128-17.237 29.847-.164.289h-34.81l-17.402-30.128Zm68.294 0-16.745-28.989H529.39l-16.746 28.989 16.746 28.989h33.492l16.745-28.989Zm-68.294-59.117 17.238-29.847.164-.289h34.81l17.401 30.128-17.237 29.847-.164.289h-34.81l-17.402-30.128Zm68.294 0-16.745-28.989H529.39l-16.746 28.989 16.746 28.989h33.492l16.745-28.989Zm-68.294-59.117 17.238-29.847.164-.289h34.81l17.401 30.128-17.237 29.847-.164.289h-34.81l-17.402-30.128Zm68.294 0-16.745-28.989H529.39l-16.746 28.989 16.746 28.989h33.492l16.745-28.989ZM511.333 262.17l17.238-29.847.164-.289h34.81l17.401 30.128-17.237 29.847-.164.289h-34.81l-17.402-30.128Zm68.294 0-16.745-28.989H529.39l-16.746 28.989 16.746 28.989h33.492l16.745-28.989Zm-68.294-59.117 17.238-29.847.164-.289h34.81l17.401 30.128-17.237 29.847-.164.289h-34.81l-17.402-30.128Zm68.294 0-16.745-28.989H529.39l-16.746 28.989 16.746 28.989h33.492l16.745-28.989Zm-68.294-59.117 17.238-29.847.164-.289h34.81l17.401 30.128-17.237 29.847-.164.289h-34.81l-17.402-30.128Zm68.294 0-16.745-28.989H529.39l-16.746 28.989 16.746 28.989h33.492l16.745-28.989Zm-68.294-59.117 17.238-29.847.164-.289h34.81l17.401 30.128-17.237 29.847-.164.289h-34.81l-17.402-30.128Zm68.294 0-16.745-28.99H529.39l-16.746 28.99 16.746 28.989h33.492l16.745-28.989Zm-68.294-59.11 17.238-29.846.164-.289h34.81l17.401 30.128-17.237 29.847-.164.289h-34.81L511.333 25.71Zm68.294 0L562.882-3.278H529.39L512.644 25.71l16.746 28.989h33.492l16.745-28.99ZM459.395 587.307l17.237-29.847.164-.289h34.811l17.401 30.128-17.238 29.847-.163.289h-34.811l-17.401-30.128Zm68.294 0-16.746-28.989h-33.491l-16.746 28.989 16.746 28.989h33.491l16.746-28.989Zm-68.294-59.117 17.237-29.847.164-.289h34.811l17.401 30.128-17.238 29.847-.163.289h-34.811l-17.401-30.128Zm68.294 0-16.746-28.99h-33.491l-16.746 28.989 16.746 28.989h33.491l16.746-28.989Zm-68.294-118.234 17.237-29.847.164-.289h34.811l17.401 30.128-17.238 29.847-.163.289h-34.811l-17.401-30.128Zm68.294 0-16.746-28.989h-33.491l-16.746 28.989 16.746 28.989h33.491l16.746-28.989Zm-68.294-59.117 17.237-29.847.164-.289h34.811l17.401 30.128-17.238 29.847-.163.289h-34.811l-17.401-30.128Zm68.294 0-16.746-28.989h-33.491l-16.746 28.989 16.746 28.989h33.491l16.746-28.989Zm-68.294-59.117 17.237-29.847.164-.289h34.811l17.401 30.128-17.238 29.847-.163.289h-34.811l-17.401-30.128Zm68.294 0-16.746-28.989h-33.491l-16.746 28.989 16.746 28.989h33.491l16.746-28.989Zm-68.294-118.234 17.237-29.847.164-.289h34.811l17.401 30.128-17.238 29.847-.163.289h-34.811l-17.401-30.128Zm68.294 0-16.746-28.989h-33.491l-16.746 28.989 16.746 28.989h33.491l16.746-28.989Zm-68.294-59.117 17.237-29.847.164-.289h34.811l17.401 30.128-17.238 29.847-.163.289h-34.811l-17.401-30.128Zm68.294 0-16.746-28.99h-33.491l-16.746 28.99 16.746 28.989h33.491l16.746-28.989Zm-68.294-59.117 17.237-29.847.164-.289h34.811l17.401 30.128-17.238 29.847-.163.288h-34.811l-17.401-30.127Zm68.294 0-16.746-28.99h-33.491l-16.746 28.99 16.746 28.989h33.491l16.746-28.99ZM459.395-3.864l17.237-29.847.164-.289h34.811l17.401 30.128-17.238 29.847-.163.288h-34.811L459.395-3.863Zm68.294 0-16.746-28.99h-33.491l-16.746 28.99 16.746 28.989h33.491l16.746-28.99ZM408.167 616.872l17.237-29.847.164-.288h34.81l17.401 30.127-17.237 29.847-.164.289h-34.81l-17.401-30.128Zm68.294 0-16.746-28.989h-33.492l-16.745 28.989 16.745 28.989h33.492l16.746-28.989Zm-68.294-59.117 17.237-29.847.164-.289h34.81l17.401 30.128-17.237 29.847-.164.289h-34.81l-17.401-30.128Zm68.294 0-16.746-28.989h-33.492l-16.745 28.989 16.745 28.989h33.492l16.746-28.989Zm-68.294-59.117 17.237-29.847.164-.289h34.81l17.401 30.128-17.237 29.847-.164.289h-34.81l-17.401-30.128Zm68.294 0-16.746-28.989h-33.492l-16.745 28.989 16.745 28.989h33.492l16.746-28.989Zm-68.294-118.234 17.237-29.847.164-.289h34.81l17.401 30.128-17.237 29.847-.164.289h-34.81l-17.401-30.128Zm68.294 0-16.746-28.989h-33.492l-16.745 28.989 16.745 28.989h33.492l16.746-28.989Zm-68.294-59.117 17.237-29.847.164-.289h34.81l17.401 30.128-17.237 29.847-.164.289h-34.81l-17.401-30.128Zm68.294 0-16.746-28.989h-33.492l-16.745 28.989 16.745 28.989h33.492l16.746-28.989Zm-68.294-59.117 17.237-29.847.164-.289h34.81l17.401 30.128-17.237 29.847-.164.289h-34.81l-17.401-30.128Zm68.294 0-16.746-28.989h-33.492l-16.745 28.989 16.745 28.989h33.492l16.746-28.989Zm-68.294-59.117 17.237-29.847.164-.289h34.81l17.401 30.128-17.237 29.847-.164.289h-34.81l-17.401-30.128Zm68.294 0-16.746-28.989h-33.492l-16.745 28.989 16.745 28.989h33.492l16.746-28.989ZM408.167 84.819l17.237-29.847.164-.289h34.81l17.401 30.128-17.237 29.847-.164.289h-34.81l-17.401-30.128Zm68.294 0-16.746-28.99h-33.492l-16.745 28.99 16.745 28.989h33.492l16.746-28.989Zm-68.294-59.11 17.237-29.846.164-.289h34.81l17.401 30.128-17.237 29.847-.164.289h-34.81L408.167 25.71Zm68.294 0L459.715-3.278h-33.492L409.478 25.71l16.745 28.989h33.492l16.746-28.99ZM356.228 587.307l17.238-29.847.164-.289h34.81l17.401 30.128-17.237 29.847-.164.289h-34.81l-17.402-30.128Zm68.302 0-16.746-28.989h-33.491l-16.746 28.989 16.746 28.989h33.491l16.746-28.989Zm-68.302-59.117 17.238-29.847.164-.289h34.81l17.401 30.128-17.237 29.847-.164.289h-34.81l-17.402-30.128Zm68.302 0-16.746-28.99h-33.491l-16.746 28.989 16.746 28.989h33.491l16.746-28.989Zm-68.302-59.117 17.238-29.847.164-.289h34.81l17.401 30.128-17.237 29.847-.164.289h-34.81l-17.402-30.128Zm68.302 0-16.746-28.989h-33.491l-16.746 28.989 16.746 28.989h33.491l16.746-28.989Zm-68.302-118.234 17.238-29.847.164-.289h34.81l17.401 30.128-17.237 29.847-.164.289h-34.81l-17.402-30.128Zm68.302 0-16.746-28.989h-33.491l-16.746 28.989 16.746 28.989h33.491l16.746-28.989Zm-68.302-59.117 17.238-29.847.164-.289h34.81l17.401 30.128-17.237 29.847-.164.289h-34.81l-17.402-30.128Zm68.302 0-16.746-28.989h-33.491l-16.746 28.989 16.746 28.989h33.491l16.746-28.989Zm-68.302-59.117 17.238-29.847.164-.289h34.81l17.401 30.128-17.237 29.847-.164.289h-34.81l-17.402-30.128Zm68.302 0-16.746-28.989h-33.491l-16.746 28.989 16.746 28.989h33.491l16.746-28.989ZM356.228 114.37l17.238-29.847.164-.289h34.81l17.401 30.128-17.237 29.847-.164.289h-34.81l-17.402-30.128Zm68.302 0-16.746-28.99h-33.491l-16.746 28.99 16.746 28.989h33.491l16.746-28.989Zm-68.302-59.117 17.238-29.847.164-.289h34.81l17.401 30.128-17.237 29.847-.164.288h-34.81l-17.402-30.127Zm68.302 0-16.746-28.99h-33.491l-16.746 28.99 16.746 28.989h33.491l16.746-28.99ZM356.228-3.864l17.238-29.847.164-.289h34.81l17.401 30.128-17.237 29.847-.164.288h-34.81L356.228-3.863Zm68.302 0-16.746-28.99h-33.491l-16.746 28.99 16.746 28.989h33.491l16.746-28.99ZM305 616.872l17.237-29.847.164-.288h34.811l17.401 30.127-17.238 29.847-.163.289h-34.811L305 616.872Zm68.302 0-16.746-28.989h-33.491l-16.746 28.989 16.746 28.989h33.491l16.746-28.989ZM305 498.638l17.237-29.847.164-.289h34.811l17.401 30.128-17.238 29.847-.163.289h-34.811L305 498.638Zm68.302 0-16.746-28.989h-33.491l-16.746 28.989 16.746 28.989h33.491l16.746-28.989ZM305 439.521l17.237-29.847.164-.289h34.811l17.401 30.128-17.238 29.847-.163.289h-34.811L305 439.521Zm68.302 0-16.746-28.989h-33.491l-16.746 28.989 16.746 28.989h33.491l16.746-28.989ZM305 321.287l17.237-29.847.164-.289h34.811l17.401 30.128-17.238 29.847-.163.289h-34.811L305 321.287Zm68.302 0-16.746-28.989h-33.491l-16.746 28.989 16.746 28.989h33.491l16.746-28.989ZM305 203.053l17.237-29.847.164-.289h34.811l17.401 30.128-17.238 29.847-.163.289h-34.811L305 203.053Zm68.302 0-16.746-28.989h-33.491l-16.746 28.989 16.746 28.989h33.491l16.746-28.989ZM305 143.936l17.237-29.847.164-.289h34.811l17.401 30.128-17.238 29.847-.163.289h-34.811L305 143.936Zm68.302 0-16.746-28.989h-33.491l-16.746 28.989 16.746 28.989h33.491l16.746-28.989ZM305 84.819l17.237-29.847.164-.289h34.811l17.401 30.128-17.238 29.847-.163.289h-34.811L305 84.819Zm68.302 0-16.746-28.99h-33.491l-16.746 28.99 16.746 28.989h33.491l16.746-28.989ZM305 25.709l17.237-29.846.164-.289h34.811l17.401 30.128-17.238 29.847-.163.289h-34.811L305 25.71Zm68.302 0L356.556-3.278h-33.491L306.319 25.71l16.746 28.989h33.491l16.746-28.99Z"/>
    <path fill="url(#c)" d="M0 0h1440v601H0z"/>
    <g filter="url(#d)">
      <ellipse cx="727.5" cy="280.5" fill="url(#e)" rx="119.5" ry="251.5" transform="rotate(-90 727.5 280.5)"/>
    </g>
    <path fill="#075F55" d="M588.892 331.2v51.2h-30V430h-55.6v-47.6h-132.4v-51.2l93.2-181.2h59.2l-92.8 181.2h72.8v-66.4h55.6v66.4h30Zm131.631 104.4c-34.933 0-62.4-13.2-82.4-39.6-19.733-26.667-29.6-62-29.6-106s9.867-79.2 29.6-105.6c20-26.667 47.467-40 82.4-40 35.2 0 62.667 13.333 82.4 40 19.734 26.4 29.6 61.6 29.6 105.6 0 44-9.866 79.333-29.6 106-19.733 26.4-47.2 39.6-82.4 39.6Zm-42.4-77.2c9.6 15.467 23.734 23.2 42.4 23.2 18.667 0 32.8-7.867 42.4-23.6 9.867-15.733 14.8-38.4 14.8-68 0-29.867-4.933-52.667-14.8-68.4-9.6-15.733-23.733-23.6-42.4-23.6-18.666 0-32.8 7.867-42.4 23.6-9.6 15.733-14.4 38.533-14.4 68.4 0 29.867 4.8 52.667 14.4 68.4Zm394.757-27.2v51.2h-30V430h-55.603v-47.6h-132.4v-51.2l93.2-181.2h59.203l-92.803 181.2h72.8v-66.4h55.603v66.4h30Z"/>
  </g>
  <defs>
    <linearGradient id="b" x1="305" x2="1148.01" y1="306.508" y2="306.508" gradientUnits="userSpaceOnUse">
      <stop stop-color="#6B862B" stop-opacity=".6"/>
      <stop offset=".5" stop-color="#9AC12A" stop-opacity=".4"/>
      <stop offset="1" stop-color="#00A164"/>
    </linearGradient>
    <linearGradient id="e" x1="727.5" x2="727.5" y1="29" y2="532" gradientUnits="userSpaceOnUse">
      <stop stop-color="#1BA068"/>
      <stop offset="1" stop-color="#A6D05D"/>
    </linearGradient>
    <radialGradient id="c" cx="0" cy="0" r="1" gradientTransform="matrix(0 222.014 -653.312 0 625.22 332.355)" gradientUnits="userSpaceOnUse">
      <stop stop-color="#075F55" stop-opacity="0"/>
      <stop offset=".673" stop-color="#075F55" stop-opacity=".5"/>
      <stop offset="1" stop-color="#075F55"/>
    </radialGradient>
    <clipPath id="a">
      <path fill="#fff" d="M0 0h1440v601H0z"/>
    </clipPath>
    <filter id="d" width="703" height="439" x="376" y="61" color-interpolation-filters="sRGB" filterUnits="userSpaceOnUse">
      <feFlood flood-opacity="0" result="BackgroundImageFix"/>
      <feBlend in="SourceGraphic" in2="BackgroundImageFix" result="shape"/>
      <feGaussianBlur result="effect1_foregroundBlur_3690_4588" stdDeviation="50"/>
    </filter>
  </defs>
</svg>
