<svg xmlns="http://www.w3.org/2000/svg" width="140" height="26" fill="none" viewBox="0 0 140 26">
  <path fill="#1BA068" d="M18.857 1.131v24.294H13.6v-1.631c-1.156 1.318-2.874 2.116-5.223 2.116C3.784 25.91 0 21.92 0 16.748c0-5.17 3.786-9.162 8.376-9.162 2.35 0 4.066.799 5.223 2.117V1.13h5.258ZM13.6 16.748c0-2.602-1.752-4.234-4.17-4.234-2.419 0-4.171 1.63-4.171 4.234s1.752 4.235 4.17 4.235c2.419 0 4.171-1.63 4.171-4.235Zm19.626-9.023v5.9c-2.173-.347-5.257.52-5.257 3.956v7.844H22.71V8.072h5.258v3.09c.7-2.326 3.049-3.437 5.257-3.437Z"/>
  <path fill="#A6D05D" d="M35.33 22.613c0-1.804 1.507-3.297 3.33-3.297 1.824 0 3.33 1.492 3.33 3.297 0 1.806-1.506 3.297-3.33 3.297-1.823 0-3.33-1.491-3.33-3.297Z"/>
  <path fill="#1BA068" d="M47.013 16.748c0-5.135 4.101-9.057 9.218-9.057 5.118 0 9.183 3.922 9.183 9.058 0 5.135-4.102 9.057-9.183 9.057-5.08 0-9.218-3.922-9.218-9.058Zm16.614 0c0-4.13-3.225-7.392-7.396-7.392-4.17 0-7.43 3.263-7.43 7.393s3.26 7.392 7.43 7.392c4.171 0 7.396-3.263 7.396-7.392Zm20.819-2.118v10.793H82.66V14.631c0-3.193-1.858-5.275-5.152-5.275s-6.133 2.221-6.133 6.907v9.162H69.62V8.072h1.753v3.297c1.331-2.567 3.574-3.678 6.273-3.678 4.171 0 6.8 2.741 6.8 6.941v-.001ZM89.389.09h1.752v25.333H89.39V.09Zm6.623 2.394c0-.73.631-1.354 1.403-1.354.77 0 1.402.625 1.402 1.354 0 .73-.631 1.388-1.402 1.388a1.4 1.4 0 0 1-1.403-1.388Zm.525 5.588h1.753v17.353h-1.753V8.072Zm21.978 6.558v10.793h-1.787V14.631c0-3.193-1.858-5.275-5.152-5.275s-6.133 2.221-6.133 6.907v9.162h-1.753V8.072h1.753v3.297c1.331-2.567 3.574-3.678 6.273-3.678 4.171 0 6.799 2.741 6.799 6.941v-.001ZM140 16.817c0 .278-.035.556-.035.833h-15.877c.421 3.922 3.434 6.49 7.43 6.49 2.874 0 5.048-1.319 6.064-3.159l1.543.903c-1.437 2.36-4.171 3.922-7.642 3.922-5.398 0-9.218-3.817-9.218-9.058 0-5.24 3.715-9.057 9.078-9.057 5.363 0 8.657 4.373 8.657 9.128v-.002Zm-15.913-.867h14.09c-.385-4.234-3.4-6.594-6.836-6.594-3.995 0-6.904 2.741-7.254 6.594Z"/>
</svg>
