<svg xmlns="http://www.w3.org/2000/svg" width="237" height="45" fill="none" viewBox="0 0 237 45">
  <path fill="#fff" d="M31.922 1.781v41.536h-8.9V40.53c-1.958 2.254-4.866 3.619-8.842 3.619C6.406 44.148 0 37.325 0 28.483s6.409-15.665 14.18-15.665c3.976 0 6.882 1.365 8.842 3.619V1.78h8.9Zm-8.9 26.702c0-4.45-2.967-7.24-7.06-7.24-4.095 0-7.061 2.788-7.061 7.24 0 4.451 2.966 7.24 7.06 7.24 4.094 0 7.06-2.789 7.06-7.24Zm33.225-15.427v10.086c-3.68-.593-8.9.89-8.9 6.764v13.411h-8.9V13.648h8.9v5.283c1.185-3.977 5.162-5.875 8.9-5.875Z"/>
  <path fill="#A6D05D" d="M59.81 38.51c0-3.085 2.55-5.637 5.637-5.637 3.087 0 5.637 2.55 5.637 5.637 0 3.087-2.55 5.637-5.637 5.637-3.087 0-5.637-2.55-5.637-5.637Z"/>
  <path fill="#fff" d="M79.586 28.483c0-8.78 6.943-15.486 15.606-15.486s15.545 6.706 15.545 15.486c0 8.78-6.943 15.486-15.545 15.486-8.601 0-15.606-6.706-15.606-15.486Zm28.125 0c0-7.06-5.458-12.64-12.519-12.64-7.06 0-12.578 5.58-12.578 12.64 0 7.06 5.517 12.639 12.578 12.639 7.061 0 12.519-5.578 12.519-12.64Zm35.244-3.621v18.453h-3.025V24.862c0-5.458-3.146-9.018-8.722-9.018s-10.383 3.797-10.383 11.808v15.665h-2.966V13.65h2.966v5.637c2.254-4.39 6.052-6.289 10.621-6.289 7.06 0 11.509 4.687 11.509 11.867v-.002ZM151.322 0h2.967v43.314h-2.967V0Zm11.213 4.094c0-1.248 1.068-2.316 2.374-2.316s2.374 1.068 2.374 2.316c0 1.247-1.068 2.374-2.374 2.374a2.38 2.38 0 0 1-2.374-2.374Zm.889 9.554h2.967v29.669h-2.967V13.648Zm37.205 11.214v18.453h-3.026V24.862c0-5.458-3.146-9.018-8.721-9.018-5.576 0-10.383 3.797-10.383 11.808v15.665h-2.967V13.65h2.967v5.637c2.254-4.39 6.051-6.289 10.62-6.289 7.061 0 11.51 4.687 11.51 11.867v-.002ZM237 28.6c0 .476-.059.951-.059 1.424h-26.878c.713 6.705 5.814 11.096 12.578 11.096 4.866 0 8.545-2.254 10.265-5.4l2.612 1.543c-2.433 4.035-7.061 6.706-12.936 6.706-9.138 0-15.606-6.527-15.606-15.486 0-8.96 6.289-15.486 15.369-15.486 9.079 0 14.655 7.477 14.655 15.606V28.6Zm-26.939-1.482h23.852c-.652-7.24-5.755-11.274-11.571-11.274-6.764 0-11.688 4.686-12.281 11.274Z"/>
</svg>
