<svg width="140" height="26" viewBox="0 0 140 26" fill="none" xmlns="http://www.w3.org/2000/svg">
<path d="M18.8571 1.13123V25.4247H13.5994V23.794C12.4431 25.1123 10.7252 25.9104 8.37639 25.9104C3.7844 25.9104 0 21.9198 0 16.7484C0 11.5771 3.78591 7.58646 8.37639 7.58646C10.7252 7.58646 12.4416 8.38458 13.5994 9.70283V1.13123H18.8571ZM13.5994 16.7484C13.5994 14.1463 11.8468 12.5142 9.42854 12.5142C7.01027 12.5142 5.2577 14.1448 5.2577 16.7484C5.2577 19.3521 7.01027 20.9827 9.42854 20.9827C11.8468 20.9827 13.5994 19.3521 13.5994 16.7484Z" fill="white"/>
<path d="M33.2263 7.72546V13.6247C31.0526 13.278 27.9686 14.1448 27.9686 17.5809V25.4247H22.7109V8.07222H27.9686V11.1616C28.6691 8.83596 31.0179 7.72546 33.2263 7.72546Z" fill="white"/>
<path d="M35.3306 22.6133C35.3306 20.8093 36.8371 19.3162 38.6606 19.3162C40.4841 19.3162 41.9906 20.8078 41.9906 22.6133C41.9906 24.4188 40.4841 25.9104 38.6606 25.9104C36.8371 25.9104 35.3306 24.4188 35.3306 22.6133Z" fill="#A6D05D"/>
<path d="M47.0129 16.7485C47.0129 11.613 51.1143 7.69116 56.2317 7.69116C61.349 7.69116 65.4141 11.613 65.4141 16.7485C65.4141 21.884 61.3127 25.8059 56.2317 25.8059C51.1506 25.8059 47.0129 21.884 47.0129 16.7485ZM63.6268 16.7485C63.6268 12.6189 60.4025 9.35616 56.2317 9.35616C52.0608 9.35616 48.8017 12.6189 48.8017 16.7485C48.8017 20.8781 52.0608 24.1409 56.2317 24.1409C60.4025 24.1409 63.6268 20.8781 63.6268 16.7485Z" fill="white"/>
<path d="M84.4462 14.6306V25.4232H82.6589V14.6306C82.6589 11.4382 80.8007 9.35616 77.5069 9.35616C74.2131 9.35616 71.3737 11.5772 71.3737 16.2628V25.4247H69.6211V8.07229H71.3737V11.3694C72.7051 8.80166 74.9482 7.69116 77.6473 7.69116C81.8181 7.69116 84.4462 10.4323 84.4462 14.6321V14.6306Z" fill="white"/>
<path d="M89.3884 0.0895996H91.141V25.4233H89.3884V0.0895996Z" fill="white"/>
<path d="M96.0122 2.48388C96.0122 1.75451 96.6432 1.12976 97.4146 1.12976C98.1859 1.12976 98.8169 1.75451 98.8169 2.48388C98.8169 3.21326 98.1859 3.87238 97.4146 3.87238C96.6432 3.87238 96.0122 3.24763 96.0122 2.48388ZM96.5375 8.07224H98.2901V25.4247H96.5375V8.07224Z" fill="white"/>
<path d="M118.515 14.6306V25.4232H116.728V14.6306C116.728 11.4382 114.869 9.35616 111.575 9.35616C108.282 9.35616 105.442 11.5772 105.442 16.2628V25.4247H103.69V8.07229H105.442V11.3694C106.774 8.80166 109.017 7.69116 111.716 7.69116C115.887 7.69116 118.515 10.4323 118.515 14.6321V14.6306Z" fill="white"/>
<path d="M140 16.8173C140 17.0953 139.965 17.3733 139.965 17.6498H124.088C124.509 21.5716 127.522 24.1394 131.518 24.1394C134.392 24.1394 136.566 22.8211 137.582 20.9813L139.125 21.884C137.688 24.244 134.954 25.8059 131.483 25.8059C126.085 25.8059 122.265 21.9886 122.265 16.7485C122.265 11.5084 125.98 7.69116 131.343 7.69116C136.706 7.69116 140 12.0644 140 16.8188V16.8173ZM124.087 15.9504H138.177C137.792 11.7162 134.777 9.35616 131.341 9.35616C127.346 9.35616 124.437 12.0973 124.087 15.9504Z" fill="white"/>
</svg>
